<?xml version="1.0" encoding="utf-8" standalone="no"?>
<!DOCTYPE svg PUBLIC "-//W3C//DTD SVG 1.1//EN"
  "http://www.w3.org/Graphics/SVG/1.1/DTD/svg11.dtd">
<svg xmlns:xlink="http://www.w3.org/1999/xlink" width="460.8pt" height="345.6pt" viewBox="0 0 460.8 345.6" xmlns="http://www.w3.org/2000/svg" version="1.1">
 <metadata>
  <rdf:RDF xmlns:dc="http://purl.org/dc/elements/1.1/" xmlns:cc="http://creativecommons.org/ns#" xmlns:rdf="http://www.w3.org/1999/02/22-rdf-syntax-ns#">
   <cc:Work>
    <dc:type rdf:resource="http://purl.org/dc/dcmitype/StillImage"/>
    <dc:date>2024-07-08T19:14:08.562156</dc:date>
    <dc:format>image/svg+xml</dc:format>
    <dc:creator>
     <cc:Agent>
      <dc:title>Matplotlib v3.7.2, https://matplotlib.org/</dc:title>
     </cc:Agent>
    </dc:creator>
   </cc:Work>
  </rdf:RDF>
 </metadata>
 <defs>
  <style type="text/css">*{stroke-linejoin: round; stroke-linecap: butt}</style>
 </defs>
 <g id="figure_1">
  <g id="patch_1">
   <path d="M 0 345.6 
L 460.8 345.6 
L 460.8 0 
L 0 0 
z
" style="fill: #ffffff"/>
  </g>
  <g id="axes_1">
   <g id="patch_2">
    <path d="M 57.6 307.584 
L 414.72 307.584 
L 414.72 41.472 
L 57.6 41.472 
z
" style="fill: #ffffff"/>
   </g>
   <g id="patch_3">
    <path d="M 73.832727 307.584 
L 76.214742 307.584 
L 76.214742 307.047619 
L 73.832727 307.047619 
z
" clip-path="url(#p8529e37e99)" style="fill: #0504aa; opacity: 0.7"/>
   </g>
   <g id="patch_4">
    <path d="M 76.635097 307.584 
L 79.017111 307.584 
L 79.017111 305.974857 
L 76.635097 305.974857 
z
" clip-path="url(#p8529e37e99)" style="fill: #0504aa; opacity: 0.7"/>
   </g>
   <g id="patch_5">
    <path d="M 79.437467 307.584 
L 81.819481 307.584 
L 81.819481 303.561143 
L 79.437467 303.561143 
z
" clip-path="url(#p8529e37e99)" style="fill: #0504aa; opacity: 0.7"/>
   </g>
   <g id="patch_6">
    <path d="M 82.239837 307.584 
L 84.621851 307.584 
L 84.621851 302.22019 
L 82.239837 302.22019 
z
" clip-path="url(#p8529e37e99)" style="fill: #0504aa; opacity: 0.7"/>
   </g>
   <g id="patch_7">
    <path d="M 85.042207 307.584 
L 87.424221 307.584 
L 87.424221 294.442667 
L 85.042207 294.442667 
z
" clip-path="url(#p8529e37e99)" style="fill: #0504aa; opacity: 0.7"/>
   </g>
   <g id="patch_8">
    <path d="M 87.844576 307.584 
L 90.226591 307.584 
L 90.226591 288.810667 
L 87.844576 288.810667 
z
" clip-path="url(#p8529e37e99)" style="fill: #0504aa; opacity: 0.7"/>
   </g>
   <g id="patch_9">
    <path d="M 90.646946 307.584 
L 93.028961 307.584 
L 93.028961 277.546667 
L 90.646946 277.546667 
z
" clip-path="url(#p8529e37e99)" style="fill: #0504aa; opacity: 0.7"/>
   </g>
   <g id="patch_10">
    <path d="M 93.449316 307.584 
L 95.83133 307.584 
L 95.83133 264.137143 
L 93.449316 264.137143 
z
" clip-path="url(#p8529e37e99)" style="fill: #0504aa; opacity: 0.7"/>
   </g>
   <g id="patch_11">
    <path d="M 96.251686 307.584 
L 98.6337 307.584 
L 98.6337 252.068571 
L 96.251686 252.068571 
z
" clip-path="url(#p8529e37e99)" style="fill: #0504aa; opacity: 0.7"/>
   </g>
   <g id="patch_12">
    <path d="M 99.054056 307.584 
L 101.43607 307.584 
L 101.43607 235.172571 
L 99.054056 235.172571 
z
" clip-path="url(#p8529e37e99)" style="fill: #0504aa; opacity: 0.7"/>
   </g>
   <g id="patch_13">
    <path d="M 101.856426 307.584 
L 104.23844 307.584 
L 104.23844 205.671619 
L 101.856426 205.671619 
z
" clip-path="url(#p8529e37e99)" style="fill: #0504aa; opacity: 0.7"/>
   </g>
   <g id="patch_14">
    <path d="M 104.658795 307.584 
L 107.04081 307.584 
L 107.04081 186.361905 
L 104.658795 186.361905 
z
" clip-path="url(#p8529e37e99)" style="fill: #0504aa; opacity: 0.7"/>
   </g>
   <g id="patch_15">
    <path d="M 107.461165 307.584 
L 109.84318 307.584 
L 109.84318 162.224762 
L 107.461165 162.224762 
z
" clip-path="url(#p8529e37e99)" style="fill: #0504aa; opacity: 0.7"/>
   </g>
   <g id="patch_16">
    <path d="M 110.263535 307.584 
L 112.645549 307.584 
L 112.645549 151.765333 
L 110.263535 151.765333 
z
" clip-path="url(#p8529e37e99)" style="fill: #0504aa; opacity: 0.7"/>
   </g>
   <g id="patch_17">
    <path d="M 113.065905 307.584 
L 115.447919 307.584 
L 115.447919 131.919238 
L 113.065905 131.919238 
z
" clip-path="url(#p8529e37e99)" style="fill: #0504aa; opacity: 0.7"/>
   </g>
   <g id="patch_18">
    <path d="M 115.868275 307.584 
L 118.250289 307.584 
L 118.250289 92.227048 
L 115.868275 92.227048 
z
" clip-path="url(#p8529e37e99)" style="fill: #0504aa; opacity: 0.7"/>
   </g>
   <g id="patch_19">
    <path d="M 118.670645 307.584 
L 121.052659 307.584 
L 121.052659 98.663619 
L 118.670645 98.663619 
z
" clip-path="url(#p8529e37e99)" style="fill: #0504aa; opacity: 0.7"/>
   </g>
   <g id="patch_20">
    <path d="M 121.473014 307.584 
L 123.855029 307.584 
L 123.855029 76.672 
L 121.473014 76.672 
z
" clip-path="url(#p8529e37e99)" style="fill: #0504aa; opacity: 0.7"/>
   </g>
   <g id="patch_21">
    <path d="M 124.275384 307.584 
L 126.657399 307.584 
L 126.657399 68.358095 
L 124.275384 68.358095 
z
" clip-path="url(#p8529e37e99)" style="fill: #0504aa; opacity: 0.7"/>
   </g>
   <g id="patch_22">
    <path d="M 127.077754 307.584 
L 129.459769 307.584 
L 129.459769 79.353905 
L 127.077754 79.353905 
z
" clip-path="url(#p8529e37e99)" style="fill: #0504aa; opacity: 0.7"/>
   </g>
   <g id="patch_23">
    <path d="M 129.880124 307.584 
L 132.262138 307.584 
L 132.262138 54.144 
L 129.880124 54.144 
z
" clip-path="url(#p8529e37e99)" style="fill: #0504aa; opacity: 0.7"/>
   </g>
   <g id="patch_24">
    <path d="M 132.682494 307.584 
L 135.064508 307.584 
L 135.064508 90.349714 
L 132.682494 90.349714 
z
" clip-path="url(#p8529e37e99)" style="fill: #0504aa; opacity: 0.7"/>
   </g>
   <g id="patch_25">
    <path d="M 135.484864 307.584 
L 137.866878 307.584 
L 137.866878 87.66781 
L 135.484864 87.66781 
z
" clip-path="url(#p8529e37e99)" style="fill: #0504aa; opacity: 0.7"/>
   </g>
   <g id="patch_26">
    <path d="M 138.287233 307.584 
L 140.669248 307.584 
L 140.669248 93.031619 
L 138.287233 93.031619 
z
" clip-path="url(#p8529e37e99)" style="fill: #0504aa; opacity: 0.7"/>
   </g>
   <g id="patch_27">
    <path d="M 141.089603 307.584 
L 143.471618 307.584 
L 143.471618 90.617905 
L 141.089603 90.617905 
z
" clip-path="url(#p8529e37e99)" style="fill: #0504aa; opacity: 0.7"/>
   </g>
   <g id="patch_28">
    <path d="M 143.891973 307.584 
L 146.273988 307.584 
L 146.273988 105.368381 
L 143.891973 105.368381 
z
" clip-path="url(#p8529e37e99)" style="fill: #0504aa; opacity: 0.7"/>
   </g>
   <g id="patch_29">
    <path d="M 146.694343 307.584 
L 149.076357 307.584 
L 149.076357 120.923429 
L 146.694343 120.923429 
z
" clip-path="url(#p8529e37e99)" style="fill: #0504aa; opacity: 0.7"/>
   </g>
   <g id="patch_30">
    <path d="M 149.496713 307.584 
L 151.878727 307.584 
L 151.878727 115.291429 
L 149.496713 115.291429 
z
" clip-path="url(#p8529e37e99)" style="fill: #0504aa; opacity: 0.7"/>
   </g>
   <g id="patch_31">
    <path d="M 152.299083 307.584 
L 154.681097 307.584 
L 154.681097 142.646857 
L 152.299083 142.646857 
z
" clip-path="url(#p8529e37e99)" style="fill: #0504aa; opacity: 0.7"/>
   </g>
   <g id="patch_32">
    <path d="M 155.101453 307.584 
L 157.483467 307.584 
L 157.483467 149.083429 
L 155.101453 149.083429 
z
" clip-path="url(#p8529e37e99)" style="fill: #0504aa; opacity: 0.7"/>
   </g>
   <g id="patch_33">
    <path d="M 157.903822 307.584 
L 160.285837 307.584 
L 160.285837 168.124952 
L 157.903822 168.124952 
z
" clip-path="url(#p8529e37e99)" style="fill: #0504aa; opacity: 0.7"/>
   </g>
   <g id="patch_34">
    <path d="M 160.706192 307.584 
L 163.088207 307.584 
L 163.088207 183.143619 
L 160.706192 183.143619 
z
" clip-path="url(#p8529e37e99)" style="fill: #0504aa; opacity: 0.7"/>
   </g>
   <g id="patch_35">
    <path d="M 163.508562 307.584 
L 165.890576 307.584 
L 165.890576 182.339048 
L 163.508562 182.339048 
z
" clip-path="url(#p8529e37e99)" style="fill: #0504aa; opacity: 0.7"/>
   </g>
   <g id="patch_36">
    <path d="M 166.310932 307.584 
L 168.692946 307.584 
L 168.692946 194.67581 
L 166.310932 194.67581 
z
" clip-path="url(#p8529e37e99)" style="fill: #0504aa; opacity: 0.7"/>
   </g>
   <g id="patch_37">
    <path d="M 169.113302 307.584 
L 171.495316 307.584 
L 171.495316 216.667429 
L 169.113302 216.667429 
z
" clip-path="url(#p8529e37e99)" style="fill: #0504aa; opacity: 0.7"/>
   </g>
   <g id="patch_38">
    <path d="M 171.915672 307.584 
L 174.297686 307.584 
L 174.297686 213.449143 
L 171.915672 213.449143 
z
" clip-path="url(#p8529e37e99)" style="fill: #0504aa; opacity: 0.7"/>
   </g>
   <g id="patch_39">
    <path d="M 174.718041 307.584 
L 177.100056 307.584 
L 177.100056 222.031238 
L 174.718041 222.031238 
z
" clip-path="url(#p8529e37e99)" style="fill: #0504aa; opacity: 0.7"/>
   </g>
   <g id="patch_40">
    <path d="M 177.520411 307.584 
L 179.902426 307.584 
L 179.902426 221.494857 
L 177.520411 221.494857 
z
" clip-path="url(#p8529e37e99)" style="fill: #0504aa; opacity: 0.7"/>
   </g>
   <g id="patch_41">
    <path d="M 180.322781 307.584 
L 182.704795 307.584 
L 182.704795 242.681905 
L 180.322781 242.681905 
z
" clip-path="url(#p8529e37e99)" style="fill: #0504aa; opacity: 0.7"/>
   </g>
   <g id="patch_42">
    <path d="M 183.125151 307.584 
L 185.507165 307.584 
L 185.507165 249.654857 
L 183.125151 249.654857 
z
" clip-path="url(#p8529e37e99)" style="fill: #0504aa; opacity: 0.7"/>
   </g>
   <g id="patch_43">
    <path d="M 185.927521 307.584 
L 188.309535 307.584 
L 188.309535 248.582095 
L 185.927521 248.582095 
z
" clip-path="url(#p8529e37e99)" style="fill: #0504aa; opacity: 0.7"/>
   </g>
   <g id="patch_44">
    <path d="M 188.729891 307.584 
L 191.111905 307.584 
L 191.111905 258.236952 
L 188.729891 258.236952 
z
" clip-path="url(#p8529e37e99)" style="fill: #0504aa; opacity: 0.7"/>
   </g>
   <g id="patch_45">
    <path d="M 191.53226 307.584 
L 193.914275 307.584 
L 193.914275 265.209905 
L 191.53226 265.209905 
z
" clip-path="url(#p8529e37e99)" style="fill: #0504aa; opacity: 0.7"/>
   </g>
   <g id="patch_46">
    <path d="M 194.33463 307.584 
L 196.716645 307.584 
L 196.716645 270.573714 
L 194.33463 270.573714 
z
" clip-path="url(#p8529e37e99)" style="fill: #0504aa; opacity: 0.7"/>
   </g>
   <g id="patch_47">
    <path d="M 197.137 307.584 
L 199.519014 307.584 
L 199.519014 269.769143 
L 197.137 269.769143 
z
" clip-path="url(#p8529e37e99)" style="fill: #0504aa; opacity: 0.7"/>
   </g>
   <g id="patch_48">
    <path d="M 199.93937 307.584 
L 202.321384 307.584 
L 202.321384 274.328381 
L 199.93937 274.328381 
z
" clip-path="url(#p8529e37e99)" style="fill: #0504aa; opacity: 0.7"/>
   </g>
   <g id="patch_49">
    <path d="M 202.74174 307.584 
L 205.123754 307.584 
L 205.123754 275.401143 
L 202.74174 275.401143 
z
" clip-path="url(#p8529e37e99)" style="fill: #0504aa; opacity: 0.7"/>
   </g>
   <g id="patch_50">
    <path d="M 205.54411 307.584 
L 207.926124 307.584 
L 207.926124 279.424 
L 205.54411 279.424 
z
" clip-path="url(#p8529e37e99)" style="fill: #0504aa; opacity: 0.7"/>
   </g>
   <g id="patch_51">
    <path d="M 208.346479 307.584 
L 210.728494 307.584 
L 210.728494 284.519619 
L 208.346479 284.519619 
z
" clip-path="url(#p8529e37e99)" style="fill: #0504aa; opacity: 0.7"/>
   </g>
   <g id="patch_52">
    <path d="M 211.148849 307.584 
L 213.530864 307.584 
L 213.530864 285.056 
L 211.148849 285.056 
z
" clip-path="url(#p8529e37e99)" style="fill: #0504aa; opacity: 0.7"/>
   </g>
   <g id="patch_53">
    <path d="M 213.951219 307.584 
L 216.333233 307.584 
L 216.333233 282.374095 
L 213.951219 282.374095 
z
" clip-path="url(#p8529e37e99)" style="fill: #0504aa; opacity: 0.7"/>
   </g>
   <g id="patch_54">
    <path d="M 216.753589 307.584 
L 219.135603 307.584 
L 219.135603 288.542476 
L 216.753589 288.542476 
z
" clip-path="url(#p8529e37e99)" style="fill: #0504aa; opacity: 0.7"/>
   </g>
   <g id="patch_55">
    <path d="M 219.555959 307.584 
L 221.937973 307.584 
L 221.937973 292.028952 
L 219.555959 292.028952 
z
" clip-path="url(#p8529e37e99)" style="fill: #0504aa; opacity: 0.7"/>
   </g>
   <g id="patch_56">
    <path d="M 222.358329 307.584 
L 224.740343 307.584 
L 224.740343 290.151619 
L 222.358329 290.151619 
z
" clip-path="url(#p8529e37e99)" style="fill: #0504aa; opacity: 0.7"/>
   </g>
   <g id="patch_57">
    <path d="M 225.160698 307.584 
L 227.542713 307.584 
L 227.542713 294.174476 
L 225.160698 294.174476 
z
" clip-path="url(#p8529e37e99)" style="fill: #0504aa; opacity: 0.7"/>
   </g>
   <g id="patch_58">
    <path d="M 227.963068 307.584 
L 230.345083 307.584 
L 230.345083 293.369905 
L 227.963068 293.369905 
z
" clip-path="url(#p8529e37e99)" style="fill: #0504aa; opacity: 0.7"/>
   </g>
   <g id="patch_59">
    <path d="M 230.765438 307.584 
L 233.147452 307.584 
L 233.147452 297.929143 
L 230.765438 297.929143 
z
" clip-path="url(#p8529e37e99)" style="fill: #0504aa; opacity: 0.7"/>
   </g>
   <g id="patch_60">
    <path d="M 233.567808 307.584 
L 235.949822 307.584 
L 235.949822 294.442667 
L 233.567808 294.442667 
z
" clip-path="url(#p8529e37e99)" style="fill: #0504aa; opacity: 0.7"/>
   </g>
   <g id="patch_61">
    <path d="M 236.370178 307.584 
L 238.752192 307.584 
L 238.752192 294.710857 
L 236.370178 294.710857 
z
" clip-path="url(#p8529e37e99)" style="fill: #0504aa; opacity: 0.7"/>
   </g>
   <g id="patch_62">
    <path d="M 239.172548 307.584 
L 241.554562 307.584 
L 241.554562 298.197333 
L 239.172548 298.197333 
z
" clip-path="url(#p8529e37e99)" style="fill: #0504aa; opacity: 0.7"/>
   </g>
   <g id="patch_63">
    <path d="M 241.974917 307.584 
L 244.356932 307.584 
L 244.356932 299.806476 
L 241.974917 299.806476 
z
" clip-path="url(#p8529e37e99)" style="fill: #0504aa; opacity: 0.7"/>
   </g>
   <g id="patch_64">
    <path d="M 244.777287 307.584 
L 247.159302 307.584 
L 247.159302 302.22019 
L 244.777287 302.22019 
z
" clip-path="url(#p8529e37e99)" style="fill: #0504aa; opacity: 0.7"/>
   </g>
   <g id="patch_65">
    <path d="M 247.579657 307.584 
L 249.961671 307.584 
L 249.961671 302.756571 
L 247.579657 302.756571 
z
" clip-path="url(#p8529e37e99)" style="fill: #0504aa; opacity: 0.7"/>
   </g>
   <g id="patch_66">
    <path d="M 250.382027 307.584 
L 252.764041 307.584 
L 252.764041 303.024762 
L 250.382027 303.024762 
z
" clip-path="url(#p8529e37e99)" style="fill: #0504aa; opacity: 0.7"/>
   </g>
   <g id="patch_67">
    <path d="M 253.184397 307.584 
L 255.566411 307.584 
L 255.566411 302.22019 
L 253.184397 302.22019 
z
" clip-path="url(#p8529e37e99)" style="fill: #0504aa; opacity: 0.7"/>
   </g>
   <g id="patch_68">
    <path d="M 255.986767 307.584 
L 258.368781 307.584 
L 258.368781 303.292952 
L 255.986767 303.292952 
z
" clip-path="url(#p8529e37e99)" style="fill: #0504aa; opacity: 0.7"/>
   </g>
   <g id="patch_69">
    <path d="M 258.789136 307.584 
L 261.171151 307.584 
L 261.171151 304.902095 
L 258.789136 304.902095 
z
" clip-path="url(#p8529e37e99)" style="fill: #0504aa; opacity: 0.7"/>
   </g>
   <g id="patch_70">
    <path d="M 261.591506 307.584 
L 263.973521 307.584 
L 263.973521 303.561143 
L 261.591506 303.561143 
z
" clip-path="url(#p8529e37e99)" style="fill: #0504aa; opacity: 0.7"/>
   </g>
   <g id="patch_71">
    <path d="M 264.393876 307.584 
L 266.77589 307.584 
L 266.77589 304.902095 
L 264.393876 304.902095 
z
" clip-path="url(#p8529e37e99)" style="fill: #0504aa; opacity: 0.7"/>
   </g>
   <g id="patch_72">
    <path d="M 267.196246 307.584 
L 269.57826 307.584 
L 269.57826 303.561143 
L 267.196246 303.561143 
z
" clip-path="url(#p8529e37e99)" style="fill: #0504aa; opacity: 0.7"/>
   </g>
   <g id="patch_73">
    <path d="M 269.998616 307.584 
L 272.38063 307.584 
L 272.38063 305.438476 
L 269.998616 305.438476 
z
" clip-path="url(#p8529e37e99)" style="fill: #0504aa; opacity: 0.7"/>
   </g>
   <g id="patch_74">
    <path d="M 272.800986 307.584 
L 275.183 307.584 
L 275.183 304.902095 
L 272.800986 304.902095 
z
" clip-path="url(#p8529e37e99)" style="fill: #0504aa; opacity: 0.7"/>
   </g>
   <g id="patch_75">
    <path d="M 275.603355 307.584 
L 277.98537 307.584 
L 277.98537 306.243048 
L 275.603355 306.243048 
z
" clip-path="url(#p8529e37e99)" style="fill: #0504aa; opacity: 0.7"/>
   </g>
   <g id="patch_76">
    <path d="M 278.405725 307.584 
L 280.78774 307.584 
L 280.78774 305.438476 
L 278.405725 305.438476 
z
" clip-path="url(#p8529e37e99)" style="fill: #0504aa; opacity: 0.7"/>
   </g>
   <g id="patch_77">
    <path d="M 281.208095 307.584 
L 283.590109 307.584 
L 283.590109 306.243048 
L 281.208095 306.243048 
z
" clip-path="url(#p8529e37e99)" style="fill: #0504aa; opacity: 0.7"/>
   </g>
   <g id="patch_78">
    <path d="M 284.010465 307.584 
L 286.392479 307.584 
L 286.392479 305.438476 
L 284.010465 305.438476 
z
" clip-path="url(#p8529e37e99)" style="fill: #0504aa; opacity: 0.7"/>
   </g>
   <g id="patch_79">
    <path d="M 286.812835 307.584 
L 289.194849 307.584 
L 289.194849 305.974857 
L 286.812835 305.974857 
z
" clip-path="url(#p8529e37e99)" style="fill: #0504aa; opacity: 0.7"/>
   </g>
   <g id="patch_80">
    <path d="M 289.615205 307.584 
L 291.997219 307.584 
L 291.997219 305.706667 
L 289.615205 305.706667 
z
" clip-path="url(#p8529e37e99)" style="fill: #0504aa; opacity: 0.7"/>
   </g>
   <g id="patch_81">
    <path d="M 292.417574 307.584 
L 294.799589 307.584 
L 294.799589 306.511238 
L 292.417574 306.511238 
z
" clip-path="url(#p8529e37e99)" style="fill: #0504aa; opacity: 0.7"/>
   </g>
   <g id="patch_82">
    <path d="M 295.219944 307.584 
L 297.601959 307.584 
L 297.601959 306.511238 
L 295.219944 306.511238 
z
" clip-path="url(#p8529e37e99)" style="fill: #0504aa; opacity: 0.7"/>
   </g>
   <g id="patch_83">
    <path d="M 298.022314 307.584 
L 300.404328 307.584 
L 300.404328 306.511238 
L 298.022314 306.511238 
z
" clip-path="url(#p8529e37e99)" style="fill: #0504aa; opacity: 0.7"/>
   </g>
   <g id="patch_84">
    <path d="M 300.824684 307.584 
L 303.206698 307.584 
L 303.206698 307.047619 
L 300.824684 307.047619 
z
" clip-path="url(#p8529e37e99)" style="fill: #0504aa; opacity: 0.7"/>
   </g>
   <g id="patch_85">
    <path d="M 303.627054 307.584 
L 306.009068 307.584 
L 306.009068 307.047619 
L 303.627054 307.047619 
z
" clip-path="url(#p8529e37e99)" style="fill: #0504aa; opacity: 0.7"/>
   </g>
   <g id="patch_86">
    <path d="M 306.429424 307.584 
L 308.811438 307.584 
L 308.811438 307.31581 
L 306.429424 307.31581 
z
" clip-path="url(#p8529e37e99)" style="fill: #0504aa; opacity: 0.7"/>
   </g>
   <g id="patch_87">
    <path d="M 309.231793 307.584 
L 311.613808 307.584 
L 311.613808 307.31581 
L 309.231793 307.31581 
z
" clip-path="url(#p8529e37e99)" style="fill: #0504aa; opacity: 0.7"/>
   </g>
   <g id="patch_88">
    <path d="M 312.034163 307.584 
L 314.416178 307.584 
L 314.416178 306.779429 
L 312.034163 306.779429 
z
" clip-path="url(#p8529e37e99)" style="fill: #0504aa; opacity: 0.7"/>
   </g>
   <g id="patch_89">
    <path d="M 314.836533 307.584 
L 317.218547 307.584 
L 317.218547 307.31581 
L 314.836533 307.31581 
z
" clip-path="url(#p8529e37e99)" style="fill: #0504aa; opacity: 0.7"/>
   </g>
   <g id="patch_90">
    <path d="M 317.638903 307.584 
L 320.020917 307.584 
L 320.020917 307.31581 
L 317.638903 307.31581 
z
" clip-path="url(#p8529e37e99)" style="fill: #0504aa; opacity: 0.7"/>
   </g>
   <g id="patch_91">
    <path d="M 320.441273 307.584 
L 322.823287 307.584 
L 322.823287 307.584 
L 320.441273 307.584 
z
" clip-path="url(#p8529e37e99)" style="fill: #0504aa; opacity: 0.7"/>
   </g>
   <g id="patch_92">
    <path d="M 323.243643 307.584 
L 325.625657 307.584 
L 325.625657 307.584 
L 323.243643 307.584 
z
" clip-path="url(#p8529e37e99)" style="fill: #0504aa; opacity: 0.7"/>
   </g>
   <g id="patch_93">
    <path d="M 326.046012 307.584 
L 328.428027 307.584 
L 328.428027 306.779429 
L 326.046012 306.779429 
z
" clip-path="url(#p8529e37e99)" style="fill: #0504aa; opacity: 0.7"/>
   </g>
   <g id="patch_94">
    <path d="M 328.848382 307.584 
L 331.230397 307.584 
L 331.230397 307.584 
L 328.848382 307.584 
z
" clip-path="url(#p8529e37e99)" style="fill: #0504aa; opacity: 0.7"/>
   </g>
   <g id="patch_95">
    <path d="M 331.650752 307.584 
L 334.032767 307.584 
L 334.032767 307.584 
L 331.650752 307.584 
z
" clip-path="url(#p8529e37e99)" style="fill: #0504aa; opacity: 0.7"/>
   </g>
   <g id="patch_96">
    <path d="M 334.453122 307.584 
L 336.835136 307.584 
L 336.835136 307.047619 
L 334.453122 307.047619 
z
" clip-path="url(#p8529e37e99)" style="fill: #0504aa; opacity: 0.7"/>
   </g>
   <g id="patch_97">
    <path d="M 337.255492 307.584 
L 339.637506 307.584 
L 339.637506 307.584 
L 337.255492 307.584 
z
" clip-path="url(#p8529e37e99)" style="fill: #0504aa; opacity: 0.7"/>
   </g>
   <g id="patch_98">
    <path d="M 340.057862 307.584 
L 342.439876 307.584 
L 342.439876 307.31581 
L 340.057862 307.31581 
z
" clip-path="url(#p8529e37e99)" style="fill: #0504aa; opacity: 0.7"/>
   </g>
   <g id="patch_99">
    <path d="M 342.860231 307.584 
L 345.242246 307.584 
L 345.242246 307.584 
L 342.860231 307.584 
z
" clip-path="url(#p8529e37e99)" style="fill: #0504aa; opacity: 0.7"/>
   </g>
   <g id="patch_100">
    <path d="M 345.662601 307.584 
L 348.044616 307.584 
L 348.044616 307.31581 
L 345.662601 307.31581 
z
" clip-path="url(#p8529e37e99)" style="fill: #0504aa; opacity: 0.7"/>
   </g>
   <g id="patch_101">
    <path d="M 348.464971 307.584 
L 350.846986 307.584 
L 350.846986 307.31581 
L 348.464971 307.31581 
z
" clip-path="url(#p8529e37e99)" style="fill: #0504aa; opacity: 0.7"/>
   </g>
   <g id="patch_102">
    <path d="M 351.267341 307.584 
L 353.649355 307.584 
L 353.649355 307.584 
L 351.267341 307.584 
z
" clip-path="url(#p8529e37e99)" style="fill: #0504aa; opacity: 0.7"/>
   </g>
   <g id="patch_103">
    <path d="M 354.069711 307.584 
L 356.451725 307.584 
L 356.451725 307.584 
L 354.069711 307.584 
z
" clip-path="url(#p8529e37e99)" style="fill: #0504aa; opacity: 0.7"/>
   </g>
   <g id="patch_104">
    <path d="M 356.872081 307.584 
L 359.254095 307.584 
L 359.254095 307.584 
L 356.872081 307.584 
z
" clip-path="url(#p8529e37e99)" style="fill: #0504aa; opacity: 0.7"/>
   </g>
   <g id="patch_105">
    <path d="M 359.674451 307.584 
L 362.056465 307.584 
L 362.056465 307.584 
L 359.674451 307.584 
z
" clip-path="url(#p8529e37e99)" style="fill: #0504aa; opacity: 0.7"/>
   </g>
   <g id="patch_106">
    <path d="M 362.47682 307.584 
L 364.858835 307.584 
L 364.858835 307.584 
L 362.47682 307.584 
z
" clip-path="url(#p8529e37e99)" style="fill: #0504aa; opacity: 0.7"/>
   </g>
   <g id="patch_107">
    <path d="M 365.27919 307.584 
L 367.661205 307.584 
L 367.661205 307.584 
L 365.27919 307.584 
z
" clip-path="url(#p8529e37e99)" style="fill: #0504aa; opacity: 0.7"/>
   </g>
   <g id="patch_108">
    <path d="M 368.08156 307.584 
L 370.463574 307.584 
L 370.463574 307.584 
L 368.08156 307.584 
z
" clip-path="url(#p8529e37e99)" style="fill: #0504aa; opacity: 0.7"/>
   </g>
   <g id="patch_109">
    <path d="M 370.88393 307.584 
L 373.265944 307.584 
L 373.265944 307.584 
L 370.88393 307.584 
z
" clip-path="url(#p8529e37e99)" style="fill: #0504aa; opacity: 0.7"/>
   </g>
   <g id="patch_110">
    <path d="M 373.6863 307.584 
L 376.068314 307.584 
L 376.068314 307.584 
L 373.6863 307.584 
z
" clip-path="url(#p8529e37e99)" style="fill: #0504aa; opacity: 0.7"/>
   </g>
   <g id="patch_111">
    <path d="M 376.48867 307.584 
L 378.870684 307.584 
L 378.870684 307.584 
L 376.48867 307.584 
z
" clip-path="url(#p8529e37e99)" style="fill: #0504aa; opacity: 0.7"/>
   </g>
   <g id="patch_112">
    <path d="M 379.291039 307.584 
L 381.673054 307.584 
L 381.673054 307.584 
L 379.291039 307.584 
z
" clip-path="url(#p8529e37e99)" style="fill: #0504aa; opacity: 0.7"/>
   </g>
   <g id="patch_113">
    <path d="M 382.093409 307.584 
L 384.475424 307.584 
L 384.475424 307.584 
L 382.093409 307.584 
z
" clip-path="url(#p8529e37e99)" style="fill: #0504aa; opacity: 0.7"/>
   </g>
   <g id="patch_114">
    <path d="M 384.895779 307.584 
L 387.277793 307.584 
L 387.277793 307.584 
L 384.895779 307.584 
z
" clip-path="url(#p8529e37e99)" style="fill: #0504aa; opacity: 0.7"/>
   </g>
   <g id="patch_115">
    <path d="M 387.698149 307.584 
L 390.080163 307.584 
L 390.080163 307.584 
L 387.698149 307.584 
z
" clip-path="url(#p8529e37e99)" style="fill: #0504aa; opacity: 0.7"/>
   </g>
   <g id="patch_116">
    <path d="M 390.500519 307.584 
L 392.882533 307.584 
L 392.882533 307.584 
L 390.500519 307.584 
z
" clip-path="url(#p8529e37e99)" style="fill: #0504aa; opacity: 0.7"/>
   </g>
   <g id="patch_117">
    <path d="M 393.302889 307.584 
L 395.684903 307.584 
L 395.684903 307.584 
L 393.302889 307.584 
z
" clip-path="url(#p8529e37e99)" style="fill: #0504aa; opacity: 0.7"/>
   </g>
   <g id="patch_118">
    <path d="M 396.105258 307.584 
L 398.487273 307.584 
L 398.487273 307.31581 
L 396.105258 307.31581 
z
" clip-path="url(#p8529e37e99)" style="fill: #0504aa; opacity: 0.7"/>
   </g>
   <g id="matplotlib.axis_1">
    <g id="xtick_1">
     <g id="line2d_1">
      <defs>
       <path id="m3dfb5f8d73" d="M 0 0 
L 0 3.5 
" style="stroke: #000000; stroke-width: 0.8"/>
      </defs>
      <g>
       <use xlink:href="#m3dfb5f8d73" x="107.773134" y="307.584" style="stroke: #000000; stroke-width: 0.8"/>
      </g>
     </g>
     <g id="text_1">
      <!-- 3 -->
      <g transform="translate(104.591884 322.182437) scale(0.1 -0.1)">
       <defs>
        <path id="DejaVuSans-33" d="M 2597 2516 
Q 3050 2419 3304 2112 
Q 3559 1806 3559 1356 
Q 3559 666 3084 287 
Q 2609 -91 1734 -91 
Q 1441 -91 1130 -33 
Q 819 25 488 141 
L 488 750 
Q 750 597 1062 519 
Q 1375 441 1716 441 
Q 2309 441 2620 675 
Q 2931 909 2931 1356 
Q 2931 1769 2642 2001 
Q 2353 2234 1838 2234 
L 1294 2234 
L 1294 2753 
L 1863 2753 
Q 2328 2753 2575 2939 
Q 2822 3125 2822 3475 
Q 2822 3834 2567 4026 
Q 2313 4219 1838 4219 
Q 1578 4219 1281 4162 
Q 984 4106 628 3988 
L 628 4550 
Q 988 4650 1302 4700 
Q 1616 4750 1894 4750 
Q 2613 4750 3031 4423 
Q 3450 4097 3450 3541 
Q 3450 3153 3228 2886 
Q 3006 2619 2597 2516 
z
" transform="scale(0.015625)"/>
       </defs>
       <use xlink:href="#DejaVuSans-33"/>
      </g>
     </g>
    </g>
    <g id="xtick_2">
     <g id="line2d_2">
      <g>
       <use xlink:href="#m3dfb5f8d73" x="177.846267" y="307.584" style="stroke: #000000; stroke-width: 0.8"/>
      </g>
     </g>
     <g id="text_2">
      <!-- 4 -->
      <g transform="translate(174.665017 322.182437) scale(0.1 -0.1)">
       <defs>
        <path id="DejaVuSans-34" d="M 2419 4116 
L 825 1625 
L 2419 1625 
L 2419 4116 
z
M 2253 4666 
L 3047 4666 
L 3047 1625 
L 3713 1625 
L 3713 1100 
L 3047 1100 
L 3047 0 
L 2419 0 
L 2419 1100 
L 313 1100 
L 313 1709 
L 2253 4666 
z
" transform="scale(0.015625)"/>
       </defs>
       <use xlink:href="#DejaVuSans-34"/>
      </g>
     </g>
    </g>
    <g id="xtick_3">
     <g id="line2d_3">
      <g>
       <use xlink:href="#m3dfb5f8d73" x="247.919399" y="307.584" style="stroke: #000000; stroke-width: 0.8"/>
      </g>
     </g>
     <g id="text_3">
      <!-- 5 -->
      <g transform="translate(244.738149 322.182437) scale(0.1 -0.1)">
       <defs>
        <path id="DejaVuSans-35" d="M 691 4666 
L 3169 4666 
L 3169 4134 
L 1269 4134 
L 1269 2991 
Q 1406 3038 1543 3061 
Q 1681 3084 1819 3084 
Q 2600 3084 3056 2656 
Q 3513 2228 3513 1497 
Q 3513 744 3044 326 
Q 2575 -91 1722 -91 
Q 1428 -91 1123 -41 
Q 819 9 494 109 
L 494 744 
Q 775 591 1075 516 
Q 1375 441 1709 441 
Q 2250 441 2565 725 
Q 2881 1009 2881 1497 
Q 2881 1984 2565 2268 
Q 2250 2553 1709 2553 
Q 1456 2553 1204 2497 
Q 953 2441 691 2322 
L 691 4666 
z
" transform="scale(0.015625)"/>
       </defs>
       <use xlink:href="#DejaVuSans-35"/>
      </g>
     </g>
    </g>
    <g id="xtick_4">
     <g id="line2d_4">
      <g>
       <use xlink:href="#m3dfb5f8d73" x="317.992532" y="307.584" style="stroke: #000000; stroke-width: 0.8"/>
      </g>
     </g>
     <g id="text_4">
      <!-- 6 -->
      <g transform="translate(314.811282 322.182437) scale(0.1 -0.1)">
       <defs>
        <path id="DejaVuSans-36" d="M 2113 2584 
Q 1688 2584 1439 2293 
Q 1191 2003 1191 1497 
Q 1191 994 1439 701 
Q 1688 409 2113 409 
Q 2538 409 2786 701 
Q 3034 994 3034 1497 
Q 3034 2003 2786 2293 
Q 2538 2584 2113 2584 
z
M 3366 4563 
L 3366 3988 
Q 3128 4100 2886 4159 
Q 2644 4219 2406 4219 
Q 1781 4219 1451 3797 
Q 1122 3375 1075 2522 
Q 1259 2794 1537 2939 
Q 1816 3084 2150 3084 
Q 2853 3084 3261 2657 
Q 3669 2231 3669 1497 
Q 3669 778 3244 343 
Q 2819 -91 2113 -91 
Q 1303 -91 875 529 
Q 447 1150 447 2328 
Q 447 3434 972 4092 
Q 1497 4750 2381 4750 
Q 2619 4750 2861 4703 
Q 3103 4656 3366 4563 
z
" transform="scale(0.015625)"/>
       </defs>
       <use xlink:href="#DejaVuSans-36"/>
      </g>
     </g>
    </g>
    <g id="xtick_5">
     <g id="line2d_5">
      <g>
       <use xlink:href="#m3dfb5f8d73" x="388.065665" y="307.584" style="stroke: #000000; stroke-width: 0.8"/>
      </g>
     </g>
     <g id="text_5">
      <!-- 7 -->
      <g transform="translate(384.884415 322.182437) scale(0.1 -0.1)">
       <defs>
        <path id="DejaVuSans-37" d="M 525 4666 
L 3525 4666 
L 3525 4397 
L 1831 0 
L 1172 0 
L 2766 4134 
L 525 4134 
L 525 4666 
z
" transform="scale(0.015625)"/>
       </defs>
       <use xlink:href="#DejaVuSans-37"/>
      </g>
     </g>
    </g>
    <g id="text_6">
     <!-- Average path length,synthetic graphs, 30_ieee -->
     <g transform="translate(119.02875 335.860562) scale(0.1 -0.1)">
      <defs>
       <path id="DejaVuSans-41" d="M 2188 4044 
L 1331 1722 
L 3047 1722 
L 2188 4044 
z
M 1831 4666 
L 2547 4666 
L 4325 0 
L 3669 0 
L 3244 1197 
L 1141 1197 
L 716 0 
L 50 0 
L 1831 4666 
z
" transform="scale(0.015625)"/>
       <path id="DejaVuSans-76" d="M 191 3500 
L 800 3500 
L 1894 563 
L 2988 3500 
L 3597 3500 
L 2284 0 
L 1503 0 
L 191 3500 
z
" transform="scale(0.015625)"/>
       <path id="DejaVuSans-65" d="M 3597 1894 
L 3597 1613 
L 953 1613 
Q 991 1019 1311 708 
Q 1631 397 2203 397 
Q 2534 397 2845 478 
Q 3156 559 3463 722 
L 3463 178 
Q 3153 47 2828 -22 
Q 2503 -91 2169 -91 
Q 1331 -91 842 396 
Q 353 884 353 1716 
Q 353 2575 817 3079 
Q 1281 3584 2069 3584 
Q 2775 3584 3186 3129 
Q 3597 2675 3597 1894 
z
M 3022 2063 
Q 3016 2534 2758 2815 
Q 2500 3097 2075 3097 
Q 1594 3097 1305 2825 
Q 1016 2553 972 2059 
L 3022 2063 
z
" transform="scale(0.015625)"/>
       <path id="DejaVuSans-72" d="M 2631 2963 
Q 2534 3019 2420 3045 
Q 2306 3072 2169 3072 
Q 1681 3072 1420 2755 
Q 1159 2438 1159 1844 
L 1159 0 
L 581 0 
L 581 3500 
L 1159 3500 
L 1159 2956 
Q 1341 3275 1631 3429 
Q 1922 3584 2338 3584 
Q 2397 3584 2469 3576 
Q 2541 3569 2628 3553 
L 2631 2963 
z
" transform="scale(0.015625)"/>
       <path id="DejaVuSans-61" d="M 2194 1759 
Q 1497 1759 1228 1600 
Q 959 1441 959 1056 
Q 959 750 1161 570 
Q 1363 391 1709 391 
Q 2188 391 2477 730 
Q 2766 1069 2766 1631 
L 2766 1759 
L 2194 1759 
z
M 3341 1997 
L 3341 0 
L 2766 0 
L 2766 531 
Q 2569 213 2275 61 
Q 1981 -91 1556 -91 
Q 1019 -91 701 211 
Q 384 513 384 1019 
Q 384 1609 779 1909 
Q 1175 2209 1959 2209 
L 2766 2209 
L 2766 2266 
Q 2766 2663 2505 2880 
Q 2244 3097 1772 3097 
Q 1472 3097 1187 3025 
Q 903 2953 641 2809 
L 641 3341 
Q 956 3463 1253 3523 
Q 1550 3584 1831 3584 
Q 2591 3584 2966 3190 
Q 3341 2797 3341 1997 
z
" transform="scale(0.015625)"/>
       <path id="DejaVuSans-67" d="M 2906 1791 
Q 2906 2416 2648 2759 
Q 2391 3103 1925 3103 
Q 1463 3103 1205 2759 
Q 947 2416 947 1791 
Q 947 1169 1205 825 
Q 1463 481 1925 481 
Q 2391 481 2648 825 
Q 2906 1169 2906 1791 
z
M 3481 434 
Q 3481 -459 3084 -895 
Q 2688 -1331 1869 -1331 
Q 1566 -1331 1297 -1286 
Q 1028 -1241 775 -1147 
L 775 -588 
Q 1028 -725 1275 -790 
Q 1522 -856 1778 -856 
Q 2344 -856 2625 -561 
Q 2906 -266 2906 331 
L 2906 616 
Q 2728 306 2450 153 
Q 2172 0 1784 0 
Q 1141 0 747 490 
Q 353 981 353 1791 
Q 353 2603 747 3093 
Q 1141 3584 1784 3584 
Q 2172 3584 2450 3431 
Q 2728 3278 2906 2969 
L 2906 3500 
L 3481 3500 
L 3481 434 
z
" transform="scale(0.015625)"/>
       <path id="DejaVuSans-20" transform="scale(0.015625)"/>
       <path id="DejaVuSans-70" d="M 1159 525 
L 1159 -1331 
L 581 -1331 
L 581 3500 
L 1159 3500 
L 1159 2969 
Q 1341 3281 1617 3432 
Q 1894 3584 2278 3584 
Q 2916 3584 3314 3078 
Q 3713 2572 3713 1747 
Q 3713 922 3314 415 
Q 2916 -91 2278 -91 
Q 1894 -91 1617 61 
Q 1341 213 1159 525 
z
M 3116 1747 
Q 3116 2381 2855 2742 
Q 2594 3103 2138 3103 
Q 1681 3103 1420 2742 
Q 1159 2381 1159 1747 
Q 1159 1113 1420 752 
Q 1681 391 2138 391 
Q 2594 391 2855 752 
Q 3116 1113 3116 1747 
z
" transform="scale(0.015625)"/>
       <path id="DejaVuSans-74" d="M 1172 4494 
L 1172 3500 
L 2356 3500 
L 2356 3053 
L 1172 3053 
L 1172 1153 
Q 1172 725 1289 603 
Q 1406 481 1766 481 
L 2356 481 
L 2356 0 
L 1766 0 
Q 1100 0 847 248 
Q 594 497 594 1153 
L 594 3053 
L 172 3053 
L 172 3500 
L 594 3500 
L 594 4494 
L 1172 4494 
z
" transform="scale(0.015625)"/>
       <path id="DejaVuSans-68" d="M 3513 2113 
L 3513 0 
L 2938 0 
L 2938 2094 
Q 2938 2591 2744 2837 
Q 2550 3084 2163 3084 
Q 1697 3084 1428 2787 
Q 1159 2491 1159 1978 
L 1159 0 
L 581 0 
L 581 4863 
L 1159 4863 
L 1159 2956 
Q 1366 3272 1645 3428 
Q 1925 3584 2291 3584 
Q 2894 3584 3203 3211 
Q 3513 2838 3513 2113 
z
" transform="scale(0.015625)"/>
       <path id="DejaVuSans-6c" d="M 603 4863 
L 1178 4863 
L 1178 0 
L 603 0 
L 603 4863 
z
" transform="scale(0.015625)"/>
       <path id="DejaVuSans-6e" d="M 3513 2113 
L 3513 0 
L 2938 0 
L 2938 2094 
Q 2938 2591 2744 2837 
Q 2550 3084 2163 3084 
Q 1697 3084 1428 2787 
Q 1159 2491 1159 1978 
L 1159 0 
L 581 0 
L 581 3500 
L 1159 3500 
L 1159 2956 
Q 1366 3272 1645 3428 
Q 1925 3584 2291 3584 
Q 2894 3584 3203 3211 
Q 3513 2838 3513 2113 
z
" transform="scale(0.015625)"/>
       <path id="DejaVuSans-2c" d="M 750 794 
L 1409 794 
L 1409 256 
L 897 -744 
L 494 -744 
L 750 256 
L 750 794 
z
" transform="scale(0.015625)"/>
       <path id="DejaVuSans-73" d="M 2834 3397 
L 2834 2853 
Q 2591 2978 2328 3040 
Q 2066 3103 1784 3103 
Q 1356 3103 1142 2972 
Q 928 2841 928 2578 
Q 928 2378 1081 2264 
Q 1234 2150 1697 2047 
L 1894 2003 
Q 2506 1872 2764 1633 
Q 3022 1394 3022 966 
Q 3022 478 2636 193 
Q 2250 -91 1575 -91 
Q 1294 -91 989 -36 
Q 684 19 347 128 
L 347 722 
Q 666 556 975 473 
Q 1284 391 1588 391 
Q 1994 391 2212 530 
Q 2431 669 2431 922 
Q 2431 1156 2273 1281 
Q 2116 1406 1581 1522 
L 1381 1569 
Q 847 1681 609 1914 
Q 372 2147 372 2553 
Q 372 3047 722 3315 
Q 1072 3584 1716 3584 
Q 2034 3584 2315 3537 
Q 2597 3491 2834 3397 
z
" transform="scale(0.015625)"/>
       <path id="DejaVuSans-79" d="M 2059 -325 
Q 1816 -950 1584 -1140 
Q 1353 -1331 966 -1331 
L 506 -1331 
L 506 -850 
L 844 -850 
Q 1081 -850 1212 -737 
Q 1344 -625 1503 -206 
L 1606 56 
L 191 3500 
L 800 3500 
L 1894 763 
L 2988 3500 
L 3597 3500 
L 2059 -325 
z
" transform="scale(0.015625)"/>
       <path id="DejaVuSans-69" d="M 603 3500 
L 1178 3500 
L 1178 0 
L 603 0 
L 603 3500 
z
M 603 4863 
L 1178 4863 
L 1178 4134 
L 603 4134 
L 603 4863 
z
" transform="scale(0.015625)"/>
       <path id="DejaVuSans-63" d="M 3122 3366 
L 3122 2828 
Q 2878 2963 2633 3030 
Q 2388 3097 2138 3097 
Q 1578 3097 1268 2742 
Q 959 2388 959 1747 
Q 959 1106 1268 751 
Q 1578 397 2138 397 
Q 2388 397 2633 464 
Q 2878 531 3122 666 
L 3122 134 
Q 2881 22 2623 -34 
Q 2366 -91 2075 -91 
Q 1284 -91 818 406 
Q 353 903 353 1747 
Q 353 2603 823 3093 
Q 1294 3584 2113 3584 
Q 2378 3584 2631 3529 
Q 2884 3475 3122 3366 
z
" transform="scale(0.015625)"/>
       <path id="DejaVuSans-30" d="M 2034 4250 
Q 1547 4250 1301 3770 
Q 1056 3291 1056 2328 
Q 1056 1369 1301 889 
Q 1547 409 2034 409 
Q 2525 409 2770 889 
Q 3016 1369 3016 2328 
Q 3016 3291 2770 3770 
Q 2525 4250 2034 4250 
z
M 2034 4750 
Q 2819 4750 3233 4129 
Q 3647 3509 3647 2328 
Q 3647 1150 3233 529 
Q 2819 -91 2034 -91 
Q 1250 -91 836 529 
Q 422 1150 422 2328 
Q 422 3509 836 4129 
Q 1250 4750 2034 4750 
z
" transform="scale(0.015625)"/>
       <path id="DejaVuSans-5f" d="M 3263 -1063 
L 3263 -1509 
L -63 -1509 
L -63 -1063 
L 3263 -1063 
z
" transform="scale(0.015625)"/>
      </defs>
      <use xlink:href="#DejaVuSans-41"/>
      <use xlink:href="#DejaVuSans-76" x="62.533203"/>
      <use xlink:href="#DejaVuSans-65" x="121.712891"/>
      <use xlink:href="#DejaVuSans-72" x="183.236328"/>
      <use xlink:href="#DejaVuSans-61" x="224.349609"/>
      <use xlink:href="#DejaVuSans-67" x="285.628906"/>
      <use xlink:href="#DejaVuSans-65" x="349.105469"/>
      <use xlink:href="#DejaVuSans-20" x="410.628906"/>
      <use xlink:href="#DejaVuSans-70" x="442.416016"/>
      <use xlink:href="#DejaVuSans-61" x="505.892578"/>
      <use xlink:href="#DejaVuSans-74" x="567.171875"/>
      <use xlink:href="#DejaVuSans-68" x="606.380859"/>
      <use xlink:href="#DejaVuSans-20" x="669.759766"/>
      <use xlink:href="#DejaVuSans-6c" x="701.546875"/>
      <use xlink:href="#DejaVuSans-65" x="729.330078"/>
      <use xlink:href="#DejaVuSans-6e" x="790.853516"/>
      <use xlink:href="#DejaVuSans-67" x="854.232422"/>
      <use xlink:href="#DejaVuSans-74" x="917.708984"/>
      <use xlink:href="#DejaVuSans-68" x="956.917969"/>
      <use xlink:href="#DejaVuSans-2c" x="1020.296875"/>
      <use xlink:href="#DejaVuSans-73" x="1052.083984"/>
      <use xlink:href="#DejaVuSans-79" x="1104.183594"/>
      <use xlink:href="#DejaVuSans-6e" x="1163.363281"/>
      <use xlink:href="#DejaVuSans-74" x="1226.742188"/>
      <use xlink:href="#DejaVuSans-68" x="1265.951172"/>
      <use xlink:href="#DejaVuSans-65" x="1329.330078"/>
      <use xlink:href="#DejaVuSans-74" x="1390.853516"/>
      <use xlink:href="#DejaVuSans-69" x="1430.0625"/>
      <use xlink:href="#DejaVuSans-63" x="1457.845703"/>
      <use xlink:href="#DejaVuSans-20" x="1512.826172"/>
      <use xlink:href="#DejaVuSans-67" x="1544.613281"/>
      <use xlink:href="#DejaVuSans-72" x="1608.089844"/>
      <use xlink:href="#DejaVuSans-61" x="1649.203125"/>
      <use xlink:href="#DejaVuSans-70" x="1710.482422"/>
      <use xlink:href="#DejaVuSans-68" x="1773.958984"/>
      <use xlink:href="#DejaVuSans-73" x="1837.337891"/>
      <use xlink:href="#DejaVuSans-2c" x="1889.4375"/>
      <use xlink:href="#DejaVuSans-20" x="1921.224609"/>
      <use xlink:href="#DejaVuSans-33" x="1953.011719"/>
      <use xlink:href="#DejaVuSans-30" x="2016.634766"/>
      <use xlink:href="#DejaVuSans-5f" x="2080.257812"/>
      <use xlink:href="#DejaVuSans-69" x="2130.257812"/>
      <use xlink:href="#DejaVuSans-65" x="2158.041016"/>
      <use xlink:href="#DejaVuSans-65" x="2219.564453"/>
      <use xlink:href="#DejaVuSans-65" x="2281.087891"/>
     </g>
    </g>
   </g>
   <g id="matplotlib.axis_2">
    <g id="ytick_1">
     <g id="line2d_6">
      <path d="M 57.6 307.584 
L 414.72 307.584 
" clip-path="url(#p8529e37e99)" style="fill: none; stroke: #b0b0b0; stroke-opacity: 0.75; stroke-width: 0.8; stroke-linecap: square"/>
     </g>
     <g id="line2d_7">
      <defs>
       <path id="m120df0fb63" d="M 0 0 
L -3.5 0 
" style="stroke: #000000; stroke-width: 0.8"/>
      </defs>
      <g>
       <use xlink:href="#m120df0fb63" x="57.6" y="307.584" style="stroke: #000000; stroke-width: 0.8"/>
      </g>
     </g>
     <g id="text_7">
      <!-- 0 -->
      <g transform="translate(44.2375 311.383219) scale(0.1 -0.1)">
       <use xlink:href="#DejaVuSans-30"/>
      </g>
     </g>
    </g>
    <g id="ytick_2">
     <g id="line2d_8">
      <path d="M 57.6 253.945905 
L 414.72 253.945905 
" clip-path="url(#p8529e37e99)" style="fill: none; stroke: #b0b0b0; stroke-opacity: 0.75; stroke-width: 0.8; stroke-linecap: square"/>
     </g>
     <g id="line2d_9">
      <g>
       <use xlink:href="#m120df0fb63" x="57.6" y="253.945905" style="stroke: #000000; stroke-width: 0.8"/>
      </g>
     </g>
     <g id="text_8">
      <!-- 200 -->
      <g transform="translate(31.5125 257.745124) scale(0.1 -0.1)">
       <defs>
        <path id="DejaVuSans-32" d="M 1228 531 
L 3431 531 
L 3431 0 
L 469 0 
L 469 531 
Q 828 903 1448 1529 
Q 2069 2156 2228 2338 
Q 2531 2678 2651 2914 
Q 2772 3150 2772 3378 
Q 2772 3750 2511 3984 
Q 2250 4219 1831 4219 
Q 1534 4219 1204 4116 
Q 875 4013 500 3803 
L 500 4441 
Q 881 4594 1212 4672 
Q 1544 4750 1819 4750 
Q 2544 4750 2975 4387 
Q 3406 4025 3406 3419 
Q 3406 3131 3298 2873 
Q 3191 2616 2906 2266 
Q 2828 2175 2409 1742 
Q 1991 1309 1228 531 
z
" transform="scale(0.015625)"/>
       </defs>
       <use xlink:href="#DejaVuSans-32"/>
       <use xlink:href="#DejaVuSans-30" x="63.623047"/>
       <use xlink:href="#DejaVuSans-30" x="127.246094"/>
      </g>
     </g>
    </g>
    <g id="ytick_3">
     <g id="line2d_10">
      <path d="M 57.6 200.30781 
L 414.72 200.30781 
" clip-path="url(#p8529e37e99)" style="fill: none; stroke: #b0b0b0; stroke-opacity: 0.75; stroke-width: 0.8; stroke-linecap: square"/>
     </g>
     <g id="line2d_11">
      <g>
       <use xlink:href="#m120df0fb63" x="57.6" y="200.30781" style="stroke: #000000; stroke-width: 0.8"/>
      </g>
     </g>
     <g id="text_9">
      <!-- 400 -->
      <g transform="translate(31.5125 204.107028) scale(0.1 -0.1)">
       <use xlink:href="#DejaVuSans-34"/>
       <use xlink:href="#DejaVuSans-30" x="63.623047"/>
       <use xlink:href="#DejaVuSans-30" x="127.246094"/>
      </g>
     </g>
    </g>
    <g id="ytick_4">
     <g id="line2d_12">
      <path d="M 57.6 146.669714 
L 414.72 146.669714 
" clip-path="url(#p8529e37e99)" style="fill: none; stroke: #b0b0b0; stroke-opacity: 0.75; stroke-width: 0.8; stroke-linecap: square"/>
     </g>
     <g id="line2d_13">
      <g>
       <use xlink:href="#m120df0fb63" x="57.6" y="146.669714" style="stroke: #000000; stroke-width: 0.8"/>
      </g>
     </g>
     <g id="text_10">
      <!-- 600 -->
      <g transform="translate(31.5125 150.468933) scale(0.1 -0.1)">
       <use xlink:href="#DejaVuSans-36"/>
       <use xlink:href="#DejaVuSans-30" x="63.623047"/>
       <use xlink:href="#DejaVuSans-30" x="127.246094"/>
      </g>
     </g>
    </g>
    <g id="ytick_5">
     <g id="line2d_14">
      <path d="M 57.6 93.031619 
L 414.72 93.031619 
" clip-path="url(#p8529e37e99)" style="fill: none; stroke: #b0b0b0; stroke-opacity: 0.75; stroke-width: 0.8; stroke-linecap: square"/>
     </g>
     <g id="line2d_15">
      <g>
       <use xlink:href="#m120df0fb63" x="57.6" y="93.031619" style="stroke: #000000; stroke-width: 0.8"/>
      </g>
     </g>
     <g id="text_11">
      <!-- 800 -->
      <g transform="translate(31.5125 96.830838) scale(0.1 -0.1)">
       <defs>
        <path id="DejaVuSans-38" d="M 2034 2216 
Q 1584 2216 1326 1975 
Q 1069 1734 1069 1313 
Q 1069 891 1326 650 
Q 1584 409 2034 409 
Q 2484 409 2743 651 
Q 3003 894 3003 1313 
Q 3003 1734 2745 1975 
Q 2488 2216 2034 2216 
z
M 1403 2484 
Q 997 2584 770 2862 
Q 544 3141 544 3541 
Q 544 4100 942 4425 
Q 1341 4750 2034 4750 
Q 2731 4750 3128 4425 
Q 3525 4100 3525 3541 
Q 3525 3141 3298 2862 
Q 3072 2584 2669 2484 
Q 3125 2378 3379 2068 
Q 3634 1759 3634 1313 
Q 3634 634 3220 271 
Q 2806 -91 2034 -91 
Q 1263 -91 848 271 
Q 434 634 434 1313 
Q 434 1759 690 2068 
Q 947 2378 1403 2484 
z
M 1172 3481 
Q 1172 3119 1398 2916 
Q 1625 2713 2034 2713 
Q 2441 2713 2670 2916 
Q 2900 3119 2900 3481 
Q 2900 3844 2670 4047 
Q 2441 4250 2034 4250 
Q 1625 4250 1398 4047 
Q 1172 3844 1172 3481 
z
" transform="scale(0.015625)"/>
       </defs>
       <use xlink:href="#DejaVuSans-38"/>
       <use xlink:href="#DejaVuSans-30" x="63.623047"/>
       <use xlink:href="#DejaVuSans-30" x="127.246094"/>
      </g>
     </g>
    </g>
    <g id="text_12">
     <!-- Frequency -->
     <g transform="translate(25.432812 200.357687) rotate(-90) scale(0.1 -0.1)">
      <defs>
       <path id="DejaVuSans-46" d="M 628 4666 
L 3309 4666 
L 3309 4134 
L 1259 4134 
L 1259 2759 
L 3109 2759 
L 3109 2228 
L 1259 2228 
L 1259 0 
L 628 0 
L 628 4666 
z
" transform="scale(0.015625)"/>
       <path id="DejaVuSans-71" d="M 947 1747 
Q 947 1113 1208 752 
Q 1469 391 1925 391 
Q 2381 391 2643 752 
Q 2906 1113 2906 1747 
Q 2906 2381 2643 2742 
Q 2381 3103 1925 3103 
Q 1469 3103 1208 2742 
Q 947 2381 947 1747 
z
M 2906 525 
Q 2725 213 2448 61 
Q 2172 -91 1784 -91 
Q 1150 -91 751 415 
Q 353 922 353 1747 
Q 353 2572 751 3078 
Q 1150 3584 1784 3584 
Q 2172 3584 2448 3432 
Q 2725 3281 2906 2969 
L 2906 3500 
L 3481 3500 
L 3481 -1331 
L 2906 -1331 
L 2906 525 
z
" transform="scale(0.015625)"/>
       <path id="DejaVuSans-75" d="M 544 1381 
L 544 3500 
L 1119 3500 
L 1119 1403 
Q 1119 906 1312 657 
Q 1506 409 1894 409 
Q 2359 409 2629 706 
Q 2900 1003 2900 1516 
L 2900 3500 
L 3475 3500 
L 3475 0 
L 2900 0 
L 2900 538 
Q 2691 219 2414 64 
Q 2138 -91 1772 -91 
Q 1169 -91 856 284 
Q 544 659 544 1381 
z
M 1991 3584 
L 1991 3584 
z
" transform="scale(0.015625)"/>
      </defs>
      <use xlink:href="#DejaVuSans-46"/>
      <use xlink:href="#DejaVuSans-72" x="50.269531"/>
      <use xlink:href="#DejaVuSans-65" x="89.132812"/>
      <use xlink:href="#DejaVuSans-71" x="150.65625"/>
      <use xlink:href="#DejaVuSans-75" x="214.132812"/>
      <use xlink:href="#DejaVuSans-65" x="277.511719"/>
      <use xlink:href="#DejaVuSans-6e" x="339.035156"/>
      <use xlink:href="#DejaVuSans-63" x="402.414062"/>
      <use xlink:href="#DejaVuSans-79" x="457.394531"/>
     </g>
    </g>
   </g>
   <g id="line2d_16">
    <path d="M 129.197793 307.584 
L 129.197793 41.472 
" clip-path="url(#p8529e37e99)" style="fill: none; stroke: #ff0000; stroke-width: 1.5; stroke-linecap: square"/>
   </g>
   <g id="line2d_17">
    <path d="M 144.494526 307.584 
L 144.494526 41.472 
" clip-path="url(#p8529e37e99)" style="fill: none; stroke: #008000; stroke-width: 1.5; stroke-linecap: square"/>
   </g>
   <g id="patch_119">
    <path d="M 57.6 307.584 
L 57.6 41.472 
" style="fill: none; stroke: #000000; stroke-width: 0.8; stroke-linejoin: miter; stroke-linecap: square"/>
   </g>
   <g id="patch_120">
    <path d="M 414.72 307.584 
L 414.72 41.472 
" style="fill: none; stroke: #000000; stroke-width: 0.8; stroke-linejoin: miter; stroke-linecap: square"/>
   </g>
   <g id="patch_121">
    <path d="M 57.6 307.584 
L 414.72 307.584 
" style="fill: none; stroke: #000000; stroke-width: 0.8; stroke-linejoin: miter; stroke-linecap: square"/>
   </g>
   <g id="patch_122">
    <path d="M 57.6 41.472 
L 414.72 41.472 
" style="fill: none; stroke: #000000; stroke-width: 0.8; stroke-linejoin: miter; stroke-linecap: square"/>
   </g>
  </g>
 </g>
 <defs>
  <clipPath id="p8529e37e99">
   <rect x="57.6" y="41.472" width="357.12" height="266.112"/>
  </clipPath>
 </defs>
</svg>
