<?xml version="1.0" encoding="utf-8" standalone="no"?>
<!DOCTYPE svg PUBLIC "-//W3C//DTD SVG 1.1//EN"
  "http://www.w3.org/Graphics/SVG/1.1/DTD/svg11.dtd">
<svg xmlns:xlink="http://www.w3.org/1999/xlink" width="972pt" height="288pt" viewBox="0 0 972 288" xmlns="http://www.w3.org/2000/svg" version="1.1">
 <metadata>
  <rdf:RDF xmlns:dc="http://purl.org/dc/elements/1.1/" xmlns:cc="http://creativecommons.org/ns#" xmlns:rdf="http://www.w3.org/1999/02/22-rdf-syntax-ns#">
   <cc:Work>
    <dc:type rdf:resource="http://purl.org/dc/dcmitype/StillImage"/>
    <dc:date>2024-06-06T17:34:54.587885</dc:date>
    <dc:format>image/svg+xml</dc:format>
    <dc:creator>
     <cc:Agent>
      <dc:title>Matplotlib v3.7.2, https://matplotlib.org/</dc:title>
     </cc:Agent>
    </dc:creator>
   </cc:Work>
  </rdf:RDF>
 </metadata>
 <defs>
  <style type="text/css">*{stroke-linejoin: round; stroke-linecap: butt}</style>
 </defs>
 <g id="figure_1">
  <g id="patch_1">
   <path d="M 0 288 
L 972 288 
L 972 0 
L 0 0 
z
" style="fill: #ffffff"/>
  </g>
  <g id="axes_1">
   <g id="patch_2">
    <path d="M 121.5 256.32 
L 463.909091 256.32 
L 463.909091 34.56 
L 121.5 34.56 
z
" style="fill: #ffffff"/>
   </g>
   <g id="matplotlib.axis_1">
    <g id="xtick_1">
     <g id="line2d_1">
      <defs>
       <path id="m860251647d" d="M 0 0 
L 0 3.5 
" style="stroke: #000000; stroke-width: 0.8"/>
      </defs>
      <g>
       <use xlink:href="#m860251647d" x="137.06405" y="256.32" style="stroke: #000000; stroke-width: 0.8"/>
      </g>
     </g>
     <g id="text_1">
      <!-- 0 -->
      <g transform="translate(133.8828 270.918437) scale(0.1 -0.1)">
       <defs>
        <path id="DejaVuSans-30" d="M 2034 4250 
Q 1547 4250 1301 3770 
Q 1056 3291 1056 2328 
Q 1056 1369 1301 889 
Q 1547 409 2034 409 
Q 2525 409 2770 889 
Q 3016 1369 3016 2328 
Q 3016 3291 2770 3770 
Q 2525 4250 2034 4250 
z
M 2034 4750 
Q 2819 4750 3233 4129 
Q 3647 3509 3647 2328 
Q 3647 1150 3233 529 
Q 2819 -91 2034 -91 
Q 1250 -91 836 529 
Q 422 1150 422 2328 
Q 422 3509 836 4129 
Q 1250 4750 2034 4750 
z
" transform="scale(0.015625)"/>
       </defs>
       <use xlink:href="#DejaVuSans-30"/>
      </g>
     </g>
    </g>
    <g id="xtick_2">
     <g id="line2d_2">
      <g>
       <use xlink:href="#m860251647d" x="189.895175" y="256.32" style="stroke: #000000; stroke-width: 0.8"/>
      </g>
     </g>
     <g id="text_2">
      <!-- 1000 -->
      <g transform="translate(177.170175 270.918437) scale(0.1 -0.1)">
       <defs>
        <path id="DejaVuSans-31" d="M 794 531 
L 1825 531 
L 1825 4091 
L 703 3866 
L 703 4441 
L 1819 4666 
L 2450 4666 
L 2450 531 
L 3481 531 
L 3481 0 
L 794 0 
L 794 531 
z
" transform="scale(0.015625)"/>
       </defs>
       <use xlink:href="#DejaVuSans-31"/>
       <use xlink:href="#DejaVuSans-30" x="63.623047"/>
       <use xlink:href="#DejaVuSans-30" x="127.246094"/>
       <use xlink:href="#DejaVuSans-30" x="190.869141"/>
      </g>
     </g>
    </g>
    <g id="xtick_3">
     <g id="line2d_3">
      <g>
       <use xlink:href="#m860251647d" x="242.726301" y="256.32" style="stroke: #000000; stroke-width: 0.8"/>
      </g>
     </g>
     <g id="text_3">
      <!-- 2000 -->
      <g transform="translate(230.001301 270.918437) scale(0.1 -0.1)">
       <defs>
        <path id="DejaVuSans-32" d="M 1228 531 
L 3431 531 
L 3431 0 
L 469 0 
L 469 531 
Q 828 903 1448 1529 
Q 2069 2156 2228 2338 
Q 2531 2678 2651 2914 
Q 2772 3150 2772 3378 
Q 2772 3750 2511 3984 
Q 2250 4219 1831 4219 
Q 1534 4219 1204 4116 
Q 875 4013 500 3803 
L 500 4441 
Q 881 4594 1212 4672 
Q 1544 4750 1819 4750 
Q 2544 4750 2975 4387 
Q 3406 4025 3406 3419 
Q 3406 3131 3298 2873 
Q 3191 2616 2906 2266 
Q 2828 2175 2409 1742 
Q 1991 1309 1228 531 
z
" transform="scale(0.015625)"/>
       </defs>
       <use xlink:href="#DejaVuSans-32"/>
       <use xlink:href="#DejaVuSans-30" x="63.623047"/>
       <use xlink:href="#DejaVuSans-30" x="127.246094"/>
       <use xlink:href="#DejaVuSans-30" x="190.869141"/>
      </g>
     </g>
    </g>
    <g id="xtick_4">
     <g id="line2d_4">
      <g>
       <use xlink:href="#m860251647d" x="295.557426" y="256.32" style="stroke: #000000; stroke-width: 0.8"/>
      </g>
     </g>
     <g id="text_4">
      <!-- 3000 -->
      <g transform="translate(282.832426 270.918437) scale(0.1 -0.1)">
       <defs>
        <path id="DejaVuSans-33" d="M 2597 2516 
Q 3050 2419 3304 2112 
Q 3559 1806 3559 1356 
Q 3559 666 3084 287 
Q 2609 -91 1734 -91 
Q 1441 -91 1130 -33 
Q 819 25 488 141 
L 488 750 
Q 750 597 1062 519 
Q 1375 441 1716 441 
Q 2309 441 2620 675 
Q 2931 909 2931 1356 
Q 2931 1769 2642 2001 
Q 2353 2234 1838 2234 
L 1294 2234 
L 1294 2753 
L 1863 2753 
Q 2328 2753 2575 2939 
Q 2822 3125 2822 3475 
Q 2822 3834 2567 4026 
Q 2313 4219 1838 4219 
Q 1578 4219 1281 4162 
Q 984 4106 628 3988 
L 628 4550 
Q 988 4650 1302 4700 
Q 1616 4750 1894 4750 
Q 2613 4750 3031 4423 
Q 3450 4097 3450 3541 
Q 3450 3153 3228 2886 
Q 3006 2619 2597 2516 
z
" transform="scale(0.015625)"/>
       </defs>
       <use xlink:href="#DejaVuSans-33"/>
       <use xlink:href="#DejaVuSans-30" x="63.623047"/>
       <use xlink:href="#DejaVuSans-30" x="127.246094"/>
       <use xlink:href="#DejaVuSans-30" x="190.869141"/>
      </g>
     </g>
    </g>
    <g id="xtick_5">
     <g id="line2d_5">
      <g>
       <use xlink:href="#m860251647d" x="348.388552" y="256.32" style="stroke: #000000; stroke-width: 0.8"/>
      </g>
     </g>
     <g id="text_5">
      <!-- 4000 -->
      <g transform="translate(335.663552 270.918437) scale(0.1 -0.1)">
       <defs>
        <path id="DejaVuSans-34" d="M 2419 4116 
L 825 1625 
L 2419 1625 
L 2419 4116 
z
M 2253 4666 
L 3047 4666 
L 3047 1625 
L 3713 1625 
L 3713 1100 
L 3047 1100 
L 3047 0 
L 2419 0 
L 2419 1100 
L 313 1100 
L 313 1709 
L 2253 4666 
z
" transform="scale(0.015625)"/>
       </defs>
       <use xlink:href="#DejaVuSans-34"/>
       <use xlink:href="#DejaVuSans-30" x="63.623047"/>
       <use xlink:href="#DejaVuSans-30" x="127.246094"/>
       <use xlink:href="#DejaVuSans-30" x="190.869141"/>
      </g>
     </g>
    </g>
    <g id="xtick_6">
     <g id="line2d_6">
      <g>
       <use xlink:href="#m860251647d" x="401.219677" y="256.32" style="stroke: #000000; stroke-width: 0.8"/>
      </g>
     </g>
     <g id="text_6">
      <!-- 5000 -->
      <g transform="translate(388.494677 270.918437) scale(0.1 -0.1)">
       <defs>
        <path id="DejaVuSans-35" d="M 691 4666 
L 3169 4666 
L 3169 4134 
L 1269 4134 
L 1269 2991 
Q 1406 3038 1543 3061 
Q 1681 3084 1819 3084 
Q 2600 3084 3056 2656 
Q 3513 2228 3513 1497 
Q 3513 744 3044 326 
Q 2575 -91 1722 -91 
Q 1428 -91 1123 -41 
Q 819 9 494 109 
L 494 744 
Q 775 591 1075 516 
Q 1375 441 1709 441 
Q 2250 441 2565 725 
Q 2881 1009 2881 1497 
Q 2881 1984 2565 2268 
Q 2250 2553 1709 2553 
Q 1456 2553 1204 2497 
Q 953 2441 691 2322 
L 691 4666 
z
" transform="scale(0.015625)"/>
       </defs>
       <use xlink:href="#DejaVuSans-35"/>
       <use xlink:href="#DejaVuSans-30" x="63.623047"/>
       <use xlink:href="#DejaVuSans-30" x="127.246094"/>
       <use xlink:href="#DejaVuSans-30" x="190.869141"/>
      </g>
     </g>
    </g>
    <g id="xtick_7">
     <g id="line2d_7">
      <g>
       <use xlink:href="#m860251647d" x="454.050803" y="256.32" style="stroke: #000000; stroke-width: 0.8"/>
      </g>
     </g>
     <g id="text_7">
      <!-- 6000 -->
      <g transform="translate(441.325803 270.918437) scale(0.1 -0.1)">
       <defs>
        <path id="DejaVuSans-36" d="M 2113 2584 
Q 1688 2584 1439 2293 
Q 1191 2003 1191 1497 
Q 1191 994 1439 701 
Q 1688 409 2113 409 
Q 2538 409 2786 701 
Q 3034 994 3034 1497 
Q 3034 2003 2786 2293 
Q 2538 2584 2113 2584 
z
M 3366 4563 
L 3366 3988 
Q 3128 4100 2886 4159 
Q 2644 4219 2406 4219 
Q 1781 4219 1451 3797 
Q 1122 3375 1075 2522 
Q 1259 2794 1537 2939 
Q 1816 3084 2150 3084 
Q 2853 3084 3261 2657 
Q 3669 2231 3669 1497 
Q 3669 778 3244 343 
Q 2819 -91 2113 -91 
Q 1303 -91 875 529 
Q 447 1150 447 2328 
Q 447 3434 972 4092 
Q 1497 4750 2381 4750 
Q 2619 4750 2861 4703 
Q 3103 4656 3366 4563 
z
" transform="scale(0.015625)"/>
       </defs>
       <use xlink:href="#DejaVuSans-36"/>
       <use xlink:href="#DejaVuSans-30" x="63.623047"/>
       <use xlink:href="#DejaVuSans-30" x="127.246094"/>
       <use xlink:href="#DejaVuSans-30" x="190.869141"/>
      </g>
     </g>
    </g>
   </g>
   <g id="matplotlib.axis_2">
    <g id="ytick_1">
     <g id="line2d_8">
      <defs>
       <path id="maf144ceaf9" d="M 0 0 
L -3.5 0 
" style="stroke: #000000; stroke-width: 0.8"/>
      </defs>
      <g>
       <use xlink:href="#maf144ceaf9" x="121.5" y="235.251995" style="stroke: #000000; stroke-width: 0.8"/>
      </g>
     </g>
     <g id="text_8">
      <!-- −4.5 -->
      <g transform="translate(90.217187 239.051214) scale(0.1 -0.1)">
       <defs>
        <path id="DejaVuSans-2212" d="M 678 2272 
L 4684 2272 
L 4684 1741 
L 678 1741 
L 678 2272 
z
" transform="scale(0.015625)"/>
        <path id="DejaVuSans-2e" d="M 684 794 
L 1344 794 
L 1344 0 
L 684 0 
L 684 794 
z
" transform="scale(0.015625)"/>
       </defs>
       <use xlink:href="#DejaVuSans-2212"/>
       <use xlink:href="#DejaVuSans-34" x="83.789062"/>
       <use xlink:href="#DejaVuSans-2e" x="147.412109"/>
       <use xlink:href="#DejaVuSans-35" x="179.199219"/>
      </g>
     </g>
    </g>
    <g id="ytick_2">
     <g id="line2d_9">
      <g>
       <use xlink:href="#maf144ceaf9" x="121.5" y="197.099074" style="stroke: #000000; stroke-width: 0.8"/>
      </g>
     </g>
     <g id="text_9">
      <!-- −4.0 -->
      <g transform="translate(90.217187 200.898293) scale(0.1 -0.1)">
       <use xlink:href="#DejaVuSans-2212"/>
       <use xlink:href="#DejaVuSans-34" x="83.789062"/>
       <use xlink:href="#DejaVuSans-2e" x="147.412109"/>
       <use xlink:href="#DejaVuSans-30" x="179.199219"/>
      </g>
     </g>
    </g>
    <g id="ytick_3">
     <g id="line2d_10">
      <g>
       <use xlink:href="#maf144ceaf9" x="121.5" y="158.946152" style="stroke: #000000; stroke-width: 0.8"/>
      </g>
     </g>
     <g id="text_10">
      <!-- −3.5 -->
      <g transform="translate(90.217187 162.745371) scale(0.1 -0.1)">
       <use xlink:href="#DejaVuSans-2212"/>
       <use xlink:href="#DejaVuSans-33" x="83.789062"/>
       <use xlink:href="#DejaVuSans-2e" x="147.412109"/>
       <use xlink:href="#DejaVuSans-35" x="179.199219"/>
      </g>
     </g>
    </g>
    <g id="ytick_4">
     <g id="line2d_11">
      <g>
       <use xlink:href="#maf144ceaf9" x="121.5" y="120.793231" style="stroke: #000000; stroke-width: 0.8"/>
      </g>
     </g>
     <g id="text_11">
      <!-- −3.0 -->
      <g transform="translate(90.217187 124.59245) scale(0.1 -0.1)">
       <use xlink:href="#DejaVuSans-2212"/>
       <use xlink:href="#DejaVuSans-33" x="83.789062"/>
       <use xlink:href="#DejaVuSans-2e" x="147.412109"/>
       <use xlink:href="#DejaVuSans-30" x="179.199219"/>
      </g>
     </g>
    </g>
    <g id="ytick_5">
     <g id="line2d_12">
      <g>
       <use xlink:href="#maf144ceaf9" x="121.5" y="82.64031" style="stroke: #000000; stroke-width: 0.8"/>
      </g>
     </g>
     <g id="text_12">
      <!-- −2.5 -->
      <g transform="translate(90.217187 86.439528) scale(0.1 -0.1)">
       <use xlink:href="#DejaVuSans-2212"/>
       <use xlink:href="#DejaVuSans-32" x="83.789062"/>
       <use xlink:href="#DejaVuSans-2e" x="147.412109"/>
       <use xlink:href="#DejaVuSans-35" x="179.199219"/>
      </g>
     </g>
    </g>
    <g id="ytick_6">
     <g id="line2d_13">
      <g>
       <use xlink:href="#maf144ceaf9" x="121.5" y="44.487388" style="stroke: #000000; stroke-width: 0.8"/>
      </g>
     </g>
     <g id="text_13">
      <!-- −2.0 -->
      <g transform="translate(90.217187 48.286607) scale(0.1 -0.1)">
       <use xlink:href="#DejaVuSans-2212"/>
       <use xlink:href="#DejaVuSans-32" x="83.789062"/>
       <use xlink:href="#DejaVuSans-2e" x="147.412109"/>
       <use xlink:href="#DejaVuSans-30" x="179.199219"/>
      </g>
     </g>
    </g>
   </g>
   <g id="line2d_14">
    <path d="M 137.06405 44.64 
L 140.550904 55.057225 
L 144.037758 66.184816 
L 147.524612 78.071214 
L 150.958636 90.56947 
L 154.392659 103.906663 
L 157.826682 118.139106 
L 161.260705 133.326894 
L 164.694728 149.534152 
L 167.494778 163.279811 
L 167.547609 163.008407 
L 167.706102 162.195822 
L 167.758934 162.466142 
L 168.974049 168.758663 
L 169.026881 168.48178 
L 169.132543 168.205174 
L 169.185374 168.481503 
L 169.238205 168.204898 
L 169.291036 168.204898 
L 169.502361 169.034714 
L 169.766516 168.203792 
L 169.819347 168.203792 
L 172.038255 180.050694 
L 172.091086 179.762519 
L 172.989215 175.190716 
L 173.570357 177.750774 
L 173.623188 177.750774 
L 174.098669 180.045795 
L 174.257162 179.469743 
L 174.943967 182.939916 
L 175.260953 181.197891 
L 175.313784 181.487213 
L 177.268536 191.797846 
L 177.42703 191.198301 
L 178.008172 194.205033 
L 178.325159 192.997528 
L 178.906301 195.71849 
L 179.223288 194.504941 
L 180.808222 203.093951 
L 180.913884 202.782733 
L 181.442195 205.278712 
L 181.495026 205.278712 
L 182.076169 202.469341 
L 182.181831 203.090839 
L 182.234662 202.779624 
L 182.287493 202.46872 
L 182.340324 202.779313 
L 182.710142 204.649404 
L 183.502609 200.607653 
L 183.55544 200.607653 
L 183.661102 199.990498 
L 183.713933 200.298613 
L 183.925258 201.224807 
L 184.295076 199.681152 
L 185.087543 204.018551 
L 185.193205 203.394578 
L 185.246036 203.706096 
L 185.510192 205.26837 
L 185.563023 204.954977 
L 185.985672 202.769986 
L 186.144165 203.392085 
L 186.725308 200.599626 
L 186.883801 201.217383 
L 187.729099 196.609598 
L 188.468735 200.286585 
L 188.521566 200.286585 
L 189.842344 207.458612 
L 190.000837 206.51281 
L 190.053669 206.827447 
L 190.687642 210.30929 
L 191.215953 207.77072 
L 191.797096 211.262992 
L 191.849927 210.943604 
L 191.902758 210.943604 
L 192.695225 206.820518 
L 192.748056 206.820518 
L 193.065043 208.082188 
L 193.117874 208.082188 
L 195.125457 196.590705 
L 195.231119 196.590705 
L 195.548106 195.373369 
L 195.600937 195.373369 
L 196.023586 193.556628 
L 196.076417 193.556628 
L 198.136831 204.922106 
L 198.189662 204.922106 
L 198.453817 203.671797 
L 198.665142 204.295701 
L 199.087791 202.115311 
L 199.246284 202.42555 
L 199.563271 201.185213 
L 199.721764 201.185213 
L 199.774596 201.494523 
L 199.827427 201.184904 
L 199.933089 200.566595 
L 199.98592 200.875286 
L 200.144413 201.184285 
L 200.250076 200.874977 
L 200.514231 201.802592 
L 200.619894 201.802592 
L 201.782178 208.060371 
L 201.83501 208.060371 
L 202.151996 209.327008 
L 202.204827 209.327008 
L 202.521814 208.059106 
L 203.895423 215.735417 
L 204.106748 215.735417 
L 204.423735 214.44192 
L 204.529397 214.44192 
L 205.057708 217.0315 
L 205.110539 217.0315 
L 205.427526 215.408969 
L 205.691682 216.38054 
L 205.744513 216.38054 
L 205.797344 216.705045 
L 205.850175 216.380216 
L 205.903006 216.055711 
L 205.955837 216.379891 
L 206.008668 216.379891 
L 206.853966 211.546254 
L 206.906798 211.865925 
L 206.959629 211.545934 
L 207.329447 209.950777 
L 207.435109 209.950777 
L 207.593602 209.314945 
L 207.699264 209.950141 
L 207.752096 209.632066 
L 208.227576 207.414433 
L 208.333238 207.414433 
L 208.544562 206.783671 
L 208.597394 206.783671 
L 208.808718 207.413802 
L 208.91438 207.413802 
L 209.020043 207.098264 
L 209.072874 207.413487 
L 209.125705 207.097949 
L 209.759678 203.64779 
L 209.971003 204.89675 
L 210.023834 204.583729 
L 210.235158 203.334772 
L 210.28799 203.646231 
L 210.499314 204.270084 
L 210.76347 203.022379 
L 210.974794 203.956753 
L 211.186119 203.021446 
L 213.193702 215.066367 
L 213.246533 214.743177 
L 213.774844 212.168939 
L 213.880506 212.489232 
L 214.831466 207.39771 
L 214.884298 207.082188 
L 214.937129 207.397395 
L 214.98996 207.397395 
L 215.042791 207.081873 
L 215.095622 207.397079 
L 215.148453 207.397079 
L 215.359778 206.766352 
L 215.782427 208.97721 
L 215.94092 208.026857 
L 215.993751 208.343008 
L 216.680556 212.161572 
L 216.839049 211.841286 
L 216.944711 212.481537 
L 216.997543 212.160932 
L 217.842841 207.074623 
L 217.895672 207.389822 
L 218.846632 212.476087 
L 218.899463 212.476087 
L 219.322112 214.727034 
L 219.850423 212.153245 
L 220.114579 213.436278 
L 220.484397 211.831687 
L 220.64289 212.792516 
L 220.695721 212.471599 
L 220.907046 212.471599 
L 221.541019 208.962624 
L 223.495771 220.251425 
L 223.601433 219.923049 
L 224.129744 222.887313 
L 225.609016 214.065222 
L 225.661847 214.065222 
L 225.873172 212.778396 
L 225.926003 213.099298 
L 226.137327 214.386121 
L 226.190158 214.063611 
L 226.559976 212.13531 
L 226.612807 212.455569 
L 226.665639 212.13499 
L 227.141119 209.264158 
L 227.19395 209.581547 
L 227.563768 211.812171 
L 227.616599 211.492234 
L 227.986417 209.897027 
L 228.197741 209.897027 
L 228.514728 207.993663 
L 228.567559 208.309781 
L 228.884546 209.895118 
L 228.937377 209.577099 
L 228.990208 209.8948 
L 229.043039 209.8948 
L 229.307195 208.94138 
L 230.416648 215.666766 
L 230.46948 215.342975 
L 230.892129 213.085486 
L 231.948751 219.243711 
L 232.84688 214.044924 
L 234.009165 220.878564 
L 234.167658 220.549561 
L 234.273321 220.549561 
L 234.69597 223.188173 
L 234.748801 222.856861 
L 236.016748 215.327449 
L 236.069579 215.327449 
L 237.54885 206.706843 
L 237.654513 206.706843 
L 237.813006 205.763294 
L 237.865837 206.077182 
L 238.499811 209.233373 
L 238.552642 208.916016 
L 238.605473 209.233056 
L 238.816797 210.504391 
L 238.869629 210.185762 
L 238.92246 209.867452 
L 238.975291 210.185444 
L 240.137576 216.612482 
L 241.088536 211.45548 
L 241.405523 209.542789 
L 241.458354 209.860456 
L 242.303652 214.986549 
L 242.356483 214.663438 
L 243.201781 209.537389 
L 243.254612 209.85505 
L 244.945208 219.534052 
L 244.998039 219.534052 
L 245.315026 220.846652 
L 245.367857 220.846652 
L 245.632013 219.532741 
L 245.684844 219.860398 
L 245.737675 219.532413 
L 245.843337 219.532413 
L 246.635804 214.651818 
L 246.688635 214.974594 
L 246.741466 215.297693 
L 246.794297 214.974271 
L 247.164115 212.719355 
L 247.216946 213.040199 
L 247.798089 216.590725 
L 247.85092 216.26601 
L 248.167907 214.647299 
L 248.273569 214.970071 
L 249.013205 210.476034 
L 249.066036 210.794634 
L 249.647178 213.676413 
L 250.122658 211.430235 
L 250.386814 212.389857 
L 251.12645 208.564771 
L 251.232112 208.564771 
L 252.658552 216.902439 
L 252.764215 216.577412 
L 253.715175 222.141722 
L 254.190655 219.836784 
L 254.296317 219.836784 
L 254.454811 219.508823 
L 255.035953 222.799937 
L 255.141615 222.138419 
L 255.194446 222.468682 
L 255.722758 225.122701 
L 256.145407 223.128211 
L 256.3039 223.791048 
L 256.620887 222.465376 
L 256.726549 222.465376 
L 257.043536 220.48679 
L 257.096367 220.815402 
L 258.417145 228.464822 
L 258.522807 228.464822 
L 260.002079 219.49408 
L 261.428519 228.11949 
L 261.851168 226.107065 
L 261.95683 226.775861 
L 262.009662 226.440961 
L 262.379479 224.771477 
L 263.119115 229.462433 
L 263.171946 229.124846 
L 264.122907 223.769142 
L 265.813503 213.311537 
L 265.919165 213.632972 
L 266.18332 212.668345 
L 266.975787 216.863763 
L 267.028618 216.538775 
L 267.08145 216.863438 
L 267.821085 220.784812 
L 269.881499 208.514738 
L 270.621135 212.655834 
L 270.673966 212.335054 
L 270.726797 212.655513 
L 271.677757 218.152615 
L 271.941913 216.849464 
L 272.153238 218.15131 
L 272.206069 217.825034 
L 272.575887 215.874221 
L 272.681549 216.19822 
L 272.840042 215.549899 
L 273.051367 216.846539 
L 273.104198 216.521568 
L 273.157029 216.196922 
L 273.20986 216.521244 
L 273.474016 217.821775 
L 274.530638 211.364413 
L 276.379728 222.077987 
L 276.749546 220.10172 
L 276.855208 220.429946 
L 276.96087 219.773166 
L 277.013701 220.101063 
L 277.647675 223.397795 
L 277.91183 222.073694 
L 278.123155 222.73442 
L 278.545804 220.754224 
L 279.813751 228.738749 
L 279.866582 228.401886 
L 281.081698 221.075531 
L 281.134529 221.404731 
L 281.18736 221.075202 
L 281.345853 220.417132 
L 281.979827 224.049212 
L 282.349645 222.061147 
L 283.089281 226.379407 
L 283.617592 223.380888 
L 284.568552 229.061787 
L 284.621383 228.724601 
L 284.674214 229.06145 
L 285.096863 231.089629 
L 285.88933 226.706209 
L 286.787459 232.444093 
L 286.840291 232.103525 
L 287.26294 230.067255 
L 287.474264 230.067255 
L 287.527095 230.405446 
L 287.579926 230.066917 
L 287.73842 229.390872 
L 287.949744 230.06624 
L 288.795042 225.362225 
L 288.900704 225.362225 
L 289.64034 229.723658 
L 290.062989 227.701631 
L 290.432807 229.384122 
L 290.485638 229.384122 
L 290.5913 229.721631 
L 291.119612 226.358334 
L 291.172443 226.692816 
L 291.330936 227.698273 
L 291.383767 227.36245 
L 291.912079 224.687931 
L 291.96491 224.687931 
L 292.070572 225.020743 
L 292.176234 224.687598 
L 292.546052 227.024282 
L 292.598883 226.689134 
L 292.968701 224.352459 
L 293.021532 224.684936 
L 293.180026 225.350887 
L 293.655506 223.023552 
L 293.708337 223.023552 
L 293.919661 224.017989 
L 293.972492 223.685847 
L 294.025324 224.017657 
L 294.130986 224.349799 
L 294.395141 223.353374 
L 294.447973 223.353374 
L 294.500804 223.684852 
L 294.553635 223.353042 
L 294.606466 223.353042 
L 294.81779 222.690419 
L 295.346102 225.346218 
L 295.398933 225.346218 
L 295.451764 225.012748 
L 295.504595 225.345885 
L 295.663088 225.679355 
L 295.71592 225.679355 
L 295.768751 226.013159 
L 295.821582 225.679021 
L 296.297062 223.349396 
L 296.349893 223.349396 
L 296.931035 220.378038 
L 296.983867 220.378038 
L 297.565009 223.677884 
L 298.780125 216.454373 
L 298.832956 216.454373 
L 299.572592 212.58078 
L 299.625423 212.58078 
L 300.153734 215.802301 
L 300.206565 215.478375 
L 300.259396 215.478375 
L 300.312228 215.154772 
L 300.365059 215.478051 
L 301.316019 220.694703 
L 301.421681 220.694703 
L 301.738668 222.011953 
L 301.84433 222.011953 
L 302.108486 220.36457 
L 302.161317 220.693059 
L 302.214148 220.693059 
L 302.478304 222.010302 
L 302.900953 219.706281 
L 303.165108 221.019572 
L 303.429264 220.033128 
L 304.116069 223.660962 
L 304.1689 223.660962 
L 305.172691 229.684132 
L 305.225522 229.346323 
L 305.278353 229.683794 
L 306.599131 238.23112 
L 306.651963 237.884764 
L 306.704794 237.538755 
L 306.757625 237.884418 
L 306.810456 237.884418 
L 307.233105 235.813549 
L 307.444429 235.813549 
L 307.708585 234.782767 
L 307.91991 236.156454 
L 307.972741 235.812174 
L 308.923701 230.35027 
L 308.976532 230.35027 
L 309.029363 230.688745 
L 309.082194 230.349932 
L 310.191648 223.644373 
L 310.244479 223.976142 
L 310.29731 223.644042 
L 310.508635 222.318957 
L 310.561466 222.649401 
L 311.353933 226.975354 
L 312.304893 221.653455 
L 312.62188 220.336321 
L 313.09736 222.642455 
L 314.04832 217.389694 
L 314.99928 212.22035 
L 315.210605 210.940892 
L 315.263436 211.259957 
L 316.584214 219.013979 
L 316.742708 218.686514 
L 316.795539 218.686514 
L 318.116317 226.286428 
L 318.169148 226.286428 
L 318.27481 225.617941 
L 318.327641 225.951683 
L 318.591797 226.954913 
L 319.014446 224.616384 
L 319.384264 226.952568 
L 319.437095 226.617491 
L 319.806913 224.614055 
L 319.912575 225.279864 
L 319.965406 224.94646 
L 320.757873 219.98522 
L 320.810704 220.31333 
L 322.02582 227.27993 
L 322.078651 227.27993 
L 322.289976 227.951074 
L 322.342807 227.951074 
L 322.606963 226.274055 
L 322.659794 226.608453 
L 323.293767 229.970884 
L 323.399429 229.970884 
L 323.610754 229.294694 
L 323.822078 230.646396 
L 323.87491 230.307625 
L 323.980572 229.6311 
L 324.033403 229.968855 
L 324.086234 229.968855 
L 324.191896 229.293007 
L 324.244727 229.630424 
L 324.403221 230.306272 
L 324.456052 229.967841 
L 324.508883 230.305933 
L 324.667376 230.644363 
L 324.82587 230.305595 
L 324.931532 230.305595 
L 324.984363 230.644025 
L 325.037194 230.305256 
L 325.565506 227.271545 
L 325.723999 228.278739 
L 325.77683 227.942336 
L 325.829661 227.60627 
L 325.882492 227.942 
L 326.040986 228.951208 
L 326.093817 228.614132 
L 326.516466 225.929635 
L 326.569297 226.263689 
L 326.780621 227.267856 
L 326.991946 226.262685 
L 327.414595 228.27403 
L 327.520257 227.937632 
L 327.784413 228.946826 
L 327.890075 228.946826 
L 328.048568 227.936623 
L 328.1014 228.272684 
L 328.154231 228.272684 
L 329.105191 222.930512 
L 329.210853 222.930512 
L 331.376929 236.434229 
L 331.588254 235.401587 
L 331.852409 236.433195 
L 331.905241 236.433195 
L 332.116565 237.467902 
L 332.222227 237.122309 
L 332.592045 238.851998 
L 332.644876 238.851998 
L 333.120356 235.741674 
L 333.173188 236.08554 
L 333.226019 236.08554 
L 333.331681 236.42975 
L 335.286433 224.240433 
L 335.339264 224.240433 
L 335.603419 223.244336 
L 335.973237 225.237525 
L 336.237393 224.238439 
L 336.448717 224.903497 
L 336.501549 224.903497 
L 336.55438 224.570469 
L 336.607211 224.903164 
L 336.660042 225.236191 
L 336.712873 224.902831 
L 337.082691 223.241022 
L 337.188353 223.241022 
L 337.452509 221.917548 
L 337.558171 222.577961 
L 337.611002 222.247259 
L 337.663833 222.247259 
L 338.4563 217.978103 
L 338.614794 218.304206 
L 338.878949 217.000449 
L 339.090274 217.651024 
L 339.354429 216.349876 
L 339.777078 218.301594 
L 340.041234 217.323296 
L 340.094065 217.323296 
L 340.463883 219.608275 
L 340.516714 219.280542 
L 340.569545 219.280542 
L 340.675207 219.607947 
L 340.78087 219.280215 
L 340.939363 219.607619 
L 340.992194 219.607619 
L 341.362012 217.646137 
L 341.678999 219.605653 
L 341.73183 219.277923 
L 341.837492 218.950521 
L 342.048817 219.932727 
L 342.101648 219.60467 
L 342.154479 219.932399 
L 342.312972 220.58884 
L 342.577128 219.275958 
L 342.68279 219.931086 
L 342.735621 219.603031 
L 342.788452 219.275304 
L 342.841284 219.602703 
L 343.316764 221.903686 
L 343.686582 220.256843 
L 343.739413 220.256843 
L 344.53188 215.365457 
L 344.584711 215.688947 
L 345.694164 222.227107 
L 345.799827 221.896756 
L 346.750787 227.21688 
L 346.803618 227.21688 
L 347.331929 229.909018 
L 347.38476 229.909018 
L 349.445174 217.298563 
L 349.498005 217.298563 
L 350.818784 209.577576 
L 350.871615 209.577576 
L 350.977277 209.259874 
L 352.456548 217.615842 
L 352.50938 217.615842 
L 352.562211 217.290102 
L 352.615042 217.615516 
L 352.773535 217.94093 
L 352.826366 217.614865 
L 352.879197 217.940604 
L 353.46034 220.886954 
L 353.566002 220.886954 
L 353.988651 218.917815 
L 354.569793 222.202992 
L 355.045274 219.897298 
L 356.260389 226.85474 
L 356.313221 226.85474 
L 356.418883 226.185117 
L 356.471714 226.519426 
L 357.052856 229.543295 
L 357.105687 229.543295 
L 357.317012 228.868297 
L 357.633999 230.556634 
L 357.792492 230.217953 
L 357.950986 230.556295 
L 358.003817 230.217614 
L 358.056648 230.555956 
L 359.58875 240.168141 
L 359.852906 239.124308 
L 359.905737 239.471557 
L 359.958568 239.123961 
L 360.064231 238.776713 
L 360.275555 240.1664 
L 360.328386 239.818109 
L 360.381217 239.818109 
L 360.48688 239.470166 
L 360.539711 239.817761 
L 360.592542 239.469819 
L 361.807658 231.90251 
L 362.018982 231.90251 
L 362.441631 229.867443 
L 362.758618 231.221099 
L 362.917111 231.221099 
L 363.022774 231.90013 
L 363.075605 231.560105 
L 363.128436 231.560105 
L 363.445423 229.865077 
L 363.551085 230.203066 
L 364.71337 222.837499 
L 364.819032 223.499754 
L 364.871863 223.16813 
L 365.347343 220.856028 
L 365.505836 221.843956 
L 365.558668 221.513988 
L 366.932277 213.371168 
L 368.04173 219.86253 
L 369.41534 211.760505 
L 369.468171 211.760505 
L 369.626664 212.08039 
L 370.049313 209.84567 
L 370.154976 210.16364 
L 370.207807 209.845352 
L 370.260638 210.163322 
L 370.3663 210.481609 
L 371.053105 206.679297 
L 374.381466 226.804497 
L 374.434297 226.469568 
L 375.596581 219.185281 
L 376.01923 221.154055 
L 376.072062 221.154055 
L 376.230555 221.812941 
L 376.336217 221.483004 
L 376.547542 222.472815 
L 376.91736 220.494184 
L 376.970191 220.822803 
L 377.023022 220.493856 
L 378.3438 212.697057 
L 378.396631 212.697057 
L 378.555124 213.660484 
L 378.607956 213.338699 
L 378.872111 212.054775 
L 380.24572 220.156046 
L 380.932525 216.562963 
L 381.408005 219.169571 
L 381.989148 216.235681 
L 382.09481 216.560041 
L 382.253303 216.235032 
L 382.306134 216.235032 
L 382.57029 214.616476 
L 382.623121 214.939217 
L 382.992939 216.557768 
L 383.04577 216.557768 
L 384.260886 224.108178 
L 384.313717 223.775946 
L 384.630704 222.450335 
L 384.736366 222.450335 
L 384.947691 223.111815 
L 385.053353 223.111815 
L 385.106184 223.443051 
L 385.159015 223.111483 
L 385.211846 222.780248 
L 385.264677 223.111152 
L 386.109975 227.778376 
L 386.162807 227.778376 
L 386.426962 229.124003 
L 387.166598 225.099208 
L 387.27226 225.099208 
L 388.962856 214.922741 
L 389.015687 214.922741 
L 389.808154 210.429362 
L 389.913816 210.747916 
L 390.600621 207.257492 
L 392.766697 220.450152 
L 392.819528 220.121578 
L 392.872359 220.121578 
L 393.295009 218.15702 
L 393.34784 218.15702 
L 395.302591 229.773156 
L 395.408254 229.097699 
L 395.461085 229.434921 
L 395.513916 229.77248 
L 395.566747 229.434583 
L 395.830903 228.422919 
L 395.883734 228.422919 
L 396.306383 230.446919 
L 396.412045 230.446919 
L 396.781863 232.483431 
L 396.887525 232.142824 
L 396.940356 232.483091 
L 396.993187 232.142483 
L 397.468667 229.76775 
L 397.785654 231.121347 
L 398.419628 227.744115 
L 399.00077 230.779051 
L 399.317757 229.425469 
L 399.370588 229.425469 
L 400.42721 235.553287 
L 400.532873 235.553287 
L 400.797028 234.523285 
L 400.849859 234.865932 
L 400.902691 234.522942 
L 400.955522 234.522942 
L 401.114015 233.83799 
L 401.166846 234.179953 
L 401.219677 233.837648 
L 401.536664 232.131255 
L 402.223469 235.892836 
L 402.381962 235.548819 
L 403.491416 242.137711 
L 403.597078 242.137711 
L 404.17822 238.65081 
L 404.336714 239.344707 
L 405.763154 230.422542 
L 406.080141 232.118666 
L 406.185803 231.778423 
L 406.50279 233.140074 
L 407.45375 227.384761 
L 407.559412 227.384761 
L 407.770737 228.728811 
L 407.823568 228.391958 
L 407.876399 228.391958 
L 409.038684 235.186607 
L 409.250008 235.186607 
L 410.200969 229.734638 
L 410.412293 228.385228 
L 410.465124 228.721737 
L 410.517955 228.721737 
L 411.838734 220.729724 
L 412.102889 221.717273 
L 412.15572 221.717273 
L 412.208551 222.047114 
L 412.261383 221.716943 
L 412.419876 220.728408 
L 412.472707 221.057261 
L 413.053849 224.363929 
L 414.057641 218.429742 
L 414.638783 221.380512 
L 415.008601 219.736279 
L 415.325588 221.049361 
L 415.378419 221.049361 
L 415.801068 218.752046 
L 415.853899 219.078923 
L 415.90673 218.75172 
L 416.012392 218.098294 
L 416.065224 218.424517 
L 416.276548 219.077941 
L 416.38221 219.077941 
L 416.435041 218.750739 
L 416.487873 219.077614 
L 417.227508 223.688335 
L 417.280339 223.356523 
L 417.386002 223.356523 
L 418.70678 215.491804 
L 419.763402 221.366673 
L 420.925687 214.516119 
L 420.978518 214.516119 
L 421.665323 218.40917 
L 421.929479 217.104994 
L 422.563452 220.700457 
L 422.721945 219.714969 
L 422.774777 220.042808 
L 422.880439 220.042808 
L 423.937061 226.000295 
L 423.989892 226.000295 
L 424.148386 225.66617 
L 425.838982 235.826447 
L 425.891813 235.826447 
L 426.314462 233.084453 
L 426.367293 233.425661 
L 426.578618 234.109103 
L 426.948435 232.401355 
L 427.001267 232.401355 
L 427.212591 231.380799 
L 427.318253 231.720304 
L 427.952227 228.33711 
L 428.005058 228.673572 
L 428.057889 228.336774 
L 428.11072 228.336774 
L 428.427707 230.022447 
L 428.797525 228.335092 
L 428.850356 228.335092 
L 429.008849 227.326723 
L 429.06168 227.662174 
L 429.537161 230.357886 
L 431.597575 217.730686 
L 431.650406 218.056541 
L 431.703237 217.73036 
L 431.756068 217.404505 
L 431.808899 217.730034 
L 432.125886 219.362567 
L 432.654197 216.102396 
L 432.707028 216.426623 
L 432.759859 216.426623 
L 432.865522 216.751174 
L 432.918353 216.426298 
L 432.971184 216.750849 
L 433.076846 216.750849 
L 433.129677 216.425974 
L 433.182508 216.750524 
L 433.288171 216.750524 
L 433.974975 220.670535 
L 434.027806 220.341741 
L 434.080637 220.670207 
L 434.133469 220.670207 
L 434.291962 220.012946 
L 435.031598 224.304419 
L 435.454247 222.314827 
L 435.507078 222.314827 
L 435.929727 220.008681 
L 436.669363 223.968006 
L 436.775025 223.968006 
L 437.514661 220.004743 
L 437.567492 220.004743 
L 438.095803 217.063367 
L 438.571283 219.346521 
L 438.835439 218.36509 
L 440.79019 229.988634 
L 440.843021 229.988634 
L 441.741151 235.095984 
L 442.322293 231.339382 
L 442.375124 231.678846 
L 442.903435 234.406462 
L 442.956267 234.406462 
L 443.431747 231.335987 
L 443.484578 231.675448 
L 444.858187 240.273167 
L 444.911018 239.92477 
L 444.963849 240.272819 
L 445.439329 242.718927 
L 445.544992 242.718927 
L 445.809147 240.968216 
L 445.861978 241.317308 
L 446.231796 243.068014 
L 446.443121 242.01549 
L 446.654445 242.715769 
L 446.707276 242.715769 
L 447.235588 246.24 
L 447.288419 245.885636 
L 448.345041 238.872297 
L 448.345041 238.872297 
" clip-path="url(#p46014ab76c)" style="fill: none; stroke: #1f77b4; stroke-width: 1.5; stroke-linecap: square"/>
   </g>
   <g id="patch_3">
    <path d="M 121.5 256.32 
L 121.5 34.56 
" style="fill: none; stroke: #000000; stroke-width: 0.8; stroke-linejoin: miter; stroke-linecap: square"/>
   </g>
   <g id="patch_4">
    <path d="M 463.909091 256.32 
L 463.909091 34.56 
" style="fill: none; stroke: #000000; stroke-width: 0.8; stroke-linejoin: miter; stroke-linecap: square"/>
   </g>
   <g id="patch_5">
    <path d="M 121.5 256.32 
L 463.909091 256.32 
" style="fill: none; stroke: #000000; stroke-width: 0.8; stroke-linejoin: miter; stroke-linecap: square"/>
   </g>
   <g id="patch_6">
    <path d="M 121.5 34.56 
L 463.909091 34.56 
" style="fill: none; stroke: #000000; stroke-width: 0.8; stroke-linejoin: miter; stroke-linecap: square"/>
   </g>
  </g>
  <g id="axes_2">
   <g id="patch_7">
    <path d="M 532.390909 256.32 
L 874.8 256.32 
L 874.8 34.56 
L 532.390909 34.56 
z
" style="fill: #ffffff"/>
   </g>
   <g id="matplotlib.axis_3">
    <g id="xtick_8">
     <g id="line2d_15">
      <g>
       <use xlink:href="#m860251647d" x="547.954959" y="256.32" style="stroke: #000000; stroke-width: 0.8"/>
      </g>
     </g>
     <g id="text_14">
      <!-- 0 -->
      <g transform="translate(544.773709 270.918437) scale(0.1 -0.1)">
       <use xlink:href="#DejaVuSans-30"/>
      </g>
     </g>
    </g>
    <g id="xtick_9">
     <g id="line2d_16">
      <g>
       <use xlink:href="#m860251647d" x="600.786084" y="256.32" style="stroke: #000000; stroke-width: 0.8"/>
      </g>
     </g>
     <g id="text_15">
      <!-- 1000 -->
      <g transform="translate(588.061084 270.918437) scale(0.1 -0.1)">
       <use xlink:href="#DejaVuSans-31"/>
       <use xlink:href="#DejaVuSans-30" x="63.623047"/>
       <use xlink:href="#DejaVuSans-30" x="127.246094"/>
       <use xlink:href="#DejaVuSans-30" x="190.869141"/>
      </g>
     </g>
    </g>
    <g id="xtick_10">
     <g id="line2d_17">
      <g>
       <use xlink:href="#m860251647d" x="653.61721" y="256.32" style="stroke: #000000; stroke-width: 0.8"/>
      </g>
     </g>
     <g id="text_16">
      <!-- 2000 -->
      <g transform="translate(640.89221 270.918437) scale(0.1 -0.1)">
       <use xlink:href="#DejaVuSans-32"/>
       <use xlink:href="#DejaVuSans-30" x="63.623047"/>
       <use xlink:href="#DejaVuSans-30" x="127.246094"/>
       <use xlink:href="#DejaVuSans-30" x="190.869141"/>
      </g>
     </g>
    </g>
    <g id="xtick_11">
     <g id="line2d_18">
      <g>
       <use xlink:href="#m860251647d" x="706.448335" y="256.32" style="stroke: #000000; stroke-width: 0.8"/>
      </g>
     </g>
     <g id="text_17">
      <!-- 3000 -->
      <g transform="translate(693.723335 270.918437) scale(0.1 -0.1)">
       <use xlink:href="#DejaVuSans-33"/>
       <use xlink:href="#DejaVuSans-30" x="63.623047"/>
       <use xlink:href="#DejaVuSans-30" x="127.246094"/>
       <use xlink:href="#DejaVuSans-30" x="190.869141"/>
      </g>
     </g>
    </g>
    <g id="xtick_12">
     <g id="line2d_19">
      <g>
       <use xlink:href="#m860251647d" x="759.279461" y="256.32" style="stroke: #000000; stroke-width: 0.8"/>
      </g>
     </g>
     <g id="text_18">
      <!-- 4000 -->
      <g transform="translate(746.554461 270.918437) scale(0.1 -0.1)">
       <use xlink:href="#DejaVuSans-34"/>
       <use xlink:href="#DejaVuSans-30" x="63.623047"/>
       <use xlink:href="#DejaVuSans-30" x="127.246094"/>
       <use xlink:href="#DejaVuSans-30" x="190.869141"/>
      </g>
     </g>
    </g>
    <g id="xtick_13">
     <g id="line2d_20">
      <g>
       <use xlink:href="#m860251647d" x="812.110586" y="256.32" style="stroke: #000000; stroke-width: 0.8"/>
      </g>
     </g>
     <g id="text_19">
      <!-- 5000 -->
      <g transform="translate(799.385586 270.918437) scale(0.1 -0.1)">
       <use xlink:href="#DejaVuSans-35"/>
       <use xlink:href="#DejaVuSans-30" x="63.623047"/>
       <use xlink:href="#DejaVuSans-30" x="127.246094"/>
       <use xlink:href="#DejaVuSans-30" x="190.869141"/>
      </g>
     </g>
    </g>
    <g id="xtick_14">
     <g id="line2d_21">
      <g>
       <use xlink:href="#m860251647d" x="864.941712" y="256.32" style="stroke: #000000; stroke-width: 0.8"/>
      </g>
     </g>
     <g id="text_20">
      <!-- 6000 -->
      <g transform="translate(852.216712 270.918437) scale(0.1 -0.1)">
       <use xlink:href="#DejaVuSans-36"/>
       <use xlink:href="#DejaVuSans-30" x="63.623047"/>
       <use xlink:href="#DejaVuSans-30" x="127.246094"/>
       <use xlink:href="#DejaVuSans-30" x="190.869141"/>
      </g>
     </g>
    </g>
   </g>
   <g id="matplotlib.axis_4">
    <g id="ytick_7">
     <g id="line2d_22">
      <g>
       <use xlink:href="#maf144ceaf9" x="532.390909" y="255.058056" style="stroke: #000000; stroke-width: 0.8"/>
      </g>
     </g>
     <g id="text_21">
      <!-- −3.4 -->
      <g transform="translate(501.108097 258.857275) scale(0.1 -0.1)">
       <use xlink:href="#DejaVuSans-2212"/>
       <use xlink:href="#DejaVuSans-33" x="83.789062"/>
       <use xlink:href="#DejaVuSans-2e" x="147.412109"/>
       <use xlink:href="#DejaVuSans-34" x="179.199219"/>
      </g>
     </g>
    </g>
    <g id="ytick_8">
     <g id="line2d_23">
      <g>
       <use xlink:href="#maf144ceaf9" x="532.390909" y="227.064004" style="stroke: #000000; stroke-width: 0.8"/>
      </g>
     </g>
     <g id="text_22">
      <!-- −3.2 -->
      <g transform="translate(501.108097 230.863222) scale(0.1 -0.1)">
       <use xlink:href="#DejaVuSans-2212"/>
       <use xlink:href="#DejaVuSans-33" x="83.789062"/>
       <use xlink:href="#DejaVuSans-2e" x="147.412109"/>
       <use xlink:href="#DejaVuSans-32" x="179.199219"/>
      </g>
     </g>
    </g>
    <g id="ytick_9">
     <g id="line2d_24">
      <g>
       <use xlink:href="#maf144ceaf9" x="532.390909" y="199.069951" style="stroke: #000000; stroke-width: 0.8"/>
      </g>
     </g>
     <g id="text_23">
      <!-- −3.0 -->
      <g transform="translate(501.108097 202.86917) scale(0.1 -0.1)">
       <use xlink:href="#DejaVuSans-2212"/>
       <use xlink:href="#DejaVuSans-33" x="83.789062"/>
       <use xlink:href="#DejaVuSans-2e" x="147.412109"/>
       <use xlink:href="#DejaVuSans-30" x="179.199219"/>
      </g>
     </g>
    </g>
    <g id="ytick_10">
     <g id="line2d_25">
      <g>
       <use xlink:href="#maf144ceaf9" x="532.390909" y="171.075899" style="stroke: #000000; stroke-width: 0.8"/>
      </g>
     </g>
     <g id="text_24">
      <!-- −2.8 -->
      <g transform="translate(501.108097 174.875118) scale(0.1 -0.1)">
       <defs>
        <path id="DejaVuSans-38" d="M 2034 2216 
Q 1584 2216 1326 1975 
Q 1069 1734 1069 1313 
Q 1069 891 1326 650 
Q 1584 409 2034 409 
Q 2484 409 2743 651 
Q 3003 894 3003 1313 
Q 3003 1734 2745 1975 
Q 2488 2216 2034 2216 
z
M 1403 2484 
Q 997 2584 770 2862 
Q 544 3141 544 3541 
Q 544 4100 942 4425 
Q 1341 4750 2034 4750 
Q 2731 4750 3128 4425 
Q 3525 4100 3525 3541 
Q 3525 3141 3298 2862 
Q 3072 2584 2669 2484 
Q 3125 2378 3379 2068 
Q 3634 1759 3634 1313 
Q 3634 634 3220 271 
Q 2806 -91 2034 -91 
Q 1263 -91 848 271 
Q 434 634 434 1313 
Q 434 1759 690 2068 
Q 947 2378 1403 2484 
z
M 1172 3481 
Q 1172 3119 1398 2916 
Q 1625 2713 2034 2713 
Q 2441 2713 2670 2916 
Q 2900 3119 2900 3481 
Q 2900 3844 2670 4047 
Q 2441 4250 2034 4250 
Q 1625 4250 1398 4047 
Q 1172 3844 1172 3481 
z
" transform="scale(0.015625)"/>
       </defs>
       <use xlink:href="#DejaVuSans-2212"/>
       <use xlink:href="#DejaVuSans-32" x="83.789062"/>
       <use xlink:href="#DejaVuSans-2e" x="147.412109"/>
       <use xlink:href="#DejaVuSans-38" x="179.199219"/>
      </g>
     </g>
    </g>
    <g id="ytick_11">
     <g id="line2d_26">
      <g>
       <use xlink:href="#maf144ceaf9" x="532.390909" y="143.081847" style="stroke: #000000; stroke-width: 0.8"/>
      </g>
     </g>
     <g id="text_25">
      <!-- −2.6 -->
      <g transform="translate(501.108097 146.881066) scale(0.1 -0.1)">
       <use xlink:href="#DejaVuSans-2212"/>
       <use xlink:href="#DejaVuSans-32" x="83.789062"/>
       <use xlink:href="#DejaVuSans-2e" x="147.412109"/>
       <use xlink:href="#DejaVuSans-36" x="179.199219"/>
      </g>
     </g>
    </g>
    <g id="ytick_12">
     <g id="line2d_27">
      <g>
       <use xlink:href="#maf144ceaf9" x="532.390909" y="115.087795" style="stroke: #000000; stroke-width: 0.8"/>
      </g>
     </g>
     <g id="text_26">
      <!-- −2.4 -->
      <g transform="translate(501.108097 118.887013) scale(0.1 -0.1)">
       <use xlink:href="#DejaVuSans-2212"/>
       <use xlink:href="#DejaVuSans-32" x="83.789062"/>
       <use xlink:href="#DejaVuSans-2e" x="147.412109"/>
       <use xlink:href="#DejaVuSans-34" x="179.199219"/>
      </g>
     </g>
    </g>
    <g id="ytick_13">
     <g id="line2d_28">
      <g>
       <use xlink:href="#maf144ceaf9" x="532.390909" y="87.093742" style="stroke: #000000; stroke-width: 0.8"/>
      </g>
     </g>
     <g id="text_27">
      <!-- −2.2 -->
      <g transform="translate(501.108097 90.892961) scale(0.1 -0.1)">
       <use xlink:href="#DejaVuSans-2212"/>
       <use xlink:href="#DejaVuSans-32" x="83.789062"/>
       <use xlink:href="#DejaVuSans-2e" x="147.412109"/>
       <use xlink:href="#DejaVuSans-32" x="179.199219"/>
      </g>
     </g>
    </g>
    <g id="ytick_14">
     <g id="line2d_29">
      <g>
       <use xlink:href="#maf144ceaf9" x="532.390909" y="59.09969" style="stroke: #000000; stroke-width: 0.8"/>
      </g>
     </g>
     <g id="text_28">
      <!-- −2.0 -->
      <g transform="translate(501.108097 62.898909) scale(0.1 -0.1)">
       <use xlink:href="#DejaVuSans-2212"/>
       <use xlink:href="#DejaVuSans-32" x="83.789062"/>
       <use xlink:href="#DejaVuSans-2e" x="147.412109"/>
       <use xlink:href="#DejaVuSans-30" x="179.199219"/>
      </g>
     </g>
    </g>
   </g>
   <g id="line2d_30">
    <path d="M 547.954959 59.09969 
L 548.166283 59.659851 
L 548.588932 59.659851 
L 548.95875 61.065162 
L 551.28332 61.065162 
L 554.030538 46.773704 
L 554.189031 46.773704 
L 554.400356 46.238742 
L 554.453187 46.238742 
L 554.61168 46.505822 
L 554.875836 46.505822 
L 555.245654 44.64 
L 555.298485 44.905481 
L 556.355108 49.729791 
L 556.46077 49.729791 
L 556.883419 51.357279 
L 557.147575 51.357279 
L 557.570224 49.728168 
L 557.675886 49.728168 
L 558.626846 45.431381 
L 558.732508 45.431381 
L 559.7363 49.994403 
L 559.789131 49.994403 
L 560.264611 51.895947 
L 560.423104 51.895947 
L 561.426896 47.028192 
L 561.743882 47.028192 
L 561.849545 46.760323 
L 562.377856 48.90864 
L 562.58918 48.90864 
L 566.023204 65.86685 
L 566.710008 65.86685 
L 569.14024 79.056648 
L 569.193071 78.756751 
L 570.196863 73.704134 
L 570.619512 71.941276 
L 570.778005 71.941276 
L 571.147823 73.702367 
L 571.570472 71.93952 
L 572.045952 71.93952 
L 572.574263 69.605458 
L 572.732757 69.605458 
L 573.155406 67.578424 
L 573.895041 71.058554 
L 574.264859 69.601973 
L 575.004495 73.10652 
L 575.162988 73.10652 
L 575.321482 72.225559 
L 575.374313 72.518626 
L 577.223402 82.355994 
L 577.381896 82.355994 
L 577.434727 82.659191 
L 577.487558 82.355691 
L 577.857376 80.842737 
L 577.963038 80.842737 
L 578.121531 81.144421 
L 578.755505 81.144421 
L 579.019661 80.239371 
L 579.072492 80.239371 
L 579.91779 84.482002 
L 580.023452 84.482002 
L 580.551763 82.047951 
L 580.604594 82.047951 
L 581.925372 89.091563 
L 582.083866 89.091563 
L 582.612177 91.579718 
L 582.717839 91.579718 
L 584.091449 99.164675 
L 584.197111 99.164675 
L 584.566929 100.767906 
L 584.672591 100.767906 
L 584.883915 101.733697 
L 586.151862 94.395526 
L 586.204694 94.395526 
L 586.363187 94.080289 
L 586.627343 94.080289 
L 586.785836 93.765368 
L 588.582094 103.990383 
L 589.110405 101.078569 
L 589.744379 104.312288 
L 589.79721 104.312288 
L 589.955703 103.662307 
L 590.167028 104.311638 
L 590.325521 104.311638 
L 590.589677 105.288071 
L 590.642508 105.288071 
L 592.808584 118.251767 
L 593.07274 118.251767 
L 593.125571 117.912675 
L 593.178402 118.251428 
L 593.389727 118.251428 
L 593.812376 116.221954 
L 593.970869 116.221954 
L 594.129362 116.559017 
L 594.182194 116.559017 
L 594.393518 117.234154 
L 594.552011 117.234154 
L 595.397309 112.531746 
L 595.450141 112.531746 
L 595.608634 113.532864 
L 595.661465 113.198491 
L 595.87279 112.197375 
L 599.306813 134.552353 
L 600.416266 141.365941 
L 600.891746 138.838088 
L 601.314395 141.001564 
L 601.737044 141.001564 
L 602.0012 142.451106 
L 602.212525 141.724885 
L 603.903121 152.761055 
L 604.008783 152.761055 
L 604.378601 154.632804 
L 604.537094 154.632804 
L 604.906912 152.759187 
L 604.959743 152.759187 
L 605.382392 155.758469 
L 605.435223 155.381869 
L 605.857872 153.130169 
L 605.910703 153.130169 
L 606.333352 150.891945 
L 606.439015 150.891945 
L 606.70317 152.008259 
L 606.756001 152.008259 
L 607.337144 148.666008 
L 607.442806 148.666008 
L 607.759793 146.454502 
L 607.812624 146.821798 
L 608.763584 152.748726 
L 609.608882 152.748726 
L 609.820207 153.870616 
L 610.137193 152.374017 
L 610.45418 152.374017 
L 610.612674 152.747232 
L 610.92966 152.747232 
L 611.563634 156.499969 
L 611.669296 156.499969 
L 612.039114 158.39045 
L 612.514594 158.39045 
L 612.673087 158.769681 
L 612.884412 158.01084 
L 612.990074 158.01084 
L 613.307061 159.528521 
L 613.465554 159.148152 
L 613.518385 159.528141 
L 613.571217 159.147772 
L 615.420306 146.439076 
L 615.631631 146.439076 
L 617.850538 131.677891 
L 617.903369 131.677891 
L 619.805289 143.863417 
L 619.910952 143.863417 
L 620.069445 144.228121 
L 620.175107 144.228121 
L 620.28077 144.59319 
L 620.650587 142.769671 
L 620.967574 142.769671 
L 621.918534 136.637497 
L 622.077028 136.637497 
L 622.129859 136.280018 
L 622.18269 136.637139 
L 622.341183 136.994617 
L 622.711001 134.852965 
L 623.60913 140.586949 
L 623.978948 138.783421 
L 624.031779 138.783421 
L 624.718584 143.48669 
L 624.771415 143.122362 
L 624.98274 142.3948 
L 625.246895 142.3948 
L 625.563882 140.944035 
L 625.616713 140.944035 
L 625.775207 141.30582 
L 625.880869 141.30582 
L 626.039362 142.393347 
L 626.092193 142.030113 
L 626.197856 142.030113 
L 626.620505 144.212789 
L 626.778998 144.212789 
L 626.88466 143.847735 
L 627.095985 144.577477 
L 627.254478 143.847006 
L 627.465803 144.576746 
L 627.571465 144.576746 
L 627.782789 145.307947 
L 628.099776 145.307947 
L 629.314892 153.074451 
L 629.367723 153.074451 
L 630.371515 159.482119 
L 630.424346 159.482119 
L 630.63567 161.005694 
L 630.688501 160.623847 
L 630.899826 160.623847 
L 630.952657 161.005312 
L 631.005488 160.623466 
L 631.639462 156.825943 
L 631.745124 157.20361 
L 632.220604 154.565225 
L 632.273435 154.565225 
L 632.801746 157.579005 
L 633.065902 157.579005 
L 633.330058 156.444881 
L 633.594213 156.444881 
L 633.752707 156.822167 
L 633.805538 156.822167 
L 634.439511 161.379132 
L 634.492342 160.996912 
L 634.914991 158.711605 
L 635.33764 158.711605 
L 635.654627 157.195671 
L 635.81312 157.195671 
L 636.077276 158.330915 
L 636.130107 158.330915 
L 636.235769 158.710087 
L 636.499925 157.572572 
L 636.764081 158.708948 
L 637.133899 158.708948 
L 637.398054 159.848737 
L 637.609379 159.848737 
L 639.458468 172.614589 
L 639.511299 172.614589 
L 639.775455 173.796136 
L 640.145273 173.796136 
L 641.096233 167.529081 
L 641.994362 173.395586 
L 642.047193 173.395586 
L 642.681167 177.355738 
L 642.733998 177.355738 
L 642.892491 178.152529 
L 643.262309 176.161548 
L 645.375554 191.53011 
L 645.586879 190.294234 
L 646.326514 195.25508 
L 647.647293 185.382783 
L 647.858617 185.382783 
L 648.281266 188.234893 
L 648.545422 186.601043 
L 648.862408 188.233257 
L 649.020902 188.233257 
L 649.443551 190.693846 
L 649.654875 190.693846 
L 650.34168 185.782501 
L 650.553004 187.003591 
L 650.711498 186.595747 
L 650.869991 186.595747 
L 651.345471 189.456373 
L 651.451134 189.456373 
L 651.715289 190.688496 
L 652.032276 190.688496 
L 653.353054 200.25852 
L 653.458716 200.25852 
L 655.99461 219.630918 
L 656.575753 215.682492 
L 656.628584 215.682492 
L 656.839908 216.555975 
L 657.104064 216.555975 
L 657.473882 213.938147 
L 657.632375 214.372926 
L 657.790869 214.372926 
L 657.949362 213.937712 
L 659.534296 226.276844 
L 659.587127 226.276844 
L 660.062607 223.156394 
L 660.115438 223.156394 
L 660.326763 224.044832 
L 660.696581 221.824848 
L 661.541879 228.062612 
L 661.700372 228.062612 
L 662.334345 223.593724 
L 662.651332 223.593724 
L 663.126812 226.714115 
L 663.232475 226.714115 
L 663.390968 227.16167 
L 663.602293 227.16167 
L 663.919279 229.406167 
L 664.606084 224.478139 
L 664.87024 224.478139 
L 665.292889 221.812896 
L 665.557044 221.812896 
L 666.085355 225.812753 
L 666.402342 224.028816 
L 666.560836 224.028816 
L 667.72312 214.779387 
L 668.409925 214.779387 
L 668.726912 213.039519 
L 668.779743 213.039519 
L 669.677872 220.474788 
L 669.730703 220.033473 
L 669.889196 219.592598 
L 670.206183 219.592598 
L 670.787326 215.644516 
L 670.945819 215.644516 
L 672.953402 231.636117 
L 673.059064 231.636117 
L 673.376051 229.828922 
L 673.481713 229.828922 
L 673.693037 228.928033 
L 673.957193 228.928033 
L 675.22514 218.696348 
L 675.436465 218.696348 
L 675.647789 219.575862 
L 675.806283 219.575862 
L 676.281763 216.502179 
L 676.387425 216.502179 
L 677.285554 209.987756 
L 677.602541 207.837917 
L 677.972359 210.847686 
L 678.02519 210.415997 
L 678.078021 210.415997 
L 680.455422 191.843012 
L 680.666746 192.668793 
L 680.772408 192.668793 
L 681.406382 196.822546 
L 681.617706 195.987637 
L 681.670537 195.987637 
L 682.093186 198.494869 
L 682.198849 198.494869 
L 682.515835 196.40238 
L 682.779991 197.655361 
L 683.466796 193.074852 
L 683.572458 193.074852 
L 684.681912 201.010432 
L 684.787574 201.010432 
L 684.998898 200.167151 
L 685.051729 200.167151 
L 685.315885 202.276405 
L 685.368716 201.853288 
L 685.632872 200.586473 
L 685.791365 200.586473 
L 685.897027 200.165046 
L 686.531001 204.819336 
L 687.42913 198.478934 
L 688.274428 192.232976 
L 688.485753 193.059537 
L 688.591415 193.059537 
L 688.961233 190.99417 
L 689.27822 190.99417 
L 689.7537 188.119959 
L 689.965024 188.119959 
L 690.810322 193.882775 
L 690.968816 193.882775 
L 691.232971 192.639848 
L 691.497127 192.639848 
L 691.65562 193.053329 
L 691.972607 191.400234 
L 692.025438 191.400234 
L 693.557541 203.524111 
L 693.610372 203.099746 
L 693.768865 202.675805 
L 693.821696 202.675805 
L 694.244345 205.223266 
L 694.350008 205.223266 
L 694.719825 207.78605 
L 695.089643 205.22071 
L 695.353799 206.927514 
L 696.040604 202.245519 
L 696.304759 203.516048 
L 696.516084 202.24425 
L 696.83307 203.93913 
L 697.044395 203.089995 
L 697.150057 203.089995 
L 697.414213 201.819474 
L 697.572706 201.819474 
L 697.7312 201.396814 
L 697.836862 201.396814 
L 697.995355 200.974576 
L 698.048186 200.974576 
L 698.20668 201.396391 
L 698.893484 201.396391 
L 699.421796 197.192969 
L 699.474627 197.611003 
L 699.950107 200.548968 
L 700.1086 200.127578 
L 700.267094 200.127578 
L 700.901067 195.52001 
L 701.218054 197.187953 
L 701.746365 197.187953 
L 702.010521 195.93512 
L 702.063352 195.93512 
L 703.014312 203.501195 
L 703.067143 203.076853 
L 703.912441 197.180428 
L 703.965272 197.180428 
L 704.546415 200.957704 
L 704.757739 200.957704 
L 706.078517 210.766536 
L 706.237011 210.766536 
L 706.553998 209.042694 
L 706.870984 209.042694 
L 707.029478 210.333635 
L 707.082309 209.902461 
L 707.187971 209.471717 
L 709.301216 226.576737 
L 710.780488 214.652205 
L 711.150305 214.652205 
L 711.36163 213.781654 
L 711.414461 213.781654 
L 711.784279 215.959117 
L 712.154097 215.959117 
L 712.946564 221.671712 
L 713.052226 221.671712 
L 713.739031 216.82834 
L 713.897524 216.82834 
L 714.214511 215.080287 
L 714.320173 215.080287 
L 714.425835 215.516208 
L 714.742822 213.338782 
L 715.376796 217.700169 
L 715.640951 217.700169 
L 717.437209 231.953188 
L 717.648534 231.048053 
L 717.859858 232.405076 
L 718.599494 226.995939 
L 718.705156 226.995939 
L 719.022143 228.789975 
L 719.233468 228.789975 
L 719.708948 225.651986 
L 719.761779 225.651986 
L 719.920272 226.098479 
L 719.973103 226.098479 
L 720.184428 225.205047 
L 720.29009 225.205047 
L 720.924064 220.764607 
L 721.029726 220.764607 
L 721.452375 218.12159 
L 721.505206 218.12159 
L 722.508997 225.643949 
L 722.561829 225.643949 
L 722.720322 225.197465 
L 723.988269 235.114032 
L 724.093931 235.114032 
L 724.51658 237.85661 
L 725.414709 231.024103 
L 725.573203 231.024103 
L 726.154345 226.525734 
L 726.36567 227.869176 
L 726.471332 226.972205 
L 726.524163 227.420018 
L 726.84115 229.215753 
L 726.946812 229.215753 
L 727.158137 230.116316 
L 727.527954 226.96907 
L 727.580786 227.41688 
L 727.897772 229.212602 
L 728.214759 229.212602 
L 728.795901 225.178285 
L 728.901564 225.178285 
L 729.060057 226.07077 
L 729.958186 219.413819 
L 731.226133 209.39857 
L 731.384627 209.39857 
L 731.490289 208.538522 
L 731.54312 208.967901 
L 731.701613 209.39771 
L 731.807276 209.39771 
L 733.550703 195.841356 
L 733.709196 195.841356 
L 734.396001 191.280701 
L 734.607325 192.105356 
L 734.712987 192.105356 
L 734.871481 191.279877 
L 737.513037 211.101809 
L 737.671531 211.101809 
L 738.199842 214.569469 
L 739.52062 204.238918 
L 739.573451 204.238918 
L 739.837607 202.964954 
L 739.9961 202.964954 
L 740.524411 199.58635 
L 740.577242 199.58635 
L 741.369709 194.15347 
L 741.475372 194.568465 
L 742.003683 191.256799 
L 742.109345 191.256799 
L 742.426332 192.907663 
L 742.637656 192.907663 
L 742.848981 194.150151 
L 743.27163 191.253914 
L 743.641448 193.318513 
L 743.694279 193.318513 
L 744.645239 199.994994 
L 744.803732 199.994994 
L 744.962226 201.258764 
L 745.015057 200.836665 
L 745.754693 195.804273 
L 746.177342 195.804273 
L 748.343418 212.366008 
L 748.396249 212.366008 
L 748.554742 212.799215 
L 748.607574 212.799215 
L 748.977391 215.407569 
L 749.40004 212.796613 
L 749.717027 212.796613 
L 750.456663 207.621489 
L 750.720819 208.908162 
L 750.826481 208.908162 
L 751.671779 202.930627 
L 751.830272 202.930627 
L 752.517077 198.292379 
L 753.203881 202.925966 
L 753.362375 202.925966 
L 753.837855 199.968482 
L 753.890686 199.968482 
L 754.471828 203.770951 
L 754.630322 203.770951 
L 755.052971 200.80757 
L 755.581282 204.617621 
L 756.056762 201.648331 
L 756.215256 201.648331 
L 756.532242 203.340824 
L 756.637905 203.340824 
L 756.796398 203.765006 
L 756.954891 203.765006 
L 759.332292 185.47846 
L 759.385123 185.47846 
L 760.124759 190.381198 
L 760.230421 190.381198 
L 760.547408 192.854707 
L 760.600239 192.441011 
L 760.917226 190.790362 
L 761.075719 190.790362 
L 761.815355 185.877865 
L 761.921017 185.877865 
L 762.132342 186.691709 
L 762.185173 186.691709 
L 762.766315 183.038553 
L 762.871977 183.038553 
L 763.030471 182.634674 
L 763.241795 182.634674 
L 763.400289 182.231198 
L 763.505951 182.231198 
L 763.770107 181.023191 
L 763.9286 181.023191 
L 764.192756 182.229989 
L 764.298418 182.229989 
L 764.40408 182.63306 
L 765.090885 177.817914 
L 765.249378 178.216573 
L 765.513534 178.216573 
L 765.672027 177.418857 
L 765.83052 177.817117 
L 765.883352 177.817117 
L 766.72865 183.434751 
L 766.887143 183.434751 
L 767.045636 184.243707 
L 767.098467 183.838622 
L 767.151299 184.243302 
L 767.309792 184.648386 
L 768.577739 175.424008 
L 768.63057 175.424008 
L 769.845686 183.829315 
L 770.004179 183.829315 
L 770.426828 180.603262 
L 770.479659 181.004706 
L 771.113633 185.041293 
L 771.377789 185.041293 
L 773.80802 202.865795 
L 773.966514 202.865795 
L 774.389163 200.329902 
L 774.494825 200.329902 
L 775.445785 193.226994 
L 775.868434 193.226994 
L 776.766563 186.651365 
L 777.030719 187.875065 
L 777.717524 183.401602 
L 777.876017 183.401602 
L 779.460951 194.874526 
L 779.513782 194.874526 
L 780.147755 199.050437 
L 780.253418 199.050437 
L 780.517573 197.792023 
L 780.676067 197.792023 
L 781.679858 190.320342 
L 781.78552 190.320342 
L 781.891183 190.731503 
L 782.155338 189.087681 
L 784.374246 205.808654 
L 784.427077 205.808654 
L 785.642193 214.85846 
L 786.170504 214.85846 
L 786.540322 217.4792 
L 786.645984 216.602998 
L 786.698815 217.040442 
L 786.804477 217.040442 
L 787.332789 213.549628 
L 787.38562 213.549628 
L 787.544113 213.115237 
L 787.649775 213.115237 
L 788.178087 216.599061 
L 789.181878 216.599061 
L 789.551696 213.546153 
L 789.604527 213.98054 
L 791.189461 226.321334 
L 791.242292 226.321334 
L 791.929096 231.264786 
L 791.981928 231.264786 
L 792.721563 225.869258 
L 792.827226 225.869258 
L 793.936679 217.019424 
L 793.98951 217.019424 
L 794.200835 217.895582 
L 794.993302 212.226105 
L 795.046133 212.226105 
L 795.732938 217.013732 
L 795.785769 217.013732 
L 796.102755 219.207387 
L 796.261249 218.767339 
L 796.472573 218.767339 
L 797.370702 225.407821 
L 797.529196 225.407821 
L 798.216 230.341174 
L 798.374494 230.341174 
L 799.536779 220.960503 
L 799.695272 220.960503 
L 800.804726 212.207917 
L 800.857557 212.207917 
L 801.068881 211.342252 
L 801.333037 213.073579 
L 801.385868 212.639665 
L 801.438699 213.073146 
L 801.914179 216.119671 
L 801.96701 216.119671 
L 802.336828 218.308847 
L 803.287788 210.902729 
L 803.393451 211.334473 
L 804.661398 201.50302 
L 804.819891 201.50302 
L 805.136878 203.194931 
L 805.189709 203.194931 
L 805.929345 208.31144 
L 806.140669 208.31144 
L 806.299163 207.882288 
L 806.510487 207.882288 
L 806.616149 208.311011 
L 806.985967 206.169539 
L 807.408616 208.738015 
L 807.514279 208.738015 
L 809.627524 192.298867 
L 809.733186 192.298867 
L 810.789808 184.519461 
L 810.895471 184.519461 
L 811.106795 185.330587 
L 811.529444 182.092565 
L 811.582275 182.495499 
L 812.427573 188.179058 
L 812.480404 188.179058 
L 813.484196 195.188302 
L 813.959676 192.28482 
L 814.012507 192.28482 
L 814.223831 193.525437 
L 815.227623 186.129905 
L 815.386116 186.129905 
L 817.076712 198.517723 
L 817.129543 198.517723 
L 817.763517 203.577796 
L 817.816348 203.153377 
L 818.291828 200.194307 
L 818.344659 200.194307 
L 818.767308 196.837791 
L 818.820139 197.25547 
L 819.559775 202.300312 
L 819.612606 202.300312 
L 819.7711 202.723453 
L 819.823931 202.723453 
L 820.457904 197.668544 
L 820.510735 198.087054 
L 821.567358 206.118728 
L 821.884345 203.988195 
L 822.042838 204.838278 
L 822.465487 202.29058 
L 822.62398 202.29058 
L 822.835305 201.022455 
L 823.152292 202.712441 
L 823.416447 202.712441 
L 823.574941 203.984372 
L 823.627772 203.559546 
L 824.050421 200.597641 
L 824.420239 202.709052 
L 824.631563 202.709052 
L 825.371199 197.654315 
L 825.635355 198.911056 
L 825.688186 198.911056 
L 826.427821 193.486903 
L 827.590106 201.852654 
L 827.695768 201.852654 
L 829.333533 189.354017 
L 829.386364 189.354017 
L 829.809013 186.898992 
L 829.861845 186.898992 
L 830.390156 190.17235 
L 830.495818 190.17235 
L 831.07696 193.8863 
L 831.341116 193.8863 
L 832.344908 186.484328 
L 832.609063 187.707526 
L 832.767557 187.707526 
L 833.348699 184.045264 
L 833.929841 188.521347 
L 833.982672 188.111984 
L 834.088335 187.703032 
L 834.563815 190.571432 
L 834.669477 190.571432 
L 835.250619 194.288988 
L 835.356282 194.288988 
L 835.567606 195.119663 
L 835.673268 194.703703 
L 835.831762 195.119247 
L 836.148749 195.119247 
L 836.254411 194.703287 
L 837.046878 200.558871 
L 837.099709 200.137471 
L 837.15254 200.558449 
L 837.258202 201.401669 
L 837.311033 200.979427 
L 837.575189 198.87454 
L 837.62802 199.294255 
L 838.631811 206.493976 
L 838.684643 206.493976 
L 839.265785 202.663311 
L 839.477109 203.510743 
L 839.529941 203.086392 
L 839.582772 203.510319 
L 839.899758 205.210271 
L 839.95259 205.210271 
L 840.111083 204.358595 
L 842.699808 224.80958 
L 842.80547 223.918725 
L 842.858301 224.363484 
L 843.228119 226.593962 
L 843.597937 224.361258 
L 843.7036 224.361258 
L 845.816845 241.595704 
L 846.186662 241.595704 
L 846.609311 244.377269 
L 846.873467 244.377269 
L 847.084792 243.447298 
L 847.243285 243.447298 
L 847.665934 246.24 
L 848.088583 246.24 
L 848.299907 245.306305 
L 848.352739 245.306305 
L 849.198037 238.822496 
L 849.35653 239.282159 
L 849.726348 239.282159 
L 849.884841 238.822036 
L 849.937672 238.822036 
L 850.096166 237.90317 
L 850.413152 240.201482 
L 850.677308 238.819738 
L 850.941464 238.819738 
L 851.839593 231.972885 
L 852.103748 230.615802 
L 852.420735 230.615802 
L 853.001878 225.674535 
L 853.054709 226.12105 
L 854.269825 235.601709 
L 854.375487 235.601709 
L 854.850967 238.806408 
L 855.115123 238.806408 
L 855.432109 240.647756 
L 855.960421 236.968744 
L 856.330239 236.968744 
L 856.488732 236.510934 
L 857.281199 236.510934 
L 857.80951 240.18258 
L 858.126497 240.18258 
L 858.971795 232.86127 
L 859.024626 233.314973 
L 859.23595 233.314973 
L 859.23595 233.314973 
" clip-path="url(#pe30fdbe95f)" style="fill: none; stroke: #1f77b4; stroke-width: 1.5; stroke-linecap: square"/>
   </g>
   <g id="patch_8">
    <path d="M 532.390909 256.32 
L 532.390909 34.56 
" style="fill: none; stroke: #000000; stroke-width: 0.8; stroke-linejoin: miter; stroke-linecap: square"/>
   </g>
   <g id="patch_9">
    <path d="M 874.8 256.32 
L 874.8 34.56 
" style="fill: none; stroke: #000000; stroke-width: 0.8; stroke-linejoin: miter; stroke-linecap: square"/>
   </g>
   <g id="patch_10">
    <path d="M 532.390909 256.32 
L 874.8 256.32 
" style="fill: none; stroke: #000000; stroke-width: 0.8; stroke-linejoin: miter; stroke-linecap: square"/>
   </g>
   <g id="patch_11">
    <path d="M 532.390909 34.56 
L 874.8 34.56 
" style="fill: none; stroke: #000000; stroke-width: 0.8; stroke-linejoin: miter; stroke-linecap: square"/>
   </g>
  </g>
 </g>
 <defs>
  <clipPath id="p46014ab76c">
   <rect x="121.5" y="34.56" width="342.409091" height="221.76"/>
  </clipPath>
  <clipPath id="pe30fdbe95f">
   <rect x="532.390909" y="34.56" width="342.409091" height="221.76"/>
  </clipPath>
 </defs>
</svg>
