<?xml version="1.0" encoding="utf-8" standalone="no"?>
<!DOCTYPE svg PUBLIC "-//W3C//DTD SVG 1.1//EN"
  "http://www.w3.org/Graphics/SVG/1.1/DTD/svg11.dtd">
<svg xmlns:xlink="http://www.w3.org/1999/xlink" width="972pt" height="288pt" viewBox="0 0 972 288" xmlns="http://www.w3.org/2000/svg" version="1.1">
 <metadata>
  <rdf:RDF xmlns:dc="http://purl.org/dc/elements/1.1/" xmlns:cc="http://creativecommons.org/ns#" xmlns:rdf="http://www.w3.org/1999/02/22-rdf-syntax-ns#">
   <cc:Work>
    <dc:type rdf:resource="http://purl.org/dc/dcmitype/StillImage"/>
    <dc:date>2024-06-06T17:34:55.210281</dc:date>
    <dc:format>image/svg+xml</dc:format>
    <dc:creator>
     <cc:Agent>
      <dc:title>Matplotlib v3.7.2, https://matplotlib.org/</dc:title>
     </cc:Agent>
    </dc:creator>
   </cc:Work>
  </rdf:RDF>
 </metadata>
 <defs>
  <style type="text/css">*{stroke-linejoin: round; stroke-linecap: butt}</style>
 </defs>
 <g id="figure_1">
  <g id="patch_1">
   <path d="M 0 288 
L 972 288 
L 972 0 
L 0 0 
z
" style="fill: #ffffff"/>
  </g>
  <g id="axes_1">
   <g id="patch_2">
    <path d="M 121.5 256.32 
L 463.909091 256.32 
L 463.909091 34.56 
L 121.5 34.56 
z
" style="fill: #ffffff"/>
   </g>
   <g id="matplotlib.axis_1">
    <g id="xtick_1">
     <g id="line2d_1">
      <defs>
       <path id="m87b07f8bc6" d="M 0 0 
L 0 3.5 
" style="stroke: #000000; stroke-width: 0.8"/>
      </defs>
      <g>
       <use xlink:href="#m87b07f8bc6" x="137.06405" y="256.32" style="stroke: #000000; stroke-width: 0.8"/>
      </g>
     </g>
     <g id="text_1">
      <!-- 0 -->
      <g transform="translate(133.8828 270.918437) scale(0.1 -0.1)">
       <defs>
        <path id="DejaVuSans-30" d="M 2034 4250 
Q 1547 4250 1301 3770 
Q 1056 3291 1056 2328 
Q 1056 1369 1301 889 
Q 1547 409 2034 409 
Q 2525 409 2770 889 
Q 3016 1369 3016 2328 
Q 3016 3291 2770 3770 
Q 2525 4250 2034 4250 
z
M 2034 4750 
Q 2819 4750 3233 4129 
Q 3647 3509 3647 2328 
Q 3647 1150 3233 529 
Q 2819 -91 2034 -91 
Q 1250 -91 836 529 
Q 422 1150 422 2328 
Q 422 3509 836 4129 
Q 1250 4750 2034 4750 
z
" transform="scale(0.015625)"/>
       </defs>
       <use xlink:href="#DejaVuSans-30"/>
      </g>
     </g>
    </g>
    <g id="xtick_2">
     <g id="line2d_2">
      <g>
       <use xlink:href="#m87b07f8bc6" x="189.895175" y="256.32" style="stroke: #000000; stroke-width: 0.8"/>
      </g>
     </g>
     <g id="text_2">
      <!-- 1000 -->
      <g transform="translate(177.170175 270.918437) scale(0.1 -0.1)">
       <defs>
        <path id="DejaVuSans-31" d="M 794 531 
L 1825 531 
L 1825 4091 
L 703 3866 
L 703 4441 
L 1819 4666 
L 2450 4666 
L 2450 531 
L 3481 531 
L 3481 0 
L 794 0 
L 794 531 
z
" transform="scale(0.015625)"/>
       </defs>
       <use xlink:href="#DejaVuSans-31"/>
       <use xlink:href="#DejaVuSans-30" x="63.623047"/>
       <use xlink:href="#DejaVuSans-30" x="127.246094"/>
       <use xlink:href="#DejaVuSans-30" x="190.869141"/>
      </g>
     </g>
    </g>
    <g id="xtick_3">
     <g id="line2d_3">
      <g>
       <use xlink:href="#m87b07f8bc6" x="242.726301" y="256.32" style="stroke: #000000; stroke-width: 0.8"/>
      </g>
     </g>
     <g id="text_3">
      <!-- 2000 -->
      <g transform="translate(230.001301 270.918437) scale(0.1 -0.1)">
       <defs>
        <path id="DejaVuSans-32" d="M 1228 531 
L 3431 531 
L 3431 0 
L 469 0 
L 469 531 
Q 828 903 1448 1529 
Q 2069 2156 2228 2338 
Q 2531 2678 2651 2914 
Q 2772 3150 2772 3378 
Q 2772 3750 2511 3984 
Q 2250 4219 1831 4219 
Q 1534 4219 1204 4116 
Q 875 4013 500 3803 
L 500 4441 
Q 881 4594 1212 4672 
Q 1544 4750 1819 4750 
Q 2544 4750 2975 4387 
Q 3406 4025 3406 3419 
Q 3406 3131 3298 2873 
Q 3191 2616 2906 2266 
Q 2828 2175 2409 1742 
Q 1991 1309 1228 531 
z
" transform="scale(0.015625)"/>
       </defs>
       <use xlink:href="#DejaVuSans-32"/>
       <use xlink:href="#DejaVuSans-30" x="63.623047"/>
       <use xlink:href="#DejaVuSans-30" x="127.246094"/>
       <use xlink:href="#DejaVuSans-30" x="190.869141"/>
      </g>
     </g>
    </g>
    <g id="xtick_4">
     <g id="line2d_4">
      <g>
       <use xlink:href="#m87b07f8bc6" x="295.557426" y="256.32" style="stroke: #000000; stroke-width: 0.8"/>
      </g>
     </g>
     <g id="text_4">
      <!-- 3000 -->
      <g transform="translate(282.832426 270.918437) scale(0.1 -0.1)">
       <defs>
        <path id="DejaVuSans-33" d="M 2597 2516 
Q 3050 2419 3304 2112 
Q 3559 1806 3559 1356 
Q 3559 666 3084 287 
Q 2609 -91 1734 -91 
Q 1441 -91 1130 -33 
Q 819 25 488 141 
L 488 750 
Q 750 597 1062 519 
Q 1375 441 1716 441 
Q 2309 441 2620 675 
Q 2931 909 2931 1356 
Q 2931 1769 2642 2001 
Q 2353 2234 1838 2234 
L 1294 2234 
L 1294 2753 
L 1863 2753 
Q 2328 2753 2575 2939 
Q 2822 3125 2822 3475 
Q 2822 3834 2567 4026 
Q 2313 4219 1838 4219 
Q 1578 4219 1281 4162 
Q 984 4106 628 3988 
L 628 4550 
Q 988 4650 1302 4700 
Q 1616 4750 1894 4750 
Q 2613 4750 3031 4423 
Q 3450 4097 3450 3541 
Q 3450 3153 3228 2886 
Q 3006 2619 2597 2516 
z
" transform="scale(0.015625)"/>
       </defs>
       <use xlink:href="#DejaVuSans-33"/>
       <use xlink:href="#DejaVuSans-30" x="63.623047"/>
       <use xlink:href="#DejaVuSans-30" x="127.246094"/>
       <use xlink:href="#DejaVuSans-30" x="190.869141"/>
      </g>
     </g>
    </g>
    <g id="xtick_5">
     <g id="line2d_5">
      <g>
       <use xlink:href="#m87b07f8bc6" x="348.388552" y="256.32" style="stroke: #000000; stroke-width: 0.8"/>
      </g>
     </g>
     <g id="text_5">
      <!-- 4000 -->
      <g transform="translate(335.663552 270.918437) scale(0.1 -0.1)">
       <defs>
        <path id="DejaVuSans-34" d="M 2419 4116 
L 825 1625 
L 2419 1625 
L 2419 4116 
z
M 2253 4666 
L 3047 4666 
L 3047 1625 
L 3713 1625 
L 3713 1100 
L 3047 1100 
L 3047 0 
L 2419 0 
L 2419 1100 
L 313 1100 
L 313 1709 
L 2253 4666 
z
" transform="scale(0.015625)"/>
       </defs>
       <use xlink:href="#DejaVuSans-34"/>
       <use xlink:href="#DejaVuSans-30" x="63.623047"/>
       <use xlink:href="#DejaVuSans-30" x="127.246094"/>
       <use xlink:href="#DejaVuSans-30" x="190.869141"/>
      </g>
     </g>
    </g>
    <g id="xtick_6">
     <g id="line2d_6">
      <g>
       <use xlink:href="#m87b07f8bc6" x="401.219677" y="256.32" style="stroke: #000000; stroke-width: 0.8"/>
      </g>
     </g>
     <g id="text_6">
      <!-- 5000 -->
      <g transform="translate(388.494677 270.918437) scale(0.1 -0.1)">
       <defs>
        <path id="DejaVuSans-35" d="M 691 4666 
L 3169 4666 
L 3169 4134 
L 1269 4134 
L 1269 2991 
Q 1406 3038 1543 3061 
Q 1681 3084 1819 3084 
Q 2600 3084 3056 2656 
Q 3513 2228 3513 1497 
Q 3513 744 3044 326 
Q 2575 -91 1722 -91 
Q 1428 -91 1123 -41 
Q 819 9 494 109 
L 494 744 
Q 775 591 1075 516 
Q 1375 441 1709 441 
Q 2250 441 2565 725 
Q 2881 1009 2881 1497 
Q 2881 1984 2565 2268 
Q 2250 2553 1709 2553 
Q 1456 2553 1204 2497 
Q 953 2441 691 2322 
L 691 4666 
z
" transform="scale(0.015625)"/>
       </defs>
       <use xlink:href="#DejaVuSans-35"/>
       <use xlink:href="#DejaVuSans-30" x="63.623047"/>
       <use xlink:href="#DejaVuSans-30" x="127.246094"/>
       <use xlink:href="#DejaVuSans-30" x="190.869141"/>
      </g>
     </g>
    </g>
    <g id="xtick_7">
     <g id="line2d_7">
      <g>
       <use xlink:href="#m87b07f8bc6" x="454.050803" y="256.32" style="stroke: #000000; stroke-width: 0.8"/>
      </g>
     </g>
     <g id="text_7">
      <!-- 6000 -->
      <g transform="translate(441.325803 270.918437) scale(0.1 -0.1)">
       <defs>
        <path id="DejaVuSans-36" d="M 2113 2584 
Q 1688 2584 1439 2293 
Q 1191 2003 1191 1497 
Q 1191 994 1439 701 
Q 1688 409 2113 409 
Q 2538 409 2786 701 
Q 3034 994 3034 1497 
Q 3034 2003 2786 2293 
Q 2538 2584 2113 2584 
z
M 3366 4563 
L 3366 3988 
Q 3128 4100 2886 4159 
Q 2644 4219 2406 4219 
Q 1781 4219 1451 3797 
Q 1122 3375 1075 2522 
Q 1259 2794 1537 2939 
Q 1816 3084 2150 3084 
Q 2853 3084 3261 2657 
Q 3669 2231 3669 1497 
Q 3669 778 3244 343 
Q 2819 -91 2113 -91 
Q 1303 -91 875 529 
Q 447 1150 447 2328 
Q 447 3434 972 4092 
Q 1497 4750 2381 4750 
Q 2619 4750 2861 4703 
Q 3103 4656 3366 4563 
z
" transform="scale(0.015625)"/>
       </defs>
       <use xlink:href="#DejaVuSans-36"/>
       <use xlink:href="#DejaVuSans-30" x="63.623047"/>
       <use xlink:href="#DejaVuSans-30" x="127.246094"/>
       <use xlink:href="#DejaVuSans-30" x="190.869141"/>
      </g>
     </g>
    </g>
   </g>
   <g id="matplotlib.axis_2">
    <g id="ytick_1">
     <g id="line2d_8">
      <defs>
       <path id="me5ef985a07" d="M 0 0 
L -3.5 0 
" style="stroke: #000000; stroke-width: 0.8"/>
      </defs>
      <g>
       <use xlink:href="#me5ef985a07" x="121.5" y="250.694152" style="stroke: #000000; stroke-width: 0.8"/>
      </g>
     </g>
     <g id="text_8">
      <!-- 0.6 -->
      <g transform="translate(98.596875 254.493371) scale(0.1 -0.1)">
       <defs>
        <path id="DejaVuSans-2e" d="M 684 794 
L 1344 794 
L 1344 0 
L 684 0 
L 684 794 
z
" transform="scale(0.015625)"/>
       </defs>
       <use xlink:href="#DejaVuSans-30"/>
       <use xlink:href="#DejaVuSans-2e" x="63.623047"/>
       <use xlink:href="#DejaVuSans-36" x="95.410156"/>
      </g>
     </g>
    </g>
    <g id="ytick_2">
     <g id="line2d_9">
      <g>
       <use xlink:href="#me5ef985a07" x="121.5" y="225.652136" style="stroke: #000000; stroke-width: 0.8"/>
      </g>
     </g>
     <g id="text_9">
      <!-- 0.8 -->
      <g transform="translate(98.596875 229.451354) scale(0.1 -0.1)">
       <defs>
        <path id="DejaVuSans-38" d="M 2034 2216 
Q 1584 2216 1326 1975 
Q 1069 1734 1069 1313 
Q 1069 891 1326 650 
Q 1584 409 2034 409 
Q 2484 409 2743 651 
Q 3003 894 3003 1313 
Q 3003 1734 2745 1975 
Q 2488 2216 2034 2216 
z
M 1403 2484 
Q 997 2584 770 2862 
Q 544 3141 544 3541 
Q 544 4100 942 4425 
Q 1341 4750 2034 4750 
Q 2731 4750 3128 4425 
Q 3525 4100 3525 3541 
Q 3525 3141 3298 2862 
Q 3072 2584 2669 2484 
Q 3125 2378 3379 2068 
Q 3634 1759 3634 1313 
Q 3634 634 3220 271 
Q 2806 -91 2034 -91 
Q 1263 -91 848 271 
Q 434 634 434 1313 
Q 434 1759 690 2068 
Q 947 2378 1403 2484 
z
M 1172 3481 
Q 1172 3119 1398 2916 
Q 1625 2713 2034 2713 
Q 2441 2713 2670 2916 
Q 2900 3119 2900 3481 
Q 2900 3844 2670 4047 
Q 2441 4250 2034 4250 
Q 1625 4250 1398 4047 
Q 1172 3844 1172 3481 
z
" transform="scale(0.015625)"/>
       </defs>
       <use xlink:href="#DejaVuSans-30"/>
       <use xlink:href="#DejaVuSans-2e" x="63.623047"/>
       <use xlink:href="#DejaVuSans-38" x="95.410156"/>
      </g>
     </g>
    </g>
    <g id="ytick_3">
     <g id="line2d_10">
      <g>
       <use xlink:href="#me5ef985a07" x="121.5" y="200.610119" style="stroke: #000000; stroke-width: 0.8"/>
      </g>
     </g>
     <g id="text_10">
      <!-- 1.0 -->
      <g transform="translate(98.596875 204.409338) scale(0.1 -0.1)">
       <use xlink:href="#DejaVuSans-31"/>
       <use xlink:href="#DejaVuSans-2e" x="63.623047"/>
       <use xlink:href="#DejaVuSans-30" x="95.410156"/>
      </g>
     </g>
    </g>
    <g id="ytick_4">
     <g id="line2d_11">
      <g>
       <use xlink:href="#me5ef985a07" x="121.5" y="175.568103" style="stroke: #000000; stroke-width: 0.8"/>
      </g>
     </g>
     <g id="text_11">
      <!-- 1.2 -->
      <g transform="translate(98.596875 179.367322) scale(0.1 -0.1)">
       <use xlink:href="#DejaVuSans-31"/>
       <use xlink:href="#DejaVuSans-2e" x="63.623047"/>
       <use xlink:href="#DejaVuSans-32" x="95.410156"/>
      </g>
     </g>
    </g>
    <g id="ytick_5">
     <g id="line2d_12">
      <g>
       <use xlink:href="#me5ef985a07" x="121.5" y="150.526087" style="stroke: #000000; stroke-width: 0.8"/>
      </g>
     </g>
     <g id="text_12">
      <!-- 1.4 -->
      <g transform="translate(98.596875 154.325305) scale(0.1 -0.1)">
       <use xlink:href="#DejaVuSans-31"/>
       <use xlink:href="#DejaVuSans-2e" x="63.623047"/>
       <use xlink:href="#DejaVuSans-34" x="95.410156"/>
      </g>
     </g>
    </g>
    <g id="ytick_6">
     <g id="line2d_13">
      <g>
       <use xlink:href="#me5ef985a07" x="121.5" y="125.48407" style="stroke: #000000; stroke-width: 0.8"/>
      </g>
     </g>
     <g id="text_13">
      <!-- 1.6 -->
      <g transform="translate(98.596875 129.283289) scale(0.1 -0.1)">
       <use xlink:href="#DejaVuSans-31"/>
       <use xlink:href="#DejaVuSans-2e" x="63.623047"/>
       <use xlink:href="#DejaVuSans-36" x="95.410156"/>
      </g>
     </g>
    </g>
    <g id="ytick_7">
     <g id="line2d_14">
      <g>
       <use xlink:href="#me5ef985a07" x="121.5" y="100.442054" style="stroke: #000000; stroke-width: 0.8"/>
      </g>
     </g>
     <g id="text_14">
      <!-- 1.8 -->
      <g transform="translate(98.596875 104.241273) scale(0.1 -0.1)">
       <use xlink:href="#DejaVuSans-31"/>
       <use xlink:href="#DejaVuSans-2e" x="63.623047"/>
       <use xlink:href="#DejaVuSans-38" x="95.410156"/>
      </g>
     </g>
    </g>
    <g id="ytick_8">
     <g id="line2d_15">
      <g>
       <use xlink:href="#me5ef985a07" x="121.5" y="75.400038" style="stroke: #000000; stroke-width: 0.8"/>
      </g>
     </g>
     <g id="text_15">
      <!-- 2.0 -->
      <g transform="translate(98.596875 79.199257) scale(0.1 -0.1)">
       <use xlink:href="#DejaVuSans-32"/>
       <use xlink:href="#DejaVuSans-2e" x="63.623047"/>
       <use xlink:href="#DejaVuSans-30" x="95.410156"/>
      </g>
     </g>
    </g>
    <g id="ytick_9">
     <g id="line2d_16">
      <g>
       <use xlink:href="#me5ef985a07" x="121.5" y="50.358022" style="stroke: #000000; stroke-width: 0.8"/>
      </g>
     </g>
     <g id="text_16">
      <!-- 2.2 -->
      <g transform="translate(98.596875 54.15724) scale(0.1 -0.1)">
       <use xlink:href="#DejaVuSans-32"/>
       <use xlink:href="#DejaVuSans-2e" x="63.623047"/>
       <use xlink:href="#DejaVuSans-32" x="95.410156"/>
      </g>
     </g>
    </g>
   </g>
   <g id="line2d_17">
    <path d="M 137.06405 200.735329 
L 140.656566 208.962325 
L 144.301914 216.757393 
L 147.947261 224.032487 
L 151.64544 230.917289 
L 155.343619 237.336412 
L 159.094629 243.403851 
L 159.62294 244.142638 
L 159.728602 244.06096 
L 161.155043 246.24 
L 161.207874 246.16042 
L 161.577692 245.681265 
L 161.736185 245.921441 
L 161.789016 245.841542 
L 162.264496 245.199469 
L 162.475821 245.521469 
L 162.528652 245.44117 
L 163.426781 244.22709 
L 163.532443 244.308683 
L 163.743768 244.63424 
L 163.796599 244.553054 
L 164.747559 243.160405 
L 164.906053 243.408136 
L 164.958884 243.325724 
L 168.657063 237.347294 
L 172.30241 231.030393 
L 175.947758 224.26247 
L 179.540275 217.120023 
L 183.132791 209.475254 
L 186.672476 201.41724 
L 190.212162 192.801131 
L 193.751847 183.588273 
L 197.238702 173.889266 
L 200.725556 163.528869 
L 204.21241 152.461981 
L 207.699264 140.640426 
L 208.650225 137.467059 
L 208.703056 137.655412 
L 208.755887 137.467247 
L 211.503105 127.418924 
L 211.555937 127.617325 
L 211.608768 127.815528 
L 211.661599 127.617523 
L 212.031417 126.42533 
L 212.295572 127.420312 
L 212.348403 127.221913 
L 215.254115 116.417824 
L 215.571102 117.671101 
L 215.623933 117.462952 
L 217.420192 110.260661 
L 217.473023 110.47622 
L 217.578685 110.906693 
L 217.631516 110.691779 
L 217.684347 110.691779 
L 219.480605 103.700113 
L 219.69193 104.144353 
L 219.850423 103.47866 
L 219.903254 103.701002 
L 219.956086 103.923121 
L 220.008917 103.701224 
L 220.114579 103.256764 
L 220.16741 103.479327 
L 220.220241 103.701668 
L 220.273072 103.47955 
L 220.959877 100.571715 
L 221.012708 100.796963 
L 221.065539 100.796963 
L 221.59385 102.814091 
L 223.390109 95.56617 
L 223.44294 95.796424 
L 223.495771 95.5664 
L 223.759927 94.644003 
L 223.971251 95.336838 
L 224.552393 93.254403 
L 224.710887 93.951403 
L 224.763718 93.719534 
L 225.556185 90.448919 
L 225.661847 90.684291 
L 226.348652 87.847089 
L 226.401483 88.085062 
L 226.454314 87.847327 
L 227.299612 84.493964 
L 227.722261 86.178188 
L 228.092079 84.736737 
L 228.514728 86.658668 
L 228.567559 86.419506 
L 229.624182 82.073469 
L 229.677013 82.073469 
L 229.835506 81.585732 
L 229.941168 82.073957 
L 229.993999 81.830211 
L 230.363817 80.117148 
L 230.416648 80.362851 
L 230.46948 80.362851 
L 230.627973 79.625743 
L 230.680804 79.871937 
L 230.786466 80.363588 
L 230.839297 80.118131 
L 232.424231 72.639184 
L 232.477062 72.892365 
L 232.582725 73.397968 
L 232.635556 73.145546 
L 233.005374 71.625703 
L 233.428023 73.399735 
L 233.533685 72.894642 
L 233.586516 73.147567 
L 233.79784 74.156743 
L 233.850672 73.905079 
L 233.903503 73.653164 
L 233.956334 73.905331 
L 234.960125 78.154042 
L 235.277112 79.389899 
L 235.752592 77.659951 
L 235.805423 77.659951 
L 236.439397 74.665595 
L 236.492228 74.916749 
L 236.703552 75.668707 
L 237.443188 72.650324 
L 237.496019 72.903494 
L 237.54885 72.650577 
L 237.865837 71.382195 
L 237.971499 71.890816 
L 238.024331 71.636887 
L 238.658304 68.569855 
L 238.711135 68.827105 
L 239.133784 70.875869 
L 239.186615 70.620924 
L 239.979082 67.024818 
L 240.137576 67.800428 
L 240.190407 67.542409 
L 240.296069 67.025595 
L 240.3489 67.284389 
L 240.401731 67.284389 
L 240.507393 67.542925 
L 241.616847 62.328011 
L 241.828172 62.854995 
L 242.250821 61.273519 
L 242.303652 61.538065 
L 242.356483 61.273783 
L 242.409314 61.273783 
L 242.884794 63.382762 
L 243.043287 62.594662 
L 243.096119 62.857888 
L 243.14895 63.12085 
L 243.201781 62.858151 
L 243.465936 61.804724 
L 244.469728 66.25726 
L 245.790506 72.669058 
L 245.948999 71.908845 
L 246.00183 72.162756 
L 246.213155 72.922968 
L 246.582973 71.147367 
L 246.635804 71.40204 
L 246.847128 72.164532 
L 247.533933 68.84715 
L 247.586764 69.104123 
L 247.903751 70.640574 
L 247.956582 70.385394 
L 248.220738 69.105664 
L 248.273569 69.362378 
L 248.379231 69.618836 
L 249.066036 66.268161 
L 249.118867 66.527713 
L 249.171698 66.787006 
L 249.224529 66.527972 
L 249.383023 65.749317 
L 249.435854 66.009388 
L 249.488685 66.269199 
L 249.541516 66.009648 
L 250.122658 63.1374 
L 250.175489 63.400082 
L 250.228321 63.662502 
L 250.281152 63.400345 
L 250.65097 62.085619 
L 250.862294 62.876031 
L 251.496268 59.703289 
L 251.549099 59.969406 
L 252.288734 63.142391 
L 252.341566 63.142391 
L 252.500059 62.353569 
L 252.55289 62.617035 
L 252.658552 63.143179 
L 252.711383 62.880502 
L 253.134032 60.769607 
L 253.186864 61.034657 
L 253.50385 62.092476 
L 253.662344 61.300501 
L 253.715175 61.565021 
L 253.97933 62.883657 
L 254.032162 62.62072 
L 254.560473 60.242428 
L 254.666135 60.773318 
L 254.718966 60.508271 
L 255.669926 56.231563 
L 255.722758 56.501152 
L 255.775589 56.231832 
L 255.986913 55.15186 
L 256.039744 55.422529 
L 256.145407 55.692926 
L 256.620887 53.796625 
L 256.77938 54.61188 
L 256.832211 54.340672 
L 257.096367 52.980557 
L 257.149198 53.253396 
L 258.152989 57.850416 
L 258.575638 59.986686 
L 258.628469 59.720852 
L 258.681301 59.454753 
L 258.734132 59.721118 
L 258.786963 59.721118 
L 259.949248 54.348273 
L 260.05491 54.890946 
L 260.107741 54.620016 
L 260.213403 54.077345 
L 260.266234 54.349088 
L 260.953039 57.857115 
L 261.00587 57.589152 
L 261.745506 54.352888 
L 261.798337 54.352888 
L 262.379479 57.055378 
L 262.590804 55.978705 
L 262.643635 56.248546 
L 262.749297 56.248546 
L 263.224777 58.397587 
L 264.915373 49.981924 
L 264.968205 50.257762 
L 265.021036 49.9822 
L 265.655009 47.211652 
L 266.236152 49.709399 
L 266.288983 49.709399 
L 266.658801 51.636386 
L 266.711632 51.362202 
L 266.764463 51.087744 
L 266.817294 51.362476 
L 267.926748 57.068816 
L 269.723006 48.334406 
L 270.568304 52.19433 
L 270.621135 52.19433 
L 270.726797 51.646804 
L 270.779628 51.920978 
L 270.938122 52.468502 
L 271.096615 51.647627 
L 271.149446 51.9218 
L 271.360771 53.015751 
L 271.413602 52.742946 
L 271.466433 52.469869 
L 271.519264 52.74322 
L 271.677757 53.016569 
L 271.730589 53.016569 
L 271.889082 52.19734 
L 271.941913 52.470963 
L 272.100406 53.017388 
L 272.840042 49.173224 
L 272.892873 49.449871 
L 273.104198 50.278153 
L 273.20986 50.002611 
L 273.474016 51.378943 
L 273.526847 51.104502 
L 273.579678 51.104502 
L 274.319314 47.511691 
L 275.111781 51.382785 
L 275.323105 50.833911 
L 275.375936 50.833911 
L 275.53443 50.008127 
L 275.587261 50.283939 
L 275.640092 50.559475 
L 275.692923 50.284215 
L 275.798585 49.732867 
L 275.851416 50.008955 
L 276.326897 52.48135 
L 276.379728 52.208011 
L 276.802377 50.562503 
L 277.542012 54.119462 
L 277.594844 53.847761 
L 277.647675 54.119733 
L 278.228817 57.09354 
L 278.281648 56.824813 
L 278.38731 56.286553 
L 278.440142 56.556087 
L 278.809959 57.899986 
L 279.021284 57.095421 
L 279.708089 60.302441 
L 280.077906 58.705347 
L 280.183569 59.239309 
L 280.2364 58.972728 
L 280.394893 58.171385 
L 280.447724 58.439034 
L 280.500555 58.439034 
L 280.553387 58.171653 
L 280.606218 58.439301 
L 280.71188 58.439301 
L 280.870373 58.973796 
L 281.293022 56.831538 
L 281.345853 57.100527 
L 281.398685 57.100527 
L 281.979827 54.672624 
L 282.032658 54.943772 
L 282.085489 54.672895 
L 282.877956 51.127028 
L 282.930787 51.401721 
L 282.983618 51.127303 
L 283.247774 50.026882 
L 284.357228 55.76099 
L 284.46289 55.490931 
L 284.568552 56.031319 
L 284.621383 55.76153 
L 285.361019 51.956035 
L 285.41385 52.229899 
L 285.836499 53.867614 
L 285.88933 53.595662 
L 285.942161 53.867886 
L 286.470473 56.036175 
L 287.104446 52.780902 
L 287.157277 53.053941 
L 287.210108 53.326707 
L 287.26294 53.054214 
L 287.315771 52.781448 
L 287.368602 53.054486 
L 287.421433 53.327252 
L 287.474264 53.054759 
L 287.73842 51.96206 
L 288.002575 52.783086 
L 288.2139 52.237012 
L 288.266731 52.510595 
L 288.319562 52.237286 
L 288.372393 51.963703 
L 288.425224 52.237559 
L 288.795042 53.874957 
L 289.059198 52.512509 
L 289.112029 52.785816 
L 289.64034 55.233319 
L 289.693171 54.962732 
L 289.746002 55.23359 
L 289.851665 55.23359 
L 290.538469 58.730187 
L 290.5913 58.463097 
L 290.908287 57.123636 
L 291.330936 58.998878 
L 291.383767 58.732057 
L 291.436598 58.999145 
L 292.281896 63.236412 
L 292.334728 62.973829 
L 292.968701 59.802266 
L 293.021532 60.068284 
L 293.180026 60.864743 
L 293.232857 60.599788 
L 294.078155 56.324285 
L 294.130986 56.593781 
L 294.395141 57.937224 
L 294.447973 57.669341 
L 294.712128 56.864353 
L 295.240439 59.00875 
L 295.293271 59.00875 
L 296.085737 62.719928 
L 296.244231 61.929837 
L 296.297062 62.193728 
L 296.349893 62.457354 
L 296.402724 62.193991 
L 297.036698 59.27956 
L 297.195191 59.812375 
L 297.881996 56.871883 
L 297.934827 56.871883 
L 297.987658 56.602935 
L 298.040489 56.872152 
L 298.621632 59.815833 
L 298.674463 59.549829 
L 298.938618 58.750485 
L 298.991449 58.750485 
L 299.308436 57.680871 
L 299.572592 58.484752 
L 300.312228 55.259294 
L 300.629214 56.609396 
L 300.682045 56.340185 
L 300.734877 56.609665 
L 300.787708 56.609665 
L 301.263188 58.488762 
L 301.36885 57.953832 
L 301.421681 58.221699 
L 301.527343 58.756628 
L 301.580175 58.489564 
L 302.636797 53.364309 
L 303.112277 55.536342 
L 303.534926 53.910851 
L 303.904744 55.267952 
L 303.957575 55.267952 
L 304.116069 54.726577 
L 304.221731 55.268493 
L 304.274562 54.997942 
L 304.750042 52.823765 
L 305.014198 53.642208 
L 305.11986 53.642208 
L 305.912327 57.696423 
L 305.965158 57.428299 
L 306.017989 57.159907 
L 306.07082 57.428567 
L 306.229314 58.232937 
L 306.282145 57.96535 
L 306.334976 57.697495 
L 306.387807 57.965618 
L 306.493469 58.501059 
L 306.5463 58.23374 
L 306.704794 57.430178 
L 306.757625 57.698568 
L 307.074612 58.769714 
L 307.233105 57.967761 
L 307.285936 58.235613 
L 307.338767 58.235613 
L 309.34635 48.432063 
L 309.399181 48.709452 
L 309.452012 48.432341 
L 309.610506 47.599345 
L 309.663337 47.877566 
L 310.350141 51.46922 
L 310.402973 51.194869 
L 310.455804 51.194869 
L 310.561466 50.645343 
L 310.614297 50.920518 
L 310.77279 51.470043 
L 310.878453 50.921068 
L 310.931284 51.195967 
L 311.036946 51.744941 
L 311.089777 51.470866 
L 311.142608 51.196516 
L 311.195439 51.47114 
L 311.618088 53.658266 
L 311.67092 53.386104 
L 311.935075 52.568258 
L 312.199231 53.659627 
L 312.569049 52.022576 
L 312.727542 52.843147 
L 312.780373 52.57017 
L 312.886035 52.023397 
L 312.938867 52.297194 
L 313.044529 52.843966 
L 313.09736 52.57099 
L 313.150191 52.297741 
L 313.203022 52.571263 
L 313.255853 52.844512 
L 313.308684 52.571537 
L 313.361516 52.298288 
L 313.414347 52.57181 
L 313.467178 52.57181 
L 314.04832 50.10299 
L 314.153982 50.654149 
L 314.206814 50.378983 
L 314.259645 50.103542 
L 314.312476 50.379258 
L 314.840787 52.575362 
L 314.893618 52.302117 
L 314.946449 52.575635 
L 315.052112 52.575635 
L 316.055903 57.184085 
L 316.108734 56.915449 
L 316.161565 57.184354 
L 316.425721 58.52485 
L 316.478552 58.257554 
L 316.637045 57.454063 
L 316.689876 57.72243 
L 316.901201 58.525919 
L 316.954032 58.258625 
L 317.006863 58.526186 
L 317.218188 59.327267 
L 317.271019 59.060774 
L 317.32385 59.327533 
L 317.429512 59.860252 
L 317.482343 59.594292 
L 317.693668 58.52779 
L 317.746499 58.795082 
L 317.79933 59.062107 
L 317.852161 58.795349 
L 317.957823 58.528325 
L 318.380472 60.65919 
L 318.433304 60.394029 
L 318.486135 60.128603 
L 318.538966 60.394295 
L 318.75029 60.925146 
L 318.803121 60.925146 
L 319.014446 61.983138 
L 319.067277 61.719301 
L 320.1239 56.92513 
L 320.440886 58.266919 
L 320.757873 56.926474 
L 321.55034 60.401461 
L 322.237145 57.467481 
L 322.289976 57.735834 
L 322.342807 57.46775 
L 323.188105 53.141757 
L 323.240936 53.414436 
L 323.452261 53.958975 
L 323.87491 52.050228 
L 324.033403 52.597494 
L 324.086234 52.324271 
L 324.139065 52.597767 
L 324.82587 56.128426 
L 324.878701 55.858734 
L 325.090025 55.318811 
L 325.882492 58.814574 
L 325.935323 58.814574 
L 326.199479 59.615057 
L 326.780621 57.209873 
L 326.833453 57.209873 
L 327.520257 60.415528 
L 328.471217 56.137325 
L 328.524049 56.137325 
L 328.788204 55.327738 
L 328.946698 55.868452 
L 329.210853 54.787024 
L 329.316515 55.32882 
L 329.369347 55.058328 
L 329.791996 53.429963 
L 329.897658 53.429963 
L 330.056151 54.246316 
L 330.108982 53.974743 
L 330.425969 52.886002 
L 330.4788 52.886002 
L 330.584462 53.431597 
L 330.637294 53.159208 
L 330.690125 53.159208 
L 331.007111 51.519147 
L 331.059943 51.793448 
L 332.010903 56.414821 
L 332.116565 55.875741 
L 332.169396 56.145685 
L 332.380721 57.222766 
L 332.433552 56.954169 
L 333.120356 53.98181 
L 333.173188 54.253649 
L 333.226019 53.982082 
L 333.331681 53.438134 
L 333.384512 53.710516 
L 333.595837 54.797323 
L 333.648668 54.526301 
L 333.701499 54.526301 
L 334.758121 59.900941 
L 335.075108 58.301431 
L 335.127939 58.56895 
L 335.233602 59.103185 
L 335.286433 58.836468 
L 336.55438 52.901012 
L 336.607211 53.173932 
L 336.660042 52.901285 
L 336.818535 52.08171 
L 336.871366 52.355448 
L 336.977029 52.902104 
L 337.02986 52.629186 
L 337.082691 52.629186 
L 337.98082 56.698759 
L 339.037443 51.813451 
L 339.143105 52.361191 
L 339.195936 52.087732 
L 339.301598 51.813999 
L 339.354429 52.088006 
L 339.40726 51.814273 
L 339.460092 51.540267 
L 339.512923 51.814547 
L 339.671416 52.088827 
L 339.724247 51.815095 
L 339.777078 52.0891 
L 340.728039 56.436373 
L 341.467674 52.640387 
L 341.520505 52.913566 
L 341.678999 53.731468 
L 341.73183 53.459379 
L 341.943154 52.368301 
L 341.995986 52.641753 
L 343.263933 58.856224 
L 343.316764 58.856224 
L 343.528088 57.786765 
L 343.580919 58.054799 
L 343.63375 58.054799 
L 343.792244 58.857292 
L 343.845075 58.590329 
L 344.584711 55.09542 
L 345.00736 56.984818 
L 345.799827 52.923937 
L 345.852658 53.196833 
L 346.222476 55.099481 
L 346.275307 54.82876 
L 347.226267 50.460501 
L 347.279098 50.460501 
L 347.437592 49.633596 
L 347.490423 49.909783 
L 347.648916 50.461327 
L 348.071565 48.805315 
L 348.441383 50.463255 
L 348.811201 49.083991 
L 349.814992 53.75133 
L 350.343303 56.459808 
L 350.396135 56.190448 
L 350.818784 54.025845 
L 350.871615 54.297639 
L 350.924446 54.569162 
L 350.977277 54.297911 
L 351.347095 52.937854 
L 351.399926 53.210736 
L 351.452757 52.938127 
L 351.61125 52.39209 
L 352.033899 54.028834 
L 352.086731 53.757043 
L 352.139562 54.029106 
L 352.245224 54.572417 
L 352.298055 54.301169 
L 352.350886 54.301169 
L 352.456548 54.843935 
L 352.50938 54.572959 
L 353.090522 52.12222 
L 353.143353 52.12222 
L 353.988651 56.199076 
L 354.4113 54.306056 
L 354.464131 54.57757 
L 354.516962 54.306328 
L 356.366052 44.64 
L 356.418883 44.92118 
L 356.471714 45.202079 
L 356.524545 44.921461 
L 356.577376 44.640562 
L 356.630207 44.921742 
L 357.633999 50.21105 
L 357.68683 49.935441 
L 357.739661 50.211326 
L 357.898154 51.037326 
L 357.950986 50.762543 
L 358.215141 49.384501 
L 358.267972 49.660937 
L 358.584959 51.038975 
L 358.796284 50.213806 
L 359.58875 54.047316 
L 359.641582 53.775543 
L 359.694413 54.047587 
L 359.747244 54.047587 
L 360.803866 48.83717 
L 361.120853 50.494919 
L 361.173684 50.219594 
L 361.490671 48.561851 
L 361.543502 48.839109 
L 361.754827 49.945373 
L 361.807658 49.669498 
L 361.860489 49.669498 
L 361.91332 49.393347 
L 361.966151 49.669774 
L 362.071813 50.221799 
L 362.124644 49.9462 
L 362.335969 49.394453 
L 362.441631 49.947028 
L 362.494462 49.671155 
L 362.705787 49.118857 
L 363.075605 50.4996 
L 363.128436 50.4996 
L 363.498254 52.147399 
L 363.551085 51.873726 
L 363.603916 52.147673 
L 363.656747 52.421345 
L 363.709578 52.147946 
L 363.920903 51.051614 
L 363.973734 51.326383 
L 364.185058 52.149041 
L 364.343552 51.875644 
L 364.396383 52.149588 
L 364.449214 51.875918 
L 364.502045 51.875918 
L 364.924694 49.952545 
L 365.928485 54.604964 
L 365.981317 54.604964 
L 366.985108 49.681372 
L 367.671913 52.70403 
L 367.724744 52.70403 
L 368.411548 55.693602 
L 368.622873 55.153349 
L 368.675704 55.424016 
L 368.728535 55.15362 
L 369.41534 51.887697 
L 369.785158 53.527189 
L 369.943651 53.254896 
L 370.154976 53.800026 
L 370.207807 53.800026 
L 370.260638 54.072046 
L 370.313469 53.800298 
L 370.3663 53.528278 
L 370.419131 53.80057 
L 370.524793 54.344337 
L 370.577625 54.072861 
L 370.947442 52.164914 
L 371.000274 52.438569 
L 371.951234 57.317833 
L 372.004065 57.049331 
L 372.056896 57.318102 
L 372.109727 57.049599 
L 372.162558 56.780829 
L 372.215389 57.049868 
L 372.796532 59.459414 
L 372.849363 59.193054 
L 372.902194 59.459681 
L 373.113519 60.523526 
L 373.16635 60.258229 
L 373.377674 59.194387 
L 373.430505 59.461013 
L 373.588999 59.727638 
L 373.747492 59.461812 
L 373.800323 59.461812 
L 374.064479 60.260354 
L 374.11731 59.994794 
L 374.170141 60.260619 
L 374.381466 61.056501 
L 374.962608 58.664074 
L 375.332426 59.997452 
L 375.755075 57.863412 
L 375.807906 58.131369 
L 376.177724 59.467405 
L 376.283386 59.201052 
L 377.181515 63.172728 
L 377.815489 60.269117 
L 378.238138 62.386105 
L 378.290969 62.122671 
L 378.3438 61.858973 
L 378.396631 62.122935 
L 378.502293 62.650065 
L 378.555124 62.386895 
L 378.607956 62.123462 
L 378.660787 62.387159 
L 378.713618 62.387159 
L 379.558916 58.407882 
L 379.611747 58.675295 
L 379.664578 58.40815 
L 379.875903 57.336896 
L 379.928734 57.605379 
L 380.034396 58.141541 
L 380.087227 57.873862 
L 380.509876 56.262429 
L 380.562707 56.262429 
L 380.932525 54.911942 
L 380.985356 54.911942 
L 381.989148 50.269749 
L 382.041979 50.269749 
L 382.253303 49.165892 
L 382.306134 49.442547 
L 382.57029 50.5464 
L 382.728783 49.719753 
L 382.781615 49.995853 
L 382.834446 50.271678 
L 382.887277 49.996129 
L 382.940108 49.720305 
L 382.992939 49.996405 
L 383.362757 51.372768 
L 383.415588 51.372768 
L 383.679744 52.195561 
L 384.525042 48.339817 
L 384.947691 50.000818 
L 385.000522 50.000818 
L 385.317509 51.377159 
L 385.740158 49.450285 
L 386.426962 52.748545 
L 386.479793 52.475473 
L 386.532624 52.748818 
L 387.325091 56.277793 
L 388.328883 51.659005 
L 388.434545 52.207053 
L 388.487376 51.93344 
L 388.751532 50.836249 
L 388.804363 51.111233 
L 388.857194 50.836524 
L 388.910025 50.56154 
L 388.962856 50.836799 
L 389.015687 50.836799 
L 389.332674 51.935357 
L 389.702492 50.012402 
L 389.755323 50.28821 
L 389.808154 50.563742 
L 389.860985 50.288486 
L 389.913816 50.288486 
L 389.966648 50.012954 
L 390.019479 50.288761 
L 390.07231 50.288761 
L 390.283634 49.737699 
L 390.600621 51.390058 
L 390.653452 51.115628 
L 390.706283 50.840923 
L 390.759114 51.115903 
L 390.970439 51.939192 
L 391.02327 51.665311 
L 391.076101 51.939466 
L 391.49875 53.850889 
L 391.97423 51.941657 
L 392.608204 55.210183 
L 392.661035 54.939573 
L 392.872359 54.397812 
L 393.242177 56.292079 
L 393.295009 56.022551 
L 393.82332 53.856872 
L 394.615787 57.907889 
L 394.668618 57.639977 
L 394.721449 57.639977 
L 394.77428 57.371797 
L 394.827111 57.640245 
L 394.932773 58.176337 
L 394.985605 57.908693 
L 395.038436 57.908693 
L 395.24976 56.835438 
L 395.302591 57.104423 
L 395.355422 57.373139 
L 395.408254 57.104692 
L 395.461085 56.835976 
L 395.513916 57.104961 
L 395.72524 58.17821 
L 395.778071 57.910568 
L 395.830903 57.910568 
L 395.883734 58.178478 
L 395.936565 57.910836 
L 396.623369 54.407041 
L 396.676201 54.678454 
L 396.729032 54.949596 
L 396.781863 54.678725 
L 396.993187 53.592531 
L 397.046018 53.864759 
L 397.204512 54.67981 
L 397.257343 54.408669 
L 397.468667 53.321393 
L 397.521499 53.593892 
L 397.996979 55.49404 
L 398.04981 55.49404 
L 398.155472 56.034422 
L 398.208303 55.764636 
L 398.261134 55.764636 
L 398.472459 55.224525 
L 398.52529 55.224525 
L 398.736614 56.035501 
L 399.581912 51.68642 
L 399.634744 51.960554 
L 399.793237 52.781311 
L 399.846068 52.508272 
L 400.110224 51.138977 
L 400.163055 51.413658 
L 400.268717 51.962197 
L 400.321548 51.688339 
L 400.374379 51.688339 
L 400.42721 51.414207 
L 400.480042 51.688613 
L 400.532873 51.962744 
L 400.585704 51.688887 
L 400.744197 50.86567 
L 400.797028 51.140625 
L 403.385753 64.281904 
L 403.438585 64.281904 
L 403.491416 64.543442 
L 403.544247 64.282165 
L 404.917856 57.932804 
L 404.970687 58.200691 
L 405.023518 57.933072 
L 405.234843 57.397298 
L 405.287674 57.665721 
L 405.340505 57.397566 
L 405.446167 56.860453 
L 405.498999 57.129412 
L 405.657492 57.666525 
L 405.815985 57.39864 
L 406.02731 58.470717 
L 406.080141 58.203367 
L 407.45375 51.157654 
L 407.506581 51.432317 
L 407.559412 51.706705 
L 407.612244 51.432591 
L 407.717906 50.883542 
L 407.770737 51.158478 
L 408.246217 53.620569 
L 408.299048 53.34837 
L 408.40471 52.803153 
L 408.457542 53.07617 
L 408.510373 53.348914 
L 408.563204 53.076443 
L 408.616035 53.076443 
L 408.880191 52.257667 
L 408.933022 52.53123 
L 408.985853 52.257941 
L 409.038684 52.257941 
L 409.725489 49.233941 
L 409.77832 49.233941 
L 410.306631 51.98739 
L 410.359462 51.713558 
L 410.465124 51.16507 
L 410.517955 51.439725 
L 410.676449 52.262044 
L 410.72928 51.988486 
L 411.416085 48.961508 
L 412.472707 54.446393 
L 412.736863 53.359268 
L 412.789694 53.631729 
L 412.842525 53.359541 
L 412.948187 53.08708 
L 413.212343 54.176377 
L 413.793485 51.17331 
L 413.846316 51.447957 
L 414.163303 53.09008 
L 414.216134 52.81735 
L 414.374628 51.997522 
L 414.427459 52.271345 
L 414.533121 52.818169 
L 414.585952 52.545167 
L 415.061432 50.075831 
L 415.114263 50.351575 
L 415.325588 51.451798 
L 415.378419 51.177429 
L 415.589743 50.077209 
L 415.642575 50.352952 
L 416.170886 52.549266 
L 416.487873 50.905536 
L 416.540704 51.180451 
L 416.699197 52.003546 
L 416.752028 51.729729 
L 416.804859 51.729729 
L 417.650157 47.589468 
L 417.808651 48.423326 
L 417.861482 48.145929 
L 417.914313 48.145929 
L 417.967144 47.868254 
L 418.019975 48.146206 
L 418.284131 48.978672 
L 418.442624 48.702108 
L 418.70678 49.532908 
L 418.970936 48.148705 
L 419.023767 48.426377 
L 419.710571 51.736856 
L 419.921896 50.638877 
L 419.974727 50.914058 
L 420.027558 50.914058 
L 420.820025 55.00891 
L 420.872856 54.738099 
L 420.925687 54.467016 
L 420.978518 54.73837 
L 421.98231 59.310344 
L 422.563452 61.963481 
L 422.827608 61.171384 
L 422.880439 61.436033 
L 422.93327 61.171649 
L 423.038932 60.642087 
L 423.091763 60.907265 
L 423.303088 61.701209 
L 423.461581 61.172707 
L 423.620075 61.437619 
L 425.257839 53.117624 
L 425.310671 53.390327 
L 425.680488 54.750026 
L 425.73332 54.750026 
L 425.838982 54.207614 
L 425.891813 54.479227 
L 425.997475 55.021638 
L 426.050306 54.750839 
L 426.103137 54.750839 
L 426.420124 55.833761 
L 426.525786 55.293518 
L 426.578618 55.564045 
L 426.948435 56.912895 
L 427.001267 56.912895 
L 427.318253 58.254745 
L 427.899396 55.296765 
L 427.952227 55.567288 
L 428.427707 57.721759 
L 428.639031 56.647756 
L 428.691863 56.916928 
L 428.744694 57.185832 
L 428.797525 56.917197 
L 429.008849 55.839971 
L 429.06168 56.109951 
L 430.805108 64.869443 
L 431.069263 64.086069 
L 431.122094 64.086069 
L 431.333419 64.609537 
L 433.024015 56.389361 
L 433.235339 57.196845 
L 433.341002 56.65933 
L 433.393833 56.928491 
L 433.922144 59.072377 
L 434.080637 58.271334 
L 434.133469 58.538882 
L 434.344793 59.339925 
L 435.824065 52.324408 
L 436.299545 54.776047 
L 436.352376 54.505003 
L 437.514661 48.750045 
L 438.41279 53.422744 
L 438.465621 53.150347 
L 438.518452 53.150347 
L 438.729776 53.695414 
L 440.156217 46.810306 
L 440.209048 47.089316 
L 440.261879 46.810585 
L 440.578866 45.132337 
L 440.631697 45.413025 
L 440.843021 46.532972 
L 440.895853 46.253685 
L 440.948684 46.253685 
L 441.001515 46.533251 
L 441.054346 46.253965 
L 441.107177 45.974398 
L 441.160008 46.254244 
L 442.692111 53.977325 
L 442.797773 53.977325 
L 442.956267 54.520739 
L 443.378916 52.88914 
L 443.748733 54.251341 
L 444.224214 52.344646 
L 444.435538 53.436909 
L 444.488369 53.164525 
L 445.175174 49.874602 
L 445.439329 51.251573 
L 445.492161 50.977004 
L 446.073303 48.493498 
L 447.235588 54.531048 
L 447.446912 53.98847 
L 447.81673 55.885594 
L 447.869561 55.615659 
L 448.345041 53.446442 
L 448.345041 53.446442 
" clip-path="url(#p45eb4cddac)" style="fill: none; stroke: #1f77b4; stroke-width: 1.5; stroke-linecap: square"/>
   </g>
   <g id="patch_3">
    <path d="M 121.5 256.32 
L 121.5 34.56 
" style="fill: none; stroke: #000000; stroke-width: 0.8; stroke-linejoin: miter; stroke-linecap: square"/>
   </g>
   <g id="patch_4">
    <path d="M 463.909091 256.32 
L 463.909091 34.56 
" style="fill: none; stroke: #000000; stroke-width: 0.8; stroke-linejoin: miter; stroke-linecap: square"/>
   </g>
   <g id="patch_5">
    <path d="M 121.5 256.32 
L 463.909091 256.32 
" style="fill: none; stroke: #000000; stroke-width: 0.8; stroke-linejoin: miter; stroke-linecap: square"/>
   </g>
   <g id="patch_6">
    <path d="M 121.5 34.56 
L 463.909091 34.56 
" style="fill: none; stroke: #000000; stroke-width: 0.8; stroke-linejoin: miter; stroke-linecap: square"/>
   </g>
  </g>
  <g id="axes_2">
   <g id="patch_7">
    <path d="M 532.390909 256.32 
L 874.8 256.32 
L 874.8 34.56 
L 532.390909 34.56 
z
" style="fill: #ffffff"/>
   </g>
   <g id="matplotlib.axis_3">
    <g id="xtick_8">
     <g id="line2d_18">
      <g>
       <use xlink:href="#m87b07f8bc6" x="547.954959" y="256.32" style="stroke: #000000; stroke-width: 0.8"/>
      </g>
     </g>
     <g id="text_17">
      <!-- 0 -->
      <g transform="translate(544.773709 270.918437) scale(0.1 -0.1)">
       <use xlink:href="#DejaVuSans-30"/>
      </g>
     </g>
    </g>
    <g id="xtick_9">
     <g id="line2d_19">
      <g>
       <use xlink:href="#m87b07f8bc6" x="600.786084" y="256.32" style="stroke: #000000; stroke-width: 0.8"/>
      </g>
     </g>
     <g id="text_18">
      <!-- 1000 -->
      <g transform="translate(588.061084 270.918437) scale(0.1 -0.1)">
       <use xlink:href="#DejaVuSans-31"/>
       <use xlink:href="#DejaVuSans-30" x="63.623047"/>
       <use xlink:href="#DejaVuSans-30" x="127.246094"/>
       <use xlink:href="#DejaVuSans-30" x="190.869141"/>
      </g>
     </g>
    </g>
    <g id="xtick_10">
     <g id="line2d_20">
      <g>
       <use xlink:href="#m87b07f8bc6" x="653.61721" y="256.32" style="stroke: #000000; stroke-width: 0.8"/>
      </g>
     </g>
     <g id="text_19">
      <!-- 2000 -->
      <g transform="translate(640.89221 270.918437) scale(0.1 -0.1)">
       <use xlink:href="#DejaVuSans-32"/>
       <use xlink:href="#DejaVuSans-30" x="63.623047"/>
       <use xlink:href="#DejaVuSans-30" x="127.246094"/>
       <use xlink:href="#DejaVuSans-30" x="190.869141"/>
      </g>
     </g>
    </g>
    <g id="xtick_11">
     <g id="line2d_21">
      <g>
       <use xlink:href="#m87b07f8bc6" x="706.448335" y="256.32" style="stroke: #000000; stroke-width: 0.8"/>
      </g>
     </g>
     <g id="text_20">
      <!-- 3000 -->
      <g transform="translate(693.723335 270.918437) scale(0.1 -0.1)">
       <use xlink:href="#DejaVuSans-33"/>
       <use xlink:href="#DejaVuSans-30" x="63.623047"/>
       <use xlink:href="#DejaVuSans-30" x="127.246094"/>
       <use xlink:href="#DejaVuSans-30" x="190.869141"/>
      </g>
     </g>
    </g>
    <g id="xtick_12">
     <g id="line2d_22">
      <g>
       <use xlink:href="#m87b07f8bc6" x="759.279461" y="256.32" style="stroke: #000000; stroke-width: 0.8"/>
      </g>
     </g>
     <g id="text_21">
      <!-- 4000 -->
      <g transform="translate(746.554461 270.918437) scale(0.1 -0.1)">
       <use xlink:href="#DejaVuSans-34"/>
       <use xlink:href="#DejaVuSans-30" x="63.623047"/>
       <use xlink:href="#DejaVuSans-30" x="127.246094"/>
       <use xlink:href="#DejaVuSans-30" x="190.869141"/>
      </g>
     </g>
    </g>
    <g id="xtick_13">
     <g id="line2d_23">
      <g>
       <use xlink:href="#m87b07f8bc6" x="812.110586" y="256.32" style="stroke: #000000; stroke-width: 0.8"/>
      </g>
     </g>
     <g id="text_22">
      <!-- 5000 -->
      <g transform="translate(799.385586 270.918437) scale(0.1 -0.1)">
       <use xlink:href="#DejaVuSans-35"/>
       <use xlink:href="#DejaVuSans-30" x="63.623047"/>
       <use xlink:href="#DejaVuSans-30" x="127.246094"/>
       <use xlink:href="#DejaVuSans-30" x="190.869141"/>
      </g>
     </g>
    </g>
    <g id="xtick_14">
     <g id="line2d_24">
      <g>
       <use xlink:href="#m87b07f8bc6" x="864.941712" y="256.32" style="stroke: #000000; stroke-width: 0.8"/>
      </g>
     </g>
     <g id="text_23">
      <!-- 6000 -->
      <g transform="translate(852.216712 270.918437) scale(0.1 -0.1)">
       <use xlink:href="#DejaVuSans-36"/>
       <use xlink:href="#DejaVuSans-30" x="63.623047"/>
       <use xlink:href="#DejaVuSans-30" x="127.246094"/>
       <use xlink:href="#DejaVuSans-30" x="190.869141"/>
      </g>
     </g>
    </g>
   </g>
   <g id="matplotlib.axis_4">
    <g id="ytick_10">
     <g id="line2d_25">
      <g>
       <use xlink:href="#me5ef985a07" x="532.390909" y="222.323624" style="stroke: #000000; stroke-width: 0.8"/>
      </g>
     </g>
     <g id="text_24">
      <!-- −1.2 -->
      <g transform="translate(501.108097 226.122843) scale(0.1 -0.1)">
       <defs>
        <path id="DejaVuSans-2212" d="M 678 2272 
L 4684 2272 
L 4684 1741 
L 678 1741 
L 678 2272 
z
" transform="scale(0.015625)"/>
       </defs>
       <use xlink:href="#DejaVuSans-2212"/>
       <use xlink:href="#DejaVuSans-31" x="83.789062"/>
       <use xlink:href="#DejaVuSans-2e" x="147.412109"/>
       <use xlink:href="#DejaVuSans-32" x="179.199219"/>
      </g>
     </g>
    </g>
    <g id="ytick_11">
     <g id="line2d_26">
      <g>
       <use xlink:href="#me5ef985a07" x="532.390909" y="183.412276" style="stroke: #000000; stroke-width: 0.8"/>
      </g>
     </g>
     <g id="text_25">
      <!-- −1.0 -->
      <g transform="translate(501.108097 187.211494) scale(0.1 -0.1)">
       <use xlink:href="#DejaVuSans-2212"/>
       <use xlink:href="#DejaVuSans-31" x="83.789062"/>
       <use xlink:href="#DejaVuSans-2e" x="147.412109"/>
       <use xlink:href="#DejaVuSans-30" x="179.199219"/>
      </g>
     </g>
    </g>
    <g id="ytick_12">
     <g id="line2d_27">
      <g>
       <use xlink:href="#me5ef985a07" x="532.390909" y="144.500927" style="stroke: #000000; stroke-width: 0.8"/>
      </g>
     </g>
     <g id="text_26">
      <!-- −0.8 -->
      <g transform="translate(501.108097 148.300146) scale(0.1 -0.1)">
       <use xlink:href="#DejaVuSans-2212"/>
       <use xlink:href="#DejaVuSans-30" x="83.789062"/>
       <use xlink:href="#DejaVuSans-2e" x="147.412109"/>
       <use xlink:href="#DejaVuSans-38" x="179.199219"/>
      </g>
     </g>
    </g>
    <g id="ytick_13">
     <g id="line2d_28">
      <g>
       <use xlink:href="#me5ef985a07" x="532.390909" y="105.589579" style="stroke: #000000; stroke-width: 0.8"/>
      </g>
     </g>
     <g id="text_27">
      <!-- −0.6 -->
      <g transform="translate(501.108097 109.388798) scale(0.1 -0.1)">
       <use xlink:href="#DejaVuSans-2212"/>
       <use xlink:href="#DejaVuSans-30" x="83.789062"/>
       <use xlink:href="#DejaVuSans-2e" x="147.412109"/>
       <use xlink:href="#DejaVuSans-36" x="179.199219"/>
      </g>
     </g>
    </g>
    <g id="ytick_14">
     <g id="line2d_29">
      <g>
       <use xlink:href="#me5ef985a07" x="532.390909" y="66.678231" style="stroke: #000000; stroke-width: 0.8"/>
      </g>
     </g>
     <g id="text_28">
      <!-- −0.4 -->
      <g transform="translate(501.108097 70.47745) scale(0.1 -0.1)">
       <use xlink:href="#DejaVuSans-2212"/>
       <use xlink:href="#DejaVuSans-30" x="83.789062"/>
       <use xlink:href="#DejaVuSans-2e" x="147.412109"/>
       <use xlink:href="#DejaVuSans-34" x="179.199219"/>
      </g>
     </g>
    </g>
   </g>
   <g id="line2d_30">
    <path d="M 547.954959 183.606832 
L 548.219114 182.635021 
L 548.271945 182.828801 
L 551.705969 195.849133 
L 555.139992 209.743447 
L 558.574015 224.570408 
L 561.849545 238.888415 
L 561.902376 238.638382 
L 561.955207 238.888165 
L 562.060869 239.138198 
L 562.219363 238.887665 
L 563.223154 243.172386 
L 563.275985 243.172386 
L 563.592972 244.446516 
L 563.804296 243.425685 
L 563.857127 243.680255 
L 564.491101 246.24 
L 566.445853 236.88621 
L 566.604346 237.134241 
L 567.449644 233.436017 
L 567.502475 233.680597 
L 567.555306 233.435772 
L 571.042161 217.807083 
L 574.529015 203.177068 
L 578.0687 189.281285 
L 581.608386 176.286452 
L 585.148071 164.134153 
L 588.687756 152.769763 
L 592.227442 142.142195 
L 595.767127 132.203679 
L 599.359644 122.775483 
L 602.95216 113.967393 
L 606.544677 105.738622 
L 610.190025 97.941872 
L 613.835372 90.665209 
L 617.533551 83.778921 
L 619.38264 80.512466 
L 619.435472 80.604123 
L 619.488303 80.512374 
L 622.446846 75.518235 
L 622.552508 75.431573 
L 622.975157 74.741383 
L 623.027988 74.827269 
L 623.186481 75.085443 
L 623.239313 74.999213 
L 626.092193 70.468616 
L 626.462011 70.95952 
L 628.311101 68.134199 
L 628.469594 68.372273 
L 628.522425 68.292757 
L 630.530008 65.329322 
L 630.582839 65.405796 
L 630.63567 65.329246 
L 631.850786 63.589564 
L 631.903617 63.664298 
L 632.379097 64.264867 
L 634.175356 61.888727 
L 634.281018 61.96176 
L 634.333849 62.034866 
L 634.38668 61.961687 
L 634.809329 61.524072 
L 634.86216 61.596741 
L 634.914991 61.524 
L 635.865952 60.369912 
L 636.024445 60.298398 
L 636.552756 59.72878 
L 636.71125 59.941613 
L 636.764081 59.870527 
L 637.556548 58.882754 
L 637.609379 58.952781 
L 637.66221 58.882684 
L 638.243352 58.254954 
L 638.454677 58.324284 
L 638.718832 58.602576 
L 639.035819 58.185139 
L 639.08865 58.254468 
L 639.405637 58.671904 
L 639.458468 58.602088 
L 640.779246 57.01544 
L 640.884909 56.94728 
L 641.41322 56.404449 
L 641.677375 56.607231 
L 643.31514 54.669627 
L 643.473634 54.867267 
L 643.526465 54.801255 
L 643.579296 54.735309 
L 643.632127 54.801189 
L 643.737789 54.933146 
L 643.79062 54.867069 
L 643.843452 54.801057 
L 643.896283 54.867003 
L 644.107607 55.131445 
L 644.160438 55.065169 
L 644.477425 54.800662 
L 644.68875 55.064838 
L 644.741581 54.998629 
L 644.794412 54.932486 
L 644.847243 54.998563 
L 645.16423 55.396414 
L 645.217061 55.329873 
L 645.322723 55.196991 
L 645.375554 55.263333 
L 645.428385 55.32974 
L 645.481216 55.263266 
L 645.586879 55.130517 
L 645.63971 55.196792 
L 646.11519 55.729384 
L 647.330306 54.208086 
L 647.383137 54.273439 
L 647.700124 54.535503 
L 647.752955 54.469823 
L 647.805786 54.535438 
L 647.858617 54.601117 
L 647.911448 54.535372 
L 648.334097 54.142211 
L 648.386928 54.207498 
L 648.439759 54.142146 
L 648.598253 53.946482 
L 648.651084 54.011573 
L 648.703915 54.076729 
L 648.756746 54.011508 
L 648.91524 53.946352 
L 649.602044 53.10523 
L 649.654875 53.169479 
L 650.024693 53.491628 
L 650.711498 52.656382 
L 650.764329 52.720183 
L 651.028485 52.911905 
L 651.345471 52.656063 
L 651.398303 52.719864 
L 651.451134 52.656 
L 652.613418 51.267029 
L 652.66625 51.329441 
L 652.719081 51.391915 
L 652.771912 51.329378 
L 653.405885 50.645592 
L 653.828534 51.017198 
L 654.462508 51.079049 
L 654.515339 51.141272 
L 654.56817 51.078987 
L 654.673832 50.954602 
L 654.726663 51.016701 
L 655.254975 51.515672 
L 655.307806 51.453011 
L 655.360637 51.515609 
L 656.258766 52.525725 
L 656.311597 52.462054 
L 656.364428 52.525661 
L 656.470091 52.653065 
L 656.522922 52.589267 
L 657.473882 51.514418 
L 657.632375 51.577015 
L 657.738038 51.514293 
L 658.424842 50.704599 
L 658.477673 50.766448 
L 658.900322 51.138781 
L 659.111647 50.890021 
L 659.164478 50.952056 
L 659.322971 50.889959 
L 660.273932 49.78278 
L 660.326763 49.843708 
L 660.379594 49.904696 
L 660.432425 49.843647 
L 660.538087 49.721732 
L 660.590918 49.782598 
L 660.749412 49.843464 
L 660.960736 49.599878 
L 661.013567 49.660622 
L 661.11923 49.782293 
L 661.172061 49.721366 
L 661.700372 49.23608 
L 661.753203 49.296461 
L 661.806034 49.23602 
L 662.440008 48.575145 
L 662.598501 48.754483 
L 662.651332 48.694584 
L 662.756994 48.574966 
L 662.809826 48.634686 
L 663.232475 48.994198 
L 663.443799 49.054277 
L 663.549461 49.174734 
L 663.602293 49.114415 
L 663.760786 48.933819 
L 663.813617 48.993898 
L 663.919279 48.933759 
L 664.024942 48.813663 
L 664.077773 48.873621 
L 664.394759 49.113993 
L 664.553253 48.933399 
L 664.606084 48.993477 
L 664.817408 49.234389 
L 664.87024 49.174011 
L 665.398551 48.573533 
L 665.451382 48.633251 
L 665.557044 48.573473 
L 666.560836 47.448987 
L 666.613667 47.50758 
L 666.719329 47.448928 
L 666.824991 47.3318 
L 666.877822 47.390276 
L 666.983485 47.448811 
L 667.089147 47.566056 
L 667.141978 47.507345 
L 667.458965 47.273031 
L 667.564627 47.331449 
L 667.617458 47.389925 
L 667.670289 47.33139 
L 667.934445 47.039595 
L 667.987276 47.097779 
L 668.304263 47.448108 
L 668.357094 47.389515 
L 668.409925 47.330981 
L 668.462756 47.389457 
L 668.726912 47.447932 
L 669.519379 48.332997 
L 669.57221 48.273519 
L 670.787326 46.979958 
L 670.945819 47.154506 
L 670.99865 47.096207 
L 671.104312 47.037966 
L 671.791117 47.740008 
L 672.636415 46.80489 
L 672.689246 46.862839 
L 673.111895 47.328525 
L 673.164726 47.270052 
L 673.481713 47.036686 
L 673.957193 47.44512 
L 674.27418 47.211054 
L 674.379842 47.327824 
L 674.432673 47.269351 
L 674.538335 47.210937 
L 676.440256 45.146494 
L 676.493087 45.202785 
L 676.915736 45.146268 
L 676.968567 45.089978 
L 677.021398 45.146212 
L 677.232723 45.258793 
L 677.338385 45.315197 
L 677.54971 45.541374 
L 677.602541 45.484688 
L 677.708203 45.371487 
L 677.761034 45.428003 
L 678.606332 46.339983 
L 678.659163 46.282498 
L 679.134643 45.881656 
L 679.187475 45.938683 
L 679.240306 45.881599 
L 679.715786 45.483556 
L 679.768617 45.540184 
L 679.821448 45.483499 
L 680.613915 44.64 
L 680.666746 44.695784 
L 681.142226 45.200362 
L 681.195057 45.144017 
L 681.406382 45.03144 
L 681.723369 45.256481 
L 681.7762 45.20008 
L 681.829031 45.256424 
L 681.881862 45.312825 
L 681.934693 45.256368 
L 681.987524 45.199967 
L 682.040355 45.256312 
L 682.463004 45.652304 
L 682.779991 45.4254 
L 682.991316 45.65202 
L 683.044147 45.595223 
L 683.572458 45.030373 
L 683.625289 45.086547 
L 683.730951 45.142778 
L 683.783782 45.199066 
L 683.836614 45.142722 
L 683.995107 45.199009 
L 684.364925 45.481234 
L 685.157392 44.693607 
L 686.372508 45.878007 
L 686.425339 45.820984 
L 686.47817 45.87795 
L 687.270637 46.739299 
L 687.323468 46.681416 
L 687.693286 46.392806 
L 689.172557 47.848573 
L 689.27822 47.730646 
L 689.331051 47.789521 
L 689.648037 48.084781 
L 689.912193 47.848219 
L 690.546167 48.560038 
L 690.598998 48.500334 
L 690.968816 48.202646 
L 691.127309 48.3214 
L 691.602789 47.847335 
L 691.708451 47.965377 
L 691.761282 47.906267 
L 691.866945 47.965318 
L 691.919776 48.024428 
L 691.972607 47.965259 
L 693.451878 46.447406 
L 693.557541 46.389815 
L 694.138683 45.874015 
L 695.195306 47.025284 
L 695.248137 46.967114 
L 695.40663 46.792954 
L 695.459461 46.850891 
L 695.565123 46.96694 
L 695.617955 46.908828 
L 695.829279 46.676963 
L 695.88211 46.734785 
L 695.987772 46.676905 
L 696.251928 46.445967 
L 696.674577 46.908306 
L 696.727408 46.850253 
L 696.885902 46.908248 
L 697.255719 47.199034 
L 697.995355 46.445103 
L 698.101017 46.56034 
L 698.153849 46.502635 
L 698.20668 46.444988 
L 698.259511 46.502577 
L 698.312342 46.560224 
L 698.365173 46.502519 
L 698.418004 46.444872 
L 698.470835 46.502462 
L 698.576498 46.560109 
L 699.263302 45.814434 
L 699.316133 45.871393 
L 699.580289 46.157043 
L 699.63312 46.099741 
L 699.738782 46.042497 
L 700.055769 45.700232 
L 700.1086 45.757077 
L 700.636912 46.271244 
L 700.795405 46.099169 
L 700.848236 46.156412 
L 701.376547 46.732007 
L 701.429378 46.67413 
L 701.799196 46.270612 
L 701.852027 46.328027 
L 702.010521 46.500617 
L 702.063352 46.442972 
L 702.169014 46.500559 
L 702.221845 46.558204 
L 702.274676 46.500502 
L 702.327508 46.442857 
L 702.380339 46.500444 
L 703.278468 47.371197 
L 703.965272 46.615041 
L 704.018104 46.6728 
L 704.123766 46.788493 
L 704.176597 46.73056 
L 704.969064 45.868485 
L 705.021895 45.925498 
L 705.444544 46.326188 
L 705.603037 46.26866 
L 706.131349 46.78745 
L 706.289842 46.72946 
L 706.923815 47.42778 
L 706.976647 47.369207 
L 707.927607 46.43992 
L 708.0861 46.612846 
L 708.138931 46.555089 
L 708.403087 46.324636 
L 708.455918 46.382105 
L 708.508749 46.324579 
L 708.878567 45.9235 
L 708.931398 45.980568 
L 709.512541 46.554396 
L 709.671034 46.381473 
L 709.723865 46.438999 
L 709.829527 46.496582 
L 709.93519 46.611922 
L 709.988021 46.554165 
L 710.093683 46.438826 
L 710.146514 46.496409 
L 710.516332 46.438653 
L 711.255968 45.694548 
L 711.308799 45.751387 
L 711.36163 45.694491 
L 711.414461 45.637652 
L 711.467292 45.694434 
L 712.048435 45.751045 
L 712.418253 46.036092 
L 712.840902 45.637027 
L 712.893733 45.693809 
L 712.946564 45.63697 
L 713.527706 45.127921 
L 714.003186 45.522954 
L 714.056017 45.466287 
L 714.108849 45.522898 
L 714.214511 45.636289 
L 714.267342 45.579508 
L 714.425835 45.409507 
L 714.478666 45.46606 
L 714.584329 45.579338 
L 714.63716 45.522614 
L 714.689991 45.465947 
L 714.742822 45.522558 
L 714.795653 45.579225 
L 714.848484 45.522501 
L 714.901315 45.465834 
L 714.954147 45.522444 
L 715.059809 45.579111 
L 715.218302 45.749452 
L 715.271133 45.692558 
L 715.640951 45.408884 
L 715.799445 45.465381 
L 716.0636 45.521934 
L 716.803236 46.320441 
L 716.856067 46.262976 
L 716.908898 46.205569 
L 716.961729 46.262919 
L 717.225885 46.205454 
L 717.595703 45.805207 
L 717.648534 45.862157 
L 717.701365 45.919163 
L 717.754196 45.8621 
L 717.807027 45.805093 
L 717.859858 45.862043 
L 718.018352 46.033233 
L 718.071183 45.976056 
L 718.282507 45.861815 
L 718.38817 45.804808 
L 718.546663 45.634131 
L 718.599494 45.69091 
L 718.757988 45.747689 
L 718.916481 45.69074 
L 718.969312 45.747575 
L 719.022143 45.690683 
L 719.180637 45.520348 
L 719.233468 45.577013 
L 719.497623 45.74729 
L 719.603286 45.690399 
L 720.184428 45.068332 
L 720.237259 45.124544 
L 720.29009 45.180813 
L 720.342921 45.124488 
L 720.501415 44.95585 
L 720.554246 45.01195 
L 721.135388 45.519328 
L 721.822193 44.899133 
L 721.875024 44.955177 
L 721.927855 44.899077 
L 722.033517 44.787046 
L 722.086348 44.842978 
L 722.508997 45.292448 
L 722.561829 45.236011 
L 722.825984 45.066982 
L 723.09014 45.235729 
L 723.195802 45.292109 
L 723.248633 45.348546 
L 723.301464 45.292053 
L 723.459958 45.122913 
L 723.512789 45.17918 
L 723.671282 45.291884 
L 723.882607 45.122744 
L 724.199594 45.34815 
L 724.305256 45.404643 
L 724.358087 45.461192 
L 724.410918 45.404587 
L 725.097723 44.785592 
L 725.203385 44.841522 
L 725.784527 45.347416 
L 725.89019 45.290924 
L 725.943021 45.234489 
L 725.995852 45.290868 
L 726.84115 46.086061 
L 726.893981 46.028831 
L 726.946812 46.086004 
L 727.263799 46.315212 
L 727.527954 46.028488 
L 727.580786 46.085661 
L 727.739279 46.257523 
L 727.79211 46.200121 
L 727.844941 46.142776 
L 727.897772 46.200064 
L 728.056266 46.372269 
L 728.109097 46.314753 
L 728.161928 46.257293 
L 728.214759 46.314695 
L 728.531746 46.602566 
L 728.584577 46.544819 
L 728.637408 46.602508 
L 728.690239 46.660255 
L 728.74307 46.602451 
L 728.795901 46.544704 
L 728.848733 46.602393 
L 729.271382 47.065988 
L 729.324213 47.007777 
L 729.377044 46.949625 
L 729.429875 47.007719 
L 729.799693 47.299004 
L 730.222342 47.240385 
L 730.380835 47.065406 
L 730.433666 47.123616 
L 730.59216 47.065347 
L 731.014809 46.659099 
L 731.331795 47.006789 
L 731.384627 46.948638 
L 731.701613 46.600949 
L 731.754444 46.658695 
L 731.860107 46.716498 
L 732.282756 47.064474 
L 732.335587 47.006265 
L 732.388418 47.064416 
L 732.652574 47.297601 
L 733.022391 47.005917 
L 733.075223 47.064067 
L 733.128054 47.005858 
L 733.497872 46.715688 
L 733.603534 46.657828 
L 734.079014 46.139683 
L 734.131845 46.196967 
L 734.34317 46.426677 
L 734.396001 46.369106 
L 734.501663 46.311592 
L 734.977143 45.910605 
L 735.76961 46.772447 
L 735.822441 46.71453 
L 736.033766 46.772332 
L 736.456415 47.120644 
L 736.509246 47.062379 
L 736.562077 47.120586 
L 736.773401 47.295556 
L 736.826233 47.237116 
L 736.879064 47.295497 
L 737.143219 47.588282 
L 737.19605 47.529549 
L 737.724362 47.061739 
L 738.411166 47.705218 
L 739.256464 46.770652 
L 739.309295 46.828567 
L 739.362127 46.88654 
L 739.414958 46.828509 
L 739.626282 46.712563 
L 739.9961 47.11878 
L 740.048931 47.060516 
L 740.101762 47.002311 
L 740.154593 47.060458 
L 740.418749 47.352065 
L 740.47158 47.293569 
L 740.788567 46.943816 
L 740.841398 47.001904 
L 740.94706 47.060051 
L 741.316878 46.769552 
L 741.475372 46.943467 
L 741.528203 46.88538 
L 741.898021 46.595752 
L 742.584825 47.234022 
L 742.637656 47.175643 
L 742.690487 47.233963 
L 743.324461 47.879346 
L 743.905603 47.350193 
L 744.011266 47.408688 
L 744.064097 47.467241 
L 744.116928 47.40863 
L 744.328252 47.174768 
L 744.381083 47.233087 
L 744.486746 47.291465 
L 744.592408 47.174652 
L 744.645239 47.232971 
L 745.226381 47.760415 
L 745.279213 47.70151 
L 745.332044 47.760356 
L 745.596199 47.996329 
L 745.701862 47.878107 
L 745.754693 47.937129 
L 745.807524 47.996211 
L 745.860355 47.93707 
L 745.966017 47.818966 
L 746.018848 47.87793 
L 746.177342 48.055174 
L 746.230173 47.995974 
L 746.283004 47.936834 
L 746.335835 47.995915 
L 746.388666 48.055056 
L 746.441497 47.995856 
L 746.705653 47.700745 
L 746.758484 47.759591 
L 746.864146 47.877458 
L 746.916977 47.818436 
L 747.339627 47.34838 
L 747.392458 47.406873 
L 747.49812 47.465424 
L 747.656613 47.524034 
L 747.920769 47.348146 
L 748.026431 47.406639 
L 748.343418 47.758825 
L 748.396249 47.699922 
L 748.607574 47.758707 
L 748.871729 48.053813 
L 748.92456 47.994614 
L 749.664196 47.288777 
L 749.875521 47.405643 
L 749.928352 47.347093 
L 749.981183 47.405585 
L 750.086845 47.522744 
L 750.139676 47.464076 
L 750.562325 47.522509 
L 750.879312 47.875392 
L 750.932143 47.816372 
L 751.354792 47.404882 
L 751.671779 47.757058 
L 751.72461 47.698156 
L 751.883103 47.521805 
L 751.935934 47.580471 
L 751.988766 47.639196 
L 752.041597 47.580412 
L 752.358583 47.345807 
L 752.67557 47.580119 
L 752.781232 47.462728 
L 752.834064 47.521336 
L 753.045388 47.756351 
L 753.098219 47.69745 
L 753.203881 47.756292 
L 753.520868 48.051385 
L 753.62653 47.933053 
L 753.679362 47.99213 
L 753.837855 48.051208 
L 753.943517 48.110404 
L 754.154842 48.228913 
L 754.260504 48.16954 
L 754.52466 47.991717 
L 754.630322 48.110048 
L 754.683153 48.050793 
L 755.052971 47.696509 
L 755.105802 47.75535 
L 755.158633 47.69645 
L 755.422789 47.402833 
L 755.47562 47.46138 
L 755.898269 47.813837 
L 756.637905 47.051961 
L 757.060554 47.519165 
L 757.113385 47.460501 
L 757.641696 46.993241 
L 757.85302 46.935045 
L 758.117176 46.645228 
L 758.170007 46.703018 
L 758.592656 47.050913 
L 758.856812 46.760518 
L 758.909643 46.818423 
L 759.385123 47.225324 
L 759.543617 47.283694 
L 759.596448 47.342122 
L 759.649279 47.283635 
L 759.807772 47.166837 
L 760.124759 47.400374 
L 760.547408 47.458802 
L 760.758732 47.693567 
L 760.811564 47.634729 
L 760.864395 47.575949 
L 760.917226 47.63467 
L 761.022888 47.752287 
L 761.075719 47.69339 
L 761.709693 47.107594 
L 761.815355 47.165846 
L 762.185173 46.758896 
L 762.238004 46.8168 
L 762.290835 46.874761 
L 762.343666 46.816742 
L 762.449328 46.700877 
L 762.50216 46.758723 
L 762.819146 47.107012 
L 762.871977 47.04876 
L 762.97764 46.932432 
L 763.030471 46.990509 
L 763.136133 47.106837 
L 763.188964 47.048585 
L 764.034262 46.124447 
L 764.087093 46.181716 
L 764.932391 47.047654 
L 764.985222 46.989462 
L 765.038054 47.047596 
L 765.35504 47.339139 
L 767.045636 45.609779 
L 767.309792 45.666476 
L 767.943765 46.29453 
L 767.996597 46.237091 
L 768.049428 46.294473 
L 768.524908 46.755596 
L 768.63057 46.639854 
L 768.683401 46.697638 
L 768.736232 46.75548 
L 768.789063 46.69758 
L 769.10605 46.408948 
L 769.475868 46.813032 
L 769.528699 46.755075 
L 769.740024 46.523824 
L 769.792855 46.581492 
L 770.479659 47.278026 
L 770.532491 47.219604 
L 770.585322 47.277968 
L 770.743815 47.336332 
L 771.589113 46.522844 
L 772.011762 46.9858 
L 772.064593 46.92767 
L 772.170256 46.869598 
L 772.540073 46.464715 
L 772.592905 46.522325 
L 772.645736 46.579991 
L 772.698567 46.522267 
L 773.226878 45.948188 
L 773.279709 46.00528 
L 773.33254 46.06243 
L 773.385371 46.005223 
L 773.596696 45.776967 
L 773.649527 45.833889 
L 773.755189 45.77691 
L 773.860852 45.663124 
L 773.913683 45.719932 
L 773.966514 45.776796 
L 774.019345 45.719875 
L 774.230669 45.549453 
L 774.600487 45.833433 
L 775.023136 45.492362 
L 775.075967 45.548999 
L 775.128799 45.492306 
L 775.18163 45.435669 
L 775.234461 45.492249 
L 775.340123 45.548886 
L 775.762772 45.209518 
L 776.026928 45.378693 
L 776.185421 45.322113 
L 777.08355 46.175009 
L 777.981679 45.321153 
L 778.562822 45.94539 
L 778.615653 45.8883 
L 778.93264 45.546958 
L 778.985471 45.60365 
L 779.566613 46.11643 
L 780.200587 45.433066 
L 780.253418 45.489644 
L 780.570404 45.830299 
L 780.623236 45.773324 
L 780.728898 45.659546 
L 780.781729 45.71635 
L 780.887391 45.77321 
L 781.098716 45.944134 
L 781.204378 45.830014 
L 781.257209 45.886989 
L 781.468534 46.115457 
L 781.521365 46.058197 
L 781.891183 45.715838 
L 782.102507 45.886589 
L 782.155338 45.829558 
L 782.208169 45.886532 
L 782.947805 46.574681 
L 783.000636 46.516962 
L 783.053467 46.574623 
L 783.15913 46.690119 
L 783.211961 46.632285 
L 783.370454 46.57445 
L 783.63461 46.863622 
L 783.687441 46.805614 
L 783.898765 46.689714 
L 784.004428 46.80544 
L 784.057259 46.747491 
L 784.427077 46.401006 
L 784.744063 46.631476 
L 784.796895 46.5737 
L 784.849726 46.631418 
L 785.166712 46.978941 
L 785.219544 46.920818 
L 785.53653 46.631071 
L 785.589361 46.688847 
L 785.642193 46.631013 
L 785.747855 46.51552 
L 785.800686 46.57318 
L 786.117673 46.862346 
L 786.170504 46.804339 
L 786.223335 46.862288 
L 786.328997 46.920295 
L 786.540322 47.036483 
L 786.857308 46.80405 
L 786.91014 46.861998 
L 786.962971 46.803992 
L 787.279957 46.457169 
L 787.332789 46.514771 
L 787.438451 46.630147 
L 787.491282 46.572372 
L 787.544113 46.514655 
L 787.596944 46.572314 
L 788.072424 46.977488 
L 788.178087 46.919366 
L 788.706398 46.398877 
L 789.393202 47.093208 
L 789.498865 47.03497 
L 789.604527 47.151387 
L 789.657358 47.093091 
L 790.185669 46.628818 
L 790.2385 46.686591 
L 790.291332 46.62876 
L 790.819643 46.168132 
L 791.083798 46.340241 
L 791.189461 46.282757 
L 791.770603 45.767917 
L 791.876265 45.881799 
L 791.929096 45.824773 
L 792.827226 44.97619 
L 792.932888 45.088487 
L 792.985719 45.032255 
L 793.144212 44.863893 
L 793.197043 44.919901 
L 793.461199 45.200784 
L 793.51403 45.144439 
L 793.619692 45.200728 
L 793.672524 45.257073 
L 793.725355 45.200672 
L 793.778186 45.144326 
L 793.831017 45.200615 
L 794.46499 45.766551 
L 795.046133 45.256396 
L 795.151795 45.369254 
L 795.204626 45.312741 
L 795.310288 45.199883 
L 795.36312 45.256227 
L 795.521613 45.425598 
L 795.574444 45.369028 
L 795.732938 45.312515 
L 795.997093 45.481999 
L 796.208418 45.538568 
L 796.261249 45.595251 
L 796.31408 45.538512 
L 796.631067 45.31212 
L 796.736729 45.425089 
L 796.78956 45.36852 
L 796.842391 45.312007 
L 796.895222 45.368463 
L 797.899014 46.33685 
L 798.004676 46.221945 
L 798.057507 46.279311 
L 798.321663 46.509351 
L 799.061298 45.821241 
L 799.166961 45.878206 
L 799.378285 46.106639 
L 799.431116 46.049388 
L 799.800934 45.65023 
L 799.853765 45.707025 
L 800.223583 45.991795 
L 800.54057 45.649833 
L 800.593401 45.706627 
L 800.963219 45.991395 
L 801.227375 45.706286 
L 801.280206 45.763137 
L 802.548153 46.970223 
L 802.812308 46.68023 
L 802.865139 46.738055 
L 803.657606 47.612397 
L 803.710437 47.55364 
L 803.763269 47.494942 
L 803.8161 47.553581 
L 804.133086 47.847659 
L 804.397242 47.670801 
L 804.502904 47.78849 
L 804.555735 47.729557 
L 804.819891 47.553112 
L 805.453865 48.202023 
L 805.71802 48.024102 
L 805.823682 48.083271 
L 806.087838 47.905706 
L 806.1935 47.964757 
L 806.246331 48.023866 
L 806.299163 47.964697 
L 806.351994 47.905588 
L 806.404825 47.964638 
L 806.774643 48.320181 
L 807.514279 47.493065 
L 807.56711 47.551703 
L 807.619941 47.610399 
L 807.672772 47.551644 
L 807.831265 47.375732 
L 807.884096 47.434252 
L 808.095421 47.668919 
L 808.148252 47.610105 
L 808.359577 47.375439 
L 808.412408 47.433959 
L 809.099212 48.081494 
L 809.257706 48.022268 
L 809.521861 48.25929 
L 810.472822 47.199063 
L 810.525653 47.257407 
L 810.684146 47.432788 
L 810.736977 47.37421 
L 811.001133 47.082202 
L 811.053964 47.140428 
L 811.265288 47.373918 
L 811.31812 47.315399 
L 811.529444 47.256881 
L 811.687937 47.081852 
L 811.740769 47.140079 
L 814.171 49.760455 
L 815.597441 48.137222 
L 815.650272 48.196504 
L 815.914427 48.374705 
L 816.389908 47.959319 
L 816.654063 48.136748 
L 816.759725 48.077467 
L 816.865388 48.19597 
L 816.918219 48.13663 
L 818.133335 46.904039 
L 818.555984 46.845817 
L 818.608815 46.787826 
L 818.661646 46.845759 
L 819.137126 47.252852 
L 819.242788 47.194454 
L 819.7711 46.729315 
L 819.982424 46.671384 
L 820.774891 45.81019 
L 820.827722 45.867145 
L 820.933384 45.981225 
L 820.986216 45.9241 
L 821.091878 45.981168 
L 821.250371 46.152717 
L 821.303202 46.095419 
L 821.356033 46.038179 
L 821.408865 46.095362 
L 821.67302 46.382134 
L 821.725851 46.324608 
L 821.937176 46.267081 
L 822.1485 46.037779 
L 822.201331 46.094961 
L 822.306994 46.152201 
L 823.574941 47.367481 
L 823.786265 47.133784 
L 823.839096 47.192062 
L 824.050421 47.425759 
L 824.103252 47.367189 
L 824.684394 46.726769 
L 824.737225 46.78464 
L 825.054212 47.016646 
L 825.265537 46.842337 
L 825.42403 47.016472 
L 825.476861 46.958311 
L 825.952341 46.437473 
L 826.005172 46.495055 
L 826.269328 46.783829 
L 826.322159 46.725901 
L 826.480653 46.610218 
L 826.744808 46.89957 
L 826.797639 46.841526 
L 826.85047 46.78354 
L 826.903302 46.841468 
L 827.273119 47.131919 
L 827.378782 47.073643 
L 827.484444 47.015425 
L 827.7486 47.306806 
L 827.801431 47.248355 
L 828.276911 46.724917 
L 828.329742 46.782786 
L 828.488235 46.840656 
L 828.541066 46.782671 
L 828.593898 46.840598 
L 829.069378 47.364556 
L 829.122209 47.306047 
L 829.386364 47.072595 
L 829.65052 47.247363 
L 829.809013 47.072362 
L 829.861845 47.130579 
L 830.60148 47.892717 
L 830.812805 47.656922 
L 830.865636 47.715723 
L 831.658103 48.604833 
L 831.710934 48.545084 
L 831.816596 48.485395 
L 832.133583 48.784141 
L 832.186414 48.724212 
L 832.239245 48.784081 
L 832.714725 49.3256 
L 832.767557 49.26513 
L 832.820388 49.204721 
L 832.873219 49.26507 
L 833.348699 49.810935 
L 833.40153 49.74998 
L 833.612855 49.506767 
L 833.665686 49.567419 
L 833.824179 49.749736 
L 833.87701 49.688842 
L 833.929841 49.628009 
L 833.982672 49.688781 
L 834.088335 49.810509 
L 834.141166 49.749554 
L 834.458153 49.506282 
L 834.563815 49.627644 
L 834.616646 49.566872 
L 834.722308 49.506161 
L 836.043086 48.067163 
L 836.360073 48.363814 
L 836.729891 48.007656 
L 837.099709 48.303949 
L 837.205371 48.363398 
L 837.311033 48.482473 
L 837.363864 48.422846 
L 837.469527 48.303771 
L 837.522358 48.363219 
L 838.156331 48.960921 
L 838.737474 48.362564 
L 839.265785 48.84023 
L 839.477109 48.780186 
L 839.529941 48.720261 
L 839.582772 48.780126 
L 839.688434 48.900035 
L 839.741265 48.83999 
L 839.899758 48.660217 
L 839.95259 48.720021 
L 841.696017 50.727487 
L 841.748848 50.665615 
L 842.013003 50.480309 
L 842.224328 50.418622 
L 843.914924 48.538519 
L 843.967755 48.598202 
L 844.020586 48.538459 
L 844.126249 48.478776 
L 844.284742 48.300085 
L 844.337573 48.35953 
L 844.443235 48.419034 
L 844.813053 48.837231 
L 844.865884 48.777249 
L 844.971547 48.657466 
L 845.024378 48.717268 
L 845.182871 48.897033 
L 845.235702 48.836991 
L 846.662143 47.238371 
L 846.714974 47.296754 
L 847.190454 47.707072 
L 847.507441 47.413402 
L 847.560272 47.47196 
L 847.613103 47.413343 
L 847.771596 47.237845 
L 847.824427 47.296228 
L 847.93009 47.413168 
L 847.982921 47.35461 
L 848.088583 47.296111 
L 848.511232 46.830219 
L 848.564063 46.888194 
L 849.35653 47.647103 
L 849.409361 47.588311 
L 849.462192 47.647044 
L 849.620686 47.764686 
L 849.83201 47.646868 
L 849.884841 47.705659 
L 849.937672 47.646809 
L 850.835801 46.771028 
L 851.099957 47.003038 
L 851.575437 46.597167 
L 851.892424 46.828422 
L 851.998086 46.712534 
L 852.050917 46.770391 
L 853.58302 48.295092 
L 853.635851 48.235652 
L 853.688682 48.295033 
L 853.794344 48.413971 
L 853.847176 48.354413 
L 853.952838 48.294914 
L 854.164162 48.057513 
L 854.216993 48.116715 
L 854.850967 48.712 
L 855.062291 48.472933 
L 855.115123 48.532551 
L 855.220785 48.651964 
L 855.273616 48.592168 
L 856.066083 47.820175 
L 856.38307 48.115589 
L 856.805719 47.760857 
L 857.017043 47.819703 
L 858.707639 49.55376 
L 858.866133 49.493062 
L 859.23595 49.06987 
L 859.23595 49.06987 
" clip-path="url(#p2d3e39b6e0)" style="fill: none; stroke: #1f77b4; stroke-width: 1.5; stroke-linecap: square"/>
   </g>
   <g id="patch_8">
    <path d="M 532.390909 256.32 
L 532.390909 34.56 
" style="fill: none; stroke: #000000; stroke-width: 0.8; stroke-linejoin: miter; stroke-linecap: square"/>
   </g>
   <g id="patch_9">
    <path d="M 874.8 256.32 
L 874.8 34.56 
" style="fill: none; stroke: #000000; stroke-width: 0.8; stroke-linejoin: miter; stroke-linecap: square"/>
   </g>
   <g id="patch_10">
    <path d="M 532.390909 256.32 
L 874.8 256.32 
" style="fill: none; stroke: #000000; stroke-width: 0.8; stroke-linejoin: miter; stroke-linecap: square"/>
   </g>
   <g id="patch_11">
    <path d="M 532.390909 34.56 
L 874.8 34.56 
" style="fill: none; stroke: #000000; stroke-width: 0.8; stroke-linejoin: miter; stroke-linecap: square"/>
   </g>
  </g>
 </g>
 <defs>
  <clipPath id="p45eb4cddac">
   <rect x="121.5" y="34.56" width="342.409091" height="221.76"/>
  </clipPath>
  <clipPath id="p2d3e39b6e0">
   <rect x="532.390909" y="34.56" width="342.409091" height="221.76"/>
  </clipPath>
 </defs>
</svg>
