<?xml version="1.0" encoding="utf-8" standalone="no"?>
<!DOCTYPE svg PUBLIC "-//W3C//DTD SVG 1.1//EN"
  "http://www.w3.org/Graphics/SVG/1.1/DTD/svg11.dtd">
<svg xmlns:xlink="http://www.w3.org/1999/xlink" width="972pt" height="288pt" viewBox="0 0 972 288" xmlns="http://www.w3.org/2000/svg" version="1.1">
 <metadata>
  <rdf:RDF xmlns:dc="http://purl.org/dc/elements/1.1/" xmlns:cc="http://creativecommons.org/ns#" xmlns:rdf="http://www.w3.org/1999/02/22-rdf-syntax-ns#">
   <cc:Work>
    <dc:type rdf:resource="http://purl.org/dc/dcmitype/StillImage"/>
    <dc:date>2024-10-30T22:10:17.430420</dc:date>
    <dc:format>image/svg+xml</dc:format>
    <dc:creator>
     <cc:Agent>
      <dc:title>Matplotlib v3.7.2, https://matplotlib.org/</dc:title>
     </cc:Agent>
    </dc:creator>
   </cc:Work>
  </rdf:RDF>
 </metadata>
 <defs>
  <style type="text/css">*{stroke-linejoin: round; stroke-linecap: butt}</style>
 </defs>
 <g id="figure_1">
  <g id="patch_1">
   <path d="M 0 288 
L 972 288 
L 972 0 
L 0 0 
z
" style="fill: #ffffff"/>
  </g>
  <g id="axes_1">
   <g id="patch_2">
    <path d="M 121.5 256.32 
L 463.909091 256.32 
L 463.909091 34.56 
L 121.5 34.56 
z
" style="fill: #ffffff"/>
   </g>
   <g id="matplotlib.axis_1">
    <g id="xtick_1">
     <g id="line2d_1">
      <defs>
       <path id="m21a6795f02" d="M 0 0 
L 0 3.5 
" style="stroke: #000000; stroke-width: 0.8"/>
      </defs>
      <g>
       <use xlink:href="#m21a6795f02" x="137.06405" y="256.32" style="stroke: #000000; stroke-width: 0.8"/>
      </g>
     </g>
     <g id="text_1">
      <!-- 0 -->
      <g transform="translate(133.8828 270.918437) scale(0.1 -0.1)">
       <defs>
        <path id="DejaVuSans-30" d="M 2034 4250 
Q 1547 4250 1301 3770 
Q 1056 3291 1056 2328 
Q 1056 1369 1301 889 
Q 1547 409 2034 409 
Q 2525 409 2770 889 
Q 3016 1369 3016 2328 
Q 3016 3291 2770 3770 
Q 2525 4250 2034 4250 
z
M 2034 4750 
Q 2819 4750 3233 4129 
Q 3647 3509 3647 2328 
Q 3647 1150 3233 529 
Q 2819 -91 2034 -91 
Q 1250 -91 836 529 
Q 422 1150 422 2328 
Q 422 3509 836 4129 
Q 1250 4750 2034 4750 
z
" transform="scale(0.015625)"/>
       </defs>
       <use xlink:href="#DejaVuSans-30"/>
      </g>
     </g>
    </g>
    <g id="xtick_2">
     <g id="line2d_2">
      <g>
       <use xlink:href="#m21a6795f02" x="188.102087" y="256.32" style="stroke: #000000; stroke-width: 0.8"/>
      </g>
     </g>
     <g id="text_2">
      <!-- 1000 -->
      <g transform="translate(175.377087 270.918437) scale(0.1 -0.1)">
       <defs>
        <path id="DejaVuSans-31" d="M 794 531 
L 1825 531 
L 1825 4091 
L 703 3866 
L 703 4441 
L 1819 4666 
L 2450 4666 
L 2450 531 
L 3481 531 
L 3481 0 
L 794 0 
L 794 531 
z
" transform="scale(0.015625)"/>
       </defs>
       <use xlink:href="#DejaVuSans-31"/>
       <use xlink:href="#DejaVuSans-30" x="63.623047"/>
       <use xlink:href="#DejaVuSans-30" x="127.246094"/>
       <use xlink:href="#DejaVuSans-30" x="190.869141"/>
      </g>
     </g>
    </g>
    <g id="xtick_3">
     <g id="line2d_3">
      <g>
       <use xlink:href="#m21a6795f02" x="239.140125" y="256.32" style="stroke: #000000; stroke-width: 0.8"/>
      </g>
     </g>
     <g id="text_3">
      <!-- 2000 -->
      <g transform="translate(226.415125 270.918437) scale(0.1 -0.1)">
       <defs>
        <path id="DejaVuSans-32" d="M 1228 531 
L 3431 531 
L 3431 0 
L 469 0 
L 469 531 
Q 828 903 1448 1529 
Q 2069 2156 2228 2338 
Q 2531 2678 2651 2914 
Q 2772 3150 2772 3378 
Q 2772 3750 2511 3984 
Q 2250 4219 1831 4219 
Q 1534 4219 1204 4116 
Q 875 4013 500 3803 
L 500 4441 
Q 881 4594 1212 4672 
Q 1544 4750 1819 4750 
Q 2544 4750 2975 4387 
Q 3406 4025 3406 3419 
Q 3406 3131 3298 2873 
Q 3191 2616 2906 2266 
Q 2828 2175 2409 1742 
Q 1991 1309 1228 531 
z
" transform="scale(0.015625)"/>
       </defs>
       <use xlink:href="#DejaVuSans-32"/>
       <use xlink:href="#DejaVuSans-30" x="63.623047"/>
       <use xlink:href="#DejaVuSans-30" x="127.246094"/>
       <use xlink:href="#DejaVuSans-30" x="190.869141"/>
      </g>
     </g>
    </g>
    <g id="xtick_4">
     <g id="line2d_4">
      <g>
       <use xlink:href="#m21a6795f02" x="290.178163" y="256.32" style="stroke: #000000; stroke-width: 0.8"/>
      </g>
     </g>
     <g id="text_4">
      <!-- 3000 -->
      <g transform="translate(277.453163 270.918437) scale(0.1 -0.1)">
       <defs>
        <path id="DejaVuSans-33" d="M 2597 2516 
Q 3050 2419 3304 2112 
Q 3559 1806 3559 1356 
Q 3559 666 3084 287 
Q 2609 -91 1734 -91 
Q 1441 -91 1130 -33 
Q 819 25 488 141 
L 488 750 
Q 750 597 1062 519 
Q 1375 441 1716 441 
Q 2309 441 2620 675 
Q 2931 909 2931 1356 
Q 2931 1769 2642 2001 
Q 2353 2234 1838 2234 
L 1294 2234 
L 1294 2753 
L 1863 2753 
Q 2328 2753 2575 2939 
Q 2822 3125 2822 3475 
Q 2822 3834 2567 4026 
Q 2313 4219 1838 4219 
Q 1578 4219 1281 4162 
Q 984 4106 628 3988 
L 628 4550 
Q 988 4650 1302 4700 
Q 1616 4750 1894 4750 
Q 2613 4750 3031 4423 
Q 3450 4097 3450 3541 
Q 3450 3153 3228 2886 
Q 3006 2619 2597 2516 
z
" transform="scale(0.015625)"/>
       </defs>
       <use xlink:href="#DejaVuSans-33"/>
       <use xlink:href="#DejaVuSans-30" x="63.623047"/>
       <use xlink:href="#DejaVuSans-30" x="127.246094"/>
       <use xlink:href="#DejaVuSans-30" x="190.869141"/>
      </g>
     </g>
    </g>
    <g id="xtick_5">
     <g id="line2d_5">
      <g>
       <use xlink:href="#m21a6795f02" x="341.2162" y="256.32" style="stroke: #000000; stroke-width: 0.8"/>
      </g>
     </g>
     <g id="text_5">
      <!-- 4000 -->
      <g transform="translate(328.4912 270.918437) scale(0.1 -0.1)">
       <defs>
        <path id="DejaVuSans-34" d="M 2419 4116 
L 825 1625 
L 2419 1625 
L 2419 4116 
z
M 2253 4666 
L 3047 4666 
L 3047 1625 
L 3713 1625 
L 3713 1100 
L 3047 1100 
L 3047 0 
L 2419 0 
L 2419 1100 
L 313 1100 
L 313 1709 
L 2253 4666 
z
" transform="scale(0.015625)"/>
       </defs>
       <use xlink:href="#DejaVuSans-34"/>
       <use xlink:href="#DejaVuSans-30" x="63.623047"/>
       <use xlink:href="#DejaVuSans-30" x="127.246094"/>
       <use xlink:href="#DejaVuSans-30" x="190.869141"/>
      </g>
     </g>
    </g>
    <g id="xtick_6">
     <g id="line2d_6">
      <g>
       <use xlink:href="#m21a6795f02" x="392.254238" y="256.32" style="stroke: #000000; stroke-width: 0.8"/>
      </g>
     </g>
     <g id="text_6">
      <!-- 5000 -->
      <g transform="translate(379.529238 270.918437) scale(0.1 -0.1)">
       <defs>
        <path id="DejaVuSans-35" d="M 691 4666 
L 3169 4666 
L 3169 4134 
L 1269 4134 
L 1269 2991 
Q 1406 3038 1543 3061 
Q 1681 3084 1819 3084 
Q 2600 3084 3056 2656 
Q 3513 2228 3513 1497 
Q 3513 744 3044 326 
Q 2575 -91 1722 -91 
Q 1428 -91 1123 -41 
Q 819 9 494 109 
L 494 744 
Q 775 591 1075 516 
Q 1375 441 1709 441 
Q 2250 441 2565 725 
Q 2881 1009 2881 1497 
Q 2881 1984 2565 2268 
Q 2250 2553 1709 2553 
Q 1456 2553 1204 2497 
Q 953 2441 691 2322 
L 691 4666 
z
" transform="scale(0.015625)"/>
       </defs>
       <use xlink:href="#DejaVuSans-35"/>
       <use xlink:href="#DejaVuSans-30" x="63.623047"/>
       <use xlink:href="#DejaVuSans-30" x="127.246094"/>
       <use xlink:href="#DejaVuSans-30" x="190.869141"/>
      </g>
     </g>
    </g>
    <g id="xtick_7">
     <g id="line2d_7">
      <g>
       <use xlink:href="#m21a6795f02" x="443.292276" y="256.32" style="stroke: #000000; stroke-width: 0.8"/>
      </g>
     </g>
     <g id="text_7">
      <!-- 6000 -->
      <g transform="translate(430.567276 270.918437) scale(0.1 -0.1)">
       <defs>
        <path id="DejaVuSans-36" d="M 2113 2584 
Q 1688 2584 1439 2293 
Q 1191 2003 1191 1497 
Q 1191 994 1439 701 
Q 1688 409 2113 409 
Q 2538 409 2786 701 
Q 3034 994 3034 1497 
Q 3034 2003 2786 2293 
Q 2538 2584 2113 2584 
z
M 3366 4563 
L 3366 3988 
Q 3128 4100 2886 4159 
Q 2644 4219 2406 4219 
Q 1781 4219 1451 3797 
Q 1122 3375 1075 2522 
Q 1259 2794 1537 2939 
Q 1816 3084 2150 3084 
Q 2853 3084 3261 2657 
Q 3669 2231 3669 1497 
Q 3669 778 3244 343 
Q 2819 -91 2113 -91 
Q 1303 -91 875 529 
Q 447 1150 447 2328 
Q 447 3434 972 4092 
Q 1497 4750 2381 4750 
Q 2619 4750 2861 4703 
Q 3103 4656 3366 4563 
z
" transform="scale(0.015625)"/>
       </defs>
       <use xlink:href="#DejaVuSans-36"/>
       <use xlink:href="#DejaVuSans-30" x="63.623047"/>
       <use xlink:href="#DejaVuSans-30" x="127.246094"/>
       <use xlink:href="#DejaVuSans-30" x="190.869141"/>
      </g>
     </g>
    </g>
   </g>
   <g id="matplotlib.axis_2">
    <g id="ytick_1">
     <g id="line2d_8">
      <defs>
       <path id="m9fad6f7195" d="M 0 0 
L -3.5 0 
" style="stroke: #000000; stroke-width: 0.8"/>
      </defs>
      <g>
       <use xlink:href="#m9fad6f7195" x="121.5" y="246.731796" style="stroke: #000000; stroke-width: 0.8"/>
      </g>
     </g>
     <g id="text_8">
      <!-- −7 -->
      <g transform="translate(99.757812 250.531015) scale(0.1 -0.1)">
       <defs>
        <path id="DejaVuSans-2212" d="M 678 2272 
L 4684 2272 
L 4684 1741 
L 678 1741 
L 678 2272 
z
" transform="scale(0.015625)"/>
        <path id="DejaVuSans-37" d="M 525 4666 
L 3525 4666 
L 3525 4397 
L 1831 0 
L 1172 0 
L 2766 4134 
L 525 4134 
L 525 4666 
z
" transform="scale(0.015625)"/>
       </defs>
       <use xlink:href="#DejaVuSans-2212"/>
       <use xlink:href="#DejaVuSans-37" x="83.789062"/>
      </g>
     </g>
    </g>
    <g id="ytick_2">
     <g id="line2d_9">
      <g>
       <use xlink:href="#m9fad6f7195" x="121.5" y="206.297263" style="stroke: #000000; stroke-width: 0.8"/>
      </g>
     </g>
     <g id="text_9">
      <!-- −6 -->
      <g transform="translate(99.757812 210.096482) scale(0.1 -0.1)">
       <use xlink:href="#DejaVuSans-2212"/>
       <use xlink:href="#DejaVuSans-36" x="83.789062"/>
      </g>
     </g>
    </g>
    <g id="ytick_3">
     <g id="line2d_10">
      <g>
       <use xlink:href="#m9fad6f7195" x="121.5" y="165.86273" style="stroke: #000000; stroke-width: 0.8"/>
      </g>
     </g>
     <g id="text_10">
      <!-- −5 -->
      <g transform="translate(99.757812 169.661949) scale(0.1 -0.1)">
       <use xlink:href="#DejaVuSans-2212"/>
       <use xlink:href="#DejaVuSans-35" x="83.789062"/>
      </g>
     </g>
    </g>
    <g id="ytick_4">
     <g id="line2d_11">
      <g>
       <use xlink:href="#m9fad6f7195" x="121.5" y="125.428197" style="stroke: #000000; stroke-width: 0.8"/>
      </g>
     </g>
     <g id="text_11">
      <!-- −4 -->
      <g transform="translate(99.757812 129.227416) scale(0.1 -0.1)">
       <use xlink:href="#DejaVuSans-2212"/>
       <use xlink:href="#DejaVuSans-34" x="83.789062"/>
      </g>
     </g>
    </g>
    <g id="ytick_5">
     <g id="line2d_12">
      <g>
       <use xlink:href="#m9fad6f7195" x="121.5" y="84.993664" style="stroke: #000000; stroke-width: 0.8"/>
      </g>
     </g>
     <g id="text_12">
      <!-- −3 -->
      <g transform="translate(99.757812 88.792883) scale(0.1 -0.1)">
       <use xlink:href="#DejaVuSans-2212"/>
       <use xlink:href="#DejaVuSans-33" x="83.789062"/>
      </g>
     </g>
    </g>
    <g id="ytick_6">
     <g id="line2d_13">
      <g>
       <use xlink:href="#m9fad6f7195" x="121.5" y="44.559131" style="stroke: #000000; stroke-width: 0.8"/>
      </g>
     </g>
     <g id="text_13">
      <!-- −2 -->
      <g transform="translate(99.757812 48.35835) scale(0.1 -0.1)">
       <use xlink:href="#DejaVuSans-2212"/>
       <use xlink:href="#DejaVuSans-32" x="83.789062"/>
      </g>
     </g>
    </g>
   </g>
   <g id="line2d_14">
    <path d="M 137.06405 44.64 
L 140.68775 50.593312 
L 144.260413 56.891249 
L 147.833076 63.645601 
L 151.3547 70.782353 
L 154.876325 78.428665 
L 158.346911 86.498109 
L 161.817498 95.135069 
L 165.288084 104.379456 
L 168.707633 114.123559 
L 172.127181 124.542535 
L 175.54673 135.683126 
L 178.966279 147.59531 
L 182.334789 160.136083 
L 185.703299 173.532029 
L 189.07181 187.841466 
L 192.44032 203.126683 
L 193.205891 206.743483 
L 193.256929 206.500429 
L 193.461081 205.530644 
L 193.512119 205.772484 
L 193.563157 205.772484 
L 193.869386 206.742025 
L 193.971462 206.742025 
L 194.073538 206.498973 
L 195.502603 212.891552 
L 195.604679 212.393398 
L 195.655717 212.642102 
L 195.808831 212.891054 
L 195.961945 212.144198 
L 196.012983 212.392652 
L 196.064021 212.392652 
L 196.62544 210.163261 
L 196.778554 210.409735 
L 197.6462 206.734733 
L 197.952429 208.196652 
L 198.003467 207.952145 
L 198.769037 204.795721 
L 198.820075 204.795721 
L 201.678205 218.675713 
L 201.729243 218.420728 
L 202.903118 212.875105 
L 203.005194 213.373725 
L 203.056232 213.124041 
L 203.209346 213.124041 
L 203.311422 213.623158 
L 203.362461 213.373225 
L 203.617651 212.127304 
L 203.668689 212.375741 
L 204.383221 215.880062 
L 204.434259 215.627872 
L 204.485297 215.627872 
L 204.689449 214.872814 
L 205.761248 220.200735 
L 205.812286 219.944225 
L 207.088237 213.864335 
L 209.844291 227.73803 
L 209.895329 227.473982 
L 210.048443 227.210198 
L 210.762976 230.389891 
L 212.345155 222.503835 
L 213.365916 227.465805 
L 213.77422 225.887102 
L 213.825258 225.887102 
L 213.876296 225.624905 
L 213.927334 225.88684 
L 214.233563 225.88684 
L 214.743943 227.99177 
L 216.070932 221.462914 
L 216.12197 221.462914 
L 216.989617 217.369337 
L 217.040655 217.623016 
L 217.091693 217.369083 
L 218.214529 212.343414 
L 218.520758 213.839069 
L 218.571796 213.58892 
L 219.23529 210.359655 
L 219.286328 210.606325 
L 219.337366 210.606325 
L 221.480964 220.677775 
L 222.399649 216.596667 
L 222.501725 216.596667 
L 223.114181 214.078952 
L 223.165219 214.078952 
L 223.318333 213.328536 
L 223.369371 213.578174 
L 223.471447 213.578174 
L 223.981828 211.338156 
L 224.18598 211.8337 
L 224.237018 211.8337 
L 224.339094 211.337661 
L 224.390132 211.585309 
L 225.053627 214.325832 
L 225.104665 214.325832 
L 226.737882 221.954956 
L 226.78892 221.954956 
L 227.350338 219.383898 
L 227.401376 219.639592 
L 227.452414 219.383642 
L 227.605528 219.383642 
L 227.707604 219.895285 
L 227.758643 219.63908 
L 228.371099 217.090823 
L 228.422137 217.090823 
L 229.034593 214.568188 
L 229.085632 214.568188 
L 229.238746 215.321576 
L 229.289784 215.069944 
L 229.442898 215.069944 
L 229.64705 214.316558 
L 230.310544 217.087276 
L 230.361582 217.087276 
L 230.871963 219.376994 
L 231.586495 216.072935 
L 231.688571 216.325318 
L 232.301028 213.810303 
L 232.352066 213.810303 
L 232.403104 214.060424 
L 232.454142 213.810053 
L 232.607256 213.559933 
L 232.658294 213.559933 
L 232.811408 213.310063 
L 232.913484 213.310063 
L 234.087359 207.875703 
L 234.138397 207.875703 
L 235.6185 215.057124 
L 235.669538 214.805757 
L 235.720576 214.554641 
L 235.771614 214.805506 
L 235.822652 215.056621 
L 235.873691 214.805255 
L 236.077843 214.303275 
L 236.128881 214.303275 
L 236.179919 214.052662 
L 236.230957 214.303025 
L 236.792375 216.567585 
L 236.843413 216.567585 
L 237.608984 220.130974 
L 237.71106 219.618349 
L 237.762098 219.874277 
L 239.344277 227.672291 
L 239.548429 227.14459 
L 239.599467 227.14459 
L 239.803619 226.617944 
L 239.854657 226.617944 
L 240.160886 227.671235 
L 240.314 227.407253 
L 240.416076 227.407253 
L 240.518152 227.670971 
L 240.620228 227.143273 
L 240.671266 227.406726 
L 240.773342 227.934423 
L 240.82438 227.670179 
L 240.926456 227.406199 
L 241.181646 228.198138 
L 241.232684 228.198138 
L 241.743065 226.089465 
L 241.794103 226.089465 
L 242.253445 227.931781 
L 242.457597 227.139848 
L 242.508635 227.403298 
L 242.559673 227.139585 
L 242.91694 225.824969 
L 242.967978 225.824969 
L 243.121092 225.300961 
L 243.223168 225.824444 
L 243.274206 225.56231 
L 244.856385 217.819001 
L 244.907423 217.819001 
L 245.315727 215.793071 
L 245.366766 216.045174 
L 245.468842 216.045174 
L 245.826108 217.309476 
L 246.03026 217.309476 
L 246.28545 218.580111 
L 246.336488 218.325221 
L 247.051021 214.783409 
L 247.102059 215.034502 
L 247.816591 218.067279 
L 248.582162 214.780144 
L 248.6332 214.780144 
L 248.837352 214.027627 
L 249.041504 214.528553 
L 249.092542 214.528553 
L 249.296694 214.027126 
L 250.878874 221.647158 
L 251.899634 217.043188 
L 252.103786 217.043188 
L 252.461053 215.526865 
L 252.716243 216.283131 
L 252.767281 216.283131 
L 252.869357 216.78857 
L 252.920395 216.535471 
L 253.124547 215.777693 
L 253.277661 216.534713 
L 253.328699 216.281868 
L 253.532852 215.52485 
L 254.043232 217.546594 
L 254.196346 217.039135 
L 254.961917 220.609169 
L 255.370221 218.816121 
L 257.973161 231.622081 
L 258.687693 228.424522 
L 259.095998 230.016905 
L 259.147036 229.750578 
L 259.198074 230.016639 
L 259.759492 232.423188 
L 259.81053 232.423188 
L 260.06572 231.617795 
L 260.116758 231.617795 
L 260.320911 232.691114 
L 260.371949 232.422113 
L 260.882329 230.279766 
L 260.933367 230.279766 
L 260.984405 230.013176 
L 261.035443 230.2795 
L 261.086481 230.546089 
L 261.137519 230.279233 
L 261.290633 229.746321 
L 261.494785 230.2787 
L 261.545823 230.2787 
L 262.15828 227.624778 
L 262.311394 227.624778 
L 262.362432 227.360843 
L 262.41347 227.624514 
L 262.770736 229.477607 
L 262.821774 229.21182 
L 263.995649 223.691271 
L 264.148763 222.912047 
L 264.199801 223.171269 
L 264.352916 223.43075 
L 264.710182 222.134641 
L 264.76122 222.134641 
L 264.965372 222.651789 
L 265.01641 222.651789 
L 266.139247 228.144713 
L 266.598589 226.036466 
L 266.700665 226.298812 
L 266.751703 226.036204 
L 266.802741 226.29855 
L 267.721426 231.065897 
L 267.772464 230.798521 
L 267.87454 230.531412 
L 268.078692 231.065362 
L 268.12973 231.065362 
L 268.231806 230.797987 
L 269.507757 237.282842 
L 270.426442 232.668788 
L 270.681632 233.746318 
L 271.089937 231.593414 
L 271.140975 231.861318 
L 271.192013 231.861318 
L 271.753431 229.457408 
L 271.906545 229.457408 
L 273.488724 221.341016 
L 273.539762 221.598667 
L 273.5908 221.340758 
L 273.948067 220.055079 
L 273.999105 220.055079 
L 276.397892 231.581091 
L 277.673843 224.96357 
L 277.826957 225.224843 
L 277.877996 225.224843 
L 278.235262 223.659552 
L 278.643566 225.746602 
L 278.694604 225.484546 
L 278.79668 225.484546 
L 278.949794 225.222751 
L 279.000832 225.222751 
L 279.153946 226.008134 
L 279.204984 225.745816 
L 279.613289 223.656693 
L 279.664327 223.916659 
L 280.072631 225.743719 
L 280.276783 225.219613 
L 280.327821 225.219613 
L 280.480935 224.696815 
L 280.940278 226.529353 
L 281.552734 223.912756 
L 281.705848 223.912756 
L 282.216229 226.526724 
L 282.267267 226.263888 
L 282.726609 224.431376 
L 282.777647 224.431376 
L 282.930761 225.214382 
L 282.981799 224.952858 
L 283.083875 224.691595 
L 283.49218 226.261524 
L 284.104636 223.647594 
L 284.155674 223.647594 
L 284.51294 221.833341 
L 284.563978 222.091485 
L 285.788891 227.836407 
L 285.839929 227.836407 
L 286.044082 227.308378 
L 286.809652 230.756054 
L 286.911728 230.756054 
L 287.217956 229.689391 
L 287.779375 232.630058 
L 287.830413 232.361118 
L 287.881451 232.361118 
L 288.136641 233.437415 
L 288.493907 231.554839 
L 288.544945 231.822704 
L 288.647021 232.359237 
L 288.698059 232.090568 
L 289.004288 231.018575 
L 289.106364 231.018575 
L 289.667782 228.62222 
L 289.71882 228.62222 
L 289.769858 228.887152 
L 289.820896 228.621955 
L 290.535429 224.936921 
L 290.586467 225.198168 
L 291.045809 227.034226 
L 291.096847 227.034226 
L 291.249961 227.29757 
L 292.372798 222.075206 
L 292.474874 222.075206 
L 292.679026 222.851137 
L 293.138369 221.042443 
L 293.189407 221.042443 
L 293.240445 220.78509 
L 293.291483 221.042185 
L 293.597711 222.073139 
L 293.699787 222.073139 
L 293.852901 221.814756 
L 293.954977 221.814756 
L 294.363282 223.627058 
L 294.771586 222.07133 
L 294.9247 222.588351 
L 295.077814 222.329453 
L 295.128852 222.329453 
L 295.17989 222.588092 
L 295.230928 222.329194 
L 295.843385 219.754411 
L 295.945461 219.754411 
L 296.353765 218.22186 
L 296.506879 218.22186 
L 298.03802 225.445803 
L 298.089058 225.445803 
L 298.446325 226.757202 
L 298.599439 226.757202 
L 298.701515 227.020269 
L 299.007743 225.968527 
L 299.058781 225.968527 
L 299.262933 225.182478 
L 300.079542 228.867263 
L 300.13058 228.867263 
L 301.304455 223.353878 
L 301.814835 220.768894 
L 301.865873 221.025973 
L 302.223139 222.315228 
L 302.274178 222.315228 
L 302.580406 221.024686 
L 302.631444 221.282021 
L 302.682482 221.024429 
L 302.784558 221.024429 
L 302.937672 221.281763 
L 302.98871 221.281763 
L 303.039748 221.024171 
L 303.090786 221.281505 
L 303.192862 221.539097 
L 303.397014 220.509247 
L 303.448052 220.766066 
L 303.550128 220.766066 
L 303.703243 219.995609 
L 303.754281 220.251914 
L 303.805319 220.251914 
L 305.030232 225.955938 
L 305.08127 225.693672 
L 305.132308 225.955676 
L 305.234384 226.480469 
L 305.285422 226.217679 
L 305.642688 224.646446 
L 305.693726 224.907402 
L 305.744764 224.646185 
L 306.255144 222.565828 
L 306.306182 222.565828 
L 307.786286 215.414319 
L 307.837324 215.414319 
L 308.143552 216.928445 
L 308.19459 216.675207 
L 308.398742 216.16949 
L 308.44978 216.16949 
L 308.602894 215.664783 
L 309.878845 221.5244 
L 309.929883 221.5244 
L 310.082997 222.298677 
L 310.134035 222.040068 
L 310.440264 220.750899 
L 310.746492 221.780686 
L 310.899606 221.780686 
L 311.205834 220.492811 
L 311.512062 221.521564 
L 311.614138 221.521564 
L 314.574345 236.092029 
L 314.625383 236.092029 
L 314.829535 237.183272 
L 314.880573 236.909779 
L 315.288877 234.731656 
L 315.339915 235.002698 
L 315.595105 235.81745 
L 315.646143 235.81745 
L 315.850296 234.730572 
L 315.901334 235.001613 
L 317.02417 240.479703 
L 317.075208 240.202914 
L 317.126246 240.479427 
L 317.279361 240.479427 
L 318.86154 232.295033 
L 319.065692 232.295033 
L 319.218806 232.026428 
L 319.269844 232.026428 
L 321.97486 218.16816 
L 322.076936 218.16816 
L 322.689393 221.238749 
L 322.740431 220.9812 
L 322.893545 220.466875 
L 323.557039 223.565201 
L 323.659115 223.305326 
L 323.710153 223.564941 
L 323.761191 223.305066 
L 323.812229 223.045451 
L 323.863267 223.304806 
L 324.220534 223.304806 
L 324.781952 225.912668 
L 324.986104 225.126786 
L 325.139218 225.388223 
L 325.343371 224.865088 
L 325.394409 224.865088 
L 326.211017 228.545401 
L 326.262055 228.545401 
L 326.568283 226.960236 
L 326.619321 227.223507 
L 326.92555 228.279223 
L 327.078664 228.279223 
L 327.282816 227.486249 
L 327.589044 228.543017 
L 327.793196 228.013576 
L 327.844234 228.013576 
L 328.048387 228.80734 
L 329.069147 224.075576 
L 329.171223 224.075576 
L 329.375376 225.118682 
L 329.426414 224.857253 
L 329.579528 224.857253 
L 329.78368 225.90349 
L 329.834718 225.641276 
L 329.885756 225.641276 
L 331.314821 218.404807 
L 331.518973 219.169716 
L 332.13143 216.626385 
L 332.182468 216.626385 
L 332.590772 218.40226 
L 333.305304 215.110797 
L 333.968799 217.890294 
L 334.070875 217.890294 
L 334.683331 215.359701 
L 334.98956 216.36789 
L 336.112396 210.866959 
L 336.163435 211.114136 
L 338.460146 221.721848 
L 338.61326 221.721848 
L 338.919489 222.755524 
L 339.021565 222.755524 
L 339.123641 222.237652 
L 339.174679 222.4962 
L 339.225717 222.755006 
L 339.276755 222.495941 
L 339.582983 221.462269 
L 339.685059 221.462269 
L 339.787135 221.204497 
L 342.083847 232.244808 
L 342.134885 232.244808 
L 342.492151 230.637503 
L 342.798379 231.706895 
L 342.900456 231.706895 
L 344.07433 226.134471 
L 344.686787 229.035837 
L 345.197167 226.657255 
L 345.860662 229.564401 
L 346.013776 229.564401 
L 346.16689 230.362822 
L 346.217928 230.096149 
L 346.830384 226.9168 
L 346.881422 227.180027 
L 347.085575 228.235569 
L 347.136613 227.971023 
L 347.238689 227.971023 
L 348.157373 232.499922 
L 348.310487 231.962571 
L 348.463602 232.499385 
L 349.892667 225.335104 
L 349.943705 225.335104 
L 350.198895 224.550953 
L 350.300971 224.550953 
L 350.607199 225.857869 
L 351.219656 222.729101 
L 351.270694 222.98814 
L 351.423808 222.98814 
L 351.525884 223.247438 
L 351.62796 222.728583 
L 351.678998 222.987621 
L 351.88315 223.506475 
L 351.985226 223.506475 
L 352.036264 223.766292 
L 352.087302 223.506216 
L 352.13834 223.246399 
L 352.189378 223.505956 
L 352.852873 226.640952 
L 353.771558 222.465145 
L 354.026748 223.242247 
L 354.128824 223.242247 
L 354.894394 226.636744 
L 355.302699 225.063003 
L 355.404775 225.063003 
L 355.915155 227.16132 
L 355.966193 227.16132 
L 356.119307 226.897849 
L 356.272421 226.897849 
L 356.986954 230.073772 
L 357.08903 230.073772 
L 357.59941 227.42189 
L 357.650448 227.685622 
L 358.211867 230.604136 
L 358.262905 230.337222 
L 358.926399 226.891532 
L 358.977437 227.154733 
L 359.18159 228.210174 
L 359.232628 227.945654 
L 359.283666 227.681398 
L 359.334704 227.945389 
L 359.43678 228.209645 
L 360.253388 224.269506 
L 361.121035 228.734973 
L 361.172073 228.469928 
L 361.325187 228.469928 
L 361.886606 230.862501 
L 362.499062 228.202767 
L 362.5501 228.202767 
L 365.867572 245.676029 
L 365.969649 245.394043 
L 366.122763 245.394043 
L 366.275877 246.24 
L 366.326915 245.95745 
L 367.653904 238.9848 
L 367.704942 238.9848 
L 368.113246 237.337155 
L 368.317398 237.884723 
L 368.368436 237.884723 
L 368.52155 237.062962 
L 368.572588 237.336335 
L 368.776741 237.883901 
L 369.899577 231.914555 
L 369.950615 232.182779 
L 370.052692 232.182779 
L 370.256844 231.646062 
L 370.307882 231.646062 
L 371.430719 226.33755 
L 371.532795 226.33755 
L 371.787985 227.126281 
L 371.839023 227.126281 
L 371.890061 227.389717 
L 371.941099 227.126017 
L 372.808746 222.683255 
L 372.859784 222.942248 
L 373.114974 223.980813 
L 373.370164 223.200722 
L 373.523278 223.200722 
L 374.339887 227.120748 
L 374.799229 225.282257 
L 374.850267 225.282257 
L 375.105457 224.498264 
L 378.218778 240.61744 
L 378.269816 240.340513 
L 380.668603 227.896771 
L 380.923794 227.896771 
L 381.689364 224.482616 
L 381.740402 224.482616 
L 382.04663 225.527352 
L 382.097668 225.527352 
L 382.454935 223.960251 
L 382.557011 224.220521 
L 382.659087 223.959991 
L 382.761163 224.480791 
L 382.812201 224.22 
L 383.016353 223.699201 
L 383.067391 223.699201 
L 383.118429 223.439192 
L 383.169467 223.698941 
L 383.373619 224.219219 
L 383.424657 224.219219 
L 383.526733 223.958689 
L 384.037114 226.048141 
L 384.13919 226.048141 
L 385.057875 230.544088 
L 385.466179 228.416712 
L 385.517217 228.681439 
L 385.568255 228.94643 
L 385.619293 228.681174 
L 385.670331 228.416183 
L 385.721369 228.680909 
L 385.874483 229.211156 
L 387.405624 221.617882 
L 388.579499 227.352274 
L 388.834689 226.562078 
L 388.987804 226.562078 
L 389.34507 228.407712 
L 389.396108 228.142994 
L 389.447146 228.142994 
L 390.008564 225.248513 
L 390.059602 225.510072 
L 390.774135 228.66925 
L 390.876211 228.66925 
L 391.386591 226.556821 
L 391.69282 227.609866 
L 391.845934 227.609866 
L 392.101124 228.402418 
L 392.152162 228.402418 
L 392.45839 229.46259 
L 392.611504 229.46259 
L 394.142645 237.278875 
L 394.55095 235.64144 
L 394.755102 236.185615 
L 395.775863 231.322165 
L 395.980015 232.125865 
L 396.388319 230.252442 
L 398.123612 239.191211 
L 399.501639 232.117007 
L 399.654753 232.923093 
L 399.705791 232.65386 
L 400.420324 229.443987 
L 400.624476 229.975761 
L 401.083818 228.117343 
L 402.819112 236.711493 
L 404.452329 228.373565 
L 404.503367 228.373565 
L 404.911671 230.498459 
L 404.962709 230.231651 
L 406.23866 223.647464 
L 406.391774 224.428116 
L 406.442812 224.167378 
L 407.616687 218.75171 
L 407.718763 218.241842 
L 407.769801 218.496394 
L 407.871877 219.006261 
L 407.922915 218.750945 
L 408.484334 216.211783 
L 409.556133 221.053123 
L 411.69973 210.709558 
L 411.750768 210.709558 
L 412.056997 211.699119 
L 412.159073 211.699119 
L 412.363225 212.195385 
L 412.414263 212.195385 
L 412.822567 210.214287 
L 412.873605 210.460811 
L 413.945404 215.443395 
L 414.149556 214.68889 
L 415.680697 221.812562 
L 415.731735 221.812562 
L 415.833811 222.329065 
L 415.884849 222.070426 
L 415.986925 222.070426 
L 416.242116 221.29606 
L 416.293154 221.29606 
L 416.344192 221.038454 
L 416.39523 221.295802 
L 417.518067 226.496894 
L 417.569105 226.496894 
L 417.722219 225.971543 
L 418.947132 231.802729 
L 418.99817 231.802729 
L 419.100246 232.339222 
L 419.151284 232.070573 
L 419.202322 232.070573 
L 420.172045 227.280568 
L 420.223083 227.544158 
L 420.274121 227.280304 
L 420.733463 225.440699 
L 422.162528 232.60061 
L 423.030175 228.595066 
L 423.081213 228.595066 
L 423.183289 228.330161 
L 423.744707 230.721471 
L 424.918582 225.169535 
L 426.653875 216.677357 
L 426.704913 216.930344 
L 426.755951 216.677104 
L 426.806989 216.677104 
L 427.215294 214.660277 
L 427.266332 214.911248 
L 429.052663 223.335572 
L 429.767196 219.980359 
L 430.277576 222.037872 
L 430.328614 222.037872 
L 430.736918 223.591839 
L 431.604565 219.720484 
L 432.114945 221.775911 
L 432.165983 221.775911 
L 432.319097 222.033997 
L 432.370136 222.033997 
L 432.472212 221.775653 
L 432.77844 223.328043 
L 432.829478 223.068405 
L 433.697125 218.949332 
L 434.922037 224.624396 
L 434.973075 224.624396 
L 435.585532 227.245512 
L 436.963559 220.478045 
L 437.014597 220.478045 
L 439.107157 230.685424 
L 439.158195 230.685424 
L 439.617537 228.822054 
L 439.821689 229.352583 
L 439.872727 229.352583 
L 440.58726 225.657387 
L 440.638298 225.919354 
L 440.689336 226.181584 
L 440.740374 225.919092 
L 441.09764 224.349646 
L 441.403868 225.393849 
L 441.505944 225.393849 
L 441.863211 227.231281 
L 441.914249 226.96774 
L 442.016325 226.441448 
L 442.067363 226.704199 
L 442.220477 227.23049 
L 442.424629 226.440659 
L 442.781895 228.28544 
L 442.832933 228.020845 
L 443.241238 226.176071 
L 443.649542 228.018995 
L 443.70058 227.754666 
L 443.751618 228.01873 
L 443.95577 228.547652 
L 445.282759 221.746749 
L 445.333797 222.004806 
L 445.384835 221.746491 
L 445.691063 220.458787 
L 446.252482 222.77897 
L 446.30352 222.77897 
L 447.885699 215.117962 
L 447.936737 215.36939 
L 447.987775 215.117711 
L 448.191927 214.113508 
L 448.242965 214.363931 
L 448.345041 214.614605 
L 448.345041 214.614605 
" clip-path="url(#p5f14410c96)" style="fill: none; stroke: #1f77b4; stroke-width: 1.5; stroke-linecap: square"/>
   </g>
   <g id="patch_3">
    <path d="M 121.5 256.32 
L 121.5 34.56 
" style="fill: none; stroke: #000000; stroke-width: 0.8; stroke-linejoin: miter; stroke-linecap: square"/>
   </g>
   <g id="patch_4">
    <path d="M 463.909091 256.32 
L 463.909091 34.56 
" style="fill: none; stroke: #000000; stroke-width: 0.8; stroke-linejoin: miter; stroke-linecap: square"/>
   </g>
   <g id="patch_5">
    <path d="M 121.5 256.32 
L 463.909091 256.32 
" style="fill: none; stroke: #000000; stroke-width: 0.8; stroke-linejoin: miter; stroke-linecap: square"/>
   </g>
   <g id="patch_6">
    <path d="M 121.5 34.56 
L 463.909091 34.56 
" style="fill: none; stroke: #000000; stroke-width: 0.8; stroke-linejoin: miter; stroke-linecap: square"/>
   </g>
  </g>
  <g id="axes_2">
   <g id="patch_7">
    <path d="M 532.390909 256.32 
L 874.8 256.32 
L 874.8 34.56 
L 532.390909 34.56 
z
" style="fill: #ffffff"/>
   </g>
   <g id="matplotlib.axis_3">
    <g id="xtick_8">
     <g id="line2d_15">
      <g>
       <use xlink:href="#m21a6795f02" x="547.954959" y="256.32" style="stroke: #000000; stroke-width: 0.8"/>
      </g>
     </g>
     <g id="text_14">
      <!-- 0 -->
      <g transform="translate(544.773709 270.918437) scale(0.1 -0.1)">
       <use xlink:href="#DejaVuSans-30"/>
      </g>
     </g>
    </g>
    <g id="xtick_9">
     <g id="line2d_16">
      <g>
       <use xlink:href="#m21a6795f02" x="598.992996" y="256.32" style="stroke: #000000; stroke-width: 0.8"/>
      </g>
     </g>
     <g id="text_15">
      <!-- 1000 -->
      <g transform="translate(586.267996 270.918437) scale(0.1 -0.1)">
       <use xlink:href="#DejaVuSans-31"/>
       <use xlink:href="#DejaVuSans-30" x="63.623047"/>
       <use xlink:href="#DejaVuSans-30" x="127.246094"/>
       <use xlink:href="#DejaVuSans-30" x="190.869141"/>
      </g>
     </g>
    </g>
    <g id="xtick_10">
     <g id="line2d_17">
      <g>
       <use xlink:href="#m21a6795f02" x="650.031034" y="256.32" style="stroke: #000000; stroke-width: 0.8"/>
      </g>
     </g>
     <g id="text_16">
      <!-- 2000 -->
      <g transform="translate(637.306034 270.918437) scale(0.1 -0.1)">
       <use xlink:href="#DejaVuSans-32"/>
       <use xlink:href="#DejaVuSans-30" x="63.623047"/>
       <use xlink:href="#DejaVuSans-30" x="127.246094"/>
       <use xlink:href="#DejaVuSans-30" x="190.869141"/>
      </g>
     </g>
    </g>
    <g id="xtick_11">
     <g id="line2d_18">
      <g>
       <use xlink:href="#m21a6795f02" x="701.069072" y="256.32" style="stroke: #000000; stroke-width: 0.8"/>
      </g>
     </g>
     <g id="text_17">
      <!-- 3000 -->
      <g transform="translate(688.344072 270.918437) scale(0.1 -0.1)">
       <use xlink:href="#DejaVuSans-33"/>
       <use xlink:href="#DejaVuSans-30" x="63.623047"/>
       <use xlink:href="#DejaVuSans-30" x="127.246094"/>
       <use xlink:href="#DejaVuSans-30" x="190.869141"/>
      </g>
     </g>
    </g>
    <g id="xtick_12">
     <g id="line2d_19">
      <g>
       <use xlink:href="#m21a6795f02" x="752.107109" y="256.32" style="stroke: #000000; stroke-width: 0.8"/>
      </g>
     </g>
     <g id="text_18">
      <!-- 4000 -->
      <g transform="translate(739.382109 270.918437) scale(0.1 -0.1)">
       <use xlink:href="#DejaVuSans-34"/>
       <use xlink:href="#DejaVuSans-30" x="63.623047"/>
       <use xlink:href="#DejaVuSans-30" x="127.246094"/>
       <use xlink:href="#DejaVuSans-30" x="190.869141"/>
      </g>
     </g>
    </g>
    <g id="xtick_13">
     <g id="line2d_20">
      <g>
       <use xlink:href="#m21a6795f02" x="803.145147" y="256.32" style="stroke: #000000; stroke-width: 0.8"/>
      </g>
     </g>
     <g id="text_19">
      <!-- 5000 -->
      <g transform="translate(790.420147 270.918437) scale(0.1 -0.1)">
       <use xlink:href="#DejaVuSans-35"/>
       <use xlink:href="#DejaVuSans-30" x="63.623047"/>
       <use xlink:href="#DejaVuSans-30" x="127.246094"/>
       <use xlink:href="#DejaVuSans-30" x="190.869141"/>
      </g>
     </g>
    </g>
    <g id="xtick_14">
     <g id="line2d_21">
      <g>
       <use xlink:href="#m21a6795f02" x="854.183185" y="256.32" style="stroke: #000000; stroke-width: 0.8"/>
      </g>
     </g>
     <g id="text_20">
      <!-- 6000 -->
      <g transform="translate(841.458185 270.918437) scale(0.1 -0.1)">
       <use xlink:href="#DejaVuSans-36"/>
       <use xlink:href="#DejaVuSans-30" x="63.623047"/>
       <use xlink:href="#DejaVuSans-30" x="127.246094"/>
       <use xlink:href="#DejaVuSans-30" x="190.869141"/>
      </g>
     </g>
    </g>
   </g>
   <g id="matplotlib.axis_4">
    <g id="ytick_7">
     <g id="line2d_22">
      <g>
       <use xlink:href="#m9fad6f7195" x="532.390909" y="233.062063" style="stroke: #000000; stroke-width: 0.8"/>
      </g>
     </g>
     <g id="text_21">
      <!-- −5.5 -->
      <g transform="translate(501.108097 236.861282) scale(0.1 -0.1)">
       <defs>
        <path id="DejaVuSans-2e" d="M 684 794 
L 1344 794 
L 1344 0 
L 684 0 
L 684 794 
z
" transform="scale(0.015625)"/>
       </defs>
       <use xlink:href="#DejaVuSans-2212"/>
       <use xlink:href="#DejaVuSans-35" x="83.789062"/>
       <use xlink:href="#DejaVuSans-2e" x="147.412109"/>
       <use xlink:href="#DejaVuSans-35" x="179.199219"/>
      </g>
     </g>
    </g>
    <g id="ytick_8">
     <g id="line2d_23">
      <g>
       <use xlink:href="#m9fad6f7195" x="532.390909" y="206.129235" style="stroke: #000000; stroke-width: 0.8"/>
      </g>
     </g>
     <g id="text_22">
      <!-- −5.0 -->
      <g transform="translate(501.108097 209.928454) scale(0.1 -0.1)">
       <use xlink:href="#DejaVuSans-2212"/>
       <use xlink:href="#DejaVuSans-35" x="83.789062"/>
       <use xlink:href="#DejaVuSans-2e" x="147.412109"/>
       <use xlink:href="#DejaVuSans-30" x="179.199219"/>
      </g>
     </g>
    </g>
    <g id="ytick_9">
     <g id="line2d_24">
      <g>
       <use xlink:href="#m9fad6f7195" x="532.390909" y="179.196407" style="stroke: #000000; stroke-width: 0.8"/>
      </g>
     </g>
     <g id="text_23">
      <!-- −4.5 -->
      <g transform="translate(501.108097 182.995626) scale(0.1 -0.1)">
       <use xlink:href="#DejaVuSans-2212"/>
       <use xlink:href="#DejaVuSans-34" x="83.789062"/>
       <use xlink:href="#DejaVuSans-2e" x="147.412109"/>
       <use xlink:href="#DejaVuSans-35" x="179.199219"/>
      </g>
     </g>
    </g>
    <g id="ytick_10">
     <g id="line2d_25">
      <g>
       <use xlink:href="#m9fad6f7195" x="532.390909" y="152.26358" style="stroke: #000000; stroke-width: 0.8"/>
      </g>
     </g>
     <g id="text_24">
      <!-- −4.0 -->
      <g transform="translate(501.108097 156.062798) scale(0.1 -0.1)">
       <use xlink:href="#DejaVuSans-2212"/>
       <use xlink:href="#DejaVuSans-34" x="83.789062"/>
       <use xlink:href="#DejaVuSans-2e" x="147.412109"/>
       <use xlink:href="#DejaVuSans-30" x="179.199219"/>
      </g>
     </g>
    </g>
    <g id="ytick_11">
     <g id="line2d_26">
      <g>
       <use xlink:href="#m9fad6f7195" x="532.390909" y="125.330752" style="stroke: #000000; stroke-width: 0.8"/>
      </g>
     </g>
     <g id="text_25">
      <!-- −3.5 -->
      <g transform="translate(501.108097 129.129971) scale(0.1 -0.1)">
       <use xlink:href="#DejaVuSans-2212"/>
       <use xlink:href="#DejaVuSans-33" x="83.789062"/>
       <use xlink:href="#DejaVuSans-2e" x="147.412109"/>
       <use xlink:href="#DejaVuSans-35" x="179.199219"/>
      </g>
     </g>
    </g>
    <g id="ytick_12">
     <g id="line2d_27">
      <g>
       <use xlink:href="#m9fad6f7195" x="532.390909" y="98.397924" style="stroke: #000000; stroke-width: 0.8"/>
      </g>
     </g>
     <g id="text_26">
      <!-- −3.0 -->
      <g transform="translate(501.108097 102.197143) scale(0.1 -0.1)">
       <use xlink:href="#DejaVuSans-2212"/>
       <use xlink:href="#DejaVuSans-33" x="83.789062"/>
       <use xlink:href="#DejaVuSans-2e" x="147.412109"/>
       <use xlink:href="#DejaVuSans-30" x="179.199219"/>
      </g>
     </g>
    </g>
    <g id="ytick_13">
     <g id="line2d_28">
      <g>
       <use xlink:href="#m9fad6f7195" x="532.390909" y="71.465096" style="stroke: #000000; stroke-width: 0.8"/>
      </g>
     </g>
     <g id="text_27">
      <!-- −2.5 -->
      <g transform="translate(501.108097 75.264315) scale(0.1 -0.1)">
       <use xlink:href="#DejaVuSans-2212"/>
       <use xlink:href="#DejaVuSans-32" x="83.789062"/>
       <use xlink:href="#DejaVuSans-2e" x="147.412109"/>
       <use xlink:href="#DejaVuSans-35" x="179.199219"/>
      </g>
     </g>
    </g>
    <g id="ytick_14">
     <g id="line2d_29">
      <g>
       <use xlink:href="#m9fad6f7195" x="532.390909" y="44.532269" style="stroke: #000000; stroke-width: 0.8"/>
      </g>
     </g>
     <g id="text_28">
      <!-- −2.0 -->
      <g transform="translate(501.108097 48.331487) scale(0.1 -0.1)">
       <use xlink:href="#DejaVuSans-2212"/>
       <use xlink:href="#DejaVuSans-32" x="83.789062"/>
       <use xlink:href="#DejaVuSans-2e" x="147.412109"/>
       <use xlink:href="#DejaVuSans-30" x="179.199219"/>
      </g>
     </g>
    </g>
   </g>
   <g id="line2d_30">
    <path d="M 547.954959 44.64 
L 551.476583 52.339629 
L 554.94717 60.465341 
L 558.417756 69.162526 
L 561.888343 78.471375 
L 565.307891 88.283423 
L 568.72744 98.775051 
L 572.146989 109.993325 
L 575.566537 121.988573 
L 578.935048 134.616792 
L 582.303558 148.106149 
L 585.672069 162.515364 
L 589.040579 177.907166 
L 592.409089 194.348557 
L 595.879676 211.911112 
L 595.930714 211.636002 
L 596.083828 210.812321 
L 596.134866 211.086332 
L 596.594209 213.011823 
L 596.747323 212.735336 
L 597.002513 213.563968 
L 597.563931 210.808759 
L 597.614969 211.082767 
L 597.666007 210.808485 
L 598.431578 207.267411 
L 598.533654 207.808614 
L 598.584692 207.537607 
L 598.839882 206.186628 
L 598.89092 206.456014 
L 601.391784 219.991252 
L 601.442822 219.708061 
L 601.800088 217.733643 
L 601.851126 218.014575 
L 602.004241 218.85906 
L 602.055279 218.577002 
L 602.259431 217.451587 
L 602.310469 217.732238 
L 602.361507 218.013169 
L 602.412545 217.731957 
L 602.871887 215.213668 
L 602.922925 215.492081 
L 602.973963 215.770772 
L 603.025001 215.491802 
L 603.178115 215.213111 
L 603.33123 215.770214 
L 603.382268 215.491245 
L 603.433306 215.769935 
L 604.198876 219.700989 
L 604.35199 218.853137 
L 604.403028 219.135189 
L 604.60718 220.266221 
L 604.658219 219.982756 
L 604.862371 218.851727 
L 604.913409 219.133777 
L 604.964447 219.41611 
L 605.015485 219.133495 
L 605.474827 216.602643 
L 605.525865 216.882444 
L 605.730017 218.004452 
L 605.781055 217.723248 
L 605.832093 217.442326 
L 605.883131 217.722967 
L 605.985208 218.003889 
L 606.495588 215.761845 
L 606.546626 216.040806 
L 606.597664 215.761566 
L 606.903892 214.647118 
L 608.230881 221.392393 
L 608.281919 221.107801 
L 608.332957 221.392108 
L 608.383995 221.676699 
L 608.435033 221.391823 
L 608.537109 220.822926 
L 608.588147 221.106948 
L 608.945414 223.10307 
L 608.996452 222.816768 
L 609.04749 222.530753 
L 609.098528 222.816482 
L 609.251642 223.675387 
L 609.30268 223.388513 
L 609.353718 223.101925 
L 609.404756 223.388226 
L 610.221365 227.717258 
L 611.395239 221.668438 
L 611.497316 222.238458 
L 611.548354 221.95302 
L 612.467038 216.863679 
L 612.518076 217.143742 
L 612.620152 217.704708 
L 612.67119 217.423804 
L 612.773267 216.862839 
L 612.824305 217.142901 
L 613.589875 221.093302 
L 614.202332 218.262856 
L 614.610636 220.522448 
L 614.661674 220.238726 
L 615.01894 218.824087 
L 615.427244 221.088185 
L 615.478283 220.803897 
L 616.039701 217.695438 
L 616.090739 217.976333 
L 616.141777 218.257508 
L 616.192815 217.976052 
L 616.499043 216.293213 
L 616.550081 216.572705 
L 618.030184 224.800702 
L 618.081222 224.512703 
L 619.408211 217.405564 
L 619.765478 219.093407 
L 619.918592 218.247376 
L 619.96963 218.528822 
L 620.020668 218.81055 
L 620.071706 218.528541 
L 620.428972 217.122437 
L 620.531048 217.402758 
L 621.296619 213.776465 
L 621.602847 214.885752 
L 621.755961 214.052331 
L 621.806999 214.329583 
L 622.674646 218.521498 
L 622.878798 217.396305 
L 622.929836 217.6769 
L 623.08295 218.520371 
L 623.133988 218.238651 
L 623.185026 217.957214 
L 623.236064 218.23837 
L 623.848521 221.065158 
L 623.899559 220.780894 
L 623.950597 221.064874 
L 624.767205 225.647368 
L 624.818243 225.358522 
L 624.920319 225.358522 
L 625.124472 226.514484 
L 625.17551 226.224771 
L 625.379662 225.068811 
L 625.4307 225.357079 
L 625.532776 225.645635 
L 625.583814 225.35679 
L 625.634852 225.645346 
L 625.68589 225.93419 
L 625.736928 225.645057 
L 626.145232 223.629204 
L 626.19627 223.916032 
L 626.247308 223.628917 
L 627.114955 219.356202 
L 627.523259 221.624572 
L 627.574297 221.339748 
L 627.676374 220.770955 
L 627.727412 221.054925 
L 628.084678 223.050682 
L 628.135716 222.764432 
L 628.237792 222.192791 
L 628.28883 222.478183 
L 629.207515 227.664316 
L 629.258553 227.373452 
L 630.483466 220.479325 
L 630.63658 221.331212 
L 630.687618 221.046682 
L 631.249036 217.935565 
L 631.300074 218.2167 
L 631.351112 218.2167 
L 631.810455 215.694066 
L 631.861493 215.972959 
L 632.116683 216.811033 
L 632.167721 216.811033 
L 633.851976 226.20075 
L 633.903014 225.91135 
L 634.515471 222.461043 
L 634.566509 222.746703 
L 634.719623 223.032363 
L 634.770661 223.032363 
L 635.281041 225.329956 
L 635.332079 225.329956 
L 635.485193 224.465234 
L 635.536231 224.752898 
L 635.587269 225.04085 
L 635.638307 224.75261 
L 636.250764 221.885732 
L 636.454916 222.455901 
L 636.812182 220.462305 
L 636.86322 220.745967 
L 636.914258 220.745967 
L 637.424639 217.91926 
L 637.475677 218.200378 
L 637.883981 220.459469 
L 637.935019 220.17581 
L 638.70059 215.954813 
L 638.751628 216.233967 
L 638.904742 217.073105 
L 638.95578 216.792832 
L 639.313046 214.838759 
L 639.364084 215.116797 
L 640.537959 221.019964 
L 640.691073 220.168159 
L 640.742111 220.451526 
L 640.997301 221.872619 
L 641.048339 221.587547 
L 641.660796 218.188841 
L 641.711834 218.470229 
L 641.864948 219.316082 
L 641.915986 219.033567 
L 642.273252 217.344399 
L 643.191937 221.866632 
L 643.242975 221.581566 
L 643.294013 221.866347 
L 643.702317 223.580734 
L 643.957508 222.720969 
L 644.008546 223.006889 
L 644.059584 222.720683 
L 644.774116 219.308172 
L 645.335535 221.860646 
L 645.386573 221.860646 
L 645.437611 221.575586 
L 645.488649 221.860361 
L 645.641763 222.716394 
L 645.692801 222.430479 
L 645.743839 222.430479 
L 645.845915 223.002024 
L 645.896953 222.715823 
L 646.407333 219.869506 
L 646.458371 220.152574 
L 646.917714 222.712963 
L 646.968752 222.427051 
L 647.070828 222.141425 
L 647.53017 224.719786 
L 647.581208 224.431867 
L 647.734322 223.856893 
L 648.653007 228.776079 
L 649.010273 226.738375 
L 649.061311 227.028312 
L 649.112349 227.318539 
L 649.163387 227.028022 
L 649.520654 225.002517 
L 649.571692 225.290718 
L 650.031034 227.897536 
L 650.082072 227.60644 
L 650.3883 226.155317 
L 650.592452 226.734026 
L 650.898681 225.575743 
L 651.409061 228.47652 
L 651.460099 228.184845 
L 651.664251 227.021056 
L 651.715289 227.311276 
L 651.817365 227.601787 
L 652.99124 221.555368 
L 653.093316 220.986144 
L 653.144354 221.270329 
L 654.114077 226.724168 
L 654.165115 226.434245 
L 654.777572 223.550624 
L 654.82861 223.550624 
L 656.10456 230.218631 
L 656.870131 225.848042 
L 656.921169 226.137089 
L 657.227397 227.586666 
L 657.278435 227.29588 
L 657.329473 227.586375 
L 657.68674 229.627989 
L 657.737778 229.335162 
L 658.45231 225.843706 
L 658.554386 226.132749 
L 659.728261 219.550809 
L 660.646946 224.683798 
L 660.697984 224.395915 
L 661.05525 222.38878 
L 661.106288 222.674368 
L 661.157326 222.674368 
L 661.208364 222.388494 
L 661.259402 222.674082 
L 661.361478 222.959955 
L 661.412516 222.673796 
L 661.463554 222.959669 
L 661.667707 224.106022 
L 661.718745 223.818717 
L 661.820821 223.244968 
L 661.871859 223.531412 
L 661.973935 224.10516 
L 662.024973 223.817856 
L 662.382239 221.814755 
L 662.433277 222.099769 
L 663.709228 229.026263 
L 664.066494 227.567765 
L 664.423761 229.316733 
L 664.729989 228.148424 
L 664.781027 228.439772 
L 664.832065 228.148133 
L 664.985179 227.274965 
L 665.036217 227.565439 
L 665.240369 228.146967 
L 665.291407 228.146967 
L 665.954902 231.367551 
L 666.26113 230.190758 
L 666.363206 230.190758 
L 666.465282 230.777831 
L 666.51632 230.483854 
L 666.924624 228.725864 
L 667.128777 229.895316 
L 667.179815 229.602222 
L 667.486043 227.8498 
L 667.537081 228.140849 
L 667.588119 228.432189 
L 667.639157 228.140558 
L 667.843309 227.557879 
L 667.894347 227.848636 
L 667.945385 227.557588 
L 667.996423 227.557588 
L 669.017184 233.131967 
L 669.068222 232.835636 
L 669.11926 233.13167 
L 669.170298 233.428001 
L 669.221336 233.131374 
L 669.323412 232.539009 
L 669.37445 232.834748 
L 669.425488 233.130781 
L 669.476526 232.834452 
L 669.884831 230.474456 
L 669.935869 230.768129 
L 670.446249 233.721065 
L 670.497287 233.424145 
L 670.803515 231.943992 
L 671.21182 234.016202 
L 671.620124 231.646785 
L 671.671162 231.941631 
L 671.7222 232.236772 
L 671.773238 231.941336 
L 671.875314 231.35135 
L 671.926352 231.645901 
L 672.181542 232.827051 
L 672.640885 230.467114 
L 672.998151 231.938089 
L 673.406455 230.171688 
L 673.457493 230.465059 
L 673.508531 230.171394 
L 673.610607 229.584947 
L 673.661645 229.877731 
L 673.865798 231.051798 
L 673.916836 230.757547 
L 673.967874 230.46359 
L 674.018912 230.757253 
L 674.376178 232.82113 
L 674.427216 232.52511 
L 674.631368 231.343987 
L 674.682406 231.63853 
L 674.733444 231.63853 
L 675.141749 229.873628 
L 675.192787 229.873628 
L 675.243825 229.580555 
L 675.294863 229.873335 
L 675.550053 231.34163 
L 675.601091 231.04709 
L 675.856281 229.871869 
L 676.621852 233.704438 
L 676.67289 233.704438 
L 677.795727 227.531421 
L 678.459221 231.333678 
L 678.510259 231.039145 
L 678.816487 229.863664 
L 678.969601 230.156433 
L 679.071677 230.156433 
L 679.122715 229.863077 
L 679.173754 230.15614 
L 679.633096 232.806922 
L 679.684134 232.510916 
L 679.990362 230.741086 
L 680.0414 231.035026 
L 680.551781 233.396857 
L 680.602819 233.396857 
L 681.317351 236.975348 
L 681.368389 236.975348 
L 681.776693 235.1785 
L 681.980846 236.074528 
L 682.031884 235.775255 
L 682.082922 236.074229 
L 682.287074 237.273119 
L 682.338112 236.972647 
L 682.491226 236.073032 
L 682.542264 236.372304 
L 683.052644 238.776977 
L 683.103682 238.776977 
L 683.15472 239.078953 
L 683.205758 238.776675 
L 684.175481 233.090483 
L 684.226519 233.386773 
L 685.349356 239.980631 
L 685.400394 239.677451 
L 687.492954 227.504675 
L 687.543992 227.795379 
L 687.59503 227.504385 
L 687.646068 227.504385 
L 687.697106 227.213681 
L 687.748144 227.504094 
L 687.952296 228.668652 
L 688.003334 228.376784 
L 688.156448 227.793924 
L 688.717867 230.716984 
L 688.819943 230.129445 
L 688.870981 230.422774 
L 689.024095 231.304521 
L 689.075133 231.010017 
L 689.636551 228.372411 
L 689.687589 228.372411 
L 690.044856 226.62735 
L 690.96354 231.29922 
L 691.167692 230.416608 
L 691.269768 231.004133 
L 691.320806 230.70993 
L 691.371845 230.416021 
L 691.422883 230.709636 
L 691.984301 233.365419 
L 692.341567 231.885265 
L 692.80091 233.957062 
L 692.902986 233.363047 
L 692.954024 233.659609 
L 693.0561 234.253623 
L 693.107138 233.95617 
L 693.56648 231.882019 
L 693.770632 233.064115 
L 693.82167 232.767851 
L 693.872708 232.767851 
L 694.689317 237.539004 
L 694.740355 237.238266 
L 694.791393 236.937829 
L 694.842431 237.237966 
L 695.505926 240.559043 
L 696.986029 232.167648 
L 697.037067 232.463015 
L 697.088105 232.167352 
L 698.26198 226.026005 
L 698.51717 224.582769 
L 698.568208 224.870551 
L 700.201425 233.639126 
L 700.303501 233.639126 
L 700.507653 234.828261 
L 700.558691 234.530234 
L 700.86492 233.044562 
L 701.018034 233.340509 
L 701.069072 233.340509 
L 701.732566 230.094541 
L 701.783604 230.387835 
L 701.834642 230.094248 
L 702.753327 225.147951 
L 703.467859 228.626918 
L 703.620974 227.752315 
L 703.672012 228.043267 
L 703.72305 228.043267 
L 703.825126 227.461073 
L 703.876164 227.751733 
L 704.335506 229.794216 
L 704.48862 228.916115 
L 704.539658 229.20823 
L 705.356267 233.625175 
L 705.560419 232.735593 
L 705.662495 233.327758 
L 705.713533 233.031231 
L 705.815609 232.439067 
L 705.866647 232.734705 
L 706.734294 237.806028 
L 706.785332 237.505023 
L 706.938446 237.204018 
L 706.989484 237.504421 
L 707.040522 237.203718 
L 707.09156 236.903315 
L 707.142598 237.203417 
L 707.499864 238.708437 
L 708.877891 230.956182 
L 710.255918 238.398687 
L 710.766299 235.396246 
L 710.817337 235.694841 
L 710.868375 235.694841 
L 710.919413 235.395947 
L 710.970451 235.694542 
L 711.327717 237.793085 
L 711.378755 237.492093 
L 711.429793 237.191401 
L 711.480831 237.491792 
L 712.04225 240.208556 
L 713.011972 235.091685 
L 713.165087 235.389677 
L 713.216125 235.389677 
L 713.369239 234.494806 
L 713.420277 234.7925 
L 713.573391 235.687369 
L 713.624429 235.388483 
L 713.726505 234.791606 
L 713.777543 235.089597 
L 714.696228 240.201274 
L 714.90038 239.291983 
L 714.951418 239.594474 
L 715.002456 239.291681 
L 716.176331 233.002202 
L 716.278407 232.410096 
L 716.329445 232.705705 
L 716.584635 233.8911 
L 716.737749 233.000721 
L 716.788787 233.296921 
L 716.941901 234.187298 
L 716.992939 233.889912 
L 717.452282 231.816223 
L 717.75851 233.590746 
L 717.809548 233.293956 
L 717.911624 232.701266 
L 717.962662 232.997167 
L 718.319928 235.076771 
L 718.370966 234.778495 
L 718.677195 232.995093 
L 718.728233 233.291287 
L 718.830309 233.884565 
L 718.881347 233.587481 
L 718.932385 233.587481 
L 719.136537 232.402114 
L 719.187575 232.697716 
L 720.157298 238.37064 
L 720.208336 238.06907 
L 720.973906 234.175701 
L 721.331173 235.964416 
L 722.147781 231.213533 
L 722.198819 231.507946 
L 722.249857 231.802653 
L 722.300895 231.507651 
L 722.454009 230.624415 
L 722.505048 230.918238 
L 722.556086 230.918238 
L 723.780998 237.456914 
L 724.342417 234.166185 
L 724.393455 234.46355 
L 724.648645 235.954843 
L 724.699683 235.655689 
L 724.801759 235.058278 
L 724.852797 235.356535 
L 724.954873 235.953945 
L 725.005911 235.654792 
L 725.261102 234.461169 
L 725.56733 236.251601 
L 725.618368 235.95215 
L 726.128748 233.270534 
L 726.383938 234.755849 
L 726.434976 234.457894 
L 727.149509 230.905297 
L 727.200547 231.199401 
L 727.251585 230.905003 
L 727.353661 230.610899 
L 728.93584 239.554206 
L 729.548297 236.240521 
L 729.599335 236.539961 
L 729.650373 236.240222 
L 729.701411 235.940783 
L 729.752449 236.239922 
L 730.058677 237.439476 
L 730.109715 237.138838 
L 730.160753 237.439176 
L 730.364905 238.341992 
L 730.466981 238.040451 
L 730.518019 238.341691 
L 730.569057 238.04015 
L 731.436704 233.256304 
L 731.53878 233.849511 
L 731.589818 233.552462 
L 731.691894 233.255711 
L 732.610579 238.034427 
L 732.661617 238.034427 
L 732.916807 238.938729 
L 733.529264 235.930612 
L 733.733416 236.528871 
L 733.835492 235.929715 
L 733.88653 236.228843 
L 734.039644 237.128026 
L 734.090682 236.827699 
L 734.39691 235.629391 
L 734.447948 235.928219 
L 734.498986 235.629092 
L 734.550024 235.330264 
L 734.601062 235.628793 
L 734.805215 236.526173 
L 735.366633 233.839114 
L 735.468709 234.433488 
L 735.519747 234.135855 
L 735.570785 233.83852 
L 735.621823 234.135558 
L 736.336356 237.723263 
L 737.510231 231.466395 
L 737.918535 229.117305 
L 737.969573 229.409622 
L 738.939296 234.423666 
L 739.245524 232.642388 
L 739.296562 232.938229 
L 739.806942 235.912964 
L 739.85798 235.613852 
L 740.317323 232.935268 
L 740.368361 233.231402 
L 740.419399 233.527833 
L 740.470437 233.231106 
L 740.929779 230.867948 
L 742.511958 240.122097 
L 742.562996 239.818776 
L 742.818186 238.306714 
L 742.869225 238.60822 
L 743.073377 239.514547 
L 743.124415 239.211834 
L 743.175453 239.514245 
L 743.226491 239.816958 
L 743.277529 239.513942 
L 743.328567 239.211229 
L 743.379605 239.513639 
L 744.400366 245.317239 
L 745.012822 242.245617 
L 745.421126 244.697743 
L 745.472164 244.389847 
L 745.523202 244.389847 
L 745.880469 246.24 
L 747.054344 239.503347 
L 747.105382 239.80605 
L 747.15642 239.503045 
L 748.024066 234.398071 
L 748.075104 234.695669 
L 748.17718 235.291756 
L 748.228218 234.993265 
L 748.636523 233.208282 
L 748.687561 233.504689 
L 748.738599 233.207985 
L 748.942751 232.024134 
L 748.993789 232.319358 
L 749.606246 235.885148 
L 749.657284 235.586064 
L 750.320778 232.020297 
L 750.371816 232.315516 
L 750.422854 232.020001 
L 750.473892 231.724782 
L 750.52493 232.019706 
L 750.678044 232.906248 
L 750.729082 232.610143 
L 751.188425 230.545387 
L 751.698805 233.496085 
L 751.749843 233.19939 
L 752.260223 230.836191 
L 752.3623 231.424555 
L 752.413338 231.129932 
L 752.87268 228.491542 
L 752.923718 228.783233 
L 753.178908 230.246067 
L 753.229946 229.952622 
L 753.38306 229.074046 
L 753.434098 229.366319 
L 754.556935 235.870792 
L 754.607973 235.571722 
L 754.761087 234.676306 
L 754.812125 234.974181 
L 755.22043 236.767399 
L 756.037038 232.299263 
L 756.139114 232.890555 
L 756.190152 232.594466 
L 756.547419 231.118159 
L 757.925446 238.565065 
L 758.129598 237.961537 
L 758.231674 238.564159 
L 758.282712 238.262396 
L 758.793092 235.859129 
L 758.84413 235.859129 
L 759.303473 233.771991 
L 759.405549 233.771991 
L 760.273195 238.257573 
L 760.375271 237.956116 
L 760.630462 239.464906 
L 760.6815 239.162242 
L 760.987728 237.653457 
L 761.140842 237.954008 
L 761.44707 236.750902 
L 761.855375 239.158917 
L 761.906413 238.856559 
L 762.876135 233.762488 
L 763.590668 237.345391 
L 763.998972 234.949434 
L 764.05001 235.247582 
L 764.509353 237.944371 
L 764.560391 237.643228 
L 766.499836 226.420198 
L 767.928901 234.342426 
L 767.979939 234.044884 
L 768.030977 234.342128 
L 768.439281 236.730806 
L 768.490319 236.430876 
L 769.664194 230.20088 
L 770.174575 227.570818 
L 770.225613 227.861588 
L 770.276651 227.570527 
L 770.991183 224.100132 
L 771.093259 224.675018 
L 771.144297 224.387144 
L 771.195335 224.099558 
L 771.246373 224.386856 
L 771.34845 224.962316 
L 771.399488 224.674154 
L 771.501564 224.098696 
L 771.552602 224.385993 
L 773.083743 233.139819 
L 773.134781 232.843481 
L 773.185819 232.547438 
L 773.236857 232.843185 
L 773.492047 234.326359 
L 773.543085 234.028834 
L 773.696199 233.434675 
L 774.104504 235.816067 
L 774.155542 235.517052 
L 774.20658 235.517052 
L 775.125264 230.773274 
L 775.176302 230.773274 
L 775.278378 231.361512 
L 775.329416 231.066952 
L 776.043949 227.554826 
L 776.350177 229.303717 
L 776.401215 229.011214 
L 776.707444 227.26233 
L 776.758482 227.552791 
L 777.115748 229.59417 
L 777.166786 229.301377 
L 777.217824 229.008876 
L 777.268862 229.301084 
L 778.085471 233.719432 
L 778.340661 232.533538 
L 778.851041 235.504208 
L 778.902079 235.205504 
L 779.208307 233.419547 
L 779.259345 233.716166 
L 779.310383 233.716166 
L 779.514536 233.122336 
L 780.075954 236.398218 
L 780.126992 236.098621 
L 781.045677 231.345312 
L 781.096715 231.639856 
L 781.147753 231.345018 
L 781.198791 231.345018 
L 781.249829 231.639562 
L 781.300867 231.344723 
L 781.505019 230.168314 
L 781.556057 230.461681 
L 781.811247 231.932925 
L 781.862285 231.637793 
L 782.015399 231.637793 
L 782.066437 231.342956 
L 782.117475 231.637498 
L 782.883046 236.091138 
L 782.934084 235.791848 
L 783.546541 232.223625 
L 783.597579 232.519048 
L 784.005883 234.893089 
L 784.056921 234.594997 
L 784.669377 231.630127 
L 785.89429 238.788 
L 785.945328 238.486013 
L 786.455709 236.080663 
L 786.659861 237.279579 
L 786.710899 236.9791 
L 786.812975 236.678922 
L 786.864013 236.9788 
L 786.915051 236.678622 
L 787.374393 233.990494 
L 787.425431 234.287683 
L 787.476469 234.58517 
L 787.527507 234.287386 
L 788.446192 229.270373 
L 789.517991 234.877291 
L 789.569029 234.877291 
L 789.620067 234.579214 
L 789.671105 234.876993 
L 790.028371 236.969795 
L 790.079409 236.669626 
L 790.130447 236.369757 
L 790.181485 236.669326 
L 790.793942 240.287604 
L 790.84498 239.984117 
L 791.151208 238.47123 
L 791.610551 240.588964 
L 792.886501 233.084706 
L 793.805186 238.162026 
L 794.468681 234.863281 
L 794.519719 235.161344 
L 794.570757 234.862983 
L 794.928023 233.375354 
L 795.285289 234.860897 
L 795.438403 233.967611 
L 795.489441 234.264778 
L 795.642555 235.158062 
L 795.693594 234.859705 
L 795.999822 233.372389 
L 796.81643 237.551184 
L 796.867468 237.250434 
L 796.918506 237.550883 
L 797.071621 238.152684 
L 797.173697 237.550282 
L 797.224735 237.851031 
L 797.275773 238.152081 
L 797.326811 237.85073 
L 797.377849 237.54968 
L 797.428887 237.850429 
L 798.092381 241.178276 
L 799.215218 234.55182 
L 799.266256 234.849571 
L 799.317294 234.551522 
L 799.929751 230.998102 
L 799.980789 231.292299 
L 800.133903 231.586495 
L 800.542207 229.529177 
L 801.052587 232.174294 
L 801.154664 231.583842 
L 801.205702 231.878625 
L 801.25674 232.173703 
L 801.307778 231.87833 
L 801.460892 231.28847 
L 802.532691 237.23451 
L 803.451375 231.872429 
L 803.502413 232.1675 
L 803.604489 232.758529 
L 803.655527 232.462571 
L 804.063832 230.10554 
L 804.11487 230.398845 
L 805.033554 235.728768 
L 805.084592 235.42984 
L 805.186669 234.832881 
L 805.237707 235.130913 
L 805.288745 235.429243 
L 805.339783 235.130614 
L 805.390821 235.130614 
L 806.105353 239.032255 
L 806.615734 236.023506 
L 806.666772 236.322729 
L 807.024038 237.823035 
L 807.73857 233.933142 
L 807.993761 234.825132 
L 808.504141 231.858266 
L 808.555179 232.153323 
L 808.606217 232.153323 
L 808.759331 232.44838 
L 808.810369 232.152732 
L 808.861407 232.448084 
L 809.524902 236.314642 
L 809.57594 236.015128 
L 809.626978 236.015128 
L 809.780092 235.416999 
L 809.83113 235.715615 
L 809.882168 235.4167 
L 810.08632 234.521749 
L 810.647739 237.813101 
L 810.698777 237.512089 
L 810.749815 237.512089 
L 810.800853 237.8128 
L 810.851891 237.511788 
L 811.617461 233.032564 
L 811.668499 233.328796 
L 812.127842 235.41043 
L 812.17888 235.41043 
L 812.229918 235.709039 
L 812.280956 235.410131 
L 813.710021 227.160976 
L 814.118325 229.199604 
L 814.373515 227.740532 
L 814.424553 228.031471 
L 815.394276 233.318417 
L 815.54739 233.021604 
L 815.955694 235.39968 
L 816.006733 235.101081 
L 816.619189 231.541102 
L 816.670227 231.835842 
L 817.129569 233.906995 
L 817.180607 233.906995 
L 818.15033 238.998105 
L 818.609672 236.588972 
L 818.762787 237.188848 
L 818.813825 236.88846 
L 818.864863 237.188548 
L 818.915901 237.488935 
L 818.966939 237.188247 
L 820.038737 231.237234 
L 820.089776 231.53167 
L 820.140814 231.23694 
L 820.191852 230.942504 
L 820.24289 231.236645 
L 820.293928 231.236645 
L 821.620917 238.384965 
L 822.335449 234.785795 
L 822.386487 234.785795 
L 822.947906 237.478111 
L 822.998944 237.478111 
L 823.509324 240.195055 
L 823.764514 238.681115 
L 823.815552 238.982995 
L 824.019704 239.890448 
L 824.070742 239.587359 
L 824.12178 239.890145 
L 824.223857 240.496627 
L 824.274895 240.192931 
L 824.683199 238.075548 
L 824.836313 238.376521 
L 824.887351 238.376521 
L 825.754998 233.587333 
L 826.112264 235.073937 
L 826.163302 234.775664 
L 826.21434 235.073639 
L 827.235101 240.488123 
L 827.745481 238.066811 
L 828.204824 240.181706 
L 828.255862 240.181706 
L 828.357938 240.485086 
L 828.511052 239.878022 
L 828.56209 240.181099 
L 828.613128 239.877719 
L 829.07247 237.762535 
L 829.123508 238.063497 
L 829.174546 237.762234 
L 829.940117 233.87283 
L 829.991155 234.169902 
L 830.042193 233.872533 
L 830.093231 233.575461 
L 830.144269 233.872236 
L 831.216068 239.870445 
L 832.798247 230.614865 
L 833.053437 232.086876 
L 833.104475 231.79159 
L 833.257589 231.201904 
L 833.563817 232.381275 
L 834.074198 229.438738 
L 834.125236 229.731376 
L 834.227312 230.317529 
L 834.27835 230.024013 
L 834.584578 228.269067 
L 834.635616 228.560535 
L 835.043921 230.902797 
L 835.094959 230.608695 
L 835.248073 229.728153 
L 835.299111 230.02108 
L 836.728176 237.740566 
L 836.779214 237.740566 
L 837.238556 235.341459 
L 837.544784 237.137186 
L 837.595822 236.83685 
L 837.64686 236.536814 
L 837.697899 236.836549 
L 837.851013 237.737557 
L 837.902051 237.43662 
L 838.871773 232.366201 
L 838.922811 232.366201 
L 839.075926 232.957627 
L 839.178002 232.36561 
L 839.22904 232.661174 
L 839.433192 233.846392 
L 839.48423 233.549346 
L 840.658105 227.379554 
L 840.862257 226.798398 
L 840.913295 227.088395 
L 840.964333 226.798108 
L 841.015371 226.508111 
L 841.066409 226.797818 
L 841.270561 227.668679 
L 841.576789 226.217246 
L 843.924539 239.22892 
L 844.843224 233.831243 
L 844.894262 234.128273 
L 845.404642 237.114962 
L 845.45568 236.814648 
L 846.476441 231.459765 
L 846.527479 231.459765 
L 846.578517 231.165106 
L 846.629555 231.45947 
L 847.088897 233.527981 
L 847.395126 232.04731 
L 847.599278 232.933935 
L 847.650316 232.637802 
L 847.701354 232.933639 
L 848.160696 235.609519 
L 848.211734 235.310711 
L 848.569001 233.820847 
L 848.620039 233.820847 
L 849.130419 230.863978 
L 849.181457 231.158041 
L 849.793913 234.709819 
L 849.844951 234.41191 
L 850.457408 230.860156 
L 850.508446 231.154215 
L 852.039587 240.114059 
L 852.090625 239.810746 
L 852.243739 238.902626 
L 852.294777 239.204727 
L 852.447891 239.506828 
L 852.498929 239.506828 
L 852.601006 238.901719 
L 852.652044 239.20382 
L 852.805158 240.111936 
L 852.856196 239.808625 
L 853.213462 237.693924 
L 853.2645 237.994817 
L 853.315538 237.994817 
L 854.285261 232.91528 
L 854.336299 232.91528 
L 854.489413 233.507804 
L 854.591489 232.914687 
L 854.642527 233.210801 
L 854.948755 234.993712 
L 854.999793 234.69552 
L 855.35706 232.616503 
L 855.408098 232.912318 
L 856.37782 237.986384 
L 856.939239 234.988047 
L 856.990277 235.286234 
L 857.041315 234.987748 
L 857.755847 231.428827 
L 858.674532 236.477771 
L 859.23595 233.197759 
L 859.23595 233.197759 
" clip-path="url(#p38841fdd28)" style="fill: none; stroke: #1f77b4; stroke-width: 1.5; stroke-linecap: square"/>
   </g>
   <g id="patch_8">
    <path d="M 532.390909 256.32 
L 532.390909 34.56 
" style="fill: none; stroke: #000000; stroke-width: 0.8; stroke-linejoin: miter; stroke-linecap: square"/>
   </g>
   <g id="patch_9">
    <path d="M 874.8 256.32 
L 874.8 34.56 
" style="fill: none; stroke: #000000; stroke-width: 0.8; stroke-linejoin: miter; stroke-linecap: square"/>
   </g>
   <g id="patch_10">
    <path d="M 532.390909 256.32 
L 874.8 256.32 
" style="fill: none; stroke: #000000; stroke-width: 0.8; stroke-linejoin: miter; stroke-linecap: square"/>
   </g>
   <g id="patch_11">
    <path d="M 532.390909 34.56 
L 874.8 34.56 
" style="fill: none; stroke: #000000; stroke-width: 0.8; stroke-linejoin: miter; stroke-linecap: square"/>
   </g>
  </g>
 </g>
 <defs>
  <clipPath id="p5f14410c96">
   <rect x="121.5" y="34.56" width="342.409091" height="221.76"/>
  </clipPath>
  <clipPath id="p38841fdd28">
   <rect x="532.390909" y="34.56" width="342.409091" height="221.76"/>
  </clipPath>
 </defs>
</svg>
