<?xml version="1.0" encoding="utf-8" standalone="no"?>
<!DOCTYPE svg PUBLIC "-//W3C//DTD SVG 1.1//EN"
  "http://www.w3.org/Graphics/SVG/1.1/DTD/svg11.dtd">
<svg xmlns:xlink="http://www.w3.org/1999/xlink" width="972pt" height="288pt" viewBox="0 0 972 288" xmlns="http://www.w3.org/2000/svg" version="1.1">
 <metadata>
  <rdf:RDF xmlns:dc="http://purl.org/dc/elements/1.1/" xmlns:cc="http://creativecommons.org/ns#" xmlns:rdf="http://www.w3.org/1999/02/22-rdf-syntax-ns#">
   <cc:Work>
    <dc:type rdf:resource="http://purl.org/dc/dcmitype/StillImage"/>
    <dc:date>2024-06-06T17:34:54.031251</dc:date>
    <dc:format>image/svg+xml</dc:format>
    <dc:creator>
     <cc:Agent>
      <dc:title>Matplotlib v3.7.2, https://matplotlib.org/</dc:title>
     </cc:Agent>
    </dc:creator>
   </cc:Work>
  </rdf:RDF>
 </metadata>
 <defs>
  <style type="text/css">*{stroke-linejoin: round; stroke-linecap: butt}</style>
 </defs>
 <g id="figure_1">
  <g id="patch_1">
   <path d="M 0 288 
L 972 288 
L 972 0 
L 0 0 
z
" style="fill: #ffffff"/>
  </g>
  <g id="axes_1">
   <g id="patch_2">
    <path d="M 121.5 256.32 
L 463.909091 256.32 
L 463.909091 34.56 
L 121.5 34.56 
z
" style="fill: #ffffff"/>
   </g>
   <g id="matplotlib.axis_1">
    <g id="xtick_1">
     <g id="line2d_1">
      <defs>
       <path id="m620da7bf59" d="M 0 0 
L 0 3.5 
" style="stroke: #000000; stroke-width: 0.8"/>
      </defs>
      <g>
       <use xlink:href="#m620da7bf59" x="137.06405" y="256.32" style="stroke: #000000; stroke-width: 0.8"/>
      </g>
     </g>
     <g id="text_1">
      <!-- 0 -->
      <g transform="translate(133.8828 270.918437) scale(0.1 -0.1)">
       <defs>
        <path id="DejaVuSans-30" d="M 2034 4250 
Q 1547 4250 1301 3770 
Q 1056 3291 1056 2328 
Q 1056 1369 1301 889 
Q 1547 409 2034 409 
Q 2525 409 2770 889 
Q 3016 1369 3016 2328 
Q 3016 3291 2770 3770 
Q 2525 4250 2034 4250 
z
M 2034 4750 
Q 2819 4750 3233 4129 
Q 3647 3509 3647 2328 
Q 3647 1150 3233 529 
Q 2819 -91 2034 -91 
Q 1250 -91 836 529 
Q 422 1150 422 2328 
Q 422 3509 836 4129 
Q 1250 4750 2034 4750 
z
" transform="scale(0.015625)"/>
       </defs>
       <use xlink:href="#DejaVuSans-30"/>
      </g>
     </g>
    </g>
    <g id="xtick_2">
     <g id="line2d_2">
      <g>
       <use xlink:href="#m620da7bf59" x="189.895175" y="256.32" style="stroke: #000000; stroke-width: 0.8"/>
      </g>
     </g>
     <g id="text_2">
      <!-- 1000 -->
      <g transform="translate(177.170175 270.918437) scale(0.1 -0.1)">
       <defs>
        <path id="DejaVuSans-31" d="M 794 531 
L 1825 531 
L 1825 4091 
L 703 3866 
L 703 4441 
L 1819 4666 
L 2450 4666 
L 2450 531 
L 3481 531 
L 3481 0 
L 794 0 
L 794 531 
z
" transform="scale(0.015625)"/>
       </defs>
       <use xlink:href="#DejaVuSans-31"/>
       <use xlink:href="#DejaVuSans-30" x="63.623047"/>
       <use xlink:href="#DejaVuSans-30" x="127.246094"/>
       <use xlink:href="#DejaVuSans-30" x="190.869141"/>
      </g>
     </g>
    </g>
    <g id="xtick_3">
     <g id="line2d_3">
      <g>
       <use xlink:href="#m620da7bf59" x="242.726301" y="256.32" style="stroke: #000000; stroke-width: 0.8"/>
      </g>
     </g>
     <g id="text_3">
      <!-- 2000 -->
      <g transform="translate(230.001301 270.918437) scale(0.1 -0.1)">
       <defs>
        <path id="DejaVuSans-32" d="M 1228 531 
L 3431 531 
L 3431 0 
L 469 0 
L 469 531 
Q 828 903 1448 1529 
Q 2069 2156 2228 2338 
Q 2531 2678 2651 2914 
Q 2772 3150 2772 3378 
Q 2772 3750 2511 3984 
Q 2250 4219 1831 4219 
Q 1534 4219 1204 4116 
Q 875 4013 500 3803 
L 500 4441 
Q 881 4594 1212 4672 
Q 1544 4750 1819 4750 
Q 2544 4750 2975 4387 
Q 3406 4025 3406 3419 
Q 3406 3131 3298 2873 
Q 3191 2616 2906 2266 
Q 2828 2175 2409 1742 
Q 1991 1309 1228 531 
z
" transform="scale(0.015625)"/>
       </defs>
       <use xlink:href="#DejaVuSans-32"/>
       <use xlink:href="#DejaVuSans-30" x="63.623047"/>
       <use xlink:href="#DejaVuSans-30" x="127.246094"/>
       <use xlink:href="#DejaVuSans-30" x="190.869141"/>
      </g>
     </g>
    </g>
    <g id="xtick_4">
     <g id="line2d_4">
      <g>
       <use xlink:href="#m620da7bf59" x="295.557426" y="256.32" style="stroke: #000000; stroke-width: 0.8"/>
      </g>
     </g>
     <g id="text_4">
      <!-- 3000 -->
      <g transform="translate(282.832426 270.918437) scale(0.1 -0.1)">
       <defs>
        <path id="DejaVuSans-33" d="M 2597 2516 
Q 3050 2419 3304 2112 
Q 3559 1806 3559 1356 
Q 3559 666 3084 287 
Q 2609 -91 1734 -91 
Q 1441 -91 1130 -33 
Q 819 25 488 141 
L 488 750 
Q 750 597 1062 519 
Q 1375 441 1716 441 
Q 2309 441 2620 675 
Q 2931 909 2931 1356 
Q 2931 1769 2642 2001 
Q 2353 2234 1838 2234 
L 1294 2234 
L 1294 2753 
L 1863 2753 
Q 2328 2753 2575 2939 
Q 2822 3125 2822 3475 
Q 2822 3834 2567 4026 
Q 2313 4219 1838 4219 
Q 1578 4219 1281 4162 
Q 984 4106 628 3988 
L 628 4550 
Q 988 4650 1302 4700 
Q 1616 4750 1894 4750 
Q 2613 4750 3031 4423 
Q 3450 4097 3450 3541 
Q 3450 3153 3228 2886 
Q 3006 2619 2597 2516 
z
" transform="scale(0.015625)"/>
       </defs>
       <use xlink:href="#DejaVuSans-33"/>
       <use xlink:href="#DejaVuSans-30" x="63.623047"/>
       <use xlink:href="#DejaVuSans-30" x="127.246094"/>
       <use xlink:href="#DejaVuSans-30" x="190.869141"/>
      </g>
     </g>
    </g>
    <g id="xtick_5">
     <g id="line2d_5">
      <g>
       <use xlink:href="#m620da7bf59" x="348.388552" y="256.32" style="stroke: #000000; stroke-width: 0.8"/>
      </g>
     </g>
     <g id="text_5">
      <!-- 4000 -->
      <g transform="translate(335.663552 270.918437) scale(0.1 -0.1)">
       <defs>
        <path id="DejaVuSans-34" d="M 2419 4116 
L 825 1625 
L 2419 1625 
L 2419 4116 
z
M 2253 4666 
L 3047 4666 
L 3047 1625 
L 3713 1625 
L 3713 1100 
L 3047 1100 
L 3047 0 
L 2419 0 
L 2419 1100 
L 313 1100 
L 313 1709 
L 2253 4666 
z
" transform="scale(0.015625)"/>
       </defs>
       <use xlink:href="#DejaVuSans-34"/>
       <use xlink:href="#DejaVuSans-30" x="63.623047"/>
       <use xlink:href="#DejaVuSans-30" x="127.246094"/>
       <use xlink:href="#DejaVuSans-30" x="190.869141"/>
      </g>
     </g>
    </g>
    <g id="xtick_6">
     <g id="line2d_6">
      <g>
       <use xlink:href="#m620da7bf59" x="401.219677" y="256.32" style="stroke: #000000; stroke-width: 0.8"/>
      </g>
     </g>
     <g id="text_6">
      <!-- 5000 -->
      <g transform="translate(388.494677 270.918437) scale(0.1 -0.1)">
       <defs>
        <path id="DejaVuSans-35" d="M 691 4666 
L 3169 4666 
L 3169 4134 
L 1269 4134 
L 1269 2991 
Q 1406 3038 1543 3061 
Q 1681 3084 1819 3084 
Q 2600 3084 3056 2656 
Q 3513 2228 3513 1497 
Q 3513 744 3044 326 
Q 2575 -91 1722 -91 
Q 1428 -91 1123 -41 
Q 819 9 494 109 
L 494 744 
Q 775 591 1075 516 
Q 1375 441 1709 441 
Q 2250 441 2565 725 
Q 2881 1009 2881 1497 
Q 2881 1984 2565 2268 
Q 2250 2553 1709 2553 
Q 1456 2553 1204 2497 
Q 953 2441 691 2322 
L 691 4666 
z
" transform="scale(0.015625)"/>
       </defs>
       <use xlink:href="#DejaVuSans-35"/>
       <use xlink:href="#DejaVuSans-30" x="63.623047"/>
       <use xlink:href="#DejaVuSans-30" x="127.246094"/>
       <use xlink:href="#DejaVuSans-30" x="190.869141"/>
      </g>
     </g>
    </g>
    <g id="xtick_7">
     <g id="line2d_7">
      <g>
       <use xlink:href="#m620da7bf59" x="454.050803" y="256.32" style="stroke: #000000; stroke-width: 0.8"/>
      </g>
     </g>
     <g id="text_7">
      <!-- 6000 -->
      <g transform="translate(441.325803 270.918437) scale(0.1 -0.1)">
       <defs>
        <path id="DejaVuSans-36" d="M 2113 2584 
Q 1688 2584 1439 2293 
Q 1191 2003 1191 1497 
Q 1191 994 1439 701 
Q 1688 409 2113 409 
Q 2538 409 2786 701 
Q 3034 994 3034 1497 
Q 3034 2003 2786 2293 
Q 2538 2584 2113 2584 
z
M 3366 4563 
L 3366 3988 
Q 3128 4100 2886 4159 
Q 2644 4219 2406 4219 
Q 1781 4219 1451 3797 
Q 1122 3375 1075 2522 
Q 1259 2794 1537 2939 
Q 1816 3084 2150 3084 
Q 2853 3084 3261 2657 
Q 3669 2231 3669 1497 
Q 3669 778 3244 343 
Q 2819 -91 2113 -91 
Q 1303 -91 875 529 
Q 447 1150 447 2328 
Q 447 3434 972 4092 
Q 1497 4750 2381 4750 
Q 2619 4750 2861 4703 
Q 3103 4656 3366 4563 
z
" transform="scale(0.015625)"/>
       </defs>
       <use xlink:href="#DejaVuSans-36"/>
       <use xlink:href="#DejaVuSans-30" x="63.623047"/>
       <use xlink:href="#DejaVuSans-30" x="127.246094"/>
       <use xlink:href="#DejaVuSans-30" x="190.869141"/>
      </g>
     </g>
    </g>
   </g>
   <g id="matplotlib.axis_2">
    <g id="ytick_1">
     <g id="line2d_8">
      <defs>
       <path id="mf6277c6c2b" d="M 0 0 
L -3.5 0 
" style="stroke: #000000; stroke-width: 0.8"/>
      </defs>
      <g>
       <use xlink:href="#mf6277c6c2b" x="121.5" y="251.839082" style="stroke: #000000; stroke-width: 0.8"/>
      </g>
     </g>
     <g id="text_8">
      <!-- −4.5 -->
      <g transform="translate(90.217187 255.638301) scale(0.1 -0.1)">
       <defs>
        <path id="DejaVuSans-2212" d="M 678 2272 
L 4684 2272 
L 4684 1741 
L 678 1741 
L 678 2272 
z
" transform="scale(0.015625)"/>
        <path id="DejaVuSans-2e" d="M 684 794 
L 1344 794 
L 1344 0 
L 684 0 
L 684 794 
z
" transform="scale(0.015625)"/>
       </defs>
       <use xlink:href="#DejaVuSans-2212"/>
       <use xlink:href="#DejaVuSans-34" x="83.789062"/>
       <use xlink:href="#DejaVuSans-2e" x="147.412109"/>
       <use xlink:href="#DejaVuSans-35" x="179.199219"/>
      </g>
     </g>
    </g>
    <g id="ytick_2">
     <g id="line2d_9">
      <g>
       <use xlink:href="#mf6277c6c2b" x="121.5" y="210.399266" style="stroke: #000000; stroke-width: 0.8"/>
      </g>
     </g>
     <g id="text_9">
      <!-- −4.0 -->
      <g transform="translate(90.217187 214.198485) scale(0.1 -0.1)">
       <use xlink:href="#DejaVuSans-2212"/>
       <use xlink:href="#DejaVuSans-34" x="83.789062"/>
       <use xlink:href="#DejaVuSans-2e" x="147.412109"/>
       <use xlink:href="#DejaVuSans-30" x="179.199219"/>
      </g>
     </g>
    </g>
    <g id="ytick_3">
     <g id="line2d_10">
      <g>
       <use xlink:href="#mf6277c6c2b" x="121.5" y="168.959449" style="stroke: #000000; stroke-width: 0.8"/>
      </g>
     </g>
     <g id="text_10">
      <!-- −3.5 -->
      <g transform="translate(90.217187 172.758668) scale(0.1 -0.1)">
       <use xlink:href="#DejaVuSans-2212"/>
       <use xlink:href="#DejaVuSans-33" x="83.789062"/>
       <use xlink:href="#DejaVuSans-2e" x="147.412109"/>
       <use xlink:href="#DejaVuSans-35" x="179.199219"/>
      </g>
     </g>
    </g>
    <g id="ytick_4">
     <g id="line2d_11">
      <g>
       <use xlink:href="#mf6277c6c2b" x="121.5" y="127.519633" style="stroke: #000000; stroke-width: 0.8"/>
      </g>
     </g>
     <g id="text_11">
      <!-- −3.0 -->
      <g transform="translate(90.217187 131.318852) scale(0.1 -0.1)">
       <use xlink:href="#DejaVuSans-2212"/>
       <use xlink:href="#DejaVuSans-33" x="83.789062"/>
       <use xlink:href="#DejaVuSans-2e" x="147.412109"/>
       <use xlink:href="#DejaVuSans-30" x="179.199219"/>
      </g>
     </g>
    </g>
    <g id="ytick_5">
     <g id="line2d_12">
      <g>
       <use xlink:href="#mf6277c6c2b" x="121.5" y="86.079816" style="stroke: #000000; stroke-width: 0.8"/>
      </g>
     </g>
     <g id="text_12">
      <!-- −2.5 -->
      <g transform="translate(90.217187 89.879035) scale(0.1 -0.1)">
       <use xlink:href="#DejaVuSans-2212"/>
       <use xlink:href="#DejaVuSans-32" x="83.789062"/>
       <use xlink:href="#DejaVuSans-2e" x="147.412109"/>
       <use xlink:href="#DejaVuSans-35" x="179.199219"/>
      </g>
     </g>
    </g>
    <g id="ytick_6">
     <g id="line2d_13">
      <g>
       <use xlink:href="#mf6277c6c2b" x="121.5" y="44.64" style="stroke: #000000; stroke-width: 0.8"/>
      </g>
     </g>
     <g id="text_13">
      <!-- −2.0 -->
      <g transform="translate(90.217187 48.439219) scale(0.1 -0.1)">
       <use xlink:href="#DejaVuSans-2212"/>
       <use xlink:href="#DejaVuSans-32" x="83.789062"/>
       <use xlink:href="#DejaVuSans-2e" x="147.412109"/>
       <use xlink:href="#DejaVuSans-30" x="179.199219"/>
      </g>
     </g>
    </g>
   </g>
   <g id="line2d_14">
    <path d="M 137.06405 44.64 
L 140.550904 55.943371 
L 144.037758 68.017536 
L 147.471781 80.713224 
L 150.905804 94.261102 
L 154.339828 108.718372 
L 157.773851 124.146078 
L 161.207874 140.609359 
L 164.589066 157.341508 
L 164.641897 157.063048 
L 164.694728 156.784865 
L 164.747559 157.062769 
L 166.121169 163.816483 
L 166.279662 163.246896 
L 169.238205 179.316877 
L 169.291036 179.016441 
L 169.44953 178.41647 
L 170.083503 181.425342 
L 171.245788 175.135039 
L 171.298619 175.135039 
L 171.404281 175.727844 
L 171.457112 175.430997 
L 172.143917 172.185205 
L 172.249579 172.185205 
L 172.513735 173.065999 
L 172.883553 173.065999 
L 173.517526 176.021125 
L 173.570357 176.021125 
L 173.623188 176.318266 
L 173.67602 176.020828 
L 173.834513 175.426845 
L 173.940175 176.020234 
L 173.993006 175.723094 
L 174.204331 174.537505 
L 174.257162 174.833162 
L 174.309993 174.833162 
L 175.947758 183.841683 
L 176.05342 183.536722 
L 177.374198 190.62143 
L 177.42703 190.62143 
L 177.532692 190.30969 
L 178.008172 193.123788 
L 178.061003 192.809545 
L 179.698768 183.526974 
L 179.80443 184.136571 
L 179.857261 183.831315 
L 180.332741 181.400232 
L 180.596897 182.612126 
L 180.808222 181.399022 
L 180.861053 181.70154 
L 181.019546 182.307485 
L 181.072377 182.004058 
L 181.125208 182.307181 
L 181.230871 182.610608 
L 181.864844 178.985829 
L 181.917675 179.285934 
L 182.234662 180.790967 
L 182.340324 180.489056 
L 182.445986 180.790665 
L 182.657311 179.88584 
L 182.815804 180.789759 
L 182.868635 180.48785 
L 182.921467 180.48785 
L 183.291284 178.982828 
L 183.344116 178.982828 
L 184.347907 184.125582 
L 184.453569 184.125582 
L 184.823387 185.654862 
L 184.876218 185.654862 
L 185.298867 183.818812 
L 185.351698 183.818812 
L 185.88001 180.783117 
L 185.932841 181.08502 
L 185.985672 181.08502 
L 186.302659 179.877713 
L 186.513983 179.877713 
L 187.042294 182.294134 
L 187.095125 182.294134 
L 187.834761 178.373339 
L 187.940423 178.672832 
L 188.891384 173.911966 
L 188.944215 173.911966 
L 190.264993 181.376939 
L 190.317824 181.074443 
L 190.370655 180.772249 
L 190.423486 181.07414 
L 191.004629 184.414938 
L 191.05746 184.109404 
L 191.691433 180.466738 
L 191.744265 180.768324 
L 191.955589 181.372401 
L 192.114082 181.06991 
L 192.4839 182.887584 
L 192.536731 182.583577 
L 192.589563 182.88728 
L 192.695225 182.88728 
L 192.800887 183.495597 
L 192.853718 183.190982 
L 193.065043 182.278964 
L 193.223536 183.190069 
L 193.276367 182.88576 
L 193.963172 179.558375 
L 194.016003 179.558375 
L 194.227327 180.46131 
L 194.438652 179.557472 
L 195.389612 185.015904 
L 195.442443 184.709768 
L 196.023586 181.968291 
L 196.076417 181.968291 
L 196.499066 184.401495 
L 196.551897 184.095974 
L 196.974546 182.269255 
L 198.770804 192.129684 
L 199.087791 190.566569 
L 199.51044 192.441365 
L 199.563271 192.127805 
L 199.616102 192.441052 
L 199.774596 193.068486 
L 200.144413 191.500686 
L 201.676516 200.052074 
L 201.993503 198.769315 
L 202.521814 201.337398 
L 202.574645 201.014941 
L 202.627476 201.337076 
L 203.472774 206.207926 
L 203.631268 205.226926 
L 203.684099 205.553272 
L 203.789761 205.553272 
L 204.001086 204.574234 
L 204.053917 204.899928 
L 204.106748 204.573909 
L 204.68789 201.654368 
L 204.740721 201.654368 
L 205.16337 203.595857 
L 205.216202 203.595857 
L 206.008668 207.842246 
L 206.0615 207.842246 
L 206.167162 207.513284 
L 207.01246 212.477429 
L 208.386069 203.911472 
L 208.544562 204.887539 
L 208.597394 204.561532 
L 209.654016 198.428974 
L 209.706847 198.428974 
L 209.918172 199.709086 
L 209.971003 199.388257 
L 210.023834 199.388257 
L 210.129496 200.029593 
L 210.182327 199.708444 
L 210.76347 196.832518 
L 211.186119 199.064868 
L 211.450274 198.105276 
L 212.401235 203.251355 
L 212.454066 203.251355 
L 213.669182 196.189634 
L 214.091831 198.737008 
L 214.144662 198.417151 
L 214.303155 197.4595 
L 214.355986 197.778079 
L 215.676764 205.193967 
L 216.152245 202.916615 
L 216.205076 202.916615 
L 217.050374 198.409482 
L 217.103205 198.409482 
L 217.208867 198.089954 
L 218.476814 205.186788 
L 219.269281 200.326311 
L 219.322112 200.647757 
L 220.907046 209.779922 
L 221.488188 206.485781 
L 221.752344 208.127085 
L 221.805175 207.797839 
L 221.910837 207.797839 
L 221.963668 208.126756 
L 222.016499 207.79751 
L 222.914629 202.250435 
L 222.96746 202.573805 
L 223.178784 203.221514 
L 223.707095 200.635852 
L 223.971251 202.247848 
L 224.024082 201.924481 
L 224.076913 201.601437 
L 224.129744 201.924158 
L 224.182576 201.924158 
L 226.084496 213.09081 
L 226.612807 209.763708 
L 226.665639 210.094591 
L 227.19395 213.421674 
L 227.246781 213.087133 
L 227.510937 212.085516 
L 227.563768 212.085516 
L 227.933586 213.754876 
L 227.986417 213.754876 
L 228.514728 211.08524 
L 228.62039 211.417445 
L 229.412857 206.792071 
L 230.046831 210.748722 
L 230.099662 210.416854 
L 230.152493 210.416854 
L 230.627973 207.773829 
L 230.892129 208.761495 
L 230.94496 208.761495 
L 232.529893 199.00724 
L 235.435605 216.085131 
L 235.594099 215.41106 
L 235.752592 215.747253 
L 235.963917 214.401807 
L 236.016748 214.737328 
L 236.809215 219.810595 
L 236.862046 219.469665 
L 237.126201 218.448581 
L 237.231864 218.448581 
L 237.443188 219.128056 
L 237.654513 219.128056 
L 238.816797 212.053863 
L 238.869629 212.053863 
L 239.39794 214.728596 
L 239.450771 214.728596 
L 239.609264 214.057236 
L 239.926251 215.399955 
L 240.031913 215.399955 
L 240.084744 215.736474 
L 240.137576 215.399618 
L 240.296069 215.399618 
L 240.401731 215.736137 
L 241.141367 211.716031 
L 241.29986 211.716031 
L 242.620638 219.456042 
L 242.67347 219.456042 
L 242.779132 218.775232 
L 242.831963 219.115127 
L 242.884794 219.115127 
L 243.14895 217.756229 
L 244.047079 223.563431 
L 244.09991 223.218748 
L 245.262195 216.059505 
L 245.315026 216.059505 
L 245.420688 216.396684 
L 245.579181 215.721989 
L 246.213155 219.1056 
L 246.318817 218.765375 
L 246.952791 222.179557 
L 247.428271 219.783663 
L 247.481102 219.783663 
L 248.749049 227.362803 
L 248.80188 227.362803 
L 249.118867 225.623874 
L 249.700009 228.757075 
L 249.805672 228.757075 
L 250.069827 227.011188 
L 250.122658 227.359319 
L 250.545307 229.455424 
L 251.813254 221.480284 
L 252.764215 227.003181 
L 253.715175 221.474802 
L 254.084993 219.083826 
L 254.137824 219.42403 
L 254.824628 223.5331 
L 255.617095 218.739205 
L 255.934082 220.10068 
L 256.832211 215.018054 
L 256.937873 215.018054 
L 257.25486 213.340725 
L 257.73034 216.362934 
L 257.783171 216.025452 
L 258.734132 210.339615 
L 258.839794 211.002864 
L 258.892625 210.670742 
L 258.945456 210.670742 
L 258.998287 210.338952 
L 259.051118 210.67041 
L 261.164364 223.514145 
L 261.270026 223.514145 
L 261.48135 224.894748 
L 261.534181 224.548734 
L 261.639844 224.548734 
L 261.95683 223.168134 
L 262.115324 223.512422 
L 262.326648 222.47956 
L 262.432311 223.167101 
L 262.485142 222.822815 
L 262.537973 222.478873 
L 262.590804 222.822471 
L 263.436102 227.668731 
L 263.594595 227.319943 
L 264.968205 235.779362 
L 265.760671 230.815129 
L 265.813503 231.167064 
L 265.866334 230.814777 
L 265.971996 230.111261 
L 266.024827 230.462492 
L 266.658801 233.994173 
L 266.711632 233.639059 
L 266.764463 233.993818 
L 267.873916 241.163957 
L 268.824877 235.410698 
L 269.881499 228.347434 
L 270.304148 230.449132 
L 270.356979 230.449132 
L 270.673966 231.857516 
L 270.726797 231.50454 
L 270.779628 231.857163 
L 270.990953 232.563116 
L 271.096615 232.209433 
L 271.994744 238.264315 
L 272.047575 237.904931 
L 272.417393 235.756164 
L 272.575887 236.827862 
L 272.628718 236.469914 
L 272.892873 235.398219 
L 273.157029 236.82643 
L 273.949496 231.847633 
L 274.002327 232.2006 
L 274.055158 231.84728 
L 274.266483 231.1417 
L 274.847625 234.32476 
L 274.900456 233.969316 
L 274.953287 234.324404 
L 275.481599 237.177926 
L 275.53443 237.177926 
L 276.168403 240.777064 
L 276.749546 237.532995 
L 276.855208 237.891648 
L 276.908039 237.532637 
L 276.96087 237.891289 
L 278.228817 246.24 
L 278.492973 245.139024 
L 278.545804 245.139024 
L 281.081698 227.965501 
L 281.18736 228.66402 
L 281.240191 228.314237 
L 282.191151 222.421153 
L 282.560969 224.141949 
L 282.6138 224.141949 
L 282.719463 223.451772 
L 282.772294 223.796343 
L 282.825125 223.796343 
L 283.089281 225.178076 
L 283.194943 224.485828 
L 283.247774 224.831433 
L 283.300605 224.831433 
L 284.145903 230.408352 
L 284.198734 230.056825 
L 284.251565 230.056825 
L 284.357228 229.354824 
L 284.410059 229.705298 
L 284.568552 230.407298 
L 285.202526 226.212103 
L 285.255357 226.559434 
L 285.88933 230.754602 
L 285.942161 230.402728 
L 286.047824 229.700035 
L 286.100655 230.050855 
L 286.628966 233.224058 
L 286.734628 232.869714 
L 286.787459 233.223703 
L 286.840291 232.86936 
L 286.893122 232.86936 
L 287.210108 231.102953 
L 287.368602 232.160677 
L 287.421433 231.807397 
L 287.527095 231.807397 
L 288.108238 227.944557 
L 288.161069 228.293621 
L 288.2139 228.643033 
L 288.266731 228.293271 
L 288.425224 227.594795 
L 288.847873 230.043129 
L 289.481847 226.547265 
L 289.587509 227.242946 
L 289.64034 226.894584 
L 289.904496 225.157991 
L 289.957327 225.504269 
L 290.538469 228.636388 
L 292.229065 217.955038 
L 292.334728 218.294112 
L 292.44039 217.615625 
L 292.493221 217.95436 
L 292.757377 218.972598 
L 293.021532 217.61427 
L 293.338519 219.651759 
L 293.39135 219.310988 
L 294.500804 212.232992 
L 294.553635 212.566344 
L 294.606466 212.232659 
L 295.081946 209.244464 
L 295.134777 209.574828 
L 295.187608 209.574828 
L 296.032906 214.570113 
L 296.297062 213.229368 
L 298.991449 230.011877 
L 299.94241 224.435718 
L 300.048072 225.127174 
L 300.100903 224.780928 
L 300.206565 224.780928 
L 300.734877 222.023392 
L 300.787708 222.023392 
L 301.527343 226.51111 
L 301.580175 226.16348 
L 301.633006 226.510762 
L 302.002824 228.601764 
L 302.478304 226.161049 
L 302.531135 226.161049 
L 302.742459 226.855957 
L 303.587757 222.015843 
L 303.640588 222.015843 
L 304.538718 216.22898 
L 304.591549 216.566328 
L 304.64438 216.566328 
L 305.965158 224.419132 
L 306.017989 224.419132 
L 306.704794 220.637158 
L 306.757625 220.637158 
L 306.968949 221.321012 
L 307.02178 221.321012 
L 308.923701 209.206475 
L 309.768999 214.196196 
L 310.825622 207.882217 
L 311.353933 211.187077 
L 311.406764 210.85477 
L 311.565257 210.191154 
L 311.829413 211.851023 
L 311.882244 211.518052 
L 312.62188 206.891279 
L 312.674711 207.21929 
L 314.5238 218.22963 
L 314.576631 218.22963 
L 315.527592 224.044944 
L 315.791747 223.010487 
L 316.161565 225.426634 
L 316.214396 225.080088 
L 316.425721 224.38769 
L 317.376681 229.957105 
L 317.957823 226.114516 
L 318.010655 226.46175 
L 318.75029 231.359641 
L 318.803121 231.007162 
L 318.961615 230.303261 
L 319.120108 230.654332 
L 319.331433 230.654332 
L 319.595588 229.600066 
L 319.648419 229.950786 
L 319.701251 229.599715 
L 319.754082 229.248996 
L 319.806913 229.599365 
L 320.018237 231.004345 
L 320.071068 230.652221 
L 320.1239 230.652221 
L 321.07486 225.065894 
L 321.127691 225.065894 
L 321.444678 222.993969 
L 321.497509 223.338082 
L 321.603171 223.682539 
L 322.02582 221.276155 
L 322.289976 222.647793 
L 322.395638 222.304026 
L 322.606963 222.991216 
L 322.712625 222.991216 
L 323.135274 220.931708 
L 323.557923 223.33326 
L 324.086234 220.587265 
L 324.984363 225.748551 
L 325.037194 225.748551 
L 325.090025 226.095419 
L 325.142857 225.748204 
L 325.195688 225.748204 
L 327.20327 238.816032 
L 328.259893 231.685306 
L 328.365555 232.391268 
L 328.418386 232.037757 
L 329.105191 228.172395 
L 329.158022 228.172395 
L 329.316515 229.221318 
L 329.369347 228.870978 
L 329.739164 227.124523 
L 329.791996 227.472767 
L 329.844827 227.124175 
L 330.795787 221.593875 
L 331.007111 222.623042 
L 331.641085 219.201047 
L 332.116565 221.933157 
L 332.275058 220.905029 
L 332.32789 221.247053 
L 332.433552 221.932128 
L 332.486383 221.589077 
L 332.539214 221.246368 
L 332.592045 221.588734 
L 333.173188 224.685472 
L 333.226019 224.685472 
L 333.807161 227.810193 
L 333.859992 227.810193 
L 334.282641 230.260039 
L 334.441135 229.90866 
L 334.810953 231.667313 
L 335.444926 227.457081 
L 335.497757 227.805657 
L 335.550588 228.154582 
L 335.603419 227.805308 
L 335.761913 227.107808 
L 336.026068 228.852429 
L 336.0789 228.502457 
L 336.818535 224.329995 
L 336.871366 224.329995 
L 337.135522 225.367379 
L 337.188353 225.020893 
L 337.241184 225.367033 
L 337.98082 230.249498 
L 338.033651 229.898129 
L 338.984611 223.978334 
L 340.833701 235.550663 
L 340.939363 235.550663 
L 342.260141 227.088308 
L 342.365803 227.436515 
L 342.471466 227.087959 
L 342.841284 228.832131 
L 342.894115 228.832131 
L 343.316764 230.937096 
L 343.369595 230.937096 
L 343.422426 230.585039 
L 343.475257 230.936744 
L 344.320555 236.612084 
L 344.373386 236.254353 
L 344.743204 234.115465 
L 344.796035 234.470699 
L 344.848866 234.11511 
L 346.011151 226.729317 
L 346.116813 227.425362 
L 346.169645 227.076817 
L 346.539462 225.339315 
L 346.803618 226.727229 
L 347.120605 224.645361 
L 347.173436 224.991126 
L 347.226267 224.991126 
L 347.543254 222.919648 
L 347.596085 223.263687 
L 348.28289 227.419088 
L 348.335721 227.070549 
L 348.388552 227.418739 
L 348.441383 227.418739 
L 348.599876 226.722012 
L 348.811201 228.115465 
L 348.864032 227.766231 
L 349.392343 224.638792 
L 350.026317 228.461204 
L 350.818784 223.943826 
L 350.871615 223.943826 
L 351.241433 225.672595 
L 351.294264 225.672595 
L 351.61125 223.597039 
L 351.664082 223.941755 
L 351.822575 224.632222 
L 352.773535 218.801235 
L 353.301846 222.215777 
L 353.354678 221.872442 
L 354.305638 216.087998 
L 354.516962 217.100631 
L 354.675456 216.42453 
L 355.732078 222.552239 
L 356.683038 217.094205 
L 357.68683 211.057835 
L 357.950986 212.05503 
L 358.056648 212.05503 
L 358.584959 215.06562 
L 358.690621 214.393587 
L 358.743452 214.7291 
L 359.747244 220.82603 
L 361.754827 208.399155 
L 362.124644 210.381215 
L 362.3888 209.057201 
L 362.494462 209.387377 
L 362.705787 208.067333 
L 362.758618 208.396519 
L 363.920903 215.722494 
L 363.973734 215.385653 
L 364.026565 215.385653 
L 364.185058 215.722158 
L 364.396383 214.712644 
L 364.660538 216.395165 
L 364.71337 216.05765 
L 364.766201 216.05765 
L 364.924694 215.720473 
L 364.977525 215.720473 
L 365.347343 217.407705 
L 365.66433 215.381615 
L 365.717161 215.718116 
L 366.298303 219.441909 
L 366.351134 219.101347 
L 366.720952 217.403643 
L 366.826615 217.742166 
L 367.037939 216.726598 
L 367.830406 221.829914 
L 367.883237 221.486965 
L 367.936068 221.486965 
L 369.573833 211.35643 
L 369.626664 211.35643 
L 369.732327 211.023954 
L 369.996482 212.687995 
L 370.049313 212.354188 
L 370.102144 212.020714 
L 370.154976 212.353854 
L 370.207807 212.353854 
L 373.113519 231.198947 
L 373.16635 230.846629 
L 373.905985 226.646191 
L 373.958817 226.646191 
L 374.751283 231.899347 
L 374.804115 231.546328 
L 374.856946 231.546328 
L 375.649413 226.293214 
L 375.702244 226.640626 
L 376.283386 229.782663 
L 376.336217 229.431761 
L 376.389048 229.782312 
L 376.91736 232.59937 
L 377.86832 226.98212 
L 378.396631 223.516729 
L 378.449462 223.861365 
L 379.241929 228.722613 
L 379.823071 225.239896 
L 381.14385 234.003583 
L 381.196681 233.648461 
L 382.358966 226.27237 
L 382.517459 226.27237 
L 382.57029 226.619761 
L 382.623121 226.272022 
L 384.842028 212.310172 
L 384.89486 212.310172 
L 385.687326 217.346776 
L 385.740158 217.00831 
L 385.792989 217.00831 
L 386.004313 217.684903 
L 386.109975 217.007634 
L 386.162807 217.345761 
L 388.011896 229.045492 
L 389.227012 221.422218 
L 389.279843 221.422218 
L 389.59683 219.712933 
L 391.02327 228.336426 
L 391.076101 228.336426 
L 391.340257 227.289107 
L 393.611995 241.863295 
L 395.566747 229.022031 
L 396.306383 233.246913 
L 396.517707 232.184878 
L 396.623369 232.538182 
L 396.834694 231.83122 
L 396.887525 231.83122 
L 397.151681 232.891131 
L 397.310174 232.537121 
L 398.366797 238.957335 
L 398.472459 238.957335 
L 399.317757 233.239117 
L 399.370588 233.593476 
L 399.423419 233.948189 
L 399.47625 233.593121 
L 399.793237 232.176398 
L 399.846068 232.176398 
L 400.215886 229.710736 
L 400.268717 230.061566 
L 400.585704 231.820985 
L 400.797028 230.763223 
L 401.272508 233.942863 
L 401.32534 233.5878 
L 401.378171 233.5878 
L 401.747989 235.364886 
L 401.853651 235.364886 
L 402.646118 230.758296 
L 402.75178 231.110174 
L 402.910273 230.406067 
L 403.491416 233.58248 
L 403.544247 233.58248 
L 403.649909 233.937182 
L 404.125389 231.106652 
L 404.389545 232.871307 
L 404.442376 232.517317 
L 405.868816 223.092227 
L 406.02731 224.125894 
L 406.080141 223.780649 
L 406.238634 222.746984 
L 406.291465 223.09085 
L 406.449959 223.779615 
L 407.031101 220.346105 
L 408.510373 229.336074 
L 408.563204 229.336074 
L 408.721697 229.686178 
L 408.774528 229.686178 
L 410.2538 220.336544 
L 410.306631 220.336544 
L 410.465124 219.995088 
L 411.521747 226.187617 
L 411.785902 224.800471 
L 411.891565 225.146391 
L 412.261383 222.729791 
L 412.314214 223.07364 
L 412.472707 224.107252 
L 412.525538 223.762025 
L 412.578369 223.417144 
L 412.6312 223.76168 
L 412.684032 223.76168 
L 412.842525 224.797358 
L 412.895356 224.451442 
L 413.846316 218.28376 
L 414.374628 221.008507 
L 414.427459 221.008507 
L 414.638783 222.379072 
L 414.691614 222.035574 
L 414.744445 222.035574 
L 415.536912 216.924127 
L 415.589743 217.26217 
L 416.804859 225.131156 
L 416.85769 224.784905 
L 417.069015 223.403363 
L 417.121846 223.747885 
L 417.227508 223.747885 
L 417.597326 222.026995 
L 417.702989 222.026995 
L 418.2313 218.610933 
L 418.284131 218.950663 
L 418.336962 218.950663 
L 420.397376 232.468518 
L 420.450207 232.11493 
L 421.295505 226.505374 
L 421.348336 226.852999 
L 421.401167 227.200971 
L 421.453998 226.852651 
L 421.770985 225.462849 
L 422.404959 229.644786 
L 422.45779 229.294022 
L 423.091763 225.458691 
L 423.620075 228.590398 
L 425.257839 217.910452 
L 425.574826 219.608995 
L 425.891813 217.569729 
L 425.944644 217.908418 
L 428.639031 234.570101 
L 428.691863 234.570101 
L 430.171134 225.090301 
L 430.91077 229.618129 
L 431.069263 229.267391 
L 431.174926 229.617778 
L 431.967392 224.393391 
L 432.020224 224.738903 
L 432.125886 224.738903 
L 432.918353 219.928236 
L 433.076846 220.269284 
L 433.182508 220.269284 
L 433.288171 219.927895 
L 433.605157 221.636545 
L 433.763651 220.951376 
L 433.922144 221.635859 
L 434.027806 220.950692 
L 434.080637 221.292762 
L 434.450455 223.00825 
L 435.876896 214.171886 
L 435.929727 214.171886 
L 436.722194 218.55692 
L 437.356167 215.175403 
L 437.514661 215.848328 
L 438.307127 211.161324 
L 438.465621 212.159163 
L 438.518452 211.825884 
L 438.571283 211.825884 
L 439.627906 205.229863 
L 439.786399 206.20989 
L 439.83923 205.882561 
L 439.892061 205.555559 
L 439.944892 205.882234 
L 441.68832 216.172816 
L 441.846813 215.835524 
L 442.058137 216.847399 
L 442.797773 212.146498 
L 442.850604 212.479764 
L 442.903435 212.479764 
L 443.167591 211.479968 
L 443.854396 215.829796 
L 443.907227 215.492847 
L 444.224214 213.478216 
L 444.277045 213.812814 
L 445.01668 217.854178 
L 445.228005 216.838274 
L 445.861978 220.232757 
L 445.967641 219.550395 
L 446.020472 219.891064 
L 446.073303 220.232075 
L 446.126134 219.890723 
L 446.231796 219.890723 
L 446.39029 219.209044 
L 446.495952 219.890041 
L 446.548783 219.549032 
L 446.918601 217.849094 
L 446.971432 217.849094 
L 448.186548 225.039065 
L 448.239379 225.039065 
L 448.345041 225.385224 
L 448.345041 225.385224 
" clip-path="url(#pc626cd74e2)" style="fill: none; stroke: #1f77b4; stroke-width: 1.5; stroke-linecap: square"/>
   </g>
   <g id="patch_3">
    <path d="M 121.5 256.32 
L 121.5 34.56 
" style="fill: none; stroke: #000000; stroke-width: 0.8; stroke-linejoin: miter; stroke-linecap: square"/>
   </g>
   <g id="patch_4">
    <path d="M 463.909091 256.32 
L 463.909091 34.56 
" style="fill: none; stroke: #000000; stroke-width: 0.8; stroke-linejoin: miter; stroke-linecap: square"/>
   </g>
   <g id="patch_5">
    <path d="M 121.5 256.32 
L 463.909091 256.32 
" style="fill: none; stroke: #000000; stroke-width: 0.8; stroke-linejoin: miter; stroke-linecap: square"/>
   </g>
   <g id="patch_6">
    <path d="M 121.5 34.56 
L 463.909091 34.56 
" style="fill: none; stroke: #000000; stroke-width: 0.8; stroke-linejoin: miter; stroke-linecap: square"/>
   </g>
  </g>
  <g id="axes_2">
   <g id="patch_7">
    <path d="M 532.390909 256.32 
L 874.8 256.32 
L 874.8 34.56 
L 532.390909 34.56 
z
" style="fill: #ffffff"/>
   </g>
   <g id="matplotlib.axis_3">
    <g id="xtick_8">
     <g id="line2d_15">
      <g>
       <use xlink:href="#m620da7bf59" x="547.954959" y="256.32" style="stroke: #000000; stroke-width: 0.8"/>
      </g>
     </g>
     <g id="text_14">
      <!-- 0 -->
      <g transform="translate(544.773709 270.918437) scale(0.1 -0.1)">
       <use xlink:href="#DejaVuSans-30"/>
      </g>
     </g>
    </g>
    <g id="xtick_9">
     <g id="line2d_16">
      <g>
       <use xlink:href="#m620da7bf59" x="600.786084" y="256.32" style="stroke: #000000; stroke-width: 0.8"/>
      </g>
     </g>
     <g id="text_15">
      <!-- 1000 -->
      <g transform="translate(588.061084 270.918437) scale(0.1 -0.1)">
       <use xlink:href="#DejaVuSans-31"/>
       <use xlink:href="#DejaVuSans-30" x="63.623047"/>
       <use xlink:href="#DejaVuSans-30" x="127.246094"/>
       <use xlink:href="#DejaVuSans-30" x="190.869141"/>
      </g>
     </g>
    </g>
    <g id="xtick_10">
     <g id="line2d_17">
      <g>
       <use xlink:href="#m620da7bf59" x="653.61721" y="256.32" style="stroke: #000000; stroke-width: 0.8"/>
      </g>
     </g>
     <g id="text_16">
      <!-- 2000 -->
      <g transform="translate(640.89221 270.918437) scale(0.1 -0.1)">
       <use xlink:href="#DejaVuSans-32"/>
       <use xlink:href="#DejaVuSans-30" x="63.623047"/>
       <use xlink:href="#DejaVuSans-30" x="127.246094"/>
       <use xlink:href="#DejaVuSans-30" x="190.869141"/>
      </g>
     </g>
    </g>
    <g id="xtick_11">
     <g id="line2d_18">
      <g>
       <use xlink:href="#m620da7bf59" x="706.448335" y="256.32" style="stroke: #000000; stroke-width: 0.8"/>
      </g>
     </g>
     <g id="text_17">
      <!-- 3000 -->
      <g transform="translate(693.723335 270.918437) scale(0.1 -0.1)">
       <use xlink:href="#DejaVuSans-33"/>
       <use xlink:href="#DejaVuSans-30" x="63.623047"/>
       <use xlink:href="#DejaVuSans-30" x="127.246094"/>
       <use xlink:href="#DejaVuSans-30" x="190.869141"/>
      </g>
     </g>
    </g>
    <g id="xtick_12">
     <g id="line2d_19">
      <g>
       <use xlink:href="#m620da7bf59" x="759.279461" y="256.32" style="stroke: #000000; stroke-width: 0.8"/>
      </g>
     </g>
     <g id="text_18">
      <!-- 4000 -->
      <g transform="translate(746.554461 270.918437) scale(0.1 -0.1)">
       <use xlink:href="#DejaVuSans-34"/>
       <use xlink:href="#DejaVuSans-30" x="63.623047"/>
       <use xlink:href="#DejaVuSans-30" x="127.246094"/>
       <use xlink:href="#DejaVuSans-30" x="190.869141"/>
      </g>
     </g>
    </g>
    <g id="xtick_13">
     <g id="line2d_20">
      <g>
       <use xlink:href="#m620da7bf59" x="812.110586" y="256.32" style="stroke: #000000; stroke-width: 0.8"/>
      </g>
     </g>
     <g id="text_19">
      <!-- 5000 -->
      <g transform="translate(799.385586 270.918437) scale(0.1 -0.1)">
       <use xlink:href="#DejaVuSans-35"/>
       <use xlink:href="#DejaVuSans-30" x="63.623047"/>
       <use xlink:href="#DejaVuSans-30" x="127.246094"/>
       <use xlink:href="#DejaVuSans-30" x="190.869141"/>
      </g>
     </g>
    </g>
    <g id="xtick_14">
     <g id="line2d_21">
      <g>
       <use xlink:href="#m620da7bf59" x="864.941712" y="256.32" style="stroke: #000000; stroke-width: 0.8"/>
      </g>
     </g>
     <g id="text_20">
      <!-- 6000 -->
      <g transform="translate(852.216712 270.918437) scale(0.1 -0.1)">
       <use xlink:href="#DejaVuSans-36"/>
       <use xlink:href="#DejaVuSans-30" x="63.623047"/>
       <use xlink:href="#DejaVuSans-30" x="127.246094"/>
       <use xlink:href="#DejaVuSans-30" x="190.869141"/>
      </g>
     </g>
    </g>
   </g>
   <g id="matplotlib.axis_4">
    <g id="ytick_7">
     <g id="line2d_22">
      <g>
       <use xlink:href="#mf6277c6c2b" x="532.390909" y="234.699745" style="stroke: #000000; stroke-width: 0.8"/>
      </g>
     </g>
     <g id="text_21">
      <!-- −5.0 -->
      <g transform="translate(501.108097 238.498964) scale(0.1 -0.1)">
       <use xlink:href="#DejaVuSans-2212"/>
       <use xlink:href="#DejaVuSans-35" x="83.789062"/>
       <use xlink:href="#DejaVuSans-2e" x="147.412109"/>
       <use xlink:href="#DejaVuSans-30" x="179.199219"/>
      </g>
     </g>
    </g>
    <g id="ytick_8">
     <g id="line2d_23">
      <g>
       <use xlink:href="#mf6277c6c2b" x="532.390909" y="203.001989" style="stroke: #000000; stroke-width: 0.8"/>
      </g>
     </g>
     <g id="text_22">
      <!-- −4.5 -->
      <g transform="translate(501.108097 206.801208) scale(0.1 -0.1)">
       <use xlink:href="#DejaVuSans-2212"/>
       <use xlink:href="#DejaVuSans-34" x="83.789062"/>
       <use xlink:href="#DejaVuSans-2e" x="147.412109"/>
       <use xlink:href="#DejaVuSans-35" x="179.199219"/>
      </g>
     </g>
    </g>
    <g id="ytick_9">
     <g id="line2d_24">
      <g>
       <use xlink:href="#mf6277c6c2b" x="532.390909" y="171.304233" style="stroke: #000000; stroke-width: 0.8"/>
      </g>
     </g>
     <g id="text_23">
      <!-- −4.0 -->
      <g transform="translate(501.108097 175.103452) scale(0.1 -0.1)">
       <use xlink:href="#DejaVuSans-2212"/>
       <use xlink:href="#DejaVuSans-34" x="83.789062"/>
       <use xlink:href="#DejaVuSans-2e" x="147.412109"/>
       <use xlink:href="#DejaVuSans-30" x="179.199219"/>
      </g>
     </g>
    </g>
    <g id="ytick_10">
     <g id="line2d_25">
      <g>
       <use xlink:href="#mf6277c6c2b" x="532.390909" y="139.606477" style="stroke: #000000; stroke-width: 0.8"/>
      </g>
     </g>
     <g id="text_24">
      <!-- −3.5 -->
      <g transform="translate(501.108097 143.405696) scale(0.1 -0.1)">
       <use xlink:href="#DejaVuSans-2212"/>
       <use xlink:href="#DejaVuSans-33" x="83.789062"/>
       <use xlink:href="#DejaVuSans-2e" x="147.412109"/>
       <use xlink:href="#DejaVuSans-35" x="179.199219"/>
      </g>
     </g>
    </g>
    <g id="ytick_11">
     <g id="line2d_26">
      <g>
       <use xlink:href="#mf6277c6c2b" x="532.390909" y="107.908721" style="stroke: #000000; stroke-width: 0.8"/>
      </g>
     </g>
     <g id="text_25">
      <!-- −3.0 -->
      <g transform="translate(501.108097 111.70794) scale(0.1 -0.1)">
       <use xlink:href="#DejaVuSans-2212"/>
       <use xlink:href="#DejaVuSans-33" x="83.789062"/>
       <use xlink:href="#DejaVuSans-2e" x="147.412109"/>
       <use xlink:href="#DejaVuSans-30" x="179.199219"/>
      </g>
     </g>
    </g>
    <g id="ytick_12">
     <g id="line2d_27">
      <g>
       <use xlink:href="#mf6277c6c2b" x="532.390909" y="76.210965" style="stroke: #000000; stroke-width: 0.8"/>
      </g>
     </g>
     <g id="text_26">
      <!-- −2.5 -->
      <g transform="translate(501.108097 80.010184) scale(0.1 -0.1)">
       <use xlink:href="#DejaVuSans-2212"/>
       <use xlink:href="#DejaVuSans-32" x="83.789062"/>
       <use xlink:href="#DejaVuSans-2e" x="147.412109"/>
       <use xlink:href="#DejaVuSans-35" x="179.199219"/>
      </g>
     </g>
    </g>
    <g id="ytick_13">
     <g id="line2d_28">
      <g>
       <use xlink:href="#mf6277c6c2b" x="532.390909" y="44.513209" style="stroke: #000000; stroke-width: 0.8"/>
      </g>
     </g>
     <g id="text_27">
      <!-- −2.0 -->
      <g transform="translate(501.108097 48.312428) scale(0.1 -0.1)">
       <use xlink:href="#DejaVuSans-2212"/>
       <use xlink:href="#DejaVuSans-32" x="83.789062"/>
       <use xlink:href="#DejaVuSans-2e" x="147.412109"/>
       <use xlink:href="#DejaVuSans-30" x="179.199219"/>
      </g>
     </g>
    </g>
   </g>
   <g id="line2d_29">
    <path d="M 547.954959 44.64 
L 551.494644 53.430287 
L 554.981498 62.684425 
L 558.468353 72.569616 
L 561.955207 83.128893 
L 565.442061 94.408223 
L 568.928916 106.456707 
L 572.362939 119.125392 
L 575.796962 132.644455 
L 579.230985 147.070976 
L 582.665008 162.465868 
L 586.099031 178.894132 
L 590.325521 199.788024 
L 590.378352 199.505959 
L 591.012326 196.700488 
L 591.065157 196.700488 
L 591.117988 196.979467 
L 591.170819 196.700209 
L 591.223651 196.421231 
L 591.276482 196.699931 
L 592.227442 201.764442 
L 592.280273 201.4804 
L 592.650091 199.500041 
L 592.702922 199.781819 
L 592.808584 200.063879 
L 593.231233 198.093406 
L 593.495389 199.216574 
L 593.865207 197.531825 
L 594.763336 202.042513 
L 594.816167 201.758193 
L 594.868998 202.042229 
L 595.133154 203.181216 
L 595.238816 202.610584 
L 595.291647 202.895472 
L 596.401101 208.944379 
L 596.453932 208.653156 
L 596.612425 208.653156 
L 596.718088 208.071585 
L 596.770919 208.361935 
L 597.035074 209.526239 
L 597.087905 209.234435 
L 597.140737 209.525947 
L 597.352061 210.694914 
L 597.404892 210.401941 
L 597.77471 208.941175 
L 597.933203 208.941175 
L 598.672839 212.749821 
L 599.306813 209.520695 
L 599.729462 211.275575 
L 599.782293 211.275575 
L 599.940786 211.862975 
L 600.257773 210.688176 
L 600.310604 210.981142 
L 600.363435 210.687883 
L 600.416266 210.687883 
L 600.57476 211.567659 
L 600.627591 211.273814 
L 601.208733 208.060843 
L 601.261564 208.351181 
L 601.314395 208.351181 
L 601.52572 209.22394 
L 602.529511 204.307571 
L 602.582342 204.020985 
L 602.635174 204.307284 
L 603.374809 208.055326 
L 603.85029 206.028793 
L 603.903121 206.028793 
L 603.955952 206.317099 
L 604.008783 206.028505 
L 604.220107 205.45218 
L 604.272939 205.45218 
L 604.589925 207.182882 
L 604.642756 206.893421 
L 604.695588 206.893421 
L 605.223899 204.588132 
L 605.27673 204.874998 
L 605.329561 204.587845 
L 605.382392 204.300979 
L 605.435223 204.587558 
L 605.593717 205.449015 
L 605.646548 205.161288 
L 606.069197 202.869808 
L 606.122028 203.154955 
L 606.22769 203.154955 
L 606.280521 203.440388 
L 606.333352 203.15467 
L 606.544677 202.299228 
L 607.706962 208.045165 
L 607.812624 207.754842 
L 608.235273 210.08324 
L 608.288104 209.790879 
L 608.763584 207.462491 
L 609.714544 212.722384 
L 609.767376 212.427384 
L 609.9787 211.838268 
L 610.084362 212.426795 
L 610.137193 212.13209 
L 610.242856 211.543565 
L 610.295687 211.837386 
L 610.665505 213.310906 
L 610.823998 212.425026 
L 610.876829 212.719729 
L 611.669296 217.175802 
L 611.722127 216.876348 
L 613.888203 205.140593 
L 614.046697 205.715718 
L 614.627839 202.848708 
L 615.103319 205.425135 
L 615.15615 205.137432 
L 615.314644 204.276048 
L 615.367475 204.562602 
L 616.159942 208.604575 
L 617.110902 203.984914 
L 618.009031 208.309043 
L 618.220356 208.309043 
L 619.224147 203.408389 
L 619.276978 203.122703 
L 619.329809 203.408104 
L 619.858121 206.277853 
L 619.910952 205.989298 
L 619.963783 205.989298 
L 620.069445 205.70103 
L 621.178899 211.222153 
L 621.443054 210.049913 
L 621.812872 211.514478 
L 621.865703 211.514478 
L 622.077028 210.633982 
L 622.235521 211.513596 
L 622.288352 211.219805 
L 622.922326 208.007425 
L 622.975157 208.29771 
L 623.027988 208.007135 
L 624.031779 202.826183 
L 624.190273 202.826183 
L 625.775207 211.211 
L 625.880869 210.917511 
L 625.9337 211.210707 
L 625.986531 210.917218 
L 626.990322 205.97229 
L 627.148816 205.683752 
L 627.201647 205.683752 
L 627.624296 203.674058 
L 628.311101 206.835304 
L 628.416763 206.54619 
L 628.522425 206.835014 
L 628.73375 205.680297 
L 628.786581 205.968255 
L 629.262061 208.572871 
L 629.314892 208.28202 
L 629.473385 207.411212 
L 629.526217 207.700901 
L 630.952657 215.038033 
L 631.850786 210.316491 
L 632.854577 215.926101 
L 632.907409 215.627897 
L 633.647044 211.778275 
L 634.228187 214.435094 
L 634.281018 214.435094 
L 634.333849 214.138381 
L 634.38668 214.434797 
L 635.654627 221.638396 
L 635.707458 221.33448 
L 636.764081 215.617471 
L 636.816912 215.617471 
L 637.556548 219.211941 
L 638.032028 216.808448 
L 638.454677 218.908343 
L 639.352806 214.422039 
L 639.56413 215.313029 
L 639.722624 214.718144 
L 639.828286 215.312433 
L 639.881117 215.014843 
L 639.986779 215.014843 
L 641.360389 222.537035 
L 643.31514 211.753575 
L 643.367971 211.753575 
L 645.322723 222.221258 
L 645.428385 222.221258 
L 645.851034 219.793774 
L 645.903865 220.095846 
L 645.956697 220.39822 
L 646.009528 220.095543 
L 646.220852 219.18933 
L 646.854826 222.217604 
L 647.277475 219.790149 
L 647.330306 220.092217 
L 648.334097 225.581388 
L 648.756746 223.127117 
L 648.809577 223.432522 
L 648.91524 223.738233 
L 649.020902 223.126507 
L 649.073733 223.431911 
L 650.447342 231.167074 
L 650.500173 230.853629 
L 650.553004 231.166761 
L 650.81716 232.108035 
L 650.869991 232.108035 
L 651.239809 230.539246 
L 653.722872 245.584932 
L 653.775703 245.257069 
L 653.881365 244.602327 
L 653.934197 244.929207 
L 653.987028 244.929207 
L 654.251183 246.24 
L 656.839908 230.836094 
L 657.473882 227.409011 
L 657.632375 227.718388 
L 658.636167 222.185634 
L 658.688998 222.185634 
L 658.953153 223.099938 
L 659.005985 223.099938 
L 660.643749 232.080685 
L 660.696581 232.080685 
L 661.066398 234.287807 
L 661.11923 233.971241 
L 661.59471 231.764128 
L 661.647541 232.07817 
L 661.700372 231.763814 
L 662.651332 226.776657 
L 663.02115 225.234472 
L 663.126812 225.541985 
L 663.549461 223.699677 
L 665.874031 237.456236 
L 665.926862 237.136502 
L 666.824991 232.064024 
L 667.881614 237.770529 
L 668.251432 236.173484 
L 669.255223 241.630683 
L 671.315637 229.547159 
L 671.685455 231.422793 
L 674.115686 217.612424 
L 674.221349 217.612424 
L 674.643998 219.415968 
L 674.696829 219.415968 
L 674.802491 218.812882 
L 674.855322 219.113973 
L 674.908153 219.113973 
L 675.013816 218.511491 
L 675.066647 218.81228 
L 675.172309 219.11337 
L 675.436465 217.609425 
L 675.489296 217.909312 
L 676.862905 225.197266 
L 677.866696 219.709508 
L 677.919528 220.011495 
L 677.972359 219.709206 
L 678.02519 219.709206 
L 678.078021 219.407219 
L 678.130852 219.708904 
L 678.447839 221.221861 
L 678.659163 220.614862 
L 678.817657 221.22095 
L 678.97615 220.311364 
L 679.028981 220.613953 
L 679.610124 223.656537 
L 679.662955 223.350603 
L 679.715786 223.656231 
L 679.768617 223.656231 
L 680.878071 217.595331 
L 680.983733 217.595331 
L 681.406382 219.700751 
L 681.670537 218.79572 
L 681.723369 219.096794 
L 681.7762 218.795419 
L 682.146018 217.293061 
L 682.357342 218.493143 
L 682.410173 218.192372 
L 682.674329 216.693023 
L 682.72716 216.991994 
L 683.942276 223.951447 
L 683.995107 223.645218 
L 684.047938 223.339295 
L 684.100769 223.644912 
L 684.576249 225.792806 
L 684.787574 224.562371 
L 684.840405 224.869211 
L 685.051729 225.791574 
L 685.104561 225.483505 
L 685.157392 225.791266 
L 685.315885 226.407712 
L 685.421547 225.79065 
L 685.474378 226.098718 
L 686.266845 230.444164 
L 686.636663 228.883679 
L 686.689494 228.883679 
L 686.847988 229.818097 
L 686.900819 229.506001 
L 688.38009 221.196368 
L 690.282011 231.686569 
L 690.440504 231.058954 
L 690.757491 232.628775 
L 690.863153 231.999276 
L 690.915984 232.313553 
L 690.968816 232.628145 
L 691.021647 232.313239 
L 691.127309 231.998648 
L 691.18014 232.312924 
L 691.232971 231.998333 
L 691.338633 231.370095 
L 691.391465 231.683743 
L 691.444296 231.683743 
L 691.65562 230.7428 
L 691.761282 231.055821 
L 692.712243 226.079599 
L 692.923567 225.155452 
L 693.082061 225.462885 
L 693.134892 225.462885 
L 695.248137 237.695646 
L 696.251928 231.98482 
L 696.304759 231.98482 
L 696.410421 231.670557 
L 696.463253 231.984506 
L 696.516084 231.670243 
L 697.361382 227.303116 
L 697.414213 227.612697 
L 697.467044 227.302807 
L 698.365173 222.691463 
L 698.523666 222.996127 
L 698.576498 222.996127 
L 699.051978 220.865609 
L 699.368965 222.079699 
L 699.738782 220.258113 
L 701.006729 226.984257 
L 701.059561 226.984257 
L 701.535041 229.778775 
L 701.587872 229.466719 
L 701.693534 228.843541 
L 701.746365 229.154663 
L 701.904859 229.466095 
L 702.486001 226.671597 
L 702.538832 226.671597 
L 702.750157 225.745675 
L 702.90865 226.67067 
L 702.961481 226.361721 
L 703.38413 224.514508 
L 703.489792 224.8213 
L 703.965272 222.677739 
L 704.018104 222.677739 
L 704.176597 223.287956 
L 704.282259 222.98239 
L 704.493584 223.899086 
L 704.81057 222.371261 
L 705.391713 225.431497 
L 705.444544 225.123788 
L 705.497375 225.43119 
L 705.603037 226.046915 
L 705.655868 225.738591 
L 705.761531 225.122866 
L 705.814362 225.430266 
L 706.18418 227.590696 
L 706.237011 227.280827 
L 706.606829 225.428112 
L 706.923815 227.27897 
L 706.976647 226.969413 
L 707.663451 223.584651 
L 709.248385 232.265425 
L 709.459709 231.322738 
L 709.565372 231.636339 
L 710.833319 224.49518 
L 711.625786 228.507245 
L 711.83711 227.265969 
L 711.889941 227.575512 
L 712.418253 230.063032 
L 712.471084 230.063032 
L 712.946564 232.570522 
L 714.320173 224.793048 
L 714.373004 224.793048 
L 714.63716 223.566606 
L 714.954147 224.791513 
L 715.006978 224.484443 
L 715.059809 224.791206 
L 715.11264 224.791206 
L 715.323964 224.177375 
L 715.429627 224.790591 
L 715.482458 224.483523 
L 715.957938 222.038005 
L 717.067392 228.49295 
L 717.120223 228.182179 
L 718.916481 217.798864 
L 719.180637 219.302251 
L 719.233468 219.000671 
L 720.237259 213.91941 
L 720.342921 213.327312 
L 720.395752 213.622917 
L 722.403335 225.077681 
L 722.456166 224.770326 
L 723.195802 221.105642 
L 723.301464 221.105642 
L 724.0411 224.766334 
L 724.093931 224.766334 
L 724.199594 225.380729 
L 724.252425 225.073071 
L 724.99206 221.101395 
L 725.044892 221.404774 
L 725.097723 221.101092 
L 725.203385 220.797713 
L 725.626034 223.23082 
L 725.678865 222.925311 
L 725.995852 221.706329 
L 726.101514 222.314601 
L 726.154345 222.010009 
L 726.260007 221.401737 
L 726.312839 221.705417 
L 726.418501 222.0094 
L 726.471332 221.705113 
L 726.524163 222.009096 
L 726.735488 223.22807 
L 726.788319 222.922565 
L 727.052474 221.399612 
L 727.105305 221.703289 
L 727.263799 221.703289 
L 727.31663 222.00727 
L 727.369461 221.702985 
L 727.422292 221.399004 
L 727.475123 221.702681 
L 727.580786 222.006662 
L 728.531746 216.875002 
L 728.637408 217.174155 
L 729.112888 214.489842 
L 729.165719 214.78661 
L 729.799693 218.070706 
L 730.011017 217.170561 
L 730.063848 217.47001 
L 730.11668 217.170262 
L 730.275173 216.571665 
L 730.59216 218.369251 
L 730.644991 218.068604 
L 731.014809 216.271024 
L 731.648782 219.269983 
L 731.912938 218.0656 
L 732.0186 218.365944 
L 732.177093 217.464914 
L 732.229925 217.764657 
L 732.49408 218.665685 
L 732.705405 218.064099 
L 732.758236 218.064099 
L 733.603534 222.6009 
L 734.131845 220.170088 
L 734.184676 220.170088 
L 735.663948 228.132509 
L 736.773401 221.678668 
L 736.826233 221.982624 
L 736.879064 221.678364 
L 737.460206 218.351513 
L 737.513037 218.652143 
L 737.565868 218.652143 
L 737.724362 219.254303 
L 737.777193 218.952771 
L 737.830024 219.254002 
L 737.988517 220.159502 
L 738.041348 219.857065 
L 738.305504 218.650337 
L 738.833815 221.065902 
L 738.886646 221.065902 
L 739.097971 221.672589 
L 739.150802 221.368638 
L 739.203633 221.672285 
L 740.418749 228.740577 
L 740.47158 228.429559 
L 740.524411 228.429559 
L 740.735736 227.498369 
L 740.841398 227.808145 
L 741.792358 222.883501 
L 742.215007 221.057105 
L 742.32067 221.057105 
L 743.218799 225.638809 
L 743.535785 223.795922 
L 743.588617 224.101996 
L 743.641448 224.101996 
L 744.909395 217.132234 
L 744.962226 217.132234 
L 745.17355 216.533415 
L 745.279213 216.533415 
L 745.332044 216.234604 
L 745.384875 216.533116 
L 746.283004 221.653744 
L 746.335835 221.349813 
L 746.969809 217.726254 
L 747.02264 218.026258 
L 747.339627 219.229277 
L 747.392458 219.229277 
L 747.550951 218.92777 
L 747.920769 220.739528 
L 748.501911 217.722954 
L 750.351001 227.783029 
L 750.984974 224.696336 
L 751.090636 224.696336 
L 751.407623 223.469974 
L 751.460454 223.469974 
L 751.618948 224.081776 
L 751.883103 222.553038 
L 751.935934 222.857869 
L 753.785024 233.405503 
L 753.943517 232.4594 
L 753.996348 232.774137 
L 754.683153 236.575624 
L 754.841646 235.62002 
L 754.894477 235.937918 
L 755.369958 238.813342 
L 755.422789 238.492251 
L 757.060554 229.00739 
L 757.166216 229.630272 
L 757.219047 229.318364 
L 757.324709 229.318364 
L 757.430371 228.695483 
L 757.483203 229.006456 
L 758.170007 232.762481 
L 758.275669 232.132715 
L 758.328501 232.447126 
L 758.486994 233.07689 
L 758.645487 232.446496 
L 758.75115 233.07626 
L 758.803981 232.760906 
L 758.962474 231.816734 
L 759.015305 232.130829 
L 759.120967 232.130829 
L 760.441746 239.442333 
L 760.494577 239.442333 
L 760.864395 241.377486 
L 761.12855 240.40749 
L 761.181381 240.730176 
L 761.234213 240.407168 
L 762.185173 235.28275 
L 763.083302 229.927194 
L 763.136133 230.239399 
L 763.294626 229.926881 
L 763.505951 230.551603 
L 763.717275 229.302161 
L 763.770107 229.613741 
L 765.090885 237.185855 
L 766.041845 232.112279 
L 766.253169 230.856604 
L 766.306001 231.169738 
L 766.517325 231.796633 
L 766.675818 230.855351 
L 766.72865 231.168485 
L 766.834312 231.795691 
L 766.887143 231.481617 
L 766.939974 231.481617 
L 767.20413 232.423837 
L 767.256961 232.423837 
L 767.362623 231.794748 
L 767.415454 232.108821 
L 767.785272 234.31614 
L 767.838103 233.999547 
L 767.943765 233.999547 
L 767.996597 234.315824 
L 768.049428 233.99923 
L 768.366414 232.106306 
L 768.419246 232.42069 
L 768.524908 233.050402 
L 768.577739 232.735073 
L 768.683401 232.105363 
L 768.736232 232.419746 
L 769.211712 234.946156 
L 769.423037 233.995435 
L 769.634361 234.945204 
L 769.740024 234.311075 
L 769.792855 234.627664 
L 770.162673 236.852668 
L 770.215504 236.533538 
L 770.373997 235.896234 
L 770.479659 236.214408 
L 772.909891 222.193093 
L 772.962722 222.193093 
L 773.068385 221.584456 
L 773.121216 221.888318 
L 773.226878 222.192484 
L 773.279709 221.888014 
L 773.33254 222.19218 
L 773.80802 224.329874 
L 773.913683 224.329874 
L 774.389163 226.791338 
L 775.023136 223.102839 
L 775.075967 223.408219 
L 775.498616 225.862284 
L 775.551448 225.554144 
L 776.13259 222.48964 
L 776.555239 224.629423 
L 776.660901 224.322516 
L 776.766563 224.936023 
L 776.819395 224.628809 
L 778.93264 212.884089 
L 781.468534 226.462509 
L 781.521365 226.462509 
L 781.78552 225.229399 
L 783.000636 231.751723 
L 783.951597 226.76445 
L 784.902557 221.856382 
L 785.219544 220.338749 
L 786.276166 226.140506 
L 786.381828 225.832088 
L 786.434659 226.140198 
L 786.487491 225.83178 
L 786.751646 224.29431 
L 786.804477 224.600882 
L 788.283749 232.679951 
L 788.917722 229.544197 
L 788.970553 229.856019 
L 789.023385 229.543885 
L 789.498865 226.748689 
L 789.551696 227.057716 
L 789.604527 227.057716 
L 790.132838 224.591676 
L 790.185669 224.591676 
L 790.396994 223.671987 
L 790.978136 226.74529 
L 791.030967 226.436267 
L 791.083798 226.744981 
L 791.13663 226.744981 
L 791.189461 226.435958 
L 791.242292 226.744672 
L 792.140421 231.726288 
L 792.298914 231.098594 
L 792.404577 231.41197 
L 793.778186 223.663115 
L 793.831017 223.663115 
L 793.883848 223.969056 
L 793.936679 223.662809 
L 794.570653 220.011646 
L 794.623484 220.313936 
L 794.676315 220.616528 
L 794.729146 220.313633 
L 795.046133 218.803699 
L 795.36312 220.61471 
L 795.415951 220.311818 
L 795.627275 219.103274 
L 795.680106 219.404655 
L 795.891431 220.310607 
L 795.997093 220.008019 
L 796.049924 220.310305 
L 796.102755 220.007717 
L 796.842391 216.101497 
L 796.895222 216.399876 
L 796.948053 216.101198 
L 797.106547 215.206956 
L 797.159378 215.504441 
L 799.008467 225.490121 
L 799.11413 225.490121 
L 799.325454 226.723041 
L 799.378285 226.41404 
L 799.431116 226.105348 
L 799.483947 226.413731 
L 799.642441 226.722423 
L 799.695272 226.722423 
L 799.800934 227.031423 
L 799.959428 226.721805 
L 800.54057 229.825743 
L 801.227375 226.40941 
L 801.385868 227.336398 
L 801.438699 227.026784 
L 803.023633 218.181405 
L 803.076464 218.181405 
L 803.551944 220.593509 
L 803.8161 219.685501 
L 803.868931 219.685501 
L 803.974593 219.987464 
L 804.238749 218.780215 
L 805.823682 227.634235 
L 806.721812 222.407668 
L 806.774643 222.712354 
L 807.144461 224.546876 
L 807.250123 223.933533 
L 807.302954 224.239745 
L 808.04259 228.558995 
L 808.095421 228.248159 
L 808.940719 223.316833 
L 808.99355 223.622427 
L 809.099212 224.234534 
L 809.152043 223.928022 
L 809.627524 221.486931 
L 809.997341 223.008796 
L 810.050173 223.008796 
L 810.261497 221.78948 
L 810.314328 222.093547 
L 810.684146 223.924347 
L 810.842639 223.006659 
L 810.895471 223.311943 
L 811.001133 223.311943 
L 812.057755 229.48215 
L 812.110586 229.17039 
L 812.850222 225.453499 
L 813.272871 227.304509 
L 814.012507 223.609886 
L 814.118169 223.915774 
L 814.752143 220.86758 
L 815.016298 222.386341 
L 815.069129 222.081677 
L 816.125752 216.05197 
L 816.231414 216.648928 
L 816.284245 216.350001 
L 816.337076 216.350001 
L 816.654063 215.156983 
L 816.706894 215.156983 
L 817.129543 212.785816 
L 817.182374 213.08088 
L 817.393699 214.264088 
L 817.44653 213.967546 
L 817.605023 213.375351 
L 818.450321 217.541508 
L 818.503153 217.541508 
L 820.405073 207.224278 
L 820.457904 207.51378 
L 820.510735 207.223988 
L 820.827722 206.067717 
L 822.042838 212.773129 
L 822.095669 212.478078 
L 822.1485 212.478078 
L 823.363616 219.031252 
L 824.314576 214.246296 
L 824.367408 214.246296 
L 825.846679 222.053069 
L 825.89951 222.053069 
L 827.325951 229.753344 
L 827.431613 229.753344 
L 827.642937 230.690374 
L 827.7486 230.06475 
L 827.801431 230.377093 
L 828.171249 231.943497 
L 828.22408 231.943497 
L 828.435404 230.688496 
L 828.488235 231.001462 
L 828.69956 232.25646 
L 828.752391 231.941926 
L 829.227871 229.125234 
L 829.280702 229.436637 
L 829.597689 231.311605 
L 829.65052 230.998016 
L 830.337325 227.56916 
L 830.442987 228.189164 
L 830.495818 227.878697 
L 830.548649 227.568541 
L 830.60148 227.878387 
L 830.971298 230.056005 
L 831.024129 229.743671 
L 831.129792 229.11994 
L 831.182623 229.431338 
L 831.235454 229.431338 
L 831.341116 230.055068 
L 831.393947 229.742735 
L 831.499609 229.119006 
L 831.552441 229.430403 
L 831.658103 229.742111 
L 831.869427 228.806987 
L 832.080752 229.741175 
L 833.824179 219.607604 
L 833.87701 219.90949 
L 833.929841 219.607302 
L 835.144957 212.73979 
L 836.941215 222.937672 
L 836.994047 222.632457 
L 837.416696 220.504477 
L 837.733682 222.325719 
L 837.786513 222.021115 
L 838.1035 220.19988 
L 838.156331 220.502358 
L 838.473318 222.323587 
L 838.526149 222.018985 
L 838.895967 220.197763 
L 839.212954 221.409481 
L 839.265785 221.409481 
L 840.480901 214.500971 
L 840.797888 215.689868 
L 840.850719 215.689868 
L 840.956381 215.391901 
L 841.220537 216.285504 
L 841.273368 216.285504 
L 844.284742 233.157789 
L 844.707391 231.269901 
L 845.711182 236.961989 
L 845.869676 236.005227 
L 845.922507 236.32351 
L 846.239494 237.599829 
L 846.397987 237.279631 
L 846.503649 237.599189 
L 846.767805 236.002999 
L 846.820636 236.32128 
L 846.873467 236.32128 
L 847.084792 235.684401 
L 847.137623 235.684401 
L 847.190454 236.002363 
L 847.243285 235.684083 
L 848.564063 228.140114 
L 848.616894 228.450532 
L 848.669725 228.139804 
L 849.620686 223.209893 
L 849.884841 221.685507 
L 849.937672 221.98947 
L 850.941464 227.203602 
L 850.994295 227.203602 
L 851.416944 225.351042 
L 851.522606 225.351042 
L 851.628268 225.043413 
L 851.892424 226.583095 
L 851.945255 226.274234 
L 852.367904 224.427544 
L 852.684891 226.272383 
L 852.737722 225.963833 
L 853.054709 224.119 
L 853.10754 224.425397 
L 853.794344 228.126146 
L 855.696265 217.444682 
L 856.277407 220.455431 
L 856.805719 218.042024 
L 856.85855 218.042024 
L 856.911381 218.342344 
L 856.964212 218.041724 
L 857.017043 218.041724 
L 857.175537 217.741404 
L 858.179328 222.882738 
L 859.130288 218.036619 
L 859.23595 217.43629 
L 859.23595 217.43629 
" clip-path="url(#pd21c4d21f6)" style="fill: none; stroke: #1f77b4; stroke-width: 1.5; stroke-linecap: square"/>
   </g>
   <g id="patch_8">
    <path d="M 532.390909 256.32 
L 532.390909 34.56 
" style="fill: none; stroke: #000000; stroke-width: 0.8; stroke-linejoin: miter; stroke-linecap: square"/>
   </g>
   <g id="patch_9">
    <path d="M 874.8 256.32 
L 874.8 34.56 
" style="fill: none; stroke: #000000; stroke-width: 0.8; stroke-linejoin: miter; stroke-linecap: square"/>
   </g>
   <g id="patch_10">
    <path d="M 532.390909 256.32 
L 874.8 256.32 
" style="fill: none; stroke: #000000; stroke-width: 0.8; stroke-linejoin: miter; stroke-linecap: square"/>
   </g>
   <g id="patch_11">
    <path d="M 532.390909 34.56 
L 874.8 34.56 
" style="fill: none; stroke: #000000; stroke-width: 0.8; stroke-linejoin: miter; stroke-linecap: square"/>
   </g>
  </g>
 </g>
 <defs>
  <clipPath id="pc626cd74e2">
   <rect x="121.5" y="34.56" width="342.409091" height="221.76"/>
  </clipPath>
  <clipPath id="pd21c4d21f6">
   <rect x="532.390909" y="34.56" width="342.409091" height="221.76"/>
  </clipPath>
 </defs>
</svg>
