<?xml version="1.0" encoding="utf-8" standalone="no"?>
<!DOCTYPE svg PUBLIC "-//W3C//DTD SVG 1.1//EN"
  "http://www.w3.org/Graphics/SVG/1.1/DTD/svg11.dtd">
<svg xmlns:xlink="http://www.w3.org/1999/xlink" width="972pt" height="288pt" viewBox="0 0 972 288" xmlns="http://www.w3.org/2000/svg" version="1.1">
 <metadata>
  <rdf:RDF xmlns:dc="http://purl.org/dc/elements/1.1/" xmlns:cc="http://creativecommons.org/ns#" xmlns:rdf="http://www.w3.org/1999/02/22-rdf-syntax-ns#">
   <cc:Work>
    <dc:type rdf:resource="http://purl.org/dc/dcmitype/StillImage"/>
    <dc:date>2024-10-30T22:10:18.744233</dc:date>
    <dc:format>image/svg+xml</dc:format>
    <dc:creator>
     <cc:Agent>
      <dc:title>Matplotlib v3.7.2, https://matplotlib.org/</dc:title>
     </cc:Agent>
    </dc:creator>
   </cc:Work>
  </rdf:RDF>
 </metadata>
 <defs>
  <style type="text/css">*{stroke-linejoin: round; stroke-linecap: butt}</style>
 </defs>
 <g id="figure_1">
  <g id="patch_1">
   <path d="M 0 288 
L 972 288 
L 972 0 
L 0 0 
z
" style="fill: #ffffff"/>
  </g>
  <g id="axes_1">
   <g id="patch_2">
    <path d="M 121.5 256.32 
L 463.909091 256.32 
L 463.909091 34.56 
L 121.5 34.56 
z
" style="fill: #ffffff"/>
   </g>
   <g id="matplotlib.axis_1">
    <g id="xtick_1">
     <g id="line2d_1">
      <defs>
       <path id="m6be2e9c56e" d="M 0 0 
L 0 3.5 
" style="stroke: #000000; stroke-width: 0.8"/>
      </defs>
      <g>
       <use xlink:href="#m6be2e9c56e" x="137.06405" y="256.32" style="stroke: #000000; stroke-width: 0.8"/>
      </g>
     </g>
     <g id="text_1">
      <!-- 0 -->
      <g transform="translate(133.8828 270.918437) scale(0.1 -0.1)">
       <defs>
        <path id="DejaVuSans-30" d="M 2034 4250 
Q 1547 4250 1301 3770 
Q 1056 3291 1056 2328 
Q 1056 1369 1301 889 
Q 1547 409 2034 409 
Q 2525 409 2770 889 
Q 3016 1369 3016 2328 
Q 3016 3291 2770 3770 
Q 2525 4250 2034 4250 
z
M 2034 4750 
Q 2819 4750 3233 4129 
Q 3647 3509 3647 2328 
Q 3647 1150 3233 529 
Q 2819 -91 2034 -91 
Q 1250 -91 836 529 
Q 422 1150 422 2328 
Q 422 3509 836 4129 
Q 1250 4750 2034 4750 
z
" transform="scale(0.015625)"/>
       </defs>
       <use xlink:href="#DejaVuSans-30"/>
      </g>
     </g>
    </g>
    <g id="xtick_2">
     <g id="line2d_2">
      <g>
       <use xlink:href="#m6be2e9c56e" x="188.102087" y="256.32" style="stroke: #000000; stroke-width: 0.8"/>
      </g>
     </g>
     <g id="text_2">
      <!-- 1000 -->
      <g transform="translate(175.377087 270.918437) scale(0.1 -0.1)">
       <defs>
        <path id="DejaVuSans-31" d="M 794 531 
L 1825 531 
L 1825 4091 
L 703 3866 
L 703 4441 
L 1819 4666 
L 2450 4666 
L 2450 531 
L 3481 531 
L 3481 0 
L 794 0 
L 794 531 
z
" transform="scale(0.015625)"/>
       </defs>
       <use xlink:href="#DejaVuSans-31"/>
       <use xlink:href="#DejaVuSans-30" x="63.623047"/>
       <use xlink:href="#DejaVuSans-30" x="127.246094"/>
       <use xlink:href="#DejaVuSans-30" x="190.869141"/>
      </g>
     </g>
    </g>
    <g id="xtick_3">
     <g id="line2d_3">
      <g>
       <use xlink:href="#m6be2e9c56e" x="239.140125" y="256.32" style="stroke: #000000; stroke-width: 0.8"/>
      </g>
     </g>
     <g id="text_3">
      <!-- 2000 -->
      <g transform="translate(226.415125 270.918437) scale(0.1 -0.1)">
       <defs>
        <path id="DejaVuSans-32" d="M 1228 531 
L 3431 531 
L 3431 0 
L 469 0 
L 469 531 
Q 828 903 1448 1529 
Q 2069 2156 2228 2338 
Q 2531 2678 2651 2914 
Q 2772 3150 2772 3378 
Q 2772 3750 2511 3984 
Q 2250 4219 1831 4219 
Q 1534 4219 1204 4116 
Q 875 4013 500 3803 
L 500 4441 
Q 881 4594 1212 4672 
Q 1544 4750 1819 4750 
Q 2544 4750 2975 4387 
Q 3406 4025 3406 3419 
Q 3406 3131 3298 2873 
Q 3191 2616 2906 2266 
Q 2828 2175 2409 1742 
Q 1991 1309 1228 531 
z
" transform="scale(0.015625)"/>
       </defs>
       <use xlink:href="#DejaVuSans-32"/>
       <use xlink:href="#DejaVuSans-30" x="63.623047"/>
       <use xlink:href="#DejaVuSans-30" x="127.246094"/>
       <use xlink:href="#DejaVuSans-30" x="190.869141"/>
      </g>
     </g>
    </g>
    <g id="xtick_4">
     <g id="line2d_4">
      <g>
       <use xlink:href="#m6be2e9c56e" x="290.178163" y="256.32" style="stroke: #000000; stroke-width: 0.8"/>
      </g>
     </g>
     <g id="text_4">
      <!-- 3000 -->
      <g transform="translate(277.453163 270.918437) scale(0.1 -0.1)">
       <defs>
        <path id="DejaVuSans-33" d="M 2597 2516 
Q 3050 2419 3304 2112 
Q 3559 1806 3559 1356 
Q 3559 666 3084 287 
Q 2609 -91 1734 -91 
Q 1441 -91 1130 -33 
Q 819 25 488 141 
L 488 750 
Q 750 597 1062 519 
Q 1375 441 1716 441 
Q 2309 441 2620 675 
Q 2931 909 2931 1356 
Q 2931 1769 2642 2001 
Q 2353 2234 1838 2234 
L 1294 2234 
L 1294 2753 
L 1863 2753 
Q 2328 2753 2575 2939 
Q 2822 3125 2822 3475 
Q 2822 3834 2567 4026 
Q 2313 4219 1838 4219 
Q 1578 4219 1281 4162 
Q 984 4106 628 3988 
L 628 4550 
Q 988 4650 1302 4700 
Q 1616 4750 1894 4750 
Q 2613 4750 3031 4423 
Q 3450 4097 3450 3541 
Q 3450 3153 3228 2886 
Q 3006 2619 2597 2516 
z
" transform="scale(0.015625)"/>
       </defs>
       <use xlink:href="#DejaVuSans-33"/>
       <use xlink:href="#DejaVuSans-30" x="63.623047"/>
       <use xlink:href="#DejaVuSans-30" x="127.246094"/>
       <use xlink:href="#DejaVuSans-30" x="190.869141"/>
      </g>
     </g>
    </g>
    <g id="xtick_5">
     <g id="line2d_5">
      <g>
       <use xlink:href="#m6be2e9c56e" x="341.2162" y="256.32" style="stroke: #000000; stroke-width: 0.8"/>
      </g>
     </g>
     <g id="text_5">
      <!-- 4000 -->
      <g transform="translate(328.4912 270.918437) scale(0.1 -0.1)">
       <defs>
        <path id="DejaVuSans-34" d="M 2419 4116 
L 825 1625 
L 2419 1625 
L 2419 4116 
z
M 2253 4666 
L 3047 4666 
L 3047 1625 
L 3713 1625 
L 3713 1100 
L 3047 1100 
L 3047 0 
L 2419 0 
L 2419 1100 
L 313 1100 
L 313 1709 
L 2253 4666 
z
" transform="scale(0.015625)"/>
       </defs>
       <use xlink:href="#DejaVuSans-34"/>
       <use xlink:href="#DejaVuSans-30" x="63.623047"/>
       <use xlink:href="#DejaVuSans-30" x="127.246094"/>
       <use xlink:href="#DejaVuSans-30" x="190.869141"/>
      </g>
     </g>
    </g>
    <g id="xtick_6">
     <g id="line2d_6">
      <g>
       <use xlink:href="#m6be2e9c56e" x="392.254238" y="256.32" style="stroke: #000000; stroke-width: 0.8"/>
      </g>
     </g>
     <g id="text_6">
      <!-- 5000 -->
      <g transform="translate(379.529238 270.918437) scale(0.1 -0.1)">
       <defs>
        <path id="DejaVuSans-35" d="M 691 4666 
L 3169 4666 
L 3169 4134 
L 1269 4134 
L 1269 2991 
Q 1406 3038 1543 3061 
Q 1681 3084 1819 3084 
Q 2600 3084 3056 2656 
Q 3513 2228 3513 1497 
Q 3513 744 3044 326 
Q 2575 -91 1722 -91 
Q 1428 -91 1123 -41 
Q 819 9 494 109 
L 494 744 
Q 775 591 1075 516 
Q 1375 441 1709 441 
Q 2250 441 2565 725 
Q 2881 1009 2881 1497 
Q 2881 1984 2565 2268 
Q 2250 2553 1709 2553 
Q 1456 2553 1204 2497 
Q 953 2441 691 2322 
L 691 4666 
z
" transform="scale(0.015625)"/>
       </defs>
       <use xlink:href="#DejaVuSans-35"/>
       <use xlink:href="#DejaVuSans-30" x="63.623047"/>
       <use xlink:href="#DejaVuSans-30" x="127.246094"/>
       <use xlink:href="#DejaVuSans-30" x="190.869141"/>
      </g>
     </g>
    </g>
    <g id="xtick_7">
     <g id="line2d_7">
      <g>
       <use xlink:href="#m6be2e9c56e" x="443.292276" y="256.32" style="stroke: #000000; stroke-width: 0.8"/>
      </g>
     </g>
     <g id="text_7">
      <!-- 6000 -->
      <g transform="translate(430.567276 270.918437) scale(0.1 -0.1)">
       <defs>
        <path id="DejaVuSans-36" d="M 2113 2584 
Q 1688 2584 1439 2293 
Q 1191 2003 1191 1497 
Q 1191 994 1439 701 
Q 1688 409 2113 409 
Q 2538 409 2786 701 
Q 3034 994 3034 1497 
Q 3034 2003 2786 2293 
Q 2538 2584 2113 2584 
z
M 3366 4563 
L 3366 3988 
Q 3128 4100 2886 4159 
Q 2644 4219 2406 4219 
Q 1781 4219 1451 3797 
Q 1122 3375 1075 2522 
Q 1259 2794 1537 2939 
Q 1816 3084 2150 3084 
Q 2853 3084 3261 2657 
Q 3669 2231 3669 1497 
Q 3669 778 3244 343 
Q 2819 -91 2113 -91 
Q 1303 -91 875 529 
Q 447 1150 447 2328 
Q 447 3434 972 4092 
Q 1497 4750 2381 4750 
Q 2619 4750 2861 4703 
Q 3103 4656 3366 4563 
z
" transform="scale(0.015625)"/>
       </defs>
       <use xlink:href="#DejaVuSans-36"/>
       <use xlink:href="#DejaVuSans-30" x="63.623047"/>
       <use xlink:href="#DejaVuSans-30" x="127.246094"/>
       <use xlink:href="#DejaVuSans-30" x="190.869141"/>
      </g>
     </g>
    </g>
   </g>
   <g id="matplotlib.axis_2">
    <g id="ytick_1">
     <g id="line2d_8">
      <defs>
       <path id="md2ce252d28" d="M 0 0 
L -3.5 0 
" style="stroke: #000000; stroke-width: 0.8"/>
      </defs>
      <g>
       <use xlink:href="#md2ce252d28" x="121.5" y="245.729408" style="stroke: #000000; stroke-width: 0.8"/>
      </g>
     </g>
     <g id="text_8">
      <!-- 0.5 -->
      <g transform="translate(98.596875 249.528627) scale(0.1 -0.1)">
       <defs>
        <path id="DejaVuSans-2e" d="M 684 794 
L 1344 794 
L 1344 0 
L 684 0 
L 684 794 
z
" transform="scale(0.015625)"/>
       </defs>
       <use xlink:href="#DejaVuSans-30"/>
       <use xlink:href="#DejaVuSans-2e" x="63.623047"/>
       <use xlink:href="#DejaVuSans-35" x="95.410156"/>
      </g>
     </g>
    </g>
    <g id="ytick_2">
     <g id="line2d_9">
      <g>
       <use xlink:href="#md2ce252d28" x="121.5" y="203.651125" style="stroke: #000000; stroke-width: 0.8"/>
      </g>
     </g>
     <g id="text_9">
      <!-- 1.0 -->
      <g transform="translate(98.596875 207.450344) scale(0.1 -0.1)">
       <use xlink:href="#DejaVuSans-31"/>
       <use xlink:href="#DejaVuSans-2e" x="63.623047"/>
       <use xlink:href="#DejaVuSans-30" x="95.410156"/>
      </g>
     </g>
    </g>
    <g id="ytick_3">
     <g id="line2d_10">
      <g>
       <use xlink:href="#md2ce252d28" x="121.5" y="161.572843" style="stroke: #000000; stroke-width: 0.8"/>
      </g>
     </g>
     <g id="text_10">
      <!-- 1.5 -->
      <g transform="translate(98.596875 165.372061) scale(0.1 -0.1)">
       <use xlink:href="#DejaVuSans-31"/>
       <use xlink:href="#DejaVuSans-2e" x="63.623047"/>
       <use xlink:href="#DejaVuSans-35" x="95.410156"/>
      </g>
     </g>
    </g>
    <g id="ytick_4">
     <g id="line2d_11">
      <g>
       <use xlink:href="#md2ce252d28" x="121.5" y="119.49456" style="stroke: #000000; stroke-width: 0.8"/>
      </g>
     </g>
     <g id="text_11">
      <!-- 2.0 -->
      <g transform="translate(98.596875 123.293779) scale(0.1 -0.1)">
       <use xlink:href="#DejaVuSans-32"/>
       <use xlink:href="#DejaVuSans-2e" x="63.623047"/>
       <use xlink:href="#DejaVuSans-30" x="95.410156"/>
      </g>
     </g>
    </g>
    <g id="ytick_5">
     <g id="line2d_12">
      <g>
       <use xlink:href="#md2ce252d28" x="121.5" y="77.416277" style="stroke: #000000; stroke-width: 0.8"/>
      </g>
     </g>
     <g id="text_12">
      <!-- 2.5 -->
      <g transform="translate(98.596875 81.215496) scale(0.1 -0.1)">
       <use xlink:href="#DejaVuSans-32"/>
       <use xlink:href="#DejaVuSans-2e" x="63.623047"/>
       <use xlink:href="#DejaVuSans-35" x="95.410156"/>
      </g>
     </g>
    </g>
    <g id="ytick_6">
     <g id="line2d_13">
      <g>
       <use xlink:href="#md2ce252d28" x="121.5" y="35.337995" style="stroke: #000000; stroke-width: 0.8"/>
      </g>
     </g>
     <g id="text_13">
      <!-- 3.0 -->
      <g transform="translate(98.596875 39.137213) scale(0.1 -0.1)">
       <use xlink:href="#DejaVuSans-33"/>
       <use xlink:href="#DejaVuSans-2e" x="63.623047"/>
       <use xlink:href="#DejaVuSans-30" x="95.410156"/>
      </g>
     </g>
    </g>
   </g>
   <g id="line2d_14">
    <path d="M 137.06405 203.735282 
L 140.738788 209.578535 
L 144.464565 215.088459 
L 148.24138 220.277899 
L 152.069233 225.159717 
L 155.948124 229.746741 
L 159.878052 234.051718 
L 163.859019 238.087268 
L 167.942062 241.911793 
L 172.127181 245.526822 
L 172.94379 246.114964 
L 173.045866 246.115005 
L 173.301056 246.24 
L 178.66005 241.732634 
L 182.743093 237.897173 
L 186.72406 233.850402 
L 190.602951 229.592006 
L 194.430804 225.060278 
L 198.207619 220.243348 
L 201.933395 215.129316 
L 205.608134 209.706296 
L 209.231835 203.962474 
L 212.855536 197.796234 
L 216.428198 191.273044 
L 219.949823 184.38054 
L 223.471447 176.995917 
L 226.942034 169.202642 
L 230.41262 160.861275 
L 233.883207 151.933268 
L 237.302756 142.522649 
L 240.722304 132.460253 
L 244.141853 121.700939 
L 247.561401 110.196438 
L 250.98095 97.89514 
L 254.34946 84.94472 
L 258.024199 70.460669 
L 258.126275 70.895146 
L 258.177313 70.678233 
L 258.432503 70.026193 
L 258.738731 70.896231 
L 259.249112 68.717329 
L 259.30015 68.936419 
L 259.351188 68.936419 
L 259.55534 69.374161 
L 259.606378 69.374161 
L 259.708454 69.155728 
L 259.759492 69.37438 
L 259.81053 69.155946 
L 259.912606 68.718424 
L 259.963644 68.937514 
L 260.014682 68.937514 
L 260.320911 70.247456 
L 260.371949 70.029896 
L 260.729215 68.50087 
L 260.780253 68.720177 
L 261.290633 70.466972 
L 262.260356 66.742694 
L 262.311394 66.742694 
L 262.719698 65.413206 
L 262.770736 65.635601 
L 262.821774 65.413429 
L 262.974889 64.968418 
L 263.025927 65.191257 
L 263.076965 64.968641 
L 263.128003 64.745802 
L 263.179041 64.968864 
L 263.485269 66.302558 
L 263.536307 66.081053 
L 264.046687 63.853783 
L 264.097725 64.077736 
L 264.301877 64.748255 
L 264.403954 64.525196 
L 264.50603 64.971538 
L 264.557068 64.748702 
L 265.679905 60.017322 
L 266.088209 61.380879 
L 266.955855 57.960598 
L 267.36416 59.792952 
L 267.415198 59.564937 
L 268.333882 55.42146 
L 268.384921 55.653846 
L 270.273328 64.090712 
L 270.324366 63.866995 
L 270.375404 64.090936 
L 270.426442 64.314653 
L 270.47748 64.09116 
L 271.243051 60.71182 
L 271.294089 60.938915 
L 271.345127 61.165784 
L 271.396165 60.939142 
L 272.059659 58.431302 
L 272.263811 59.118744 
L 273.233534 55.200006 
L 273.794952 57.515644 
L 273.845991 57.285352 
L 273.897029 57.515874 
L 274.254295 59.123089 
L 274.305333 58.894404 
L 274.356371 58.665491 
L 274.407409 58.894633 
L 274.560523 59.580686 
L 274.611561 59.352459 
L 274.662599 59.124003 
L 274.713637 59.352687 
L 275.019865 60.719995 
L 275.070903 60.492907 
L 276.040626 56.597717 
L 276.19374 57.290654 
L 276.244778 57.060137 
L 276.653083 55.207682 
L 276.704121 55.440282 
L 276.959311 56.136919 
L 277.061387 55.673346 
L 277.112425 55.905481 
L 277.367615 57.062675 
L 277.418653 56.83193 
L 277.673843 55.674739 
L 277.724881 55.906872 
L 278.592528 59.817804 
L 278.643566 59.589815 
L 280.021593 53.815609 
L 280.072631 54.049601 
L 280.123669 53.815843 
L 280.174707 53.581851 
L 280.225745 53.816077 
L 280.63405 55.216754 
L 280.940278 54.285227 
L 280.991316 54.518749 
L 281.042354 54.28546 
L 281.552734 52.175334 
L 281.91 53.81982 
L 281.961039 53.585832 
L 282.114153 53.117155 
L 282.369343 54.288263 
L 282.420381 54.054743 
L 282.624533 53.587238 
L 282.828685 54.055678 
L 282.981799 53.353721 
L 283.032837 53.588175 
L 283.74737 56.383633 
L 283.849446 56.383633 
L 283.900484 56.615057 
L 283.951522 56.383865 
L 284.308788 54.75903 
L 284.359826 54.992079 
L 285.125397 58.000818 
L 285.839929 54.995338 
L 285.993044 55.228383 
L 286.146158 54.529947 
L 286.197196 54.763225 
L 286.401348 55.229081 
L 286.86069 53.596372 
L 287.166918 54.532046 
L 287.217956 54.532046 
L 287.575223 53.363568 
L 287.779375 54.066197 
L 287.830413 53.832455 
L 287.881451 54.066431 
L 287.932489 54.066431 
L 288.085603 53.832923 
L 288.238717 54.067132 
L 288.340793 53.599417 
L 288.391831 53.833625 
L 288.544945 54.067833 
L 289.361554 50.537086 
L 289.514668 51.01139 
L 289.71882 50.062783 
L 289.769858 50.300528 
L 290.178163 51.722013 
L 290.280239 51.249605 
L 290.331277 51.486163 
L 290.994771 54.306476 
L 291.249961 53.605506 
L 291.403075 54.073676 
L 291.862418 51.961636 
L 291.913456 52.197482 
L 292.883179 56.402609 
L 293.036293 56.171436 
L 293.546673 58.018283 
L 293.699787 57.558474 
L 294.312244 59.850633 
L 295.026776 57.100283 
L 295.128852 57.561467 
L 295.17989 57.331221 
L 295.333004 57.100975 
L 295.384042 57.331682 
L 295.43508 57.101206 
L 295.486119 56.8705 
L 295.537157 57.101437 
L 296.098575 59.398145 
L 296.915184 56.179775 
L 297.170374 56.874195 
L 297.221412 56.874195 
L 298.03802 53.620261 
L 298.089058 53.620261 
L 298.395287 52.211618 
L 298.446325 52.447215 
L 298.548401 52.9177 
L 298.599439 52.68281 
L 298.752553 51.97673 
L 298.803591 52.212561 
L 299.211895 53.622837 
L 299.518123 52.684926 
L 299.824352 53.858191 
L 300.181618 52.45098 
L 300.334732 52.686572 
L 300.436808 52.216095 
L 300.487846 52.451686 
L 300.845112 53.626349 
L 300.998227 53.157753 
L 301.559645 55.493721 
L 302.223139 52.455452 
L 302.274178 52.690804 
L 302.376254 53.160803 
L 302.427292 52.926156 
L 302.937672 50.803747 
L 303.345976 52.693155 
L 303.397014 52.458041 
L 303.448052 52.222691 
L 303.49909 52.458276 
L 303.805319 53.866847 
L 303.856357 53.632906 
L 303.907395 53.632906 
L 304.264661 55.26722 
L 304.315699 55.03468 
L 304.417775 54.801907 
L 305.132308 58.042869 
L 305.183346 57.813104 
L 306.255144 53.403889 
L 306.459297 54.106397 
L 306.612411 53.87293 
L 306.663449 54.106864 
L 306.714487 53.873164 
L 306.867601 53.639463 
L 307.480057 56.202473 
L 307.888362 54.809596 
L 308.092514 55.740191 
L 308.143552 55.508124 
L 308.245628 55.043292 
L 308.296666 55.276057 
L 308.44978 55.740887 
L 308.70497 55.044223 
L 308.756008 55.276987 
L 308.807046 55.044456 
L 309.878845 50.107237 
L 309.929883 50.344937 
L 310.031959 50.819625 
L 310.082997 50.582637 
L 310.338187 49.870488 
L 310.389226 49.870488 
L 310.491302 49.394376 
L 310.54234 49.632789 
L 311.716214 54.817984 
L 311.869329 54.585227 
L 312.328671 56.44449 
L 312.685937 55.28559 
L 312.736975 55.28559 
L 313.40047 52.2446 
L 313.451508 52.480163 
L 313.65566 53.420062 
L 313.706698 53.185674 
L 313.91085 52.245777 
L 313.961888 52.481339 
L 314.16604 52.951992 
L 314.268116 52.717136 
L 314.523307 53.656089 
L 314.727459 52.718076 
L 314.778497 52.953166 
L 315.697181 56.683018 
L 315.748219 56.683018 
L 315.850296 57.145036 
L 315.901334 56.914374 
L 316.871056 52.957863 
L 317.330399 54.597121 
L 317.381437 54.363911 
L 317.432475 54.597355 
L 317.483513 54.597355 
L 317.534551 54.364144 
L 317.585589 54.597588 
L 317.942855 55.993355 
L 318.095969 55.297216 
L 318.147007 55.529727 
L 318.300121 56.225864 
L 318.351159 55.994282 
L 318.759464 54.600153 
L 318.810502 54.600153 
L 319.014654 55.066568 
L 319.269844 54.134206 
L 320.188529 57.845301 
L 320.698909 55.767342 
L 320.954099 56.925225 
L 321.005137 56.694343 
L 321.260328 56.000541 
L 321.311366 56.000541 
L 322.383164 51.320089 
L 323.148735 54.376049 
L 323.301849 53.675054 
L 323.352887 53.909187 
L 323.557039 54.843378 
L 323.608077 54.610414 
L 324.373648 51.087863 
L 324.424686 51.324582 
L 324.526762 51.797312 
L 324.5778 51.561302 
L 324.679876 51.325055 
L 325.190256 53.210543 
L 325.241294 52.975946 
L 325.292333 53.210777 
L 325.343371 53.445374 
L 325.394409 53.211012 
L 325.904789 51.327893 
L 326.006865 51.564373 
L 326.262055 50.855171 
L 326.415169 51.328839 
L 326.466207 51.09236 
L 326.517245 51.329076 
L 326.67036 52.037802 
L 326.721398 51.802032 
L 326.772436 51.802032 
L 327.282816 54.151497 
L 327.333854 53.917841 
L 327.43593 53.683951 
L 327.640082 54.619042 
L 327.69112 54.385853 
L 328.201501 52.512165 
L 328.813957 54.854793 
L 329.222261 53.219223 
L 329.324337 53.688165 
L 329.375376 53.454046 
L 329.987832 51.099935 
L 330.089908 51.573114 
L 330.140946 51.336879 
L 330.600288 49.676848 
L 331.825201 55.094029 
L 331.876239 55.094029 
L 331.927277 54.861316 
L 331.978315 55.094262 
L 332.284544 56.023952 
L 333.101152 52.287468 
L 333.15219 52.522988 
L 333.40738 53.462717 
L 333.458419 53.228372 
L 333.509457 53.462951 
L 334.172951 56.259672 
L 335.550978 50.401209 
L 335.602016 50.638616 
L 335.653054 50.401447 
L 335.857206 49.450397 
L 335.908244 49.688754 
L 336.826929 53.47045 
L 336.929005 53.001541 
L 336.980043 53.236347 
L 337.082119 53.705255 
L 337.133157 53.471153 
L 337.439385 52.061614 
L 337.490424 52.29736 
L 337.5925 52.768145 
L 337.643538 52.533106 
L 337.745614 52.062321 
L 337.796652 52.298066 
L 337.898728 52.76885 
L 337.949766 52.533811 
L 338.10288 51.827284 
L 338.153918 52.063264 
L 338.409108 52.770025 
L 338.460146 52.770025 
L 338.664298 53.474433 
L 339.072603 51.593193 
L 339.123641 51.829407 
L 339.378831 53.006941 
L 339.429869 52.772141 
L 339.685059 52.066564 
L 339.787135 52.537811 
L 339.838173 52.302541 
L 340.348554 49.936864 
L 340.399592 50.174734 
L 340.552706 50.886921 
L 340.603744 50.65 
L 341.318276 47.308124 
L 341.369314 47.548624 
L 342.236961 51.364072 
L 342.543189 49.941859 
L 342.594227 50.179725 
L 342.951494 51.601933 
L 343.002532 51.365727 
L 343.05357 51.602169 
L 343.104608 51.838374 
L 343.155646 51.602405 
L 343.410836 50.419014 
L 343.461874 50.656403 
L 343.56395 50.893554 
L 343.921216 49.230172 
L 343.972254 49.468749 
L 344.023292 49.707088 
L 344.07433 49.468988 
L 344.176406 48.992072 
L 344.227444 49.230888 
L 344.278483 49.469464 
L 344.329521 49.231126 
L 344.635749 47.796083 
L 344.686787 48.036095 
L 345.044053 49.709469 
L 345.095091 49.471371 
L 345.299243 48.516595 
L 345.350281 48.755886 
L 345.503395 49.472324 
L 345.554433 49.233989 
L 345.9117 48.038972 
L 346.626232 51.374002 
L 346.67727 51.137569 
L 347.136613 49.237568 
L 347.340765 50.190418 
L 347.391803 49.9528 
L 347.544917 49.238522 
L 347.595955 49.477091 
L 348.208411 52.321381 
L 348.259449 52.085894 
L 348.310487 52.085894 
L 348.463602 52.792353 
L 348.51464 52.557338 
L 348.871906 50.905637 
L 348.922944 51.142539 
L 348.973982 51.379204 
L 349.02502 51.142775 
L 349.28021 49.957082 
L 349.331248 50.194932 
L 349.382286 50.432545 
L 349.433324 50.19517 
L 349.637476 49.243293 
L 349.688515 49.481858 
L 349.739553 49.720183 
L 349.790591 49.482096 
L 349.892667 49.005206 
L 349.943705 49.244009 
L 350.607199 51.855128 
L 350.658237 51.619175 
L 350.709275 51.855364 
L 350.811351 52.091316 
L 351.015503 51.619884 
L 351.066542 51.856072 
L 351.11758 51.62012 
L 351.270694 50.910848 
L 351.321732 51.147745 
L 351.62796 52.093202 
L 351.88315 51.385587 
L 352.13834 52.565336 
L 352.189378 52.330094 
L 352.342492 52.094852 
L 352.750797 53.7399 
L 354.026748 47.817443 
L 354.077786 48.057434 
L 354.894394 51.392443 
L 355.251661 49.732564 
L 355.302699 49.970639 
L 356.017231 52.809273 
L 356.170345 52.57451 
L 356.221383 52.809743 
L 356.272421 52.574745 
L 356.680726 51.160051 
L 357.497334 54.451902 
L 357.548372 54.451902 
L 357.752524 53.751135 
L 357.803562 53.985191 
L 357.854601 53.751369 
L 358.313943 52.108287 
L 359.845084 59.07769 
L 360.355464 56.78007 
L 360.406502 57.011098 
L 360.45754 57.241894 
L 360.508578 57.011328 
L 361.069997 54.926066 
L 361.937644 58.395173 
L 361.988682 58.395173 
L 362.03972 58.624585 
L 362.090758 58.395402 
L 362.754252 55.627263 
L 362.856328 55.859443 
L 363.111518 54.69738 
L 363.162556 54.930491 
L 363.213594 54.930491 
L 363.979165 58.169664 
L 364.132279 57.940256 
L 364.591622 59.544737 
L 365.510306 55.400893 
L 365.561344 55.6333 
L 365.612382 55.865474 
L 365.66342 55.633532 
L 366.071725 54.237233 
L 366.122763 54.237233 
L 366.173801 54.003663 
L 366.224839 54.237467 
L 367.092485 57.716831 
L 367.398714 56.795086 
L 367.858056 58.865903 
L 367.909094 58.636961 
L 368.317398 57.258725 
L 368.674665 58.409396 
L 368.725703 58.409396 
L 368.776741 58.638794 
L 368.827779 58.409625 
L 368.878817 58.409625 
L 370.052692 53.075024 
L 370.10373 53.309756 
L 370.920338 57.033715 
L 370.971376 56.802941 
L 371.634871 54.015586 
L 371.941099 55.182211 
L 372.757708 51.904437 
L 372.859784 51.904437 
L 373.114974 53.081596 
L 373.166012 52.84687 
L 373.47224 51.669714 
L 374.135735 54.254517 
L 374.544039 52.614732 
L 374.952343 54.0226 
L 375.003381 53.788815 
L 375.054419 54.022834 
L 375.156495 54.49017 
L 375.207533 54.256852 
L 375.717914 52.382128 
L 376.891789 57.277168 
L 376.993865 57.737999 
L 377.044903 57.507929 
L 377.095941 57.507929 
L 377.146979 57.738229 
L 377.198017 57.508159 
L 378.065663 54.029613 
L 378.116701 54.263392 
L 378.16774 54.029847 
L 378.320854 53.327812 
L 378.371892 53.562292 
L 378.42293 53.796537 
L 378.473968 53.562526 
L 378.525006 53.328281 
L 378.576044 53.562761 
L 379.545767 57.513456 
L 379.596805 57.283162 
L 379.647843 57.513686 
L 379.800957 58.203878 
L 379.851995 57.974274 
L 379.954071 57.514377 
L 380.005109 57.744671 
L 380.107185 57.974734 
L 380.209261 57.514838 
L 380.260299 57.745131 
L 380.362375 58.205026 
L 380.413413 57.975423 
L 380.464451 57.745591 
L 380.515489 57.975653 
L 380.566527 58.205485 
L 380.617565 57.975883 
L 380.668603 57.975883 
L 380.923794 57.285928 
L 380.974832 57.51645 
L 381.02587 57.286159 
L 381.28106 56.131243 
L 381.332098 56.36292 
L 381.587288 57.517832 
L 381.638326 57.287542 
L 381.944554 55.900958 
L 381.995592 56.132865 
L 382.04663 56.36454 
L 382.097668 56.133097 
L 382.454935 54.972638 
L 382.659087 55.902582 
L 382.710125 55.670677 
L 383.62881 51.692618 
L 384.292304 54.276937 
L 384.343342 54.043406 
L 384.39438 54.27717 
L 384.496456 54.27717 
L 384.547494 54.04364 
L 384.598532 54.277404 
L 384.751646 54.511167 
L 384.802684 54.511167 
L 385.057875 53.576581 
L 385.466179 55.443884 
L 385.517217 55.21152 
L 385.568255 55.21152 
L 386.48694 51.225594 
L 386.74213 52.406141 
L 386.793168 52.170739 
L 386.895244 51.69923 
L 386.946282 51.935338 
L 386.99732 52.17121 
L 387.048358 51.935574 
L 387.660815 49.327969 
L 388.375347 52.409672 
L 388.630537 51.230325 
L 388.681575 51.466903 
L 388.834689 52.175216 
L 388.885727 51.939584 
L 389.038842 51.703952 
L 389.447146 53.586184 
L 389.498184 53.351962 
L 389.702336 52.412732 
L 389.753374 52.648127 
L 390.467907 55.919046 
L 390.518945 55.687158 
L 391.386591 52.181107 
L 391.590743 52.65236 
L 391.94801 51.474465 
L 392.2032 52.65377 
L 392.254238 52.418617 
L 392.45839 51.947839 
L 392.560466 52.183699 
L 392.611504 51.948075 
L 392.662542 52.183934 
L 392.71358 52.419558 
L 392.764618 52.18417 
L 392.917732 51.476592 
L 392.96877 51.712923 
L 393.121885 52.4205 
L 393.172923 52.185112 
L 393.326037 51.949726 
L 394.040569 55.23036 
L 394.091607 54.997782 
L 394.80614 52.188882 
L 395.06133 53.364623 
L 395.112368 53.13018 
L 395.469634 51.954443 
L 396.694547 57.5503 
L 396.898699 57.089555 
L 396.949737 57.320273 
L 397.000775 57.089786 
L 397.970498 52.666468 
L 398.021536 52.90161 
L 398.838145 56.400642 
L 399.909944 51.728269 
L 399.960982 51.964348 
L 400.01202 51.728505 
L 400.063058 51.492426 
L 400.114096 51.728741 
L 400.369286 52.906778 
L 400.420324 52.671877 
L 400.5224 52.20137 
L 400.573438 52.436976 
L 400.624476 52.436976 
L 400.77759 52.201841 
L 401.083818 53.611947 
L 401.134856 53.377751 
L 402.206655 48.644342 
L 402.717036 50.551203 
L 402.768074 50.551203 
L 402.819112 50.313947 
L 402.87015 50.55144 
L 403.074302 51.499043 
L 403.12534 51.262734 
L 403.38053 50.077641 
L 403.431568 50.315372 
L 403.482606 50.315372 
L 403.584682 49.840149 
L 403.63572 50.078117 
L 403.788834 50.790593 
L 403.839872 50.553576 
L 404.044025 49.841101 
L 404.095063 50.079068 
L 404.146101 49.841339 
L 404.197139 49.603373 
L 404.248177 49.841577 
L 404.452329 50.554762 
L 404.503367 50.317509 
L 404.554405 50.554999 
L 405.779318 55.952204 
L 406.595927 52.685279 
L 406.953193 53.858776 
L 407.004231 53.858776 
L 407.055269 53.624827 
L 407.106307 53.85901 
L 407.310459 54.560155 
L 407.514611 53.625764 
L 407.565649 53.859946 
L 407.718763 54.561088 
L 407.769801 54.327841 
L 408.739524 50.327008 
L 408.943676 51.275507 
L 408.994714 51.038975 
L 409.045752 50.802206 
L 409.09679 51.039212 
L 409.811323 54.33251 
L 409.862361 54.099035 
L 410.117551 52.928153 
L 410.168589 53.163032 
L 410.474817 54.100438 
L 410.525855 54.100438 
L 410.781046 55.266639 
L 410.832084 55.034098 
L 411.087274 53.8679 
L 411.138312 54.10184 
L 411.240388 54.569018 
L 411.291426 54.335779 
L 411.597654 52.931441 
L 411.648692 53.166317 
L 411.95492 54.57065 
L 412.005959 54.337413 
L 412.159073 53.636302 
L 412.210111 53.870473 
L 412.873605 56.893477 
L 412.924643 56.662563 
L 413.741252 52.936373 
L 413.79229 53.171245 
L 413.843328 53.405881 
L 413.894366 53.171479 
L 414.098518 52.702207 
L 414.149556 52.702207 
L 414.200594 52.467102 
L 414.251632 52.702442 
L 414.30267 52.937548 
L 414.353708 52.702677 
L 414.404746 52.467572 
L 414.455784 52.702913 
L 414.506822 52.938017 
L 414.55786 52.703148 
L 414.762013 51.761318 
L 414.813051 51.997364 
L 415.017203 52.704088 
L 415.221355 51.762262 
L 415.272393 51.998308 
L 415.578621 52.940366 
L 415.629659 52.705499 
L 415.680697 52.940601 
L 416.191078 55.045969 
L 416.242116 54.813207 
L 416.293154 55.046202 
L 417.211838 58.742813 
L 418.283637 54.351421 
L 418.99817 57.13777 
L 419.355436 55.750286 
L 419.610626 56.677124 
L 420.223083 54.121938 
L 420.478273 55.055279 
L 421.243843 52.011512 
L 421.754224 54.358892 
L 421.805262 54.125443 
L 422.060452 53.423929 
L 422.11149 53.658313 
L 422.162528 53.424164 
L 423.234327 48.930808 
L 423.336403 49.408323 
L 423.387441 49.169923 
L 423.489517 48.692409 
L 423.540555 48.931524 
L 423.744707 49.885597 
L 423.795745 49.647675 
L 423.846783 49.647675 
L 423.897821 49.409515 
L 423.948859 49.647913 
L 424.255088 50.599361 
L 424.306126 50.599361 
L 425.735191 57.152302 
L 425.786229 56.921647 
L 425.837267 57.152533 
L 425.888305 57.383188 
L 425.939343 57.152763 
L 426.296609 55.533327 
L 426.347647 55.765601 
L 426.551799 56.229453 
L 427.674636 51.55386 
L 427.82775 52.026131 
L 428.287093 50.133264 
L 428.389169 50.608375 
L 428.440207 50.371176 
L 428.491245 50.133739 
L 428.542283 50.371413 
L 429.154739 52.735355 
L 429.256815 52.264975 
L 429.307853 52.500518 
L 429.460967 53.205734 
L 429.512005 52.971132 
L 429.92031 51.558821 
L 430.379652 53.207845 
L 430.481728 52.973245 
L 430.838994 54.612163 
L 430.890032 54.378967 
L 431.859755 50.379011 
L 431.910793 50.61644 
L 431.961831 50.379248 
L 432.012869 50.14182 
L 432.063907 50.379486 
L 432.982592 54.383636 
L 433.03363 54.150212 
L 433.084668 54.383869 
L 433.441934 55.548889 
L 433.492972 55.31663 
L 433.54401 55.549121 
L 434.105429 57.631337 
L 434.156467 57.40116 
L 434.207505 57.631567 
L 434.258543 57.861743 
L 434.309581 57.631797 
L 434.513733 57.171446 
L 434.564771 57.171446 
L 434.666847 56.709942 
L 434.717885 56.94104 
L 434.922037 57.632948 
L 435.075152 57.403003 
L 435.12619 57.633408 
L 435.177228 57.403234 
L 435.738646 55.088793 
L 436.197988 56.713178 
L 437.065635 53.222624 
L 437.167711 53.222624 
L 438.137434 49.202853 
L 438.545738 51.105024 
L 438.596776 50.868322 
L 439.311309 48.009599 
L 439.413385 48.249397 
L 439.923765 45.843005 
L 439.974803 46.08497 
L 440.076879 46.568173 
L 440.127917 46.326934 
L 440.281031 45.601767 
L 440.332069 45.843973 
L 441.250754 50.162496 
L 441.301792 49.924851 
L 441.35283 49.686968 
L 441.403868 49.925089 
L 441.556982 50.638023 
L 441.60802 50.400853 
L 441.761134 50.163684 
L 441.914249 50.875904 
L 441.965287 50.638972 
L 442.577743 47.777242 
L 442.628781 48.017272 
L 442.935009 48.975235 
L 443.649542 46.093671 
L 443.70058 46.335386 
L 443.751618 46.093913 
L 444.057846 44.64 
L 444.108884 44.883168 
L 444.364074 45.611455 
L 444.46615 45.12682 
L 444.517188 45.369501 
L 445.231721 48.741662 
L 445.282759 48.502596 
L 445.588987 47.303675 
L 446.099368 49.697921 
L 446.150406 49.459811 
L 446.405596 48.744292 
L 446.456634 48.983355 
L 446.507672 48.744531 
L 446.711824 47.786843 
L 446.762862 48.026864 
L 447.732585 52.306427 
L 448.191927 50.653201 
L 448.345041 51.363954 
L 448.345041 51.363954 
" clip-path="url(#p79ad994fe1)" style="fill: none; stroke: #1f77b4; stroke-width: 1.5; stroke-linecap: square"/>
   </g>
   <g id="patch_3">
    <path d="M 121.5 256.32 
L 121.5 34.56 
" style="fill: none; stroke: #000000; stroke-width: 0.8; stroke-linejoin: miter; stroke-linecap: square"/>
   </g>
   <g id="patch_4">
    <path d="M 463.909091 256.32 
L 463.909091 34.56 
" style="fill: none; stroke: #000000; stroke-width: 0.8; stroke-linejoin: miter; stroke-linecap: square"/>
   </g>
   <g id="patch_5">
    <path d="M 121.5 256.32 
L 463.909091 256.32 
" style="fill: none; stroke: #000000; stroke-width: 0.8; stroke-linejoin: miter; stroke-linecap: square"/>
   </g>
   <g id="patch_6">
    <path d="M 121.5 34.56 
L 463.909091 34.56 
" style="fill: none; stroke: #000000; stroke-width: 0.8; stroke-linejoin: miter; stroke-linecap: square"/>
   </g>
  </g>
  <g id="axes_2">
   <g id="patch_7">
    <path d="M 532.390909 256.32 
L 874.8 256.32 
L 874.8 34.56 
L 532.390909 34.56 
z
" style="fill: #ffffff"/>
   </g>
   <g id="matplotlib.axis_3">
    <g id="xtick_8">
     <g id="line2d_15">
      <g>
       <use xlink:href="#m6be2e9c56e" x="547.954959" y="256.32" style="stroke: #000000; stroke-width: 0.8"/>
      </g>
     </g>
     <g id="text_14">
      <!-- 0 -->
      <g transform="translate(544.773709 270.918437) scale(0.1 -0.1)">
       <use xlink:href="#DejaVuSans-30"/>
      </g>
     </g>
    </g>
    <g id="xtick_9">
     <g id="line2d_16">
      <g>
       <use xlink:href="#m6be2e9c56e" x="598.992996" y="256.32" style="stroke: #000000; stroke-width: 0.8"/>
      </g>
     </g>
     <g id="text_15">
      <!-- 1000 -->
      <g transform="translate(586.267996 270.918437) scale(0.1 -0.1)">
       <use xlink:href="#DejaVuSans-31"/>
       <use xlink:href="#DejaVuSans-30" x="63.623047"/>
       <use xlink:href="#DejaVuSans-30" x="127.246094"/>
       <use xlink:href="#DejaVuSans-30" x="190.869141"/>
      </g>
     </g>
    </g>
    <g id="xtick_10">
     <g id="line2d_17">
      <g>
       <use xlink:href="#m6be2e9c56e" x="650.031034" y="256.32" style="stroke: #000000; stroke-width: 0.8"/>
      </g>
     </g>
     <g id="text_16">
      <!-- 2000 -->
      <g transform="translate(637.306034 270.918437) scale(0.1 -0.1)">
       <use xlink:href="#DejaVuSans-32"/>
       <use xlink:href="#DejaVuSans-30" x="63.623047"/>
       <use xlink:href="#DejaVuSans-30" x="127.246094"/>
       <use xlink:href="#DejaVuSans-30" x="190.869141"/>
      </g>
     </g>
    </g>
    <g id="xtick_11">
     <g id="line2d_18">
      <g>
       <use xlink:href="#m6be2e9c56e" x="701.069072" y="256.32" style="stroke: #000000; stroke-width: 0.8"/>
      </g>
     </g>
     <g id="text_17">
      <!-- 3000 -->
      <g transform="translate(688.344072 270.918437) scale(0.1 -0.1)">
       <use xlink:href="#DejaVuSans-33"/>
       <use xlink:href="#DejaVuSans-30" x="63.623047"/>
       <use xlink:href="#DejaVuSans-30" x="127.246094"/>
       <use xlink:href="#DejaVuSans-30" x="190.869141"/>
      </g>
     </g>
    </g>
    <g id="xtick_12">
     <g id="line2d_19">
      <g>
       <use xlink:href="#m6be2e9c56e" x="752.107109" y="256.32" style="stroke: #000000; stroke-width: 0.8"/>
      </g>
     </g>
     <g id="text_18">
      <!-- 4000 -->
      <g transform="translate(739.382109 270.918437) scale(0.1 -0.1)">
       <use xlink:href="#DejaVuSans-34"/>
       <use xlink:href="#DejaVuSans-30" x="63.623047"/>
       <use xlink:href="#DejaVuSans-30" x="127.246094"/>
       <use xlink:href="#DejaVuSans-30" x="190.869141"/>
      </g>
     </g>
    </g>
    <g id="xtick_13">
     <g id="line2d_20">
      <g>
       <use xlink:href="#m6be2e9c56e" x="803.145147" y="256.32" style="stroke: #000000; stroke-width: 0.8"/>
      </g>
     </g>
     <g id="text_19">
      <!-- 5000 -->
      <g transform="translate(790.420147 270.918437) scale(0.1 -0.1)">
       <use xlink:href="#DejaVuSans-35"/>
       <use xlink:href="#DejaVuSans-30" x="63.623047"/>
       <use xlink:href="#DejaVuSans-30" x="127.246094"/>
       <use xlink:href="#DejaVuSans-30" x="190.869141"/>
      </g>
     </g>
    </g>
    <g id="xtick_14">
     <g id="line2d_21">
      <g>
       <use xlink:href="#m6be2e9c56e" x="854.183185" y="256.32" style="stroke: #000000; stroke-width: 0.8"/>
      </g>
     </g>
     <g id="text_20">
      <!-- 6000 -->
      <g transform="translate(841.458185 270.918437) scale(0.1 -0.1)">
       <use xlink:href="#DejaVuSans-36"/>
       <use xlink:href="#DejaVuSans-30" x="63.623047"/>
       <use xlink:href="#DejaVuSans-30" x="127.246094"/>
       <use xlink:href="#DejaVuSans-30" x="190.869141"/>
      </g>
     </g>
    </g>
   </g>
   <g id="matplotlib.axis_4">
    <g id="ytick_7">
     <g id="line2d_22">
      <g>
       <use xlink:href="#md2ce252d28" x="532.390909" y="238.715615" style="stroke: #000000; stroke-width: 0.8"/>
      </g>
     </g>
     <g id="text_21">
      <!-- −1.6 -->
      <g transform="translate(501.108097 242.514834) scale(0.1 -0.1)">
       <defs>
        <path id="DejaVuSans-2212" d="M 678 2272 
L 4684 2272 
L 4684 1741 
L 678 1741 
L 678 2272 
z
" transform="scale(0.015625)"/>
       </defs>
       <use xlink:href="#DejaVuSans-2212"/>
       <use xlink:href="#DejaVuSans-31" x="83.789062"/>
       <use xlink:href="#DejaVuSans-2e" x="147.412109"/>
       <use xlink:href="#DejaVuSans-36" x="179.199219"/>
      </g>
     </g>
    </g>
    <g id="ytick_8">
     <g id="line2d_23">
      <g>
       <use xlink:href="#md2ce252d28" x="532.390909" y="210.455557" style="stroke: #000000; stroke-width: 0.8"/>
      </g>
     </g>
     <g id="text_22">
      <!-- −1.4 -->
      <g transform="translate(501.108097 214.254776) scale(0.1 -0.1)">
       <use xlink:href="#DejaVuSans-2212"/>
       <use xlink:href="#DejaVuSans-31" x="83.789062"/>
       <use xlink:href="#DejaVuSans-2e" x="147.412109"/>
       <use xlink:href="#DejaVuSans-34" x="179.199219"/>
      </g>
     </g>
    </g>
    <g id="ytick_9">
     <g id="line2d_24">
      <g>
       <use xlink:href="#md2ce252d28" x="532.390909" y="182.1955" style="stroke: #000000; stroke-width: 0.8"/>
      </g>
     </g>
     <g id="text_23">
      <!-- −1.2 -->
      <g transform="translate(501.108097 185.994718) scale(0.1 -0.1)">
       <use xlink:href="#DejaVuSans-2212"/>
       <use xlink:href="#DejaVuSans-31" x="83.789062"/>
       <use xlink:href="#DejaVuSans-2e" x="147.412109"/>
       <use xlink:href="#DejaVuSans-32" x="179.199219"/>
      </g>
     </g>
    </g>
    <g id="ytick_10">
     <g id="line2d_25">
      <g>
       <use xlink:href="#md2ce252d28" x="532.390909" y="153.935442" style="stroke: #000000; stroke-width: 0.8"/>
      </g>
     </g>
     <g id="text_24">
      <!-- −1.0 -->
      <g transform="translate(501.108097 157.734661) scale(0.1 -0.1)">
       <use xlink:href="#DejaVuSans-2212"/>
       <use xlink:href="#DejaVuSans-31" x="83.789062"/>
       <use xlink:href="#DejaVuSans-2e" x="147.412109"/>
       <use xlink:href="#DejaVuSans-30" x="179.199219"/>
      </g>
     </g>
    </g>
    <g id="ytick_11">
     <g id="line2d_26">
      <g>
       <use xlink:href="#md2ce252d28" x="532.390909" y="125.675384" style="stroke: #000000; stroke-width: 0.8"/>
      </g>
     </g>
     <g id="text_25">
      <!-- −0.8 -->
      <g transform="translate(501.108097 129.474603) scale(0.1 -0.1)">
       <defs>
        <path id="DejaVuSans-38" d="M 2034 2216 
Q 1584 2216 1326 1975 
Q 1069 1734 1069 1313 
Q 1069 891 1326 650 
Q 1584 409 2034 409 
Q 2484 409 2743 651 
Q 3003 894 3003 1313 
Q 3003 1734 2745 1975 
Q 2488 2216 2034 2216 
z
M 1403 2484 
Q 997 2584 770 2862 
Q 544 3141 544 3541 
Q 544 4100 942 4425 
Q 1341 4750 2034 4750 
Q 2731 4750 3128 4425 
Q 3525 4100 3525 3541 
Q 3525 3141 3298 2862 
Q 3072 2584 2669 2484 
Q 3125 2378 3379 2068 
Q 3634 1759 3634 1313 
Q 3634 634 3220 271 
Q 2806 -91 2034 -91 
Q 1263 -91 848 271 
Q 434 634 434 1313 
Q 434 1759 690 2068 
Q 947 2378 1403 2484 
z
M 1172 3481 
Q 1172 3119 1398 2916 
Q 1625 2713 2034 2713 
Q 2441 2713 2670 2916 
Q 2900 3119 2900 3481 
Q 2900 3844 2670 4047 
Q 2441 4250 2034 4250 
Q 1625 4250 1398 4047 
Q 1172 3844 1172 3481 
z
" transform="scale(0.015625)"/>
       </defs>
       <use xlink:href="#DejaVuSans-2212"/>
       <use xlink:href="#DejaVuSans-30" x="83.789062"/>
       <use xlink:href="#DejaVuSans-2e" x="147.412109"/>
       <use xlink:href="#DejaVuSans-38" x="179.199219"/>
      </g>
     </g>
    </g>
    <g id="ytick_12">
     <g id="line2d_27">
      <g>
       <use xlink:href="#md2ce252d28" x="532.390909" y="97.415327" style="stroke: #000000; stroke-width: 0.8"/>
      </g>
     </g>
     <g id="text_26">
      <!-- −0.6 -->
      <g transform="translate(501.108097 101.214545) scale(0.1 -0.1)">
       <use xlink:href="#DejaVuSans-2212"/>
       <use xlink:href="#DejaVuSans-30" x="83.789062"/>
       <use xlink:href="#DejaVuSans-2e" x="147.412109"/>
       <use xlink:href="#DejaVuSans-36" x="179.199219"/>
      </g>
     </g>
    </g>
    <g id="ytick_13">
     <g id="line2d_28">
      <g>
       <use xlink:href="#md2ce252d28" x="532.390909" y="69.155269" style="stroke: #000000; stroke-width: 0.8"/>
      </g>
     </g>
     <g id="text_27">
      <!-- −0.4 -->
      <g transform="translate(501.108097 72.954488) scale(0.1 -0.1)">
       <use xlink:href="#DejaVuSans-2212"/>
       <use xlink:href="#DejaVuSans-30" x="83.789062"/>
       <use xlink:href="#DejaVuSans-2e" x="147.412109"/>
       <use xlink:href="#DejaVuSans-34" x="179.199219"/>
      </g>
     </g>
    </g>
    <g id="ytick_14">
     <g id="line2d_29">
      <g>
       <use xlink:href="#md2ce252d28" x="532.390909" y="40.895211" style="stroke: #000000; stroke-width: 0.8"/>
      </g>
     </g>
     <g id="text_28">
      <!-- −0.2 -->
      <g transform="translate(501.108097 44.69443) scale(0.1 -0.1)">
       <use xlink:href="#DejaVuSans-2212"/>
       <use xlink:href="#DejaVuSans-30" x="83.789062"/>
       <use xlink:href="#DejaVuSans-2e" x="147.412109"/>
       <use xlink:href="#DejaVuSans-32" x="179.199219"/>
      </g>
     </g>
    </g>
   </g>
   <g id="line2d_30">
    <path d="M 547.954959 153.935442 
L 548.108073 153.511965 
L 548.159111 153.652842 
L 551.578659 163.419682 
L 554.998208 173.86297 
L 558.417756 185.029557 
L 561.837305 196.969539 
L 565.205815 209.539575 
L 568.574326 222.966781 
L 571.942836 237.309608 
L 573.473978 243.68616 
L 573.576054 243.224289 
L 573.627092 243.454878 
L 574.239548 246.24 
L 574.290586 246.006395 
L 575.056157 242.76035 
L 575.770689 245.769993 
L 575.821727 245.536858 
L 575.872765 245.76976 
L 575.923803 245.76976 
L 577.04664 240.694295 
L 577.097678 240.922355 
L 577.199754 241.150642 
L 578.424667 235.952197 
L 578.526743 235.952197 
L 578.577781 236.175514 
L 578.628819 235.951974 
L 579.853732 231.090248 
L 583.324319 216.72217 
L 586.794905 203.299099 
L 590.265492 190.758881 
L 593.736078 179.04345 
L 597.206665 168.098558 
L 600.677252 157.873526 
L 604.198876 148.185322 
L 607.720501 139.143375 
L 611.242125 130.704575 
L 614.814788 122.718497 
L 618.387451 115.272588 
L 622.011151 108.234616 
L 625.634852 101.679247 
L 629.309591 95.490449 
L 632.984329 89.731788 
L 636.710106 84.301632 
L 640.486921 79.187319 
L 644.314774 74.376175 
L 648.193665 69.855557 
L 652.123594 65.612903 
L 656.155599 61.586774 
L 658.7075 59.29143 
L 662.841581 55.659534 
L 665.597636 53.478336 
L 665.699712 53.478295 
L 668.966146 50.983346 
L 669.068222 50.983308 
L 669.272374 50.906612 
L 669.37445 50.906573 
L 669.578602 50.830031 
L 669.680679 50.829992 
L 670.191059 50.525463 
L 670.395211 50.601244 
L 670.548325 50.56324 
L 670.905591 50.753222 
L 671.007667 50.753184 
L 671.313896 50.867614 
L 671.7222 50.638754 
L 672.028428 50.790958 
L 673.151265 50.035011 
L 673.304379 50.072373 
L 673.610607 49.922812 
L 673.712683 49.922774 
L 674.223064 49.662506 
L 674.478254 49.73656 
L 674.988634 49.440749 
L 675.447977 49.699125 
L 676.621852 48.92848 
L 676.723928 48.928444 
L 677.18327 48.675116 
L 677.336384 48.71112 
L 677.846765 48.423484 
L 677.999879 48.459237 
L 678.101955 48.459201 
L 678.306107 48.530849 
L 679.326868 47.925444 
L 679.735172 48.031386 
L 681.215275 48.92692 
L 682.184998 48.35055 
L 682.287074 48.350515 
L 682.593302 48.207832 
L 682.695378 48.207796 
L 683.052644 48.030253 
L 683.15472 48.030218 
L 683.716139 47.712898 
L 683.818215 47.712863 
L 684.175481 47.53779 
L 684.532747 47.712618 
L 684.634824 47.712582 
L 684.787938 47.747625 
L 684.890014 47.74759 
L 685.043128 47.782667 
L 685.24728 47.712372 
L 685.50247 47.817674 
L 685.604546 47.817639 
L 685.961813 47.958544 
L 686.931535 47.397554 
L 687.186725 47.467079 
L 687.59503 47.293233 
L 688.258524 47.641342 
L 688.61579 47.466626 
L 689.483437 47.992736 
L 690.044856 47.675753 
L 690.146932 47.675718 
L 691.167692 47.084736 
L 691.422883 47.188153 
L 691.831187 46.981318 
L 691.933263 46.981284 
L 692.443643 46.741547 
L 692.749872 46.843935 
L 692.954024 46.775517 
L 693.719594 47.187428 
L 693.923746 47.118323 
L 694.536203 47.464676 
L 694.740355 47.429812 
L 694.842431 47.429777 
L 695.250735 47.221496 
L 695.965268 47.638787 
L 696.832915 47.151874 
L 696.934991 47.15184 
L 697.139143 47.117289 
L 697.394333 47.220804 
L 697.598485 47.151633 
L 698.210942 47.49832 
L 699.02755 47.047774 
L 699.180664 47.082152 
L 699.28274 47.082118 
L 699.435854 47.11653 
L 700.303501 46.60288 
L 700.456615 46.636814 
L 701.273224 46.197401 
L 701.834642 46.466807 
L 702.345023 46.197066 
L 702.447099 46.197032 
L 702.600213 46.163437 
L 703.467859 46.601861 
L 703.620974 46.567861 
L 704.335506 46.977266 
L 704.845886 46.737557 
L 705.101077 46.839932 
L 705.917685 46.364132 
L 706.223913 46.465386 
L 706.683256 46.22925 
L 706.989484 46.363795 
L 707.806093 45.894617 
L 707.959207 45.927844 
L 708.061283 45.92781 
L 708.163359 45.927777 
L 708.673739 45.662333 
L 708.826853 45.629273 
L 708.979968 45.662234 
L 709.133082 45.662201 
L 709.541386 45.497363 
L 710.255918 45.827402 
L 710.460071 45.761017 
L 710.562147 45.760984 
L 711.174603 45.43118 
L 711.429793 45.46391 
L 711.838098 45.332726 
L 712.603668 45.694137 
L 713.011972 45.594994 
L 713.471315 45.430458 
L 713.981695 45.234112 
L 715.053494 45.792684 
L 715.41076 45.627195 
L 716.023217 45.89199 
L 717.146054 45.233102 
L 717.299168 45.233069 
L 717.50332 45.200439 
L 718.422004 45.692319 
L 718.830309 45.494438 
L 719.289651 45.658998 
L 719.544841 45.625908 
L 719.85107 45.691856 
L 720.769754 45.166865 
L 721.024944 45.199332 
L 721.535325 45.297024 
L 722.7092 45.956471 
L 722.811276 45.956438 
L 723.372694 46.19032 
L 724.291379 45.657413 
L 724.648645 45.756512 
L 724.903835 45.723325 
L 725.056949 45.75638 
L 725.31214 45.723192 
L 725.465254 45.756247 
L 725.720444 45.72306 
L 726.639129 46.189247 
L 726.996395 46.055198 
L 727.149509 46.088585 
L 727.557813 45.888332 
L 727.710927 45.888299 
L 727.813003 45.888266 
L 728.221308 46.054831 
L 728.374422 46.021377 
L 729.293107 46.525658 
L 729.599335 46.390265 
L 729.752449 46.423986 
L 729.956601 46.356409 
L 730.058677 46.356375 
L 730.160753 46.356341 
L 730.671134 46.627023 
L 730.824248 46.592997 
L 731.0284 46.660913 
L 731.640856 46.322149 
L 732.049161 46.524743 
L 732.916807 46.019908 
L 733.018883 46.019875 
L 733.37615 45.853285 
L 734.039644 46.186965 
L 734.14172 46.186932 
L 734.447948 46.287654 
L 735.315595 45.786352 
L 735.417671 45.786318 
L 735.621823 45.720016 
L 736.183242 45.952239 
L 736.285318 45.952206 
L 736.591546 46.052224 
L 737.101926 45.785788 
L 737.204002 45.785755 
L 737.357116 45.752571 
L 737.612307 45.85199 
L 737.816459 45.785556 
L 738.071649 45.885073 
L 738.275801 45.818574 
L 738.786182 46.018106 
L 739.143448 45.851491 
L 739.755904 46.11812 
L 740.011094 46.017739 
L 740.164209 46.051088 
L 740.878741 45.652295 
L 741.082893 45.652229 
L 741.389121 45.586162 
L 741.69535 45.68508 
L 742.971301 46.386046 
L 743.583757 46.0835 
L 743.787909 45.983255 
L 744.094137 45.85003 
L 744.29829 45.916459 
L 744.400366 45.916426 
L 744.706594 46.049718 
L 744.80867 46.049684 
L 745.114898 46.149995 
L 745.216974 46.149961 
L 745.31905 46.149928 
L 746.288773 45.617661 
L 746.697077 45.749723 
L 747.360572 45.849033 
L 747.615762 45.915461 
L 747.92199 46.015402 
L 748.024066 46.015368 
L 748.636523 45.683031 
L 748.942751 45.782241 
L 749.197941 45.715947 
L 749.810398 45.981455 
L 749.963512 45.981421 
L 750.26974 46.114973 
L 750.52493 46.014601 
L 750.678044 46.014567 
L 751.086349 45.814758 
L 751.188425 45.814725 
L 751.290501 45.814691 
L 751.494653 45.88105 
L 752.515414 45.320336 
L 752.719566 45.320271 
L 752.974756 45.254901 
L 753.229946 45.32014 
L 753.485136 45.28739 
L 753.791365 45.352662 
L 754.301745 45.156782 
L 754.505897 45.059314 
L 755.067316 44.832961 
L 755.271468 44.832896 
L 755.73081 44.64016 
L 756.088076 44.736207 
L 756.343266 44.704042 
L 757.670255 45.416949 
L 757.925446 45.384102 
L 758.129598 45.482447 
L 759.048282 45.945244 
L 759.252435 46.045274 
L 759.405549 46.078651 
L 760.579424 45.383283 
L 761.44707 45.844716 
L 761.906413 45.612912 
L 762.416793 45.811208 
L 762.518869 45.811175 
L 763.488592 46.31228 
L 763.590668 46.312246 
L 763.743782 46.345889 
L 764.815581 45.711084 
L 765.632189 46.110119 
L 765.989456 45.943045 
L 766.550874 46.176834 
L 766.65295 46.1768 
L 766.959178 46.277492 
L 767.622673 45.909238 
L 768.541357 46.411825 
L 768.643434 46.411791 
L 768.796548 46.445534 
L 769.204852 46.243144 
L 771.093259 47.370103 
L 771.297412 47.300633 
L 771.450526 47.335264 
L 772.011944 47.024175 
L 772.318172 47.127411 
L 772.777515 47.230922 
L 772.879591 47.230887 
L 773.594123 46.852197 
L 773.798275 46.920631 
L 774.104504 46.78366 
L 774.921112 47.264825 
L 775.125264 47.195566 
L 775.584607 47.438181 
L 775.839797 47.333841 
L 775.941873 47.333807 
L 776.554329 47.022731 
L 777.06471 46.919568 
L 777.217824 46.885249 
L 778.136509 47.402578 
L 778.289623 47.367776 
L 778.851041 47.646576 
L 779.259345 47.436997 
L 779.463498 47.506601 
L 779.565574 47.506566 
L 779.769726 47.576309 
L 780.484258 47.159279 
L 780.586334 47.159244 
L 780.994639 46.986935 
L 781.862285 47.505799 
L 782.576818 47.1241 
L 782.832008 47.227635 
L 783.852769 46.64421 
L 784.669377 46.746135 
L 785.026644 46.916997 
L 785.537024 46.643666 
L 785.792214 46.74576 
L 785.945328 46.711615 
L 786.098442 46.745657 
L 786.608823 46.473726 
L 787.884774 47.226009 
L 788.905535 46.642612 
L 789.058649 46.676585 
L 789.313839 46.574529 
L 789.977333 46.9497 
L 790.130447 46.949666 
L 790.538752 47.121547 
L 791.049132 47.225041 
L 791.304322 47.32888 
L 791.457436 47.328845 
L 791.916779 47.572396 
L 792.274045 47.398024 
L 792.529235 47.502382 
L 792.886501 47.363087 
L 793.090654 47.39778 
L 793.345844 47.328255 
L 793.754148 47.5369 
L 794.519719 47.085855 
L 794.928023 47.293042 
L 795.030099 47.293008 
L 795.132175 47.292973 
L 795.591517 47.085511 
L 796.203974 47.396772 
L 796.56124 47.223277 
L 796.663316 47.223242 
L 797.275773 46.913158 
L 797.633039 47.084856 
L 797.837191 47.015957 
L 797.990305 47.015923 
L 798.704838 46.605581 
L 799.317294 46.946818 
L 799.623522 46.809743 
L 799.725598 46.809709 
L 799.827675 46.809674 
L 800.338055 47.083995 
L 800.695321 46.912061 
L 801.307778 47.256342 
L 802.430614 46.570423 
L 802.634767 46.638293 
L 802.992033 46.502451 
L 803.247223 46.570185 
L 803.502413 46.468448 
L 804.11487 46.774134 
L 804.472136 46.87662 
L 804.88044 47.048135 
L 805.339783 46.842139 
L 805.646011 46.979138 
L 806.207429 46.705345 
L 807.840646 47.672232 
L 808.912445 47.046862 
L 809.83113 47.566632 
L 810.494624 47.184266 
L 810.596701 47.184232 
L 811.209157 46.840257 
L 811.311233 46.840223 
L 811.464347 46.805984 
L 811.617461 46.80595 
L 811.719537 46.805915 
L 812.025766 46.942769 
L 813.148602 46.263063 
L 813.607945 46.499132 
L 813.914173 46.363845 
L 814.016249 46.363811 
L 814.475591 46.128385 
L 816.670227 47.459713 
L 816.925417 47.390064 
L 817.027493 47.390029 
L 817.793064 46.975223 
L 818.15033 47.112755 
L 818.354482 47.043799 
L 818.507596 47.078174 
L 818.711749 47.009288 
L 818.813825 47.009253 
L 819.630433 46.565027 
L 819.885623 46.666885 
L 820.038737 46.632819 
L 820.75327 47.043008 
L 821.059498 46.905549 
L 821.671955 47.215184 
L 822.029221 47.042595 
L 822.233373 47.11141 
L 822.488563 47.00805 
L 823.35621 47.492376 
L 823.458286 47.492342 
L 823.815552 47.666941 
L 824.632161 47.214216 
L 824.785275 47.24876 
L 825.040465 47.144989 
L 825.244617 47.214009 
L 825.346693 47.213974 
L 825.550846 47.248518 
L 825.754998 47.179292 
L 825.95915 47.213801 
L 826.112264 47.179188 
L 826.21434 47.179153 
L 826.418492 47.110065 
L 828.153785 48.194939 
L 828.408976 48.123819 
L 828.511052 48.123784 
L 829.225584 47.70022 
L 829.889079 48.087834 
L 830.297383 47.875614 
L 830.501535 47.910819 
L 831.267106 47.489797 
L 831.369182 47.489762 
L 832.083714 47.073765 
L 832.849285 47.489274 
L 833.359665 47.245991 
L 833.512779 47.245957 
L 833.76797 47.142194 
L 833.870046 47.142159 
L 834.27835 46.9356 
L 836.830252 48.549376 
L 837.238556 48.334393 
L 837.39167 48.370056 
L 838.412431 47.732231 
L 838.718659 47.872795 
L 839.178002 47.661862 
L 839.790458 48.013674 
L 839.943572 47.97826 
L 840.045648 47.978225 
L 840.198762 47.942847 
L 840.402915 47.978119 
L 840.709143 47.836924 
L 841.270561 48.11949 
L 841.474713 48.08397 
L 841.985094 48.332822 
L 842.903778 47.801054 
L 843.210007 47.906622 
L 844.332843 48.618757 
L 844.434919 48.618721 
L 844.996338 48.943835 
L 845.557756 48.618325 
L 845.915023 48.762438 
L 846.170213 48.690184 
L 846.578517 48.907019 
L 846.680593 48.906983 
L 846.935783 49.015871 
L 847.905506 48.438089 
L 848.160696 48.509695 
L 848.262772 48.509659 
L 848.415886 48.545497 
L 849.130419 48.152417 
L 849.487685 48.330323 
L 849.640799 48.294592 
L 849.742875 48.294557 
L 850.355332 47.939528 
L 850.457408 47.939493 
L 850.865712 47.72816 
L 850.967788 47.728125 
L 851.274017 47.587929 
L 851.988549 48.009641 
L 852.090625 48.009606 
L 852.345815 48.1158 
L 852.703082 47.938716 
L 852.856196 47.973984 
L 853.51969 47.58716 
L 853.927994 47.762235 
L 854.999793 47.100758 
L 855.203945 47.16969 
L 855.408098 47.135121 
L 856.071592 47.516488 
L 856.428858 47.342396 
L 857.041315 47.690999 
L 857.449619 47.481154 
L 858.266228 47.936845 
L 858.521418 47.866277 
L 858.623494 47.866242 
L 859.031798 47.655348 
L 859.23595 47.725388 
L 859.23595 47.725388 
" clip-path="url(#p1ea47d8767)" style="fill: none; stroke: #1f77b4; stroke-width: 1.5; stroke-linecap: square"/>
   </g>
   <g id="patch_8">
    <path d="M 532.390909 256.32 
L 532.390909 34.56 
" style="fill: none; stroke: #000000; stroke-width: 0.8; stroke-linejoin: miter; stroke-linecap: square"/>
   </g>
   <g id="patch_9">
    <path d="M 874.8 256.32 
L 874.8 34.56 
" style="fill: none; stroke: #000000; stroke-width: 0.8; stroke-linejoin: miter; stroke-linecap: square"/>
   </g>
   <g id="patch_10">
    <path d="M 532.390909 256.32 
L 874.8 256.32 
" style="fill: none; stroke: #000000; stroke-width: 0.8; stroke-linejoin: miter; stroke-linecap: square"/>
   </g>
   <g id="patch_11">
    <path d="M 532.390909 34.56 
L 874.8 34.56 
" style="fill: none; stroke: #000000; stroke-width: 0.8; stroke-linejoin: miter; stroke-linecap: square"/>
   </g>
  </g>
 </g>
 <defs>
  <clipPath id="p79ad994fe1">
   <rect x="121.5" y="34.56" width="342.409091" height="221.76"/>
  </clipPath>
  <clipPath id="p1ea47d8767">
   <rect x="532.390909" y="34.56" width="342.409091" height="221.76"/>
  </clipPath>
 </defs>
</svg>
