<?xml version="1.0" encoding="utf-8" standalone="no"?>
<!DOCTYPE svg PUBLIC "-//W3C//DTD SVG 1.1//EN"
  "http://www.w3.org/Graphics/SVG/1.1/DTD/svg11.dtd">
<svg xmlns:xlink="http://www.w3.org/1999/xlink" width="972pt" height="288pt" viewBox="0 0 972 288" xmlns="http://www.w3.org/2000/svg" version="1.1">
 <metadata>
  <rdf:RDF xmlns:dc="http://purl.org/dc/elements/1.1/" xmlns:cc="http://creativecommons.org/ns#" xmlns:rdf="http://www.w3.org/1999/02/22-rdf-syntax-ns#">
   <cc:Work>
    <dc:type rdf:resource="http://purl.org/dc/dcmitype/StillImage"/>
    <dc:date>2024-10-30T22:10:17.844127</dc:date>
    <dc:format>image/svg+xml</dc:format>
    <dc:creator>
     <cc:Agent>
      <dc:title>Matplotlib v3.7.2, https://matplotlib.org/</dc:title>
     </cc:Agent>
    </dc:creator>
   </cc:Work>
  </rdf:RDF>
 </metadata>
 <defs>
  <style type="text/css">*{stroke-linejoin: round; stroke-linecap: butt}</style>
 </defs>
 <g id="figure_1">
  <g id="patch_1">
   <path d="M 0 288 
L 972 288 
L 972 0 
L 0 0 
z
" style="fill: #ffffff"/>
  </g>
  <g id="axes_1">
   <g id="patch_2">
    <path d="M 121.5 256.32 
L 463.909091 256.32 
L 463.909091 34.56 
L 121.5 34.56 
z
" style="fill: #ffffff"/>
   </g>
   <g id="matplotlib.axis_1">
    <g id="xtick_1">
     <g id="line2d_1">
      <defs>
       <path id="m0ae8fb3e75" d="M 0 0 
L 0 3.5 
" style="stroke: #000000; stroke-width: 0.8"/>
      </defs>
      <g>
       <use xlink:href="#m0ae8fb3e75" x="137.06405" y="256.32" style="stroke: #000000; stroke-width: 0.8"/>
      </g>
     </g>
     <g id="text_1">
      <!-- 0 -->
      <g transform="translate(133.8828 270.918437) scale(0.1 -0.1)">
       <defs>
        <path id="DejaVuSans-30" d="M 2034 4250 
Q 1547 4250 1301 3770 
Q 1056 3291 1056 2328 
Q 1056 1369 1301 889 
Q 1547 409 2034 409 
Q 2525 409 2770 889 
Q 3016 1369 3016 2328 
Q 3016 3291 2770 3770 
Q 2525 4250 2034 4250 
z
M 2034 4750 
Q 2819 4750 3233 4129 
Q 3647 3509 3647 2328 
Q 3647 1150 3233 529 
Q 2819 -91 2034 -91 
Q 1250 -91 836 529 
Q 422 1150 422 2328 
Q 422 3509 836 4129 
Q 1250 4750 2034 4750 
z
" transform="scale(0.015625)"/>
       </defs>
       <use xlink:href="#DejaVuSans-30"/>
      </g>
     </g>
    </g>
    <g id="xtick_2">
     <g id="line2d_2">
      <g>
       <use xlink:href="#m0ae8fb3e75" x="188.102087" y="256.32" style="stroke: #000000; stroke-width: 0.8"/>
      </g>
     </g>
     <g id="text_2">
      <!-- 1000 -->
      <g transform="translate(175.377087 270.918437) scale(0.1 -0.1)">
       <defs>
        <path id="DejaVuSans-31" d="M 794 531 
L 1825 531 
L 1825 4091 
L 703 3866 
L 703 4441 
L 1819 4666 
L 2450 4666 
L 2450 531 
L 3481 531 
L 3481 0 
L 794 0 
L 794 531 
z
" transform="scale(0.015625)"/>
       </defs>
       <use xlink:href="#DejaVuSans-31"/>
       <use xlink:href="#DejaVuSans-30" x="63.623047"/>
       <use xlink:href="#DejaVuSans-30" x="127.246094"/>
       <use xlink:href="#DejaVuSans-30" x="190.869141"/>
      </g>
     </g>
    </g>
    <g id="xtick_3">
     <g id="line2d_3">
      <g>
       <use xlink:href="#m0ae8fb3e75" x="239.140125" y="256.32" style="stroke: #000000; stroke-width: 0.8"/>
      </g>
     </g>
     <g id="text_3">
      <!-- 2000 -->
      <g transform="translate(226.415125 270.918437) scale(0.1 -0.1)">
       <defs>
        <path id="DejaVuSans-32" d="M 1228 531 
L 3431 531 
L 3431 0 
L 469 0 
L 469 531 
Q 828 903 1448 1529 
Q 2069 2156 2228 2338 
Q 2531 2678 2651 2914 
Q 2772 3150 2772 3378 
Q 2772 3750 2511 3984 
Q 2250 4219 1831 4219 
Q 1534 4219 1204 4116 
Q 875 4013 500 3803 
L 500 4441 
Q 881 4594 1212 4672 
Q 1544 4750 1819 4750 
Q 2544 4750 2975 4387 
Q 3406 4025 3406 3419 
Q 3406 3131 3298 2873 
Q 3191 2616 2906 2266 
Q 2828 2175 2409 1742 
Q 1991 1309 1228 531 
z
" transform="scale(0.015625)"/>
       </defs>
       <use xlink:href="#DejaVuSans-32"/>
       <use xlink:href="#DejaVuSans-30" x="63.623047"/>
       <use xlink:href="#DejaVuSans-30" x="127.246094"/>
       <use xlink:href="#DejaVuSans-30" x="190.869141"/>
      </g>
     </g>
    </g>
    <g id="xtick_4">
     <g id="line2d_4">
      <g>
       <use xlink:href="#m0ae8fb3e75" x="290.178163" y="256.32" style="stroke: #000000; stroke-width: 0.8"/>
      </g>
     </g>
     <g id="text_4">
      <!-- 3000 -->
      <g transform="translate(277.453163 270.918437) scale(0.1 -0.1)">
       <defs>
        <path id="DejaVuSans-33" d="M 2597 2516 
Q 3050 2419 3304 2112 
Q 3559 1806 3559 1356 
Q 3559 666 3084 287 
Q 2609 -91 1734 -91 
Q 1441 -91 1130 -33 
Q 819 25 488 141 
L 488 750 
Q 750 597 1062 519 
Q 1375 441 1716 441 
Q 2309 441 2620 675 
Q 2931 909 2931 1356 
Q 2931 1769 2642 2001 
Q 2353 2234 1838 2234 
L 1294 2234 
L 1294 2753 
L 1863 2753 
Q 2328 2753 2575 2939 
Q 2822 3125 2822 3475 
Q 2822 3834 2567 4026 
Q 2313 4219 1838 4219 
Q 1578 4219 1281 4162 
Q 984 4106 628 3988 
L 628 4550 
Q 988 4650 1302 4700 
Q 1616 4750 1894 4750 
Q 2613 4750 3031 4423 
Q 3450 4097 3450 3541 
Q 3450 3153 3228 2886 
Q 3006 2619 2597 2516 
z
" transform="scale(0.015625)"/>
       </defs>
       <use xlink:href="#DejaVuSans-33"/>
       <use xlink:href="#DejaVuSans-30" x="63.623047"/>
       <use xlink:href="#DejaVuSans-30" x="127.246094"/>
       <use xlink:href="#DejaVuSans-30" x="190.869141"/>
      </g>
     </g>
    </g>
    <g id="xtick_5">
     <g id="line2d_5">
      <g>
       <use xlink:href="#m0ae8fb3e75" x="341.2162" y="256.32" style="stroke: #000000; stroke-width: 0.8"/>
      </g>
     </g>
     <g id="text_5">
      <!-- 4000 -->
      <g transform="translate(328.4912 270.918437) scale(0.1 -0.1)">
       <defs>
        <path id="DejaVuSans-34" d="M 2419 4116 
L 825 1625 
L 2419 1625 
L 2419 4116 
z
M 2253 4666 
L 3047 4666 
L 3047 1625 
L 3713 1625 
L 3713 1100 
L 3047 1100 
L 3047 0 
L 2419 0 
L 2419 1100 
L 313 1100 
L 313 1709 
L 2253 4666 
z
" transform="scale(0.015625)"/>
       </defs>
       <use xlink:href="#DejaVuSans-34"/>
       <use xlink:href="#DejaVuSans-30" x="63.623047"/>
       <use xlink:href="#DejaVuSans-30" x="127.246094"/>
       <use xlink:href="#DejaVuSans-30" x="190.869141"/>
      </g>
     </g>
    </g>
    <g id="xtick_6">
     <g id="line2d_6">
      <g>
       <use xlink:href="#m0ae8fb3e75" x="392.254238" y="256.32" style="stroke: #000000; stroke-width: 0.8"/>
      </g>
     </g>
     <g id="text_6">
      <!-- 5000 -->
      <g transform="translate(379.529238 270.918437) scale(0.1 -0.1)">
       <defs>
        <path id="DejaVuSans-35" d="M 691 4666 
L 3169 4666 
L 3169 4134 
L 1269 4134 
L 1269 2991 
Q 1406 3038 1543 3061 
Q 1681 3084 1819 3084 
Q 2600 3084 3056 2656 
Q 3513 2228 3513 1497 
Q 3513 744 3044 326 
Q 2575 -91 1722 -91 
Q 1428 -91 1123 -41 
Q 819 9 494 109 
L 494 744 
Q 775 591 1075 516 
Q 1375 441 1709 441 
Q 2250 441 2565 725 
Q 2881 1009 2881 1497 
Q 2881 1984 2565 2268 
Q 2250 2553 1709 2553 
Q 1456 2553 1204 2497 
Q 953 2441 691 2322 
L 691 4666 
z
" transform="scale(0.015625)"/>
       </defs>
       <use xlink:href="#DejaVuSans-35"/>
       <use xlink:href="#DejaVuSans-30" x="63.623047"/>
       <use xlink:href="#DejaVuSans-30" x="127.246094"/>
       <use xlink:href="#DejaVuSans-30" x="190.869141"/>
      </g>
     </g>
    </g>
    <g id="xtick_7">
     <g id="line2d_7">
      <g>
       <use xlink:href="#m0ae8fb3e75" x="443.292276" y="256.32" style="stroke: #000000; stroke-width: 0.8"/>
      </g>
     </g>
     <g id="text_7">
      <!-- 6000 -->
      <g transform="translate(430.567276 270.918437) scale(0.1 -0.1)">
       <defs>
        <path id="DejaVuSans-36" d="M 2113 2584 
Q 1688 2584 1439 2293 
Q 1191 2003 1191 1497 
Q 1191 994 1439 701 
Q 1688 409 2113 409 
Q 2538 409 2786 701 
Q 3034 994 3034 1497 
Q 3034 2003 2786 2293 
Q 2538 2584 2113 2584 
z
M 3366 4563 
L 3366 3988 
Q 3128 4100 2886 4159 
Q 2644 4219 2406 4219 
Q 1781 4219 1451 3797 
Q 1122 3375 1075 2522 
Q 1259 2794 1537 2939 
Q 1816 3084 2150 3084 
Q 2853 3084 3261 2657 
Q 3669 2231 3669 1497 
Q 3669 778 3244 343 
Q 2819 -91 2113 -91 
Q 1303 -91 875 529 
Q 447 1150 447 2328 
Q 447 3434 972 4092 
Q 1497 4750 2381 4750 
Q 2619 4750 2861 4703 
Q 3103 4656 3366 4563 
z
" transform="scale(0.015625)"/>
       </defs>
       <use xlink:href="#DejaVuSans-36"/>
       <use xlink:href="#DejaVuSans-30" x="63.623047"/>
       <use xlink:href="#DejaVuSans-30" x="127.246094"/>
       <use xlink:href="#DejaVuSans-30" x="190.869141"/>
      </g>
     </g>
    </g>
   </g>
   <g id="matplotlib.axis_2">
    <g id="ytick_1">
     <g id="line2d_8">
      <defs>
       <path id="ma07fd3611f" d="M 0 0 
L -3.5 0 
" style="stroke: #000000; stroke-width: 0.8"/>
      </defs>
      <g>
       <use xlink:href="#ma07fd3611f" x="121.5" y="224.623044" style="stroke: #000000; stroke-width: 0.8"/>
      </g>
     </g>
     <g id="text_8">
      <!-- −6 -->
      <g transform="translate(99.757812 228.422263) scale(0.1 -0.1)">
       <defs>
        <path id="DejaVuSans-2212" d="M 678 2272 
L 4684 2272 
L 4684 1741 
L 678 1741 
L 678 2272 
z
" transform="scale(0.015625)"/>
       </defs>
       <use xlink:href="#DejaVuSans-2212"/>
       <use xlink:href="#DejaVuSans-36" x="83.789062"/>
      </g>
     </g>
    </g>
    <g id="ytick_2">
     <g id="line2d_9">
      <g>
       <use xlink:href="#ma07fd3611f" x="121.5" y="179.604774" style="stroke: #000000; stroke-width: 0.8"/>
      </g>
     </g>
     <g id="text_9">
      <!-- −5 -->
      <g transform="translate(99.757812 183.403993) scale(0.1 -0.1)">
       <use xlink:href="#DejaVuSans-2212"/>
       <use xlink:href="#DejaVuSans-35" x="83.789062"/>
      </g>
     </g>
    </g>
    <g id="ytick_3">
     <g id="line2d_10">
      <g>
       <use xlink:href="#ma07fd3611f" x="121.5" y="134.586504" style="stroke: #000000; stroke-width: 0.8"/>
      </g>
     </g>
     <g id="text_10">
      <!-- −4 -->
      <g transform="translate(99.757812 138.385723) scale(0.1 -0.1)">
       <use xlink:href="#DejaVuSans-2212"/>
       <use xlink:href="#DejaVuSans-34" x="83.789062"/>
      </g>
     </g>
    </g>
    <g id="ytick_4">
     <g id="line2d_11">
      <g>
       <use xlink:href="#ma07fd3611f" x="121.5" y="89.568234" style="stroke: #000000; stroke-width: 0.8"/>
      </g>
     </g>
     <g id="text_11">
      <!-- −3 -->
      <g transform="translate(99.757812 93.367452) scale(0.1 -0.1)">
       <use xlink:href="#DejaVuSans-2212"/>
       <use xlink:href="#DejaVuSans-33" x="83.789062"/>
      </g>
     </g>
    </g>
    <g id="ytick_5">
     <g id="line2d_12">
      <g>
       <use xlink:href="#ma07fd3611f" x="121.5" y="44.549963" style="stroke: #000000; stroke-width: 0.8"/>
      </g>
     </g>
     <g id="text_12">
      <!-- −2 -->
      <g transform="translate(99.757812 48.349182) scale(0.1 -0.1)">
       <use xlink:href="#DejaVuSans-2212"/>
       <use xlink:href="#DejaVuSans-32" x="83.789062"/>
      </g>
     </g>
    </g>
   </g>
   <g id="line2d_13">
    <path d="M 137.06405 44.64 
L 140.636712 51.171533 
L 144.158337 58.072852 
L 147.679961 65.466919 
L 151.150548 73.270161 
L 154.621135 81.622197 
L 158.091721 90.561622 
L 161.51127 99.984277 
L 164.930818 110.059542 
L 168.350367 120.832617 
L 171.769915 132.351831 
L 175.189464 144.668863 
L 178.557974 157.635845 
L 181.926485 171.487066 
L 182.283751 172.574106 
L 182.385827 172.574106 
L 183.968006 179.211674 
L 184.019044 178.986976 
L 184.070082 179.21145 
L 185.141881 183.519354 
L 185.192919 183.519354 
L 185.448109 184.436753 
L 185.550185 184.206829 
L 188.56143 197.915916 
L 188.612468 197.672514 
L 188.81662 196.943766 
L 189.429076 199.379008 
L 189.735304 198.157126 
L 189.888419 198.40077 
L 190.602951 195.249188 
L 191.062293 197.424496 
L 191.113331 197.181585 
L 191.16437 197.181585 
L 191.266446 196.938917 
L 191.41956 197.42401 
L 191.521636 197.1811 
L 191.776826 198.396867 
L 191.827864 198.152984 
L 191.92994 197.665948 
L 191.980978 197.909101 
L 192.848625 201.832776 
L 193.154853 200.59865 
L 194.0225 204.565682 
L 194.073538 204.31563 
L 194.124576 204.565432 
L 194.27769 204.565432 
L 194.583918 203.31767 
L 194.78807 204.064829 
L 195.553641 200.840055 
L 195.859869 201.82684 
L 195.961945 201.579527 
L 196.064021 201.826593 
L 196.472325 200.100586 
L 196.574402 200.346173 
L 196.778554 199.609412 
L 198.054505 205.309065 
L 198.207619 204.557431 
L 198.258657 204.807475 
L 198.564885 205.810153 
L 198.666961 205.810153 
L 199.228379 203.308464 
L 199.636684 205.055263 
L 200.555368 200.583639 
L 200.606406 200.829709 
L 200.759521 201.322588 
L 201.065749 200.336832 
L 201.116787 200.336832 
L 202.698966 208.072778 
L 202.750004 207.819219 
L 203.005194 206.807514 
L 204.230107 212.416654 
L 204.281145 212.416654 
L 205.301906 217.09832 
L 205.352944 217.09832 
L 206.373705 222.132591 
L 206.628895 221.063719 
L 206.986161 222.399139 
L 207.037199 222.131253 
L 207.088237 222.398871 
L 207.904846 226.717335 
L 207.955884 226.445131 
L 208.006922 226.445131 
L 208.925607 230.828823 
L 209.129759 230.000705 
L 209.282873 230.827994 
L 209.333911 230.551679 
L 210.507786 224.542179 
L 210.814014 225.623916 
L 210.91609 225.623916 
L 211.018166 225.081966 
L 211.069204 225.352534 
L 211.120242 225.352534 
L 212.345155 231.373978 
L 212.396193 231.373978 
L 212.498269 231.927976 
L 212.549307 231.650561 
L 213.723182 225.888242 
L 214.743943 220.778263 
L 214.948095 221.577857 
L 215.050171 221.043995 
L 215.101209 221.310526 
L 216.37716 227.787835 
L 218.010377 219.442181 
L 218.061415 219.442181 
L 218.46972 217.593234 
L 219.23529 221.300387 
L 219.439442 220.500827 
L 220.409165 225.058968 
L 220.511241 225.058968 
L 220.715393 225.600059 
L 221.174736 223.708136 
L 221.378888 223.708136 
L 221.58304 224.786531 
L 221.634078 224.516258 
L 222.603801 219.697298 
L 222.705877 220.227931 
L 222.756915 219.962216 
L 223.012105 219.166666 
L 223.063143 219.166666 
L 223.216257 218.902013 
L 223.267295 218.902013 
L 223.624561 217.582711 
L 223.726638 217.582711 
L 223.981828 218.372708 
L 224.032866 218.372708 
L 224.237018 218.900691 
L 224.339094 218.37218 
L 224.390132 218.636039 
L 225.461931 223.699791 
L 225.512969 223.699791 
L 225.717121 223.161687 
L 226.125425 224.777612 
L 226.176463 224.777612 
L 226.890996 221.285181 
L 226.993072 221.551953 
L 227.04411 221.284914 
L 227.095148 221.551686 
L 227.248262 221.818457 
L 227.350338 221.818457 
L 227.962795 219.157403 
L 228.013833 219.157403 
L 228.115909 219.422047 
L 228.269023 219.157138 
L 228.320061 219.157138 
L 228.422137 218.892495 
L 228.524213 219.421517 
L 228.575251 219.156609 
L 228.626289 219.156609 
L 228.881479 218.099623 
L 228.983555 218.363209 
L 229.187708 217.835774 
L 229.340822 218.626531 
L 229.39186 218.362418 
L 229.442898 218.098569 
L 229.493936 218.362154 
L 230.820925 225.038137 
L 232.045838 218.884035 
L 232.147914 219.148405 
L 232.198952 218.88377 
L 232.24999 219.148141 
L 234.393587 230.218013 
L 234.444625 229.942308 
L 234.546702 229.942308 
L 234.955006 231.599018 
L 235.057082 231.599018 
L 235.261234 232.153467 
L 237.251718 221.796004 
L 237.302756 221.796004 
L 237.45587 222.063287 
L 237.762098 220.72821 
L 237.813136 220.994425 
L 237.864174 220.727944 
L 238.119364 219.930099 
L 239.140125 225.01866 
L 239.191163 224.748155 
L 239.242201 225.018389 
L 239.344277 225.55967 
L 239.395315 225.288624 
L 239.446353 225.288624 
L 240.160886 222.057133 
L 240.262962 222.057133 
L 240.620228 223.39753 
L 240.773342 222.86003 
L 241.028532 224.20445 
L 241.07957 223.934759 
L 241.130608 223.934759 
L 241.385799 223.127034 
L 241.538913 223.933681 
L 241.589951 223.664261 
L 241.794103 222.857615 
L 243.019016 228.82359 
L 243.784586 225.008111 
L 244.192891 226.635141 
L 244.243929 226.635141 
L 244.601195 224.735994 
L 244.652233 225.006217 
L 244.703271 225.27671 
L 244.754309 225.005947 
L 244.958461 223.925598 
L 245.009499 224.195011 
L 245.264689 225.004865 
L 245.51988 224.194201 
L 245.672994 224.463882 
L 245.826108 224.463882 
L 246.387526 221.776493 
L 248.735276 233.513475 
L 248.837352 233.513475 
L 248.939428 234.071754 
L 248.990466 233.792196 
L 249.14358 233.512917 
L 249.347732 234.071195 
L 249.449809 234.071195 
L 250.776798 226.892827 
L 251.23614 228.805212 
L 252.154825 224.449305 
L 252.205863 224.719241 
L 252.256901 224.449035 
L 252.410015 224.449035 
L 252.716243 225.530399 
L 252.818319 225.530399 
L 252.971433 226.072703 
L 253.430775 223.638423 
L 253.481814 223.907548 
L 253.532852 223.907548 
L 253.58389 224.176942 
L 253.634928 223.907279 
L 253.788042 223.907279 
L 254.60465 219.894535 
L 256.084753 227.153755 
L 256.18683 226.608747 
L 256.237868 226.880842 
L 256.288906 226.880842 
L 256.44202 227.425849 
L 256.544096 227.152937 
L 256.595134 227.425577 
L 256.646172 227.152664 
L 257.615895 222.554691 
L 258.993922 229.336755 
L 260.167796 223.353705 
L 260.269873 223.353705 
L 260.474025 222.279956 
L 260.525063 222.547722 
L 260.780253 223.890577 
L 260.831291 223.6212 
L 261.494785 220.675771 
L 262.107242 223.349404 
L 262.719698 220.673109 
L 262.770736 220.673109 
L 263.791497 215.922741 
L 266.598589 230.143858 
L 267.006893 228.220224 
L 267.10897 228.49393 
L 267.36416 227.67281 
L 267.415198 227.67281 
L 267.772464 229.31587 
L 268.078692 228.218308 
L 268.12973 228.218308 
L 269.048415 223.602363 
L 269.201529 223.871452 
L 270.375404 218.271142 
L 270.426442 218.271142 
L 270.73267 216.954988 
L 270.783708 217.21743 
L 270.834746 216.954726 
L 270.936822 216.954726 
L 271.498241 219.856058 
L 271.549279 219.590715 
L 271.651355 219.060826 
L 271.702393 219.325373 
L 271.753431 219.325373 
L 271.804469 219.060561 
L 271.855507 219.325108 
L 271.957583 219.325108 
L 274.305333 230.954437 
L 275.275056 226.020569 
L 276.397892 231.502609 
L 276.499968 230.948908 
L 276.551007 231.225343 
L 277.520729 236.248721 
L 277.622805 235.685533 
L 277.673843 235.966705 
L 277.826957 236.529893 
L 277.929034 236.247876 
L 278.2863 237.659369 
L 278.643566 235.964735 
L 279.358099 239.645635 
L 279.766403 237.372546 
L 279.817441 237.655405 
L 280.327821 240.4996 
L 280.378859 240.213614 
L 280.531973 239.35737 
L 280.583012 239.642214 
L 280.63405 239.642214 
L 280.787164 239.357085 
L 280.838202 239.357085 
L 281.961039 233.714009 
L 282.012077 233.714009 
L 282.063115 233.434808 
L 282.114153 233.71373 
L 282.216229 233.71373 
L 282.930761 237.365191 
L 283.951522 232.039102 
L 284.053598 232.594431 
L 284.104636 232.31635 
L 284.206712 232.31635 
L 285.227473 237.359534 
L 285.737853 234.824078 
L 285.890967 235.104389 
L 287.779375 225.177899 
L 287.830413 225.177899 
L 288.289755 227.078244 
L 289.769858 219.548571 
L 289.820896 219.548571 
L 292.627988 233.96694 
L 293.189407 230.908275 
L 293.240445 231.18467 
L 293.801863 233.684694 
L 293.954977 233.405523 
L 294.006015 233.405523 
L 294.618472 236.207028 
L 294.822624 236.207028 
L 295.026776 235.362792 
L 295.077814 235.643641 
L 295.128852 235.362511 
L 295.333004 234.801093 
L 295.588195 236.205338 
L 295.639233 235.923646 
L 295.690271 235.642235 
L 295.741309 235.923364 
L 295.996499 237.050694 
L 296.353765 235.64083 
L 296.711031 237.614635 
L 296.762069 237.331534 
L 298.395287 228.69442 
L 298.650477 229.517786 
L 298.701515 229.517786 
L 299.569162 225.150563 
L 299.722276 225.692108 
L 300.13058 223.799543 
L 300.436808 225.148669 
L 300.794074 223.528912 
L 300.947189 223.797927 
L 301.100303 223.797927 
L 301.202379 223.528643 
L 301.253417 223.797658 
L 301.304455 223.528374 
L 301.457569 223.259359 
L 301.508607 223.259359 
L 303.141824 231.716666 
L 303.805319 228.682631 
L 303.856357 228.682631 
L 303.907395 228.9568 
L 303.958433 228.682357 
L 304.009471 228.408188 
L 304.060509 228.682083 
L 304.366737 229.780403 
L 304.672965 229.780403 
L 304.826079 230.60703 
L 304.877117 230.330937 
L 305.183346 229.22932 
L 305.438536 230.329833 
L 305.84684 228.679067 
L 305.897878 228.679067 
L 306.050992 228.404901 
L 306.153068 228.952958 
L 306.204106 228.678518 
L 307.531095 221.906013 
L 307.582133 221.906013 
L 308.44978 226.216532 
L 309.266389 222.437315 
L 309.317427 222.437315 
L 309.572617 223.779616 
L 309.623655 223.51035 
L 310.082997 221.633011 
L 311.154796 227.026462 
L 313.094242 217.122873 
L 313.196318 217.122873 
L 316.871056 236.154356 
L 316.922094 235.872715 
L 317.789741 231.681741 
L 317.942855 231.681741 
L 318.095969 231.404572 
L 318.86154 235.587139 
L 318.912578 235.306066 
L 319.37192 233.067571 
L 321.46448 244.14016 
L 321.617594 244.14016 
L 321.923822 242.98339 
L 321.97486 242.98339 
L 322.23005 244.428627 
L 322.281088 244.138712 
L 323.557039 237.267059 
L 323.710153 237.267059 
L 324.884028 231.111361 
L 325.394409 233.610724 
L 325.802713 231.385744 
L 325.853751 231.662617 
L 326.262055 233.608491 
L 326.517245 232.772043 
L 327.43593 237.823499 
L 327.486968 237.540189 
L 327.538006 237.540189 
L 328.150463 234.442415 
L 328.201501 234.722344 
L 328.252539 234.442135 
L 328.711881 231.93283 
L 328.762919 232.21025 
L 328.813957 232.21025 
L 330.089908 239.236622 
L 330.140946 238.951898 
L 330.29406 238.951898 
L 330.396136 239.236337 
L 331.927277 231.093936 
L 331.978315 231.093936 
L 333.764647 221.843718 
L 334.223989 223.720654 
L 334.428141 223.182508 
L 334.479179 223.182508 
L 334.632293 222.377307 
L 334.683331 222.645171 
L 334.734369 222.645171 
L 335.091636 224.527733 
L 335.142674 224.257719 
L 335.550978 222.643026 
L 337.337309 231.91147 
L 337.5925 230.527251 
L 337.643538 230.803265 
L 337.745614 231.356121 
L 337.796652 231.079278 
L 338.000804 230.25041 
L 338.409108 231.908973 
L 338.460146 231.908973 
L 338.562222 231.35446 
L 338.61326 231.631301 
L 339.225717 234.414983 
L 339.378831 233.85546 
L 339.429869 234.134802 
L 339.480907 233.85518 
L 339.685059 233.296776 
L 339.736097 233.296776 
L 340.501668 229.694258 
L 340.552706 229.694258 
L 341.318276 226.138021 
L 341.420352 226.409646 
L 341.777619 224.782342 
L 342.441113 228.043466 
L 343.155646 224.779098 
L 344.023292 229.410555 
L 344.07433 229.135658 
L 344.176406 229.135658 
L 344.533673 230.511518 
L 344.584711 230.511518 
L 345.860662 236.929793 
L 345.9117 236.929793 
L 348.310487 223.956987 
L 348.76983 225.848488 
L 349.127096 224.224542 
L 349.229172 224.764234 
L 349.28021 224.493983 
L 351.423808 213.643314 
L 351.576922 214.421481 
L 351.62796 214.161573 
L 351.678998 214.161573 
L 352.546645 218.347247 
L 352.597683 218.083413 
L 352.648721 218.346983 
L 352.852873 219.139276 
L 353.108063 217.81879 
L 353.159101 218.082095 
L 353.618443 219.93262 
L 353.771558 219.137159 
L 353.822596 219.401782 
L 355.557889 228.558186 
L 355.608927 228.284142 
L 355.659965 228.010371 
L 355.711003 228.283868 
L 355.762041 228.283868 
L 357.191106 220.987363 
L 357.242144 220.987363 
L 357.650448 222.590209 
L 357.701486 222.590209 
L 358.773285 217.54207 
L 358.824323 217.54207 
L 359.743008 222.049508 
L 359.845084 221.781972 
L 360.559617 225.006893 
L 361.580377 219.913511 
L 362.141796 222.311688 
L 362.192834 222.311688 
L 362.448024 223.115618 
L 363.111518 219.91006 
L 363.468785 221.2397 
L 363.519823 221.2397 
L 363.775013 220.174394 
L 363.877089 220.705982 
L 363.928127 220.439789 
L 364.234355 219.377679 
L 364.285393 219.377679 
L 364.387469 218.848215 
L 364.438507 219.11255 
L 364.489545 219.11255 
L 364.795774 218.05574 
L 365.66342 222.036399 
L 365.714458 222.036399 
L 366.377953 225.26439 
L 367.858056 217.784826 
L 370.307882 230.723428 
L 370.35892 230.447218 
L 370.716186 228.795749 
L 370.818262 229.070031 
L 371.430719 226.336787 
L 371.992137 228.793006 
L 372.043175 228.793006 
L 372.298365 227.97099 
L 372.451479 228.518179 
L 373.166012 225.248146 
L 373.21705 225.248146 
L 374.390925 219.619212 
L 374.441963 219.619212 
L 375.054419 222.550001 
L 375.258571 222.014196 
L 375.309609 222.014196 
L 375.81999 224.161707 
L 375.973104 223.353571 
L 376.024142 223.622411 
L 376.228294 223.622411 
L 376.534522 222.279554 
L 376.687636 222.54732 
L 376.738674 222.54732 
L 376.942827 221.744023 
L 377.504245 224.158741 
L 377.606321 224.158741 
L 378.269816 220.940734 
L 378.525006 222.008043 
L 379.341614 218.023589 
L 379.749919 219.608608 
L 379.800957 219.608608 
L 380.311337 222.004031 
L 380.770679 219.871581 
L 381.893516 225.500182 
L 382.097668 224.958479 
L 382.148706 224.958479 
L 382.403897 226.313412 
L 382.454935 226.041612 
L 382.505973 226.041612 
L 383.118429 228.769145 
L 383.322581 227.9472 
L 383.730886 229.59191 
L 383.781924 229.59191 
L 384.292304 227.398969 
L 384.904761 230.691666 
L 384.955799 230.415488 
L 385.210989 229.588609 
L 385.568255 231.243192 
L 386.74213 225.489613 
L 386.895244 224.677498 
L 386.946282 224.947662 
L 388.477423 232.622936 
L 388.528461 232.622936 
L 388.681575 233.179433 
L 388.783651 232.900767 
L 389.804412 238.521726 
L 389.85545 238.237718 
L 390.723097 233.452799 
L 390.774135 233.731739 
L 391.080363 235.130625 
L 391.182439 234.850008 
L 391.488667 236.536238 
L 391.539705 236.254215 
L 392.152162 233.170516 
L 393.019808 237.945774 
L 393.070847 237.662342 
L 393.683303 234.84356 
L 393.734341 234.84356 
L 394.80614 240.218042 
L 396.694547 230.110646 
L 396.796623 230.110646 
L 397.715308 234.833469 
L 398.633993 230.105961 
L 398.838145 230.657422 
L 399.552677 227.361859 
L 399.603715 227.361859 
L 399.909944 226.000342 
L 400.165134 227.08792 
L 400.318248 226.815346 
L 400.471362 226.815346 
L 400.675514 226.271014 
L 400.726552 226.271014 
L 401.03278 227.359676 
L 401.083818 227.359676 
L 401.696275 230.10045 
L 401.900427 229.274515 
L 402.206655 230.375209 
L 402.512883 229.273416 
L 402.61496 229.273416 
L 402.87015 230.09852 
L 402.972226 230.09852 
L 403.023264 230.374106 
L 403.074302 230.098245 
L 403.12534 229.82266 
L 403.176378 230.097969 
L 403.584682 231.755616 
L 403.63572 231.755616 
L 405.319976 222.751506 
L 405.524128 223.28825 
L 405.626204 223.28825 
L 405.677242 223.019476 
L 405.72828 223.287982 
L 406.289698 225.716651 
L 406.544888 224.903855 
L 406.595927 224.903855 
L 409.709247 241.90236 
L 409.760285 241.614971 
L 410.168589 239.326181 
L 410.219627 239.610994 
L 410.474817 241.039336 
L 410.525855 240.75281 
L 410.730008 240.180617 
L 410.781046 240.180617 
L 411.903882 246.24 
L 412.465301 243.624649 
L 412.618415 243.624649 
L 414.353708 234.235064 
L 414.404746 234.235064 
L 415.731735 227.3253 
L 415.782773 227.3253 
L 416.701458 231.72318 
L 416.854572 231.445971 
L 417.313914 233.390324 
L 417.518067 232.554529 
L 418.283637 236.472508 
L 418.538827 235.627476 
L 418.640903 235.627476 
L 420.733463 224.599431 
L 420.784501 224.599431 
L 420.886577 224.329345 
L 421.090729 225.410229 
L 421.141767 225.139332 
L 421.396957 223.788906 
L 421.447995 224.058182 
L 421.499034 224.058182 
L 421.652148 223.788637 
L 421.907338 224.597271 
L 421.958376 224.597271 
L 422.11149 225.137708 
L 422.519794 223.518017 
L 422.570832 223.518017 
L 423.795745 229.498674 
L 423.897821 229.498674 
L 424.101973 230.048644 
L 424.306126 229.497849 
L 424.765468 231.70544 
L 425.22481 229.770907 
L 425.326886 229.770907 
L 425.428962 229.495649 
L 425.48 229.770631 
L 425.531038 229.495374 
L 425.684153 229.220118 
L 425.735191 229.220118 
L 427.674636 239.284602 
L 427.725674 239.284602 
L 428.338131 236.44967 
L 428.389169 236.44967 
L 429.001625 239.281754 
L 429.052663 239.281754 
L 430.1755 245.322071 
L 430.890032 241.851496 
L 430.992109 241.851496 
L 432.931554 231.409141 
L 433.54401 234.470269 
L 434.564771 229.473652 
L 435.738646 235.867791 
L 435.789684 235.586437 
L 435.942798 235.024572 
L 436.300064 236.429935 
L 436.453179 235.866384 
L 436.504217 236.147737 
L 436.555255 235.866103 
L 436.708369 235.58475 
L 437.269787 238.408146 
L 437.576015 237.274269 
L 437.627053 237.274269 
L 437.882244 236.426834 
L 438.74989 240.685265 
L 439.158195 238.972521 
L 439.260271 238.972521 
L 439.464423 240.112065 
L 439.515461 239.826467 
L 440.689336 233.61505 
L 440.84245 234.453192 
L 440.893488 234.173252 
L 442.016325 228.632874 
L 442.220477 229.456055 
L 443.394352 223.739633 
L 444.568227 217.61507 
L 445.588987 222.39137 
L 445.640025 222.39137 
L 447.987775 234.155355 
L 448.038813 234.155355 
L 448.191927 233.875713 
L 448.242965 234.155075 
L 448.294003 233.875433 
L 448.345041 233.596071 
L 448.345041 233.596071 
" clip-path="url(#p74cf49216b)" style="fill: none; stroke: #1f77b4; stroke-width: 1.5; stroke-linecap: square"/>
   </g>
   <g id="patch_3">
    <path d="M 121.5 256.32 
L 121.5 34.56 
" style="fill: none; stroke: #000000; stroke-width: 0.8; stroke-linejoin: miter; stroke-linecap: square"/>
   </g>
   <g id="patch_4">
    <path d="M 463.909091 256.32 
L 463.909091 34.56 
" style="fill: none; stroke: #000000; stroke-width: 0.8; stroke-linejoin: miter; stroke-linecap: square"/>
   </g>
   <g id="patch_5">
    <path d="M 121.5 256.32 
L 463.909091 256.32 
" style="fill: none; stroke: #000000; stroke-width: 0.8; stroke-linejoin: miter; stroke-linecap: square"/>
   </g>
   <g id="patch_6">
    <path d="M 121.5 34.56 
L 463.909091 34.56 
" style="fill: none; stroke: #000000; stroke-width: 0.8; stroke-linejoin: miter; stroke-linecap: square"/>
   </g>
  </g>
  <g id="axes_2">
   <g id="patch_7">
    <path d="M 532.390909 256.32 
L 874.8 256.32 
L 874.8 34.56 
L 532.390909 34.56 
z
" style="fill: #ffffff"/>
   </g>
   <g id="matplotlib.axis_3">
    <g id="xtick_8">
     <g id="line2d_14">
      <g>
       <use xlink:href="#m0ae8fb3e75" x="547.954959" y="256.32" style="stroke: #000000; stroke-width: 0.8"/>
      </g>
     </g>
     <g id="text_13">
      <!-- 0 -->
      <g transform="translate(544.773709 270.918437) scale(0.1 -0.1)">
       <use xlink:href="#DejaVuSans-30"/>
      </g>
     </g>
    </g>
    <g id="xtick_9">
     <g id="line2d_15">
      <g>
       <use xlink:href="#m0ae8fb3e75" x="598.992996" y="256.32" style="stroke: #000000; stroke-width: 0.8"/>
      </g>
     </g>
     <g id="text_14">
      <!-- 1000 -->
      <g transform="translate(586.267996 270.918437) scale(0.1 -0.1)">
       <use xlink:href="#DejaVuSans-31"/>
       <use xlink:href="#DejaVuSans-30" x="63.623047"/>
       <use xlink:href="#DejaVuSans-30" x="127.246094"/>
       <use xlink:href="#DejaVuSans-30" x="190.869141"/>
      </g>
     </g>
    </g>
    <g id="xtick_10">
     <g id="line2d_16">
      <g>
       <use xlink:href="#m0ae8fb3e75" x="650.031034" y="256.32" style="stroke: #000000; stroke-width: 0.8"/>
      </g>
     </g>
     <g id="text_15">
      <!-- 2000 -->
      <g transform="translate(637.306034 270.918437) scale(0.1 -0.1)">
       <use xlink:href="#DejaVuSans-32"/>
       <use xlink:href="#DejaVuSans-30" x="63.623047"/>
       <use xlink:href="#DejaVuSans-30" x="127.246094"/>
       <use xlink:href="#DejaVuSans-30" x="190.869141"/>
      </g>
     </g>
    </g>
    <g id="xtick_11">
     <g id="line2d_17">
      <g>
       <use xlink:href="#m0ae8fb3e75" x="701.069072" y="256.32" style="stroke: #000000; stroke-width: 0.8"/>
      </g>
     </g>
     <g id="text_16">
      <!-- 3000 -->
      <g transform="translate(688.344072 270.918437) scale(0.1 -0.1)">
       <use xlink:href="#DejaVuSans-33"/>
       <use xlink:href="#DejaVuSans-30" x="63.623047"/>
       <use xlink:href="#DejaVuSans-30" x="127.246094"/>
       <use xlink:href="#DejaVuSans-30" x="190.869141"/>
      </g>
     </g>
    </g>
    <g id="xtick_12">
     <g id="line2d_18">
      <g>
       <use xlink:href="#m0ae8fb3e75" x="752.107109" y="256.32" style="stroke: #000000; stroke-width: 0.8"/>
      </g>
     </g>
     <g id="text_17">
      <!-- 4000 -->
      <g transform="translate(739.382109 270.918437) scale(0.1 -0.1)">
       <use xlink:href="#DejaVuSans-34"/>
       <use xlink:href="#DejaVuSans-30" x="63.623047"/>
       <use xlink:href="#DejaVuSans-30" x="127.246094"/>
       <use xlink:href="#DejaVuSans-30" x="190.869141"/>
      </g>
     </g>
    </g>
    <g id="xtick_13">
     <g id="line2d_19">
      <g>
       <use xlink:href="#m0ae8fb3e75" x="803.145147" y="256.32" style="stroke: #000000; stroke-width: 0.8"/>
      </g>
     </g>
     <g id="text_18">
      <!-- 5000 -->
      <g transform="translate(790.420147 270.918437) scale(0.1 -0.1)">
       <use xlink:href="#DejaVuSans-35"/>
       <use xlink:href="#DejaVuSans-30" x="63.623047"/>
       <use xlink:href="#DejaVuSans-30" x="127.246094"/>
       <use xlink:href="#DejaVuSans-30" x="190.869141"/>
      </g>
     </g>
    </g>
    <g id="xtick_14">
     <g id="line2d_20">
      <g>
       <use xlink:href="#m0ae8fb3e75" x="854.183185" y="256.32" style="stroke: #000000; stroke-width: 0.8"/>
      </g>
     </g>
     <g id="text_19">
      <!-- 6000 -->
      <g transform="translate(841.458185 270.918437) scale(0.1 -0.1)">
       <use xlink:href="#DejaVuSans-36"/>
       <use xlink:href="#DejaVuSans-30" x="63.623047"/>
       <use xlink:href="#DejaVuSans-30" x="127.246094"/>
       <use xlink:href="#DejaVuSans-30" x="190.869141"/>
      </g>
     </g>
    </g>
   </g>
   <g id="matplotlib.axis_4">
    <g id="ytick_6">
     <g id="line2d_21">
      <g>
       <use xlink:href="#ma07fd3611f" x="532.390909" y="237.408649" style="stroke: #000000; stroke-width: 0.8"/>
      </g>
     </g>
     <g id="text_20">
      <!-- −5.0 -->
      <g transform="translate(501.108097 241.207868) scale(0.1 -0.1)">
       <defs>
        <path id="DejaVuSans-2e" d="M 684 794 
L 1344 794 
L 1344 0 
L 684 0 
L 684 794 
z
" transform="scale(0.015625)"/>
       </defs>
       <use xlink:href="#DejaVuSans-2212"/>
       <use xlink:href="#DejaVuSans-35" x="83.789062"/>
       <use xlink:href="#DejaVuSans-2e" x="147.412109"/>
       <use xlink:href="#DejaVuSans-30" x="179.199219"/>
      </g>
     </g>
    </g>
    <g id="ytick_7">
     <g id="line2d_22">
      <g>
       <use xlink:href="#ma07fd3611f" x="532.390909" y="205.259108" style="stroke: #000000; stroke-width: 0.8"/>
      </g>
     </g>
     <g id="text_21">
      <!-- −4.5 -->
      <g transform="translate(501.108097 209.058327) scale(0.1 -0.1)">
       <use xlink:href="#DejaVuSans-2212"/>
       <use xlink:href="#DejaVuSans-34" x="83.789062"/>
       <use xlink:href="#DejaVuSans-2e" x="147.412109"/>
       <use xlink:href="#DejaVuSans-35" x="179.199219"/>
      </g>
     </g>
    </g>
    <g id="ytick_8">
     <g id="line2d_23">
      <g>
       <use xlink:href="#ma07fd3611f" x="532.390909" y="173.109567" style="stroke: #000000; stroke-width: 0.8"/>
      </g>
     </g>
     <g id="text_22">
      <!-- −4.0 -->
      <g transform="translate(501.108097 176.908785) scale(0.1 -0.1)">
       <use xlink:href="#DejaVuSans-2212"/>
       <use xlink:href="#DejaVuSans-34" x="83.789062"/>
       <use xlink:href="#DejaVuSans-2e" x="147.412109"/>
       <use xlink:href="#DejaVuSans-30" x="179.199219"/>
      </g>
     </g>
    </g>
    <g id="ytick_9">
     <g id="line2d_24">
      <g>
       <use xlink:href="#ma07fd3611f" x="532.390909" y="140.960025" style="stroke: #000000; stroke-width: 0.8"/>
      </g>
     </g>
     <g id="text_23">
      <!-- −3.5 -->
      <g transform="translate(501.108097 144.759244) scale(0.1 -0.1)">
       <use xlink:href="#DejaVuSans-2212"/>
       <use xlink:href="#DejaVuSans-33" x="83.789062"/>
       <use xlink:href="#DejaVuSans-2e" x="147.412109"/>
       <use xlink:href="#DejaVuSans-35" x="179.199219"/>
      </g>
     </g>
    </g>
    <g id="ytick_10">
     <g id="line2d_25">
      <g>
       <use xlink:href="#ma07fd3611f" x="532.390909" y="108.810484" style="stroke: #000000; stroke-width: 0.8"/>
      </g>
     </g>
     <g id="text_24">
      <!-- −3.0 -->
      <g transform="translate(501.108097 112.609703) scale(0.1 -0.1)">
       <use xlink:href="#DejaVuSans-2212"/>
       <use xlink:href="#DejaVuSans-33" x="83.789062"/>
       <use xlink:href="#DejaVuSans-2e" x="147.412109"/>
       <use xlink:href="#DejaVuSans-30" x="179.199219"/>
      </g>
     </g>
    </g>
    <g id="ytick_11">
     <g id="line2d_26">
      <g>
       <use xlink:href="#ma07fd3611f" x="532.390909" y="76.660943" style="stroke: #000000; stroke-width: 0.8"/>
      </g>
     </g>
     <g id="text_25">
      <!-- −2.5 -->
      <g transform="translate(501.108097 80.460162) scale(0.1 -0.1)">
       <use xlink:href="#DejaVuSans-2212"/>
       <use xlink:href="#DejaVuSans-32" x="83.789062"/>
       <use xlink:href="#DejaVuSans-2e" x="147.412109"/>
       <use xlink:href="#DejaVuSans-35" x="179.199219"/>
      </g>
     </g>
    </g>
    <g id="ytick_12">
     <g id="line2d_27">
      <g>
       <use xlink:href="#ma07fd3611f" x="532.390909" y="44.511402" style="stroke: #000000; stroke-width: 0.8"/>
      </g>
     </g>
     <g id="text_26">
      <!-- −2.0 -->
      <g transform="translate(501.108097 48.310621) scale(0.1 -0.1)">
       <use xlink:href="#DejaVuSans-2212"/>
       <use xlink:href="#DejaVuSans-32" x="83.789062"/>
       <use xlink:href="#DejaVuSans-2e" x="147.412109"/>
       <use xlink:href="#DejaVuSans-30" x="179.199219"/>
      </g>
     </g>
    </g>
   </g>
   <g id="line2d_28">
    <path d="M 547.954959 44.64 
L 551.425545 53.693217 
L 554.845094 63.235814 
L 558.264642 73.439329 
L 561.684191 84.349536 
L 565.103739 96.01538 
L 568.523288 108.489197 
L 571.891798 121.621239 
L 575.260309 135.648774 
L 578.628819 150.632868 
L 581.99733 166.638749 
L 585.36584 183.736095 
L 588.734351 201.999335 
L 589.601997 206.901902 
L 589.653035 206.610913 
L 589.704073 206.320215 
L 589.755112 206.610622 
L 591.031062 213.370429 
L 591.439367 211.294464 
L 591.592481 211.589846 
L 592.511166 206.312665 
L 592.562204 206.603064 
L 592.868432 208.351569 
L 592.91947 208.059131 
L 593.17466 206.60132 
L 593.225698 206.892008 
L 593.480888 207.765526 
L 593.634002 207.473382 
L 594.960991 214.551591 
L 595.063067 213.954613 
L 595.114105 214.252654 
L 595.216182 214.849631 
L 595.26722 214.550695 
L 595.318258 214.550695 
L 595.675524 213.060194 
L 596.083828 215.146473 
L 596.645247 211.871316 
L 596.696285 212.167274 
L 597.002513 213.949248 
L 597.053551 213.651212 
L 597.257703 212.758891 
L 597.563931 214.544423 
L 597.614969 214.245792 
L 597.666007 214.245792 
L 598.074312 216.039968 
L 598.63573 213.34931 
L 598.686768 213.34931 
L 599.095072 215.138095 
L 599.962719 210.091764 
L 600.013757 210.385942 
L 600.166871 210.68012 
L 600.524137 208.915935 
L 600.626214 209.502233 
L 600.677252 209.208644 
L 600.72829 209.208644 
L 601.391784 212.450777 
L 601.544898 211.562053 
L 601.595936 211.857702 
L 601.646974 212.153647 
L 601.698012 211.857406 
L 602.157355 209.791708 
L 603.33123 216.024963 
L 603.790572 213.930174 
L 604.198876 216.322671 
L 604.249914 216.022262 
L 604.709257 213.332059 
L 604.760295 213.629478 
L 604.811333 213.629478 
L 605.168599 215.719754 
L 605.219637 215.419948 
L 605.321713 214.821234 
L 605.372751 215.120142 
L 605.627941 216.01866 
L 605.781055 215.418749 
L 606.087284 216.618269 
L 606.138322 216.317564 
L 606.18936 216.617968 
L 606.495588 218.426713 
L 606.546626 218.1242 
L 608.128805 208.894839 
L 608.588147 211.246912 
L 608.639185 210.951578 
L 608.690224 211.246617 
L 608.894376 211.837283 
L 608.945414 211.837283 
L 608.996452 212.133207 
L 609.04749 211.836987 
L 609.098528 211.836987 
L 609.251642 210.950103 
L 609.30268 211.24514 
L 609.506832 212.428241 
L 609.55787 212.131726 
L 609.710984 211.243959 
L 609.762022 211.539289 
L 610.833821 217.206723 
L 611.293163 214.804794 
L 611.446278 215.702366 
L 611.497316 215.402577 
L 611.956658 212.717929 
L 612.007696 213.014734 
L 612.518076 215.999154 
L 612.569114 215.699068 
L 613.640913 210.053817 
L 613.742989 210.642392 
L 613.794027 210.347663 
L 613.845065 210.053229 
L 613.896103 210.347369 
L 614.100255 211.526873 
L 614.151294 211.23126 
L 614.457522 210.051464 
L 614.865826 211.820415 
L 615.01894 211.524213 
L 615.121016 212.11573 
L 615.172054 211.819528 
L 615.223092 211.523621 
L 615.27413 211.819232 
L 615.733473 213.896798 
L 615.835549 213.301129 
L 615.886587 213.598517 
L 616.141777 214.492168 
L 616.192815 214.492168 
L 616.396967 213.597326 
L 616.499043 213.89501 
L 617.1115 210.33883 
L 617.162538 210.633256 
L 617.468766 211.81361 
L 618.13226 208.574639 
L 619.357173 215.380415 
L 619.408211 215.080948 
L 619.459249 215.380116 
L 619.816516 216.880147 
L 619.867554 216.880147 
L 619.96963 217.181114 
L 620.020668 216.879846 
L 620.071706 217.180812 
L 620.7352 220.511071 
L 620.888315 220.206169 
L 620.939353 220.510462 
L 620.990391 220.205864 
L 621.960113 215.074067 
L 622.011151 215.373228 
L 622.062189 215.073768 
L 622.164265 214.475746 
L 622.215303 214.774309 
L 623.236064 220.199474 
L 623.287102 220.199474 
L 624.103711 215.966746 
L 624.154749 216.2668 
L 624.205787 215.966446 
L 624.307863 215.36664 
L 624.358901 215.666093 
L 624.409939 215.965846 
L 624.460977 215.665794 
L 625.226548 211.200843 
L 625.277586 211.496131 
L 625.328624 211.791714 
L 625.379662 211.495835 
L 625.532776 210.609974 
L 625.583814 210.904671 
L 626.757689 217.764632 
L 626.808727 217.46278 
L 627.063917 215.958045 
L 627.114955 216.25809 
L 627.217031 216.85908 
L 627.268069 216.558134 
L 627.931564 212.970172 
L 628.901286 218.665339 
L 628.952324 218.362587 
L 629.156477 217.154603 
L 629.207515 217.455845 
L 629.258553 217.757387 
L 629.309591 217.455543 
L 629.871009 214.155113 
L 629.922047 214.453355 
L 631.197998 221.395534 
L 631.708378 218.657165 
L 631.759417 218.959909 
L 631.810455 218.656862 
L 632.831215 213.253253 
L 632.882253 213.550593 
L 632.933291 213.252956 
L 633.137444 212.361829 
L 633.341596 212.954725 
L 633.49471 212.064492 
L 633.545748 212.360643 
L 633.596786 212.360643 
L 634.158204 215.637918 
L 634.209242 215.338193 
L 634.362356 215.038469 
L 635.025851 218.345046 
L 635.740383 214.138412 
L 635.791422 214.436637 
L 636.454916 218.340812 
L 636.505954 218.038384 
L 636.86322 216.530476 
L 637.220487 218.338695 
L 637.475677 216.829589 
L 637.526715 217.130505 
L 637.781905 218.337183 
L 637.832943 218.034759 
L 637.883981 218.33688 
L 638.088133 219.54839 
L 638.139171 219.244755 
L 638.445399 217.42931 
L 638.496438 217.730826 
L 639.262008 221.983848 
L 639.313046 221.677777 
L 639.364084 221.983542 
L 639.517198 222.289306 
L 639.823426 221.065333 
L 639.874465 221.370486 
L 639.925503 221.065028 
L 639.976541 220.759876 
L 640.027579 221.064723 
L 640.231731 221.675025 
L 640.844187 218.630828 
L 640.895225 218.630828 
L 640.997301 218.025695 
L 641.048339 218.327808 
L 641.201453 218.932939 
L 641.456644 218.024789 
L 641.507682 218.3269 
L 641.55872 218.024487 
L 641.711834 217.722074 
L 641.762872 218.023882 
L 641.81391 217.721772 
L 641.864948 217.419963 
L 641.915986 217.72147 
L 642.375328 219.840172 
L 642.987785 216.513642 
L 643.140899 217.416345 
L 643.191937 217.114842 
L 643.651279 214.414846 
L 643.702317 214.713347 
L 644.365812 218.318735 
L 644.41685 218.01633 
L 644.467888 218.318433 
L 644.978268 221.356129 
L 645.029306 221.050686 
L 645.386573 218.921122 
L 645.437611 219.224129 
L 645.539687 219.831055 
L 645.590725 219.527137 
L 645.641763 219.223523 
L 645.692801 219.526833 
L 645.743839 219.526833 
L 645.845915 219.22322 
L 645.947991 219.830143 
L 645.999029 219.526226 
L 646.152143 218.919304 
L 646.254219 219.22231 
L 646.407333 218.313292 
L 646.458371 218.615692 
L 646.815638 220.740977 
L 646.866676 220.436149 
L 647.377056 217.404587 
L 647.428094 217.706078 
L 648.040551 220.737319 
L 648.653007 217.099481 
L 648.704045 217.400667 
L 649.469616 221.954773 
L 649.520654 221.648731 
L 649.775844 220.123108 
L 649.826882 220.427318 
L 650.031034 221.647202 
L 650.082072 221.341468 
L 650.64349 217.998506 
L 650.694529 218.300591 
L 651.306985 221.337803 
L 651.919441 218.296963 
L 652.531898 221.945592 
L 652.582936 221.639559 
L 652.633974 221.333833 
L 652.685012 221.639253 
L 652.73605 221.944979 
L 652.787088 221.638948 
L 653.756811 216.482682 
L 655.0838 224.395958 
L 655.134838 224.087475 
L 655.696256 221.32467 
L 656.308713 225.009832 
L 656.359751 224.700735 
L 656.563903 223.775299 
L 656.614941 224.083161 
L 656.665979 223.774991 
L 656.717017 223.467129 
L 656.768055 223.774683 
L 657.839854 230.304836 
L 657.890892 229.990444 
L 658.758538 224.693633 
L 658.809576 225.002414 
L 659.626185 229.357589 
L 659.779299 228.418196 
L 659.830337 228.730701 
L 660.085527 230.297919 
L 660.136565 229.983535 
L 660.187604 229.669464 
L 660.238642 229.983221 
L 660.28968 229.983221 
L 660.595908 228.103505 
L 660.646946 228.415696 
L 661.361478 232.502692 
L 661.412516 232.186103 
L 661.463554 232.502376 
L 661.769783 234.406666 
L 661.820821 234.088172 
L 661.973935 233.134602 
L 662.024973 233.451823 
L 662.076011 233.451823 
L 662.178087 232.817064 
L 662.229125 233.133967 
L 662.331201 233.451188 
L 663.14781 228.408508 
L 663.198848 228.721004 
L 663.351962 229.033498 
L 663.709228 226.848221 
L 663.760266 227.159156 
L 663.862342 227.781959 
L 663.91338 227.47009 
L 664.372723 224.677268 
L 664.423761 224.986033 
L 665.342445 230.282515 
L 665.393483 229.968146 
L 665.444521 230.2822 
L 665.801788 232.489396 
L 665.852826 232.17282 
L 666.108016 230.594681 
L 666.159054 230.909363 
L 666.720472 233.755376 
L 666.77151 233.755376 
L 667.281891 236.948139 
L 667.332929 236.627104 
L 668.200575 231.218368 
L 668.251613 231.533673 
L 668.455766 232.164913 
L 668.915108 229.330007 
L 668.966146 229.643424 
L 669.731717 233.746159 
L 670.344173 230.267425 
L 670.701439 231.842027 
L 670.752477 231.526098 
L 670.803515 231.841711 
L 670.905591 232.473884 
L 670.956629 232.157323 
L 671.518048 229.322172 
L 672.334656 234.3745 
L 672.385695 234.056038 
L 672.487771 233.420071 
L 672.538809 233.737578 
L 672.640885 234.373544 
L 672.691923 234.055084 
L 672.998151 232.150999 
L 673.049189 232.467236 
L 673.508531 235.327645 
L 673.559569 235.008231 
L 673.865798 233.733446 
L 674.172026 235.006316 
L 674.223064 234.687223 
L 674.274102 235.005997 
L 674.376178 235.644502 
L 674.427216 235.32477 
L 674.83552 233.412768 
L 674.886558 233.412768 
L 674.937596 233.095269 
L 674.988634 233.412451 
L 675.294863 235.322215 
L 675.345901 235.002806 
L 675.907319 231.510318 
L 675.958357 231.825915 
L 676.009395 232.141828 
L 676.060433 231.825599 
L 676.621852 228.993734 
L 677.285346 233.088291 
L 677.336384 232.771116 
L 677.489498 232.453941 
L 677.591574 233.087339 
L 677.642612 232.770165 
L 677.744688 232.136768 
L 677.795727 232.452992 
L 678.408183 235.632352 
L 679.224792 230.555034 
L 679.27583 230.869676 
L 680.245552 236.908012 
L 680.29659 236.587017 
L 680.347628 236.266344 
L 680.398666 236.586697 
L 681.317351 241.755807 
L 682.184998 236.260577 
L 682.236036 236.580925 
L 682.542264 238.187473 
L 682.593302 237.865199 
L 682.64434 238.187151 
L 682.695378 238.187151 
L 682.950568 237.220974 
L 683.205758 238.830729 
L 683.256797 238.507812 
L 683.920291 234.339152 
L 683.971329 234.657578 
L 684.277557 236.574832 
L 684.328595 236.25417 
L 684.379633 235.933829 
L 684.430671 236.25385 
L 685.145204 240.443356 
L 685.196242 240.118826 
L 685.24728 240.443032 
L 685.298318 240.767562 
L 685.349356 240.442707 
L 685.604546 238.823302 
L 685.655584 239.146212 
L 685.910774 240.765613 
L 685.961813 240.44076 
L 686.931535 234.648654 
L 687.084649 235.286443 
L 687.135687 234.96707 
L 687.186725 235.286124 
L 687.59503 237.850067 
L 687.646068 237.52813 
L 687.85022 236.56425 
L 688.003334 236.88458 
L 688.054372 236.88458 
L 688.258524 237.848458 
L 688.564752 235.921669 
L 688.61579 236.241677 
L 689.738627 242.709148 
L 690.657312 237.519125 
L 690.70835 237.519125 
L 691.065616 235.594308 
L 691.933263 241.072581 
L 691.984301 240.747421 
L 692.137415 239.773893 
L 692.188453 240.097754 
L 692.341567 240.421614 
L 692.392605 240.421614 
L 692.443643 240.097105 
L 692.494681 240.421289 
L 693.209214 244.336546 
L 694.638279 235.263768 
L 694.791393 236.222778 
L 694.842431 235.902469 
L 695.148659 233.987327 
L 695.199697 234.305401 
L 695.91423 238.146869 
L 695.965268 237.824635 
L 696.016306 238.146547 
L 696.067344 238.146547 
L 696.220458 238.468457 
L 696.986029 234.299988 
L 697.037067 234.299988 
L 697.343295 236.215091 
L 697.394333 235.894789 
L 697.445371 235.894789 
L 698.874436 244.647546 
L 699.231702 242.353298 
L 699.28274 242.679738 
L 699.435854 243.661018 
L 699.486893 243.33327 
L 701.171148 232.699514 
L 702.549175 241.364868 
L 702.600213 241.039416 
L 703.161631 238.124635 
L 703.263707 238.446847 
L 703.416821 237.480213 
L 703.467859 237.80178 
L 703.72305 238.768089 
L 704.029278 236.835796 
L 704.080316 237.156719 
L 704.692772 241.032914 
L 704.74381 240.707794 
L 706.019761 232.684625 
L 706.989484 238.112714 
L 707.09156 237.468637 
L 707.142598 237.790193 
L 707.244674 238.434268 
L 707.295712 238.111747 
L 707.448826 237.146118 
L 707.499864 237.467351 
L 707.550902 237.788905 
L 707.601941 237.467029 
L 707.806093 236.823922 
L 708.520625 240.695777 
L 708.622701 240.370994 
L 709.082044 243.302822 
L 709.133082 242.975432 
L 709.6945 240.043295 
L 710.102804 241.992618 
L 710.153842 241.666538 
L 710.20488 241.992292 
L 710.664223 244.281376 
L 711.378755 239.713984 
L 711.429793 240.037785 
L 711.736022 241.987401 
L 711.78706 241.661326 
L 711.838098 241.335578 
L 711.889136 241.661001 
L 712.399516 244.933176 
L 712.450554 244.604156 
L 713.165087 240.681162 
L 713.267163 241.00593 
L 713.522353 239.383714 
L 713.573391 239.707184 
L 713.777543 241.004304 
L 713.828581 240.679213 
L 714.492076 237.124275 
L 714.798304 238.410725 
L 714.849342 238.088228 
L 714.90038 238.410403 
L 716.125293 246.24 
L 716.176331 245.909673 
L 717.146054 240.019959 
L 717.401244 240.993251 
L 717.75851 239.370775 
L 718.370966 243.273685 
L 718.422004 242.946325 
L 718.473043 242.946325 
L 718.677195 241.640153 
L 718.728233 241.96588 
L 718.830309 242.618312 
L 718.881347 242.291607 
L 718.932385 241.965228 
L 718.983423 242.29128 
L 719.340689 244.582792 
L 719.391727 244.254122 
L 719.493803 243.925782 
L 719.544841 244.253794 
L 719.595879 243.925453 
L 720.769754 236.463582 
L 720.973906 237.104682 
L 721.280135 235.182344 
L 721.331173 235.501614 
L 721.637401 236.781886 
L 721.688439 236.781886 
L 722.454009 241.628753 
L 722.505048 241.303038 
L 723.372694 236.455888 
L 723.423732 236.776431 
L 723.47477 236.455568 
L 724.291379 231.365177 
L 724.342417 231.680629 
L 724.495531 232.628879 
L 724.546569 232.312163 
L 724.903835 230.733014 
L 724.954873 230.733014 
L 725.363178 232.943375 
L 725.56733 231.677155 
L 725.618368 231.992919 
L 726.843281 239.666713 
L 726.894319 239.342959 
L 727.761965 234.525008 
L 728.221308 237.082841 
L 728.527536 235.799769 
L 728.884802 237.402082 
L 728.93584 237.080593 
L 728.986878 237.401761 
L 729.19103 238.689645 
L 729.242068 238.366868 
L 729.803487 235.476047 
L 729.854525 235.79561 
L 729.905563 235.475728 
L 729.956601 235.156165 
L 730.007639 235.475408 
L 731.181514 242.253423 
L 731.691894 239.004667 
L 731.742932 239.327758 
L 732.100199 241.598463 
L 732.151237 241.272778 
L 732.814731 237.068389 
L 732.865769 237.389544 
L 732.916807 237.71102 
L 732.967845 237.389223 
L 733.223035 235.785054 
L 733.274073 236.104926 
L 733.988606 240.292485 
L 734.192758 239.643727 
L 734.6521 241.91665 
L 735.009367 239.641461 
L 735.060405 239.965189 
L 735.162481 240.289241 
L 735.264557 239.640813 
L 735.315595 239.964541 
L 735.417671 240.612968 
L 735.468709 240.288268 
L 735.519747 239.963893 
L 735.570785 240.287944 
L 735.825975 241.913064 
L 735.877013 241.587064 
L 736.99985 235.134777 
L 737.152964 234.17807 
L 737.204002 234.496334 
L 738.020611 239.632073 
L 738.071649 239.308354 
L 738.633067 235.768741 
L 738.684105 236.088597 
L 738.83722 236.729268 
L 739.09241 235.128392 
L 739.143448 235.447608 
L 739.449676 237.369613 
L 739.500714 237.048157 
L 740.11317 233.850902 
L 740.164209 233.850902 
L 740.215247 234.16884 
L 740.266285 233.850584 
L 740.521475 232.264074 
L 740.572513 232.580425 
L 741.031855 235.122647 
L 741.746388 231.312816 
L 743.175453 239.616211 
L 744.043099 234.157065 
L 744.094137 234.475309 
L 745.216974 241.232436 
L 745.676317 238.316247 
L 745.727355 238.63865 
L 745.982545 240.255508 
L 746.033583 239.931165 
L 746.543963 236.705528 
L 746.595001 237.02632 
L 747.462648 242.529133 
L 747.513686 242.202517 
L 747.615762 241.550265 
L 747.6668 241.875902 
L 748.024066 243.508651 
L 748.993789 237.983538 
L 749.095865 238.628 
L 749.146903 238.305286 
L 749.657284 235.095834 
L 749.708322 235.415017 
L 750.422854 239.269872 
L 750.575968 238.623482 
L 750.627006 238.946193 
L 750.678044 238.62316 
L 750.729082 238.30045 
L 750.78012 238.622837 
L 750.984273 239.591934 
L 751.086349 238.944901 
L 751.137387 239.267932 
L 751.188425 239.267932 
L 751.239463 238.944578 
L 751.290501 239.267609 
L 751.392577 239.914641 
L 751.443615 239.59064 
L 752.107109 235.407988 
L 752.158147 235.727483 
L 752.209185 235.727483 
L 753.12787 241.533333 
L 753.178908 241.207712 
L 753.485136 239.908161 
L 753.791365 241.205761 
L 754.250707 238.289811 
L 754.301745 238.612188 
L 754.505897 239.904921 
L 754.556935 239.580929 
L 755.067316 236.358779 
L 755.118354 236.679224 
L 755.271468 236.999669 
L 755.526658 236.037053 
L 755.934962 237.962282 
L 756.088076 236.9971 
L 756.139114 237.318184 
L 756.343266 238.605734 
L 756.394305 238.283041 
L 756.904685 235.712771 
L 757.568179 239.248208 
L 758.027522 236.349806 
L 758.07856 236.670243 
L 758.282712 237.955197 
L 758.33375 237.633155 
L 758.384788 237.633155 
L 759.048282 241.8407 
L 759.099321 241.514773 
L 760.171119 234.745086 
L 760.222157 235.063917 
L 760.273195 235.063917 
L 760.783576 231.886734 
L 760.834614 232.202708 
L 761.498108 236.339232 
L 761.549146 236.018806 
L 761.804337 234.421476 
L 761.855375 234.739984 
L 762.365755 237.942637 
L 762.416793 237.620608 
L 762.467831 237.620608 
L 762.723021 238.586373 
L 762.876135 238.263377 
L 762.978211 238.9084 
L 763.029249 238.585405 
L 763.080287 238.585405 
L 763.28444 237.940061 
L 763.437554 238.907108 
L 763.488592 238.584114 
L 764.611429 232.191322 
L 764.815581 231.558766 
L 766.448798 241.81756 
L 766.499836 241.491656 
L 766.550874 241.166077 
L 766.601912 241.49133 
L 766.755026 242.469042 
L 766.806064 242.142486 
L 766.857102 241.816256 
L 766.90814 242.14216 
L 767.010216 242.794944 
L 767.061254 242.468062 
L 768.133053 235.99864 
L 768.337205 236.959857 
L 769.0007 232.811201 
L 769.051738 233.128099 
L 770.838069 243.765095 
L 772.318172 234.708103 
L 772.36921 235.026898 
L 772.420248 234.707784 
L 772.828553 232.482906 
L 772.930629 233.116362 
L 772.981667 232.799159 
L 773.287895 230.90259 
L 773.338933 231.21758 
L 773.594123 232.164123 
L 773.645161 232.164123 
L 773.849313 233.431025 
L 773.900351 233.113507 
L 774.104504 232.479107 
L 774.410732 234.383257 
L 774.46177 234.064787 
L 774.512808 233.746636 
L 774.563846 234.064469 
L 775.533569 239.516202 
L 776.962634 230.576588 
L 778.136509 237.572355 
L 778.289623 236.608343 
L 778.340661 236.929038 
L 778.851041 239.506171 
L 779.157269 237.569461 
L 779.208307 237.891117 
L 779.66765 240.151735 
L 780.484258 235.641464 
L 780.586334 235.961192 
L 780.841525 234.36415 
L 780.892563 234.682601 
L 781.811247 240.469482 
L 781.862285 240.144926 
L 782.423704 236.596157 
L 782.474742 236.916839 
L 782.883046 239.493874 
L 782.934084 239.170294 
L 783.189274 238.20117 
L 783.29135 238.846068 
L 783.342388 238.523135 
L 783.648617 237.234309 
L 784.005883 238.843807 
L 784.056921 238.843807 
L 784.107959 239.166738 
L 784.158997 238.843484 
L 784.312111 237.875662 
L 784.363149 238.197625 
L 784.924568 241.109488 
L 785.945328 234.666981 
L 785.996366 234.985735 
L 786.302595 236.904963 
L 786.353633 236.583971 
L 786.608823 234.983821 
L 786.659861 235.302891 
L 786.864013 236.582368 
L 786.915051 236.261698 
L 787.170241 234.982225 
L 788.037888 239.801584 
L 789.211763 232.433525 
L 790.538752 240.44222 
L 790.84498 239.145727 
L 791.508474 242.718789 
L 791.712627 241.739352 
L 791.763665 242.065179 
L 791.814703 241.739027 
L 792.069893 240.113153 
L 792.120931 240.437353 
L 792.580273 243.36978 
L 792.631311 243.042323 
L 792.835463 241.735768 
L 792.886501 242.061591 
L 792.937539 242.387739 
L 792.988578 242.061265 
L 793.345844 239.785066 
L 793.396882 240.108938 
L 793.549996 240.757654 
L 794.621795 234.003708 
L 794.672833 234.321799 
L 795.285289 237.519929 
L 795.336327 237.519929 
L 795.540479 238.485714 
L 795.591517 238.163142 
L 795.642555 238.485392 
L 795.744632 239.130859 
L 795.79567 238.807641 
L 795.948784 237.839926 
L 795.999822 238.161853 
L 796.357088 240.100185 
L 797.326811 233.995756 
L 797.377849 234.313838 
L 797.582001 235.589353 
L 797.633039 235.269676 
L 797.735115 234.631283 
L 797.786153 234.950001 
L 797.888229 235.588394 
L 797.939267 235.268718 
L 798.449648 232.089496 
L 798.500686 232.405673 
L 799.67456 239.765635 
L 799.725598 239.441782 
L 799.827675 238.795049 
L 799.878713 239.11793 
L 799.929751 239.441135 
L 799.980789 239.117607 
L 800.235979 237.504814 
L 800.287017 237.826406 
L 800.491169 239.115991 
L 800.542207 238.792788 
L 800.593245 238.469909 
L 800.644283 238.792465 
L 801.409854 243.342275 
L 802.379576 237.498382 
L 802.583729 238.141552 
L 802.634767 238.141552 
L 802.889957 236.533629 
L 802.940995 236.85425 
L 803.553451 240.077817 
L 803.808642 239.105972 
L 803.85968 239.105972 
L 803.910718 239.429165 
L 803.961756 239.105649 
L 804.319022 237.171336 
L 804.472136 238.136074 
L 804.523174 237.813851 
L 805.543935 232.068313 
L 805.646011 232.70094 
L 805.697049 232.384152 
L 805.850163 231.435688 
L 805.901201 231.751211 
L 806.207429 233.333562 
L 806.360543 233.015825 
L 807.687532 241.364379 
L 807.73857 241.038928 
L 808.197913 238.124474 
L 808.248951 238.446686 
L 808.299989 238.769219 
L 808.351027 238.446363 
L 809.116597 233.960133 
L 809.678016 237.476194 
L 809.729054 237.154631 
L 810.749815 230.790474 
L 810.800853 231.105351 
L 811.974728 237.790675 
L 812.791336 233.313248 
L 812.842374 233.313248 
L 813.607945 237.463975 
L 813.761059 236.500287 
L 813.812097 236.820874 
L 814.220401 238.750817 
L 814.271439 238.750817 
L 814.424553 239.720298 
L 814.475591 239.396491 
L 814.832858 237.13889 
L 814.883896 237.460116 
L 814.934934 237.781663 
L 814.985972 237.459794 
L 815.241162 235.855274 
L 815.2922 236.175216 
L 816.517113 243.950547 
L 816.568151 243.62251 
L 817.742026 236.16753 
L 818.303444 239.061051 
L 818.40552 239.061051 
L 818.456558 238.737903 
L 818.507596 239.060728 
L 818.609672 239.707346 
L 818.66071 239.383552 
L 819.783547 232.974921 
L 819.987699 232.340798 
L 820.549118 235.519351 
L 821.00846 233.288492 
L 821.161574 234.24157 
L 821.212612 233.923241 
L 821.26365 233.923241 
L 822.182335 239.696337 
L 822.233373 239.372554 
L 822.539601 237.436644 
L 822.590639 237.758167 
L 822.692715 238.402179 
L 822.743753 238.07969 
L 823.049982 236.472076 
L 823.764514 240.989188 
L 823.815552 240.664112 
L 824.632161 235.506887 
L 824.683199 235.82648 
L 825.193579 239.040047 
L 825.244617 238.716921 
L 825.346693 238.716921 
L 825.550846 240.010073 
L 825.601884 239.685977 
L 826.061226 236.783651 
L 826.112264 237.104521 
L 826.46953 239.036493 
L 826.520568 238.71337 
L 826.571606 239.03617 
L 826.72472 239.682739 
L 826.928873 238.389602 
L 826.979911 238.712079 
L 827.592367 241.954306 
L 827.745481 240.97716 
L 827.796519 241.302224 
L 827.847557 241.627613 
L 827.898595 241.301899 
L 828.613128 237.418318 
L 828.664166 237.418318 
L 828.715204 237.096812 
L 828.766242 237.417996 
L 828.919356 238.383475 
L 828.970394 238.061005 
L 829.225584 236.453484 
L 829.276622 236.774025 
L 829.889079 240.645602 
L 829.940117 240.320869 
L 830.297383 238.056817 
L 830.348421 238.378961 
L 830.501535 238.701104 
L 831.011916 235.487712 
L 831.062954 235.807286 
L 831.42022 238.053273 
L 831.471258 237.731133 
L 831.67541 237.087498 
L 831.726448 237.408673 
L 831.777486 237.087177 
L 832.032676 235.484516 
L 832.083714 235.804087 
L 832.798247 240.311786 
L 832.849285 239.987387 
L 832.900323 239.987387 
L 832.951361 239.663313 
L 833.002399 239.987063 
L 833.104475 240.635535 
L 833.155513 240.310813 
L 833.563817 238.046831 
L 833.614856 238.368964 
L 833.665894 238.046509 
L 834.125236 235.158879 
L 834.176274 235.478125 
L 834.27835 236.117574 
L 834.329388 235.79737 
L 834.380426 235.477485 
L 834.431464 235.79705 
L 834.737692 237.399671 
L 835.043921 235.475568 
L 835.094959 235.79513 
L 836.779214 245.861332 
L 837.544784 241.597323 
L 837.595822 241.923007 
L 837.64686 241.596997 
L 838.973849 233.234225 
L 840.045648 239.965027 
L 840.096686 239.640975 
L 840.862257 235.138129 
L 841.015371 236.096761 
L 841.066409 235.776578 
L 841.117447 235.456714 
L 841.168485 235.776258 
L 841.678865 238.666567 
L 843.005854 230.379041 
L 843.158969 230.693192 
L 843.210007 230.378412 
L 843.261045 230.692877 
L 843.720387 233.537253 
L 843.771425 233.219629 
L 843.924539 232.268661 
L 843.975577 232.585016 
L 844.9453 238.656239 
L 844.996338 238.333496 
L 845.557756 234.804553 
L 845.608794 235.123445 
L 846.323327 238.974782 
L 846.425403 238.328982 
L 846.476441 238.651398 
L 847.242012 242.871933 
L 847.29305 242.871933 
L 847.599278 240.915079 
L 847.650316 241.240081 
L 847.701354 241.565408 
L 847.752392 241.239755 
L 848.109658 239.29267 
L 848.160696 239.616049 
L 848.211734 239.292346 
L 848.517963 238.000447 
L 848.671077 238.967675 
L 848.722115 238.644621 
L 849.130419 236.392267 
L 849.640799 239.611517 
L 849.691837 239.287819 
L 849.844951 238.318665 
L 849.89599 238.641071 
L 849.947028 238.963798 
L 849.998066 238.640748 
L 850.457408 236.388101 
L 850.763636 237.671603 
L 850.814674 237.349844 
L 850.865712 237.671281 
L 850.967788 238.315119 
L 851.018826 237.992717 
L 851.069864 237.670637 
L 851.120902 237.992395 
L 851.17194 237.992395 
L 852.396853 245.811844 
L 852.447891 245.481945 
L 852.498929 245.152376 
L 852.549967 245.481616 
L 852.601006 245.811184 
L 852.652044 245.481286 
L 853.213462 241.874109 
L 853.2645 242.20007 
L 853.825918 245.477661 
L 854.948755 238.948292 
L 856.12263 245.799968 
L 856.581972 243.497349 
L 856.888201 245.138549 
L 857.092353 244.480099 
L 857.143391 244.808666 
L 857.194429 244.47977 
L 857.296505 243.822966 
L 857.347543 244.150875 
L 857.398581 244.479113 
L 857.449619 244.150547 
L 858.368304 238.937632 
L 858.47038 239.584004 
L 858.521418 239.260333 
L 858.929722 236.682592 
L 858.98076 237.003362 
L 859.031798 237.324452 
L 859.082836 237.003041 
L 859.133874 236.681951 
L 859.184912 237.002719 
L 859.23595 237.323809 
L 859.23595 237.323809 
" clip-path="url(#pc5f0ff961a)" style="fill: none; stroke: #1f77b4; stroke-width: 1.5; stroke-linecap: square"/>
   </g>
   <g id="patch_8">
    <path d="M 532.390909 256.32 
L 532.390909 34.56 
" style="fill: none; stroke: #000000; stroke-width: 0.8; stroke-linejoin: miter; stroke-linecap: square"/>
   </g>
   <g id="patch_9">
    <path d="M 874.8 256.32 
L 874.8 34.56 
" style="fill: none; stroke: #000000; stroke-width: 0.8; stroke-linejoin: miter; stroke-linecap: square"/>
   </g>
   <g id="patch_10">
    <path d="M 532.390909 256.32 
L 874.8 256.32 
" style="fill: none; stroke: #000000; stroke-width: 0.8; stroke-linejoin: miter; stroke-linecap: square"/>
   </g>
   <g id="patch_11">
    <path d="M 532.390909 34.56 
L 874.8 34.56 
" style="fill: none; stroke: #000000; stroke-width: 0.8; stroke-linejoin: miter; stroke-linecap: square"/>
   </g>
  </g>
 </g>
 <defs>
  <clipPath id="p74cf49216b">
   <rect x="121.5" y="34.56" width="342.409091" height="221.76"/>
  </clipPath>
  <clipPath id="pc5f0ff961a">
   <rect x="532.390909" y="34.56" width="342.409091" height="221.76"/>
  </clipPath>
 </defs>
</svg>
