<?xml version="1.0" encoding="utf-8" standalone="no"?>
<!DOCTYPE svg PUBLIC "-//W3C//DTD SVG 1.1//EN"
  "http://www.w3.org/Graphics/SVG/1.1/DTD/svg11.dtd">
<svg xmlns:xlink="http://www.w3.org/1999/xlink" width="972pt" height="288pt" viewBox="0 0 972 288" xmlns="http://www.w3.org/2000/svg" version="1.1">
 <metadata>
  <rdf:RDF xmlns:dc="http://purl.org/dc/elements/1.1/" xmlns:cc="http://creativecommons.org/ns#" xmlns:rdf="http://www.w3.org/1999/02/22-rdf-syntax-ns#">
   <cc:Work>
    <dc:type rdf:resource="http://purl.org/dc/dcmitype/StillImage"/>
    <dc:date>2024-06-06T17:34:53.471135</dc:date>
    <dc:format>image/svg+xml</dc:format>
    <dc:creator>
     <cc:Agent>
      <dc:title>Matplotlib v3.7.2, https://matplotlib.org/</dc:title>
     </cc:Agent>
    </dc:creator>
   </cc:Work>
  </rdf:RDF>
 </metadata>
 <defs>
  <style type="text/css">*{stroke-linejoin: round; stroke-linecap: butt}</style>
 </defs>
 <g id="figure_1">
  <g id="patch_1">
   <path d="M 0 288 
L 972 288 
L 972 0 
L 0 0 
z
" style="fill: #ffffff"/>
  </g>
  <g id="axes_1">
   <g id="patch_2">
    <path d="M 121.5 256.32 
L 463.909091 256.32 
L 463.909091 34.56 
L 121.5 34.56 
z
" style="fill: #ffffff"/>
   </g>
   <g id="matplotlib.axis_1">
    <g id="xtick_1">
     <g id="line2d_1">
      <defs>
       <path id="m90f0ac12ba" d="M 0 0 
L 0 3.5 
" style="stroke: #000000; stroke-width: 0.8"/>
      </defs>
      <g>
       <use xlink:href="#m90f0ac12ba" x="137.06405" y="256.32" style="stroke: #000000; stroke-width: 0.8"/>
      </g>
     </g>
     <g id="text_1">
      <!-- 0 -->
      <g transform="translate(133.8828 270.918437) scale(0.1 -0.1)">
       <defs>
        <path id="DejaVuSans-30" d="M 2034 4250 
Q 1547 4250 1301 3770 
Q 1056 3291 1056 2328 
Q 1056 1369 1301 889 
Q 1547 409 2034 409 
Q 2525 409 2770 889 
Q 3016 1369 3016 2328 
Q 3016 3291 2770 3770 
Q 2525 4250 2034 4250 
z
M 2034 4750 
Q 2819 4750 3233 4129 
Q 3647 3509 3647 2328 
Q 3647 1150 3233 529 
Q 2819 -91 2034 -91 
Q 1250 -91 836 529 
Q 422 1150 422 2328 
Q 422 3509 836 4129 
Q 1250 4750 2034 4750 
z
" transform="scale(0.015625)"/>
       </defs>
       <use xlink:href="#DejaVuSans-30"/>
      </g>
     </g>
    </g>
    <g id="xtick_2">
     <g id="line2d_2">
      <g>
       <use xlink:href="#m90f0ac12ba" x="189.895175" y="256.32" style="stroke: #000000; stroke-width: 0.8"/>
      </g>
     </g>
     <g id="text_2">
      <!-- 1000 -->
      <g transform="translate(177.170175 270.918437) scale(0.1 -0.1)">
       <defs>
        <path id="DejaVuSans-31" d="M 794 531 
L 1825 531 
L 1825 4091 
L 703 3866 
L 703 4441 
L 1819 4666 
L 2450 4666 
L 2450 531 
L 3481 531 
L 3481 0 
L 794 0 
L 794 531 
z
" transform="scale(0.015625)"/>
       </defs>
       <use xlink:href="#DejaVuSans-31"/>
       <use xlink:href="#DejaVuSans-30" x="63.623047"/>
       <use xlink:href="#DejaVuSans-30" x="127.246094"/>
       <use xlink:href="#DejaVuSans-30" x="190.869141"/>
      </g>
     </g>
    </g>
    <g id="xtick_3">
     <g id="line2d_3">
      <g>
       <use xlink:href="#m90f0ac12ba" x="242.726301" y="256.32" style="stroke: #000000; stroke-width: 0.8"/>
      </g>
     </g>
     <g id="text_3">
      <!-- 2000 -->
      <g transform="translate(230.001301 270.918437) scale(0.1 -0.1)">
       <defs>
        <path id="DejaVuSans-32" d="M 1228 531 
L 3431 531 
L 3431 0 
L 469 0 
L 469 531 
Q 828 903 1448 1529 
Q 2069 2156 2228 2338 
Q 2531 2678 2651 2914 
Q 2772 3150 2772 3378 
Q 2772 3750 2511 3984 
Q 2250 4219 1831 4219 
Q 1534 4219 1204 4116 
Q 875 4013 500 3803 
L 500 4441 
Q 881 4594 1212 4672 
Q 1544 4750 1819 4750 
Q 2544 4750 2975 4387 
Q 3406 4025 3406 3419 
Q 3406 3131 3298 2873 
Q 3191 2616 2906 2266 
Q 2828 2175 2409 1742 
Q 1991 1309 1228 531 
z
" transform="scale(0.015625)"/>
       </defs>
       <use xlink:href="#DejaVuSans-32"/>
       <use xlink:href="#DejaVuSans-30" x="63.623047"/>
       <use xlink:href="#DejaVuSans-30" x="127.246094"/>
       <use xlink:href="#DejaVuSans-30" x="190.869141"/>
      </g>
     </g>
    </g>
    <g id="xtick_4">
     <g id="line2d_4">
      <g>
       <use xlink:href="#m90f0ac12ba" x="295.557426" y="256.32" style="stroke: #000000; stroke-width: 0.8"/>
      </g>
     </g>
     <g id="text_4">
      <!-- 3000 -->
      <g transform="translate(282.832426 270.918437) scale(0.1 -0.1)">
       <defs>
        <path id="DejaVuSans-33" d="M 2597 2516 
Q 3050 2419 3304 2112 
Q 3559 1806 3559 1356 
Q 3559 666 3084 287 
Q 2609 -91 1734 -91 
Q 1441 -91 1130 -33 
Q 819 25 488 141 
L 488 750 
Q 750 597 1062 519 
Q 1375 441 1716 441 
Q 2309 441 2620 675 
Q 2931 909 2931 1356 
Q 2931 1769 2642 2001 
Q 2353 2234 1838 2234 
L 1294 2234 
L 1294 2753 
L 1863 2753 
Q 2328 2753 2575 2939 
Q 2822 3125 2822 3475 
Q 2822 3834 2567 4026 
Q 2313 4219 1838 4219 
Q 1578 4219 1281 4162 
Q 984 4106 628 3988 
L 628 4550 
Q 988 4650 1302 4700 
Q 1616 4750 1894 4750 
Q 2613 4750 3031 4423 
Q 3450 4097 3450 3541 
Q 3450 3153 3228 2886 
Q 3006 2619 2597 2516 
z
" transform="scale(0.015625)"/>
       </defs>
       <use xlink:href="#DejaVuSans-33"/>
       <use xlink:href="#DejaVuSans-30" x="63.623047"/>
       <use xlink:href="#DejaVuSans-30" x="127.246094"/>
       <use xlink:href="#DejaVuSans-30" x="190.869141"/>
      </g>
     </g>
    </g>
    <g id="xtick_5">
     <g id="line2d_5">
      <g>
       <use xlink:href="#m90f0ac12ba" x="348.388552" y="256.32" style="stroke: #000000; stroke-width: 0.8"/>
      </g>
     </g>
     <g id="text_5">
      <!-- 4000 -->
      <g transform="translate(335.663552 270.918437) scale(0.1 -0.1)">
       <defs>
        <path id="DejaVuSans-34" d="M 2419 4116 
L 825 1625 
L 2419 1625 
L 2419 4116 
z
M 2253 4666 
L 3047 4666 
L 3047 1625 
L 3713 1625 
L 3713 1100 
L 3047 1100 
L 3047 0 
L 2419 0 
L 2419 1100 
L 313 1100 
L 313 1709 
L 2253 4666 
z
" transform="scale(0.015625)"/>
       </defs>
       <use xlink:href="#DejaVuSans-34"/>
       <use xlink:href="#DejaVuSans-30" x="63.623047"/>
       <use xlink:href="#DejaVuSans-30" x="127.246094"/>
       <use xlink:href="#DejaVuSans-30" x="190.869141"/>
      </g>
     </g>
    </g>
    <g id="xtick_6">
     <g id="line2d_6">
      <g>
       <use xlink:href="#m90f0ac12ba" x="401.219677" y="256.32" style="stroke: #000000; stroke-width: 0.8"/>
      </g>
     </g>
     <g id="text_6">
      <!-- 5000 -->
      <g transform="translate(388.494677 270.918437) scale(0.1 -0.1)">
       <defs>
        <path id="DejaVuSans-35" d="M 691 4666 
L 3169 4666 
L 3169 4134 
L 1269 4134 
L 1269 2991 
Q 1406 3038 1543 3061 
Q 1681 3084 1819 3084 
Q 2600 3084 3056 2656 
Q 3513 2228 3513 1497 
Q 3513 744 3044 326 
Q 2575 -91 1722 -91 
Q 1428 -91 1123 -41 
Q 819 9 494 109 
L 494 744 
Q 775 591 1075 516 
Q 1375 441 1709 441 
Q 2250 441 2565 725 
Q 2881 1009 2881 1497 
Q 2881 1984 2565 2268 
Q 2250 2553 1709 2553 
Q 1456 2553 1204 2497 
Q 953 2441 691 2322 
L 691 4666 
z
" transform="scale(0.015625)"/>
       </defs>
       <use xlink:href="#DejaVuSans-35"/>
       <use xlink:href="#DejaVuSans-30" x="63.623047"/>
       <use xlink:href="#DejaVuSans-30" x="127.246094"/>
       <use xlink:href="#DejaVuSans-30" x="190.869141"/>
      </g>
     </g>
    </g>
    <g id="xtick_7">
     <g id="line2d_7">
      <g>
       <use xlink:href="#m90f0ac12ba" x="454.050803" y="256.32" style="stroke: #000000; stroke-width: 0.8"/>
      </g>
     </g>
     <g id="text_7">
      <!-- 6000 -->
      <g transform="translate(441.325803 270.918437) scale(0.1 -0.1)">
       <defs>
        <path id="DejaVuSans-36" d="M 2113 2584 
Q 1688 2584 1439 2293 
Q 1191 2003 1191 1497 
Q 1191 994 1439 701 
Q 1688 409 2113 409 
Q 2538 409 2786 701 
Q 3034 994 3034 1497 
Q 3034 2003 2786 2293 
Q 2538 2584 2113 2584 
z
M 3366 4563 
L 3366 3988 
Q 3128 4100 2886 4159 
Q 2644 4219 2406 4219 
Q 1781 4219 1451 3797 
Q 1122 3375 1075 2522 
Q 1259 2794 1537 2939 
Q 1816 3084 2150 3084 
Q 2853 3084 3261 2657 
Q 3669 2231 3669 1497 
Q 3669 778 3244 343 
Q 2819 -91 2113 -91 
Q 1303 -91 875 529 
Q 447 1150 447 2328 
Q 447 3434 972 4092 
Q 1497 4750 2381 4750 
Q 2619 4750 2861 4703 
Q 3103 4656 3366 4563 
z
" transform="scale(0.015625)"/>
       </defs>
       <use xlink:href="#DejaVuSans-36"/>
       <use xlink:href="#DejaVuSans-30" x="63.623047"/>
       <use xlink:href="#DejaVuSans-30" x="127.246094"/>
       <use xlink:href="#DejaVuSans-30" x="190.869141"/>
      </g>
     </g>
    </g>
   </g>
   <g id="matplotlib.axis_2">
    <g id="ytick_1">
     <g id="line2d_8">
      <defs>
       <path id="m24e82f0fa8" d="M 0 0 
L -3.5 0 
" style="stroke: #000000; stroke-width: 0.8"/>
      </defs>
      <g>
       <use xlink:href="#m24e82f0fa8" x="121.5" y="230.77438" style="stroke: #000000; stroke-width: 0.8"/>
      </g>
     </g>
     <g id="text_8">
      <!-- −4.0 -->
      <g transform="translate(90.217187 234.573598) scale(0.1 -0.1)">
       <defs>
        <path id="DejaVuSans-2212" d="M 678 2272 
L 4684 2272 
L 4684 1741 
L 678 1741 
L 678 2272 
z
" transform="scale(0.015625)"/>
        <path id="DejaVuSans-2e" d="M 684 794 
L 1344 794 
L 1344 0 
L 684 0 
L 684 794 
z
" transform="scale(0.015625)"/>
       </defs>
       <use xlink:href="#DejaVuSans-2212"/>
       <use xlink:href="#DejaVuSans-34" x="83.789062"/>
       <use xlink:href="#DejaVuSans-2e" x="147.412109"/>
       <use xlink:href="#DejaVuSans-30" x="179.199219"/>
      </g>
     </g>
    </g>
    <g id="ytick_2">
     <g id="line2d_9">
      <g>
       <use xlink:href="#m24e82f0fa8" x="121.5" y="184.194205" style="stroke: #000000; stroke-width: 0.8"/>
      </g>
     </g>
     <g id="text_9">
      <!-- −3.5 -->
      <g transform="translate(90.217187 187.993423) scale(0.1 -0.1)">
       <use xlink:href="#DejaVuSans-2212"/>
       <use xlink:href="#DejaVuSans-33" x="83.789062"/>
       <use xlink:href="#DejaVuSans-2e" x="147.412109"/>
       <use xlink:href="#DejaVuSans-35" x="179.199219"/>
      </g>
     </g>
    </g>
    <g id="ytick_3">
     <g id="line2d_10">
      <g>
       <use xlink:href="#m24e82f0fa8" x="121.5" y="137.61403" style="stroke: #000000; stroke-width: 0.8"/>
      </g>
     </g>
     <g id="text_10">
      <!-- −3.0 -->
      <g transform="translate(90.217187 141.413248) scale(0.1 -0.1)">
       <use xlink:href="#DejaVuSans-2212"/>
       <use xlink:href="#DejaVuSans-33" x="83.789062"/>
       <use xlink:href="#DejaVuSans-2e" x="147.412109"/>
       <use xlink:href="#DejaVuSans-30" x="179.199219"/>
      </g>
     </g>
    </g>
    <g id="ytick_4">
     <g id="line2d_11">
      <g>
       <use xlink:href="#m24e82f0fa8" x="121.5" y="91.033854" style="stroke: #000000; stroke-width: 0.8"/>
      </g>
     </g>
     <g id="text_11">
      <!-- −2.5 -->
      <g transform="translate(90.217187 94.833073) scale(0.1 -0.1)">
       <use xlink:href="#DejaVuSans-2212"/>
       <use xlink:href="#DejaVuSans-32" x="83.789062"/>
       <use xlink:href="#DejaVuSans-2e" x="147.412109"/>
       <use xlink:href="#DejaVuSans-35" x="179.199219"/>
      </g>
     </g>
    </g>
    <g id="ytick_5">
     <g id="line2d_12">
      <g>
       <use xlink:href="#m24e82f0fa8" x="121.5" y="44.453679" style="stroke: #000000; stroke-width: 0.8"/>
      </g>
     </g>
     <g id="text_12">
      <!-- −2.0 -->
      <g transform="translate(90.217187 48.252898) scale(0.1 -0.1)">
       <use xlink:href="#DejaVuSans-2212"/>
       <use xlink:href="#DejaVuSans-32" x="83.789062"/>
       <use xlink:href="#DejaVuSans-2e" x="147.412109"/>
       <use xlink:href="#DejaVuSans-30" x="179.199219"/>
      </g>
     </g>
    </g>
   </g>
   <g id="line2d_13">
    <path d="M 137.06405 44.64 
L 140.498073 57.159165 
L 143.932096 70.518672 
L 147.366119 84.774927 
L 150.800142 99.988124 
L 154.234165 116.222497 
L 157.668189 133.546592 
L 161.102212 152.033556 
L 161.207874 152.621651 
L 161.260705 152.327162 
L 161.577692 150.566404 
L 161.630523 150.858838 
L 166.174 175.542899 
L 166.226831 175.225489 
L 166.279662 175.542582 
L 166.64948 177.451807 
L 166.966467 175.540677 
L 167.019298 175.858085 
L 167.917427 181.302839 
L 167.970258 180.979669 
L 168.657063 177.126746 
L 170.87597 190.470498 
L 171.034463 189.806156 
L 171.35145 191.801177 
L 171.404281 191.467508 
L 171.457112 191.467508 
L 171.721268 192.468178 
L 171.774099 192.133843 
L 171.82693 192.467844 
L 171.879761 192.802178 
L 171.932592 192.467509 
L 174.098669 179.030417 
L 175.57794 188.137903 
L 175.630771 187.807898 
L 177.110043 178.700544 
L 177.321367 179.984739 
L 177.374198 179.662887 
L 177.744016 177.418919 
L 177.796847 177.738205 
L 178.483652 181.594632 
L 178.694977 180.302725 
L 178.747808 180.624894 
L 179.645937 186.151336 
L 179.698768 185.823318 
L 179.80443 185.823318 
L 179.857261 185.495627 
L 179.910092 185.82299 
L 179.962924 186.15068 
L 180.015755 185.822662 
L 180.966715 180.618445 
L 181.336533 179.009239 
L 181.389364 179.009239 
L 181.706351 180.616832 
L 181.812013 179.972187 
L 181.864844 180.294026 
L 182.498818 183.530173 
L 182.551649 183.530173 
L 182.710142 184.507341 
L 182.762973 184.180966 
L 183.238453 181.905466 
L 183.608271 184.178684 
L 183.661102 183.852638 
L 183.766765 183.526919 
L 185.563023 194.438515 
L 185.668685 194.10221 
L 186.038503 196.461062 
L 186.091334 196.122734 
L 188.151748 183.513903 
L 188.204579 183.513903 
L 188.25741 183.188522 
L 188.310241 183.513578 
L 188.838553 186.125423 
L 188.891384 186.125423 
L 189.789513 180.593937 
L 189.842344 180.916398 
L 191.480109 190.409022 
L 191.53294 190.076746 
L 191.585771 190.408689 
L 191.638602 190.740965 
L 191.691433 190.408357 
L 191.902758 189.412527 
L 192.800887 194.75294 
L 193.012212 193.408478 
L 193.065043 193.743754 
L 193.699016 197.114666 
L 193.804678 196.437041 
L 193.85751 196.775345 
L 195.548106 207.43226 
L 195.812261 206.385062 
L 195.917923 207.081914 
L 195.970755 206.732965 
L 197.291533 198.462077 
L 197.397195 199.143076 
L 197.450026 198.802066 
L 197.502857 198.802066 
L 197.872675 196.424524 
L 197.925506 196.762816 
L 198.031168 196.762816 
L 198.136831 197.440414 
L 198.189662 197.101107 
L 198.982129 192.386276 
L 199.351947 194.73308 
L 199.404778 194.39648 
L 199.880258 191.715768 
L 200.567062 195.740852 
L 200.93688 194.055849 
L 201.042543 194.055849 
L 201.095374 193.719926 
L 201.148205 194.055513 
L 202.416152 202.211052 
L 202.468983 201.866974 
L 202.521814 201.866974 
L 202.627476 202.554786 
L 202.680308 202.210364 
L 203.948255 194.38303 
L 204.001086 194.38303 
L 204.370904 196.743853 
L 204.423735 196.405242 
L 205.533188 189.372114 
L 206.431317 195.048454 
L 206.484149 194.711538 
L 206.53698 194.711538 
L 206.695473 195.385032 
L 206.801135 195.04778 
L 206.906798 195.721946 
L 206.959629 195.384357 
L 207.118122 194.373615 
L 207.170953 194.709855 
L 207.223784 194.709855 
L 207.804927 191.025966 
L 207.857758 191.358859 
L 208.333238 193.698114 
L 208.597394 192.023641 
L 208.650225 192.357531 
L 209.918172 200.12985 
L 210.023834 199.446198 
L 210.076665 199.787511 
L 210.657807 203.219472 
L 210.816301 202.185247 
L 210.869132 202.5293 
L 210.921963 202.5293 
L 211.661599 197.738966 
L 211.71443 198.078572 
L 211.767261 198.078572 
L 211.820092 198.418518 
L 211.872923 198.078232 
L 212.137079 196.381902 
L 212.18991 196.720151 
L 212.295572 197.397664 
L 212.348403 197.058399 
L 213.880506 187.695498 
L 214.884298 193.343106 
L 214.937129 193.343106 
L 214.98996 193.007896 
L 215.042791 193.342771 
L 215.782427 198.066334 
L 215.835258 197.726401 
L 215.993751 197.386468 
L 216.733387 201.823323 
L 217.050374 200.45028 
L 217.36736 202.509325 
L 217.420192 202.164949 
L 217.473023 201.820917 
L 217.525854 202.164605 
L 217.737178 203.542797 
L 217.790009 203.197387 
L 218.635307 197.717572 
L 218.688139 198.057156 
L 219.850423 205.267402 
L 219.903254 204.920268 
L 219.956086 205.267055 
L 220.061748 205.267055 
L 220.114579 204.919921 
L 220.16741 205.266708 
L 220.537228 207.354724 
L 220.64289 206.65663 
L 220.695721 207.005154 
L 221.858006 214.761471 
L 221.910837 214.404842 
L 223.390109 204.909518 
L 223.44294 205.256294 
L 223.495771 204.909171 
L 224.235407 200.42803 
L 224.763718 203.866425 
L 224.816549 203.520691 
L 224.975043 202.485564 
L 225.027874 202.829917 
L 225.767509 207.687167 
L 225.820341 207.337613 
L 225.873172 207.337613 
L 226.084496 205.942888 
L 226.137327 206.290698 
L 226.982625 211.549779 
L 227.141119 210.843299 
L 229.201533 224.497248 
L 229.465688 222.669087 
L 229.518519 223.033623 
L 229.993999 225.595603 
L 230.099662 224.861045 
L 230.152493 225.227774 
L 230.310986 225.96233 
L 230.575142 224.493218 
L 230.892129 225.960491 
L 230.94496 225.960491 
L 232.318569 216.515569 
L 232.582725 218.311069 
L 232.635556 217.950891 
L 233.216698 214.368861 
L 233.745009 217.947293 
L 233.79784 217.587479 
L 234.009165 216.151816 
L 234.061996 216.509835 
L 235.277112 224.84381 
L 235.329943 224.477099 
L 236.175241 219.381485 
L 236.228072 219.381485 
L 237.231864 225.571719 
L 237.284695 225.20428 
L 237.337526 225.571351 
L 238.552642 233.364835 
L 238.869629 231.492424 
L 238.975291 231.865784 
L 239.028122 231.492051 
L 239.080953 231.86541 
L 239.133784 231.86541 
L 239.926251 226.298496 
L 239.979082 226.666661 
L 240.560225 230.368627 
L 241.035705 227.401143 
L 241.088536 227.770411 
L 241.141367 227.400774 
L 242.409314 218.639521 
L 242.884794 221.533688 
L 243.730092 216.479016 
L 246.424479 235.219108 
L 246.477311 234.842022 
L 247.322609 228.859672 
L 247.37544 229.230398 
L 247.428271 229.601496 
L 247.481102 229.230027 
L 247.533933 229.230027 
L 247.692426 230.344432 
L 247.745258 229.972221 
L 248.273569 226.639022 
L 248.379231 227.007528 
L 248.537724 225.902011 
L 248.590556 226.26978 
L 248.643387 226.637917 
L 248.696218 226.269412 
L 250.175489 216.099549 
L 250.915125 220.41849 
L 250.967956 220.41849 
L 251.020787 220.780776 
L 251.073619 220.418128 
L 251.337774 218.97116 
L 251.443436 219.693197 
L 251.496268 219.331637 
L 251.549099 219.331637 
L 252.500059 225.521383 
L 252.764215 224.42032 
L 252.869877 224.42032 
L 253.134032 222.592542 
L 253.186864 222.957002 
L 254.243486 229.951398 
L 254.401979 229.57958 
L 254.560473 230.322844 
L 255.458602 224.045982 
L 255.511433 224.411895 
L 256.568056 217.514876 
L 256.937873 219.676565 
L 256.990705 219.315022 
L 257.043536 219.676204 
L 258.311483 228.083812 
L 258.522807 226.975069 
L 258.892625 229.193662 
L 258.945456 228.822601 
L 258.998287 229.19329 
L 259.262443 231.052306 
L 259.315274 230.679387 
L 260.002079 225.865236 
L 260.05491 226.232968 
L 261.00587 232.915389 
L 261.058701 232.540606 
L 261.587013 229.555808 
L 263.224777 240.478851 
L 264.968205 228.431544 
L 266.658801 240.084665 
L 266.870125 238.939955 
L 267.768254 245.078778 
L 267.873916 244.305273 
L 267.926748 244.691445 
L 268.138072 246.24 
L 268.190903 245.851893 
L 268.824877 241.991721 
L 269.036201 242.759438 
L 269.089032 242.759438 
L 269.511681 245.84724 
L 269.564512 245.459526 
L 269.723006 245.071813 
L 269.775837 245.458751 
L 269.828668 245.071426 
L 269.93433 244.297936 
L 269.987161 244.684101 
L 270.039993 244.684101 
L 270.198486 245.844914 
L 270.251317 245.457202 
L 270.726797 242.369432 
L 270.779628 242.753668 
L 270.832459 242.369048 
L 271.466433 237.78349 
L 271.519264 238.16314 
L 271.730589 239.304371 
L 273.421185 227.663602 
L 273.474016 227.663602 
L 274.319314 222.523666 
L 275.05895 227.658428 
L 275.111781 227.288903 
L 276.062741 221.426501 
L 276.115572 221.063207 
L 276.168403 221.426137 
L 276.908039 226.177389 
L 277.119363 225.07436 
L 277.330688 226.544329 
L 277.383519 226.175917 
L 277.964661 222.876749 
L 280.183569 237.754258 
L 280.2364 237.754258 
L 280.289231 238.133879 
L 280.342062 237.753878 
L 280.553387 236.237671 
L 280.606218 236.615776 
L 280.976036 239.273117 
L 281.028867 238.891977 
L 281.240191 237.750841 
L 281.345853 238.510457 
L 281.398685 238.130079 
L 283.617592 222.493058 
L 284.674214 229.47856 
L 284.779877 228.73624 
L 284.832708 229.106843 
L 285.044032 229.84879 
L 285.096863 229.84879 
L 285.149695 230.220506 
L 285.202526 229.848419 
L 285.519512 227.993555 
L 285.572344 228.363416 
L 285.625175 227.993185 
L 285.678006 227.623325 
L 285.730837 227.992815 
L 286.100655 230.21753 
L 286.153486 229.845445 
L 286.206317 230.217157 
L 286.840291 234.706807 
L 286.893122 234.330233 
L 287.844082 228.356011 
L 288.002575 227.246452 
L 288.055406 227.615566 
L 288.266731 229.095714 
L 288.319562 228.724752 
L 288.425224 228.35416 
L 288.953536 232.073076 
L 289.006367 231.699136 
L 289.217691 230.952004 
L 290.644132 240.385188 
L 290.802625 239.239578 
L 290.855456 239.620684 
L 290.908287 240.002172 
L 290.961118 239.620303 
L 292.017741 232.43691 
L 292.070572 232.43691 
L 292.493221 229.82463 
L 292.704545 231.313628 
L 292.757377 230.940447 
L 292.968701 229.823143 
L 293.285688 232.058867 
L 293.338519 231.684941 
L 293.549843 230.565405 
L 293.708337 231.68382 
L 293.761168 231.310269 
L 294.236648 227.965077 
L 294.289479 228.334909 
L 294.447973 229.075683 
L 294.553635 228.334168 
L 294.606466 228.70437 
L 294.923453 230.933364 
L 294.976284 230.560564 
L 295.293271 228.702146 
L 296.1914 234.675929 
L 296.614049 232.421938 
L 296.719711 233.17089 
L 296.772542 232.795852 
L 297.248022 229.809019 
L 297.300853 230.180695 
L 297.353685 229.808647 
L 297.406516 229.808647 
L 297.61784 229.065668 
L 297.723502 229.807904 
L 297.776334 229.436229 
L 298.727294 223.539726 
L 298.780125 223.174319 
L 298.832956 223.539361 
L 299.625423 229.058991 
L 299.678254 228.688065 
L 301.210357 218.091067 
L 301.633006 220.256223 
L 301.84433 218.809901 
L 301.897161 219.170578 
L 302.002824 219.893014 
L 302.055655 219.531254 
L 302.425473 217.009043 
L 302.478304 217.367919 
L 303.323602 222.43003 
L 303.482095 221.7018 
L 304.591549 228.671761 
L 304.697211 228.301222 
L 305.067029 230.155397 
L 305.11986 230.155397 
L 305.278353 230.899813 
L 305.59534 228.668796 
L 305.648171 229.039332 
L 305.701002 229.410239 
L 305.753833 229.038961 
L 306.123651 226.819082 
L 307.02178 233.137138 
L 307.074612 232.762134 
L 307.233105 231.63937 
L 307.285936 232.012877 
L 307.338767 232.012877 
L 307.497261 231.265491 
L 307.602923 232.012129 
L 307.655754 231.63825 
L 307.708585 231.63825 
L 307.814247 230.891613 
L 307.867078 231.264371 
L 307.91991 231.264371 
L 308.078403 230.518482 
L 308.236896 231.636756 
L 308.289727 231.263252 
L 308.501052 230.14498 
L 308.553883 230.516992 
L 308.606714 230.144608 
L 308.659545 230.144608 
L 308.765208 230.51662 
L 308.923701 229.400586 
L 308.976532 229.771853 
L 309.029363 229.771853 
L 309.452012 232.755391 
L 309.504843 232.380768 
L 309.610506 231.632647 
L 309.663337 232.006147 
L 310.244479 236.139376 
L 310.29731 235.76137 
L 310.931284 231.25467 
L 310.984115 231.627792 
L 311.353933 233.499004 
L 312.516218 225.327086 
L 312.727542 226.42977 
L 313.09736 224.591966 
L 313.150191 224.591966 
L 313.57284 226.795855 
L 313.678502 226.795855 
L 313.731333 227.164518 
L 313.784165 226.795486 
L 314.101151 224.955857 
L 314.153982 225.32268 
L 314.206814 224.95549 
L 314.946449 220.577387 
L 315.210605 222.029341 
L 315.369098 220.938743 
L 315.421929 221.301549 
L 316.478552 228.264207 
L 316.742708 226.417248 
L 316.795539 226.785533 
L 316.84837 227.154185 
L 316.901201 226.785164 
L 317.059694 226.048228 
L 317.112525 226.416144 
L 317.165357 226.04786 
L 317.640837 223.114822 
L 317.79933 224.210863 
L 317.852161 223.844785 
L 318.063486 223.113727 
L 318.116317 223.113727 
L 318.591797 225.675903 
L 319.489926 220.200822 
L 319.912575 222.742913 
L 320.018237 222.014058 
L 320.071068 222.377939 
L 321.286184 230.476032 
L 321.339016 230.103689 
L 321.391847 230.47566 
L 321.55034 231.593805 
L 321.603171 231.220344 
L 321.656002 231.220344 
L 321.972989 233.089516 
L 323.188105 224.559719 
L 323.452261 226.39552 
L 323.505092 226.027258 
L 324.614545 218.738854 
L 324.667376 218.738854 
L 325.142857 215.506353 
L 325.195688 215.863727 
L 325.671168 218.375006 
L 325.723999 218.375006 
L 325.77683 218.735248 
L 325.829661 218.374646 
L 326.093817 217.295002 
L 326.146648 217.295002 
L 326.569297 219.816691 
L 326.674959 219.093685 
L 326.72779 219.454646 
L 327.837244 227.118761 
L 327.890075 226.749775 
L 327.942906 226.749775 
L 328.048568 226.01291 
L 328.1014 226.38079 
L 328.154231 226.38079 
L 328.312724 225.644663 
L 328.418386 226.380054 
L 328.471217 226.011807 
L 328.524049 226.011807 
L 329.210853 221.984948 
L 329.422178 223.442541 
L 329.475009 223.077231 
L 329.897658 220.167875 
L 329.950489 220.52991 
L 330.161813 221.981674 
L 330.214645 221.617825 
L 330.267476 221.25434 
L 330.320307 221.617462 
L 332.433552 236.06605 
L 332.592045 235.310562 
L 332.644876 235.68774 
L 332.697707 235.310185 
L 333.014694 233.052772 
L 333.067525 233.427692 
L 333.120356 233.427692 
L 334.018486 239.477653 
L 334.071317 239.096309 
L 334.124148 239.477272 
L 334.282641 240.622449 
L 334.335472 240.23996 
L 335.127939 234.548303 
L 335.18077 234.924718 
L 335.286433 235.678678 
L 335.339264 235.301133 
L 335.392095 234.923965 
L 335.444926 235.300756 
L 335.656251 236.05509 
L 335.867575 234.545668 
L 335.920406 234.922081 
L 336.026068 235.676036 
L 336.0789 235.298493 
L 336.131731 235.298493 
L 336.501549 237.567151 
L 336.924198 235.295852 
L 336.977029 235.673015 
L 337.02986 235.295475 
L 338.403469 225.978699 
L 338.4563 226.346545 
L 338.509131 225.978331 
L 339.037443 223.045847 
L 339.195936 224.141681 
L 339.248767 223.775672 
L 339.301598 223.775672 
L 341.045025 235.659424 
L 341.995986 229.663722 
L 342.048817 229.292191 
L 342.101648 229.66335 
L 343.105439 236.786321 
L 343.15827 236.407667 
L 343.63375 233.016781 
L 343.686582 233.391665 
L 343.739413 233.766924 
L 343.792244 233.39129 
L 344.743204 227.431609 
L 344.796035 227.431609 
L 344.954529 228.540613 
L 345.00736 228.170206 
L 345.588502 224.852794 
L 345.641333 225.219514 
L 345.694164 224.852427 
L 345.746996 224.485708 
L 345.799827 224.852061 
L 346.116813 226.320771 
L 346.750787 222.655052 
L 346.803618 222.655052 
L 346.962111 221.562579 
L 347.014943 221.926009 
L 347.173436 223.01848 
L 347.226267 222.653594 
L 347.279098 222.653594 
L 347.38476 221.924918 
L 347.437592 222.28871 
L 347.701747 224.113133 
L 347.754578 223.747153 
L 347.965903 222.286889 
L 348.018734 222.651043 
L 348.230058 223.745691 
L 348.335721 223.380078 
L 350.131979 235.250596 
L 350.237641 234.496737 
L 350.290472 234.873101 
L 350.343303 235.249841 
L 350.396135 234.872725 
L 350.448966 234.872725 
L 351.399926 228.889887 
L 351.61125 230.375141 
L 351.664082 230.002899 
L 351.875406 228.517649 
L 351.928237 228.888033 
L 352.403717 231.491118 
L 352.456548 231.117759 
L 352.50938 231.490744 
L 352.667873 231.863728 
L 353.143353 229.255448 
L 353.93582 234.108718 
L 354.88678 228.137644 
L 355.890572 221.170469 
L 357.739661 233.719597 
L 358.373635 229.608739 
L 358.584959 230.35169 
L 358.63779 230.35169 
L 358.796284 229.23615 
L 358.849115 229.607254 
L 359.958568 237.107744 
L 361.068022 229.228357 
L 361.279346 230.714967 
L 361.332178 230.342385 
L 361.649164 228.855408 
L 361.754827 229.226131 
L 362.652956 222.967764 
L 362.705787 223.332599 
L 362.969942 224.79559 
L 363.286929 222.96594 
L 364.290721 229.217596 
L 364.343552 228.846511 
L 364.396383 229.217225 
L 365.717161 237.846707 
L 366.826615 230.324147 
L 368.728535 243.960189 
L 368.781366 243.574362 
L 369.256846 240.501602 
L 369.626664 242.417272 
L 369.89082 240.882439 
L 370.049313 241.648321 
L 370.3663 240.116559 
L 370.471962 240.116559 
L 370.736118 238.590915 
L 370.947442 239.35183 
L 371.000274 239.35183 
L 371.264429 238.208937 
L 371.31726 238.208937 
L 371.687078 240.877463 
L 371.739909 240.494719 
L 374.11731 223.66161 
L 374.59279 226.964557 
L 374.645621 226.595725 
L 375.173932 223.292794 
L 375.596581 225.488871 
L 375.702244 224.754526 
L 375.755075 225.121148 
L 375.807906 225.121148 
L 375.860737 225.488136 
L 375.913568 225.120781 
L 376.283386 223.289143 
L 377.075853 228.804993 
L 377.128684 228.434321 
L 377.181515 228.06402 
L 377.234346 228.433951 
L 377.287177 228.433951 
L 377.445671 227.324159 
L 377.498502 227.69335 
L 378.660787 235.15482 
L 378.81928 234.401153 
L 378.924942 234.777421 
L 379.29476 232.523197 
L 379.453254 233.647491 
L 379.506085 233.271977 
L 379.875903 231.026762 
L 380.668369 235.903196 
L 380.826863 235.903196 
L 380.879694 236.280966 
L 380.932525 235.902818 
L 381.830654 230.275765 
L 382.041979 231.766571 
L 382.09481 231.392937 
L 382.253303 230.274277 
L 382.306134 230.646418 
L 382.464628 231.765076 
L 382.517459 231.391444 
L 382.623121 231.391444 
L 382.781615 230.6453 
L 383.415588 234.763486 
L 384.525042 227.302008 
L 385.159015 231.383233 
L 385.898651 226.191559 
L 385.951482 226.559618 
L 386.849611 232.873228 
L 386.902442 232.498488 
L 388.276052 223.250804 
L 389.755323 232.863485 
L 390.125141 230.248228 
L 390.177972 230.620343 
L 390.230803 230.620343 
L 391.49875 239.282455 
L 391.868568 237.380515 
L 392.396879 241.190102 
L 392.44971 240.807045 
L 394.827111 223.960186 
L 395.144098 225.792984 
L 396.095058 219.954338 
L 396.940356 214.921633 
L 398.789446 226.885635 
L 399.423419 222.48486 
L 399.47625 222.849212 
L 399.793237 225.042988 
L 399.846068 224.676078 
L 400.110224 222.847024 
L 400.163055 223.211738 
L 400.215886 223.576817 
L 400.268717 223.211373 
L 400.797028 220.300585 
L 403.649909 239.621257 
L 404.17822 236.201564 
L 404.231051 236.579632 
L 404.283883 236.201186 
L 404.759363 233.562259 
L 405.340505 237.712692 
L 405.393336 237.333112 
L 405.815985 234.310107 
L 405.868816 234.686284 
L 406.080141 236.194758 
L 406.132972 235.816697 
L 407.665075 225.015837 
L 408.140555 228.331022 
L 408.193386 227.960824 
L 408.774528 224.645289 
L 408.827359 224.645289 
L 408.933022 223.912631 
L 408.985853 224.278411 
L 409.091515 224.644556 
L 409.514164 221.722705 
L 409.566995 222.086295 
L 409.619826 222.450249 
L 409.672657 222.085931 
L 409.725489 222.085931 
L 409.77832 221.721978 
L 409.831151 222.085567 
L 410.306631 225.374274 
L 410.359462 225.007032 
L 410.465124 224.273651 
L 410.517955 224.639792 
L 410.676449 225.740412 
L 410.72928 225.372805 
L 411.046267 223.174867 
L 411.099098 223.539909 
L 411.310422 224.637226 
L 411.416085 223.904584 
L 411.468916 224.270356 
L 413.423667 238.064155 
L 413.476498 237.684224 
L 413.52933 237.684224 
L 413.846316 235.412602 
L 413.899147 235.789882 
L 414.163303 237.302777 
L 414.321796 236.544817 
L 414.533121 237.681188 
L 414.850108 235.787238 
L 415.167094 237.299744 
L 415.853899 233.149701 
L 415.90673 233.149701 
L 416.85769 227.194226 
L 417.808651 221.332964 
L 419.604909 209.185763 
L 419.65774 209.536816 
L 419.710571 209.185412 
L 420.13322 206.386803 
L 420.186051 206.735057 
L 423.355919 228.280308 
L 423.40875 227.910161 
L 423.461581 227.540383 
L 423.514412 227.909791 
L 424.042724 230.878007 
L 425.574826 220.58083 
L 425.627657 220.58083 
L 425.786151 220.218383 
L 425.891813 220.580468 
L 426.631449 215.539054 
L 426.68428 215.89646 
L 427.688071 222.026976 
L 427.899396 220.573582 
L 427.952227 220.936022 
L 428.480538 224.580422 
L 428.533369 224.213975 
L 428.5862 223.847894 
L 428.639031 224.213609 
L 428.744694 224.579689 
L 428.956018 223.1161 
L 429.008849 223.481083 
L 430.540952 233.850136 
L 430.593783 233.474419 
L 430.646614 233.84976 
L 431.439081 238.763492 
L 433.499495 224.197502 
L 433.974975 227.136288 
L 434.873104 221.27631 
L 434.925935 221.639453 
L 434.978767 221.275946 
L 435.348584 218.741559 
L 435.401416 219.102168 
L 435.454247 219.463137 
L 435.507078 219.101807 
L 435.559909 218.740838 
L 435.61274 219.101446 
L 436.035389 221.999321 
L 436.08822 221.635454 
L 436.775025 217.6565 
L 436.880687 217.6565 
L 438.835439 230.828435 
L 440.631697 218.72425 
L 440.843021 220.16878 
L 440.895853 219.806744 
L 441.107177 218.362218 
L 441.160008 218.722447 
L 442.586449 228.585991 
L 442.63928 228.215538 
L 442.692111 227.845455 
L 442.744942 228.215168 
L 443.009098 230.069283 
L 443.061929 229.697347 
L 444.012889 223.796332 
L 444.911018 218.34961 
L 445.492161 221.96803 
L 445.91481 219.790108 
L 447.869561 233.415119 
L 447.922392 233.039837 
L 448.028055 233.039837 
L 448.345041 230.796012 
L 448.345041 230.796012 
" clip-path="url(#pe20e182428)" style="fill: none; stroke: #1f77b4; stroke-width: 1.5; stroke-linecap: square"/>
   </g>
   <g id="patch_3">
    <path d="M 121.5 256.32 
L 121.5 34.56 
" style="fill: none; stroke: #000000; stroke-width: 0.8; stroke-linejoin: miter; stroke-linecap: square"/>
   </g>
   <g id="patch_4">
    <path d="M 463.909091 256.32 
L 463.909091 34.56 
" style="fill: none; stroke: #000000; stroke-width: 0.8; stroke-linejoin: miter; stroke-linecap: square"/>
   </g>
   <g id="patch_5">
    <path d="M 121.5 256.32 
L 463.909091 256.32 
" style="fill: none; stroke: #000000; stroke-width: 0.8; stroke-linejoin: miter; stroke-linecap: square"/>
   </g>
   <g id="patch_6">
    <path d="M 121.5 34.56 
L 463.909091 34.56 
" style="fill: none; stroke: #000000; stroke-width: 0.8; stroke-linejoin: miter; stroke-linecap: square"/>
   </g>
  </g>
  <g id="axes_2">
   <g id="patch_7">
    <path d="M 532.390909 256.32 
L 874.8 256.32 
L 874.8 34.56 
L 532.390909 34.56 
z
" style="fill: #ffffff"/>
   </g>
   <g id="matplotlib.axis_3">
    <g id="xtick_8">
     <g id="line2d_14">
      <g>
       <use xlink:href="#m90f0ac12ba" x="547.954959" y="256.32" style="stroke: #000000; stroke-width: 0.8"/>
      </g>
     </g>
     <g id="text_13">
      <!-- 0 -->
      <g transform="translate(544.773709 270.918437) scale(0.1 -0.1)">
       <use xlink:href="#DejaVuSans-30"/>
      </g>
     </g>
    </g>
    <g id="xtick_9">
     <g id="line2d_15">
      <g>
       <use xlink:href="#m90f0ac12ba" x="600.786084" y="256.32" style="stroke: #000000; stroke-width: 0.8"/>
      </g>
     </g>
     <g id="text_14">
      <!-- 1000 -->
      <g transform="translate(588.061084 270.918437) scale(0.1 -0.1)">
       <use xlink:href="#DejaVuSans-31"/>
       <use xlink:href="#DejaVuSans-30" x="63.623047"/>
       <use xlink:href="#DejaVuSans-30" x="127.246094"/>
       <use xlink:href="#DejaVuSans-30" x="190.869141"/>
      </g>
     </g>
    </g>
    <g id="xtick_10">
     <g id="line2d_16">
      <g>
       <use xlink:href="#m90f0ac12ba" x="653.61721" y="256.32" style="stroke: #000000; stroke-width: 0.8"/>
      </g>
     </g>
     <g id="text_15">
      <!-- 2000 -->
      <g transform="translate(640.89221 270.918437) scale(0.1 -0.1)">
       <use xlink:href="#DejaVuSans-32"/>
       <use xlink:href="#DejaVuSans-30" x="63.623047"/>
       <use xlink:href="#DejaVuSans-30" x="127.246094"/>
       <use xlink:href="#DejaVuSans-30" x="190.869141"/>
      </g>
     </g>
    </g>
    <g id="xtick_11">
     <g id="line2d_17">
      <g>
       <use xlink:href="#m90f0ac12ba" x="706.448335" y="256.32" style="stroke: #000000; stroke-width: 0.8"/>
      </g>
     </g>
     <g id="text_16">
      <!-- 3000 -->
      <g transform="translate(693.723335 270.918437) scale(0.1 -0.1)">
       <use xlink:href="#DejaVuSans-33"/>
       <use xlink:href="#DejaVuSans-30" x="63.623047"/>
       <use xlink:href="#DejaVuSans-30" x="127.246094"/>
       <use xlink:href="#DejaVuSans-30" x="190.869141"/>
      </g>
     </g>
    </g>
    <g id="xtick_12">
     <g id="line2d_18">
      <g>
       <use xlink:href="#m90f0ac12ba" x="759.279461" y="256.32" style="stroke: #000000; stroke-width: 0.8"/>
      </g>
     </g>
     <g id="text_17">
      <!-- 4000 -->
      <g transform="translate(746.554461 270.918437) scale(0.1 -0.1)">
       <use xlink:href="#DejaVuSans-34"/>
       <use xlink:href="#DejaVuSans-30" x="63.623047"/>
       <use xlink:href="#DejaVuSans-30" x="127.246094"/>
       <use xlink:href="#DejaVuSans-30" x="190.869141"/>
      </g>
     </g>
    </g>
    <g id="xtick_13">
     <g id="line2d_19">
      <g>
       <use xlink:href="#m90f0ac12ba" x="812.110586" y="256.32" style="stroke: #000000; stroke-width: 0.8"/>
      </g>
     </g>
     <g id="text_18">
      <!-- 5000 -->
      <g transform="translate(799.385586 270.918437) scale(0.1 -0.1)">
       <use xlink:href="#DejaVuSans-35"/>
       <use xlink:href="#DejaVuSans-30" x="63.623047"/>
       <use xlink:href="#DejaVuSans-30" x="127.246094"/>
       <use xlink:href="#DejaVuSans-30" x="190.869141"/>
      </g>
     </g>
    </g>
    <g id="xtick_14">
     <g id="line2d_20">
      <g>
       <use xlink:href="#m90f0ac12ba" x="864.941712" y="256.32" style="stroke: #000000; stroke-width: 0.8"/>
      </g>
     </g>
     <g id="text_19">
      <!-- 6000 -->
      <g transform="translate(852.216712 270.918437) scale(0.1 -0.1)">
       <use xlink:href="#DejaVuSans-36"/>
       <use xlink:href="#DejaVuSans-30" x="63.623047"/>
       <use xlink:href="#DejaVuSans-30" x="127.246094"/>
       <use xlink:href="#DejaVuSans-30" x="190.869141"/>
      </g>
     </g>
    </g>
   </g>
   <g id="matplotlib.axis_4">
    <g id="ytick_6">
     <g id="line2d_21">
      <g>
       <use xlink:href="#m24e82f0fa8" x="532.390909" y="217.559617" style="stroke: #000000; stroke-width: 0.8"/>
      </g>
     </g>
     <g id="text_20">
      <!-- −4.0 -->
      <g transform="translate(501.108097 221.358836) scale(0.1 -0.1)">
       <use xlink:href="#DejaVuSans-2212"/>
       <use xlink:href="#DejaVuSans-34" x="83.789062"/>
       <use xlink:href="#DejaVuSans-2e" x="147.412109"/>
       <use xlink:href="#DejaVuSans-30" x="179.199219"/>
      </g>
     </g>
    </g>
    <g id="ytick_7">
     <g id="line2d_22">
      <g>
       <use xlink:href="#m24e82f0fa8" x="532.390909" y="174.286439" style="stroke: #000000; stroke-width: 0.8"/>
      </g>
     </g>
     <g id="text_21">
      <!-- −3.5 -->
      <g transform="translate(501.108097 178.085658) scale(0.1 -0.1)">
       <use xlink:href="#DejaVuSans-2212"/>
       <use xlink:href="#DejaVuSans-33" x="83.789062"/>
       <use xlink:href="#DejaVuSans-2e" x="147.412109"/>
       <use xlink:href="#DejaVuSans-35" x="179.199219"/>
      </g>
     </g>
    </g>
    <g id="ytick_8">
     <g id="line2d_23">
      <g>
       <use xlink:href="#m24e82f0fa8" x="532.390909" y="131.013262" style="stroke: #000000; stroke-width: 0.8"/>
      </g>
     </g>
     <g id="text_22">
      <!-- −3.0 -->
      <g transform="translate(501.108097 134.812481) scale(0.1 -0.1)">
       <use xlink:href="#DejaVuSans-2212"/>
       <use xlink:href="#DejaVuSans-33" x="83.789062"/>
       <use xlink:href="#DejaVuSans-2e" x="147.412109"/>
       <use xlink:href="#DejaVuSans-30" x="179.199219"/>
      </g>
     </g>
    </g>
    <g id="ytick_9">
     <g id="line2d_24">
      <g>
       <use xlink:href="#m24e82f0fa8" x="532.390909" y="87.740085" style="stroke: #000000; stroke-width: 0.8"/>
      </g>
     </g>
     <g id="text_23">
      <!-- −2.5 -->
      <g transform="translate(501.108097 91.539303) scale(0.1 -0.1)">
       <use xlink:href="#DejaVuSans-2212"/>
       <use xlink:href="#DejaVuSans-32" x="83.789062"/>
       <use xlink:href="#DejaVuSans-2e" x="147.412109"/>
       <use xlink:href="#DejaVuSans-35" x="179.199219"/>
      </g>
     </g>
    </g>
    <g id="ytick_10">
     <g id="line2d_25">
      <g>
       <use xlink:href="#m24e82f0fa8" x="532.390909" y="44.466907" style="stroke: #000000; stroke-width: 0.8"/>
      </g>
     </g>
     <g id="text_24">
      <!-- −2.0 -->
      <g transform="translate(501.108097 48.266126) scale(0.1 -0.1)">
       <use xlink:href="#DejaVuSans-2212"/>
       <use xlink:href="#DejaVuSans-32" x="83.789062"/>
       <use xlink:href="#DejaVuSans-2e" x="147.412109"/>
       <use xlink:href="#DejaVuSans-30" x="179.199219"/>
      </g>
     </g>
    </g>
   </g>
   <g id="line2d_26">
    <path d="M 547.954959 44.64 
L 551.441813 56.455253 
L 554.875836 68.878702 
L 558.309859 82.136066 
L 561.743882 96.283323 
L 565.177906 111.380205 
L 568.611929 127.490456 
L 572.045952 144.682097 
L 575.479975 163.027716 
L 576.589429 168.916535 
L 576.64226 168.618993 
L 576.695091 168.916237 
L 580.340439 188.88824 
L 580.657425 186.987913 
L 580.710257 187.303526 
L 580.86875 188.252262 
L 580.921581 187.935384 
L 581.34423 185.411741 
L 581.397061 185.725778 
L 581.608386 186.985072 
L 581.661217 186.669461 
L 581.766879 186.039186 
L 581.81971 186.353851 
L 581.872541 186.353851 
L 582.083866 185.409857 
L 582.77067 188.881255 
L 582.981995 188.246242 
L 584.989578 200.184027 
L 586.680174 190.142351 
L 587.049992 192.059748 
L 587.314147 191.098653 
L 588.529263 198.533775 
L 588.582094 198.206616 
L 589.004743 195.601089 
L 589.057574 195.925316 
L 589.216068 196.899944 
L 589.268899 196.574418 
L 589.32173 196.574418 
L 589.480223 197.550994 
L 589.533054 197.224818 
L 589.744379 195.923369 
L 589.79721 196.247918 
L 591.434975 206.136778 
L 591.6463 204.799735 
L 591.699131 205.13316 
L 591.751962 205.13316 
L 591.857624 205.801012 
L 591.910455 205.466585 
L 592.491598 202.471422 
L 592.544429 202.471422 
L 592.702922 203.133947 
L 593.019909 201.148359 
L 593.07274 201.478133 
L 593.653882 205.127486 
L 593.706713 204.793733 
L 593.865207 203.794474 
L 593.918038 204.126895 
L 594.393518 207.133676 
L 594.446349 206.797916 
L 595.344478 201.801298 
L 595.714296 203.456741 
L 595.925621 202.130402 
L 595.978452 202.461158 
L 596.295439 204.452653 
L 596.34827 204.119574 
L 597.669048 195.900002 
L 598.72567 202.121802 
L 598.884164 201.130551 
L 598.936995 201.460308 
L 599.095488 202.451556 
L 599.148319 202.120479 
L 599.253982 201.459317 
L 599.306813 201.789402 
L 599.570968 202.781308 
L 600.204942 199.481783 
L 600.257773 199.80989 
L 600.310604 199.481454 
L 600.469097 199.153019 
L 601.314395 204.104268 
L 601.420058 203.439141 
L 601.472889 203.771206 
L 601.52572 204.103603 
L 601.578551 203.770873 
L 601.631382 203.438477 
L 601.684213 203.770541 
L 602.740836 210.482004 
L 602.793667 210.142896 
L 602.899329 209.804127 
L 603.004991 210.481325 
L 603.057823 210.142218 
L 603.955952 205.096115 
L 604.008783 205.096115 
L 604.114445 204.429005 
L 604.167276 204.76206 
L 605.27673 211.833662 
L 605.329561 211.493202 
L 605.646548 209.457583 
L 605.699379 209.795666 
L 605.805041 210.472848 
L 605.857872 210.133749 
L 606.439015 206.761357 
L 606.544677 207.432467 
L 606.597508 207.096409 
L 607.389975 202.757779 
L 608.235273 207.42709 
L 608.288104 207.42709 
L 608.816415 204.414684 
L 609.820207 210.121554 
L 609.925869 209.444398 
L 609.9787 209.782468 
L 610.084362 210.459623 
L 610.137193 210.120538 
L 610.242856 209.443384 
L 610.295687 209.781453 
L 610.665505 211.476537 
L 610.982491 210.118167 
L 611.035323 210.118167 
L 611.193816 211.135415 
L 611.246647 210.795654 
L 611.880621 207.416337 
L 613.042905 214.544239 
L 613.148568 214.201069 
L 613.676879 217.644806 
L 613.72971 217.298536 
L 613.888203 216.607033 
L 614.20519 218.336653 
L 615.15615 212.144132 
L 615.737293 215.567207 
L 616.001448 213.84968 
L 616.05428 214.192156 
L 616.107111 214.192156 
L 617.058071 208.073605 
L 617.163733 208.747341 
L 617.216564 208.409967 
L 617.850538 204.387709 
L 617.903369 204.720722 
L 618.114693 205.721762 
L 618.43168 204.386376 
L 618.801498 206.389451 
L 619.065654 205.385076 
L 619.963783 211.108915 
L 620.016614 210.76918 
L 621.178899 203.38037 
L 623.080819 215.544147 
L 623.13365 215.199977 
L 623.556299 213.141831 
L 623.60913 213.483598 
L 623.661962 213.141489 
L 623.820455 212.117212 
L 623.873286 212.457955 
L 623.978948 213.140464 
L 624.031779 212.798698 
L 624.718584 209.061412 
L 624.771415 209.061412 
L 625.563882 214.162332 
L 625.616713 213.819544 
L 625.669544 213.477098 
L 625.722375 213.819201 
L 626.514842 218.991989 
L 626.567673 218.644372 
L 627.36014 213.814065 
L 627.412972 214.156505 
L 627.465803 213.813722 
L 627.888452 211.083775 
L 627.941283 211.423485 
L 628.73375 216.560084 
L 628.786581 216.214899 
L 630.318683 206.688586 
L 630.424346 207.35955 
L 630.477177 207.023565 
L 630.530008 207.023565 
L 630.582839 206.687915 
L 630.63567 207.023229 
L 631.639462 213.458283 
L 631.692293 213.116199 
L 631.956448 211.410903 
L 632.009279 211.75094 
L 633.118733 218.970785 
L 633.171564 218.623189 
L 633.224395 218.27594 
L 633.277226 218.622842 
L 633.9112 222.81282 
L 633.964031 222.461382 
L 634.122524 221.409173 
L 634.175356 221.759208 
L 634.650836 224.925316 
L 634.703667 224.571765 
L 634.756498 224.571765 
L 634.914991 224.218215 
L 635.971614 231.342539 
L 636.024445 230.982571 
L 636.71125 227.046598 
L 636.922574 228.114683 
L 636.975405 227.757942 
L 637.028236 228.114326 
L 637.081067 228.471066 
L 637.133899 228.113969 
L 637.926365 222.800169 
L 637.979197 223.151595 
L 638.243352 224.914003 
L 638.296183 224.560463 
L 638.401846 223.854444 
L 638.454677 224.206924 
L 638.718832 225.620373 
L 638.771663 225.266127 
L 638.824495 225.620019 
L 639.458468 229.536265 
L 639.616962 228.820299 
L 639.722624 229.535549 
L 639.775455 229.177388 
L 639.828286 229.177388 
L 639.881117 229.535191 
L 639.933948 229.17703 
L 641.254726 220.338481 
L 641.360389 221.036759 
L 641.41322 220.687096 
L 641.466051 220.687096 
L 642.047193 224.548808 
L 642.100024 224.195634 
L 642.258518 223.138227 
L 642.311349 223.489991 
L 642.469842 224.194575 
L 643.103816 220.682206 
L 643.156647 220.682206 
L 643.367971 221.381171 
L 643.737789 219.634285 
L 644.107607 222.079431 
L 644.160438 221.728726 
L 644.213269 221.378371 
L 644.266101 221.728375 
L 644.318932 222.07873 
L 644.371763 221.728025 
L 644.477425 221.027668 
L 644.530256 221.377321 
L 646.432177 233.475528 
L 646.537839 233.113426 
L 646.960488 235.65321 
L 648.386928 225.94448 
L 648.862408 228.79099 
L 649.285057 225.941643 
L 649.337889 226.296211 
L 649.654875 227.717673 
L 650.605836 221.357722 
L 651.451134 226.999653 
L 651.503965 226.644027 
L 652.983236 217.175409 
L 653.353054 218.907529 
L 653.458716 218.212809 
L 653.511548 218.559648 
L 653.564379 218.559648 
L 653.670041 217.865624 
L 653.722872 218.212116 
L 654.039859 220.298353 
L 654.09269 219.949429 
L 654.251183 218.904748 
L 654.304014 219.252279 
L 654.621001 220.645531 
L 654.673832 220.645531 
L 655.360637 224.859915 
L 655.624793 223.096018 
L 655.677624 223.44774 
L 656.047442 225.211632 
L 656.311597 223.44598 
L 656.364428 223.798051 
L 656.681415 225.917888 
L 656.734246 225.563344 
L 656.839908 224.85532 
L 656.89274 225.208801 
L 658.107855 233.075446 
L 658.266349 232.352405 
L 658.31918 232.713383 
L 658.372011 232.352044 
L 658.530504 231.630449 
L 659.322971 237.072284 
L 659.375802 236.706586 
L 659.904114 233.069659 
L 659.956945 233.431354 
L 660.273932 234.881757 
L 660.326763 234.881757 
L 660.432425 235.609135 
L 660.485256 235.2449 
L 660.538087 234.88103 
L 660.590918 235.244536 
L 660.643749 235.244536 
L 661.224892 231.261916 
L 661.277723 231.621803 
L 661.330554 231.621803 
L 661.753203 234.513891 
L 661.806034 234.150752 
L 662.07019 232.701821 
L 663.073981 239.629184 
L 663.126812 239.260929 
L 664.024942 233.056638 
L 664.077773 233.41832 
L 664.130604 233.780364 
L 664.183435 233.417958 
L 665.134395 227.668145 
L 665.451382 225.535719 
L 665.504213 225.88988 
L 665.609875 226.599266 
L 665.662706 226.244041 
L 666.085355 223.767392 
L 666.930653 229.448168 
L 666.983485 229.090094 
L 667.141978 228.018019 
L 667.194809 228.374663 
L 667.670289 230.880816 
L 667.828783 230.880816 
L 668.515587 226.235169 
L 668.568418 226.59003 
L 669.625041 233.762245 
L 669.677872 233.399856 
L 669.942028 231.953925 
L 670.100521 232.675445 
L 670.840157 228.006607 
L 670.892988 228.363239 
L 670.945819 228.00625 
L 671.262806 225.8718 
L 671.315637 226.226298 
L 671.791117 229.07507 
L 672.002441 227.646412 
L 672.055273 228.002684 
L 672.583584 230.865717 
L 672.636415 230.865717 
L 674.115686 240.330272 
L 674.27418 239.22451 
L 674.327011 239.59236 
L 674.379842 239.59236 
L 674.485504 239.960578 
L 676.387425 226.921068 
L 676.493087 227.632517 
L 676.545918 227.276259 
L 676.598749 227.276259 
L 676.915736 229.059332 
L 677.07423 228.344319 
L 677.496879 230.491143 
L 677.54971 230.491143 
L 677.655372 230.132026 
L 678.817657 237.741758 
L 678.97615 237.00939 
L 679.187475 237.740659 
L 679.345968 236.642659 
L 679.398799 237.007927 
L 679.504461 237.373561 
L 680.191266 233.005644 
L 681.30072 240.307397 
L 681.406382 239.938464 
L 681.881862 243.268842 
L 681.934693 242.896947 
L 682.463004 239.566586 
L 682.568667 240.303339 
L 682.621498 239.93441 
L 682.779991 238.829834 
L 682.832822 239.19729 
L 683.149809 240.670422 
L 683.625289 238.09309 
L 683.942276 239.930356 
L 683.995107 239.561799 
L 684.047938 239.929987 
L 684.62908 244.004432 
L 684.681912 243.631802 
L 684.734743 243.259544 
L 684.787574 243.63143 
L 684.840405 243.63143 
L 684.893236 244.003687 
L 684.946067 243.631057 
L 685.791365 238.452835 
L 685.897027 238.819913 
L 686.161183 236.986355 
L 686.214014 237.351968 
L 686.266845 237.351968 
L 686.425339 238.450999 
L 686.47817 238.083922 
L 687.42913 232.260006 
L 687.481961 231.899121 
L 687.534792 232.259646 
L 687.587624 232.259646 
L 688.010273 235.156854 
L 688.063104 234.793071 
L 688.327259 232.979608 
L 688.38009 233.341213 
L 688.538584 234.4282 
L 688.591415 234.065146 
L 688.644246 233.702455 
L 688.697077 234.064784 
L 688.855571 235.153944 
L 688.908402 234.790164 
L 689.436713 231.892631 
L 689.489544 231.892631 
L 689.965024 228.660914 
L 690.017855 229.0182 
L 690.440504 231.889387 
L 690.493335 231.528871 
L 691.021647 227.943488 
L 691.074478 228.300058 
L 691.232971 229.014266 
L 691.285802 228.656626 
L 691.338633 229.013909 
L 691.497127 230.087901 
L 691.549958 229.729187 
L 692.183931 225.4525 
L 692.236763 225.806579 
L 693.451878 233.686513 
L 693.663203 232.962251 
L 694.085852 235.500973 
L 694.614163 232.597773 
L 694.666994 232.597773 
L 695.353799 237.321959 
L 695.40663 236.956011 
L 695.617955 235.495876 
L 695.670786 235.859997 
L 695.723617 235.859997 
L 695.829279 236.589333 
L 695.88211 236.224118 
L 696.199097 234.766906 
L 696.251928 234.766906 
L 696.304759 235.130299 
L 696.35759 234.766543 
L 696.568915 234.039759 
L 697.097226 237.682778 
L 697.150057 237.316469 
L 697.995355 231.865593 
L 698.312342 234.033956 
L 698.365173 233.671297 
L 698.523666 232.585492 
L 698.576498 232.946703 
L 698.999147 235.485316 
L 699.950107 229.70267 
L 701.059561 222.603776 
L 701.165223 222.603776 
L 703.38413 236.930055 
L 703.753948 234.378828 
L 703.806779 234.741833 
L 703.85961 234.741833 
L 703.912441 235.105201 
L 703.965272 234.74147 
L 704.916233 228.970637 
L 704.969064 228.970637 
L 705.286051 230.762199 
L 705.497375 229.326802 
L 705.550206 229.684754 
L 705.603037 230.043065 
L 705.655868 229.684396 
L 705.814362 228.968134 
L 705.972855 230.041989 
L 706.025686 229.683321 
L 706.395504 227.538834 
L 706.553998 228.251519 
L 706.606829 227.894642 
L 706.65966 228.251162 
L 707.240802 231.475572 
L 707.346464 231.115471 
L 707.452127 231.835313 
L 707.504958 231.474852 
L 708.772905 223.283008 
L 708.931398 223.634565 
L 709.03706 223.282304 
L 709.565372 226.817263 
L 709.618203 226.46182 
L 709.671034 226.106733 
L 709.723865 226.461465 
L 710.833319 233.993341 
L 710.88615 233.630721 
L 711.203137 231.462609 
L 711.255968 231.822697 
L 711.308799 231.822697 
L 711.36163 231.462249 
L 711.414461 231.822337 
L 712.048435 235.443082 
L 713.580537 225.031574 
L 715.11264 235.432524 
L 715.165471 235.068466 
L 716.169262 228.220115 
L 716.274925 228.934164 
L 716.327756 228.576604 
L 716.961729 225.020258 
L 717.01456 225.020258 
L 718.652325 235.42051 
L 719.074974 233.241324 
L 719.180637 233.241324 
L 720.131597 227.494316 
L 720.554246 225.362576 
L 720.818401 226.780655 
L 720.871233 226.425248 
L 720.924064 226.780299 
L 721.875024 232.509645 
L 722.403335 229.272397 
L 723.776945 237.961462 
L 723.829776 237.594874 
L 723.882607 237.961095 
L 723.935438 237.961095 
L 724.0411 237.594508 
L 724.146762 238.327315 
L 724.199594 237.960362 
L 724.780736 234.67389 
L 724.833567 234.67389 
L 724.939229 233.947653 
L 724.99206 234.310227 
L 725.044892 234.673163 
L 725.097723 234.309864 
L 725.150554 233.946928 
L 725.203385 234.309501 
L 725.467541 235.399032 
L 725.626034 234.308049 
L 725.678865 234.670983 
L 726.576994 240.896685 
L 726.629825 240.527162 
L 727.422292 235.39248 
L 728.161928 239.784436 
L 728.690239 236.847084 
L 729.060057 239.04541 
L 729.112888 238.677739 
L 729.165719 239.045043 
L 729.21855 239.412714 
L 729.271382 239.044675 
L 729.482706 237.576198 
L 729.535537 237.9424 
L 729.958186 240.88523 
L 730.011017 240.515719 
L 730.275173 238.673699 
L 730.328004 239.040998 
L 730.433666 239.7767 
L 730.486497 239.408297 
L 731.437458 233.563348 
L 731.860107 231.395639 
L 732.177093 233.19935 
L 732.229925 232.837525 
L 732.282756 233.198988 
L 732.49408 233.922999 
L 732.599742 233.922999 
L 733.075223 230.673081 
L 733.128054 231.03238 
L 733.180885 231.03238 
L 733.550703 229.237682 
L 733.603534 229.237682 
L 734.026183 231.750254 
L 734.290338 230.669848 
L 734.34317 231.029143 
L 734.396001 230.669488 
L 734.501663 230.310193 
L 734.607325 231.028424 
L 734.660156 230.66877 
L 735.135636 227.804453 
L 735.188468 228.160884 
L 735.241299 227.804097 
L 736.033766 223.197856 
L 737.090388 229.584441 
L 737.460206 227.440546 
L 738.56966 234.629933 
L 739.203633 230.294759 
L 739.256464 230.65368 
L 739.52062 232.453674 
L 739.573451 232.092594 
L 739.626282 232.092594 
L 739.837607 233.537633 
L 739.890438 233.17547 
L 740.048931 232.452229 
L 740.154593 232.813307 
L 740.841398 228.499814 
L 741.211216 231.007205 
L 741.264047 230.647572 
L 741.950852 226.715266 
L 742.690487 231.362518 
L 743.641448 225.645349 
L 743.74711 225.645349 
L 744.22259 222.469632 
L 744.275421 222.820728 
L 746.388666 236.790805 
L 747.445289 229.551487 
L 747.49812 229.909665 
L 747.550951 229.551129 
L 747.920769 227.0514 
L 747.9736 227.407077 
L 748.766067 232.424066 
L 749.717027 226.690038 
L 750.351001 222.44962 
L 750.403832 222.800696 
L 751.143468 227.396752 
L 752.358583 219.29768 
L 752.411415 219.645603 
L 752.464246 219.297332 
L 752.728401 218.254259 
L 753.732193 224.904634 
L 753.785024 224.551104 
L 753.837855 224.551104 
L 754.841646 230.603384 
L 754.894477 230.603384 
L 755.317126 227.739589 
L 755.369958 228.095954 
L 756.532242 235.662499 
L 756.585073 235.298211 
L 756.637905 235.662135 
L 757.430371 240.795449 
L 758.275669 235.292752 
L 758.486994 236.020589 
L 758.539825 236.020589 
L 759.649279 228.439107 
L 760.336083 232.386158 
L 760.494577 231.664495 
L 761.339875 237.472577 
L 761.392706 237.106479 
L 761.709693 234.917564 
L 761.762524 235.281107 
L 761.973848 236.73892 
L 762.026679 236.373555 
L 762.079511 236.373555 
L 762.185173 237.103919 
L 762.238004 236.738189 
L 762.607822 234.188301 
L 762.660653 234.551115 
L 762.871977 235.641736 
L 763.241795 233.0995 
L 763.294626 233.461225 
L 764.192756 239.298271 
L 764.245587 238.930347 
L 764.298418 239.297903 
L 765.090885 244.855559 
L 765.143716 244.482078 
L 766.094676 238.556549 
L 767.838103 226.631415 
L 768.789063 232.358 
L 769.845686 225.206501 
L 770.373997 228.047087 
L 770.849477 224.849841 
L 770.902308 225.203317 
L 770.95514 225.203317 
L 772.962722 238.900576 
L 773.015554 238.53305 
L 773.279709 237.066616 
L 773.33254 237.432309 
L 773.385371 237.06625 
L 773.543865 236.335232 
L 773.702358 237.43121 
L 773.755189 237.065153 
L 774.653318 231.257777 
L 775.498616 237.059302 
L 775.551448 236.693617 
L 775.65711 235.963344 
L 775.709941 236.327933 
L 775.921265 237.789939 
L 775.974097 237.423523 
L 776.185421 235.961521 
L 776.238252 236.326108 
L 777.030719 241.468779 
L 777.189212 240.359605 
L 777.242044 240.72859 
L 777.506199 242.579059 
L 777.55903 242.207855 
L 778.03451 239.251548 
L 778.879808 244.435442 
L 779.830769 238.510654 
L 780.517573 234.129167 
L 780.676067 235.21852 
L 780.728898 234.854676 
L 780.781729 234.854676 
L 780.993053 233.402934 
L 781.045885 233.764962 
L 781.204378 234.853222 
L 781.257209 234.489743 
L 782.208169 228.008925 
L 782.419494 229.437605 
L 782.472325 229.079542 
L 783.211961 224.810254 
L 783.264792 224.810254 
L 785.06105 236.296913 
L 785.166712 235.567433 
L 785.219544 235.931626 
L 785.272375 236.296183 
L 785.325206 235.931261 
L 785.906348 231.941124 
L 785.959179 232.301691 
L 786.223335 233.747568 
L 786.487491 232.661173 
L 786.540322 232.661173 
L 787.279957 237.020176 
L 787.438451 236.28925 
L 787.755438 237.750735 
L 787.808269 237.750735 
L 788.495073 242.542312 
L 788.547904 242.171144 
L 788.759229 241.059865 
L 788.917722 241.429181 
L 789.023385 240.689441 
L 789.076216 241.058756 
L 789.28754 241.798124 
L 789.815851 238.477613 
L 790.080007 240.316805 
L 790.132838 239.947862 
L 790.185669 239.579289 
L 790.2385 239.947494 
L 790.291332 239.947494 
L 790.449825 238.842879 
L 790.502656 239.210348 
L 790.555487 239.210348 
L 790.661149 239.946388 
L 790.713981 239.577816 
L 792.457408 227.619514 
L 792.56307 227.975759 
L 792.880057 226.551136 
L 792.932888 226.906313 
L 792.985719 226.550781 
L 793.03855 226.195604 
L 793.091381 226.550426 
L 794.729146 236.995679 
L 794.781977 236.995679 
L 794.993302 235.535385 
L 795.046133 235.899546 
L 796.208418 243.259358 
L 796.261249 242.887473 
L 796.31408 243.258986 
L 796.419742 243.630871 
L 796.578236 242.515218 
L 796.631067 242.886359 
L 796.683898 242.886359 
L 797.212209 245.868505 
L 797.74052 242.883015 
L 798.268832 246.24 
L 798.797143 242.508166 
L 798.849974 242.8793 
L 798.902805 243.250805 
L 798.955636 242.878928 
L 800.06509 235.154853 
L 800.276414 236.61216 
L 800.329245 236.246922 
L 801.385868 229.018379 
L 801.438699 229.376023 
L 801.49153 229.018022 
L 801.650024 227.946163 
L 801.702855 228.302735 
L 802.178335 230.808383 
L 803.023633 225.808528 
L 803.129295 226.517751 
L 803.182126 226.162608 
L 803.446282 224.39221 
L 803.499113 224.745228 
L 804.238749 229.724708 
L 804.29158 229.366357 
L 804.450073 228.650731 
L 805.453865 235.500427 
L 805.506696 235.136301 
L 805.876514 233.320762 
L 806.246331 235.133755 
L 806.351994 234.769995 
L 806.66898 236.590612 
L 807.514279 231.510324 
L 807.56711 231.510324 
L 807.672772 232.230956 
L 807.725603 231.870099 
L 807.989759 230.071221 
L 808.04259 230.429918 
L 808.095421 230.788974 
L 808.148252 230.429559 
L 808.570901 227.923699 
L 809.046381 230.426687 
L 809.099212 230.426687 
L 809.152043 230.785739 
L 809.204875 230.426328 
L 809.257706 230.067276 
L 809.310537 230.425969 
L 809.46903 231.144431 
L 810.41999 225.430725 
L 810.631315 224.369617 
L 810.684146 224.722613 
L 810.736977 224.369264 
L 810.895471 223.663627 
L 810.948302 224.015917 
L 811.001133 223.663275 
L 811.635106 219.45898 
L 811.687937 219.807065 
L 813.008716 228.26633 
L 813.167209 227.909081 
L 814.171 234.018543 
L 814.435156 232.208945 
L 814.487987 232.569779 
L 814.540818 232.930975 
L 814.593649 232.569418 
L 815.54461 226.833081 
L 815.650272 227.544354 
L 815.703103 227.188184 
L 815.755934 227.188184 
L 815.861596 227.900168 
L 815.914427 227.543642 
L 815.967259 227.187472 
L 816.02009 227.543286 
L 816.178583 228.612862 
L 816.231414 228.255623 
L 816.389908 227.542217 
L 819.137126 245.419568 
L 819.559775 243.180899 
L 819.612606 243.180899 
L 819.929593 245.043654 
L 820.616398 240.214991 
L 820.669229 240.583832 
L 820.880553 242.062887 
L 820.933384 241.692198 
L 821.144709 240.951933 
L 821.250371 241.691458 
L 821.303202 241.32114 
L 822.1485 235.446176 
L 822.201331 235.810248 
L 822.888136 240.576447 
L 822.940967 240.207245 
L 823.839096 234.71331 
L 824.208914 237.264326 
L 824.261745 236.898436 
L 824.684394 233.984457 
L 824.737225 234.347067 
L 825.212706 237.261033 
L 825.846679 233.256342 
L 826.903302 239.825516 
L 827.854262 233.973941 
L 828.541066 229.288324 
L 828.593898 229.646238 
L 829.386364 234.69478 
L 829.756182 232.881445 
L 830.442987 237.60934 
L 830.495818 237.243105 
L 830.865636 235.053373 
L 831.763765 240.916085 
L 832.186414 237.970077 
L 832.239245 238.336672 
L 832.609063 240.174789 
L 832.661894 240.174789 
L 833.454361 244.998069 
L 833.929841 242.390164 
L 834.088335 243.504325 
L 834.141166 243.132195 
L 836.148749 229.621876 
L 836.624229 232.859032 
L 836.67706 232.497547 
L 836.994047 230.695538 
L 837.839345 236.488 
L 837.892176 236.122886 
L 838.895967 229.254681 
L 839.05446 230.329397 
L 839.107292 229.970442 
L 839.529941 227.823879 
L 839.794096 229.251818 
L 839.846927 228.893941 
L 839.899758 229.25146 
L 840.058252 230.326166 
L 840.111083 229.967214 
L 840.163914 229.967214 
L 841.748848 240.513319 
L 843.809262 226.387082 
L 844.17908 228.522492 
L 844.284742 228.165344 
L 845.341364 234.642465 
L 845.394196 234.642465 
L 845.552689 235.73336 
L 845.60552 235.369001 
L 846.028169 232.467214 
L 846.081 232.828307 
L 846.450818 234.639196 
L 846.503649 234.639196 
L 847.084792 238.288237 
L 847.877258 232.822886 
L 847.93009 233.184334 
L 847.982921 233.184334 
L 848.986712 239.384192 
L 849.250868 237.914358 
L 849.303699 238.280898 
L 849.35653 237.913992 
L 849.620686 236.45003 
L 849.726348 237.180547 
L 849.779179 236.814741 
L 850.730139 231.010981 
L 851.469775 226.363652 
L 852.896215 235.709678 
L 853.318864 233.528761 
L 853.371695 233.528761 
L 853.424527 233.890915 
L 853.477358 233.528398 
L 853.794344 232.081953 
L 853.847176 232.081953 
L 855.326447 241.578158 
L 855.379278 241.207954 
L 855.432109 241.577788 
L 855.48494 241.577788 
L 856.435901 235.334423 
L 856.594394 236.427396 
L 856.647225 236.062343 
L 857.386861 230.989763 
L 857.439692 231.349379 
L 857.545354 232.069689 
L 857.598186 231.708994 
L 857.703848 230.988684 
L 857.756679 231.348299 
L 858.971795 239.35144 
L 859.23595 237.51523 
L 859.23595 237.51523 
" clip-path="url(#p009ace844c)" style="fill: none; stroke: #1f77b4; stroke-width: 1.5; stroke-linecap: square"/>
   </g>
   <g id="patch_8">
    <path d="M 532.390909 256.32 
L 532.390909 34.56 
" style="fill: none; stroke: #000000; stroke-width: 0.8; stroke-linejoin: miter; stroke-linecap: square"/>
   </g>
   <g id="patch_9">
    <path d="M 874.8 256.32 
L 874.8 34.56 
" style="fill: none; stroke: #000000; stroke-width: 0.8; stroke-linejoin: miter; stroke-linecap: square"/>
   </g>
   <g id="patch_10">
    <path d="M 532.390909 256.32 
L 874.8 256.32 
" style="fill: none; stroke: #000000; stroke-width: 0.8; stroke-linejoin: miter; stroke-linecap: square"/>
   </g>
   <g id="patch_11">
    <path d="M 532.390909 34.56 
L 874.8 34.56 
" style="fill: none; stroke: #000000; stroke-width: 0.8; stroke-linejoin: miter; stroke-linecap: square"/>
   </g>
  </g>
 </g>
 <defs>
  <clipPath id="pe20e182428">
   <rect x="121.5" y="34.56" width="342.409091" height="221.76"/>
  </clipPath>
  <clipPath id="p009ace844c">
   <rect x="532.390909" y="34.56" width="342.409091" height="221.76"/>
  </clipPath>
 </defs>
</svg>
