<?xml version="1.0" encoding="utf-8" standalone="no"?>
<!DOCTYPE svg PUBLIC "-//W3C//DTD SVG 1.1//EN"
  "http://www.w3.org/Graphics/SVG/1.1/DTD/svg11.dtd">
<svg xmlns:xlink="http://www.w3.org/1999/xlink" width="972pt" height="288pt" viewBox="0 0 972 288" xmlns="http://www.w3.org/2000/svg" version="1.1">
 <metadata>
  <rdf:RDF xmlns:dc="http://purl.org/dc/elements/1.1/" xmlns:cc="http://creativecommons.org/ns#" xmlns:rdf="http://www.w3.org/1999/02/22-rdf-syntax-ns#">
   <cc:Work>
    <dc:type rdf:resource="http://purl.org/dc/dcmitype/StillImage"/>
    <dc:date>2024-10-30T22:10:18.330501</dc:date>
    <dc:format>image/svg+xml</dc:format>
    <dc:creator>
     <cc:Agent>
      <dc:title>Matplotlib v3.7.2, https://matplotlib.org/</dc:title>
     </cc:Agent>
    </dc:creator>
   </cc:Work>
  </rdf:RDF>
 </metadata>
 <defs>
  <style type="text/css">*{stroke-linejoin: round; stroke-linecap: butt}</style>
 </defs>
 <g id="figure_1">
  <g id="patch_1">
   <path d="M 0 288 
L 972 288 
L 972 0 
L 0 0 
z
" style="fill: #ffffff"/>
  </g>
  <g id="axes_1">
   <g id="patch_2">
    <path d="M 121.5 256.32 
L 463.909091 256.32 
L 463.909091 34.56 
L 121.5 34.56 
z
" style="fill: #ffffff"/>
   </g>
   <g id="matplotlib.axis_1">
    <g id="xtick_1">
     <g id="line2d_1">
      <defs>
       <path id="m89e0159fb1" d="M 0 0 
L 0 3.5 
" style="stroke: #000000; stroke-width: 0.8"/>
      </defs>
      <g>
       <use xlink:href="#m89e0159fb1" x="137.06405" y="256.32" style="stroke: #000000; stroke-width: 0.8"/>
      </g>
     </g>
     <g id="text_1">
      <!-- 0 -->
      <g transform="translate(133.8828 270.918437) scale(0.1 -0.1)">
       <defs>
        <path id="DejaVuSans-30" d="M 2034 4250 
Q 1547 4250 1301 3770 
Q 1056 3291 1056 2328 
Q 1056 1369 1301 889 
Q 1547 409 2034 409 
Q 2525 409 2770 889 
Q 3016 1369 3016 2328 
Q 3016 3291 2770 3770 
Q 2525 4250 2034 4250 
z
M 2034 4750 
Q 2819 4750 3233 4129 
Q 3647 3509 3647 2328 
Q 3647 1150 3233 529 
Q 2819 -91 2034 -91 
Q 1250 -91 836 529 
Q 422 1150 422 2328 
Q 422 3509 836 4129 
Q 1250 4750 2034 4750 
z
" transform="scale(0.015625)"/>
       </defs>
       <use xlink:href="#DejaVuSans-30"/>
      </g>
     </g>
    </g>
    <g id="xtick_2">
     <g id="line2d_2">
      <g>
       <use xlink:href="#m89e0159fb1" x="188.102087" y="256.32" style="stroke: #000000; stroke-width: 0.8"/>
      </g>
     </g>
     <g id="text_2">
      <!-- 1000 -->
      <g transform="translate(175.377087 270.918437) scale(0.1 -0.1)">
       <defs>
        <path id="DejaVuSans-31" d="M 794 531 
L 1825 531 
L 1825 4091 
L 703 3866 
L 703 4441 
L 1819 4666 
L 2450 4666 
L 2450 531 
L 3481 531 
L 3481 0 
L 794 0 
L 794 531 
z
" transform="scale(0.015625)"/>
       </defs>
       <use xlink:href="#DejaVuSans-31"/>
       <use xlink:href="#DejaVuSans-30" x="63.623047"/>
       <use xlink:href="#DejaVuSans-30" x="127.246094"/>
       <use xlink:href="#DejaVuSans-30" x="190.869141"/>
      </g>
     </g>
    </g>
    <g id="xtick_3">
     <g id="line2d_3">
      <g>
       <use xlink:href="#m89e0159fb1" x="239.140125" y="256.32" style="stroke: #000000; stroke-width: 0.8"/>
      </g>
     </g>
     <g id="text_3">
      <!-- 2000 -->
      <g transform="translate(226.415125 270.918437) scale(0.1 -0.1)">
       <defs>
        <path id="DejaVuSans-32" d="M 1228 531 
L 3431 531 
L 3431 0 
L 469 0 
L 469 531 
Q 828 903 1448 1529 
Q 2069 2156 2228 2338 
Q 2531 2678 2651 2914 
Q 2772 3150 2772 3378 
Q 2772 3750 2511 3984 
Q 2250 4219 1831 4219 
Q 1534 4219 1204 4116 
Q 875 4013 500 3803 
L 500 4441 
Q 881 4594 1212 4672 
Q 1544 4750 1819 4750 
Q 2544 4750 2975 4387 
Q 3406 4025 3406 3419 
Q 3406 3131 3298 2873 
Q 3191 2616 2906 2266 
Q 2828 2175 2409 1742 
Q 1991 1309 1228 531 
z
" transform="scale(0.015625)"/>
       </defs>
       <use xlink:href="#DejaVuSans-32"/>
       <use xlink:href="#DejaVuSans-30" x="63.623047"/>
       <use xlink:href="#DejaVuSans-30" x="127.246094"/>
       <use xlink:href="#DejaVuSans-30" x="190.869141"/>
      </g>
     </g>
    </g>
    <g id="xtick_4">
     <g id="line2d_4">
      <g>
       <use xlink:href="#m89e0159fb1" x="290.178163" y="256.32" style="stroke: #000000; stroke-width: 0.8"/>
      </g>
     </g>
     <g id="text_4">
      <!-- 3000 -->
      <g transform="translate(277.453163 270.918437) scale(0.1 -0.1)">
       <defs>
        <path id="DejaVuSans-33" d="M 2597 2516 
Q 3050 2419 3304 2112 
Q 3559 1806 3559 1356 
Q 3559 666 3084 287 
Q 2609 -91 1734 -91 
Q 1441 -91 1130 -33 
Q 819 25 488 141 
L 488 750 
Q 750 597 1062 519 
Q 1375 441 1716 441 
Q 2309 441 2620 675 
Q 2931 909 2931 1356 
Q 2931 1769 2642 2001 
Q 2353 2234 1838 2234 
L 1294 2234 
L 1294 2753 
L 1863 2753 
Q 2328 2753 2575 2939 
Q 2822 3125 2822 3475 
Q 2822 3834 2567 4026 
Q 2313 4219 1838 4219 
Q 1578 4219 1281 4162 
Q 984 4106 628 3988 
L 628 4550 
Q 988 4650 1302 4700 
Q 1616 4750 1894 4750 
Q 2613 4750 3031 4423 
Q 3450 4097 3450 3541 
Q 3450 3153 3228 2886 
Q 3006 2619 2597 2516 
z
" transform="scale(0.015625)"/>
       </defs>
       <use xlink:href="#DejaVuSans-33"/>
       <use xlink:href="#DejaVuSans-30" x="63.623047"/>
       <use xlink:href="#DejaVuSans-30" x="127.246094"/>
       <use xlink:href="#DejaVuSans-30" x="190.869141"/>
      </g>
     </g>
    </g>
    <g id="xtick_5">
     <g id="line2d_5">
      <g>
       <use xlink:href="#m89e0159fb1" x="341.2162" y="256.32" style="stroke: #000000; stroke-width: 0.8"/>
      </g>
     </g>
     <g id="text_5">
      <!-- 4000 -->
      <g transform="translate(328.4912 270.918437) scale(0.1 -0.1)">
       <defs>
        <path id="DejaVuSans-34" d="M 2419 4116 
L 825 1625 
L 2419 1625 
L 2419 4116 
z
M 2253 4666 
L 3047 4666 
L 3047 1625 
L 3713 1625 
L 3713 1100 
L 3047 1100 
L 3047 0 
L 2419 0 
L 2419 1100 
L 313 1100 
L 313 1709 
L 2253 4666 
z
" transform="scale(0.015625)"/>
       </defs>
       <use xlink:href="#DejaVuSans-34"/>
       <use xlink:href="#DejaVuSans-30" x="63.623047"/>
       <use xlink:href="#DejaVuSans-30" x="127.246094"/>
       <use xlink:href="#DejaVuSans-30" x="190.869141"/>
      </g>
     </g>
    </g>
    <g id="xtick_6">
     <g id="line2d_6">
      <g>
       <use xlink:href="#m89e0159fb1" x="392.254238" y="256.32" style="stroke: #000000; stroke-width: 0.8"/>
      </g>
     </g>
     <g id="text_6">
      <!-- 5000 -->
      <g transform="translate(379.529238 270.918437) scale(0.1 -0.1)">
       <defs>
        <path id="DejaVuSans-35" d="M 691 4666 
L 3169 4666 
L 3169 4134 
L 1269 4134 
L 1269 2991 
Q 1406 3038 1543 3061 
Q 1681 3084 1819 3084 
Q 2600 3084 3056 2656 
Q 3513 2228 3513 1497 
Q 3513 744 3044 326 
Q 2575 -91 1722 -91 
Q 1428 -91 1123 -41 
Q 819 9 494 109 
L 494 744 
Q 775 591 1075 516 
Q 1375 441 1709 441 
Q 2250 441 2565 725 
Q 2881 1009 2881 1497 
Q 2881 1984 2565 2268 
Q 2250 2553 1709 2553 
Q 1456 2553 1204 2497 
Q 953 2441 691 2322 
L 691 4666 
z
" transform="scale(0.015625)"/>
       </defs>
       <use xlink:href="#DejaVuSans-35"/>
       <use xlink:href="#DejaVuSans-30" x="63.623047"/>
       <use xlink:href="#DejaVuSans-30" x="127.246094"/>
       <use xlink:href="#DejaVuSans-30" x="190.869141"/>
      </g>
     </g>
    </g>
    <g id="xtick_7">
     <g id="line2d_7">
      <g>
       <use xlink:href="#m89e0159fb1" x="443.292276" y="256.32" style="stroke: #000000; stroke-width: 0.8"/>
      </g>
     </g>
     <g id="text_7">
      <!-- 6000 -->
      <g transform="translate(430.567276 270.918437) scale(0.1 -0.1)">
       <defs>
        <path id="DejaVuSans-36" d="M 2113 2584 
Q 1688 2584 1439 2293 
Q 1191 2003 1191 1497 
Q 1191 994 1439 701 
Q 1688 409 2113 409 
Q 2538 409 2786 701 
Q 3034 994 3034 1497 
Q 3034 2003 2786 2293 
Q 2538 2584 2113 2584 
z
M 3366 4563 
L 3366 3988 
Q 3128 4100 2886 4159 
Q 2644 4219 2406 4219 
Q 1781 4219 1451 3797 
Q 1122 3375 1075 2522 
Q 1259 2794 1537 2939 
Q 1816 3084 2150 3084 
Q 2853 3084 3261 2657 
Q 3669 2231 3669 1497 
Q 3669 778 3244 343 
Q 2819 -91 2113 -91 
Q 1303 -91 875 529 
Q 447 1150 447 2328 
Q 447 3434 972 4092 
Q 1497 4750 2381 4750 
Q 2619 4750 2861 4703 
Q 3103 4656 3366 4563 
z
" transform="scale(0.015625)"/>
       </defs>
       <use xlink:href="#DejaVuSans-36"/>
       <use xlink:href="#DejaVuSans-30" x="63.623047"/>
       <use xlink:href="#DejaVuSans-30" x="127.246094"/>
       <use xlink:href="#DejaVuSans-30" x="190.869141"/>
      </g>
     </g>
    </g>
   </g>
   <g id="matplotlib.axis_2">
    <g id="ytick_1">
     <g id="line2d_8">
      <defs>
       <path id="macae0b75ca" d="M 0 0 
L -3.5 0 
" style="stroke: #000000; stroke-width: 0.8"/>
      </defs>
      <g>
       <use xlink:href="#macae0b75ca" x="121.5" y="246.192332" style="stroke: #000000; stroke-width: 0.8"/>
      </g>
     </g>
     <g id="text_8">
      <!-- −6.0 -->
      <g transform="translate(90.217187 249.991551) scale(0.1 -0.1)">
       <defs>
        <path id="DejaVuSans-2212" d="M 678 2272 
L 4684 2272 
L 4684 1741 
L 678 1741 
L 678 2272 
z
" transform="scale(0.015625)"/>
        <path id="DejaVuSans-2e" d="M 684 794 
L 1344 794 
L 1344 0 
L 684 0 
L 684 794 
z
" transform="scale(0.015625)"/>
       </defs>
       <use xlink:href="#DejaVuSans-2212"/>
       <use xlink:href="#DejaVuSans-36" x="83.789062"/>
       <use xlink:href="#DejaVuSans-2e" x="147.412109"/>
       <use xlink:href="#DejaVuSans-30" x="179.199219"/>
      </g>
     </g>
    </g>
    <g id="ytick_2">
     <g id="line2d_9">
      <g>
       <use xlink:href="#macae0b75ca" x="121.5" y="220.985687" style="stroke: #000000; stroke-width: 0.8"/>
      </g>
     </g>
     <g id="text_9">
      <!-- −5.5 -->
      <g transform="translate(90.217187 224.784906) scale(0.1 -0.1)">
       <use xlink:href="#DejaVuSans-2212"/>
       <use xlink:href="#DejaVuSans-35" x="83.789062"/>
       <use xlink:href="#DejaVuSans-2e" x="147.412109"/>
       <use xlink:href="#DejaVuSans-35" x="179.199219"/>
      </g>
     </g>
    </g>
    <g id="ytick_3">
     <g id="line2d_10">
      <g>
       <use xlink:href="#macae0b75ca" x="121.5" y="195.779043" style="stroke: #000000; stroke-width: 0.8"/>
      </g>
     </g>
     <g id="text_10">
      <!-- −5.0 -->
      <g transform="translate(90.217187 199.578261) scale(0.1 -0.1)">
       <use xlink:href="#DejaVuSans-2212"/>
       <use xlink:href="#DejaVuSans-35" x="83.789062"/>
       <use xlink:href="#DejaVuSans-2e" x="147.412109"/>
       <use xlink:href="#DejaVuSans-30" x="179.199219"/>
      </g>
     </g>
    </g>
    <g id="ytick_4">
     <g id="line2d_11">
      <g>
       <use xlink:href="#macae0b75ca" x="121.5" y="170.572398" style="stroke: #000000; stroke-width: 0.8"/>
      </g>
     </g>
     <g id="text_11">
      <!-- −4.5 -->
      <g transform="translate(90.217187 174.371616) scale(0.1 -0.1)">
       <use xlink:href="#DejaVuSans-2212"/>
       <use xlink:href="#DejaVuSans-34" x="83.789062"/>
       <use xlink:href="#DejaVuSans-2e" x="147.412109"/>
       <use xlink:href="#DejaVuSans-35" x="179.199219"/>
      </g>
     </g>
    </g>
    <g id="ytick_5">
     <g id="line2d_12">
      <g>
       <use xlink:href="#macae0b75ca" x="121.5" y="145.365753" style="stroke: #000000; stroke-width: 0.8"/>
      </g>
     </g>
     <g id="text_12">
      <!-- −4.0 -->
      <g transform="translate(90.217187 149.164972) scale(0.1 -0.1)">
       <use xlink:href="#DejaVuSans-2212"/>
       <use xlink:href="#DejaVuSans-34" x="83.789062"/>
       <use xlink:href="#DejaVuSans-2e" x="147.412109"/>
       <use xlink:href="#DejaVuSans-30" x="179.199219"/>
      </g>
     </g>
    </g>
    <g id="ytick_6">
     <g id="line2d_13">
      <g>
       <use xlink:href="#macae0b75ca" x="121.5" y="120.159108" style="stroke: #000000; stroke-width: 0.8"/>
      </g>
     </g>
     <g id="text_13">
      <!-- −3.5 -->
      <g transform="translate(90.217187 123.958327) scale(0.1 -0.1)">
       <use xlink:href="#DejaVuSans-2212"/>
       <use xlink:href="#DejaVuSans-33" x="83.789062"/>
       <use xlink:href="#DejaVuSans-2e" x="147.412109"/>
       <use xlink:href="#DejaVuSans-35" x="179.199219"/>
      </g>
     </g>
    </g>
    <g id="ytick_7">
     <g id="line2d_14">
      <g>
       <use xlink:href="#macae0b75ca" x="121.5" y="94.952463" style="stroke: #000000; stroke-width: 0.8"/>
      </g>
     </g>
     <g id="text_14">
      <!-- −3.0 -->
      <g transform="translate(90.217187 98.751682) scale(0.1 -0.1)">
       <use xlink:href="#DejaVuSans-2212"/>
       <use xlink:href="#DejaVuSans-33" x="83.789062"/>
       <use xlink:href="#DejaVuSans-2e" x="147.412109"/>
       <use xlink:href="#DejaVuSans-30" x="179.199219"/>
      </g>
     </g>
    </g>
    <g id="ytick_8">
     <g id="line2d_15">
      <g>
       <use xlink:href="#macae0b75ca" x="121.5" y="69.745818" style="stroke: #000000; stroke-width: 0.8"/>
      </g>
     </g>
     <g id="text_15">
      <!-- −2.5 -->
      <g transform="translate(90.217187 73.545037) scale(0.1 -0.1)">
       <use xlink:href="#DejaVuSans-2212"/>
       <use xlink:href="#DejaVuSans-32" x="83.789062"/>
       <use xlink:href="#DejaVuSans-2e" x="147.412109"/>
       <use xlink:href="#DejaVuSans-35" x="179.199219"/>
      </g>
     </g>
    </g>
    <g id="ytick_9">
     <g id="line2d_16">
      <g>
       <use xlink:href="#macae0b75ca" x="121.5" y="44.539173" style="stroke: #000000; stroke-width: 0.8"/>
      </g>
     </g>
     <g id="text_16">
      <!-- −2.0 -->
      <g transform="translate(90.217187 48.338392) scale(0.1 -0.1)">
       <use xlink:href="#DejaVuSans-2212"/>
       <use xlink:href="#DejaVuSans-32" x="83.789062"/>
       <use xlink:href="#DejaVuSans-2e" x="147.412109"/>
       <use xlink:href="#DejaVuSans-30" x="179.199219"/>
      </g>
     </g>
    </g>
   </g>
   <g id="line2d_17">
    <path d="M 137.06405 44.64 
L 140.585674 51.846143 
L 144.107299 59.5668 
L 147.577885 67.714703 
L 151.048472 76.43564 
L 154.519058 85.769911 
L 157.938607 95.608756 
L 161.358156 106.129036 
L 164.777704 117.377947 
L 168.197253 129.405954 
L 171.565763 142.06866 
L 174.934274 155.594856 
L 178.302784 170.043423 
L 181.671295 185.47726 
L 184.427349 198.884591 
L 184.529425 198.629419 
L 184.580463 198.374502 
L 184.631501 198.629164 
L 186.570946 208.232849 
L 186.97925 206.649427 
L 187.795859 210.354566 
L 187.846897 210.354566 
L 188.510392 213.302337 
L 189.224924 209.552516 
L 189.275962 209.818355 
L 189.480114 210.350566 
L 189.990495 207.696153 
L 190.041533 207.960137 
L 190.092571 208.224385 
L 190.143609 207.959873 
L 190.194647 207.695626 
L 190.245685 207.959609 
L 190.398799 208.223591 
L 190.449837 208.223591 
L 190.705027 207.430588 
L 190.756065 207.430588 
L 190.960217 206.640225 
L 192.695511 215.185634 
L 192.848625 214.372029 
L 192.899663 214.642689 
L 193.052777 215.456292 
L 193.103815 215.184549 
L 193.818347 211.408547 
L 193.869386 211.676243 
L 194.379766 214.36797 
L 194.430804 214.097314 
L 195.961945 206.364952 
L 196.012983 206.364952 
L 197.544124 213.819096 
L 197.697238 213.009587 
L 197.748276 213.278884 
L 198.105543 214.629143 
L 198.922151 210.593718 
L 199.126303 211.12748 
L 199.381494 209.793077 
L 199.432532 210.059157 
L 199.73876 211.661237 
L 199.789798 211.393288 
L 199.891874 210.858195 
L 199.942912 211.12534 
L 201.423015 218.440133 
L 201.474053 218.440133 
L 202.494814 213.536847 
L 202.545852 213.536847 
L 202.85208 212.190422 
L 202.903118 212.4589 
L 202.954156 212.190153 
L 203.005194 211.921676 
L 203.056232 212.189885 
L 203.872841 216.245357 
L 203.974917 215.700564 
L 204.025955 215.972552 
L 204.128031 216.517344 
L 204.179069 216.244539 
L 204.740488 213.80154 
L 204.995678 214.883517 
L 205.608134 211.915507 
L 205.761248 212.18371 
L 205.9654 211.111435 
L 206.016438 211.378834 
L 206.679933 214.608554 
L 207.292389 211.911484 
L 207.343427 211.911484 
L 207.649656 210.306308 
L 207.700694 210.572902 
L 207.751732 210.572902 
L 208.160036 208.710474 
L 208.721454 211.37241 
L 209.282873 208.707825 
L 209.691177 210.301776 
L 209.742215 210.035187 
L 209.793253 210.30151 
L 210.507786 214.058111 
L 210.558824 213.787766 
L 211.222318 210.564629 
L 211.273356 210.831481 
L 211.324394 210.564363 
L 211.375432 210.297511 
L 211.42647 210.564096 
L 211.528547 210.830947 
L 212.089965 208.171752 
L 212.447231 210.028529 
L 212.498269 209.762213 
L 212.651383 208.964862 
L 212.702421 209.230114 
L 213.161764 211.629353 
L 213.212802 211.361436 
L 213.978372 207.638611 
L 215.152247 213.236565 
L 215.203285 212.967041 
L 215.254323 213.236296 
L 215.356399 213.236296 
L 215.560552 212.697518 
L 215.61159 212.697518 
L 215.815742 212.159817 
L 215.86678 212.159817 
L 216.12197 213.235218 
L 216.224046 212.696442 
L 216.275084 212.965426 
L 216.428198 213.773992 
L 216.479236 213.503931 
L 216.63235 212.695366 
L 216.683388 212.964349 
L 218.367644 221.437574 
L 218.418682 221.437574 
L 219.23529 217.027146 
L 219.286328 217.300461 
L 219.388404 217.84791 
L 219.439442 217.573775 
L 219.847747 215.662488 
L 219.898785 215.934438 
L 219.949823 215.662216 
L 220.000861 215.390267 
L 220.051899 215.661944 
L 220.919545 220.045921 
L 221.123698 219.493254 
L 221.429926 220.597756 
L 221.685116 219.767931 
L 221.940306 220.596925 
L 221.991344 220.320041 
L 222.042382 220.596648 
L 222.09342 220.596648 
L 222.195496 221.150693 
L 222.246534 220.873255 
L 222.501725 219.490221 
L 222.552763 219.765998 
L 222.705877 220.594987 
L 222.756915 220.318105 
L 223.216257 218.387391 
L 223.471447 219.487739 
L 224.849474 212.406499 
L 224.900512 212.675193 
L 224.95155 212.40623 
L 225.359855 210.797827 
L 225.410893 210.797827 
L 225.461931 211.064912 
L 225.512969 210.797559 
L 225.666083 210.263657 
L 225.768159 210.797025 
L 225.819197 210.529941 
L 225.870235 210.529941 
L 226.278539 208.667813 
L 226.584768 209.995242 
L 226.78892 208.931708 
L 226.839958 209.196927 
L 226.942034 209.462411 
L 227.350338 207.871893 
L 229.544974 219.472572 
L 229.596012 219.196812 
L 229.800164 218.096527 
L 229.851202 218.370911 
L 230.769887 223.357008 
L 230.820925 223.077363 
L 231.178191 221.127667 
L 231.229229 221.405082 
L 231.433381 222.238993 
L 231.535457 221.682219 
L 231.586495 221.960188 
L 232.198952 225.317585 
L 232.24999 225.03598 
L 233.066598 221.122951 
L 233.117636 221.122951 
L 233.321789 220.014973 
L 233.372827 220.291275 
L 233.985283 223.069262 
L 234.036321 223.069262 
L 234.85293 218.908118 
L 235.006044 219.458784 
L 235.669538 216.440697 
L 235.975767 218.081161 
L 236.026805 217.806793 
L 236.128881 217.532699 
L 236.996527 221.946833 
L 237.251718 220.835564 
L 237.557946 222.223953 
L 237.813136 221.111577 
L 237.96625 221.944607 
L 238.017288 221.666375 
L 238.170402 220.833347 
L 238.22144 221.110468 
L 238.578707 222.499955 
L 239.446353 218.072656 
L 239.599467 218.347016 
L 240.007772 216.157615 
L 240.05881 216.43006 
L 240.109848 216.702778 
L 240.160886 216.429788 
L 240.82438 213.444853 
L 240.875418 213.444853 
L 241.028532 214.254859 
L 241.07957 213.984317 
L 241.538913 211.829696 
L 243.376282 221.09743 
L 243.478358 221.09743 
L 243.988739 218.336031 
L 244.039777 218.610655 
L 244.141853 219.160726 
L 244.192891 218.885277 
L 244.294967 218.335207 
L 244.346005 218.60983 
L 244.499119 219.435347 
L 244.550157 219.159624 
L 245.264689 215.600219 
L 245.877146 218.331363 
L 246.03026 217.7824 
L 246.438564 219.430659 
L 247.102059 216.41288 
L 247.255173 216.41288 
L 247.663477 218.327518 
L 247.816591 217.778563 
L 248.582162 221.918454 
L 248.6332 221.640248 
L 249.194618 219.148882 
L 249.500847 220.252004 
L 249.551885 220.252004 
L 249.602923 219.975464 
L 249.653961 220.251727 
L 249.858113 220.805082 
L 249.960189 220.805082 
L 250.011227 220.52799 
L 250.062265 220.804805 
L 250.368493 222.19304 
L 250.419531 221.914559 
L 250.470569 222.192761 
L 250.572645 222.192761 
L 250.725759 222.75 
L 250.929912 222.191926 
L 251.389254 224.427574 
L 251.695482 223.026803 
L 251.74652 223.306117 
L 251.797558 223.026524 
L 251.848596 222.74721 
L 251.899634 223.026244 
L 253.328699 230.953528 
L 253.379737 230.666287 
L 254.808802 222.739118 
L 255.268145 224.979158 
L 256.339944 219.406949 
L 256.748248 221.620238 
L 256.799286 221.342331 
L 256.901362 220.787349 
L 256.9524 221.064424 
L 257.717971 224.691429 
L 258.024199 223.009765 
L 258.075237 223.289063 
L 258.126275 223.568639 
L 258.177313 223.288783 
L 258.228351 223.288783 
L 261.188557 239.08778 
L 262.362432 232.946249 
L 263.076965 228.923193 
L 263.128003 229.208404 
L 263.332155 229.779681 
L 263.842535 227.215352 
L 264.199801 228.920626 
L 264.352916 228.065858 
L 264.403954 228.350211 
L 264.454992 228.350211 
L 264.50603 228.634849 
L 264.557068 228.349926 
L 265.577828 222.710938 
L 265.628866 222.989936 
L 266.853779 229.484469 
L 266.904817 229.198697 
L 266.955855 229.484183 
L 267.160008 230.056012 
L 267.211046 229.769669 
L 267.262084 230.055726 
L 267.313122 230.055726 
L 267.670388 228.341957 
L 268.997377 235.252198 
L 269.201529 234.087788 
L 269.252567 234.378163 
L 269.711909 237.004641 
L 269.762948 236.711349 
L 270.171252 234.375547 
L 270.22229 234.66621 
L 270.579556 236.416302 
L 271.753431 229.757655 
L 271.804469 230.0437 
L 271.855507 229.757369 
L 272.110697 228.330002 
L 272.161735 228.61462 
L 272.57004 230.328025 
L 272.672116 230.328025 
L 272.774192 230.901542 
L 272.82523 230.614353 
L 272.876268 230.614353 
L 274.050143 224.368349 
L 274.101181 224.649005 
L 274.152219 224.368068 
L 274.407409 223.526664 
L 274.509485 224.086572 
L 274.560523 223.806198 
L 274.611561 223.526104 
L 274.662599 223.805918 
L 275.17298 226.619489 
L 275.224018 226.336582 
L 275.42817 225.20778 
L 275.479208 225.489276 
L 275.530246 225.771052 
L 275.581284 225.488994 
L 275.93855 224.082927 
L 276.857235 228.602654 
L 277.112425 227.18105 
L 277.163463 227.464518 
L 277.622805 230.028525 
L 277.673843 229.742209 
L 277.724881 229.456179 
L 277.775919 229.741923 
L 277.826957 229.741923 
L 277.877996 229.455893 
L 277.929034 229.741637 
L 278.2863 231.174357 
L 278.439414 230.312834 
L 278.490452 230.599435 
L 278.643566 231.460956 
L 278.694604 231.173208 
L 279.204984 228.311503 
L 279.256023 228.596102 
L 279.307061 228.596102 
L 279.970555 225.196239 
L 280.072631 225.759488 
L 280.123669 225.477441 
L 280.88924 221.558272 
L 281.39962 224.349265 
L 281.450658 224.068628 
L 282.267267 220.169054 
L 283.441142 226.032783 
L 284.00256 223.502041 
L 286.044082 234.333113 
L 288.340793 221.816928 
L 288.391831 221.816928 
L 288.595983 222.652075 
L 288.851174 221.53799 
L 289.004288 222.093918 
L 289.20844 220.982062 
L 289.259478 221.259332 
L 291.045809 230.566444 
L 291.096847 230.566444 
L 291.352037 232.003585 
L 291.403075 231.715294 
L 292.372798 226.575076 
L 293.036293 229.702167 
L 293.699787 226.006528 
L 293.750825 226.288822 
L 294.618472 231.131241 
L 294.66951 230.843823 
L 295.588195 226.283736 
L 296.098575 228.552233 
L 296.506879 226.564327 
L 296.608955 227.130314 
L 296.659993 226.846896 
L 296.813107 225.998342 
L 296.864146 226.280628 
L 296.915184 226.280628 
L 297.221412 227.696296 
L 297.27245 227.412313 
L 297.323488 227.696012 
L 297.374526 227.696012 
L 297.578678 227.128046 
L 297.629716 227.128046 
L 297.833868 226.27865 
L 298.293211 228.547106 
L 299.211895 224.023775 
L 299.824352 227.406071 
L 299.87539 227.122378 
L 300.181618 225.70816 
L 300.538884 227.688061 
L 300.589922 227.404086 
L 301.100303 224.861051 
L 302.325216 231.399097 
L 303.192862 227.113876 
L 303.2439 227.397277 
L 303.294938 227.113592 
L 303.601166 225.417432 
L 303.652205 225.699137 
L 303.703243 225.699137 
L 303.754281 225.981123 
L 303.805319 225.698855 
L 304.060509 224.853741 
L 304.979194 229.957527 
L 305.030232 229.671282 
L 305.540612 227.107924 
L 306.306182 231.38874 
L 306.357221 231.101064 
L 306.510335 230.526574 
L 306.663449 230.813388 
L 307.990438 223.721342 
L 308.551856 226.534064 
L 309.266389 222.600197 
L 309.317427 222.879085 
L 311.716214 235.721955 
L 311.767253 235.429946 
L 311.818291 235.721663 
L 312.839051 241.022743 
L 312.890089 241.022743 
L 312.992165 241.61766 
L 313.043203 241.319755 
L 313.349432 239.834693 
L 313.502546 240.723948 
L 313.553584 240.426936 
L 314.982649 232.518933 
L 315.033687 232.807739 
L 315.084725 232.518644 
L 315.237839 231.941321 
L 315.339915 232.518067 
L 315.390953 232.229261 
L 316.564828 225.665864 
L 316.76898 226.230053 
L 317.279361 223.697542 
L 317.738703 225.945277 
L 318.147007 223.975565 
L 318.453235 225.661353 
L 318.504273 225.379404 
L 318.708426 224.254426 
L 318.759464 224.534968 
L 318.86154 225.096893 
L 318.912578 224.815509 
L 318.963616 224.534406 
L 319.014654 224.815228 
L 319.065692 225.09633 
L 319.11673 224.814947 
L 319.167768 224.533844 
L 319.218806 224.814666 
L 319.473996 225.658815 
L 319.576072 225.658815 
L 320.903061 232.792707 
L 321.413442 230.201368 
L 321.97486 232.789816 
L 324.118458 221.171641 
L 325.853751 230.189336 
L 326.211017 228.190005 
L 326.262055 228.474482 
L 326.619321 230.473806 
L 326.67036 230.187044 
L 327.384892 226.767912 
L 327.43593 227.050968 
L 327.486968 226.767629 
L 327.895272 225.073258 
L 327.94631 225.354619 
L 327.997349 225.072976 
L 328.048387 225.072976 
L 328.864995 229.608664 
L 328.916033 229.322768 
L 329.52849 226.479202 
L 329.885756 228.180048 
L 330.03887 227.327499 
L 330.089908 227.611114 
L 331.059631 233.054009 
L 331.110669 232.764667 
L 331.467935 231.322295 
L 331.825201 232.762933 
L 331.876239 232.762933 
L 332.029353 231.896649 
L 332.080392 232.184833 
L 333.050114 237.715415 
L 333.101152 237.421412 
L 335.397864 224.772222 
L 335.448902 224.772222 
L 335.602016 225.334623 
L 336.214473 221.973684 
L 336.265511 222.251945 
L 336.826929 225.049906 
L 336.929005 224.487513 
L 336.980043 224.768288 
L 338.715336 234.193068 
L 340.093363 226.451209 
L 340.246478 227.016969 
L 340.399592 226.167906 
L 340.45063 226.450361 
L 340.501668 226.733099 
L 340.552706 226.450078 
L 340.756858 225.602714 
L 341.267238 227.865743 
L 341.522428 226.447816 
L 341.573467 226.730551 
L 342.236961 230.431941 
L 342.287999 230.145222 
L 342.339037 229.858789 
L 342.390075 230.144936 
L 342.645265 231.004805 
L 343.461874 227.00847 
L 343.512912 227.00847 
L 343.81914 228.7125 
L 343.870178 228.4275 
L 344.023292 227.57421 
L 344.07433 227.858071 
L 344.380559 228.996359 
L 344.686787 227.57279 
L 345.095091 229.851636 
L 345.146129 229.565497 
L 345.197167 229.565497 
L 345.350281 228.708795 
L 345.401319 228.993792 
L 345.452357 229.279073 
L 345.503395 228.993506 
L 345.707548 228.138519 
L 346.320004 231.282895 
L 346.473118 230.708042 
L 347.391803 235.626192 
L 348.055297 231.854001 
L 348.106335 232.142142 
L 348.208411 232.71929 
L 348.259449 232.430283 
L 348.463602 231.853136 
L 348.718792 232.718134 
L 349.076058 230.98843 
L 349.433324 232.7164 
L 349.586438 232.138681 
L 349.790591 232.715822 
L 349.841629 232.715822 
L 349.994743 233.004536 
L 350.045781 233.004536 
L 350.300971 231.849102 
L 350.454085 232.137239 
L 350.505123 231.848814 
L 350.556161 232.136951 
L 351.11758 235.325529 
L 351.168618 235.033917 
L 351.321732 234.160826 
L 351.37277 234.451274 
L 351.934188 237.665439 
L 351.985226 237.371486 
L 352.342492 235.32203 
L 352.393531 235.61364 
L 352.750797 237.663087 
L 352.801835 237.369137 
L 353.465329 233.574423 
L 353.516367 233.864285 
L 353.567405 233.864285 
L 354.384014 229.828173 
L 354.48609 230.114289 
L 355.506851 224.721355 
L 355.608927 225.002364 
L 355.762041 224.159338 
L 355.813079 224.439785 
L 356.986954 230.394097 
L 357.037992 230.107415 
L 357.08903 230.39381 
L 357.140068 230.680492 
L 357.191106 230.393524 
L 357.650448 228.392483 
L 357.701486 228.392483 
L 358.671209 233.850358 
L 358.722247 233.56022 
L 359.998198 226.683291 
L 360.049236 226.683291 
L 360.20235 227.249516 
L 360.661693 224.989144 
L 360.916883 226.398342 
L 360.967921 226.115656 
L 361.018959 226.115656 
L 361.069997 226.398059 
L 361.121035 226.115374 
L 361.223111 225.550851 
L 361.274149 225.832689 
L 361.988682 229.522336 
L 363.468785 221.626769 
L 364.132279 225.26141 
L 364.183317 224.979862 
L 364.234355 224.979862 
L 365.204078 219.683609 
L 365.255116 219.95958 
L 366.684181 227.232504 
L 366.735219 227.232504 
L 366.939371 228.368286 
L 366.990409 228.08363 
L 367.143523 227.798975 
L 367.75598 230.939597 
L 368.26636 228.36487 
L 368.725703 230.650075 
L 368.878817 230.36285 
L 369.236083 231.798971 
L 369.287121 231.798971 
L 370.001654 227.791873 
L 370.052692 228.075952 
L 370.512034 230.072477 
L 371.941099 222.44044 
L 371.992137 222.44044 
L 372.196289 221.883263 
L 372.604593 224.116433 
L 372.655631 223.836029 
L 373.523278 219.111838 
L 373.574316 219.387237 
L 374.084697 221.600369 
L 374.135735 221.322481 
L 374.186773 221.600091 
L 376.687636 234.674793 
L 376.789713 234.383831 
L 377.402169 237.891134 
L 377.453207 237.596956 
L 377.504245 237.596956 
L 378.984348 246.24 
L 379.035386 245.937473 
L 380.464451 237.588433 
L 380.515489 237.882309 
L 380.566527 237.588139 
L 381.740402 231.478078 
L 381.79144 231.190312 
L 381.842478 231.47779 
L 381.893516 231.47779 
L 383.118429 224.931488 
L 383.169467 224.931488 
L 383.322581 225.775988 
L 383.373619 225.493925 
L 383.424657 225.493925 
L 384.037114 228.324452 
L 384.802684 224.365683 
L 384.853722 224.646336 
L 384.904761 224.365402 
L 385.006837 223.804377 
L 385.057875 224.084469 
L 385.364103 225.489135 
L 385.466179 224.925863 
L 385.517217 225.207077 
L 385.619293 225.488571 
L 385.925521 224.082506 
L 386.027597 224.362876 
L 386.231749 223.241958 
L 386.282788 223.521487 
L 386.48694 224.361754 
L 387.099396 221.012425 
L 387.150434 221.289725 
L 387.916005 224.919677 
L 387.967043 224.919677 
L 388.834689 220.730693 
L 388.885727 221.007711 
L 388.936765 220.730416 
L 389.447146 217.97267 
L 389.498184 218.24693 
L 390.518945 223.230497 
L 391.182439 220.170851 
L 391.233477 220.170851 
L 392.45839 226.317223 
L 392.866694 224.625828 
L 393.172923 226.033206 
L 393.274999 225.468848 
L 393.326037 225.750604 
L 394.040569 229.439178 
L 394.448874 227.445082 
L 395.163406 230.868374 
L 395.214444 230.868374 
L 395.826901 228.009703 
L 396.031053 228.578297 
L 396.082091 228.578297 
L 396.133129 228.293431 
L 396.184167 228.578012 
L 396.286243 229.148028 
L 396.337281 228.862592 
L 396.388319 228.577442 
L 396.439357 228.862307 
L 397.051813 232.302987 
L 397.102852 232.014396 
L 397.15389 232.014396 
L 397.66427 229.144317 
L 397.715308 229.429749 
L 398.327764 232.299812 
L 398.633993 231.147194 
L 398.685031 231.147194 
L 398.889183 231.722062 
L 398.940221 231.722062 
L 399.093335 232.298369 
L 399.399563 230.571178 
L 399.450601 230.858036 
L 400.624476 236.948775 
L 400.675514 236.948775 
L 401.696275 231.427147 
L 401.849389 232.291155 
L 401.900427 232.002576 
L 402.155617 230.564006 
L 402.206655 230.850858 
L 403.023264 235.188212 
L 403.074302 234.896736 
L 403.12534 235.187921 
L 403.176378 235.479396 
L 403.227416 235.187629 
L 403.686758 232.574822 
L 403.737796 232.863685 
L 404.095063 234.312044 
L 404.248177 233.441117 
L 404.299215 233.730846 
L 404.350253 234.020864 
L 404.401291 233.730556 
L 404.809595 231.418516 
L 404.860633 231.706222 
L 404.962709 232.282497 
L 405.013747 231.993927 
L 405.115823 231.417653 
L 405.166861 231.705358 
L 405.830356 234.888875 
L 405.881394 234.888875 
L 405.98347 234.306813 
L 406.034508 234.597407 
L 406.136584 234.888292 
L 406.340736 234.305941 
L 406.442812 234.887419 
L 406.49385 234.596244 
L 406.800079 232.855299 
L 406.851117 233.144442 
L 407.259421 235.176553 
L 407.871877 231.698158 
L 407.922915 231.986144 
L 408.127068 232.56269 
L 408.229144 231.985279 
L 408.280182 232.273552 
L 409.351981 238.099928 
L 410.117551 234.29548 
L 410.372741 235.167809 
L 410.474817 234.58519 
L 410.525855 234.876063 
L 411.18935 238.389306 
L 411.495578 237.212366 
L 411.546616 237.505866 
L 411.597654 237.212072 
L 412.465301 232.551137 
L 413.128795 236.036326 
L 413.690214 232.836795 
L 413.741252 233.125919 
L 414.353708 236.325431 
L 414.710974 234.574138 
L 414.864089 234.864708 
L 416.854572 223.722882 
L 417.41599 226.252796 
L 417.518067 225.687998 
L 417.569105 225.969974 
L 417.620143 226.252231 
L 417.671181 225.969691 
L 418.487789 221.487291 
L 418.538827 221.765066 
L 421.090729 235.138665 
L 421.192805 234.556105 
L 421.243843 234.846948 
L 421.294881 235.138083 
L 421.345919 234.846657 
L 421.396957 234.846657 
L 421.499034 234.26468 
L 421.550072 234.555232 
L 421.8563 236.012357 
L 421.907338 235.720057 
L 421.958376 236.012064 
L 422.162528 236.88984 
L 422.36668 236.011187 
L 422.417718 236.303486 
L 422.468756 236.010895 
L 422.62187 235.426591 
L 422.826022 236.595198 
L 422.877061 236.302316 
L 423.846783 231.367884 
L 423.897821 231.367884 
L 423.948859 231.65554 
L 423.999897 231.367597 
L 424.153011 231.079654 
L 424.255088 231.367021 
L 424.408202 230.792 
L 424.561316 231.6541 
L 424.612354 231.366158 
L 424.765468 230.50406 
L 424.816506 230.790852 
L 424.867544 230.790852 
L 425.071696 231.940889 
L 425.122734 231.65266 
L 426.653875 223.418257 
L 427.980864 230.208674 
L 428.031902 229.922178 
L 428.08294 230.208387 
L 428.236054 231.068735 
L 428.287093 230.781378 
L 428.542283 229.634825 
L 429.154739 232.506659 
L 429.205777 232.506659 
L 429.358891 231.92936 
L 429.409929 232.217576 
L 429.460967 231.929071 
L 429.818234 229.917599 
L 429.869272 230.203804 
L 429.92031 230.203804 
L 430.328614 227.91988 
L 430.379652 228.204087 
L 430.43069 228.204087 
L 430.634842 227.635104 
L 430.68588 227.635104 
L 431.808717 233.65748 
L 432.319097 231.345736 
L 432.52325 232.209498 
L 432.574288 231.921001 
L 432.625326 232.20921 
L 432.676364 232.497706 
L 432.727402 232.208921 
L 433.850239 226.210701 
L 434.105429 227.626019 
L 434.156467 227.342106 
L 434.207505 227.342106 
L 434.360619 226.77513 
L 434.615809 228.193276 
L 434.666847 227.908796 
L 434.870999 227.057059 
L 435.024113 227.340404 
L 435.12619 226.773432 
L 435.177228 227.056493 
L 436.197988 232.199978 
L 436.402141 231.623292 
L 436.453179 231.623292 
L 436.606293 230.760423 
L 436.657331 231.047471 
L 436.759407 231.334806 
L 437.167711 229.32748 
L 437.320825 229.898996 
L 437.371863 229.612809 
L 437.422901 229.89871 
L 438.4947 235.969099 
L 438.545738 235.676843 
L 438.698852 234.801826 
L 438.74989 235.092915 
L 438.954042 235.96793 
L 439.413385 233.92827 
L 439.464423 233.92827 
L 439.515461 234.218486 
L 439.566499 233.92798 
L 440.127917 230.751525 
L 440.178955 231.038564 
L 440.485184 232.189304 
L 440.84245 230.462765 
L 441.09764 231.323589 
L 441.148678 231.323589 
L 442.169439 236.837659 
L 442.373591 236.251409 
L 442.424629 236.543948 
L 442.475667 236.251117 
L 442.986047 233.918693 
L 443.139161 234.499396 
L 443.751618 231.60429 
L 444.159922 233.915501 
L 444.21096 233.625298 
L 445.231721 228.450706 
L 445.895216 231.598533 
L 446.099368 230.448715 
L 446.150406 230.735451 
L 446.201444 230.735451 
L 446.456634 232.173438 
L 446.507672 231.884978 
L 447.222204 227.876683 
L 447.273243 228.160847 
L 448.345041 234.194375 
L 448.345041 234.194375 
" clip-path="url(#p421e7a119e)" style="fill: none; stroke: #1f77b4; stroke-width: 1.5; stroke-linecap: square"/>
   </g>
   <g id="patch_3">
    <path d="M 121.5 256.32 
L 121.5 34.56 
" style="fill: none; stroke: #000000; stroke-width: 0.8; stroke-linejoin: miter; stroke-linecap: square"/>
   </g>
   <g id="patch_4">
    <path d="M 463.909091 256.32 
L 463.909091 34.56 
" style="fill: none; stroke: #000000; stroke-width: 0.8; stroke-linejoin: miter; stroke-linecap: square"/>
   </g>
   <g id="patch_5">
    <path d="M 121.5 256.32 
L 463.909091 256.32 
" style="fill: none; stroke: #000000; stroke-width: 0.8; stroke-linejoin: miter; stroke-linecap: square"/>
   </g>
   <g id="patch_6">
    <path d="M 121.5 34.56 
L 463.909091 34.56 
" style="fill: none; stroke: #000000; stroke-width: 0.8; stroke-linejoin: miter; stroke-linecap: square"/>
   </g>
  </g>
  <g id="axes_2">
   <g id="patch_7">
    <path d="M 532.390909 256.32 
L 874.8 256.32 
L 874.8 34.56 
L 532.390909 34.56 
z
" style="fill: #ffffff"/>
   </g>
   <g id="matplotlib.axis_3">
    <g id="xtick_8">
     <g id="line2d_18">
      <g>
       <use xlink:href="#m89e0159fb1" x="547.954959" y="256.32" style="stroke: #000000; stroke-width: 0.8"/>
      </g>
     </g>
     <g id="text_17">
      <!-- 0 -->
      <g transform="translate(544.773709 270.918437) scale(0.1 -0.1)">
       <use xlink:href="#DejaVuSans-30"/>
      </g>
     </g>
    </g>
    <g id="xtick_9">
     <g id="line2d_19">
      <g>
       <use xlink:href="#m89e0159fb1" x="598.992996" y="256.32" style="stroke: #000000; stroke-width: 0.8"/>
      </g>
     </g>
     <g id="text_18">
      <!-- 1000 -->
      <g transform="translate(586.267996 270.918437) scale(0.1 -0.1)">
       <use xlink:href="#DejaVuSans-31"/>
       <use xlink:href="#DejaVuSans-30" x="63.623047"/>
       <use xlink:href="#DejaVuSans-30" x="127.246094"/>
       <use xlink:href="#DejaVuSans-30" x="190.869141"/>
      </g>
     </g>
    </g>
    <g id="xtick_10">
     <g id="line2d_20">
      <g>
       <use xlink:href="#m89e0159fb1" x="650.031034" y="256.32" style="stroke: #000000; stroke-width: 0.8"/>
      </g>
     </g>
     <g id="text_19">
      <!-- 2000 -->
      <g transform="translate(637.306034 270.918437) scale(0.1 -0.1)">
       <use xlink:href="#DejaVuSans-32"/>
       <use xlink:href="#DejaVuSans-30" x="63.623047"/>
       <use xlink:href="#DejaVuSans-30" x="127.246094"/>
       <use xlink:href="#DejaVuSans-30" x="190.869141"/>
      </g>
     </g>
    </g>
    <g id="xtick_11">
     <g id="line2d_21">
      <g>
       <use xlink:href="#m89e0159fb1" x="701.069072" y="256.32" style="stroke: #000000; stroke-width: 0.8"/>
      </g>
     </g>
     <g id="text_20">
      <!-- 3000 -->
      <g transform="translate(688.344072 270.918437) scale(0.1 -0.1)">
       <use xlink:href="#DejaVuSans-33"/>
       <use xlink:href="#DejaVuSans-30" x="63.623047"/>
       <use xlink:href="#DejaVuSans-30" x="127.246094"/>
       <use xlink:href="#DejaVuSans-30" x="190.869141"/>
      </g>
     </g>
    </g>
    <g id="xtick_12">
     <g id="line2d_22">
      <g>
       <use xlink:href="#m89e0159fb1" x="752.107109" y="256.32" style="stroke: #000000; stroke-width: 0.8"/>
      </g>
     </g>
     <g id="text_21">
      <!-- 4000 -->
      <g transform="translate(739.382109 270.918437) scale(0.1 -0.1)">
       <use xlink:href="#DejaVuSans-34"/>
       <use xlink:href="#DejaVuSans-30" x="63.623047"/>
       <use xlink:href="#DejaVuSans-30" x="127.246094"/>
       <use xlink:href="#DejaVuSans-30" x="190.869141"/>
      </g>
     </g>
    </g>
    <g id="xtick_13">
     <g id="line2d_23">
      <g>
       <use xlink:href="#m89e0159fb1" x="803.145147" y="256.32" style="stroke: #000000; stroke-width: 0.8"/>
      </g>
     </g>
     <g id="text_22">
      <!-- 5000 -->
      <g transform="translate(790.420147 270.918437) scale(0.1 -0.1)">
       <use xlink:href="#DejaVuSans-35"/>
       <use xlink:href="#DejaVuSans-30" x="63.623047"/>
       <use xlink:href="#DejaVuSans-30" x="127.246094"/>
       <use xlink:href="#DejaVuSans-30" x="190.869141"/>
      </g>
     </g>
    </g>
    <g id="xtick_14">
     <g id="line2d_24">
      <g>
       <use xlink:href="#m89e0159fb1" x="854.183185" y="256.32" style="stroke: #000000; stroke-width: 0.8"/>
      </g>
     </g>
     <g id="text_23">
      <!-- 6000 -->
      <g transform="translate(841.458185 270.918437) scale(0.1 -0.1)">
       <use xlink:href="#DejaVuSans-36"/>
       <use xlink:href="#DejaVuSans-30" x="63.623047"/>
       <use xlink:href="#DejaVuSans-30" x="127.246094"/>
       <use xlink:href="#DejaVuSans-30" x="190.869141"/>
      </g>
     </g>
    </g>
   </g>
   <g id="matplotlib.axis_4">
    <g id="ytick_10">
     <g id="line2d_25">
      <g>
       <use xlink:href="#macae0b75ca" x="532.390909" y="247.327329" style="stroke: #000000; stroke-width: 0.8"/>
      </g>
     </g>
     <g id="text_24">
      <!-- −5.0 -->
      <g transform="translate(501.108097 251.126547) scale(0.1 -0.1)">
       <use xlink:href="#DejaVuSans-2212"/>
       <use xlink:href="#DejaVuSans-35" x="83.789062"/>
       <use xlink:href="#DejaVuSans-2e" x="147.412109"/>
       <use xlink:href="#DejaVuSans-30" x="179.199219"/>
      </g>
     </g>
    </g>
    <g id="ytick_11">
     <g id="line2d_26">
      <g>
       <use xlink:href="#macae0b75ca" x="532.390909" y="213.546107" style="stroke: #000000; stroke-width: 0.8"/>
      </g>
     </g>
     <g id="text_25">
      <!-- −4.5 -->
      <g transform="translate(501.108097 217.345326) scale(0.1 -0.1)">
       <use xlink:href="#DejaVuSans-2212"/>
       <use xlink:href="#DejaVuSans-34" x="83.789062"/>
       <use xlink:href="#DejaVuSans-2e" x="147.412109"/>
       <use xlink:href="#DejaVuSans-35" x="179.199219"/>
      </g>
     </g>
    </g>
    <g id="ytick_12">
     <g id="line2d_27">
      <g>
       <use xlink:href="#macae0b75ca" x="532.390909" y="179.764886" style="stroke: #000000; stroke-width: 0.8"/>
      </g>
     </g>
     <g id="text_26">
      <!-- −4.0 -->
      <g transform="translate(501.108097 183.564104) scale(0.1 -0.1)">
       <use xlink:href="#DejaVuSans-2212"/>
       <use xlink:href="#DejaVuSans-34" x="83.789062"/>
       <use xlink:href="#DejaVuSans-2e" x="147.412109"/>
       <use xlink:href="#DejaVuSans-30" x="179.199219"/>
      </g>
     </g>
    </g>
    <g id="ytick_13">
     <g id="line2d_28">
      <g>
       <use xlink:href="#macae0b75ca" x="532.390909" y="145.983664" style="stroke: #000000; stroke-width: 0.8"/>
      </g>
     </g>
     <g id="text_27">
      <!-- −3.5 -->
      <g transform="translate(501.108097 149.782883) scale(0.1 -0.1)">
       <use xlink:href="#DejaVuSans-2212"/>
       <use xlink:href="#DejaVuSans-33" x="83.789062"/>
       <use xlink:href="#DejaVuSans-2e" x="147.412109"/>
       <use xlink:href="#DejaVuSans-35" x="179.199219"/>
      </g>
     </g>
    </g>
    <g id="ytick_14">
     <g id="line2d_29">
      <g>
       <use xlink:href="#macae0b75ca" x="532.390909" y="112.202443" style="stroke: #000000; stroke-width: 0.8"/>
      </g>
     </g>
     <g id="text_28">
      <!-- −3.0 -->
      <g transform="translate(501.108097 116.001662) scale(0.1 -0.1)">
       <use xlink:href="#DejaVuSans-2212"/>
       <use xlink:href="#DejaVuSans-33" x="83.789062"/>
       <use xlink:href="#DejaVuSans-2e" x="147.412109"/>
       <use xlink:href="#DejaVuSans-30" x="179.199219"/>
      </g>
     </g>
    </g>
    <g id="ytick_15">
     <g id="line2d_30">
      <g>
       <use xlink:href="#macae0b75ca" x="532.390909" y="78.421221" style="stroke: #000000; stroke-width: 0.8"/>
      </g>
     </g>
     <g id="text_29">
      <!-- −2.5 -->
      <g transform="translate(501.108097 82.22044) scale(0.1 -0.1)">
       <use xlink:href="#DejaVuSans-2212"/>
       <use xlink:href="#DejaVuSans-32" x="83.789062"/>
       <use xlink:href="#DejaVuSans-2e" x="147.412109"/>
       <use xlink:href="#DejaVuSans-35" x="179.199219"/>
      </g>
     </g>
    </g>
    <g id="ytick_16">
     <g id="line2d_31">
      <g>
       <use xlink:href="#macae0b75ca" x="532.390909" y="44.64" style="stroke: #000000; stroke-width: 0.8"/>
      </g>
     </g>
     <g id="text_30">
      <!-- −2.0 -->
      <g transform="translate(501.108097 48.439219) scale(0.1 -0.1)">
       <use xlink:href="#DejaVuSans-2212"/>
       <use xlink:href="#DejaVuSans-32" x="83.789062"/>
       <use xlink:href="#DejaVuSans-2e" x="147.412109"/>
       <use xlink:href="#DejaVuSans-30" x="179.199219"/>
      </g>
     </g>
    </g>
   </g>
   <g id="line2d_32">
    <path d="M 547.954959 44.64 
L 551.374507 53.998707 
L 554.794056 64.005594 
L 558.213604 74.705555 
L 561.633153 86.146593 
L 565.052701 98.380033 
L 568.421212 111.259013 
L 571.789722 125.01623 
L 575.158233 139.711572 
L 579.037124 157.383061 
L 579.088162 157.135193 
L 579.190238 156.887573 
L 581.129683 165.950607 
L 581.537987 165.950607 
L 581.99733 164.160935 
L 582.099406 164.160935 
L 582.50771 162.383753 
L 584.089889 169.820538 
L 584.140927 169.820538 
L 584.60027 172.17268 
L 584.651308 171.910022 
L 586.131411 164.661296 
L 586.182449 164.661296 
L 586.692829 167.22427 
L 586.743867 166.966561 
L 586.948019 166.194979 
L 587.407362 168.255619 
L 587.662552 167.480173 
L 587.71359 167.480173 
L 588.581237 163.129676 
L 588.632275 163.38329 
L 588.989541 164.655172 
L 589.040579 164.655172 
L 589.908226 168.509179 
L 590.06134 167.732974 
L 590.112378 167.991192 
L 590.520682 169.545931 
L 590.57172 169.545931 
L 590.82691 170.326803 
L 590.980024 169.805441 
L 591.541443 172.682993 
L 591.592481 172.419826 
L 592.307013 169.282263 
L 592.868432 171.891655 
L 593.634002 168.501151 
L 593.68504 168.501151 
L 594.705801 173.202736 
L 594.858915 172.939049 
L 596.798361 183.136587 
L 596.849399 182.862966 
L 597.410817 179.871128 
L 597.461855 180.141484 
L 597.666007 180.683008 
L 597.921198 180.683008 
L 598.023274 180.954176 
L 599.197148 175.310598 
L 599.299225 175.310598 
L 599.452339 175.044803 
L 599.503377 175.044803 
L 601.085556 183.400896 
L 601.136594 183.127011 
L 602.004241 179.051437 
L 602.106317 179.051437 
L 602.820849 175.568412 
L 603.025001 176.100518 
L 603.178115 176.100518 
L 603.280192 175.833933 
L 606.69974 193.142875 
L 606.750778 193.142875 
L 607.005968 193.99461 
L 607.363235 192.575054 
L 607.771539 194.562428 
L 607.924653 194.27738 
L 609.404756 202.066751 
L 609.55787 202.066751 
L 609.608908 202.359303 
L 609.659946 202.066459 
L 609.762022 202.066459 
L 610.017212 201.189682 
L 610.068251 201.189682 
L 610.578631 203.825278 
L 610.680707 203.236952 
L 610.731745 203.530674 
L 610.935897 204.708501 
L 610.986935 204.413308 
L 612.058734 198.860385 
L 612.109772 198.860385 
L 612.313924 200.019503 
L 612.364962 199.728999 
L 612.518076 198.859228 
L 612.569114 199.148572 
L 612.620152 199.148572 
L 614.100255 207.071189 
L 614.151294 207.071189 
L 615.223092 201.176265 
L 615.427244 201.759879 
L 615.529321 201.759879 
L 615.886587 200.301575 
L 615.988663 200.301575 
L 616.499043 197.983409 
L 616.550081 197.983409 
L 616.703195 197.118869 
L 616.754233 197.406473 
L 616.85631 197.694364 
L 617.162538 196.543375 
L 617.264614 196.543375 
L 617.315652 196.830403 
L 617.36669 196.543088 
L 617.417728 196.543088 
L 618.081222 199.71623 
L 618.234337 199.425739 
L 618.438489 199.425739 
L 619.204059 203.217273 
L 619.306135 202.630163 
L 619.357173 202.923278 
L 619.510287 203.804383 
L 619.561326 203.510093 
L 619.612364 203.510093 
L 619.96963 201.458292 
L 620.020668 201.750235 
L 620.173782 201.750235 
L 620.582086 200.001202 
L 620.684162 200.001202 
L 621.960113 207.053634 
L 622.980874 201.159058 
L 623.031912 201.450702 
L 623.133988 201.450702 
L 625.94108 217.02499 
L 626.043156 217.02499 
L 626.19627 216.410278 
L 626.247308 216.717173 
L 626.298346 216.409971 
L 627.574297 209.12858 
L 627.77845 209.12858 
L 628.03364 208.230638 
L 628.186754 208.230638 
L 628.697134 210.929856 
L 629.105439 209.125883 
L 629.156477 209.425494 
L 629.207515 209.125584 
L 629.615819 207.332409 
L 629.819971 207.332409 
L 630.534504 211.529061 
L 630.585542 211.227047 
L 631.759417 204.658618 
L 632.014607 205.544934 
L 632.065645 205.544934 
L 632.371873 204.36259 
L 632.422911 204.36259 
L 633.23952 209.115697 
L 633.290558 208.816096 
L 633.596786 208.816096 
L 633.903014 210.015097 
L 634.566509 206.13195 
L 634.617547 206.428567 
L 634.974813 207.916107 
L 635.025851 207.916107 
L 635.230003 207.021799 
L 635.893498 210.61158 
L 636.199726 208.809511 
L 636.250764 209.108806 
L 636.86322 212.118261 
L 636.914258 212.118261 
L 637.220487 210.307175 
L 637.271525 210.607967 
L 637.781905 213.025157 
L 637.883981 213.025157 
L 638.088133 214.241019 
L 638.139171 213.936294 
L 640.486921 200.534443 
L 641.405606 205.225838 
L 641.660796 204.044768 
L 641.762872 204.339298 
L 641.967024 203.455709 
L 642.630519 206.705271 
L 642.681557 206.705271 
L 643.906469 213.312565 
L 643.957508 213.312565 
L 644.314774 214.834288 
L 644.41685 214.834288 
L 644.67204 215.751162 
L 644.876192 215.138996 
L 645.029306 215.138996 
L 645.590725 218.209025 
L 645.743839 217.900331 
L 646.407333 221.309581 
L 646.458371 221.309581 
L 648.448855 209.677975 
L 648.601969 209.978138 
L 648.704045 209.978138 
L 649.469616 206.095469 
L 649.62273 206.095469 
L 649.928958 207.283571 
L 650.031034 207.283571 
L 650.082072 207.581339 
L 650.13311 207.283273 
L 650.439338 205.501125 
L 650.490376 205.797111 
L 650.541414 206.093393 
L 650.592452 205.796814 
L 651.562175 200.800119 
L 651.613213 200.800119 
L 651.664251 201.091404 
L 651.715289 200.799828 
L 651.766327 200.799828 
L 652.072556 201.966716 
L 652.174632 201.966716 
L 652.22567 202.259167 
L 652.276708 201.966423 
L 652.327746 201.966423 
L 652.99124 198.476245 
L 653.960963 203.42808 
L 654.012001 203.42808 
L 654.114077 203.134167 
L 654.267191 203.427786 
L 654.318229 203.427786 
L 654.879648 200.793128 
L 655.134838 200.793128 
L 655.236914 201.375976 
L 655.287952 201.084115 
L 655.696256 199.339069 
L 655.747294 199.339069 
L 656.563903 203.423084 
L 656.665979 203.423084 
L 656.870131 204.011193 
L 657.329473 201.955895 
L 657.533626 202.834095 
L 657.635702 202.540776 
L 661.208364 223.462594 
L 661.259402 223.148647 
L 662.994696 212.96264 
L 663.045734 212.96264 
L 663.198848 213.569839 
L 663.556114 212.052603 
L 664.270647 215.703087 
L 664.985179 212.04867 
L 665.495559 214.477426 
L 665.546597 214.477426 
L 665.648674 214.782388 
L 666.056978 212.348781 
L 666.108016 212.651614 
L 666.159054 212.954751 
L 666.210092 212.651311 
L 667.588119 204.867506 
L 669.37445 214.771704 
L 669.476526 214.771704 
L 669.833793 216.914921 
L 669.884831 216.607522 
L 670.599363 212.942613 
L 670.956629 214.462788 
L 671.007667 214.462788 
L 671.518048 212.031728 
L 671.569086 212.031728 
L 671.875314 210.823476 
L 672.028428 211.124784 
L 673.457493 203.086311 
L 673.712683 203.967906 
L 673.81476 203.967906 
L 673.916836 203.379295 
L 673.967874 203.673159 
L 674.529292 206.331196 
L 674.58033 206.03438 
L 674.631368 206.330899 
L 674.937596 208.116252 
L 674.988634 207.817651 
L 675.090711 207.817651 
L 675.294863 208.713453 
L 675.652129 206.625338 
L 675.703167 206.922448 
L 675.754205 206.922448 
L 676.162509 208.711359 
L 676.213547 208.711359 
L 678.050917 198.41557 
L 678.101955 198.41557 
L 678.306107 199.572906 
L 678.357145 199.282848 
L 678.459221 199.282848 
L 678.918563 196.972804 
L 680.704895 206.612265 
L 680.755933 206.612265 
L 681.929808 200.435222 
L 682.491226 203.357549 
L 682.695378 202.183942 
L 682.746416 202.47661 
L 682.848492 202.47661 
L 683.103682 203.650215 
L 683.358873 202.768692 
L 683.563025 203.649333 
L 683.614063 203.355199 
L 683.665101 203.649039 
L 684.022367 205.122653 
L 684.226519 204.236717 
L 686.727383 218.412058 
L 687.441916 214.725614 
L 687.492954 214.725614 
L 687.646068 214.420403 
L 688.054372 216.254415 
L 688.10541 216.254415 
L 688.3606 217.175553 
L 689.483437 211.080451 
L 689.789665 209.575637 
L 691.014578 216.246746 
L 691.116654 216.246746 
L 691.269768 216.860516 
L 691.729111 214.715542 
L 691.831187 214.715542 
L 692.137415 213.49657 
L 693.719594 222.436567 
L 693.770632 222.436567 
L 694.893469 229.393608 
L 694.944507 229.07373 
L 695.710078 224.313759 
L 695.761116 224.628558 
L 695.863192 225.2591 
L 695.91423 224.943356 
L 696.16942 223.998017 
L 696.220458 223.998017 
L 696.373572 224.3125 
L 696.42461 224.3125 
L 697.547447 218.076006 
L 697.649523 217.459193 
L 697.700561 217.767137 
L 701.069072 238.787302 
L 701.222186 239.776107 
L 701.273224 239.445846 
L 702.14087 234.531378 
L 702.293985 234.531378 
L 703.110593 230.010288 
L 703.212669 230.330783 
L 703.314745 230.009968 
L 703.518897 230.651278 
L 703.620974 230.651278 
L 703.876164 229.048805 
L 703.927202 229.368339 
L 703.97824 229.368339 
L 704.23343 228.090844 
L 704.590696 229.686911 
L 704.999001 227.770677 
L 705.509381 230.646461 
L 705.866647 229.044012 
L 706.223913 230.644855 
L 706.274952 230.644855 
L 706.428066 229.682429 
L 706.479104 230.002596 
L 707.142598 233.545638 
L 707.244674 233.545638 
L 709.6945 218.661284 
L 709.847614 218.97043 
L 710.817337 213.447329 
L 710.970451 214.360038 
L 711.021489 214.055193 
L 711.072527 213.750653 
L 711.123565 214.054889 
L 711.582907 216.193073 
L 711.736022 215.273959 
L 711.78706 215.579718 
L 712.348478 218.963313 
L 712.399516 218.653864 
L 713.011972 215.576351 
L 713.573391 218.650773 
L 713.879619 217.416084 
L 714.951418 223.632957 
L 715.66595 219.884206 
L 715.716988 219.884206 
L 715.819065 220.505254 
L 715.870103 220.194264 
L 716.125293 219.263158 
L 716.380483 219.263158 
L 716.533597 218.95341 
L 716.584635 218.95341 
L 716.686711 219.572596 
L 716.737749 219.262539 
L 716.788787 219.262539 
L 716.992939 219.882344 
L 717.043977 219.882344 
L 717.146054 219.571976 
L 718.319928 226.78228 
L 718.370966 226.465013 
L 718.422004 226.148063 
L 718.473043 226.464696 
L 718.779271 228.052617 
L 719.544841 223.93607 
L 719.595879 223.93607 
L 719.902108 225.195642 
L 719.953146 225.195642 
L 720.769754 229.644011 
L 721.12702 227.40982 
L 721.178059 227.727715 
L 721.331173 228.045928 
L 721.382211 228.045928 
L 721.841553 230.924199 
L 721.892591 230.60279 
L 722.862314 225.187434 
L 722.913352 225.187434 
L 724.495531 215.853309 
L 725.005911 218.621407 
L 725.261102 217.386835 
L 726.486014 224.231607 
L 726.690167 224.231607 
L 726.894319 224.861355 
L 726.945357 224.861355 
L 727.149509 224.230978 
L 727.608851 226.440609 
L 727.710927 226.440609 
L 728.833764 233.48667 
L 728.884802 233.162699 
L 728.93584 232.839051 
L 728.986878 233.162375 
L 729.088954 233.162375 
L 729.497259 235.434714 
L 730.364905 230.258929 
L 730.671134 231.54383 
L 730.926324 230.578709 
L 731.079438 231.221157 
L 732.814731 220.772977 
L 732.865769 220.772977 
L 733.427188 217.982835 
L 734.601062 224.525847 
L 734.805215 223.58176 
L 734.958329 224.210207 
L 735.621823 220.765507 
L 735.672861 220.765507 
L 735.877013 221.388319 
L 738.071649 208.255582 
L 738.224763 208.554322 
L 738.275801 208.554322 
L 739.245524 213.678862 
L 739.3476 213.678862 
L 739.85798 211.254052 
L 741.133931 218.270924 
L 741.491198 216.116107 
L 741.542236 216.422708 
L 741.593274 216.729615 
L 741.644312 216.422401 
L 741.848464 215.502599 
L 741.899502 215.808587 
L 741.95054 215.502293 
L 742.103654 215.196306 
L 742.154692 215.501987 
L 742.20573 215.196 
L 742.869225 211.547938 
L 743.379605 214.277132 
L 743.736871 212.453125 
L 744.400366 215.802155 
L 744.55348 215.802155 
L 745.676317 221.986441 
L 745.727355 221.986441 
L 745.829431 221.36181 
L 745.880469 221.673657 
L 746.799153 226.705828 
L 746.90123 226.071764 
L 746.952268 226.388321 
L 747.207458 227.657716 
L 749.810398 211.831529 
L 749.912474 211.831529 
L 750.422854 214.258542 
L 750.473892 213.953798 
L 750.52493 214.258237 
L 750.729082 215.479039 
L 750.78012 215.173075 
L 750.831158 215.173075 
L 750.933234 214.562065 
L 750.984273 214.867112 
L 751.188425 215.478121 
L 751.443615 214.56115 
L 751.545691 214.56115 
L 751.596729 214.866196 
L 751.647767 214.560845 
L 752.056071 212.73514 
L 752.158147 212.73514 
L 752.770604 215.781022 
L 752.821642 215.781022 
L 753.38306 218.548466 
L 753.485136 218.548466 
L 753.944479 221.029403 
L 754.659011 217.003927 
L 754.710049 217.311415 
L 754.761087 217.003619 
L 754.863163 217.003619 
L 756.088076 223.839558 
L 756.24119 223.839558 
L 758.129598 212.719676 
L 758.231674 212.719676 
L 758.384788 212.416472 
L 761.855375 233.395323 
L 761.906413 233.071443 
L 762.569907 229.210051 
L 762.927173 231.133022 
L 763.182364 230.169133 
L 763.28444 230.169133 
L 763.437554 231.132057 
L 763.488592 230.81044 
L 763.641706 230.168171 
L 763.743782 230.809798 
L 763.79482 230.488503 
L 763.947934 230.167529 
L 764.101048 230.167529 
L 764.560391 232.418841 
L 764.611429 232.418841 
L 764.815581 231.451099 
L 764.866619 231.773035 
L 764.917657 231.450777 
L 764.968695 231.128841 
L 765.019733 231.450455 
L 765.785303 235.986963 
L 767.673711 224.12242 
L 768.235129 226.965238 
L 768.439281 226.013839 
L 768.949662 228.873748 
L 769.153814 227.598229 
L 769.204852 227.916312 
L 769.357966 228.553433 
L 769.460042 227.915675 
L 769.51108 228.234076 
L 769.817308 229.830861 
L 769.919384 229.510545 
L 772.062982 242.56315 
L 772.267134 242.56315 
L 772.675439 244.901492 
L 773.083743 242.894198 
L 773.185819 242.894198 
L 773.747237 239.90576 
L 773.849313 239.90576 
L 774.819036 246.24 
L 774.870074 245.903275 
L 778.238585 224.408055 
L 778.340661 224.408055 
L 778.800003 227.253455 
L 778.851041 226.935716 
L 779.973878 220.647254 
L 781.147753 227.564514 
L 781.351905 226.928733 
L 781.505019 226.928733 
L 782.066437 229.796909 
L 782.883046 225.026167 
L 782.985122 225.341678 
L 783.087198 225.025851 
L 785.332872 238.552614 
L 785.38391 238.223577 
L 785.434948 238.552285 
L 785.741176 239.87041 
L 785.792214 239.87041 
L 786.608823 234.624183 
L 786.659861 234.949292 
L 786.710899 234.949292 
L 786.915051 235.926571 
L 788.956573 223.435439 
L 789.058649 223.435439 
L 789.160725 223.121519 
L 789.313839 223.749045 
L 789.466953 223.120891 
L 789.569029 223.434497 
L 790.181485 220.309392 
L 790.283562 220.309392 
L 792.069893 230.731411 
L 792.274045 230.0893 
L 792.325083 230.0893 
L 792.478197 229.768726 
L 793.141692 233.632976 
L 793.396882 232.661595 
L 793.70311 234.280562 
L 793.856224 233.955796 
L 794.009338 233.955796 
L 795.132175 227.528258 
L 795.183213 227.528258 
L 795.948784 223.418802 
L 796.357088 225.306939 
L 797.122659 221.226187 
L 797.173697 221.226187 
L 798.041343 225.934725 
L 798.143419 225.934725 
L 798.296533 224.986415 
L 798.347571 225.301886 
L 798.90899 228.155362 
L 798.960028 228.155362 
L 799.776637 232.645438 
L 799.827675 232.645438 
L 800.389093 235.891321 
L 801.25674 231.029799 
L 802.124386 235.886425 
L 802.583729 233.608668 
L 802.634767 233.932762 
L 802.685805 233.608344 
L 802.787881 233.608344 
L 802.838919 233.932438 
L 802.889957 233.60802 
L 803.910718 227.823671 
L 803.961756 227.823671 
L 804.063832 227.505362 
L 804.421098 229.737983 
L 804.472136 229.41776 
L 805.901201 220.891744 
L 806.003277 220.891744 
L 806.411581 223.07793 
L 806.819886 221.201251 
L 806.870924 221.201251 
L 807.177152 222.762801 
L 807.789608 219.644383 
L 808.810369 225.274098 
L 808.861407 225.274098 
L 809.065559 226.222322 
L 809.371788 224.64195 
L 809.882168 227.171806 
L 809.984244 227.171806 
L 810.035282 227.489463 
L 810.08632 227.171489 
L 810.137358 227.171489 
L 810.34151 227.807119 
L 810.545662 227.807119 
L 810.902929 225.585748 
L 810.953967 225.901819 
L 811.056043 226.218205 
L 811.719537 222.125678 
L 811.770575 222.438288 
L 811.923689 222.438288 
L 812.791336 227.165136 
L 812.94445 227.165136 
L 813.607945 231.319454 
L 813.658983 230.997649 
L 813.710021 230.676167 
L 813.761059 230.997328 
L 814.475591 234.876403 
L 814.628705 234.551042 
L 815.139086 237.160448 
L 815.190124 237.160448 
L 815.394276 236.505485 
L 815.445314 236.505485 
L 816.057771 233.250257 
L 816.108809 233.250257 
L 817.078531 238.798003 
L 819.936661 220.856249 
L 819.987699 220.856249 
L 821.416765 212.255371 
L 821.620917 212.861154 
L 821.671955 212.557808 
L 821.722993 212.860851 
L 821.825069 213.164196 
L 821.978183 212.25416 
L 822.029221 212.556899 
L 822.539601 215.29521 
L 823.203096 211.645963 
L 824.581123 219.290572 
L 824.683199 219.290572 
L 824.836313 218.980797 
L 824.938389 218.980797 
L 825.040465 218.671331 
L 825.193579 218.980487 
L 825.601884 216.513412 
L 825.652922 216.82041 
L 826.010188 218.360013 
L 826.061226 218.360013 
L 826.265378 217.126485 
L 826.316416 217.434097 
L 828.613128 230.635382 
L 828.715204 230.635382 
L 828.81728 230.956502 
L 830.705687 219.584844 
L 830.756725 219.584844 
L 832.440981 209.514581 
L 832.900323 211.620887 
L 832.951361 211.620887 
L 833.155513 212.831124 
L 833.206551 212.527808 
L 833.308627 212.224796 
L 833.512779 213.437452 
L 833.563817 213.133529 
L 833.614856 213.133529 
L 833.716932 213.437148 
L 834.431464 209.810076 
L 834.584578 210.410966 
L 835.299111 206.820009 
L 835.401187 206.820009 
L 837.289594 217.712427 
L 838.004127 214.034333 
L 838.055165 214.034333 
L 838.514507 211.606689 
L 838.616583 211.90878 
L 838.718659 211.304295 
L 838.769697 211.606084 
L 841.423675 226.769431 
L 841.525751 226.769431 
L 842.954816 218.0052 
L 843.822463 222.665083 
L 844.026615 222.039096 
L 844.077653 222.039096 
L 844.230767 222.664457 
L 844.996338 218.617852 
L 845.20049 218.617852 
L 845.251528 218.308749 
L 845.302566 218.617543 
L 846.017099 222.660073 
L 846.578517 219.542677 
L 846.782669 220.784649 
L 846.833707 220.473379 
L 848.262772 212.185748 
L 848.31381 212.185748 
L 848.517963 211.58071 
L 849.028343 214.005709 
L 849.079381 214.005709 
L 849.181457 214.3102 
L 849.385609 213.700915 
L 849.487685 213.700915 
L 849.998066 216.142935 
L 851.120902 209.767737 
L 851.17194 209.767737 
L 851.274017 210.06799 
L 851.427131 209.167232 
L 851.478169 209.466884 
L 851.580245 209.766836 
L 852.549967 204.703188 
L 852.601006 204.703188 
L 852.75412 204.113107 
L 853.060348 205.292972 
L 853.213462 205.292972 
L 853.366576 204.997194 
L 853.51969 204.997194 
L 854.693565 211.264763 
L 854.846679 211.264763 
L 855.61225 215.211132 
L 855.714326 215.211132 
L 856.275744 217.973427 
L 856.37782 217.356819 
L 856.428858 217.66466 
L 856.939239 220.76006 
L 856.990277 220.448815 
L 857.806885 216.123618 
L 857.959999 216.123618 
L 858.776608 211.858889 
L 858.98076 212.463576 
L 859.031798 212.463576 
L 859.23595 213.677189 
L 859.23595 213.677189 
" clip-path="url(#p4b7951b48c)" style="fill: none; stroke: #1f77b4; stroke-width: 1.5; stroke-linecap: square"/>
   </g>
   <g id="patch_8">
    <path d="M 532.390909 256.32 
L 532.390909 34.56 
" style="fill: none; stroke: #000000; stroke-width: 0.8; stroke-linejoin: miter; stroke-linecap: square"/>
   </g>
   <g id="patch_9">
    <path d="M 874.8 256.32 
L 874.8 34.56 
" style="fill: none; stroke: #000000; stroke-width: 0.8; stroke-linejoin: miter; stroke-linecap: square"/>
   </g>
   <g id="patch_10">
    <path d="M 532.390909 256.32 
L 874.8 256.32 
" style="fill: none; stroke: #000000; stroke-width: 0.8; stroke-linejoin: miter; stroke-linecap: square"/>
   </g>
   <g id="patch_11">
    <path d="M 532.390909 34.56 
L 874.8 34.56 
" style="fill: none; stroke: #000000; stroke-width: 0.8; stroke-linejoin: miter; stroke-linecap: square"/>
   </g>
  </g>
 </g>
 <defs>
  <clipPath id="p421e7a119e">
   <rect x="121.5" y="34.56" width="342.409091" height="221.76"/>
  </clipPath>
  <clipPath id="p4b7951b48c">
   <rect x="532.390909" y="34.56" width="342.409091" height="221.76"/>
  </clipPath>
 </defs>
</svg>
