<?xml version="1.0" encoding="utf-8" standalone="no"?>
<!DOCTYPE svg PUBLIC "-//W3C//DTD SVG 1.1//EN"
  "http://www.w3.org/Graphics/SVG/1.1/DTD/svg11.dtd">
<svg xmlns:xlink="http://www.w3.org/1999/xlink" width="460.8pt" height="345.6pt" viewBox="0 0 460.8 345.6" xmlns="http://www.w3.org/2000/svg" version="1.1">
 <metadata>
  <rdf:RDF xmlns:dc="http://purl.org/dc/elements/1.1/" xmlns:cc="http://creativecommons.org/ns#" xmlns:rdf="http://www.w3.org/1999/02/22-rdf-syntax-ns#">
   <cc:Work>
    <dc:type rdf:resource="http://purl.org/dc/dcmitype/StillImage"/>
    <dc:date>2024-07-08T19:13:00.766515</dc:date>
    <dc:format>image/svg+xml</dc:format>
    <dc:creator>
     <cc:Agent>
      <dc:title>Matplotlib v3.7.2, https://matplotlib.org/</dc:title>
     </cc:Agent>
    </dc:creator>
   </cc:Work>
  </rdf:RDF>
 </metadata>
 <defs>
  <style type="text/css">*{stroke-linejoin: round; stroke-linecap: butt}</style>
 </defs>
 <g id="figure_1">
  <g id="patch_1">
   <path d="M 0 345.6 
L 460.8 345.6 
L 460.8 0 
L 0 0 
z
" style="fill: #ffffff"/>
  </g>
  <g id="axes_1">
   <g id="patch_2">
    <path d="M 57.6 307.584 
L 414.72 307.584 
L 414.72 41.472 
L 57.6 41.472 
z
" style="fill: #ffffff"/>
   </g>
   <g id="patch_3">
    <path d="M 73.832727 307.584 
L 77.783427 307.584 
L 77.783427 302.765749 
L 73.832727 302.765749 
z
" clip-path="url(#pd9d514fb3f)" style="fill: #0504aa; opacity: 0.7"/>
   </g>
   <g id="patch_4">
    <path d="M 78.480609 307.584 
L 82.431309 307.584 
L 82.431309 307.584 
L 78.480609 307.584 
z
" clip-path="url(#pd9d514fb3f)" style="fill: #0504aa; opacity: 0.7"/>
   </g>
   <g id="patch_5">
    <path d="M 83.128491 307.584 
L 87.07919 307.584 
L 87.07919 307.584 
L 83.128491 307.584 
z
" clip-path="url(#pd9d514fb3f)" style="fill: #0504aa; opacity: 0.7"/>
   </g>
   <g id="patch_6">
    <path d="M 87.776373 307.584 
L 91.727072 307.584 
L 91.727072 279.959361 
L 87.776373 279.959361 
z
" clip-path="url(#pd9d514fb3f)" style="fill: #0504aa; opacity: 0.7"/>
   </g>
   <g id="patch_7">
    <path d="M 92.424255 307.584 
L 96.374954 307.584 
L 96.374954 307.584 
L 92.424255 307.584 
z
" clip-path="url(#pd9d514fb3f)" style="fill: #0504aa; opacity: 0.7"/>
   </g>
   <g id="patch_8">
    <path d="M 97.072136 307.584 
L 101.022836 307.584 
L 101.022836 307.584 
L 97.072136 307.584 
z
" clip-path="url(#pd9d514fb3f)" style="fill: #0504aa; opacity: 0.7"/>
   </g>
   <g id="patch_9">
    <path d="M 101.720018 307.584 
L 105.670718 307.584 
L 105.670718 307.584 
L 101.720018 307.584 
z
" clip-path="url(#pd9d514fb3f)" style="fill: #0504aa; opacity: 0.7"/>
   </g>
   <g id="patch_10">
    <path d="M 106.3679 307.584 
L 110.3186 307.584 
L 110.3186 226.316167 
L 106.3679 226.316167 
z
" clip-path="url(#pd9d514fb3f)" style="fill: #0504aa; opacity: 0.7"/>
   </g>
   <g id="patch_11">
    <path d="M 111.015782 307.584 
L 114.966481 307.584 
L 114.966481 307.584 
L 111.015782 307.584 
z
" clip-path="url(#pd9d514fb3f)" style="fill: #0504aa; opacity: 0.7"/>
   </g>
   <g id="patch_12">
    <path d="M 115.663664 307.584 
L 119.614363 307.584 
L 119.614363 307.584 
L 115.663664 307.584 
z
" clip-path="url(#pd9d514fb3f)" style="fill: #0504aa; opacity: 0.7"/>
   </g>
   <g id="patch_13">
    <path d="M 120.311546 307.584 
L 124.262245 307.584 
L 124.262245 153.480274 
L 120.311546 153.480274 
z
" clip-path="url(#pd9d514fb3f)" style="fill: #0504aa; opacity: 0.7"/>
   </g>
   <g id="patch_14">
    <path d="M 124.959427 307.584 
L 128.910127 307.584 
L 128.910127 307.584 
L 124.959427 307.584 
z
" clip-path="url(#pd9d514fb3f)" style="fill: #0504aa; opacity: 0.7"/>
   </g>
   <g id="patch_15">
    <path d="M 129.607309 307.584 
L 133.558009 307.584 
L 133.558009 307.584 
L 129.607309 307.584 
z
" clip-path="url(#pd9d514fb3f)" style="fill: #0504aa; opacity: 0.7"/>
   </g>
   <g id="patch_16">
    <path d="M 134.255191 307.584 
L 138.205891 307.584 
L 138.205891 307.584 
L 134.255191 307.584 
z
" clip-path="url(#pd9d514fb3f)" style="fill: #0504aa; opacity: 0.7"/>
   </g>
   <g id="patch_17">
    <path d="M 138.903073 307.584 
L 142.853772 307.584 
L 142.853772 94.376395 
L 138.903073 94.376395 
z
" clip-path="url(#pd9d514fb3f)" style="fill: #0504aa; opacity: 0.7"/>
   </g>
   <g id="patch_18">
    <path d="M 143.550955 307.584 
L 147.501654 307.584 
L 147.501654 307.584 
L 143.550955 307.584 
z
" clip-path="url(#pd9d514fb3f)" style="fill: #0504aa; opacity: 0.7"/>
   </g>
   <g id="patch_19">
    <path d="M 148.198836 307.584 
L 152.149536 307.584 
L 152.149536 307.584 
L 148.198836 307.584 
z
" clip-path="url(#pd9d514fb3f)" style="fill: #0504aa; opacity: 0.7"/>
   </g>
   <g id="patch_20">
    <path d="M 152.846718 307.584 
L 156.797418 307.584 
L 156.797418 54.144 
L 152.846718 54.144 
z
" clip-path="url(#pd9d514fb3f)" style="fill: #0504aa; opacity: 0.7"/>
   </g>
   <g id="patch_21">
    <path d="M 157.4946 307.584 
L 161.4453 307.584 
L 161.4453 307.584 
L 157.4946 307.584 
z
" clip-path="url(#pd9d514fb3f)" style="fill: #0504aa; opacity: 0.7"/>
   </g>
   <g id="patch_22">
    <path d="M 162.142482 307.584 
L 166.093181 307.584 
L 166.093181 307.584 
L 162.142482 307.584 
z
" clip-path="url(#pd9d514fb3f)" style="fill: #0504aa; opacity: 0.7"/>
   </g>
   <g id="patch_23">
    <path d="M 166.790364 307.584 
L 170.741063 307.584 
L 170.741063 307.584 
L 166.790364 307.584 
z
" clip-path="url(#pd9d514fb3f)" style="fill: #0504aa; opacity: 0.7"/>
   </g>
   <g id="patch_24">
    <path d="M 171.438246 307.584 
L 175.388945 307.584 
L 175.388945 62.01381 
L 171.438246 62.01381 
z
" clip-path="url(#pd9d514fb3f)" style="fill: #0504aa; opacity: 0.7"/>
   </g>
   <g id="patch_25">
    <path d="M 176.086127 307.584 
L 180.036827 307.584 
L 180.036827 307.584 
L 176.086127 307.584 
z
" clip-path="url(#pd9d514fb3f)" style="fill: #0504aa; opacity: 0.7"/>
   </g>
   <g id="patch_26">
    <path d="M 180.734009 307.584 
L 184.684709 307.584 
L 184.684709 307.584 
L 180.734009 307.584 
z
" clip-path="url(#pd9d514fb3f)" style="fill: #0504aa; opacity: 0.7"/>
   </g>
   <g id="patch_27">
    <path d="M 185.381891 307.584 
L 189.332591 307.584 
L 189.332591 87.871757 
L 185.381891 87.871757 
z
" clip-path="url(#pd9d514fb3f)" style="fill: #0504aa; opacity: 0.7"/>
   </g>
   <g id="patch_28">
    <path d="M 190.029773 307.584 
L 193.980472 307.584 
L 193.980472 307.584 
L 190.029773 307.584 
z
" clip-path="url(#pd9d514fb3f)" style="fill: #0504aa; opacity: 0.7"/>
   </g>
   <g id="patch_29">
    <path d="M 194.677655 307.584 
L 198.628354 307.584 
L 198.628354 307.584 
L 194.677655 307.584 
z
" clip-path="url(#pd9d514fb3f)" style="fill: #0504aa; opacity: 0.7"/>
   </g>
   <g id="patch_30">
    <path d="M 199.325537 307.584 
L 203.276236 307.584 
L 203.276236 307.584 
L 199.325537 307.584 
z
" clip-path="url(#pd9d514fb3f)" style="fill: #0504aa; opacity: 0.7"/>
   </g>
   <g id="patch_31">
    <path d="M 203.973418 307.584 
L 207.924118 307.584 
L 207.924118 138.302783 
L 203.973418 138.302783 
z
" clip-path="url(#pd9d514fb3f)" style="fill: #0504aa; opacity: 0.7"/>
   </g>
   <g id="patch_32">
    <path d="M 208.6213 307.584 
L 212.572 307.584 
L 212.572 307.584 
L 208.6213 307.584 
z
" clip-path="url(#pd9d514fb3f)" style="fill: #0504aa; opacity: 0.7"/>
   </g>
   <g id="patch_33">
    <path d="M 213.269182 307.584 
L 217.219882 307.584 
L 217.219882 307.584 
L 213.269182 307.584 
z
" clip-path="url(#pd9d514fb3f)" style="fill: #0504aa; opacity: 0.7"/>
   </g>
   <g id="patch_34">
    <path d="M 217.917064 307.584 
L 221.867763 307.584 
L 221.867763 179.257916 
L 217.917064 179.257916 
z
" clip-path="url(#pd9d514fb3f)" style="fill: #0504aa; opacity: 0.7"/>
   </g>
   <g id="patch_35">
    <path d="M 222.564946 307.584 
L 226.515645 307.584 
L 226.515645 307.584 
L 222.564946 307.584 
z
" clip-path="url(#pd9d514fb3f)" style="fill: #0504aa; opacity: 0.7"/>
   </g>
   <g id="patch_36">
    <path d="M 227.212827 307.584 
L 231.163527 307.584 
L 231.163527 307.584 
L 227.212827 307.584 
z
" clip-path="url(#pd9d514fb3f)" style="fill: #0504aa; opacity: 0.7"/>
   </g>
   <g id="patch_37">
    <path d="M 231.860709 307.584 
L 235.811409 307.584 
L 235.811409 307.584 
L 231.860709 307.584 
z
" clip-path="url(#pd9d514fb3f)" style="fill: #0504aa; opacity: 0.7"/>
   </g>
   <g id="patch_38">
    <path d="M 236.508591 307.584 
L 240.459291 307.584 
L 240.459291 221.016091 
L 236.508591 221.016091 
z
" clip-path="url(#pd9d514fb3f)" style="fill: #0504aa; opacity: 0.7"/>
   </g>
   <g id="patch_39">
    <path d="M 241.156473 307.584 
L 245.107173 307.584 
L 245.107173 307.584 
L 241.156473 307.584 
z
" clip-path="url(#pd9d514fb3f)" style="fill: #0504aa; opacity: 0.7"/>
   </g>
   <g id="patch_40">
    <path d="M 245.804355 307.584 
L 249.755054 307.584 
L 249.755054 307.584 
L 245.804355 307.584 
z
" clip-path="url(#pd9d514fb3f)" style="fill: #0504aa; opacity: 0.7"/>
   </g>
   <g id="patch_41">
    <path d="M 250.452237 307.584 
L 254.402936 307.584 
L 254.402936 253.378677 
L 250.452237 253.378677 
z
" clip-path="url(#pd9d514fb3f)" style="fill: #0504aa; opacity: 0.7"/>
   </g>
   <g id="patch_42">
    <path d="M 255.100118 307.584 
L 259.050818 307.584 
L 259.050818 307.584 
L 255.100118 307.584 
z
" clip-path="url(#pd9d514fb3f)" style="fill: #0504aa; opacity: 0.7"/>
   </g>
   <g id="patch_43">
    <path d="M 259.748 307.584 
L 263.6987 307.584 
L 263.6987 307.584 
L 259.748 307.584 
z
" clip-path="url(#pd9d514fb3f)" style="fill: #0504aa; opacity: 0.7"/>
   </g>
   <g id="patch_44">
    <path d="M 264.395882 307.584 
L 268.346582 307.584 
L 268.346582 307.584 
L 264.395882 307.584 
z
" clip-path="url(#pd9d514fb3f)" style="fill: #0504aa; opacity: 0.7"/>
   </g>
   <g id="patch_45">
    <path d="M 269.043764 307.584 
L 272.994463 307.584 
L 272.994463 278.674494 
L 269.043764 278.674494 
z
" clip-path="url(#pd9d514fb3f)" style="fill: #0504aa; opacity: 0.7"/>
   </g>
   <g id="patch_46">
    <path d="M 273.691646 307.584 
L 277.642345 307.584 
L 277.642345 307.584 
L 273.691646 307.584 
z
" clip-path="url(#pd9d514fb3f)" style="fill: #0504aa; opacity: 0.7"/>
   </g>
   <g id="patch_47">
    <path d="M 278.339528 307.584 
L 282.290227 307.584 
L 282.290227 307.584 
L 278.339528 307.584 
z
" clip-path="url(#pd9d514fb3f)" style="fill: #0504aa; opacity: 0.7"/>
   </g>
   <g id="patch_48">
    <path d="M 282.987409 307.584 
L 286.938109 307.584 
L 286.938109 292.165597 
L 282.987409 292.165597 
z
" clip-path="url(#pd9d514fb3f)" style="fill: #0504aa; opacity: 0.7"/>
   </g>
   <g id="patch_49">
    <path d="M 287.635291 307.584 
L 291.585991 307.584 
L 291.585991 307.584 
L 287.635291 307.584 
z
" clip-path="url(#pd9d514fb3f)" style="fill: #0504aa; opacity: 0.7"/>
   </g>
   <g id="patch_50">
    <path d="M 292.283173 307.584 
L 296.233873 307.584 
L 296.233873 307.584 
L 292.283173 307.584 
z
" clip-path="url(#pd9d514fb3f)" style="fill: #0504aa; opacity: 0.7"/>
   </g>
   <g id="patch_51">
    <path d="M 296.931055 307.584 
L 300.881754 307.584 
L 300.881754 307.584 
L 296.931055 307.584 
z
" clip-path="url(#pd9d514fb3f)" style="fill: #0504aa; opacity: 0.7"/>
   </g>
   <g id="patch_52">
    <path d="M 301.578937 307.584 
L 305.529636 307.584 
L 305.529636 300.597536 
L 301.578937 300.597536 
z
" clip-path="url(#pd9d514fb3f)" style="fill: #0504aa; opacity: 0.7"/>
   </g>
   <g id="patch_53">
    <path d="M 306.226819 307.584 
L 310.177518 307.584 
L 310.177518 307.584 
L 306.226819 307.584 
z
" clip-path="url(#pd9d514fb3f)" style="fill: #0504aa; opacity: 0.7"/>
   </g>
   <g id="patch_54">
    <path d="M 310.8747 307.584 
L 314.8254 307.584 
L 314.8254 307.584 
L 310.8747 307.584 
z
" clip-path="url(#pd9d514fb3f)" style="fill: #0504aa; opacity: 0.7"/>
   </g>
   <g id="patch_55">
    <path d="M 315.522582 307.584 
L 319.473282 307.584 
L 319.473282 305.174875 
L 315.522582 305.174875 
z
" clip-path="url(#pd9d514fb3f)" style="fill: #0504aa; opacity: 0.7"/>
   </g>
   <g id="patch_56">
    <path d="M 320.170464 307.584 
L 324.121164 307.584 
L 324.121164 307.584 
L 320.170464 307.584 
z
" clip-path="url(#pd9d514fb3f)" style="fill: #0504aa; opacity: 0.7"/>
   </g>
   <g id="patch_57">
    <path d="M 324.818346 307.584 
L 328.769045 307.584 
L 328.769045 307.584 
L 324.818346 307.584 
z
" clip-path="url(#pd9d514fb3f)" style="fill: #0504aa; opacity: 0.7"/>
   </g>
   <g id="patch_58">
    <path d="M 329.466228 307.584 
L 333.416927 307.584 
L 333.416927 307.584 
L 329.466228 307.584 
z
" clip-path="url(#pd9d514fb3f)" style="fill: #0504aa; opacity: 0.7"/>
   </g>
   <g id="patch_59">
    <path d="M 334.114109 307.584 
L 338.064809 307.584 
L 338.064809 305.897612 
L 334.114109 305.897612 
z
" clip-path="url(#pd9d514fb3f)" style="fill: #0504aa; opacity: 0.7"/>
   </g>
   <g id="patch_60">
    <path d="M 338.761991 307.584 
L 342.712691 307.584 
L 342.712691 307.584 
L 338.761991 307.584 
z
" clip-path="url(#pd9d514fb3f)" style="fill: #0504aa; opacity: 0.7"/>
   </g>
   <g id="patch_61">
    <path d="M 343.409873 307.584 
L 347.360573 307.584 
L 347.360573 307.584 
L 343.409873 307.584 
z
" clip-path="url(#pd9d514fb3f)" style="fill: #0504aa; opacity: 0.7"/>
   </g>
   <g id="patch_62">
    <path d="M 348.057755 307.584 
L 352.008454 307.584 
L 352.008454 306.861262 
L 348.057755 306.861262 
z
" clip-path="url(#pd9d514fb3f)" style="fill: #0504aa; opacity: 0.7"/>
   </g>
   <g id="patch_63">
    <path d="M 352.705637 307.584 
L 356.656336 307.584 
L 356.656336 307.584 
L 352.705637 307.584 
z
" clip-path="url(#pd9d514fb3f)" style="fill: #0504aa; opacity: 0.7"/>
   </g>
   <g id="patch_64">
    <path d="M 357.353519 307.584 
L 361.304218 307.584 
L 361.304218 307.584 
L 357.353519 307.584 
z
" clip-path="url(#pd9d514fb3f)" style="fill: #0504aa; opacity: 0.7"/>
   </g>
   <g id="patch_65">
    <path d="M 362.0014 307.584 
L 365.9521 307.584 
L 365.9521 307.584 
L 362.0014 307.584 
z
" clip-path="url(#pd9d514fb3f)" style="fill: #0504aa; opacity: 0.7"/>
   </g>
   <g id="patch_66">
    <path d="M 366.649282 307.584 
L 370.599982 307.584 
L 370.599982 307.262783 
L 366.649282 307.262783 
z
" clip-path="url(#pd9d514fb3f)" style="fill: #0504aa; opacity: 0.7"/>
   </g>
   <g id="patch_67">
    <path d="M 371.297164 307.584 
L 375.247864 307.584 
L 375.247864 307.584 
L 371.297164 307.584 
z
" clip-path="url(#pd9d514fb3f)" style="fill: #0504aa; opacity: 0.7"/>
   </g>
   <g id="patch_68">
    <path d="M 375.945046 307.584 
L 379.895745 307.584 
L 379.895745 307.584 
L 375.945046 307.584 
z
" clip-path="url(#pd9d514fb3f)" style="fill: #0504aa; opacity: 0.7"/>
   </g>
   <g id="patch_69">
    <path d="M 380.592928 307.584 
L 384.543627 307.584 
L 384.543627 307.503696 
L 380.592928 307.503696 
z
" clip-path="url(#pd9d514fb3f)" style="fill: #0504aa; opacity: 0.7"/>
   </g>
   <g id="patch_70">
    <path d="M 385.24081 307.584 
L 389.191509 307.584 
L 389.191509 307.584 
L 385.24081 307.584 
z
" clip-path="url(#pd9d514fb3f)" style="fill: #0504aa; opacity: 0.7"/>
   </g>
   <g id="patch_71">
    <path d="M 389.888691 307.584 
L 393.839391 307.584 
L 393.839391 307.584 
L 389.888691 307.584 
z
" clip-path="url(#pd9d514fb3f)" style="fill: #0504aa; opacity: 0.7"/>
   </g>
   <g id="patch_72">
    <path d="M 394.536573 307.584 
L 398.487273 307.584 
L 398.487273 307.503696 
L 394.536573 307.503696 
z
" clip-path="url(#pd9d514fb3f)" style="fill: #0504aa; opacity: 0.7"/>
   </g>
   <g id="matplotlib.axis_1">
    <g id="xtick_1">
     <g id="line2d_1">
      <defs>
       <path id="mefd3538e81" d="M 0 0 
L 0 3.5 
" style="stroke: #000000; stroke-width: 0.8"/>
      </defs>
      <g>
       <use xlink:href="#mefd3538e81" x="73.484136" y="307.584" style="stroke: #000000; stroke-width: 0.8"/>
      </g>
     </g>
     <g id="text_1">
      <!-- 1.0 -->
      <g transform="translate(65.532574 322.182437) scale(0.1 -0.1)">
       <defs>
        <path id="DejaVuSans-31" d="M 794 531 
L 1825 531 
L 1825 4091 
L 703 3866 
L 703 4441 
L 1819 4666 
L 2450 4666 
L 2450 531 
L 3481 531 
L 3481 0 
L 794 0 
L 794 531 
z
" transform="scale(0.015625)"/>
        <path id="DejaVuSans-2e" d="M 684 794 
L 1344 794 
L 1344 0 
L 684 0 
L 684 794 
z
" transform="scale(0.015625)"/>
        <path id="DejaVuSans-30" d="M 2034 4250 
Q 1547 4250 1301 3770 
Q 1056 3291 1056 2328 
Q 1056 1369 1301 889 
Q 1547 409 2034 409 
Q 2525 409 2770 889 
Q 3016 1369 3016 2328 
Q 3016 3291 2770 3770 
Q 2525 4250 2034 4250 
z
M 2034 4750 
Q 2819 4750 3233 4129 
Q 3647 3509 3647 2328 
Q 3647 1150 3233 529 
Q 2819 -91 2034 -91 
Q 1250 -91 836 529 
Q 422 1150 422 2328 
Q 422 3509 836 4129 
Q 1250 4750 2034 4750 
z
" transform="scale(0.015625)"/>
       </defs>
       <use xlink:href="#DejaVuSans-31"/>
       <use xlink:href="#DejaVuSans-2e" x="63.623047"/>
       <use xlink:href="#DejaVuSans-30" x="95.410156"/>
      </g>
     </g>
    </g>
    <g id="xtick_2">
     <g id="line2d_2">
      <g>
       <use xlink:href="#mefd3538e81" x="122.286895" y="307.584" style="stroke: #000000; stroke-width: 0.8"/>
      </g>
     </g>
     <g id="text_2">
      <!-- 1.5 -->
      <g transform="translate(114.335333 322.182437) scale(0.1 -0.1)">
       <defs>
        <path id="DejaVuSans-35" d="M 691 4666 
L 3169 4666 
L 3169 4134 
L 1269 4134 
L 1269 2991 
Q 1406 3038 1543 3061 
Q 1681 3084 1819 3084 
Q 2600 3084 3056 2656 
Q 3513 2228 3513 1497 
Q 3513 744 3044 326 
Q 2575 -91 1722 -91 
Q 1428 -91 1123 -41 
Q 819 9 494 109 
L 494 744 
Q 775 591 1075 516 
Q 1375 441 1709 441 
Q 2250 441 2565 725 
Q 2881 1009 2881 1497 
Q 2881 1984 2565 2268 
Q 2250 2553 1709 2553 
Q 1456 2553 1204 2497 
Q 953 2441 691 2322 
L 691 4666 
z
" transform="scale(0.015625)"/>
       </defs>
       <use xlink:href="#DejaVuSans-31"/>
       <use xlink:href="#DejaVuSans-2e" x="63.623047"/>
       <use xlink:href="#DejaVuSans-35" x="95.410156"/>
      </g>
     </g>
    </g>
    <g id="xtick_3">
     <g id="line2d_3">
      <g>
       <use xlink:href="#mefd3538e81" x="171.089654" y="307.584" style="stroke: #000000; stroke-width: 0.8"/>
      </g>
     </g>
     <g id="text_3">
      <!-- 2.0 -->
      <g transform="translate(163.138092 322.182437) scale(0.1 -0.1)">
       <defs>
        <path id="DejaVuSans-32" d="M 1228 531 
L 3431 531 
L 3431 0 
L 469 0 
L 469 531 
Q 828 903 1448 1529 
Q 2069 2156 2228 2338 
Q 2531 2678 2651 2914 
Q 2772 3150 2772 3378 
Q 2772 3750 2511 3984 
Q 2250 4219 1831 4219 
Q 1534 4219 1204 4116 
Q 875 4013 500 3803 
L 500 4441 
Q 881 4594 1212 4672 
Q 1544 4750 1819 4750 
Q 2544 4750 2975 4387 
Q 3406 4025 3406 3419 
Q 3406 3131 3298 2873 
Q 3191 2616 2906 2266 
Q 2828 2175 2409 1742 
Q 1991 1309 1228 531 
z
" transform="scale(0.015625)"/>
       </defs>
       <use xlink:href="#DejaVuSans-32"/>
       <use xlink:href="#DejaVuSans-2e" x="63.623047"/>
       <use xlink:href="#DejaVuSans-30" x="95.410156"/>
      </g>
     </g>
    </g>
    <g id="xtick_4">
     <g id="line2d_4">
      <g>
       <use xlink:href="#mefd3538e81" x="219.892414" y="307.584" style="stroke: #000000; stroke-width: 0.8"/>
      </g>
     </g>
     <g id="text_4">
      <!-- 2.5 -->
      <g transform="translate(211.940851 322.182437) scale(0.1 -0.1)">
       <use xlink:href="#DejaVuSans-32"/>
       <use xlink:href="#DejaVuSans-2e" x="63.623047"/>
       <use xlink:href="#DejaVuSans-35" x="95.410156"/>
      </g>
     </g>
    </g>
    <g id="xtick_5">
     <g id="line2d_5">
      <g>
       <use xlink:href="#mefd3538e81" x="268.695173" y="307.584" style="stroke: #000000; stroke-width: 0.8"/>
      </g>
     </g>
     <g id="text_5">
      <!-- 3.0 -->
      <g transform="translate(260.74361 322.182437) scale(0.1 -0.1)">
       <defs>
        <path id="DejaVuSans-33" d="M 2597 2516 
Q 3050 2419 3304 2112 
Q 3559 1806 3559 1356 
Q 3559 666 3084 287 
Q 2609 -91 1734 -91 
Q 1441 -91 1130 -33 
Q 819 25 488 141 
L 488 750 
Q 750 597 1062 519 
Q 1375 441 1716 441 
Q 2309 441 2620 675 
Q 2931 909 2931 1356 
Q 2931 1769 2642 2001 
Q 2353 2234 1838 2234 
L 1294 2234 
L 1294 2753 
L 1863 2753 
Q 2328 2753 2575 2939 
Q 2822 3125 2822 3475 
Q 2822 3834 2567 4026 
Q 2313 4219 1838 4219 
Q 1578 4219 1281 4162 
Q 984 4106 628 3988 
L 628 4550 
Q 988 4650 1302 4700 
Q 1616 4750 1894 4750 
Q 2613 4750 3031 4423 
Q 3450 4097 3450 3541 
Q 3450 3153 3228 2886 
Q 3006 2619 2597 2516 
z
" transform="scale(0.015625)"/>
       </defs>
       <use xlink:href="#DejaVuSans-33"/>
       <use xlink:href="#DejaVuSans-2e" x="63.623047"/>
       <use xlink:href="#DejaVuSans-30" x="95.410156"/>
      </g>
     </g>
    </g>
    <g id="xtick_6">
     <g id="line2d_6">
      <g>
       <use xlink:href="#mefd3538e81" x="317.497932" y="307.584" style="stroke: #000000; stroke-width: 0.8"/>
      </g>
     </g>
     <g id="text_6">
      <!-- 3.5 -->
      <g transform="translate(309.546369 322.182437) scale(0.1 -0.1)">
       <use xlink:href="#DejaVuSans-33"/>
       <use xlink:href="#DejaVuSans-2e" x="63.623047"/>
       <use xlink:href="#DejaVuSans-35" x="95.410156"/>
      </g>
     </g>
    </g>
    <g id="xtick_7">
     <g id="line2d_7">
      <g>
       <use xlink:href="#mefd3538e81" x="366.300691" y="307.584" style="stroke: #000000; stroke-width: 0.8"/>
      </g>
     </g>
     <g id="text_7">
      <!-- 4.0 -->
      <g transform="translate(358.349129 322.182437) scale(0.1 -0.1)">
       <defs>
        <path id="DejaVuSans-34" d="M 2419 4116 
L 825 1625 
L 2419 1625 
L 2419 4116 
z
M 2253 4666 
L 3047 4666 
L 3047 1625 
L 3713 1625 
L 3713 1100 
L 3047 1100 
L 3047 0 
L 2419 0 
L 2419 1100 
L 313 1100 
L 313 1709 
L 2253 4666 
z
" transform="scale(0.015625)"/>
       </defs>
       <use xlink:href="#DejaVuSans-34"/>
       <use xlink:href="#DejaVuSans-2e" x="63.623047"/>
       <use xlink:href="#DejaVuSans-30" x="95.410156"/>
      </g>
     </g>
    </g>
    <g id="text_8">
     <!-- Generator Average Degree, synthetic graphs -->
     <g transform="translate(123.81625 335.860562) scale(0.1 -0.1)">
      <defs>
       <path id="DejaVuSans-47" d="M 3809 666 
L 3809 1919 
L 2778 1919 
L 2778 2438 
L 4434 2438 
L 4434 434 
Q 4069 175 3628 42 
Q 3188 -91 2688 -91 
Q 1594 -91 976 548 
Q 359 1188 359 2328 
Q 359 3472 976 4111 
Q 1594 4750 2688 4750 
Q 3144 4750 3555 4637 
Q 3966 4525 4313 4306 
L 4313 3634 
Q 3963 3931 3569 4081 
Q 3175 4231 2741 4231 
Q 1884 4231 1454 3753 
Q 1025 3275 1025 2328 
Q 1025 1384 1454 906 
Q 1884 428 2741 428 
Q 3075 428 3337 486 
Q 3600 544 3809 666 
z
" transform="scale(0.015625)"/>
       <path id="DejaVuSans-65" d="M 3597 1894 
L 3597 1613 
L 953 1613 
Q 991 1019 1311 708 
Q 1631 397 2203 397 
Q 2534 397 2845 478 
Q 3156 559 3463 722 
L 3463 178 
Q 3153 47 2828 -22 
Q 2503 -91 2169 -91 
Q 1331 -91 842 396 
Q 353 884 353 1716 
Q 353 2575 817 3079 
Q 1281 3584 2069 3584 
Q 2775 3584 3186 3129 
Q 3597 2675 3597 1894 
z
M 3022 2063 
Q 3016 2534 2758 2815 
Q 2500 3097 2075 3097 
Q 1594 3097 1305 2825 
Q 1016 2553 972 2059 
L 3022 2063 
z
" transform="scale(0.015625)"/>
       <path id="DejaVuSans-6e" d="M 3513 2113 
L 3513 0 
L 2938 0 
L 2938 2094 
Q 2938 2591 2744 2837 
Q 2550 3084 2163 3084 
Q 1697 3084 1428 2787 
Q 1159 2491 1159 1978 
L 1159 0 
L 581 0 
L 581 3500 
L 1159 3500 
L 1159 2956 
Q 1366 3272 1645 3428 
Q 1925 3584 2291 3584 
Q 2894 3584 3203 3211 
Q 3513 2838 3513 2113 
z
" transform="scale(0.015625)"/>
       <path id="DejaVuSans-72" d="M 2631 2963 
Q 2534 3019 2420 3045 
Q 2306 3072 2169 3072 
Q 1681 3072 1420 2755 
Q 1159 2438 1159 1844 
L 1159 0 
L 581 0 
L 581 3500 
L 1159 3500 
L 1159 2956 
Q 1341 3275 1631 3429 
Q 1922 3584 2338 3584 
Q 2397 3584 2469 3576 
Q 2541 3569 2628 3553 
L 2631 2963 
z
" transform="scale(0.015625)"/>
       <path id="DejaVuSans-61" d="M 2194 1759 
Q 1497 1759 1228 1600 
Q 959 1441 959 1056 
Q 959 750 1161 570 
Q 1363 391 1709 391 
Q 2188 391 2477 730 
Q 2766 1069 2766 1631 
L 2766 1759 
L 2194 1759 
z
M 3341 1997 
L 3341 0 
L 2766 0 
L 2766 531 
Q 2569 213 2275 61 
Q 1981 -91 1556 -91 
Q 1019 -91 701 211 
Q 384 513 384 1019 
Q 384 1609 779 1909 
Q 1175 2209 1959 2209 
L 2766 2209 
L 2766 2266 
Q 2766 2663 2505 2880 
Q 2244 3097 1772 3097 
Q 1472 3097 1187 3025 
Q 903 2953 641 2809 
L 641 3341 
Q 956 3463 1253 3523 
Q 1550 3584 1831 3584 
Q 2591 3584 2966 3190 
Q 3341 2797 3341 1997 
z
" transform="scale(0.015625)"/>
       <path id="DejaVuSans-74" d="M 1172 4494 
L 1172 3500 
L 2356 3500 
L 2356 3053 
L 1172 3053 
L 1172 1153 
Q 1172 725 1289 603 
Q 1406 481 1766 481 
L 2356 481 
L 2356 0 
L 1766 0 
Q 1100 0 847 248 
Q 594 497 594 1153 
L 594 3053 
L 172 3053 
L 172 3500 
L 594 3500 
L 594 4494 
L 1172 4494 
z
" transform="scale(0.015625)"/>
       <path id="DejaVuSans-6f" d="M 1959 3097 
Q 1497 3097 1228 2736 
Q 959 2375 959 1747 
Q 959 1119 1226 758 
Q 1494 397 1959 397 
Q 2419 397 2687 759 
Q 2956 1122 2956 1747 
Q 2956 2369 2687 2733 
Q 2419 3097 1959 3097 
z
M 1959 3584 
Q 2709 3584 3137 3096 
Q 3566 2609 3566 1747 
Q 3566 888 3137 398 
Q 2709 -91 1959 -91 
Q 1206 -91 779 398 
Q 353 888 353 1747 
Q 353 2609 779 3096 
Q 1206 3584 1959 3584 
z
" transform="scale(0.015625)"/>
       <path id="DejaVuSans-20" transform="scale(0.015625)"/>
       <path id="DejaVuSans-41" d="M 2188 4044 
L 1331 1722 
L 3047 1722 
L 2188 4044 
z
M 1831 4666 
L 2547 4666 
L 4325 0 
L 3669 0 
L 3244 1197 
L 1141 1197 
L 716 0 
L 50 0 
L 1831 4666 
z
" transform="scale(0.015625)"/>
       <path id="DejaVuSans-76" d="M 191 3500 
L 800 3500 
L 1894 563 
L 2988 3500 
L 3597 3500 
L 2284 0 
L 1503 0 
L 191 3500 
z
" transform="scale(0.015625)"/>
       <path id="DejaVuSans-67" d="M 2906 1791 
Q 2906 2416 2648 2759 
Q 2391 3103 1925 3103 
Q 1463 3103 1205 2759 
Q 947 2416 947 1791 
Q 947 1169 1205 825 
Q 1463 481 1925 481 
Q 2391 481 2648 825 
Q 2906 1169 2906 1791 
z
M 3481 434 
Q 3481 -459 3084 -895 
Q 2688 -1331 1869 -1331 
Q 1566 -1331 1297 -1286 
Q 1028 -1241 775 -1147 
L 775 -588 
Q 1028 -725 1275 -790 
Q 1522 -856 1778 -856 
Q 2344 -856 2625 -561 
Q 2906 -266 2906 331 
L 2906 616 
Q 2728 306 2450 153 
Q 2172 0 1784 0 
Q 1141 0 747 490 
Q 353 981 353 1791 
Q 353 2603 747 3093 
Q 1141 3584 1784 3584 
Q 2172 3584 2450 3431 
Q 2728 3278 2906 2969 
L 2906 3500 
L 3481 3500 
L 3481 434 
z
" transform="scale(0.015625)"/>
       <path id="DejaVuSans-44" d="M 1259 4147 
L 1259 519 
L 2022 519 
Q 2988 519 3436 956 
Q 3884 1394 3884 2338 
Q 3884 3275 3436 3711 
Q 2988 4147 2022 4147 
L 1259 4147 
z
M 628 4666 
L 1925 4666 
Q 3281 4666 3915 4102 
Q 4550 3538 4550 2338 
Q 4550 1131 3912 565 
Q 3275 0 1925 0 
L 628 0 
L 628 4666 
z
" transform="scale(0.015625)"/>
       <path id="DejaVuSans-2c" d="M 750 794 
L 1409 794 
L 1409 256 
L 897 -744 
L 494 -744 
L 750 256 
L 750 794 
z
" transform="scale(0.015625)"/>
       <path id="DejaVuSans-73" d="M 2834 3397 
L 2834 2853 
Q 2591 2978 2328 3040 
Q 2066 3103 1784 3103 
Q 1356 3103 1142 2972 
Q 928 2841 928 2578 
Q 928 2378 1081 2264 
Q 1234 2150 1697 2047 
L 1894 2003 
Q 2506 1872 2764 1633 
Q 3022 1394 3022 966 
Q 3022 478 2636 193 
Q 2250 -91 1575 -91 
Q 1294 -91 989 -36 
Q 684 19 347 128 
L 347 722 
Q 666 556 975 473 
Q 1284 391 1588 391 
Q 1994 391 2212 530 
Q 2431 669 2431 922 
Q 2431 1156 2273 1281 
Q 2116 1406 1581 1522 
L 1381 1569 
Q 847 1681 609 1914 
Q 372 2147 372 2553 
Q 372 3047 722 3315 
Q 1072 3584 1716 3584 
Q 2034 3584 2315 3537 
Q 2597 3491 2834 3397 
z
" transform="scale(0.015625)"/>
       <path id="DejaVuSans-79" d="M 2059 -325 
Q 1816 -950 1584 -1140 
Q 1353 -1331 966 -1331 
L 506 -1331 
L 506 -850 
L 844 -850 
Q 1081 -850 1212 -737 
Q 1344 -625 1503 -206 
L 1606 56 
L 191 3500 
L 800 3500 
L 1894 763 
L 2988 3500 
L 3597 3500 
L 2059 -325 
z
" transform="scale(0.015625)"/>
       <path id="DejaVuSans-68" d="M 3513 2113 
L 3513 0 
L 2938 0 
L 2938 2094 
Q 2938 2591 2744 2837 
Q 2550 3084 2163 3084 
Q 1697 3084 1428 2787 
Q 1159 2491 1159 1978 
L 1159 0 
L 581 0 
L 581 4863 
L 1159 4863 
L 1159 2956 
Q 1366 3272 1645 3428 
Q 1925 3584 2291 3584 
Q 2894 3584 3203 3211 
Q 3513 2838 3513 2113 
z
" transform="scale(0.015625)"/>
       <path id="DejaVuSans-69" d="M 603 3500 
L 1178 3500 
L 1178 0 
L 603 0 
L 603 3500 
z
M 603 4863 
L 1178 4863 
L 1178 4134 
L 603 4134 
L 603 4863 
z
" transform="scale(0.015625)"/>
       <path id="DejaVuSans-63" d="M 3122 3366 
L 3122 2828 
Q 2878 2963 2633 3030 
Q 2388 3097 2138 3097 
Q 1578 3097 1268 2742 
Q 959 2388 959 1747 
Q 959 1106 1268 751 
Q 1578 397 2138 397 
Q 2388 397 2633 464 
Q 2878 531 3122 666 
L 3122 134 
Q 2881 22 2623 -34 
Q 2366 -91 2075 -91 
Q 1284 -91 818 406 
Q 353 903 353 1747 
Q 353 2603 823 3093 
Q 1294 3584 2113 3584 
Q 2378 3584 2631 3529 
Q 2884 3475 3122 3366 
z
" transform="scale(0.015625)"/>
       <path id="DejaVuSans-70" d="M 1159 525 
L 1159 -1331 
L 581 -1331 
L 581 3500 
L 1159 3500 
L 1159 2969 
Q 1341 3281 1617 3432 
Q 1894 3584 2278 3584 
Q 2916 3584 3314 3078 
Q 3713 2572 3713 1747 
Q 3713 922 3314 415 
Q 2916 -91 2278 -91 
Q 1894 -91 1617 61 
Q 1341 213 1159 525 
z
M 3116 1747 
Q 3116 2381 2855 2742 
Q 2594 3103 2138 3103 
Q 1681 3103 1420 2742 
Q 1159 2381 1159 1747 
Q 1159 1113 1420 752 
Q 1681 391 2138 391 
Q 2594 391 2855 752 
Q 3116 1113 3116 1747 
z
" transform="scale(0.015625)"/>
      </defs>
      <use xlink:href="#DejaVuSans-47"/>
      <use xlink:href="#DejaVuSans-65" x="77.490234"/>
      <use xlink:href="#DejaVuSans-6e" x="139.013672"/>
      <use xlink:href="#DejaVuSans-65" x="202.392578"/>
      <use xlink:href="#DejaVuSans-72" x="263.916016"/>
      <use xlink:href="#DejaVuSans-61" x="305.029297"/>
      <use xlink:href="#DejaVuSans-74" x="366.308594"/>
      <use xlink:href="#DejaVuSans-6f" x="405.517578"/>
      <use xlink:href="#DejaVuSans-72" x="466.699219"/>
      <use xlink:href="#DejaVuSans-20" x="507.8125"/>
      <use xlink:href="#DejaVuSans-41" x="539.599609"/>
      <use xlink:href="#DejaVuSans-76" x="602.132812"/>
      <use xlink:href="#DejaVuSans-65" x="661.3125"/>
      <use xlink:href="#DejaVuSans-72" x="722.835938"/>
      <use xlink:href="#DejaVuSans-61" x="763.949219"/>
      <use xlink:href="#DejaVuSans-67" x="825.228516"/>
      <use xlink:href="#DejaVuSans-65" x="888.705078"/>
      <use xlink:href="#DejaVuSans-20" x="950.228516"/>
      <use xlink:href="#DejaVuSans-44" x="982.015625"/>
      <use xlink:href="#DejaVuSans-65" x="1059.017578"/>
      <use xlink:href="#DejaVuSans-67" x="1120.541016"/>
      <use xlink:href="#DejaVuSans-72" x="1184.017578"/>
      <use xlink:href="#DejaVuSans-65" x="1222.880859"/>
      <use xlink:href="#DejaVuSans-65" x="1284.404297"/>
      <use xlink:href="#DejaVuSans-2c" x="1345.927734"/>
      <use xlink:href="#DejaVuSans-20" x="1377.714844"/>
      <use xlink:href="#DejaVuSans-73" x="1409.501953"/>
      <use xlink:href="#DejaVuSans-79" x="1461.601562"/>
      <use xlink:href="#DejaVuSans-6e" x="1520.78125"/>
      <use xlink:href="#DejaVuSans-74" x="1584.160156"/>
      <use xlink:href="#DejaVuSans-68" x="1623.369141"/>
      <use xlink:href="#DejaVuSans-65" x="1686.748047"/>
      <use xlink:href="#DejaVuSans-74" x="1748.271484"/>
      <use xlink:href="#DejaVuSans-69" x="1787.480469"/>
      <use xlink:href="#DejaVuSans-63" x="1815.263672"/>
      <use xlink:href="#DejaVuSans-20" x="1870.244141"/>
      <use xlink:href="#DejaVuSans-67" x="1902.03125"/>
      <use xlink:href="#DejaVuSans-72" x="1965.507812"/>
      <use xlink:href="#DejaVuSans-61" x="2006.621094"/>
      <use xlink:href="#DejaVuSans-70" x="2067.900391"/>
      <use xlink:href="#DejaVuSans-68" x="2131.376953"/>
      <use xlink:href="#DejaVuSans-73" x="2194.755859"/>
     </g>
    </g>
   </g>
   <g id="matplotlib.axis_2">
    <g id="ytick_1">
     <g id="line2d_8">
      <path d="M 57.6 307.584 
L 414.72 307.584 
" clip-path="url(#pd9d514fb3f)" style="fill: none; stroke: #b0b0b0; stroke-opacity: 0.75; stroke-width: 0.8; stroke-linecap: square"/>
     </g>
     <g id="line2d_9">
      <defs>
       <path id="m0ffd4599c7" d="M 0 0 
L -3.5 0 
" style="stroke: #000000; stroke-width: 0.8"/>
      </defs>
      <g>
       <use xlink:href="#m0ffd4599c7" x="57.6" y="307.584" style="stroke: #000000; stroke-width: 0.8"/>
      </g>
     </g>
     <g id="text_9">
      <!-- 0 -->
      <g transform="translate(44.2375 311.383219) scale(0.1 -0.1)">
       <use xlink:href="#DejaVuSans-30"/>
      </g>
     </g>
    </g>
    <g id="ytick_2">
     <g id="line2d_10">
      <path d="M 57.6 267.431909 
L 414.72 267.431909 
" clip-path="url(#pd9d514fb3f)" style="fill: none; stroke: #b0b0b0; stroke-opacity: 0.75; stroke-width: 0.8; stroke-linecap: square"/>
     </g>
     <g id="line2d_11">
      <g>
       <use xlink:href="#m0ffd4599c7" x="57.6" y="267.431909" style="stroke: #000000; stroke-width: 0.8"/>
      </g>
     </g>
     <g id="text_10">
      <!-- 500 -->
      <g transform="translate(31.5125 271.231127) scale(0.1 -0.1)">
       <use xlink:href="#DejaVuSans-35"/>
       <use xlink:href="#DejaVuSans-30" x="63.623047"/>
       <use xlink:href="#DejaVuSans-30" x="127.246094"/>
      </g>
     </g>
    </g>
    <g id="ytick_3">
     <g id="line2d_12">
      <path d="M 57.6 227.279817 
L 414.72 227.279817 
" clip-path="url(#pd9d514fb3f)" style="fill: none; stroke: #b0b0b0; stroke-opacity: 0.75; stroke-width: 0.8; stroke-linecap: square"/>
     </g>
     <g id="line2d_13">
      <g>
       <use xlink:href="#m0ffd4599c7" x="57.6" y="227.279817" style="stroke: #000000; stroke-width: 0.8"/>
      </g>
     </g>
     <g id="text_11">
      <!-- 1000 -->
      <g transform="translate(25.15 231.079036) scale(0.1 -0.1)">
       <use xlink:href="#DejaVuSans-31"/>
       <use xlink:href="#DejaVuSans-30" x="63.623047"/>
       <use xlink:href="#DejaVuSans-30" x="127.246094"/>
       <use xlink:href="#DejaVuSans-30" x="190.869141"/>
      </g>
     </g>
    </g>
    <g id="ytick_4">
     <g id="line2d_14">
      <path d="M 57.6 187.127726 
L 414.72 187.127726 
" clip-path="url(#pd9d514fb3f)" style="fill: none; stroke: #b0b0b0; stroke-opacity: 0.75; stroke-width: 0.8; stroke-linecap: square"/>
     </g>
     <g id="line2d_15">
      <g>
       <use xlink:href="#m0ffd4599c7" x="57.6" y="187.127726" style="stroke: #000000; stroke-width: 0.8"/>
      </g>
     </g>
     <g id="text_12">
      <!-- 1500 -->
      <g transform="translate(25.15 190.926945) scale(0.1 -0.1)">
       <use xlink:href="#DejaVuSans-31"/>
       <use xlink:href="#DejaVuSans-35" x="63.623047"/>
       <use xlink:href="#DejaVuSans-30" x="127.246094"/>
       <use xlink:href="#DejaVuSans-30" x="190.869141"/>
      </g>
     </g>
    </g>
    <g id="ytick_5">
     <g id="line2d_16">
      <path d="M 57.6 146.975635 
L 414.72 146.975635 
" clip-path="url(#pd9d514fb3f)" style="fill: none; stroke: #b0b0b0; stroke-opacity: 0.75; stroke-width: 0.8; stroke-linecap: square"/>
     </g>
     <g id="line2d_17">
      <g>
       <use xlink:href="#m0ffd4599c7" x="57.6" y="146.975635" style="stroke: #000000; stroke-width: 0.8"/>
      </g>
     </g>
     <g id="text_13">
      <!-- 2000 -->
      <g transform="translate(25.15 150.774854) scale(0.1 -0.1)">
       <use xlink:href="#DejaVuSans-32"/>
       <use xlink:href="#DejaVuSans-30" x="63.623047"/>
       <use xlink:href="#DejaVuSans-30" x="127.246094"/>
       <use xlink:href="#DejaVuSans-30" x="190.869141"/>
      </g>
     </g>
    </g>
    <g id="ytick_6">
     <g id="line2d_18">
      <path d="M 57.6 106.823544 
L 414.72 106.823544 
" clip-path="url(#pd9d514fb3f)" style="fill: none; stroke: #b0b0b0; stroke-opacity: 0.75; stroke-width: 0.8; stroke-linecap: square"/>
     </g>
     <g id="line2d_19">
      <g>
       <use xlink:href="#m0ffd4599c7" x="57.6" y="106.823544" style="stroke: #000000; stroke-width: 0.8"/>
      </g>
     </g>
     <g id="text_14">
      <!-- 2500 -->
      <g transform="translate(25.15 110.622762) scale(0.1 -0.1)">
       <use xlink:href="#DejaVuSans-32"/>
       <use xlink:href="#DejaVuSans-35" x="63.623047"/>
       <use xlink:href="#DejaVuSans-30" x="127.246094"/>
       <use xlink:href="#DejaVuSans-30" x="190.869141"/>
      </g>
     </g>
    </g>
    <g id="ytick_7">
     <g id="line2d_20">
      <path d="M 57.6 66.671452 
L 414.72 66.671452 
" clip-path="url(#pd9d514fb3f)" style="fill: none; stroke: #b0b0b0; stroke-opacity: 0.75; stroke-width: 0.8; stroke-linecap: square"/>
     </g>
     <g id="line2d_21">
      <g>
       <use xlink:href="#m0ffd4599c7" x="57.6" y="66.671452" style="stroke: #000000; stroke-width: 0.8"/>
      </g>
     </g>
     <g id="text_15">
      <!-- 3000 -->
      <g transform="translate(25.15 70.470671) scale(0.1 -0.1)">
       <use xlink:href="#DejaVuSans-33"/>
       <use xlink:href="#DejaVuSans-30" x="63.623047"/>
       <use xlink:href="#DejaVuSans-30" x="127.246094"/>
       <use xlink:href="#DejaVuSans-30" x="190.869141"/>
      </g>
     </g>
    </g>
    <g id="text_16">
     <!-- frequency -->
     <g transform="translate(19.070312 199.604562) rotate(-90) scale(0.1 -0.1)">
      <defs>
       <path id="DejaVuSans-66" d="M 2375 4863 
L 2375 4384 
L 1825 4384 
Q 1516 4384 1395 4259 
Q 1275 4134 1275 3809 
L 1275 3500 
L 2222 3500 
L 2222 3053 
L 1275 3053 
L 1275 0 
L 697 0 
L 697 3053 
L 147 3053 
L 147 3500 
L 697 3500 
L 697 3744 
Q 697 4328 969 4595 
Q 1241 4863 1831 4863 
L 2375 4863 
z
" transform="scale(0.015625)"/>
       <path id="DejaVuSans-71" d="M 947 1747 
Q 947 1113 1208 752 
Q 1469 391 1925 391 
Q 2381 391 2643 752 
Q 2906 1113 2906 1747 
Q 2906 2381 2643 2742 
Q 2381 3103 1925 3103 
Q 1469 3103 1208 2742 
Q 947 2381 947 1747 
z
M 2906 525 
Q 2725 213 2448 61 
Q 2172 -91 1784 -91 
Q 1150 -91 751 415 
Q 353 922 353 1747 
Q 353 2572 751 3078 
Q 1150 3584 1784 3584 
Q 2172 3584 2448 3432 
Q 2725 3281 2906 2969 
L 2906 3500 
L 3481 3500 
L 3481 -1331 
L 2906 -1331 
L 2906 525 
z
" transform="scale(0.015625)"/>
       <path id="DejaVuSans-75" d="M 544 1381 
L 544 3500 
L 1119 3500 
L 1119 1403 
Q 1119 906 1312 657 
Q 1506 409 1894 409 
Q 2359 409 2629 706 
Q 2900 1003 2900 1516 
L 2900 3500 
L 3475 3500 
L 3475 0 
L 2900 0 
L 2900 538 
Q 2691 219 2414 64 
Q 2138 -91 1772 -91 
Q 1169 -91 856 284 
Q 544 659 544 1381 
z
M 1991 3584 
L 1991 3584 
z
" transform="scale(0.015625)"/>
      </defs>
      <use xlink:href="#DejaVuSans-66"/>
      <use xlink:href="#DejaVuSans-72" x="35.205078"/>
      <use xlink:href="#DejaVuSans-65" x="74.068359"/>
      <use xlink:href="#DejaVuSans-71" x="135.591797"/>
      <use xlink:href="#DejaVuSans-75" x="199.068359"/>
      <use xlink:href="#DejaVuSans-65" x="262.447266"/>
      <use xlink:href="#DejaVuSans-6e" x="323.970703"/>
      <use xlink:href="#DejaVuSans-63" x="387.349609"/>
      <use xlink:href="#DejaVuSans-79" x="442.330078"/>
     </g>
    </g>
   </g>
   <g id="line2d_22">
    <path d="M 171.089654 307.584 
L 171.089654 41.472 
" clip-path="url(#pd9d514fb3f)" style="fill: none; stroke: #ff0000; stroke-width: 1.5; stroke-linecap: square"/>
   </g>
   <g id="line2d_23">
    <path d="M 174.123639 307.584 
L 174.123639 41.472 
" clip-path="url(#pd9d514fb3f)" style="fill: none; stroke: #008000; stroke-width: 1.5; stroke-linecap: square"/>
   </g>
   <g id="patch_73">
    <path d="M 57.6 307.584 
L 57.6 41.472 
" style="fill: none; stroke: #000000; stroke-width: 0.8; stroke-linejoin: miter; stroke-linecap: square"/>
   </g>
   <g id="patch_74">
    <path d="M 414.72 307.584 
L 414.72 41.472 
" style="fill: none; stroke: #000000; stroke-width: 0.8; stroke-linejoin: miter; stroke-linecap: square"/>
   </g>
   <g id="patch_75">
    <path d="M 57.6 307.584 
L 414.72 307.584 
" style="fill: none; stroke: #000000; stroke-width: 0.8; stroke-linejoin: miter; stroke-linecap: square"/>
   </g>
   <g id="patch_76">
    <path d="M 57.6 41.472 
L 414.72 41.472 
" style="fill: none; stroke: #000000; stroke-width: 0.8; stroke-linejoin: miter; stroke-linecap: square"/>
   </g>
   <g id="legend_1">
    <g id="patch_77">
     <path d="M 403.72 54.472 
L 407.72 54.472 
Q 409.72 54.472 409.72 52.472 
L 409.72 48.472 
Q 409.72 46.472 407.72 46.472 
L 403.72 46.472 
Q 401.72 46.472 401.72 48.472 
L 401.72 52.472 
Q 401.72 54.472 403.72 54.472 
z
" style="fill: #ffffff; opacity: 0.8; stroke: #cccccc; stroke-linejoin: miter"/>
    </g>
   </g>
  </g>
 </g>
 <defs>
  <clipPath id="pd9d514fb3f">
   <rect x="57.6" y="41.472" width="357.12" height="266.112"/>
  </clipPath>
 </defs>
</svg>
