<?xml version="1.0" encoding="utf-8" standalone="no"?>
<!DOCTYPE svg PUBLIC "-//W3C//DTD SVG 1.1//EN"
  "http://www.w3.org/Graphics/SVG/1.1/DTD/svg11.dtd">
<svg xmlns:xlink="http://www.w3.org/1999/xlink" width="460.8pt" height="345.6pt" viewBox="0 0 460.8 345.6" xmlns="http://www.w3.org/2000/svg" version="1.1">
 <metadata>
  <rdf:RDF xmlns:dc="http://purl.org/dc/elements/1.1/" xmlns:cc="http://creativecommons.org/ns#" xmlns:rdf="http://www.w3.org/1999/02/22-rdf-syntax-ns#">
   <cc:Work>
    <dc:type rdf:resource="http://purl.org/dc/dcmitype/StillImage"/>
    <dc:date>2024-07-08T19:13:01.329516</dc:date>
    <dc:format>image/svg+xml</dc:format>
    <dc:creator>
     <cc:Agent>
      <dc:title>Matplotlib v3.7.2, https://matplotlib.org/</dc:title>
     </cc:Agent>
    </dc:creator>
   </cc:Work>
  </rdf:RDF>
 </metadata>
 <defs>
  <style type="text/css">*{stroke-linejoin: round; stroke-linecap: butt}</style>
 </defs>
 <g id="figure_1">
  <g id="patch_1">
   <path d="M 0 345.6 
L 460.8 345.6 
L 460.8 0 
L 0 0 
z
" style="fill: #ffffff"/>
  </g>
  <g id="axes_1">
   <g id="patch_2">
    <path d="M 57.6 307.584 
L 414.72 307.584 
L 414.72 41.472 
L 57.6 41.472 
z
" style="fill: #ffffff"/>
   </g>
   <g id="patch_3">
    <path d="M 73.832727 307.584 
L 77.288662 307.584 
L 77.288662 307.394583 
L 73.832727 307.394583 
z
" clip-path="url(#pab9a7d6646)" style="fill: #0504aa; opacity: 0.7"/>
   </g>
   <g id="patch_4">
    <path d="M 77.898532 307.584 
L 81.354467 307.584 
L 81.354467 307.584 
L 77.898532 307.584 
z
" clip-path="url(#pab9a7d6646)" style="fill: #0504aa; opacity: 0.7"/>
   </g>
   <g id="patch_5">
    <path d="M 81.964338 307.584 
L 85.420272 307.584 
L 85.420272 307.584 
L 81.964338 307.584 
z
" clip-path="url(#pab9a7d6646)" style="fill: #0504aa; opacity: 0.7"/>
   </g>
   <g id="patch_6">
    <path d="M 86.030143 307.584 
L 89.486077 307.584 
L 89.486077 307.584 
L 86.030143 307.584 
z
" clip-path="url(#pab9a7d6646)" style="fill: #0504aa; opacity: 0.7"/>
   </g>
   <g id="patch_7">
    <path d="M 90.095948 307.584 
L 93.551883 307.584 
L 93.551883 307.584 
L 90.095948 307.584 
z
" clip-path="url(#pab9a7d6646)" style="fill: #0504aa; opacity: 0.7"/>
   </g>
   <g id="patch_8">
    <path d="M 94.161753 307.584 
L 97.617688 307.584 
L 97.617688 307.584 
L 94.161753 307.584 
z
" clip-path="url(#pab9a7d6646)" style="fill: #0504aa; opacity: 0.7"/>
   </g>
   <g id="patch_9">
    <path d="M 98.227558 307.584 
L 101.683493 307.584 
L 101.683493 307.015749 
L 98.227558 307.015749 
z
" clip-path="url(#pab9a7d6646)" style="fill: #0504aa; opacity: 0.7"/>
   </g>
   <g id="patch_10">
    <path d="M 102.293364 307.584 
L 105.749298 307.584 
L 105.749298 306.636915 
L 102.293364 306.636915 
z
" clip-path="url(#pab9a7d6646)" style="fill: #0504aa; opacity: 0.7"/>
   </g>
   <g id="patch_11">
    <path d="M 106.359169 307.584 
L 109.815103 307.584 
L 109.815103 307.584 
L 106.359169 307.584 
z
" clip-path="url(#pab9a7d6646)" style="fill: #0504aa; opacity: 0.7"/>
   </g>
   <g id="patch_12">
    <path d="M 110.424974 307.584 
L 113.880909 307.584 
L 113.880909 306.826332 
L 110.424974 306.826332 
z
" clip-path="url(#pab9a7d6646)" style="fill: #0504aa; opacity: 0.7"/>
   </g>
   <g id="patch_13">
    <path d="M 114.490779 307.584 
L 117.946714 307.584 
L 117.946714 306.636915 
L 114.490779 306.636915 
z
" clip-path="url(#pab9a7d6646)" style="fill: #0504aa; opacity: 0.7"/>
   </g>
   <g id="patch_14">
    <path d="M 118.556585 307.584 
L 122.012519 307.584 
L 122.012519 307.584 
L 118.556585 307.584 
z
" clip-path="url(#pab9a7d6646)" style="fill: #0504aa; opacity: 0.7"/>
   </g>
   <g id="patch_15">
    <path d="M 122.62239 307.584 
L 126.078324 307.584 
L 126.078324 304.36391 
L 122.62239 304.36391 
z
" clip-path="url(#pab9a7d6646)" style="fill: #0504aa; opacity: 0.7"/>
   </g>
   <g id="patch_16">
    <path d="M 126.688195 307.584 
L 130.144129 307.584 
L 130.144129 300.764987 
L 126.688195 300.764987 
z
" clip-path="url(#pab9a7d6646)" style="fill: #0504aa; opacity: 0.7"/>
   </g>
   <g id="patch_17">
    <path d="M 130.754 307.584 
L 134.209935 307.584 
L 134.209935 307.584 
L 130.754 307.584 
z
" clip-path="url(#pab9a7d6646)" style="fill: #0504aa; opacity: 0.7"/>
   </g>
   <g id="patch_18">
    <path d="M 134.819805 307.584 
L 138.27574 307.584 
L 138.27574 298.491982 
L 134.819805 298.491982 
z
" clip-path="url(#pab9a7d6646)" style="fill: #0504aa; opacity: 0.7"/>
   </g>
   <g id="patch_19">
    <path d="M 138.885611 307.584 
L 142.341545 307.584 
L 142.341545 292.998888 
L 138.885611 292.998888 
z
" clip-path="url(#pab9a7d6646)" style="fill: #0504aa; opacity: 0.7"/>
   </g>
   <g id="patch_20">
    <path d="M 142.951416 307.584 
L 146.40735 307.584 
L 146.40735 307.584 
L 142.951416 307.584 
z
" clip-path="url(#pab9a7d6646)" style="fill: #0504aa; opacity: 0.7"/>
   </g>
   <g id="patch_21">
    <path d="M 147.017221 307.584 
L 150.473155 307.584 
L 150.473155 282.770368 
L 147.017221 282.770368 
z
" clip-path="url(#pab9a7d6646)" style="fill: #0504aa; opacity: 0.7"/>
   </g>
   <g id="patch_22">
    <path d="M 151.083026 307.584 
L 154.538961 307.584 
L 154.538961 266.291085 
L 151.083026 266.291085 
z
" clip-path="url(#pab9a7d6646)" style="fill: #0504aa; opacity: 0.7"/>
   </g>
   <g id="patch_23">
    <path d="M 155.148831 307.584 
L 158.604766 307.584 
L 158.604766 307.584 
L 155.148831 307.584 
z
" clip-path="url(#pab9a7d6646)" style="fill: #0504aa; opacity: 0.7"/>
   </g>
   <g id="patch_24">
    <path d="M 159.214637 307.584 
L 162.670571 307.584 
L 162.670571 249.243552 
L 159.214637 249.243552 
z
" clip-path="url(#pab9a7d6646)" style="fill: #0504aa; opacity: 0.7"/>
   </g>
   <g id="patch_25">
    <path d="M 163.280442 307.584 
L 166.736376 307.584 
L 166.736376 307.584 
L 163.280442 307.584 
z
" clip-path="url(#pab9a7d6646)" style="fill: #0504aa; opacity: 0.7"/>
   </g>
   <g id="patch_26">
    <path d="M 167.346247 307.584 
L 170.802181 307.584 
L 170.802181 235.226691 
L 167.346247 235.226691 
z
" clip-path="url(#pab9a7d6646)" style="fill: #0504aa; opacity: 0.7"/>
   </g>
   <g id="patch_27">
    <path d="M 171.412052 307.584 
L 174.867987 307.584 
L 174.867987 210.413058 
L 171.412052 210.413058 
z
" clip-path="url(#pab9a7d6646)" style="fill: #0504aa; opacity: 0.7"/>
   </g>
   <g id="patch_28">
    <path d="M 175.477857 307.584 
L 178.933792 307.584 
L 178.933792 307.584 
L 175.477857 307.584 
z
" clip-path="url(#pab9a7d6646)" style="fill: #0504aa; opacity: 0.7"/>
   </g>
   <g id="patch_29">
    <path d="M 179.543663 307.584 
L 182.999597 307.584 
L 182.999597 181.432251 
L 179.543663 181.432251 
z
" clip-path="url(#pab9a7d6646)" style="fill: #0504aa; opacity: 0.7"/>
   </g>
   <g id="patch_30">
    <path d="M 183.609468 307.584 
L 187.065402 307.584 
L 187.065402 158.133955 
L 183.609468 158.133955 
z
" clip-path="url(#pab9a7d6646)" style="fill: #0504aa; opacity: 0.7"/>
   </g>
   <g id="patch_31">
    <path d="M 187.675273 307.584 
L 191.131207 307.584 
L 191.131207 307.584 
L 187.675273 307.584 
z
" clip-path="url(#pab9a7d6646)" style="fill: #0504aa; opacity: 0.7"/>
   </g>
   <g id="patch_32">
    <path d="M 191.741078 307.584 
L 195.197013 307.584 
L 195.197013 134.267408 
L 191.741078 134.267408 
z
" clip-path="url(#pab9a7d6646)" style="fill: #0504aa; opacity: 0.7"/>
   </g>
   <g id="patch_33">
    <path d="M 195.806883 307.584 
L 199.262818 307.584 
L 199.262818 110.969112 
L 195.806883 110.969112 
z
" clip-path="url(#pab9a7d6646)" style="fill: #0504aa; opacity: 0.7"/>
   </g>
   <g id="patch_34">
    <path d="M 199.872689 307.584 
L 203.328623 307.584 
L 203.328623 307.584 
L 199.872689 307.584 
z
" clip-path="url(#pab9a7d6646)" style="fill: #0504aa; opacity: 0.7"/>
   </g>
   <g id="patch_35">
    <path d="M 203.938494 307.584 
L 207.394428 307.584 
L 207.394428 98.27817 
L 203.938494 98.27817 
z
" clip-path="url(#pab9a7d6646)" style="fill: #0504aa; opacity: 0.7"/>
   </g>
   <g id="patch_36">
    <path d="M 208.004299 307.584 
L 211.460233 307.584 
L 211.460233 91.26974 
L 208.004299 91.26974 
z
" clip-path="url(#pab9a7d6646)" style="fill: #0504aa; opacity: 0.7"/>
   </g>
   <g id="patch_37">
    <path d="M 212.070104 307.584 
L 215.526039 307.584 
L 215.526039 307.584 
L 212.070104 307.584 
z
" clip-path="url(#pab9a7d6646)" style="fill: #0504aa; opacity: 0.7"/>
   </g>
   <g id="patch_38">
    <path d="M 216.135909 307.584 
L 219.591844 307.584 
L 219.591844 71.570368 
L 216.135909 71.570368 
z
" clip-path="url(#pab9a7d6646)" style="fill: #0504aa; opacity: 0.7"/>
   </g>
   <g id="patch_39">
    <path d="M 220.201715 307.584 
L 223.657649 307.584 
L 223.657649 54.144 
L 220.201715 54.144 
z
" clip-path="url(#pab9a7d6646)" style="fill: #0504aa; opacity: 0.7"/>
   </g>
   <g id="patch_40">
    <path d="M 224.26752 307.584 
L 227.723454 307.584 
L 227.723454 307.584 
L 224.26752 307.584 
z
" clip-path="url(#pab9a7d6646)" style="fill: #0504aa; opacity: 0.7"/>
   </g>
   <g id="patch_41">
    <path d="M 228.333325 307.584 
L 231.789259 307.584 
L 231.789259 69.865614 
L 228.333325 69.865614 
z
" clip-path="url(#pab9a7d6646)" style="fill: #0504aa; opacity: 0.7"/>
   </g>
   <g id="patch_42">
    <path d="M 232.39913 307.584 
L 235.855065 307.584 
L 235.855065 307.584 
L 232.39913 307.584 
z
" clip-path="url(#pab9a7d6646)" style="fill: #0504aa; opacity: 0.7"/>
   </g>
   <g id="patch_43">
    <path d="M 236.464935 307.584 
L 239.92087 307.584 
L 239.92087 73.464538 
L 236.464935 73.464538 
z
" clip-path="url(#pab9a7d6646)" style="fill: #0504aa; opacity: 0.7"/>
   </g>
   <g id="patch_44">
    <path d="M 240.530741 307.584 
L 243.986675 307.584 
L 243.986675 88.996735 
L 240.530741 88.996735 
z
" clip-path="url(#pab9a7d6646)" style="fill: #0504aa; opacity: 0.7"/>
   </g>
   <g id="patch_45">
    <path d="M 244.596546 307.584 
L 248.05248 307.584 
L 248.05248 307.584 
L 244.596546 307.584 
z
" clip-path="url(#pab9a7d6646)" style="fill: #0504aa; opacity: 0.7"/>
   </g>
   <g id="patch_46">
    <path d="M 248.662351 307.584 
L 252.118285 307.584 
L 252.118285 108.506691 
L 248.662351 108.506691 
z
" clip-path="url(#pab9a7d6646)" style="fill: #0504aa; opacity: 0.7"/>
   </g>
   <g id="patch_47">
    <path d="M 252.728156 307.584 
L 256.184091 307.584 
L 256.184091 106.801937 
L 252.728156 106.801937 
z
" clip-path="url(#pab9a7d6646)" style="fill: #0504aa; opacity: 0.7"/>
   </g>
   <g id="patch_48">
    <path d="M 256.793961 307.584 
L 260.249896 307.584 
L 260.249896 307.584 
L 256.793961 307.584 
z
" clip-path="url(#pab9a7d6646)" style="fill: #0504aa; opacity: 0.7"/>
   </g>
   <g id="patch_49">
    <path d="M 260.859767 307.584 
L 264.315701 307.584 
L 264.315701 137.676915 
L 260.859767 137.676915 
z
" clip-path="url(#pab9a7d6646)" style="fill: #0504aa; opacity: 0.7"/>
   </g>
   <g id="patch_50">
    <path d="M 264.925572 307.584 
L 268.381506 307.584 
L 268.381506 156.997453 
L 264.925572 156.997453 
z
" clip-path="url(#pab9a7d6646)" style="fill: #0504aa; opacity: 0.7"/>
   </g>
   <g id="patch_51">
    <path d="M 268.991377 307.584 
L 272.447311 307.584 
L 272.447311 307.584 
L 268.991377 307.584 
z
" clip-path="url(#pab9a7d6646)" style="fill: #0504aa; opacity: 0.7"/>
   </g>
   <g id="patch_52">
    <path d="M 273.057182 307.584 
L 276.513117 307.584 
L 276.513117 177.265076 
L 273.057182 177.265076 
z
" clip-path="url(#pab9a7d6646)" style="fill: #0504aa; opacity: 0.7"/>
   </g>
   <g id="patch_53">
    <path d="M 277.122987 307.584 
L 280.578922 307.584 
L 280.578922 191.850188 
L 277.122987 191.850188 
z
" clip-path="url(#pab9a7d6646)" style="fill: #0504aa; opacity: 0.7"/>
   </g>
   <g id="patch_54">
    <path d="M 281.188793 307.584 
L 284.644727 307.584 
L 284.644727 307.584 
L 281.188793 307.584 
z
" clip-path="url(#pab9a7d6646)" style="fill: #0504aa; opacity: 0.7"/>
   </g>
   <g id="patch_55">
    <path d="M 285.254598 307.584 
L 288.710532 307.584 
L 288.710532 216.474404 
L 285.254598 216.474404 
z
" clip-path="url(#pab9a7d6646)" style="fill: #0504aa; opacity: 0.7"/>
   </g>
   <g id="patch_56">
    <path d="M 289.320403 307.584 
L 292.776337 307.584 
L 292.776337 231.627767 
L 289.320403 231.627767 
z
" clip-path="url(#pab9a7d6646)" style="fill: #0504aa; opacity: 0.7"/>
   </g>
   <g id="patch_57">
    <path d="M 293.386208 307.584 
L 296.842143 307.584 
L 296.842143 307.584 
L 293.386208 307.584 
z
" clip-path="url(#pab9a7d6646)" style="fill: #0504aa; opacity: 0.7"/>
   </g>
   <g id="patch_58">
    <path d="M 297.452013 307.584 
L 300.907948 307.584 
L 300.907948 246.212879 
L 297.452013 246.212879 
z
" clip-path="url(#pab9a7d6646)" style="fill: #0504aa; opacity: 0.7"/>
   </g>
   <g id="patch_59">
    <path d="M 301.517819 307.584 
L 304.973753 307.584 
L 304.973753 254.168395 
L 301.517819 254.168395 
z
" clip-path="url(#pab9a7d6646)" style="fill: #0504aa; opacity: 0.7"/>
   </g>
   <g id="patch_60">
    <path d="M 305.583624 307.584 
L 309.039558 307.584 
L 309.039558 307.584 
L 305.583624 307.584 
z
" clip-path="url(#pab9a7d6646)" style="fill: #0504aa; opacity: 0.7"/>
   </g>
   <g id="patch_61">
    <path d="M 309.649429 307.584 
L 313.105363 307.584 
L 313.105363 265.722834 
L 309.649429 265.722834 
z
" clip-path="url(#pab9a7d6646)" style="fill: #0504aa; opacity: 0.7"/>
   </g>
   <g id="patch_62">
    <path d="M 313.715234 307.584 
L 317.171169 307.584 
L 317.171169 307.584 
L 313.715234 307.584 
z
" clip-path="url(#pab9a7d6646)" style="fill: #0504aa; opacity: 0.7"/>
   </g>
   <g id="patch_63">
    <path d="M 317.781039 307.584 
L 321.236974 307.584 
L 321.236974 275.57252 
L 317.781039 275.57252 
z
" clip-path="url(#pab9a7d6646)" style="fill: #0504aa; opacity: 0.7"/>
   </g>
   <g id="patch_64">
    <path d="M 321.846845 307.584 
L 325.302779 307.584 
L 325.302779 281.444448 
L 321.846845 281.444448 
z
" clip-path="url(#pab9a7d6646)" style="fill: #0504aa; opacity: 0.7"/>
   </g>
   <g id="patch_65">
    <path d="M 325.91265 307.584 
L 329.368584 307.584 
L 329.368584 307.584 
L 325.91265 307.584 
z
" clip-path="url(#pab9a7d6646)" style="fill: #0504aa; opacity: 0.7"/>
   </g>
   <g id="patch_66">
    <path d="M 329.978455 307.584 
L 333.434389 307.584 
L 333.434389 291.104717 
L 329.978455 291.104717 
z
" clip-path="url(#pab9a7d6646)" style="fill: #0504aa; opacity: 0.7"/>
   </g>
   <g id="patch_67">
    <path d="M 334.04426 307.584 
L 337.500195 307.584 
L 337.500195 294.13539 
L 334.04426 294.13539 
z
" clip-path="url(#pab9a7d6646)" style="fill: #0504aa; opacity: 0.7"/>
   </g>
   <g id="patch_68">
    <path d="M 338.110065 307.584 
L 341.566 307.584 
L 341.566 307.584 
L 338.110065 307.584 
z
" clip-path="url(#pab9a7d6646)" style="fill: #0504aa; opacity: 0.7"/>
   </g>
   <g id="patch_69">
    <path d="M 342.175871 307.584 
L 345.631805 307.584 
L 345.631805 296.787229 
L 342.175871 296.787229 
z
" clip-path="url(#pab9a7d6646)" style="fill: #0504aa; opacity: 0.7"/>
   </g>
   <g id="patch_70">
    <path d="M 346.241676 307.584 
L 349.69761 307.584 
L 349.69761 298.681399 
L 346.241676 298.681399 
z
" clip-path="url(#pab9a7d6646)" style="fill: #0504aa; opacity: 0.7"/>
   </g>
   <g id="patch_71">
    <path d="M 350.307481 307.584 
L 353.763415 307.584 
L 353.763415 307.584 
L 350.307481 307.584 
z
" clip-path="url(#pab9a7d6646)" style="fill: #0504aa; opacity: 0.7"/>
   </g>
   <g id="patch_72">
    <path d="M 354.373286 307.584 
L 357.829221 307.584 
L 357.829221 301.901489 
L 354.373286 301.901489 
z
" clip-path="url(#pab9a7d6646)" style="fill: #0504aa; opacity: 0.7"/>
   </g>
   <g id="patch_73">
    <path d="M 358.439091 307.584 
L 361.895026 307.584 
L 361.895026 302.659157 
L 358.439091 302.659157 
z
" clip-path="url(#pab9a7d6646)" style="fill: #0504aa; opacity: 0.7"/>
   </g>
   <g id="patch_74">
    <path d="M 362.504897 307.584 
L 365.960831 307.584 
L 365.960831 307.584 
L 362.504897 307.584 
z
" clip-path="url(#pab9a7d6646)" style="fill: #0504aa; opacity: 0.7"/>
   </g>
   <g id="patch_75">
    <path d="M 366.570702 307.584 
L 370.026636 307.584 
L 370.026636 305.500413 
L 366.570702 305.500413 
z
" clip-path="url(#pab9a7d6646)" style="fill: #0504aa; opacity: 0.7"/>
   </g>
   <g id="patch_76">
    <path d="M 370.636507 307.584 
L 374.092442 307.584 
L 374.092442 305.310996 
L 370.636507 305.310996 
z
" clip-path="url(#pab9a7d6646)" style="fill: #0504aa; opacity: 0.7"/>
   </g>
   <g id="patch_77">
    <path d="M 374.702312 307.584 
L 378.158247 307.584 
L 378.158247 307.584 
L 374.702312 307.584 
z
" clip-path="url(#pab9a7d6646)" style="fill: #0504aa; opacity: 0.7"/>
   </g>
   <g id="patch_78">
    <path d="M 378.768117 307.584 
L 382.224052 307.584 
L 382.224052 306.447498 
L 378.768117 306.447498 
z
" clip-path="url(#pab9a7d6646)" style="fill: #0504aa; opacity: 0.7"/>
   </g>
   <g id="patch_79">
    <path d="M 382.833923 307.584 
L 386.289857 307.584 
L 386.289857 307.015749 
L 382.833923 307.015749 
z
" clip-path="url(#pab9a7d6646)" style="fill: #0504aa; opacity: 0.7"/>
   </g>
   <g id="patch_80">
    <path d="M 386.899728 307.584 
L 390.355662 307.584 
L 390.355662 307.584 
L 386.899728 307.584 
z
" clip-path="url(#pab9a7d6646)" style="fill: #0504aa; opacity: 0.7"/>
   </g>
   <g id="patch_81">
    <path d="M 390.965533 307.584 
L 394.421468 307.584 
L 394.421468 307.015749 
L 390.965533 307.015749 
z
" clip-path="url(#pab9a7d6646)" style="fill: #0504aa; opacity: 0.7"/>
   </g>
   <g id="patch_82">
    <path d="M 395.031338 307.584 
L 398.487273 307.584 
L 398.487273 307.394583 
L 395.031338 307.394583 
z
" clip-path="url(#pab9a7d6646)" style="fill: #0504aa; opacity: 0.7"/>
   </g>
   <g id="matplotlib.axis_1">
    <g id="xtick_1">
     <g id="line2d_1">
      <defs>
       <path id="mb6d0d8d271" d="M 0 0 
L 0 3.5 
" style="stroke: #000000; stroke-width: 0.8"/>
      </defs>
      <g>
       <use xlink:href="#mb6d0d8d271" x="123.568471" y="307.584" style="stroke: #000000; stroke-width: 0.8"/>
      </g>
     </g>
     <g id="text_1">
      <!-- 2.0 -->
      <g transform="translate(115.616909 322.182437) scale(0.1 -0.1)">
       <defs>
        <path id="DejaVuSans-32" d="M 1228 531 
L 3431 531 
L 3431 0 
L 469 0 
L 469 531 
Q 828 903 1448 1529 
Q 2069 2156 2228 2338 
Q 2531 2678 2651 2914 
Q 2772 3150 2772 3378 
Q 2772 3750 2511 3984 
Q 2250 4219 1831 4219 
Q 1534 4219 1204 4116 
Q 875 4013 500 3803 
L 500 4441 
Q 881 4594 1212 4672 
Q 1544 4750 1819 4750 
Q 2544 4750 2975 4387 
Q 3406 4025 3406 3419 
Q 3406 3131 3298 2873 
Q 3191 2616 2906 2266 
Q 2828 2175 2409 1742 
Q 1991 1309 1228 531 
z
" transform="scale(0.015625)"/>
        <path id="DejaVuSans-2e" d="M 684 794 
L 1344 794 
L 1344 0 
L 684 0 
L 684 794 
z
" transform="scale(0.015625)"/>
        <path id="DejaVuSans-30" d="M 2034 4250 
Q 1547 4250 1301 3770 
Q 1056 3291 1056 2328 
Q 1056 1369 1301 889 
Q 1547 409 2034 409 
Q 2525 409 2770 889 
Q 3016 1369 3016 2328 
Q 3016 3291 2770 3770 
Q 2525 4250 2034 4250 
z
M 2034 4750 
Q 2819 4750 3233 4129 
Q 3647 3509 3647 2328 
Q 3647 1150 3233 529 
Q 2819 -91 2034 -91 
Q 1250 -91 836 529 
Q 422 1150 422 2328 
Q 422 3509 836 4129 
Q 1250 4750 2034 4750 
z
" transform="scale(0.015625)"/>
       </defs>
       <use xlink:href="#DejaVuSans-32"/>
       <use xlink:href="#DejaVuSans-2e" x="63.623047"/>
       <use xlink:href="#DejaVuSans-30" x="95.410156"/>
      </g>
     </g>
    </g>
    <g id="xtick_2">
     <g id="line2d_2">
      <g>
       <use xlink:href="#mb6d0d8d271" x="192.374406" y="307.584" style="stroke: #000000; stroke-width: 0.8"/>
      </g>
     </g>
     <g id="text_2">
      <!-- 2.5 -->
      <g transform="translate(184.422843 322.182437) scale(0.1 -0.1)">
       <defs>
        <path id="DejaVuSans-35" d="M 691 4666 
L 3169 4666 
L 3169 4134 
L 1269 4134 
L 1269 2991 
Q 1406 3038 1543 3061 
Q 1681 3084 1819 3084 
Q 2600 3084 3056 2656 
Q 3513 2228 3513 1497 
Q 3513 744 3044 326 
Q 2575 -91 1722 -91 
Q 1428 -91 1123 -41 
Q 819 9 494 109 
L 494 744 
Q 775 591 1075 516 
Q 1375 441 1709 441 
Q 2250 441 2565 725 
Q 2881 1009 2881 1497 
Q 2881 1984 2565 2268 
Q 2250 2553 1709 2553 
Q 1456 2553 1204 2497 
Q 953 2441 691 2322 
L 691 4666 
z
" transform="scale(0.015625)"/>
       </defs>
       <use xlink:href="#DejaVuSans-32"/>
       <use xlink:href="#DejaVuSans-2e" x="63.623047"/>
       <use xlink:href="#DejaVuSans-35" x="95.410156"/>
      </g>
     </g>
    </g>
    <g id="xtick_3">
     <g id="line2d_3">
      <g>
       <use xlink:href="#mb6d0d8d271" x="261.18034" y="307.584" style="stroke: #000000; stroke-width: 0.8"/>
      </g>
     </g>
     <g id="text_3">
      <!-- 3.0 -->
      <g transform="translate(253.228777 322.182437) scale(0.1 -0.1)">
       <defs>
        <path id="DejaVuSans-33" d="M 2597 2516 
Q 3050 2419 3304 2112 
Q 3559 1806 3559 1356 
Q 3559 666 3084 287 
Q 2609 -91 1734 -91 
Q 1441 -91 1130 -33 
Q 819 25 488 141 
L 488 750 
Q 750 597 1062 519 
Q 1375 441 1716 441 
Q 2309 441 2620 675 
Q 2931 909 2931 1356 
Q 2931 1769 2642 2001 
Q 2353 2234 1838 2234 
L 1294 2234 
L 1294 2753 
L 1863 2753 
Q 2328 2753 2575 2939 
Q 2822 3125 2822 3475 
Q 2822 3834 2567 4026 
Q 2313 4219 1838 4219 
Q 1578 4219 1281 4162 
Q 984 4106 628 3988 
L 628 4550 
Q 988 4650 1302 4700 
Q 1616 4750 1894 4750 
Q 2613 4750 3031 4423 
Q 3450 4097 3450 3541 
Q 3450 3153 3228 2886 
Q 3006 2619 2597 2516 
z
" transform="scale(0.015625)"/>
       </defs>
       <use xlink:href="#DejaVuSans-33"/>
       <use xlink:href="#DejaVuSans-2e" x="63.623047"/>
       <use xlink:href="#DejaVuSans-30" x="95.410156"/>
      </g>
     </g>
    </g>
    <g id="xtick_4">
     <g id="line2d_4">
      <g>
       <use xlink:href="#mb6d0d8d271" x="329.986274" y="307.584" style="stroke: #000000; stroke-width: 0.8"/>
      </g>
     </g>
     <g id="text_4">
      <!-- 3.5 -->
      <g transform="translate(322.034711 322.182437) scale(0.1 -0.1)">
       <use xlink:href="#DejaVuSans-33"/>
       <use xlink:href="#DejaVuSans-2e" x="63.623047"/>
       <use xlink:href="#DejaVuSans-35" x="95.410156"/>
      </g>
     </g>
    </g>
    <g id="xtick_5">
     <g id="line2d_5">
      <g>
       <use xlink:href="#mb6d0d8d271" x="398.792208" y="307.584" style="stroke: #000000; stroke-width: 0.8"/>
      </g>
     </g>
     <g id="text_5">
      <!-- 4.0 -->
      <g transform="translate(390.840646 322.182437) scale(0.1 -0.1)">
       <defs>
        <path id="DejaVuSans-34" d="M 2419 4116 
L 825 1625 
L 2419 1625 
L 2419 4116 
z
M 2253 4666 
L 3047 4666 
L 3047 1625 
L 3713 1625 
L 3713 1100 
L 3047 1100 
L 3047 0 
L 2419 0 
L 2419 1100 
L 313 1100 
L 313 1709 
L 2253 4666 
z
" transform="scale(0.015625)"/>
       </defs>
       <use xlink:href="#DejaVuSans-34"/>
       <use xlink:href="#DejaVuSans-2e" x="63.623047"/>
       <use xlink:href="#DejaVuSans-30" x="95.410156"/>
      </g>
     </g>
    </g>
    <g id="text_6">
     <!-- Load Average Degree, synthetic graphs -->
     <g transform="translate(137.210781 335.860562) scale(0.1 -0.1)">
      <defs>
       <path id="DejaVuSans-4c" d="M 628 4666 
L 1259 4666 
L 1259 531 
L 3531 531 
L 3531 0 
L 628 0 
L 628 4666 
z
" transform="scale(0.015625)"/>
       <path id="DejaVuSans-6f" d="M 1959 3097 
Q 1497 3097 1228 2736 
Q 959 2375 959 1747 
Q 959 1119 1226 758 
Q 1494 397 1959 397 
Q 2419 397 2687 759 
Q 2956 1122 2956 1747 
Q 2956 2369 2687 2733 
Q 2419 3097 1959 3097 
z
M 1959 3584 
Q 2709 3584 3137 3096 
Q 3566 2609 3566 1747 
Q 3566 888 3137 398 
Q 2709 -91 1959 -91 
Q 1206 -91 779 398 
Q 353 888 353 1747 
Q 353 2609 779 3096 
Q 1206 3584 1959 3584 
z
" transform="scale(0.015625)"/>
       <path id="DejaVuSans-61" d="M 2194 1759 
Q 1497 1759 1228 1600 
Q 959 1441 959 1056 
Q 959 750 1161 570 
Q 1363 391 1709 391 
Q 2188 391 2477 730 
Q 2766 1069 2766 1631 
L 2766 1759 
L 2194 1759 
z
M 3341 1997 
L 3341 0 
L 2766 0 
L 2766 531 
Q 2569 213 2275 61 
Q 1981 -91 1556 -91 
Q 1019 -91 701 211 
Q 384 513 384 1019 
Q 384 1609 779 1909 
Q 1175 2209 1959 2209 
L 2766 2209 
L 2766 2266 
Q 2766 2663 2505 2880 
Q 2244 3097 1772 3097 
Q 1472 3097 1187 3025 
Q 903 2953 641 2809 
L 641 3341 
Q 956 3463 1253 3523 
Q 1550 3584 1831 3584 
Q 2591 3584 2966 3190 
Q 3341 2797 3341 1997 
z
" transform="scale(0.015625)"/>
       <path id="DejaVuSans-64" d="M 2906 2969 
L 2906 4863 
L 3481 4863 
L 3481 0 
L 2906 0 
L 2906 525 
Q 2725 213 2448 61 
Q 2172 -91 1784 -91 
Q 1150 -91 751 415 
Q 353 922 353 1747 
Q 353 2572 751 3078 
Q 1150 3584 1784 3584 
Q 2172 3584 2448 3432 
Q 2725 3281 2906 2969 
z
M 947 1747 
Q 947 1113 1208 752 
Q 1469 391 1925 391 
Q 2381 391 2643 752 
Q 2906 1113 2906 1747 
Q 2906 2381 2643 2742 
Q 2381 3103 1925 3103 
Q 1469 3103 1208 2742 
Q 947 2381 947 1747 
z
" transform="scale(0.015625)"/>
       <path id="DejaVuSans-20" transform="scale(0.015625)"/>
       <path id="DejaVuSans-41" d="M 2188 4044 
L 1331 1722 
L 3047 1722 
L 2188 4044 
z
M 1831 4666 
L 2547 4666 
L 4325 0 
L 3669 0 
L 3244 1197 
L 1141 1197 
L 716 0 
L 50 0 
L 1831 4666 
z
" transform="scale(0.015625)"/>
       <path id="DejaVuSans-76" d="M 191 3500 
L 800 3500 
L 1894 563 
L 2988 3500 
L 3597 3500 
L 2284 0 
L 1503 0 
L 191 3500 
z
" transform="scale(0.015625)"/>
       <path id="DejaVuSans-65" d="M 3597 1894 
L 3597 1613 
L 953 1613 
Q 991 1019 1311 708 
Q 1631 397 2203 397 
Q 2534 397 2845 478 
Q 3156 559 3463 722 
L 3463 178 
Q 3153 47 2828 -22 
Q 2503 -91 2169 -91 
Q 1331 -91 842 396 
Q 353 884 353 1716 
Q 353 2575 817 3079 
Q 1281 3584 2069 3584 
Q 2775 3584 3186 3129 
Q 3597 2675 3597 1894 
z
M 3022 2063 
Q 3016 2534 2758 2815 
Q 2500 3097 2075 3097 
Q 1594 3097 1305 2825 
Q 1016 2553 972 2059 
L 3022 2063 
z
" transform="scale(0.015625)"/>
       <path id="DejaVuSans-72" d="M 2631 2963 
Q 2534 3019 2420 3045 
Q 2306 3072 2169 3072 
Q 1681 3072 1420 2755 
Q 1159 2438 1159 1844 
L 1159 0 
L 581 0 
L 581 3500 
L 1159 3500 
L 1159 2956 
Q 1341 3275 1631 3429 
Q 1922 3584 2338 3584 
Q 2397 3584 2469 3576 
Q 2541 3569 2628 3553 
L 2631 2963 
z
" transform="scale(0.015625)"/>
       <path id="DejaVuSans-67" d="M 2906 1791 
Q 2906 2416 2648 2759 
Q 2391 3103 1925 3103 
Q 1463 3103 1205 2759 
Q 947 2416 947 1791 
Q 947 1169 1205 825 
Q 1463 481 1925 481 
Q 2391 481 2648 825 
Q 2906 1169 2906 1791 
z
M 3481 434 
Q 3481 -459 3084 -895 
Q 2688 -1331 1869 -1331 
Q 1566 -1331 1297 -1286 
Q 1028 -1241 775 -1147 
L 775 -588 
Q 1028 -725 1275 -790 
Q 1522 -856 1778 -856 
Q 2344 -856 2625 -561 
Q 2906 -266 2906 331 
L 2906 616 
Q 2728 306 2450 153 
Q 2172 0 1784 0 
Q 1141 0 747 490 
Q 353 981 353 1791 
Q 353 2603 747 3093 
Q 1141 3584 1784 3584 
Q 2172 3584 2450 3431 
Q 2728 3278 2906 2969 
L 2906 3500 
L 3481 3500 
L 3481 434 
z
" transform="scale(0.015625)"/>
       <path id="DejaVuSans-44" d="M 1259 4147 
L 1259 519 
L 2022 519 
Q 2988 519 3436 956 
Q 3884 1394 3884 2338 
Q 3884 3275 3436 3711 
Q 2988 4147 2022 4147 
L 1259 4147 
z
M 628 4666 
L 1925 4666 
Q 3281 4666 3915 4102 
Q 4550 3538 4550 2338 
Q 4550 1131 3912 565 
Q 3275 0 1925 0 
L 628 0 
L 628 4666 
z
" transform="scale(0.015625)"/>
       <path id="DejaVuSans-2c" d="M 750 794 
L 1409 794 
L 1409 256 
L 897 -744 
L 494 -744 
L 750 256 
L 750 794 
z
" transform="scale(0.015625)"/>
       <path id="DejaVuSans-73" d="M 2834 3397 
L 2834 2853 
Q 2591 2978 2328 3040 
Q 2066 3103 1784 3103 
Q 1356 3103 1142 2972 
Q 928 2841 928 2578 
Q 928 2378 1081 2264 
Q 1234 2150 1697 2047 
L 1894 2003 
Q 2506 1872 2764 1633 
Q 3022 1394 3022 966 
Q 3022 478 2636 193 
Q 2250 -91 1575 -91 
Q 1294 -91 989 -36 
Q 684 19 347 128 
L 347 722 
Q 666 556 975 473 
Q 1284 391 1588 391 
Q 1994 391 2212 530 
Q 2431 669 2431 922 
Q 2431 1156 2273 1281 
Q 2116 1406 1581 1522 
L 1381 1569 
Q 847 1681 609 1914 
Q 372 2147 372 2553 
Q 372 3047 722 3315 
Q 1072 3584 1716 3584 
Q 2034 3584 2315 3537 
Q 2597 3491 2834 3397 
z
" transform="scale(0.015625)"/>
       <path id="DejaVuSans-79" d="M 2059 -325 
Q 1816 -950 1584 -1140 
Q 1353 -1331 966 -1331 
L 506 -1331 
L 506 -850 
L 844 -850 
Q 1081 -850 1212 -737 
Q 1344 -625 1503 -206 
L 1606 56 
L 191 3500 
L 800 3500 
L 1894 763 
L 2988 3500 
L 3597 3500 
L 2059 -325 
z
" transform="scale(0.015625)"/>
       <path id="DejaVuSans-6e" d="M 3513 2113 
L 3513 0 
L 2938 0 
L 2938 2094 
Q 2938 2591 2744 2837 
Q 2550 3084 2163 3084 
Q 1697 3084 1428 2787 
Q 1159 2491 1159 1978 
L 1159 0 
L 581 0 
L 581 3500 
L 1159 3500 
L 1159 2956 
Q 1366 3272 1645 3428 
Q 1925 3584 2291 3584 
Q 2894 3584 3203 3211 
Q 3513 2838 3513 2113 
z
" transform="scale(0.015625)"/>
       <path id="DejaVuSans-74" d="M 1172 4494 
L 1172 3500 
L 2356 3500 
L 2356 3053 
L 1172 3053 
L 1172 1153 
Q 1172 725 1289 603 
Q 1406 481 1766 481 
L 2356 481 
L 2356 0 
L 1766 0 
Q 1100 0 847 248 
Q 594 497 594 1153 
L 594 3053 
L 172 3053 
L 172 3500 
L 594 3500 
L 594 4494 
L 1172 4494 
z
" transform="scale(0.015625)"/>
       <path id="DejaVuSans-68" d="M 3513 2113 
L 3513 0 
L 2938 0 
L 2938 2094 
Q 2938 2591 2744 2837 
Q 2550 3084 2163 3084 
Q 1697 3084 1428 2787 
Q 1159 2491 1159 1978 
L 1159 0 
L 581 0 
L 581 4863 
L 1159 4863 
L 1159 2956 
Q 1366 3272 1645 3428 
Q 1925 3584 2291 3584 
Q 2894 3584 3203 3211 
Q 3513 2838 3513 2113 
z
" transform="scale(0.015625)"/>
       <path id="DejaVuSans-69" d="M 603 3500 
L 1178 3500 
L 1178 0 
L 603 0 
L 603 3500 
z
M 603 4863 
L 1178 4863 
L 1178 4134 
L 603 4134 
L 603 4863 
z
" transform="scale(0.015625)"/>
       <path id="DejaVuSans-63" d="M 3122 3366 
L 3122 2828 
Q 2878 2963 2633 3030 
Q 2388 3097 2138 3097 
Q 1578 3097 1268 2742 
Q 959 2388 959 1747 
Q 959 1106 1268 751 
Q 1578 397 2138 397 
Q 2388 397 2633 464 
Q 2878 531 3122 666 
L 3122 134 
Q 2881 22 2623 -34 
Q 2366 -91 2075 -91 
Q 1284 -91 818 406 
Q 353 903 353 1747 
Q 353 2603 823 3093 
Q 1294 3584 2113 3584 
Q 2378 3584 2631 3529 
Q 2884 3475 3122 3366 
z
" transform="scale(0.015625)"/>
       <path id="DejaVuSans-70" d="M 1159 525 
L 1159 -1331 
L 581 -1331 
L 581 3500 
L 1159 3500 
L 1159 2969 
Q 1341 3281 1617 3432 
Q 1894 3584 2278 3584 
Q 2916 3584 3314 3078 
Q 3713 2572 3713 1747 
Q 3713 922 3314 415 
Q 2916 -91 2278 -91 
Q 1894 -91 1617 61 
Q 1341 213 1159 525 
z
M 3116 1747 
Q 3116 2381 2855 2742 
Q 2594 3103 2138 3103 
Q 1681 3103 1420 2742 
Q 1159 2381 1159 1747 
Q 1159 1113 1420 752 
Q 1681 391 2138 391 
Q 2594 391 2855 752 
Q 3116 1113 3116 1747 
z
" transform="scale(0.015625)"/>
      </defs>
      <use xlink:href="#DejaVuSans-4c"/>
      <use xlink:href="#DejaVuSans-6f" x="53.962891"/>
      <use xlink:href="#DejaVuSans-61" x="115.144531"/>
      <use xlink:href="#DejaVuSans-64" x="176.423828"/>
      <use xlink:href="#DejaVuSans-20" x="239.900391"/>
      <use xlink:href="#DejaVuSans-41" x="271.6875"/>
      <use xlink:href="#DejaVuSans-76" x="334.220703"/>
      <use xlink:href="#DejaVuSans-65" x="393.400391"/>
      <use xlink:href="#DejaVuSans-72" x="454.923828"/>
      <use xlink:href="#DejaVuSans-61" x="496.037109"/>
      <use xlink:href="#DejaVuSans-67" x="557.316406"/>
      <use xlink:href="#DejaVuSans-65" x="620.792969"/>
      <use xlink:href="#DejaVuSans-20" x="682.316406"/>
      <use xlink:href="#DejaVuSans-44" x="714.103516"/>
      <use xlink:href="#DejaVuSans-65" x="791.105469"/>
      <use xlink:href="#DejaVuSans-67" x="852.628906"/>
      <use xlink:href="#DejaVuSans-72" x="916.105469"/>
      <use xlink:href="#DejaVuSans-65" x="954.96875"/>
      <use xlink:href="#DejaVuSans-65" x="1016.492188"/>
      <use xlink:href="#DejaVuSans-2c" x="1078.015625"/>
      <use xlink:href="#DejaVuSans-20" x="1109.802734"/>
      <use xlink:href="#DejaVuSans-73" x="1141.589844"/>
      <use xlink:href="#DejaVuSans-79" x="1193.689453"/>
      <use xlink:href="#DejaVuSans-6e" x="1252.869141"/>
      <use xlink:href="#DejaVuSans-74" x="1316.248047"/>
      <use xlink:href="#DejaVuSans-68" x="1355.457031"/>
      <use xlink:href="#DejaVuSans-65" x="1418.835938"/>
      <use xlink:href="#DejaVuSans-74" x="1480.359375"/>
      <use xlink:href="#DejaVuSans-69" x="1519.568359"/>
      <use xlink:href="#DejaVuSans-63" x="1547.351562"/>
      <use xlink:href="#DejaVuSans-20" x="1602.332031"/>
      <use xlink:href="#DejaVuSans-67" x="1634.119141"/>
      <use xlink:href="#DejaVuSans-72" x="1697.595703"/>
      <use xlink:href="#DejaVuSans-61" x="1738.708984"/>
      <use xlink:href="#DejaVuSans-70" x="1799.988281"/>
      <use xlink:href="#DejaVuSans-68" x="1863.464844"/>
      <use xlink:href="#DejaVuSans-73" x="1926.84375"/>
     </g>
    </g>
   </g>
   <g id="matplotlib.axis_2">
    <g id="ytick_1">
     <g id="line2d_6">
      <path d="M 57.6 307.584 
L 414.72 307.584 
" clip-path="url(#pab9a7d6646)" style="fill: none; stroke: #b0b0b0; stroke-opacity: 0.75; stroke-width: 0.8; stroke-linecap: square"/>
     </g>
     <g id="line2d_7">
      <defs>
       <path id="ma2f2e99903" d="M 0 0 
L -3.5 0 
" style="stroke: #000000; stroke-width: 0.8"/>
      </defs>
      <g>
       <use xlink:href="#ma2f2e99903" x="57.6" y="307.584" style="stroke: #000000; stroke-width: 0.8"/>
      </g>
     </g>
     <g id="text_7">
      <!-- 0 -->
      <g transform="translate(44.2375 311.383219) scale(0.1 -0.1)">
       <use xlink:href="#DejaVuSans-30"/>
      </g>
     </g>
    </g>
    <g id="ytick_2">
     <g id="line2d_8">
      <path d="M 57.6 269.700592 
L 414.72 269.700592 
" clip-path="url(#pab9a7d6646)" style="fill: none; stroke: #b0b0b0; stroke-opacity: 0.75; stroke-width: 0.8; stroke-linecap: square"/>
     </g>
     <g id="line2d_9">
      <g>
       <use xlink:href="#ma2f2e99903" x="57.6" y="269.700592" style="stroke: #000000; stroke-width: 0.8"/>
      </g>
     </g>
     <g id="text_8">
      <!-- 200 -->
      <g transform="translate(31.5125 273.499811) scale(0.1 -0.1)">
       <use xlink:href="#DejaVuSans-32"/>
       <use xlink:href="#DejaVuSans-30" x="63.623047"/>
       <use xlink:href="#DejaVuSans-30" x="127.246094"/>
      </g>
     </g>
    </g>
    <g id="ytick_3">
     <g id="line2d_10">
      <path d="M 57.6 231.817184 
L 414.72 231.817184 
" clip-path="url(#pab9a7d6646)" style="fill: none; stroke: #b0b0b0; stroke-opacity: 0.75; stroke-width: 0.8; stroke-linecap: square"/>
     </g>
     <g id="line2d_11">
      <g>
       <use xlink:href="#ma2f2e99903" x="57.6" y="231.817184" style="stroke: #000000; stroke-width: 0.8"/>
      </g>
     </g>
     <g id="text_9">
      <!-- 400 -->
      <g transform="translate(31.5125 235.616403) scale(0.1 -0.1)">
       <use xlink:href="#DejaVuSans-34"/>
       <use xlink:href="#DejaVuSans-30" x="63.623047"/>
       <use xlink:href="#DejaVuSans-30" x="127.246094"/>
      </g>
     </g>
    </g>
    <g id="ytick_4">
     <g id="line2d_12">
      <path d="M 57.6 193.933776 
L 414.72 193.933776 
" clip-path="url(#pab9a7d6646)" style="fill: none; stroke: #b0b0b0; stroke-opacity: 0.75; stroke-width: 0.8; stroke-linecap: square"/>
     </g>
     <g id="line2d_13">
      <g>
       <use xlink:href="#ma2f2e99903" x="57.6" y="193.933776" style="stroke: #000000; stroke-width: 0.8"/>
      </g>
     </g>
     <g id="text_10">
      <!-- 600 -->
      <g transform="translate(31.5125 197.732995) scale(0.1 -0.1)">
       <defs>
        <path id="DejaVuSans-36" d="M 2113 2584 
Q 1688 2584 1439 2293 
Q 1191 2003 1191 1497 
Q 1191 994 1439 701 
Q 1688 409 2113 409 
Q 2538 409 2786 701 
Q 3034 994 3034 1497 
Q 3034 2003 2786 2293 
Q 2538 2584 2113 2584 
z
M 3366 4563 
L 3366 3988 
Q 3128 4100 2886 4159 
Q 2644 4219 2406 4219 
Q 1781 4219 1451 3797 
Q 1122 3375 1075 2522 
Q 1259 2794 1537 2939 
Q 1816 3084 2150 3084 
Q 2853 3084 3261 2657 
Q 3669 2231 3669 1497 
Q 3669 778 3244 343 
Q 2819 -91 2113 -91 
Q 1303 -91 875 529 
Q 447 1150 447 2328 
Q 447 3434 972 4092 
Q 1497 4750 2381 4750 
Q 2619 4750 2861 4703 
Q 3103 4656 3366 4563 
z
" transform="scale(0.015625)"/>
       </defs>
       <use xlink:href="#DejaVuSans-36"/>
       <use xlink:href="#DejaVuSans-30" x="63.623047"/>
       <use xlink:href="#DejaVuSans-30" x="127.246094"/>
      </g>
     </g>
    </g>
    <g id="ytick_5">
     <g id="line2d_14">
      <path d="M 57.6 156.050368 
L 414.72 156.050368 
" clip-path="url(#pab9a7d6646)" style="fill: none; stroke: #b0b0b0; stroke-opacity: 0.75; stroke-width: 0.8; stroke-linecap: square"/>
     </g>
     <g id="line2d_15">
      <g>
       <use xlink:href="#ma2f2e99903" x="57.6" y="156.050368" style="stroke: #000000; stroke-width: 0.8"/>
      </g>
     </g>
     <g id="text_11">
      <!-- 800 -->
      <g transform="translate(31.5125 159.849586) scale(0.1 -0.1)">
       <defs>
        <path id="DejaVuSans-38" d="M 2034 2216 
Q 1584 2216 1326 1975 
Q 1069 1734 1069 1313 
Q 1069 891 1326 650 
Q 1584 409 2034 409 
Q 2484 409 2743 651 
Q 3003 894 3003 1313 
Q 3003 1734 2745 1975 
Q 2488 2216 2034 2216 
z
M 1403 2484 
Q 997 2584 770 2862 
Q 544 3141 544 3541 
Q 544 4100 942 4425 
Q 1341 4750 2034 4750 
Q 2731 4750 3128 4425 
Q 3525 4100 3525 3541 
Q 3525 3141 3298 2862 
Q 3072 2584 2669 2484 
Q 3125 2378 3379 2068 
Q 3634 1759 3634 1313 
Q 3634 634 3220 271 
Q 2806 -91 2034 -91 
Q 1263 -91 848 271 
Q 434 634 434 1313 
Q 434 1759 690 2068 
Q 947 2378 1403 2484 
z
M 1172 3481 
Q 1172 3119 1398 2916 
Q 1625 2713 2034 2713 
Q 2441 2713 2670 2916 
Q 2900 3119 2900 3481 
Q 2900 3844 2670 4047 
Q 2441 4250 2034 4250 
Q 1625 4250 1398 4047 
Q 1172 3844 1172 3481 
z
" transform="scale(0.015625)"/>
       </defs>
       <use xlink:href="#DejaVuSans-38"/>
       <use xlink:href="#DejaVuSans-30" x="63.623047"/>
       <use xlink:href="#DejaVuSans-30" x="127.246094"/>
      </g>
     </g>
    </g>
    <g id="ytick_6">
     <g id="line2d_16">
      <path d="M 57.6 118.16696 
L 414.72 118.16696 
" clip-path="url(#pab9a7d6646)" style="fill: none; stroke: #b0b0b0; stroke-opacity: 0.75; stroke-width: 0.8; stroke-linecap: square"/>
     </g>
     <g id="line2d_17">
      <g>
       <use xlink:href="#ma2f2e99903" x="57.6" y="118.16696" style="stroke: #000000; stroke-width: 0.8"/>
      </g>
     </g>
     <g id="text_12">
      <!-- 1000 -->
      <g transform="translate(25.15 121.966178) scale(0.1 -0.1)">
       <defs>
        <path id="DejaVuSans-31" d="M 794 531 
L 1825 531 
L 1825 4091 
L 703 3866 
L 703 4441 
L 1819 4666 
L 2450 4666 
L 2450 531 
L 3481 531 
L 3481 0 
L 794 0 
L 794 531 
z
" transform="scale(0.015625)"/>
       </defs>
       <use xlink:href="#DejaVuSans-31"/>
       <use xlink:href="#DejaVuSans-30" x="63.623047"/>
       <use xlink:href="#DejaVuSans-30" x="127.246094"/>
       <use xlink:href="#DejaVuSans-30" x="190.869141"/>
      </g>
     </g>
    </g>
    <g id="ytick_7">
     <g id="line2d_18">
      <path d="M 57.6 80.283552 
L 414.72 80.283552 
" clip-path="url(#pab9a7d6646)" style="fill: none; stroke: #b0b0b0; stroke-opacity: 0.75; stroke-width: 0.8; stroke-linecap: square"/>
     </g>
     <g id="line2d_19">
      <g>
       <use xlink:href="#ma2f2e99903" x="57.6" y="80.283552" style="stroke: #000000; stroke-width: 0.8"/>
      </g>
     </g>
     <g id="text_13">
      <!-- 1200 -->
      <g transform="translate(25.15 84.08277) scale(0.1 -0.1)">
       <use xlink:href="#DejaVuSans-31"/>
       <use xlink:href="#DejaVuSans-32" x="63.623047"/>
       <use xlink:href="#DejaVuSans-30" x="127.246094"/>
       <use xlink:href="#DejaVuSans-30" x="190.869141"/>
      </g>
     </g>
    </g>
    <g id="ytick_8">
     <g id="line2d_20">
      <path d="M 57.6 42.400143 
L 414.72 42.400143 
" clip-path="url(#pab9a7d6646)" style="fill: none; stroke: #b0b0b0; stroke-opacity: 0.75; stroke-width: 0.8; stroke-linecap: square"/>
     </g>
     <g id="line2d_21">
      <g>
       <use xlink:href="#ma2f2e99903" x="57.6" y="42.400143" style="stroke: #000000; stroke-width: 0.8"/>
      </g>
     </g>
     <g id="text_14">
      <!-- 1400 -->
      <g transform="translate(25.15 46.199362) scale(0.1 -0.1)">
       <use xlink:href="#DejaVuSans-31"/>
       <use xlink:href="#DejaVuSans-34" x="63.623047"/>
       <use xlink:href="#DejaVuSans-30" x="127.246094"/>
       <use xlink:href="#DejaVuSans-30" x="190.869141"/>
      </g>
     </g>
    </g>
    <g id="text_15">
     <!-- frequency -->
     <g transform="translate(19.070312 199.604562) rotate(-90) scale(0.1 -0.1)">
      <defs>
       <path id="DejaVuSans-66" d="M 2375 4863 
L 2375 4384 
L 1825 4384 
Q 1516 4384 1395 4259 
Q 1275 4134 1275 3809 
L 1275 3500 
L 2222 3500 
L 2222 3053 
L 1275 3053 
L 1275 0 
L 697 0 
L 697 3053 
L 147 3053 
L 147 3500 
L 697 3500 
L 697 3744 
Q 697 4328 969 4595 
Q 1241 4863 1831 4863 
L 2375 4863 
z
" transform="scale(0.015625)"/>
       <path id="DejaVuSans-71" d="M 947 1747 
Q 947 1113 1208 752 
Q 1469 391 1925 391 
Q 2381 391 2643 752 
Q 2906 1113 2906 1747 
Q 2906 2381 2643 2742 
Q 2381 3103 1925 3103 
Q 1469 3103 1208 2742 
Q 947 2381 947 1747 
z
M 2906 525 
Q 2725 213 2448 61 
Q 2172 -91 1784 -91 
Q 1150 -91 751 415 
Q 353 922 353 1747 
Q 353 2572 751 3078 
Q 1150 3584 1784 3584 
Q 2172 3584 2448 3432 
Q 2725 3281 2906 2969 
L 2906 3500 
L 3481 3500 
L 3481 -1331 
L 2906 -1331 
L 2906 525 
z
" transform="scale(0.015625)"/>
       <path id="DejaVuSans-75" d="M 544 1381 
L 544 3500 
L 1119 3500 
L 1119 1403 
Q 1119 906 1312 657 
Q 1506 409 1894 409 
Q 2359 409 2629 706 
Q 2900 1003 2900 1516 
L 2900 3500 
L 3475 3500 
L 3475 0 
L 2900 0 
L 2900 538 
Q 2691 219 2414 64 
Q 2138 -91 1772 -91 
Q 1169 -91 856 284 
Q 544 659 544 1381 
z
M 1991 3584 
L 1991 3584 
z
" transform="scale(0.015625)"/>
      </defs>
      <use xlink:href="#DejaVuSans-66"/>
      <use xlink:href="#DejaVuSans-72" x="35.205078"/>
      <use xlink:href="#DejaVuSans-65" x="74.068359"/>
      <use xlink:href="#DejaVuSans-71" x="135.591797"/>
      <use xlink:href="#DejaVuSans-75" x="199.068359"/>
      <use xlink:href="#DejaVuSans-65" x="262.447266"/>
      <use xlink:href="#DejaVuSans-6e" x="323.970703"/>
      <use xlink:href="#DejaVuSans-63" x="387.349609"/>
      <use xlink:href="#DejaVuSans-79" x="442.330078"/>
     </g>
    </g>
   </g>
   <g id="line2d_22">
    <path d="M 229.904915 307.584 
L 229.904915 41.472 
" clip-path="url(#pab9a7d6646)" style="fill: none; stroke: #ff0000; stroke-width: 1.5; stroke-linecap: square"/>
   </g>
   <g id="line2d_23">
    <path d="M 231.870003 307.584 
L 231.870003 41.472 
" clip-path="url(#pab9a7d6646)" style="fill: none; stroke: #008000; stroke-width: 1.5; stroke-linecap: square"/>
   </g>
   <g id="patch_83">
    <path d="M 57.6 307.584 
L 57.6 41.472 
" style="fill: none; stroke: #000000; stroke-width: 0.8; stroke-linejoin: miter; stroke-linecap: square"/>
   </g>
   <g id="patch_84">
    <path d="M 414.72 307.584 
L 414.72 41.472 
" style="fill: none; stroke: #000000; stroke-width: 0.8; stroke-linejoin: miter; stroke-linecap: square"/>
   </g>
   <g id="patch_85">
    <path d="M 57.6 307.584 
L 414.72 307.584 
" style="fill: none; stroke: #000000; stroke-width: 0.8; stroke-linejoin: miter; stroke-linecap: square"/>
   </g>
   <g id="patch_86">
    <path d="M 57.6 41.472 
L 414.72 41.472 
" style="fill: none; stroke: #000000; stroke-width: 0.8; stroke-linejoin: miter; stroke-linecap: square"/>
   </g>
   <g id="legend_1">
    <g id="patch_87">
     <path d="M 323.845 64.150125 
L 407.72 64.150125 
Q 409.72 64.150125 409.72 62.150125 
L 409.72 48.472 
Q 409.72 46.472 407.72 46.472 
L 323.845 46.472 
Q 321.845 46.472 321.845 48.472 
L 321.845 62.150125 
Q 321.845 64.150125 323.845 64.150125 
z
" style="fill: #ffffff; opacity: 0.8; stroke: #cccccc; stroke-linejoin: miter"/>
    </g>
    <g id="line2d_24">
     <path d="M 325.845 54.570438 
L 335.845 54.570438 
L 345.845 54.570438 
" style="fill: none; stroke: #ff0000; stroke-width: 1.5; stroke-linecap: square"/>
    </g>
    <g id="text_16">
     <!-- True Value -->
     <g transform="translate(353.845 58.070438) scale(0.1 -0.1)">
      <defs>
       <path id="DejaVuSans-54" d="M -19 4666 
L 3928 4666 
L 3928 4134 
L 2272 4134 
L 2272 0 
L 1638 0 
L 1638 4134 
L -19 4134 
L -19 4666 
z
" transform="scale(0.015625)"/>
       <path id="DejaVuSans-56" d="M 1831 0 
L 50 4666 
L 709 4666 
L 2188 738 
L 3669 4666 
L 4325 4666 
L 2547 0 
L 1831 0 
z
" transform="scale(0.015625)"/>
       <path id="DejaVuSans-6c" d="M 603 4863 
L 1178 4863 
L 1178 0 
L 603 0 
L 603 4863 
z
" transform="scale(0.015625)"/>
      </defs>
      <use xlink:href="#DejaVuSans-54"/>
      <use xlink:href="#DejaVuSans-72" x="46.333984"/>
      <use xlink:href="#DejaVuSans-75" x="87.447266"/>
      <use xlink:href="#DejaVuSans-65" x="150.826172"/>
      <use xlink:href="#DejaVuSans-20" x="212.349609"/>
      <use xlink:href="#DejaVuSans-56" x="244.136719"/>
      <use xlink:href="#DejaVuSans-61" x="304.794922"/>
      <use xlink:href="#DejaVuSans-6c" x="366.074219"/>
      <use xlink:href="#DejaVuSans-75" x="393.857422"/>
      <use xlink:href="#DejaVuSans-65" x="457.236328"/>
     </g>
    </g>
   </g>
  </g>
 </g>
 <defs>
  <clipPath id="pab9a7d6646">
   <rect x="57.6" y="41.472" width="357.12" height="266.112"/>
  </clipPath>
 </defs>
</svg>
